<?xml version="1.0" encoding="UTF-8" standalone="no"?><svg width="80" height="80" viewBox="0 0 80 80" fill="none" xmlns="http://www.w3.org/2000/svg">
<path d="M40 5C20.6719 5 5 20.6719 5 40C5 59.3281 20.6719 75 40 75C59.3281 75 75 59.3281 75 40C75 20.6719 59.3281 5 40 5ZM56.8203 31.3828C56.8437 31.75 56.8437 32.1328 56.8437 32.5078C56.8437 43.9766 48.1094 57.1875 32.1484 57.1875C27.2266 57.1875 22.6641 55.7578 18.8203 53.2969C19.5234 53.375 20.1953 53.4062 20.9141 53.4062C24.9766 53.4062 28.7109 52.0313 31.6875 49.7031C27.875 49.625 24.6719 47.125 23.5781 43.6875C24.9141 43.8828 26.1172 43.8828 27.4922 43.5313C25.5291 43.1324 23.7646 42.0663 22.4986 40.5139C21.2325 38.9616 20.5429 37.0188 20.5469 35.0156V34.9062C21.6953 35.5547 23.0469 35.9531 24.4609 36.0078C23.2722 35.2156 22.2973 34.1423 21.6227 32.883C20.9482 31.6238 20.5947 30.2176 20.5938 28.7891C20.5938 27.1719 21.0156 25.6953 21.7734 24.4141C23.9524 27.0964 26.6713 29.2902 29.7536 30.8529C32.8359 32.4155 36.2126 33.3121 39.6641 33.4844C38.4375 27.5859 42.8438 22.8125 48.1406 22.8125C50.6406 22.8125 52.8906 23.8594 54.4766 25.5469C56.4375 25.1797 58.3125 24.4453 59.9844 23.4609C59.3359 25.4687 57.9766 27.1641 56.1719 28.2344C57.9219 28.0469 59.6094 27.5625 61.1719 26.8828C59.9922 28.6172 58.5156 30.1563 56.8203 31.3828V31.3828Z" fill="#2D4710"/>
</svg>
