<?xml version="1.0" encoding="UTF-8" standalone="no"?><svg width="24" height="24" viewBox="0 0 24 24" fill="none" xmlns="http://www.w3.org/2000/svg">
<path fill-rule="evenodd" clip-rule="evenodd" d="M17.25 1.5C17.0511 1.5 16.8604 1.42098 16.7197 1.28033C16.5791 1.13968 16.5 0.948912 16.5 0.75C16.5 0.551088 16.5791 0.360322 16.7197 0.21967C16.8604 0.0790176 17.0511 0 17.25 0L23.25 0C23.4489 0 23.6397 0.0790176 23.7804 0.21967C23.921 0.360322 24 0.551088 24 0.75V6.75C24 6.94891 23.921 7.13968 23.7804 7.28033C23.6397 7.42098 23.4489 7.5 23.25 7.5C23.0511 7.5 22.8604 7.42098 22.7197 7.28033C22.5791 7.13968 22.5 6.94891 22.5 6.75V2.5605L17.325 7.7355C17.7709 8.59365 18.0028 9.54686 18.0009 10.5139C17.9989 11.481 17.7633 12.4333 17.3139 13.2896C16.8646 14.146 16.215 14.8811 15.4203 15.4322C14.6256 15.9834 13.7095 16.3342 12.75 16.455V19.5H15C15.1989 19.5 15.3897 19.579 15.5304 19.7197C15.671 19.8603 15.75 20.0511 15.75 20.25C15.75 20.4489 15.671 20.6397 15.5304 20.7803C15.3897 20.921 15.1989 21 15 21H12.75V23.25C12.75 23.4489 12.671 23.6397 12.5304 23.7803C12.3897 23.921 12.1989 24 12 24C11.8011 24 11.6104 23.921 11.4697 23.7803C11.3291 23.6397 11.25 23.4489 11.25 23.25V21H9.00003C8.80112 21 8.61036 20.921 8.4697 20.7803C8.32905 20.6397 8.25003 20.4489 8.25003 20.25C8.25003 20.0511 8.32905 19.8603 8.4697 19.7197C8.61036 19.579 8.80112 19.5 9.00003 19.5H11.25V16.455C10.2898 16.3337 9.37314 15.982 8.57828 15.4298C7.78343 14.8775 7.13396 14.1412 6.6853 13.2836C6.23664 12.426 6.00211 11.4726 6.00171 10.5047C6.00131 9.53688 6.23506 8.58328 6.68301 7.72532C7.13097 6.86735 7.77983 6.13049 8.57423 5.5776C9.36863 5.02471 10.285 4.67221 11.2451 4.55016C12.2053 4.42812 13.1807 4.54016 14.0881 4.87672C14.9956 5.21329 15.8082 5.76439 16.4565 6.483L21.4395 1.5H17.25ZM15.7545 8.019C15.0963 7.02324 14.0695 6.32974 12.9 6.09106C11.7305 5.85237 10.514 6.08805 9.51828 6.74625C8.52253 7.40445 7.82903 8.43126 7.59034 9.60078C7.35165 10.7703 7.58733 11.9867 8.24553 12.9825C8.90393 13.9783 9.93093 14.6717 11.1006 14.9102C12.2703 15.1488 13.4868 14.9129 14.4825 14.2545C15.4783 13.5961 16.1717 12.5691 16.4103 11.3994C16.6488 10.2298 16.4129 9.01326 15.7545 8.0175V8.019Z" fill="#4D7520"/>
</svg>
