<svg width="342" height="440" viewBox="0 0 342 440" fill="none" xmlns="http://www.w3.org/2000/svg">
<g filter="url(#filter0_d_609_3476)">
<rect width="334" height="432" rx="20" fill="url(#paint0_linear_609_3476)" fill-opacity="0.5" shape-rendering="crispEdges"/>
</g>
<path d="M0 286H334V412C334 423.046 325.046 432 314 432H20C8.95431 432 0 423.046 0 412V286Z" fill="#FAFFFA"/>
<path d="M31 333.62L27.34 322.8H28.82L31.74 331.8L34.54 322.8H36.04L32.48 333.62V339H31V333.62ZM39.1169 339.18C38.5302 339.18 38.0835 338.967 37.7769 338.54C37.4702 338.113 37.3169 337.507 37.3169 336.72V327.44H38.7969V336.4C38.7969 336.987 38.8835 337.407 39.0569 337.66C39.2435 337.9 39.5235 338.02 39.8969 338.02C40.2302 338.02 40.5702 337.92 40.9169 337.72C41.2769 337.507 41.6169 337.227 41.9369 336.88V327.44H43.3969V339H41.9369V337.72C41.5502 338.173 41.1169 338.533 40.6369 338.8C40.1569 339.053 39.6502 339.18 39.1169 339.18ZM45.6791 322.8H47.1391V333.08L50.9991 327.44H52.5391L49.6191 331.9L52.4191 339H50.9391L48.4991 332.72L47.1391 334.62V339H45.6791V322.8ZM61.8089 339.2C60.2889 339.2 59.2222 338.753 58.6089 337.86C58.0089 336.967 57.7089 335.727 57.7089 334.14V327.7C57.7089 326.073 58.0089 324.827 58.6089 323.96C59.2222 323.08 60.2889 322.64 61.8089 322.64C63.1956 322.64 64.1822 323.033 64.7689 323.82C65.3556 324.607 65.6489 325.747 65.6489 327.24V328.22H64.2089V327.28C64.2089 326.507 64.1489 325.88 64.0289 325.4C63.9089 324.907 63.6756 324.527 63.3289 324.26C62.9822 323.993 62.4822 323.86 61.8289 323.86C61.1222 323.86 60.5822 324.007 60.2089 324.3C59.8356 324.593 59.5822 325 59.4489 325.52C59.3156 326.027 59.2489 326.68 59.2489 327.48V334.38C59.2489 335.633 59.4356 336.547 59.8089 337.12C60.1956 337.693 60.8689 337.98 61.8289 337.98C62.7756 337.98 63.4089 337.693 63.7289 337.12C64.0489 336.533 64.2089 335.647 64.2089 334.46V333.4H65.6489V334.36C65.6489 335.907 65.3622 337.1 64.7889 337.94C64.2156 338.78 63.2222 339.2 61.8089 339.2ZM69.7294 339.18C69.036 339.18 68.476 338.933 68.0494 338.44C67.6227 337.947 67.4094 337.333 67.4094 336.6C67.4094 335.84 67.556 335.213 67.8494 334.72C68.156 334.227 68.6227 333.787 69.2494 333.4C69.876 333.013 70.816 332.54 72.0694 331.98V331.16C72.0694 330.44 72.0227 329.88 71.9294 329.48C71.8494 329.08 71.7027 328.793 71.4894 328.62C71.2894 328.447 71.0027 328.36 70.6294 328.36C69.5494 328.36 69.0094 329.02 69.0094 330.34V330.74L67.5694 330.72C67.5827 329.533 67.836 328.66 68.3294 328.1C68.8227 327.54 69.616 327.26 70.7094 327.26C71.7227 327.26 72.4427 327.567 72.8694 328.18C73.3094 328.793 73.5294 329.76 73.5294 331.08V336.7C73.5294 337.073 73.536 337.5 73.5494 337.98C73.576 338.46 73.6027 338.8 73.6294 339H72.3294L72.1094 337.4C71.936 337.907 71.636 338.333 71.2094 338.68C70.796 339.013 70.3027 339.18 69.7294 339.18ZM70.1894 337.94C70.5894 337.94 70.9494 337.807 71.2694 337.54C71.6027 337.26 71.8694 336.933 72.0694 336.56V332.96C71.1627 333.44 70.5027 333.813 70.0894 334.08C69.6894 334.347 69.3827 334.647 69.1694 334.98C68.9694 335.3 68.8694 335.72 68.8694 336.24C68.8694 336.813 68.9894 337.24 69.2294 337.52C69.4827 337.8 69.8027 337.94 70.1894 337.94ZM75.7786 327.44H77.2586V329.02C77.6053 328.447 78.0119 328.02 78.4786 327.74C78.9586 327.46 79.4386 327.32 79.9186 327.32C80.0119 327.32 80.0986 327.327 80.1786 327.34V328.9C79.9386 328.82 79.6986 328.78 79.4586 328.78C78.5386 328.78 77.8053 329.227 77.2586 330.12V339H75.7786V327.44ZM81.7761 323.86H83.2361V325.84H81.7761V323.86ZM81.7761 327.44H83.2361V339H81.7761V327.44ZM30.42 349.98H27.36V348.8H34.92V349.98H31.94V365H30.42V349.98ZM37.5223 365.18C36.829 365.18 36.269 364.933 35.8423 364.44C35.4157 363.947 35.2023 363.333 35.2023 362.6C35.2023 361.84 35.349 361.213 35.6423 360.72C35.949 360.227 36.4157 359.787 37.0423 359.4C37.669 359.013 38.609 358.54 39.8623 357.98V357.16C39.8623 356.44 39.8157 355.88 39.7223 355.48C39.6423 355.08 39.4957 354.793 39.2823 354.62C39.0823 354.447 38.7957 354.36 38.4223 354.36C37.3423 354.36 36.8023 355.02 36.8023 356.34V356.74L35.3623 356.72C35.3757 355.533 35.629 354.66 36.1223 354.1C36.6157 353.54 37.409 353.26 38.5023 353.26C39.5157 353.26 40.2357 353.567 40.6623 354.18C41.1023 354.793 41.3223 355.76 41.3223 357.08V362.7C41.3223 363.073 41.329 363.5 41.3423 363.98C41.369 364.46 41.3957 364.8 41.4223 365H40.1223L39.9023 363.4C39.729 363.907 39.429 364.333 39.0023 364.68C38.589 365.013 38.0957 365.18 37.5223 365.18ZM37.9823 363.94C38.3823 363.94 38.7423 363.807 39.0623 363.54C39.3957 363.26 39.6623 362.933 39.8623 362.56V358.96C38.9557 359.44 38.2957 359.813 37.8823 360.08C37.4823 360.347 37.1757 360.647 36.9623 360.98C36.7623 361.3 36.6623 361.72 36.6623 362.24C36.6623 362.813 36.7823 363.24 37.0223 363.52C37.2757 363.8 37.5957 363.94 37.9823 363.94ZM43.4916 348.8H44.9516V354.66C45.8182 353.727 46.7582 353.26 47.7716 353.26C48.3449 353.26 48.7849 353.473 49.0916 353.9C49.3982 354.327 49.5516 354.933 49.5516 355.72V365H48.0716V356.04C48.0716 355.453 47.9782 355.033 47.7916 354.78C47.6182 354.527 47.3449 354.4 46.9716 354.4C46.6516 354.4 46.3116 354.5 45.9516 354.7C45.6049 354.9 45.2716 355.167 44.9516 355.5V365H43.4916V348.8ZM53.4138 365.18C52.8271 365.18 52.3804 364.967 52.0738 364.54C51.7671 364.113 51.6138 363.507 51.6138 362.72V353.44H53.0938V362.4C53.0938 362.987 53.1804 363.407 53.3538 363.66C53.5404 363.9 53.8204 364.02 54.1938 364.02C54.5271 364.02 54.8671 363.92 55.2138 363.72C55.5738 363.507 55.9138 363.227 56.2338 362.88V353.44H57.6938V365H56.2338V363.72C55.8471 364.173 55.4138 364.533 54.9338 364.8C54.4538 365.053 53.9471 365.18 53.4138 365.18ZM67.778 365.2C66.5113 365.2 65.5446 364.813 64.878 364.04C64.2113 363.253 63.8313 362.173 63.738 360.8L65.078 360.4C65.198 361.547 65.4513 362.427 65.838 363.04C66.238 363.653 66.8913 363.96 67.798 363.96C69.318 363.96 70.078 363.18 70.078 361.62C70.078 360.953 69.918 360.367 69.598 359.86C69.2913 359.353 68.7913 358.773 68.098 358.12L65.238 355.38C64.718 354.9 64.338 354.4 64.098 353.88C63.8713 353.347 63.758 352.76 63.758 352.12C63.758 351.013 64.0846 350.16 64.738 349.56C65.4046 348.947 66.298 348.64 67.418 348.64C68.618 348.64 69.538 348.96 70.178 349.6C70.818 350.24 71.1913 351.287 71.298 352.74L69.998 353.08C69.918 351.987 69.6846 351.173 69.298 350.64C68.9246 350.107 68.298 349.84 67.418 349.84C66.7246 349.84 66.1713 350.02 65.758 350.38C65.3446 350.74 65.138 351.273 65.138 351.98C65.138 352.433 65.2246 352.84 65.398 353.2C65.5713 353.56 65.8646 353.94 66.278 354.34L69.138 357.04C69.8713 357.733 70.4446 358.447 70.858 359.18C71.2846 359.9 71.498 360.68 71.498 361.52C71.498 362.693 71.158 363.6 70.478 364.24C69.798 364.88 68.898 365.2 67.778 365.2ZM73.3972 349.86H74.8572V351.84H73.3972V349.86ZM73.3972 353.44H74.8572V365H73.3972V353.44ZM79.3192 365.18C78.6259 365.18 78.0659 364.933 77.6392 364.44C77.2126 363.947 76.9992 363.333 76.9992 362.6C76.9992 361.84 77.1459 361.213 77.4392 360.72C77.7459 360.227 78.2126 359.787 78.8392 359.4C79.4659 359.013 80.4059 358.54 81.6592 357.98V357.16C81.6592 356.44 81.6126 355.88 81.5192 355.48C81.4392 355.08 81.2926 354.793 81.0792 354.62C80.8792 354.447 80.5926 354.36 80.2192 354.36C79.1392 354.36 78.5992 355.02 78.5992 356.34V356.74L77.1592 356.72C77.1726 355.533 77.4259 354.66 77.9192 354.1C78.4126 353.54 79.2059 353.26 80.2992 353.26C81.3126 353.26 82.0326 353.567 82.4592 354.18C82.8992 354.793 83.1192 355.76 83.1192 357.08V362.7C83.1192 363.073 83.1259 363.5 83.1392 363.98C83.1659 364.46 83.1926 364.8 83.2192 365H81.9192L81.6992 363.4C81.5259 363.907 81.2259 364.333 80.7992 364.68C80.3859 365.013 79.8926 365.18 79.3192 365.18ZM79.7792 363.94C80.1792 363.94 80.5392 363.807 80.8592 363.54C81.1926 363.26 81.4592 362.933 81.6592 362.56V358.96C80.7526 359.44 80.0926 359.813 79.6792 360.08C79.2792 360.347 78.9726 360.647 78.7592 360.98C78.5592 361.3 78.4592 361.72 78.4592 362.24C78.4592 362.813 78.5792 363.24 78.8192 363.52C79.0726 363.8 79.3926 363.94 79.7792 363.94ZM85.2684 353.44H86.7284V354.4C87.3284 353.64 88.0684 353.26 88.9484 353.26C89.9618 353.26 90.6484 353.68 91.0084 354.52C91.3818 355.347 91.5684 356.46 91.5684 357.86V360.3C91.5684 361.887 91.3618 363.1 90.9484 363.94C90.5351 364.767 89.8151 365.18 88.7884 365.18C88.0684 365.18 87.3818 364.813 86.7284 364.08V368.8H85.2684V353.44ZM88.5684 364.02C89.1818 364.02 89.5884 363.733 89.7884 363.16C90.0018 362.587 90.1084 361.647 90.1084 360.34V357.86C90.1084 356.62 90.0018 355.733 89.7884 355.2C89.5884 354.667 89.1684 354.4 88.5284 354.4C87.9284 354.4 87.3284 354.7 86.7284 355.3V363.18C87.2618 363.74 87.8751 364.02 88.5684 364.02ZM95.6083 365.18C94.9149 365.18 94.3549 364.933 93.9283 364.44C93.5016 363.947 93.2883 363.333 93.2883 362.6C93.2883 361.84 93.4349 361.213 93.7283 360.72C94.0349 360.227 94.5016 359.787 95.1283 359.4C95.7549 359.013 96.6949 358.54 97.9483 357.98V357.16C97.9483 356.44 97.9016 355.88 97.8083 355.48C97.7283 355.08 97.5816 354.793 97.3683 354.62C97.1683 354.447 96.8816 354.36 96.5083 354.36C95.4283 354.36 94.8883 355.02 94.8883 356.34V356.74L93.4483 356.72C93.4616 355.533 93.7149 354.66 94.2083 354.1C94.7016 353.54 95.4949 353.26 96.5883 353.26C97.6016 353.26 98.3216 353.567 98.7483 354.18C99.1883 354.793 99.4083 355.76 99.4083 357.08V362.7C99.4083 363.073 99.4149 363.5 99.4283 363.98C99.4549 364.46 99.4816 364.8 99.5083 365H98.2083L97.9883 363.4C97.8149 363.907 97.5149 364.333 97.0883 364.68C96.6749 365.013 96.1816 365.18 95.6083 365.18ZM96.0683 363.94C96.4683 363.94 96.8283 363.807 97.1483 363.54C97.4816 363.26 97.7483 362.933 97.9483 362.56V358.96C97.0416 359.44 96.3816 359.813 95.9683 360.08C95.5683 360.347 95.2616 360.647 95.0483 360.98C94.8483 361.3 94.7483 361.72 94.7483 362.24C94.7483 362.813 94.8683 363.24 95.1083 363.52C95.3616 363.8 95.6816 363.94 96.0683 363.94ZM31 385.62L27.34 374.8H28.82L31.74 383.8L34.54 374.8H36.04L32.48 385.62V391H31V385.62ZM39.2216 391.18C38.5282 391.18 37.9682 390.933 37.5416 390.44C37.1149 389.947 36.9016 389.333 36.9016 388.6C36.9016 387.84 37.0482 387.213 37.3416 386.72C37.6482 386.227 38.1149 385.787 38.7416 385.4C39.3682 385.013 40.3082 384.54 41.5616 383.98V383.16C41.5616 382.44 41.5149 381.88 41.4216 381.48C41.3416 381.08 41.1949 380.793 40.9816 380.62C40.7816 380.447 40.4949 380.36 40.1216 380.36C39.0416 380.36 38.5016 381.02 38.5016 382.34V382.74L37.0616 382.72C37.0749 381.533 37.3282 380.66 37.8216 380.1C38.3149 379.54 39.1082 379.26 40.2016 379.26C41.2149 379.26 41.9349 379.567 42.3616 380.18C42.8016 380.793 43.0216 381.76 43.0216 383.08V388.7C43.0216 389.073 43.0282 389.5 43.0416 389.98C43.0682 390.46 43.0949 390.8 43.1216 391H41.8216L41.6016 389.4C41.4282 389.907 41.1282 390.333 40.7016 390.68C40.2882 391.013 39.7949 391.18 39.2216 391.18ZM39.6816 389.94C40.0816 389.94 40.4416 389.807 40.7616 389.54C41.0949 389.26 41.3616 388.933 41.5616 388.56V384.96C40.6549 385.44 39.9949 385.813 39.5816 386.08C39.1816 386.347 38.8749 386.647 38.6616 386.98C38.4616 387.3 38.3616 387.72 38.3616 388.24C38.3616 388.813 38.4816 389.24 38.7216 389.52C38.9749 389.8 39.2949 389.94 39.6816 389.94ZM45.1708 379.44H46.6308V380.64C47.0174 380.213 47.4441 379.88 47.9108 379.64C48.3908 379.387 48.8908 379.26 49.4108 379.26C49.9841 379.26 50.4241 379.473 50.7308 379.9C51.0374 380.327 51.1908 380.933 51.1908 381.72V391H49.7308V382.04C49.7308 381.453 49.6374 381.033 49.4508 380.78C49.2774 380.527 49.0041 380.4 48.6308 380.4C48.3108 380.4 47.9774 380.5 47.6308 380.7C47.2841 380.887 46.9508 381.147 46.6308 381.48V391H45.1708V379.44ZM56.2944 394.8C55.1077 394.8 54.1877 394.627 53.5344 394.28C52.8944 393.933 52.5744 393.407 52.5744 392.7C52.5744 392.167 52.7544 391.68 53.1144 391.24C53.4877 390.8 53.941 390.447 54.4744 390.18C53.621 389.953 53.1944 389.533 53.1944 388.92C53.1944 388.547 53.301 388.207 53.5144 387.9C53.741 387.58 54.0944 387.22 54.5744 386.82C54.0677 386.447 53.6944 385.973 53.4544 385.4C53.2277 384.813 53.1144 384.113 53.1144 383.3C53.1144 382.127 53.3877 381.16 53.9344 380.4C54.481 379.64 55.2877 379.26 56.3544 379.26C57.5277 379.26 58.3544 379.74 58.8344 380.7C58.9544 380.487 59.161 380.253 59.4544 380C59.761 379.733 60.0744 379.533 60.3944 379.4L60.6944 379.3L61.0944 380.32C60.7744 380.373 60.4144 380.507 60.0144 380.72C59.6277 380.933 59.3544 381.133 59.1944 381.32C59.2877 381.573 59.3677 381.907 59.4344 382.32C59.5144 382.72 59.5544 383.06 59.5544 383.34C59.5544 384.58 59.301 385.567 58.7944 386.3C58.2877 387.02 57.481 387.38 56.3744 387.38C56.1744 387.38 55.961 387.367 55.7344 387.34C55.521 387.3 55.341 387.253 55.1944 387.2C54.6744 387.72 54.4144 388.16 54.4144 388.52C54.4144 388.707 54.4877 388.853 54.6344 388.96C54.7944 389.053 55.041 389.12 55.3744 389.16L57.2144 389.44C58.1744 389.587 58.8944 389.88 59.3744 390.32C59.8677 390.747 60.1144 391.347 60.1144 392.12C60.1144 393.013 59.7677 393.68 59.0744 394.12C58.3944 394.573 57.4677 394.8 56.2944 394.8ZM56.3744 386.32C57.1344 386.32 57.641 386.04 57.8944 385.48C58.1477 384.92 58.2744 384.193 58.2744 383.3C58.2744 381.3 57.641 380.3 56.3744 380.3C55.641 380.3 55.1344 380.593 54.8544 381.18C54.5744 381.767 54.4344 382.473 54.4344 383.3C54.4344 385.313 55.081 386.32 56.3744 386.32ZM56.3544 393.62C57.1677 393.62 57.801 393.5 58.2544 393.26C58.721 393.02 58.9544 392.647 58.9544 392.14C58.9544 391.713 58.801 391.38 58.4944 391.14C58.201 390.9 57.6277 390.713 56.7744 390.58L55.2944 390.38C54.8544 390.7 54.4944 391.007 54.2144 391.3C53.9477 391.607 53.8144 391.953 53.8144 392.34C53.8144 392.78 54.021 393.1 54.4344 393.3C54.8477 393.513 55.4877 393.62 56.3544 393.62ZM69.7897 391.2C68.523 391.2 67.5564 390.813 66.8897 390.04C66.223 389.253 65.843 388.173 65.7497 386.8L67.0897 386.4C67.2097 387.547 67.463 388.427 67.8497 389.04C68.2497 389.653 68.903 389.96 69.8097 389.96C71.3297 389.96 72.0897 389.18 72.0897 387.62C72.0897 386.953 71.9297 386.367 71.6097 385.86C71.303 385.353 70.803 384.773 70.1097 384.12L67.2497 381.38C66.7297 380.9 66.3497 380.4 66.1097 379.88C65.883 379.347 65.7697 378.76 65.7697 378.12C65.7697 377.013 66.0964 376.16 66.7497 375.56C67.4164 374.947 68.3097 374.64 69.4297 374.64C70.6297 374.64 71.5497 374.96 72.1897 375.6C72.8297 376.24 73.203 377.287 73.3097 378.74L72.0097 379.08C71.9297 377.987 71.6964 377.173 71.3097 376.64C70.9364 376.107 70.3097 375.84 69.4297 375.84C68.7364 375.84 68.183 376.02 67.7697 376.38C67.3564 376.74 67.1497 377.273 67.1497 377.98C67.1497 378.433 67.2364 378.84 67.4097 379.2C67.583 379.56 67.8764 379.94 68.2897 380.34L71.1497 383.04C71.883 383.733 72.4564 384.447 72.8697 385.18C73.2964 385.9 73.5097 386.68 73.5097 387.52C73.5097 388.693 73.1697 389.6 72.4897 390.24C71.8097 390.88 70.9097 391.2 69.7897 391.2ZM76.9489 391.18C76.3622 391.18 75.9156 390.967 75.6089 390.54C75.3022 390.113 75.1489 389.507 75.1489 388.72V379.44H76.6289V388.4C76.6289 388.987 76.7156 389.407 76.8889 389.66C77.0756 389.9 77.3556 390.02 77.7289 390.02C78.0622 390.02 78.4022 389.92 78.7489 389.72C79.1089 389.507 79.4489 389.227 79.7689 388.88V379.44H81.2289V391H79.7689V389.72C79.3822 390.173 78.9489 390.533 78.4689 390.8C77.9889 391.053 77.4822 391.18 76.9489 391.18ZM86.0511 391.18C85.0644 391.18 84.3511 390.807 83.9111 390.06C83.4844 389.313 83.2711 388.073 83.2711 386.34V384.2C83.2711 382.56 83.4644 381.327 83.8511 380.5C84.2378 379.673 84.9511 379.26 85.9911 379.26C86.7378 379.26 87.4178 379.593 88.0311 380.26V374.8H89.4911V391H88.0311V390.18C87.4178 390.847 86.7578 391.18 86.0511 391.18ZM86.3511 390.02C86.9111 390.02 87.4711 389.767 88.0311 389.26V381.22C87.4178 380.673 86.8444 380.4 86.3111 380.4C85.6978 380.4 85.2778 380.66 85.0511 381.18C84.8378 381.7 84.7311 382.547 84.7311 383.72V386.46C84.7311 387.713 84.8378 388.62 85.0511 389.18C85.2778 389.74 85.7111 390.02 86.3511 390.02ZM93.7528 391.18C93.0595 391.18 92.4995 390.933 92.0728 390.44C91.6461 389.947 91.4328 389.333 91.4328 388.6C91.4328 387.84 91.5795 387.213 91.8728 386.72C92.1795 386.227 92.6461 385.787 93.2728 385.4C93.8995 385.013 94.8395 384.54 96.0928 383.98V383.16C96.0928 382.44 96.0461 381.88 95.9528 381.48C95.8728 381.08 95.7261 380.793 95.5128 380.62C95.3128 380.447 95.0261 380.36 94.6528 380.36C93.5728 380.36 93.0328 381.02 93.0328 382.34V382.74L91.5928 382.72C91.6061 381.533 91.8595 380.66 92.3528 380.1C92.8461 379.54 93.6395 379.26 94.7328 379.26C95.7461 379.26 96.4661 379.567 96.8928 380.18C97.3328 380.793 97.5528 381.76 97.5528 383.08V388.7C97.5528 389.073 97.5595 389.5 97.5728 389.98C97.5995 390.46 97.6261 390.8 97.6528 391H96.3528L96.1328 389.4C95.9595 389.907 95.6595 390.333 95.2328 390.68C94.8195 391.013 94.3261 391.18 93.7528 391.18ZM94.2128 389.94C94.6128 389.94 94.9728 389.807 95.2928 389.54C95.6261 389.26 95.8928 388.933 96.0928 388.56V384.96C95.1861 385.44 94.5261 385.813 94.1128 386.08C93.7128 386.347 93.4061 386.647 93.1928 386.98C92.9928 387.3 92.8928 387.72 92.8928 388.24C92.8928 388.813 93.0128 389.24 93.2528 389.52C93.5061 389.8 93.8261 389.94 94.2128 389.94ZM99.722 374.8H101.182V380.66C102.049 379.727 102.989 379.26 104.002 379.26C104.575 379.26 105.015 379.473 105.322 379.9C105.629 380.327 105.782 380.933 105.782 381.72V391H104.302V382.04C104.302 381.453 104.209 381.033 104.022 380.78C103.849 380.527 103.575 380.4 103.202 380.4C102.882 380.4 102.542 380.5 102.182 380.7C101.835 380.9 101.502 381.167 101.182 381.5V391H99.722V374.8ZM112.326 374.8H115.846C117.446 374.8 118.58 375.213 119.246 376.04C119.913 376.853 120.246 378.027 120.246 379.56V386C120.246 387.613 119.92 388.853 119.266 389.72C118.626 390.573 117.533 391 115.986 391H112.326V374.8ZM115.886 389.86C116.7 389.86 117.306 389.693 117.706 389.36C118.12 389.013 118.386 388.56 118.506 388C118.626 387.427 118.686 386.68 118.686 385.76V379.72C118.686 378.84 118.613 378.14 118.466 377.62C118.32 377.087 118.04 376.68 117.626 376.4C117.213 376.12 116.613 375.98 115.826 375.98H113.846V389.86H115.886ZM124.456 391.18C123.763 391.18 123.203 390.933 122.776 390.44C122.349 389.947 122.136 389.333 122.136 388.6C122.136 387.84 122.283 387.213 122.576 386.72C122.883 386.227 123.349 385.787 123.976 385.4C124.603 385.013 125.543 384.54 126.796 383.98V383.16C126.796 382.44 126.749 381.88 126.656 381.48C126.576 381.08 126.429 380.793 126.216 380.62C126.016 380.447 125.729 380.36 125.356 380.36C124.276 380.36 123.736 381.02 123.736 382.34V382.74L122.296 382.72C122.309 381.533 122.563 380.66 123.056 380.1C123.549 379.54 124.343 379.26 125.436 379.26C126.449 379.26 127.169 379.567 127.596 380.18C128.036 380.793 128.256 381.76 128.256 383.08V388.7C128.256 389.073 128.263 389.5 128.276 389.98C128.303 390.46 128.329 390.8 128.356 391H127.056L126.836 389.4C126.663 389.907 126.363 390.333 125.936 390.68C125.523 391.013 125.029 391.18 124.456 391.18ZM124.916 389.94C125.316 389.94 125.676 389.807 125.996 389.54C126.329 389.26 126.596 388.933 126.796 388.56V384.96C125.889 385.44 125.229 385.813 124.816 386.08C124.416 386.347 124.109 386.647 123.896 386.98C123.696 387.3 123.596 387.72 123.596 388.24C123.596 388.813 123.716 389.24 123.956 389.52C124.209 389.8 124.529 389.94 124.916 389.94ZM131.125 380.5H129.645V379.44H131.125V378.24C131.125 377.587 131.172 377.053 131.265 376.64C131.372 376.227 131.578 375.9 131.885 375.66C132.192 375.42 132.645 375.3 133.245 375.3C133.672 375.3 134.065 375.347 134.425 375.44V376.52C134.158 376.453 133.885 376.42 133.605 376.42C133.192 376.42 132.918 376.547 132.785 376.8C132.665 377.04 132.605 377.473 132.605 378.1V379.44H134.465V380.5H132.605V391H131.125V380.5ZM138.497 391.14C137.71 391.14 137.163 390.927 136.857 390.5C136.563 390.06 136.417 389.427 136.417 388.6V380.4H134.997V379.44H136.417V375.86H137.877V379.44H139.797V380.4H137.877V388.46C137.877 389.047 137.943 389.453 138.077 389.68C138.21 389.893 138.483 390 138.897 390C139.15 390 139.43 389.967 139.737 389.9V391.02C139.323 391.1 138.91 391.14 138.497 391.14ZM143.362 391.18C142.669 391.18 142.109 390.933 141.682 390.44C141.256 389.947 141.042 389.333 141.042 388.6C141.042 387.84 141.189 387.213 141.482 386.72C141.789 386.227 142.256 385.787 142.882 385.4C143.509 385.013 144.449 384.54 145.702 383.98V383.16C145.702 382.44 145.656 381.88 145.562 381.48C145.482 381.08 145.336 380.793 145.122 380.62C144.922 380.447 144.636 380.36 144.262 380.36C143.182 380.36 142.642 381.02 142.642 382.34V382.74L141.202 382.72C141.216 381.533 141.469 380.66 141.962 380.1C142.456 379.54 143.249 379.26 144.342 379.26C145.356 379.26 146.076 379.567 146.502 380.18C146.942 380.793 147.162 381.76 147.162 383.08V388.7C147.162 389.073 147.169 389.5 147.182 389.98C147.209 390.46 147.236 390.8 147.262 391H145.962L145.742 389.4C145.569 389.907 145.269 390.333 144.842 390.68C144.429 391.013 143.936 391.18 143.362 391.18ZM143.822 389.94C144.222 389.94 144.582 389.807 144.902 389.54C145.236 389.26 145.502 388.933 145.702 388.56V384.96C144.796 385.44 144.136 385.813 143.722 386.08C143.322 386.347 143.016 386.647 142.802 386.98C142.602 387.3 142.502 387.72 142.502 388.24C142.502 388.813 142.622 389.24 142.862 389.52C143.116 389.8 143.436 389.94 143.822 389.94ZM149.411 379.44H150.891V381.02C151.238 380.447 151.645 380.02 152.111 379.74C152.591 379.46 153.071 379.32 153.551 379.32C153.645 379.32 153.731 379.327 153.811 379.34V380.9C153.571 380.82 153.331 380.78 153.091 380.78C152.171 380.78 151.438 381.227 150.891 382.12V391H149.411V379.44Z" fill="#273E0E"/>
<path fill-rule="evenodd" clip-rule="evenodd" d="M116.328 199.793C116.354 189.563 116.526 179.329 116.827 169.105C117.051 161.527 117.338 153.944 117.893 146.387C118.112 143.394 118.368 140.398 118.77 137.428C119.019 135.589 119.248 133.586 119.925 131.874C120.147 131.314 120.361 130.949 120.833 130.663C122.578 129.602 124.969 129.446 126.892 129.222C130.046 128.855 133.238 128.75 136.407 128.824C136.221 132.728 136.036 136.633 135.85 140.537C135.707 143.544 135.564 146.55 135.421 149.557C135.331 151.455 135.114 153.407 135.148 155.308C135.176 156.857 136.766 158.339 137.574 159.548C138.565 156.074 139.557 152.601 140.548 149.128C141.073 150.678 141.633 152.215 142.242 153.723C142.644 154.718 143.054 155.742 143.587 156.657C144.074 157.492 144.217 157.61 145.063 157.468C146.083 157.296 146.857 156.95 147.459 157.818C147.993 158.587 148.49 159.372 149.07 160.102C155.47 168.163 165.331 173.17 174.469 175.435C179.851 176.768 185.281 177.851 190.66 179.211C198.875 181.288 207.312 183.335 215.157 186.885C216.386 187.441 217.629 188.039 218.751 188.848C219.988 189.74 220.871 191.09 221.727 192.427C223.819 195.693 226.27 201.05 223.045 204.459C220.572 207.072 216.708 207.334 213.496 207.628C210.175 207.933 206.843 208.081 203.514 208.205C194.447 208.542 185.371 208.615 176.3 208.625C168.012 208.632 159.722 208.579 151.435 208.397C147.676 208.315 144.053 208.415 140.416 207.31C132.971 205.049 125.547 202.695 118.12 200.357C117.523 200.169 116.925 199.981 116.328 199.793Z" fill="#4D7520"/>
<path fill-rule="evenodd" clip-rule="evenodd" d="M191.983 110.386C191.635 110.8 192.199 111.119 192.453 111.209C192.412 110.81 192.244 110.629 191.983 110.386ZM144.31 188.21C144.176 187.848 143.976 187.55 143.61 187.721C143.006 188.003 144.229 188.206 144.31 188.21ZM196.877 129.861C197.127 129.896 198.15 129.823 197.834 129.186C197.467 128.448 196.964 129.632 196.877 129.861ZM178.548 123.329C179.085 122.801 179.567 121.995 179.573 121.157C179.066 121.542 178.795 122.733 178.548 123.329ZM191.434 112.736C191.881 112.762 191.472 112.041 191.476 111.897C191.485 111.588 191.737 111.324 191.696 110.958C191.695 110.943 191.244 109.786 191.125 109.712C190.79 109.506 190.595 109.884 190.295 110.002C189.85 110.175 189.632 110.022 189.155 110.075C188.734 110.122 188.379 110.357 187.939 110.357C187.834 110.357 187.719 110.103 187.599 110.117C187.412 110.139 187.394 110.412 187.261 110.426C186.796 110.473 186.769 110.262 186.336 110.063C185.615 109.733 185.109 110.501 185.125 111.409C185.146 112.613 186.242 113.104 187.082 113.381C188.165 113.737 188.766 113.952 189.866 113.728C190.185 113.662 190.508 113.779 190.759 113.527C191.096 113.189 190.917 112.476 191.303 112.147C191.346 112.343 191.39 112.54 191.434 112.736ZM153.338 160.607C153.428 161.393 153.239 161.798 153.905 162.325C154.298 162.636 154.793 162.841 155.209 163.153C155.812 163.604 156.716 163.894 157.251 164.414C157.591 164.743 157.651 165.676 158.122 165.79C158.523 165.885 159.001 165.056 159.138 164.683C159.29 164.269 159.189 163.928 159.25 163.515C159.292 163.238 159.473 163.18 159.441 162.854C159.408 162.512 159.119 162.332 158.993 162.061C158.88 161.818 158.846 161.473 158.758 161.281C158.55 160.829 158.088 159.87 157.676 159.571C157.329 160.614 157.066 159.558 156.585 159.251C156.406 159.246 156.226 159.244 156.047 159.246C155.954 159.145 155.859 159.045 155.763 158.948C155.541 158.924 155.176 159.06 154.976 159.131C154.866 159.102 154.754 159.085 154.641 159.08C154.491 159.13 154.432 159.226 154.463 159.367C154.529 159.333 154.166 159.585 154.132 159.612C153.416 160.168 152.76 160.39 152.628 161.574C152.865 161.252 153.101 160.929 153.338 160.607ZM158.916 118.339C158.151 116.069 158.394 114.069 158.468 111.693C158.485 111.135 158.589 109.939 158.08 109.568C157.445 109.107 156.916 110.151 156.585 110.583C156.015 111.325 155.22 112.005 154.928 112.968C154.671 113.817 154.937 114.859 155.133 115.7C155.345 116.607 155.607 117.825 156.328 118.328C157.097 118.864 158.14 118.811 158.916 118.339ZM185.872 166.613C185.762 164.874 183.649 165.483 182.699 166.02C181.989 166.421 181.591 167.032 181.144 167.76C180.636 168.585 180.47 168.816 180.51 169.798C180.547 170.693 180.504 171.594 180.7 172.485C180.799 172.937 180.821 173.017 181.083 173.328C181.083 173.328 181.537 173.846 181.411 173.763C181.997 174.147 182.871 174.211 183.56 174.27C184.544 174.355 184.781 174.37 185.18 173.299C185.257 173.485 185.334 173.672 185.41 173.858C185.435 173.726 185.709 172.161 185.645 172.177C185.535 172.204 185.417 172.568 185.363 172.661C185.397 171.94 185.845 171.401 186.062 170.758C186.262 170.167 186.344 169.498 186.498 168.886C186.647 168.294 186.814 167.471 186.67 166.857C186.478 166.041 186.417 166.274 185.872 166.613ZM198.627 128.263C198.971 128.633 198.665 129.232 198.709 129.691C199.176 129.363 199.014 129.188 199.195 128.655C199.311 128.312 199.654 127.655 199.954 128.217C200.08 128.454 199.663 128.779 199.945 128.918C200.111 128.999 200.552 128.364 200.632 128.264C201.189 127.574 201.544 126.869 201.59 125.929C201.603 125.672 201.6 125.03 201.52 124.882C201.289 124.455 200.674 124.708 200.727 123.928C200.972 124.067 201.216 124.206 201.461 124.346C201.537 123.469 200.711 122.95 200.365 122.254C199.972 121.461 199.716 120.884 199.075 120.202C198.779 119.887 198.298 119.238 197.913 119.086C197.614 118.968 197.493 119.142 197.192 119.146C196.562 119.153 195.615 118.957 196.553 119.758C196.362 119.861 196.112 119.924 195.949 120.086C195.829 120.205 195.784 120.547 195.642 120.629C195.338 120.805 195.11 120.461 194.766 120.853C194.404 121.266 194.774 121.526 194.694 121.707C194.462 122.23 194.142 121.97 194.153 122.768C194.17 124.082 194.831 125.638 195.186 126.866C195.395 127.588 195.629 128.717 196.511 128.421C196.478 128.769 196.401 129.106 196.598 129.416C196.782 129.168 196.848 128.623 196.972 128.332C197.155 127.903 197.452 127.488 197.663 127.071C197.632 127.731 197.569 127.914 197.178 128.413C197.693 128.486 198.327 128.958 198.627 128.263ZM160.952 147.366C161.424 146.956 160.804 146.499 161.735 146.732C161.973 146.791 161.734 147.109 162.093 147.121C162.229 147.125 162.561 146.744 162.655 146.654C162.741 146.572 163.127 145.976 163.189 145.937C163.085 146.001 163.658 145.747 163.479 145.912C163.82 145.598 164.079 145.08 164.233 144.452C164.609 142.91 164.555 141.068 163.776 139.744C163.449 139.189 163.188 138.512 162.696 138.14C162.028 137.634 160.924 137.334 160.179 137.013L160.42 136.341C158.373 137.4 156.961 139.875 156.788 142.388C156.726 143.292 156.501 144.441 156.982 145.242C157.484 146.079 158.749 146.959 159.448 146.029C159.342 146.547 159.653 147.167 160.131 147.3C160.312 147.35 160.483 147.2 160.563 147.213C160.665 147.23 160.879 147.383 160.952 147.366ZM142.158 94.8849C140.782 94.6973 140.995 97.5434 141.253 98.398C141.461 99.0875 142.207 100.047 142.601 100.648C143.071 101.363 143.699 101.897 144.365 102.354C144.594 102.51 144.761 102.56 144.959 102.647C145.029 102.568 145.112 102.526 145.21 102.523C145.296 102.687 145.418 102.81 145.575 102.891C146.076 103.069 146.903 103.042 147.401 103.018C148.202 102.979 149.137 102.451 149.934 102.275C150.307 102.193 150.514 102.16 150.843 101.938C151.009 101.827 151.334 100.967 151.381 101.811C151.586 101.666 151.521 101.428 151.671 101.322C151.815 101.221 152.273 101.123 152.444 100.901C152.682 100.59 152.999 99.881 153.165 99.4564C153.272 99.184 153.498 98.4819 153.48 98.1983C153.442 97.5978 153.273 97.736 152.825 97.4872C152.525 97.321 152.353 97.1818 152.054 97.0899C152.019 97.0793 151.936 97.284 151.877 97.2664C151.775 97.2359 151.733 97.1004 151.661 97.074C151.115 96.871 150.47 96.2694 149.794 96.3276C149.502 96.3528 149.229 96.862 149.079 96.836C148.848 96.796 148.963 96.2541 148.803 96.0577C148.393 95.5575 147.025 95.6384 146.493 95.5518C145.05 95.3161 143.604 95.0962 142.158 94.8849ZM190.347 138.144C190.479 136.963 190.641 135.79 189.511 135.209C189.086 134.991 188.733 135.07 188.298 135.011C187.733 134.934 187.815 134.655 187.396 135.35C187.164 135.008 187.318 134.898 186.938 134.857C186.781 134.84 186.097 135.35 185.919 135.434C185.177 135.781 184.232 135.749 183.673 136.45C183.129 137.132 182.689 137.787 182.459 138.717C182.344 139.186 182.268 139.671 182.125 140.131C181.97 140.628 181.623 141.057 181.504 141.554C181.019 143.579 183.078 145.426 184.525 145.963C184.711 145.92 184.894 145.934 185.073 146.005C185.199 146.1 185.312 146.213 185.412 146.342C185.867 146.506 185.975 146.452 186.439 146.213C187.202 145.818 188.094 145.684 188.671 146.606C188.85 145.533 189.5 146.172 189.813 145.48C189.986 145.099 189.609 144.043 189.827 143.768C190.199 143.302 191.357 144.132 191.327 143.042C191.316 142.645 190.922 142.513 190.785 142.199C190.54 141.636 190.676 141.04 191.017 140.545C191.049 140.63 191.172 141.191 191.336 141.043C191.769 140.648 191.057 140.027 190.901 139.811C190.645 139.457 190.412 139.186 190.469 138.69C190.505 138.383 190.935 138.063 190.92 137.765C190.908 137.537 190.376 138.117 190.347 138.144ZM170.23 150.892C170.259 151.72 169.797 151.828 169.493 152.397C169.411 152.552 169.405 152.924 169.29 153.151C169.074 153.577 168.923 153.604 168.854 154.019C168.862 153.973 168.97 154.431 168.973 154.483C169.002 155.067 168.648 155.534 168.745 156.176C168.882 157.08 169.482 158.087 169.905 158.838C170.86 160.538 172.196 161.855 174.027 161.975C175.249 162.055 178.125 161.496 178.387 160.032C178.318 159.862 178.26 159.687 178.212 159.507C178.184 159.247 178.268 159.07 178.465 158.975C178.616 158.929 178.734 158.833 178.819 158.687C178.777 158.538 178.709 158.407 178.615 158.294C178.649 158.098 178.937 158.088 178.932 157.962C178.924 157.727 178.743 157.137 178.694 156.869C178.61 156.406 178.565 155.965 178.491 155.498C178.431 155.121 178.229 154.935 178.177 154.589C178.142 154.353 178.351 154.139 178.333 153.888C178.195 153.747 178.083 153.582 177.998 153.394C177.988 153.199 178.03 153.018 178.124 152.851C177.918 151.205 175.885 149.822 174.438 149.784C173.661 149.764 172.334 149.7 171.635 150.165C171.167 150.476 170.854 151.578 170.23 150.892ZM139.029 208.914C138.008 208.387 137.092 207.825 135.998 207.569C135.208 207.384 134.53 206.875 133.737 206.71C131.978 206.343 130.079 206.004 128.393 205.298C126.585 204.54 124.616 204.269 122.763 203.64C121.85 203.33 121.054 203.126 120.11 203.066C119.191 203.008 118.246 202.421 117.326 202.52C116.558 202.603 116.01 203.279 115.409 203.761C114.63 204.386 113.78 204.924 112.942 205.44C112.053 205.988 111.063 206.263 110.186 206.797C109.457 207.24 108.742 207.672 107.991 208.079C104.001 210.238 100.147 212.256 96.5489 215.26C97.7093 215.665 99.0294 215.262 100.183 215.119C101.822 214.916 103.455 214.764 105.078 214.416C106.027 214.213 107.881 213.437 108.787 214.033C109.584 214.557 109.523 215.902 109.637 216.801C110.39 216.469 111.138 216.128 111.897 215.816C112.494 215.57 113.462 214.895 114.07 214.871C115.764 214.806 115.579 217.529 115.414 218.778C116.404 218.393 117.345 218.124 118.305 217.647C119.074 217.265 119.923 217.181 120.67 216.725C122.527 215.591 124.586 214.881 126.574 214.077C128.816 213.169 131.054 212.244 133.277 211.276C134.191 210.878 135.092 210.352 136.027 210.029C137.034 209.682 138.064 209.42 139.029 208.914ZM161.154 105.09C161.012 106.622 161.159 108.166 161.2 109.7C161.248 111.495 161.25 113.271 161.453 115.056C161.819 118.276 162.334 121.497 163.341 124.544C164.257 127.319 165.804 129.281 168.423 129.881C170.776 130.419 173.069 129.495 174.567 127.342C176.12 125.109 176.597 122.289 177.507 119.701C177.951 118.436 178.281 117.163 178.652 115.869C178.874 115.093 179.977 112.866 179.661 112.07C179.353 111.292 177.536 111.026 176.907 110.594C175.907 109.906 174.982 108.529 174.219 107.522C173.708 106.847 173.41 106.348 173.065 107.419C172.65 108.705 172.951 110.19 172.564 111.438C172.183 112.664 171.353 111.454 171.267 110.655C171.104 109.12 171.301 107.376 171.364 105.833C171.482 102.958 171.647 99.6324 173.91 97.8597C176.056 96.1795 178.384 95.6568 179.576 92.7561C180.053 91.5932 180.615 90.3749 180.316 89.0738C179.971 87.5722 179.461 86.0019 178.959 84.5587C177.995 81.7872 176.485 79.374 175.164 76.8294C174.986 76.4862 174.949 76.0463 174.559 75.9493C174.118 75.8395 173.09 76.698 172.663 76.8365C171.499 77.2132 170.46 76.4316 169.434 77.3162C168.61 78.0263 167.912 79.0482 166.8 79.1225C166.322 79.1544 165.673 78.6652 165.261 78.782C164.735 78.9308 164.583 79.8286 164.381 80.333C163.916 81.4903 163.397 82.9405 162.63 83.8866C162.37 84.2077 161.91 84.3069 161.688 84.6058C161.429 84.953 161.573 85.6581 161.202 85.7213C160.987 85.7578 160.816 85.4242 160.635 85.3446C160.328 85.2091 160.026 85.1832 159.698 85.1943C159.09 85.2147 158.459 85.3829 157.924 85.7163C156.681 86.4914 156.222 87.6701 157.716 88.379C158.314 88.6633 158.965 88.8748 159.612 88.9408C160.323 89.0131 161.042 88.759 161.745 88.8582C163.101 89.0493 163.517 90.3477 163.868 91.6818C164.351 93.5171 164.741 95.3752 165.282 97.1913C165.725 98.675 166.529 100.183 166.761 101.733C166.904 102.685 166.717 102.614 166.162 103.203C165.739 103.651 165.485 104.24 165.027 104.689C163.75 105.943 162.637 105.609 161.154 105.09ZM243.576 194.229C243.537 193.902 237.485 194.528 236.797 194.447C235.622 194.308 234.371 194.676 233.156 194.629C232.083 194.588 230.534 194.11 229.647 194.707C229.318 194.928 229.31 195.19 228.791 195.077C228.309 194.972 227.801 194.582 227.44 194.22C226.436 193.213 225.822 191.629 225.165 190.324C223.85 187.711 222.724 185.003 221.632 182.256C219.384 176.596 217.221 170.904 214.976 165.243C213.865 162.443 212.794 159.638 211.596 156.89C211.085 155.717 210.523 154.431 210.13 153.202C209.701 151.862 209.137 150.604 208.752 149.231C207.937 146.322 206.963 143.456 206.339 140.464C206.181 139.706 206.123 138.913 205.932 138.166C205.729 137.369 205.314 136.687 205.054 135.915C204.789 135.128 204.788 134.426 204.656 133.622C204.525 132.821 204.203 132.04 203.972 131.272C202.78 132.095 201.422 132.845 200.326 133.823C199.247 134.786 197.672 135.592 198.124 137.332C198.535 138.915 199.262 140.371 199.695 141.952C200.18 143.725 200.777 145.459 201.245 147.236C202.25 151.053 203.131 154.914 204.031 158.764C204.454 160.573 204.983 162.386 205.293 164.226C205.454 165.183 205.428 166.039 205.731 166.966C206.028 167.873 206.31 168.759 206.553 169.687C206.987 171.339 207.402 172.994 207.882 174.629C208.142 175.513 208.349 176.408 208.534 177.316C208.646 177.866 209.027 178.922 208.92 179.491C208.612 181.128 206.721 179.46 206.269 178.791C205.219 177.241 204.466 175.345 203.68 173.609C200.523 166.639 198.971 159.122 197.343 151.534C196.915 149.54 196.502 147.563 196.021 145.589C195.517 143.521 195.371 141.358 194.776 139.301C194.161 137.176 193.535 135.128 193.083 132.942C192.875 131.929 192.654 130.917 192.469 129.899C192.37 129.356 192.365 128.356 191.733 128.247C192.14 131.659 192.291 135.656 193.478 138.855C194.554 141.757 195.409 145.733 194.321 148.814C193.798 150.296 192.97 151.561 192.348 152.973C191.652 154.551 191.199 156.363 190.733 158.044C189.767 161.527 189.482 165.189 188.836 168.751C188.497 170.618 188.491 171.895 188.784 173.732C188.879 174.323 188.712 174.793 189.147 175.172C189.585 175.554 190.596 175.631 191.137 175.85C192.778 176.514 194.189 177.002 195.927 177.22C197.569 177.426 199.111 177.799 200.674 178.415C203.492 179.525 206.422 180.354 209.191 181.467C210.706 182.076 212.166 183.16 213.622 183.937C215.136 184.747 216.743 185.275 218.171 186.285C219.709 187.372 221.229 188.635 222.687 189.854C224.037 190.983 224.684 192.387 225.246 194.144C226.314 197.485 229.007 201.82 226.52 205.191C227.392 205.625 228.39 205.797 229.226 206.262C229.514 206.422 229.6 206.578 229.928 206.67C230.357 206.791 230.909 206.695 231.348 206.727C231.984 206.775 233.323 207.298 233.942 207.087C234.521 206.889 234.547 205.927 234.963 205.452C235.58 204.748 236.172 205.202 236.927 205.123C238.045 205.007 239.158 204.839 240.277 204.727C242.534 204.502 244.785 204.449 247.05 204.455C245.871 202.956 241.535 205.684 241.429 202.969C241.305 199.828 244.653 200.77 246.28 199.864C244.801 199.914 243.322 199.931 241.846 200.065C240.95 200.146 239.228 200.637 238.721 199.51C238.177 198.298 239.053 196.896 239.873 196.263C241.008 195.387 242.32 194.828 243.576 194.229ZM120.216 152.346C119.944 152.965 120.365 153.215 120.555 153.714C120.818 154.404 120.558 154.267 120.505 154.916C120.47 155.351 120.574 155.557 120.552 155.965C120.543 156.138 120.328 156.369 120.303 156.566C120.257 156.92 120.424 157.083 120.406 157.341C120.397 157.468 120.541 157.491 120.512 157.676C120.486 157.838 120.162 157.951 120.143 158.053C120.033 158.641 120.341 158.347 120.388 158.626C120.467 159.091 120.238 159.171 120.108 159.599C119.883 160.338 120.1 160.682 120.239 161.375C120.356 161.959 120.182 161.963 120.116 162.52C120.076 162.859 120.161 162.9 120.16 163.214C120.156 164.301 119.944 165.43 119.935 166.581C119.914 169.306 119.712 171.99 119.682 174.708C119.653 177.378 119.483 180.082 119.381 182.785C119.331 184.104 119.214 185.417 119.164 186.736C119.105 188.267 119.236 189.791 119.124 191.316C119.021 192.702 119.083 194.093 119.033 195.483C119.009 196.142 118.713 198.138 119.091 198.581C119.582 199.157 121.572 198.544 122.216 198.585C123.426 198.66 124.702 198.939 125.888 199.226C128.698 199.903 131.514 200.767 134.325 201.375C136.669 201.882 138.869 203.171 141.05 204.263C140.85 201.967 140.497 199.728 140.432 197.414C140.374 195.334 140.545 193.266 140.505 191.189C140.419 186.757 140.199 182.375 140.286 177.944C140.374 173.439 140.691 168.838 141.239 164.376C141.49 162.325 141.687 160.141 142.327 158.192C142.617 157.31 143.09 156.662 142.894 155.691C142.681 154.64 142.261 153.54 141.951 152.521C141.723 154.182 140.918 165.25 137.614 161.922C136.324 160.623 135.727 157.809 135.438 155.964C135.049 153.471 135.188 150.851 135.199 148.328C135.219 143.187 135.712 137.943 136.165 132.831C136.255 131.81 136.706 130.897 135.562 130.946C134.49 130.992 133.388 131.283 132.321 131.426C131.398 131.55 130.472 131.248 129.592 131.383C129.189 131.445 128.832 131.719 128.425 131.788C127.911 131.875 127.374 131.747 126.857 131.748C125.985 131.749 124.975 131.744 124.251 132.365C123.491 133.018 122.839 134.098 122.584 135.142C122.329 136.186 122.397 137.361 122.236 138.404C122.1 139.283 122.071 140.368 121.943 141.367C121.392 140.575 121.427 141.718 121.421 142.055C121.414 142.463 121.031 143.289 121.13 143.528C121.194 143.682 121.622 143.601 121.658 143.722C121.733 143.971 121.475 144.076 121.47 144.262C121.452 144.989 121.488 145.739 121.487 146.472C121.337 146.341 121.187 146.21 121.038 146.079C120.959 146.274 120.934 146.53 120.859 146.728C120.825 146.818 120.509 146.793 120.494 146.97C120.474 147.202 120.917 147.648 121.002 147.9C121.155 148.352 121.252 148.174 120.993 148.661C120.695 149.222 120.207 149.253 120.285 150.068C120.443 149.93 120.581 149.768 120.699 149.585C120.772 150.071 120.588 150.5 120.565 150.985C120.551 151.301 120.887 152.566 120.633 152.777C120.527 152.867 120.242 152.38 120.216 152.346ZM142.509 112.456C142.511 111.389 141.15 109.747 140.682 108.854C139.936 107.429 139.134 106.139 138.185 104.88C137.232 103.615 136.214 102.409 135.29 101.116C134.907 100.581 134.624 99.9568 134.234 99.4333C133.746 98.7795 133.643 98.9805 133.039 98.9979C132.58 99.0112 132.281 98.9218 131.857 99.0779C131.631 99.1608 131.485 99.2839 131.243 99.3602C131.092 99.4083 130.892 99.2399 130.688 99.3212C130.185 99.5219 130.014 100.036 129.407 100.025C129.335 100.024 129.102 99.8261 129.068 99.8372C129.027 99.8508 128.838 100.016 128.845 100.014C128.804 100.025 128.816 100.352 128.708 100.408C128.524 100.505 128.393 100.18 128.226 100.201C127.802 100.254 127.486 100.755 127.017 100.877C126.415 101.033 125.894 100.805 125.319 101.126C124.859 101.383 124.626 101.966 124.244 101.363C123.898 102.205 123.26 101.95 122.624 102.305C121.736 102.8 120.774 103.05 119.828 103.424C117.883 104.193 115.924 104.981 114.028 105.906C110.095 107.826 106.286 109.955 102.441 112.019C98.6803 114.037 95.202 116.714 91.8176 119.408C90.1583 120.729 88.5087 122.116 87.2143 123.925C86.8221 124.473 86.1671 125.324 86.4314 126.095C86.7111 126.911 87.8931 127.417 88.5615 127.573C89.4378 127.779 90.4013 127.848 91.2935 127.916C92.2567 127.99 93.2914 128.026 94.2447 128.011C96.1237 127.982 97.9666 127.772 99.8543 127.724C102.002 127.67 104.107 127.151 106.25 127.121C108.606 127.087 110.935 126.749 113.294 126.854C117.842 127.058 122.386 127.208 126.947 127.234C127.514 127.237 128.071 127.158 128.628 127.272C129.08 127.363 129.407 127.545 129.892 127.505C130.344 127.468 130.763 127.241 131.223 127.214C131.828 127.178 132.447 127.292 133.055 127.278C135.106 127.23 137.54 127.016 139.518 127.759C140.303 128.055 141.291 128.914 140.812 130.029C140.339 131.131 139.129 130.233 138.38 130.734C137.682 131.2 138.069 132.473 138.119 133.235C138.212 134.677 138.229 136.112 138.195 137.557C138.122 140.749 137.952 143.938 137.92 147.131C137.904 148.682 137.924 150.232 137.995 151.781C138.058 153.148 138.016 154.636 138.424 155.941C138.993 154.312 139.062 152.513 139.287 150.797C139.531 148.939 139.77 147.082 140.002 145.223C140.14 144.118 140.283 137.485 142.17 138.352C144.176 139.272 143.478 144.376 143.569 146.21C143.655 147.942 143.81 149.667 144.153 151.359C144.312 152.146 144.75 155.485 145.63 155.701C146.276 152.206 146.959 148.717 147.433 145.184C147.643 143.625 147.828 142.054 147.911 140.478C147.955 139.658 147.902 137.688 148.937 137.592C151.979 137.311 149.938 151.991 152.211 153.838C153.052 151.923 153.381 149.925 153.609 147.801C153.713 146.835 153.935 145.746 153.803 144.777C153.631 143.509 153.444 142.731 153.676 141.42C153.865 140.347 154.001 139.246 154.219 138.182C154.377 137.415 154.788 137.041 155.005 136.35C155.617 134.404 155.578 131.94 155.821 129.897C156.068 127.828 156.329 125.793 156.008 123.706C155.692 121.639 154.371 120.982 152.87 120.128C151.358 119.269 149.899 118.324 148.238 117.945C146.373 117.519 144.661 117.106 142.753 116.993C139.384 116.794 136.082 117.025 132.729 117.208C129 117.411 125.267 117.158 121.54 117.099C119.729 117.071 117.883 117.03 116.074 117.064C115.168 117.081 114.289 117.261 113.377 117.235C112.599 117.213 111.08 117.488 110.4 117.014C109.866 116.643 109.867 115.82 110.317 115.366C110.764 114.917 111.64 114.893 112.197 114.754C113.979 114.311 115.756 114.057 117.55 113.701C118.584 113.497 119.451 113.429 120.487 113.486C121.493 113.543 122.519 113.213 123.536 113.158C125.691 113.04 127.859 112.923 130.015 112.884C134.194 112.81 138.325 112.444 142.509 112.456ZM144.689 159.275C144.353 159.424 144.439 161.263 144.408 161.631C144.317 162.731 144.218 163.83 144.132 164.93C143.935 167.471 143.786 170.018 143.665 172.565C143.544 175.113 143.4 177.668 143.407 180.22C143.41 181.306 143.453 182.392 143.434 183.478C143.419 184.29 143.108 185.809 143.713 186.386C144.118 186.773 144.913 186.599 145.388 186.563C146.325 186.493 147.264 186.421 148.204 186.413C149.289 186.404 150.367 186.537 151.453 186.505C151.869 186.493 152.335 186.413 152.747 186.503C153.046 186.569 153.372 186.864 153.652 186.877C153.858 186.886 154.125 186.652 154.353 186.606C154.708 186.534 155.124 186.617 155.485 186.612C155.742 186.608 156.361 186.476 156.597 186.649C156.828 186.818 156.739 187.204 156.949 187.289C157.03 187.322 157.486 186.7 157.565 186.661C157.914 186.486 158.425 186.622 158.793 186.627C159.855 186.641 160.917 186.564 161.979 186.575C163.014 186.587 164.012 186.725 165.006 186.862C165.663 186.953 166.417 186.725 167.115 186.658C168.23 186.551 169.349 186.571 170.467 186.597C171.028 186.609 171.59 186.62 172.151 186.635C172.284 186.639 172.547 186.58 172.675 186.624C173.19 186.801 172.863 186.811 173.227 187.08C172.75 186.727 174.295 186.497 174.384 186.496C175.085 186.49 175.728 186.885 176.312 186.807C176.944 186.724 177.59 186.276 178.285 186.415C178.61 186.48 178.88 186.897 179.122 186.944C179.513 187.022 179.646 186.699 180.004 186.537C180.719 186.214 181.548 186.495 182.294 186.44C183.341 186.361 184.349 186.358 185.401 186.342C187.318 186.313 189.236 186.277 191.154 186.298C192.92 186.318 194.339 187.129 196.096 187.085C197.017 187.062 197.954 186.97 198.874 186.996C199.664 187.017 200.067 187.691 199.47 188.484C199.066 189.019 198.325 189.076 197.756 189.174C196.911 189.32 196.081 189.529 195.239 189.691C193.237 190.075 191.141 190.063 189.116 190.133C180.856 190.418 172.594 191.259 164.329 191.348C160.699 191.387 157.031 191.737 153.414 191.574C151.396 191.482 149.423 191.979 147.389 191.622C146.532 191.472 145.689 191.38 144.824 191.309C144.712 191.3 144.051 191.154 143.927 191.219C143.558 191.411 143.764 191.236 143.609 191.723C143.356 192.525 143.462 193.803 143.463 194.656C143.466 196.015 143.523 197.378 143.563 198.736C143.602 200.038 143.665 201.339 143.733 202.64C143.76 203.178 143.576 205.201 143.938 205.603C144.218 205.913 145.53 205.766 145.885 205.679C146.31 205.575 146.35 205.549 146.811 205.611C147.151 205.657 147.272 205.646 147.612 205.604C148.587 205.483 149.703 205.462 150.682 205.663C151.441 205.82 152.239 205.407 152.529 206.322C153.021 205.633 153.01 206.03 153.55 206.168C154.106 206.311 153.935 205.899 154.407 205.843C154.739 205.803 155.035 206.103 155.395 206.106C155.988 206.11 156.522 205.931 157.156 206.022C159.958 206.422 162.799 206.782 165.624 206.811C166.796 206.824 167.954 206.845 169.12 206.886C169.715 206.906 170.277 206.977 170.862 207.058C171.413 207.134 171.846 206.982 172.419 206.948C173.686 206.874 175.016 207.096 176.283 207.175C176.879 207.212 177.625 207.095 178.196 207.184C178.771 207.274 178.814 207.774 179.271 208.064C179.343 206.443 182.302 207.481 183.073 207.483C183.375 207.484 183.745 207.336 184.11 207.363C184.715 207.408 185.323 207.419 185.928 207.443C186.894 207.482 187.827 207.549 188.743 207.415C189.941 207.24 191.242 207.427 192.452 207.418C193.769 207.409 195.087 207.388 196.404 207.339C197.738 207.289 199.07 207.195 200.404 207.146C201.562 207.103 202.792 207.21 203.934 207.113C204.23 207.088 204.513 206.839 204.778 206.827C205.145 206.809 205.556 206.989 205.979 206.948C207.314 206.817 208.558 206.796 209.907 206.801C212.221 206.81 214.626 206.321 216.844 205.619C217.867 205.295 218.93 205.277 219.946 204.93C221.118 204.53 222.192 203.831 223.271 203.184C224.116 202.677 225.303 202.442 224.959 201.161C224.592 199.793 224.006 198.467 223.569 197.124C223.189 195.956 222.947 194.818 222.123 193.939C221.309 193.071 220.269 192.488 219.402 191.687C217.512 189.943 215.539 188.9 213.301 187.866C211.045 186.825 208.988 185.289 206.618 184.596C204.417 183.953 202.298 183.091 200.142 182.432C197.783 181.711 195.35 181.45 192.971 180.809C190.691 180.194 188.452 179.291 186.142 178.823C183.642 178.317 181.119 178.057 178.629 177.439C176.518 176.916 174.503 175.891 172.381 175.482C171.761 175.362 171.09 175.289 170.49 175.066C169.929 174.857 169.528 174.435 168.961 174.264C167.651 173.869 166.513 173.33 165.273 172.688C164.752 172.418 164.463 172.086 164.011 171.751C163.472 171.352 162.782 171.21 162.177 170.99C161.012 170.566 159.852 170.149 158.807 169.405C157.723 168.634 156.728 167.762 155.731 166.861C155.308 166.48 154.857 166.097 154.424 165.74C153.89 165.3 153.343 165.221 152.745 164.934C150.152 163.688 149.017 160.763 147.605 158.218C147.472 160.279 145.75 161.235 144.689 159.275ZM181.539 123.171C181.718 122.248 181.973 120.923 180.968 120.871C180.904 120.868 180.238 121.058 180.17 121.109C179.827 121.361 179.698 122.202 179.567 122.61C179.452 122.97 179.372 123.45 179.117 123.721C178.865 123.99 178.602 123.997 178.366 124.319C177.651 125.298 177.118 126.98 176.685 128.162C177.272 128 176.845 128.451 177.095 128.708C177.485 129.109 177.364 129.037 177.918 129.099C178.885 129.207 179.326 128.912 180.082 128.223C180.722 127.638 180.928 127.255 181.297 126.411C181.825 125.205 181.567 124.437 181.538 123.17C181.803 123.449 182.067 123.728 182.332 124.007C182.25 123.641 182.167 123.276 182.085 122.911L181.539 123.171ZM153.737 50.2763C154.251 48.2628 155.21 48.114 156.5 49.5607C156.705 49.0432 156.947 48.2396 157.541 48.2442C157.963 48.2475 158.037 48.6378 158.32 48.9012C158.661 49.2197 158.927 49.3315 159.361 49.4164C160.306 49.6015 161.184 49.538 162.074 50.022C162.884 50.4627 163.269 51.1063 163.893 51.7663C164.477 52.3838 164.903 51.9839 165.569 52.2964C166.31 52.6439 166.642 53.6723 166.785 54.5056C166.961 55.525 166.778 55.8498 167.397 56.5899C167.98 57.2882 168.29 58.1773 168.36 59.1368C168.426 60.0441 168.252 61.1208 167.794 61.8859C167.28 62.7476 166.746 62.5094 167.416 63.533C167.754 64.0485 167.792 65.1456 168.197 65.476C168.907 66.0534 169.823 65.122 170.45 64.8875C171.302 64.569 171.112 65.1018 171.486 65.7444C172.038 66.6938 172.366 65.7142 173.119 65.9038C173.396 65.9736 173.477 66.3158 173.574 66.3569C173.918 66.5029 173.553 66.4488 173.946 66.2864C174.207 66.1786 174.028 65.5984 174.554 65.9295C174.92 66.1599 174.645 66.5696 174.811 66.8663C175.137 67.4495 175.622 67.1095 175.864 67.8622C176.104 68.6119 176.429 69.6061 176.562 70.4257C176.725 71.4214 176.343 72.2879 176.399 73.23C176.457 74.2138 177.308 74.8768 177.838 75.5666C180.434 78.947 181.534 83.393 182.38 87.6905C183.168 91.6846 181.782 96.2062 179.062 98.9133C177.682 100.286 175.959 100.874 174.635 102.385C174.047 103.055 174.055 103.267 174.755 103.817C175.329 104.267 175.855 104.84 176.464 105.196C178.027 106.11 179.55 106.763 181.296 107.146C182.176 107.34 183.093 107.262 183.984 107.226C184.911 107.188 185.957 107.339 186.864 107.209C187.664 107.095 188.297 106.355 189.136 106.433C189.464 106.464 189.665 106.608 190 106.574C190.439 106.529 190.808 106.263 191.275 106.277C191.985 106.298 192.688 106.311 193.374 106.341C194.154 106.374 195.07 106.13 195.846 106.284C196.582 106.43 197.458 107.189 198.099 107.631C198.888 108.176 199.836 108.807 200.543 109.473C201.211 110.102 201.681 111.104 202.202 111.886C202.753 112.713 203.39 113.451 203.944 114.275C206.125 117.515 208.422 121.507 209.104 125.587C209.276 126.619 209.267 127.639 209.137 128.676C209.021 129.602 208.262 129.954 208.239 130.95C208.192 132.965 209.035 135.301 209.524 137.211C210.04 139.221 210.686 141.174 211.485 143.065C211.795 143.798 212.187 144.403 212.382 145.161C212.62 146.088 212.982 146.967 213.247 147.901C215.539 155.984 219.093 163.509 221.683 171.469C223.075 175.747 224.547 179.988 226.065 184.211C226.812 186.29 227.621 188.305 228.433 190.352C228.54 190.621 228.615 191.14 228.801 191.325C229.116 191.638 228.839 191.459 229.279 191.406C229.658 191.361 230.052 191.162 230.435 191.089C231.359 190.911 232.306 190.881 233.238 190.775C234.309 190.654 235.253 190.591 236.324 190.65C237.322 190.706 238.304 190.366 239.297 190.291C241.425 190.129 243.524 190.214 245.651 190.26C247.309 190.296 249.431 190.07 250.964 190.951C252.501 191.834 251.971 193.867 250.668 194.642C249.106 195.57 247.269 195.702 245.717 196.648C246.882 197.058 248.14 196.952 249.326 197.273C250.09 197.479 251.272 197.632 251.848 198.271C252.406 198.89 252.35 199.957 251.982 200.683C251.523 201.587 250.641 201.743 249.847 202.056C250.205 202.599 250.761 202.557 251.082 203.272C251.51 204.224 251.243 205.241 250.719 206.063C249.583 207.849 247.332 208 245.575 208.255C243.849 208.505 242.036 208.565 240.298 208.43C239.307 208.352 238.33 208.296 237.352 208.136C236.227 207.952 236.336 208.855 235.935 209.779C235.547 210.673 234.987 211.057 234.121 211.001C233.186 210.942 232.148 210.869 231.222 210.689C230.335 210.517 229.567 209.993 228.716 209.774C227.949 209.577 227.341 209.259 226.613 208.832C225.778 208.342 225.333 207.523 224.602 206.96C223.851 206.382 223.066 207.29 222.328 207.741C220.534 208.839 218.565 209.325 216.603 209.864C214.603 210.415 212.654 211.119 210.619 211.5C209.672 211.677 208.773 211.653 207.83 211.769C206.744 211.901 205.803 212.376 204.694 212.379C200.777 212.388 196.834 213.198 192.915 213.348C189.036 213.496 185.093 213.129 181.218 213.426C179.237 213.579 177.319 213.273 175.349 213.39C173.316 213.512 171.211 213.389 169.183 213.211C164.973 212.843 160.895 212.938 156.729 212.699C154.563 212.575 152.353 212.341 150.214 211.947C148.116 211.561 145.742 212.006 144.259 209.916C144.096 210.735 144.051 211.585 143.528 212.231C142.978 212.911 142.092 213.185 141.356 213.494C139.477 214.284 137.577 215.035 135.684 215.784C133.89 216.495 132.085 217.265 130.276 217.916C128.376 218.601 126.568 219.431 124.7 220.235C123.007 220.963 121.253 221.538 119.621 222.417C118.948 222.779 118.243 222.809 117.6 223.147C116.805 223.564 116.067 223.965 115.216 224.266C114.486 224.525 113.818 224.71 113.111 225.046C112.412 225.379 111.42 225.957 110.688 225.514C110.174 225.203 109.972 224.489 109.813 223.893C109.615 223.147 109.784 221.854 109.013 221.887C108.252 221.92 107.176 222.76 106.43 223.044C105.536 223.385 104.622 223.955 103.702 224.149C102.781 224.342 102.056 224.284 101.572 223.303C101.028 222.199 101.119 221.029 101.282 219.828C99.7136 219.824 98.2612 219.992 96.6795 220.054C95.8082 220.088 94.9608 220.132 94.0919 220.022C93.3077 219.923 92.1417 220.205 91.4615 219.794C90.0787 218.958 90.2845 216.593 90.9819 215.3C91.3693 214.582 91.9764 214.098 92.5933 213.662C93.367 213.116 93.9343 212.497 94.6119 211.802C94.17 211.453 93.5952 211.622 93.1619 211.207C92.8253 210.885 92.6157 210.347 92.4621 209.888C92.1756 209.033 92.5447 207.07 91.8983 206.585C91.5531 206.327 90.9417 206.436 90.5473 206.229C90.0084 205.945 89.63 205.423 89.3978 204.801C88.875 203.4 89.3231 201.941 89.8331 200.631C87.9005 200.254 85.0674 200.104 84.5146 197.54C84.3379 196.722 84.3137 195.774 84.5568 194.969C84.9179 193.774 85.7586 193.71 86.6908 193.359C90.5884 191.894 94.2388 189.515 98.438 189.162C100.687 188.974 102.953 188.874 105.199 188.607C107.456 188.338 109.631 187.865 111.902 188.186C112.869 188.323 113.987 188.201 114.912 188.401C115.805 188.595 115.919 189.802 115.236 190.499C114.572 191.176 113.609 190.743 112.818 190.819C111.698 190.927 110.754 191.534 109.708 191.916C107.141 192.854 104.328 193.52 101.651 193.857C100.214 194.038 98.8568 194.062 97.4501 194.501C96.1723 194.9 94.9076 195.353 93.6254 195.735C95.0263 196.164 97.7401 196.116 98.2064 198.071C98.4256 198.991 98.1825 200.264 97.4763 200.832C97.0662 201.163 96.1705 201.012 95.9124 201.505C97.0154 201.661 98.2735 200.689 98.879 202.079C99.57 203.665 98.894 204.917 98.0099 206.095C98.7911 205.946 99.5942 206.115 100.383 206.001C100.992 205.912 101.56 205.702 102.139 205.921C102.429 206.03 102.391 206.326 102.757 206.328C103.024 206.329 103.423 205.997 103.654 205.869C104.533 205.383 105.425 204.988 106.334 204.582C107.439 204.089 108.49 203.709 109.593 203.4C111.116 202.972 112.646 201.873 114.132 201.252C114.762 200.988 115.571 200.719 115.884 199.968C116.207 199.193 115.959 198.059 115.94 197.24C115.884 194.935 115.907 192.627 115.92 190.322C115.93 188.384 115.971 186.481 116.121 184.55C116.301 182.239 116.14 179.937 116.217 177.622C116.288 175.497 116.122 173.377 116.173 171.252C116.229 168.885 116.332 166.527 116.354 164.157C116.392 159.901 116.517 155.649 116.589 151.394C116.663 147.023 117.067 142.65 117.883 138.375C118.248 136.461 118.725 134.511 119.362 132.691C119.563 132.115 119.774 132.083 119.29 131.753C119.003 131.558 118.648 131.776 118.366 131.819C117.774 131.91 117.245 131.95 116.642 131.91C113.187 131.678 109.609 131.865 106.165 132.221C104.375 132.406 102.574 132.582 100.776 132.656C98.9828 132.729 97.1896 133.048 95.3961 132.897C92.3913 132.645 88.964 133.039 86.3888 130.822C83.6407 128.457 83.8995 124.266 85.674 121.239C87.6323 117.897 90.9032 115.994 93.6346 113.652C96.318 111.352 99.4722 109.665 102.399 107.812C108.664 103.846 115.396 100.175 122.141 97.4336C129.004 94.6452 135.89 91.4396 143.365 91.9845C147.151 92.2605 151.388 92.4217 154.728 94.726C156.513 95.9574 158.24 97.2412 159.773 98.8677C160.496 99.634 161.132 100.578 161.901 101.278C162.616 101.929 163.317 101.484 164.134 101.244C163.555 99.1056 162.977 96.9667 162.398 94.828C161.599 95.5382 160.499 95.8081 159.46 95.557C158.199 95.2521 158.301 94.6349 158.414 93.3987C158.467 92.8253 158.603 92.9233 158.169 92.5612C157.813 92.264 157.162 92.1668 156.752 91.9095C155.729 91.2676 154.842 90.325 154.465 89.031C154.09 87.7442 154.356 86.5506 154.601 85.2733C154.896 83.7375 154.167 84.3796 153.333 83.6655C152.966 83.3512 152.835 83.0783 152.898 82.5593C152.949 82.138 153.676 81.5313 153.644 81.1166C153.604 80.6167 153.362 80.6727 153.016 80.3712C152.636 80.0386 152.361 79.6306 152.193 79.1071C151.838 77.9984 152.563 77.3134 152.867 76.291C153.014 75.7955 153.159 75.3717 153.448 74.9546C153.961 74.2158 154.16 74.2319 154.875 74.2385C155.477 74.2438 155.471 74.1874 155.922 73.5636C156.097 73.3216 156.271 73.0811 156.423 72.8185C156.683 72.3675 156.755 72.4287 156.477 72.0764C155.63 71.0026 155.244 72.679 154.491 72.5777C153.621 72.4607 153.465 70.8805 152.92 70.3527C152.538 69.9833 152.103 70.124 151.685 69.8745C151.175 69.5695 151.072 68.9881 150.741 68.5008C150.203 67.7101 149.422 67.5706 149.064 66.5674C148.86 65.998 148.832 65.4118 148.791 64.8082C148.732 63.9487 148.535 63.2693 148.317 62.4512C148.094 61.6167 148.149 61.0136 148.511 60.2458C148.884 59.4546 148.928 59.1884 148.834 58.296C148.763 57.6166 148.741 57.0134 149.05 56.4073C149.384 55.7541 149.453 55.4132 149.562 54.669C149.657 54.0166 149.838 53.5467 150.389 53.276C150.764 53.0914 151.17 53.2969 151.436 52.8766C151.7 52.4571 151.629 51.785 151.901 51.3214C152.344 50.5652 153.011 50.4468 153.737 50.2763Z" fill="#2D4710"/>
<path fill-rule="evenodd" clip-rule="evenodd" d="M175.681 83.8809C175.423 83.1877 174.561 79.9901 175.979 79.9737C177.104 79.9606 176.748 82.7354 176.762 83.4166C176.788 84.6915 177.952 84.8726 178.388 86.0292C178.896 87.3777 178.546 88.9878 177.753 90.087C177.149 90.9258 175.985 91.8869 175.154 90.86C174.23 89.7173 175.118 89.0759 175.765 88.3643C176.701 87.3331 174.909 87.0334 174.443 86.1969C173.653 84.7751 174.521 84.0355 175.681 83.8809Z" fill="#2D4710"/>
<path fill-rule="evenodd" clip-rule="evenodd" d="M171.619 84.6011C171.489 85.2593 171.529 86.7624 170.904 87.1172C169.857 87.7123 169.615 84.8426 169.623 84.209C169.632 83.5351 169.836 81.9429 170.703 82.1491C171.677 82.3806 171.125 84.4452 171.619 84.6011Z" fill="#2D4710"/>
<path fill-rule="evenodd" clip-rule="evenodd" d="M175.536 92.9373C177.084 92.9924 176.997 95.1072 175.512 95.1809C174.131 95.2497 174.165 92.8887 175.536 92.9373Z" fill="#2D4710"/>
<path fill-rule="evenodd" clip-rule="evenodd" d="M178.829 124.457C178.684 125.162 178.347 125.826 177.841 126.27C177.96 125.991 178.478 124.332 178.829 124.457Z" fill="#2D4710"/>
<defs>
<filter id="filter0_d_609_3476" x="0" y="0" width="342" height="440" filterUnits="userSpaceOnUse" color-interpolation-filters="sRGB">
<feFlood flood-opacity="0" result="BackgroundImageFix"/>
<feColorMatrix in="SourceAlpha" type="matrix" values="0 0 0 0 0 0 0 0 0 0 0 0 0 0 0 0 0 0 127 0" result="hardAlpha"/>
<feOffset dx="4" dy="4"/>
<feGaussianBlur stdDeviation="2"/>
<feComposite in2="hardAlpha" operator="out"/>
<feColorMatrix type="matrix" values="0 0 0 0 0.482353 0 0 0 0 0.380392 0 0 0 0 1 0 0 0 0.25 0"/>
<feBlend mode="normal" in2="BackgroundImageFix" result="effect1_dropShadow_609_3476"/>
<feBlend mode="normal" in="SourceGraphic" in2="effect1_dropShadow_609_3476" result="shape"/>
</filter>
<linearGradient id="paint0_linear_609_3476" x1="0" y1="0" x2="721.342" y2="843.243" gradientUnits="userSpaceOnUse">
<stop stop-color="#ACFFAD"/>
<stop offset="1" stop-color="#4D7520" stop-opacity="0.35"/>
</linearGradient>
</defs>
</svg>
