<svg width="328" height="437" viewBox="0 0 328 437" fill="none" xmlns="http://www.w3.org/2000/svg">
<g filter="url(#filter0_d_609_3478)">
<rect width="320" height="429" rx="20" fill="url(#paint0_linear_609_3478)" fill-opacity="0.5" shape-rendering="crispEdges"/>
</g>
<path d="M0 284H320V409C320 420.046 311.046 429 300 429H20C8.95431 429 0 420.046 0 409V284Z" fill="#FAFFFA"/>
<path d="M51 354.62L47.34 343.8H48.82L51.74 352.8L54.54 343.8H56.04L52.48 354.62V360H51V354.62ZM59.1169 360.18C58.5302 360.18 58.0835 359.967 57.7769 359.54C57.4702 359.113 57.3169 358.507 57.3169 357.72V348.44H58.7969V357.4C58.7969 357.987 58.8835 358.407 59.0569 358.66C59.2435 358.9 59.5235 359.02 59.8969 359.02C60.2302 359.02 60.5702 358.92 60.9169 358.72C61.2769 358.507 61.6169 358.227 61.9369 357.88V348.44H63.3969V360H61.9369V358.72C61.5502 359.173 61.1169 359.533 60.6369 359.8C60.1569 360.053 59.6502 360.18 59.1169 360.18ZM65.6791 343.8H67.1391V354.08L70.9991 348.44H72.5391L69.6191 352.9L72.4191 360H70.9391L68.4991 353.72L67.1391 355.62V360H65.6791V343.8ZM80.0489 344.98H76.9889V343.8H84.5489V344.98H81.5689V360H80.0489V344.98ZM87.1513 360.18C86.4579 360.18 85.8979 359.933 85.4713 359.44C85.0446 358.947 84.8313 358.333 84.8313 357.6C84.8313 356.84 84.9779 356.213 85.2713 355.72C85.5779 355.227 86.0446 354.787 86.6712 354.4C87.2979 354.013 88.2379 353.54 89.4913 352.98V352.16C89.4913 351.44 89.4446 350.88 89.3513 350.48C89.2713 350.08 89.1246 349.793 88.9113 349.62C88.7113 349.447 88.4246 349.36 88.0513 349.36C86.9713 349.36 86.4313 350.02 86.4313 351.34V351.74L84.9913 351.72C85.0046 350.533 85.2579 349.66 85.7513 349.1C86.2446 348.54 87.0379 348.26 88.1313 348.26C89.1446 348.26 89.8646 348.567 90.2913 349.18C90.7313 349.793 90.9513 350.76 90.9513 352.08V357.7C90.9513 358.073 90.9579 358.5 90.9713 358.98C90.9979 359.46 91.0246 359.8 91.0513 360H89.7513L89.5313 358.4C89.3579 358.907 89.0579 359.333 88.6313 359.68C88.2179 360.013 87.7246 360.18 87.1513 360.18ZM87.6113 358.94C88.0113 358.94 88.3713 358.807 88.6913 358.54C89.0246 358.26 89.2913 357.933 89.4913 357.56V353.96C88.5846 354.44 87.9246 354.813 87.5113 355.08C87.1113 355.347 86.8046 355.647 86.5913 355.98C86.3913 356.3 86.2913 356.72 86.2913 357.24C86.2913 357.813 86.4113 358.24 86.6513 358.52C86.9046 358.8 87.2246 358.94 87.6113 358.94ZM93.1005 348.44H94.4605V349.62C94.8338 349.167 95.2538 348.827 95.7205 348.6C96.1871 348.36 96.6738 348.24 97.1805 348.24C98.1405 348.24 98.7538 348.74 99.0205 349.74C99.4071 349.247 99.8405 348.873 100.32 348.62C100.814 348.367 101.327 348.24 101.86 348.24C102.434 348.24 102.9 348.447 103.26 348.86C103.634 349.273 103.82 349.947 103.82 350.88V360H102.46V350.92C102.46 350.293 102.36 349.86 102.16 349.62C101.96 349.367 101.674 349.24 101.3 349.24C100.954 349.24 100.587 349.347 100.2 349.56C99.8138 349.773 99.4538 350.067 99.1205 350.44C99.1471 350.627 99.1605 350.773 99.1605 350.88V360H97.7805V350.92C97.7805 350.28 97.6805 349.84 97.4805 349.6C97.2805 349.36 96.9938 349.24 96.6205 349.24C96.2738 349.24 95.9138 349.347 95.5405 349.56C95.1671 349.773 94.8071 350.06 94.4605 350.42V360H93.1005V348.44ZM109.512 360.18C108.765 360.18 108.078 359.813 107.452 359.08V360H105.992V343.8H107.452V349.4C107.705 349.067 108.018 348.793 108.392 348.58C108.765 348.367 109.185 348.26 109.652 348.26C110.665 348.26 111.358 348.68 111.732 349.52C112.105 350.36 112.292 351.473 112.292 352.86V355.3C112.292 356.887 112.085 358.1 111.672 358.94C111.258 359.767 110.538 360.18 109.512 360.18ZM109.252 359.02C109.878 359.02 110.292 358.733 110.492 358.16C110.705 357.587 110.812 356.647 110.812 355.34V352.86C110.812 351.62 110.705 350.733 110.492 350.2C110.292 349.667 109.872 349.4 109.232 349.4C108.645 349.4 108.052 349.7 107.452 350.3V358.18C107.958 358.74 108.558 359.02 109.252 359.02ZM116.292 360.18C115.599 360.18 115.039 359.933 114.612 359.44C114.185 358.947 113.972 358.333 113.972 357.6C113.972 356.84 114.119 356.213 114.412 355.72C114.719 355.227 115.185 354.787 115.812 354.4C116.439 354.013 117.379 353.54 118.632 352.98V352.16C118.632 351.44 118.585 350.88 118.492 350.48C118.412 350.08 118.265 349.793 118.052 349.62C117.852 349.447 117.565 349.36 117.192 349.36C116.112 349.36 115.572 350.02 115.572 351.34V351.74L114.132 351.72C114.145 350.533 114.399 349.66 114.892 349.1C115.385 348.54 116.179 348.26 117.272 348.26C118.285 348.26 119.005 348.567 119.432 349.18C119.872 349.793 120.092 350.76 120.092 352.08V357.7C120.092 358.073 120.099 358.5 120.112 358.98C120.139 359.46 120.165 359.8 120.192 360H118.892L118.672 358.4C118.499 358.907 118.199 359.333 117.772 359.68C117.359 360.013 116.865 360.18 116.292 360.18ZM116.752 358.94C117.152 358.94 117.512 358.807 117.832 358.54C118.165 358.26 118.432 357.933 118.632 357.56V353.96C117.725 354.44 117.065 354.813 116.652 355.08C116.252 355.347 115.945 355.647 115.732 355.98C115.532 356.3 115.432 356.72 115.432 357.24C115.432 357.813 115.552 358.24 115.792 358.52C116.045 358.8 116.365 358.94 116.752 358.94ZM122.261 343.8H123.721V349.66C124.588 348.727 125.528 348.26 126.541 348.26C127.114 348.26 127.554 348.473 127.861 348.9C128.168 349.327 128.321 349.933 128.321 350.72V360H126.841V351.04C126.841 350.453 126.748 350.033 126.561 349.78C126.388 349.527 126.114 349.4 125.741 349.4C125.421 349.4 125.081 349.5 124.721 349.7C124.374 349.9 124.041 350.167 123.721 350.5V360H122.261V343.8ZM48.42 369.8H51.94C53.54 369.8 54.6733 370.213 55.34 371.04C56.0067 371.853 56.34 373.027 56.34 374.56V381C56.34 382.613 56.0133 383.853 55.36 384.72C54.72 385.573 53.6267 386 52.08 386H48.42V369.8ZM51.98 384.86C52.7933 384.86 53.4 384.693 53.8 384.36C54.2133 384.013 54.48 383.56 54.6 383C54.72 382.427 54.78 381.68 54.78 380.76V374.72C54.78 373.84 54.7067 373.14 54.56 372.62C54.4133 372.087 54.1333 371.68 53.72 371.4C53.3067 371.12 52.7067 370.98 51.92 370.98H49.94V384.86H51.98ZM61.4097 386.18C60.263 386.18 59.463 385.827 59.0097 385.12C58.5564 384.4 58.3297 383.3 58.3297 381.82V378.62C58.3297 377.14 58.5564 376.047 59.0097 375.34C59.463 374.62 60.263 374.26 61.4097 374.26C62.5697 374.26 63.3764 374.62 63.8297 375.34C64.283 376.047 64.5097 377.14 64.5097 378.62V381.82C64.5097 383.3 64.283 384.4 63.8297 385.12C63.3764 385.827 62.5697 386.18 61.4097 386.18ZM61.4097 385.08C61.8897 385.08 62.243 384.953 62.4697 384.7C62.7097 384.447 62.863 384.107 62.9297 383.68C62.9964 383.24 63.0297 382.647 63.0297 381.9V378.54C63.0297 377.793 62.9964 377.207 62.9297 376.78C62.863 376.34 62.7097 375.993 62.4697 375.74C62.243 375.487 61.8897 375.36 61.4097 375.36C60.9297 375.36 60.5764 375.487 60.3497 375.74C60.123 375.993 59.9764 376.34 59.9097 376.78C59.843 377.207 59.8097 377.793 59.8097 378.54V381.9C59.8097 382.647 59.843 383.24 59.9097 383.68C59.9764 384.107 60.123 384.447 60.3497 384.7C60.5764 384.953 60.9297 385.08 61.4097 385.08ZM66.538 374.44H67.998V375.64C68.3846 375.213 68.8113 374.88 69.278 374.64C69.758 374.387 70.258 374.26 70.778 374.26C71.3513 374.26 71.7913 374.473 72.098 374.9C72.4046 375.327 72.558 375.933 72.558 376.72V386H71.098V377.04C71.098 376.453 71.0046 376.033 70.818 375.78C70.6446 375.527 70.3713 375.4 69.998 375.4C69.678 375.4 69.3446 375.5 68.998 375.7C68.6513 375.887 68.318 376.147 67.998 376.48V386H66.538V374.44ZM76.7216 386.18C76.0282 386.18 75.4682 385.933 75.0416 385.44C74.6149 384.947 74.4016 384.333 74.4016 383.6C74.4016 382.84 74.5482 382.213 74.8416 381.72C75.1482 381.227 75.6149 380.787 76.2416 380.4C76.8682 380.013 77.8082 379.54 79.0616 378.98V378.16C79.0616 377.44 79.0149 376.88 78.9216 376.48C78.8416 376.08 78.6949 375.793 78.4816 375.62C78.2816 375.447 77.9949 375.36 77.6216 375.36C76.5416 375.36 76.0016 376.02 76.0016 377.34V377.74L74.5616 377.72C74.5749 376.533 74.8282 375.66 75.3216 375.1C75.8149 374.54 76.6082 374.26 77.7016 374.26C78.7149 374.26 79.4349 374.567 79.8616 375.18C80.3016 375.793 80.5216 376.76 80.5216 378.08V383.7C80.5216 384.073 80.5282 384.5 80.5416 384.98C80.5682 385.46 80.5949 385.8 80.6216 386H79.3216L79.1016 384.4C78.9282 384.907 78.6282 385.333 78.2016 385.68C77.7882 386.013 77.2949 386.18 76.7216 386.18ZM77.1816 384.94C77.5816 384.94 77.9416 384.807 78.2616 384.54C78.5949 384.26 78.8616 383.933 79.0616 383.56V379.96C78.1549 380.44 77.4949 380.813 77.0816 381.08C76.6816 381.347 76.3749 381.647 76.1616 381.98C75.9616 382.3 75.8616 382.72 75.8616 383.24C75.8616 383.813 75.9816 384.24 76.2216 384.52C76.4749 384.8 76.7949 384.94 77.1816 384.94ZM85.3108 386.18C84.4041 386.18 83.6708 385.887 83.1108 385.3C82.5641 384.713 82.2508 383.913 82.1708 382.9L83.3908 382.52C83.4708 383.4 83.6774 384.047 84.0108 384.46C84.3441 384.873 84.8108 385.08 85.4108 385.08C85.9174 385.08 86.3041 384.94 86.5708 384.66C86.8508 384.367 86.9908 383.96 86.9908 383.44C86.9908 382.68 86.5241 381.907 85.5908 381.12L84.0108 379.76C83.4641 379.307 83.0641 378.86 82.8108 378.42C82.5574 377.98 82.4308 377.46 82.4308 376.86C82.4308 376.047 82.6774 375.413 83.1708 374.96C83.6774 374.493 84.3508 374.26 85.1908 374.26C86.0441 374.26 86.6974 374.533 87.1508 375.08C87.6174 375.627 87.8774 376.367 87.9308 377.3L86.8908 377.64C86.8108 376.12 86.2641 375.36 85.2508 375.36C84.7974 375.36 84.4374 375.487 84.1708 375.74C83.9041 375.98 83.7708 376.32 83.7708 376.76C83.7708 377.12 83.8374 377.433 83.9708 377.7C84.1041 377.967 84.3508 378.26 84.7108 378.58L86.3508 380.04C86.9774 380.6 87.4508 381.127 87.7708 381.62C88.1041 382.1 88.2708 382.693 88.2708 383.4C88.2708 384.28 88.0041 384.967 87.4708 385.46C86.9374 385.94 86.2174 386.18 85.3108 386.18ZM90.0964 370.86H91.5564V372.84H90.0964V370.86ZM90.0964 374.44H91.5564V386H90.0964V374.44ZM98.4005 369.8H101.88C103.294 369.8 104.307 370.153 104.92 370.86C105.534 371.553 105.84 372.547 105.84 373.84C105.84 374.72 105.68 375.473 105.36 376.1C105.04 376.727 104.514 377.113 103.78 377.26C104.66 377.5 105.287 377.987 105.66 378.72C106.034 379.453 106.22 380.32 106.22 381.32C106.22 382.773 105.934 383.92 105.36 384.76C104.8 385.587 103.814 386 102.4 386H98.4005V369.8ZM102.12 376.78C102.987 376.78 103.594 376.533 103.94 376.04C104.287 375.533 104.46 374.8 104.46 373.84C104.46 373.16 104.367 372.613 104.18 372.2C104.007 371.787 103.694 371.48 103.24 371.28C102.8 371.08 102.174 370.98 101.36 370.98H99.9205V376.78H102.12ZM102.1 384.86C102.794 384.86 103.327 384.74 103.7 384.5C104.087 384.247 104.354 383.867 104.5 383.36C104.66 382.853 104.74 382.173 104.74 381.32C104.74 379.08 103.874 377.96 102.14 377.96H99.9205V384.86H102.1ZM110.14 386.18C109.446 386.18 108.886 385.933 108.46 385.44C108.033 384.947 107.82 384.333 107.82 383.6C107.82 382.84 107.966 382.213 108.26 381.72C108.566 381.227 109.033 380.787 109.66 380.4C110.286 380.013 111.226 379.54 112.48 378.98V378.16C112.48 377.44 112.433 376.88 112.34 376.48C112.26 376.08 112.113 375.793 111.9 375.62C111.7 375.447 111.413 375.36 111.04 375.36C109.96 375.36 109.42 376.02 109.42 377.34V377.74L107.98 377.72C107.993 376.533 108.246 375.66 108.74 375.1C109.233 374.54 110.026 374.26 111.12 374.26C112.133 374.26 112.853 374.567 113.28 375.18C113.72 375.793 113.94 376.76 113.94 378.08V383.7C113.94 384.073 113.946 384.5 113.96 384.98C113.986 385.46 114.013 385.8 114.04 386H112.74L112.52 384.4C112.346 384.907 112.046 385.333 111.62 385.68C111.206 386.013 110.713 386.18 110.14 386.18ZM110.6 384.94C111 384.94 111.36 384.807 111.68 384.54C112.013 384.26 112.28 383.933 112.48 383.56V379.96C111.573 380.44 110.913 380.813 110.5 381.08C110.1 381.347 109.793 381.647 109.58 381.98C109.38 382.3 109.28 382.72 109.28 383.24C109.28 383.813 109.4 384.24 109.64 384.52C109.893 384.8 110.213 384.94 110.6 384.94ZM116.189 374.44H117.669V376.02C118.015 375.447 118.422 375.02 118.889 374.74C119.369 374.46 119.849 374.32 120.329 374.32C120.422 374.32 120.509 374.327 120.589 374.34V375.9C120.349 375.82 120.109 375.78 119.869 375.78C118.949 375.78 118.215 376.227 117.669 377.12V386H116.189V374.44ZM123.726 386.18C123.14 386.18 122.693 385.967 122.386 385.54C122.08 385.113 121.926 384.507 121.926 383.72V374.44H123.406V383.4C123.406 383.987 123.493 384.407 123.666 384.66C123.853 384.9 124.133 385.02 124.506 385.02C124.84 385.02 125.18 384.92 125.526 384.72C125.886 384.507 126.226 384.227 126.546 383.88V374.44H128.006V386H126.546V384.72C126.16 385.173 125.726 385.533 125.246 385.8C124.766 386.053 124.26 386.18 123.726 386.18Z" fill="#273E0E"/>
<path fill-rule="evenodd" clip-rule="evenodd" d="M111.821 155.659C112.758 163.491 113.694 171.323 114.63 179.155L115.386 185.48C115.481 186.278 115.391 187.852 115.755 188.566C115.883 188.818 116.221 188.938 116.469 189.087C117.323 189.598 118.177 190.11 119.031 190.621C126.257 194.949 133.483 199.277 140.708 203.604C147.643 207.757 154.578 211.91 161.512 216.063C162.23 216.493 163.391 217.615 164.165 217.319C164.902 217.039 165.654 216.346 166.323 215.909C167.606 215.07 168.889 214.231 170.173 213.392C177.938 208.315 185.704 203.239 193.469 198.162C196.673 196.068 199.877 193.973 203.081 191.878C203.958 191.305 204.834 190.732 205.711 190.159C206.17 189.859 206.229 189.87 206.41 189.361C207.084 187.459 207.397 185.281 207.874 183.307C208.4 181.132 208.926 178.958 209.452 176.783C209.687 175.812 209.577 175.687 209.194 174.75C208.437 172.896 207.68 171.042 206.923 169.188C205.242 165.073 203.562 160.958 201.881 156.844C201.202 155.179 199.565 154.009 198.386 152.785L180.089 133.781C179.624 133.298 179.159 132.816 178.694 132.333C178.618 135.234 178.104 138.353 178.858 141.156C180.095 145.755 181.332 150.354 182.568 154.953C183.166 157.177 183.764 159.4 184.362 161.623C184.473 162.036 185.149 163.673 184.969 164.037C184.868 164.238 184.014 164.442 183.829 164.52C183.034 164.858 182.24 165.195 181.445 165.532C179.23 166.472 177.016 167.412 174.801 168.352C172.809 169.197 170.818 170.042 168.826 170.887C168.15 171.174 167.357 171.705 166.644 171.661C166.006 171.621 165.28 171.269 164.663 171.091C163.577 170.78 162.491 170.468 161.406 170.156C159.273 169.543 157.141 168.93 155.008 168.317C152.609 167.628 150.583 165.603 148.531 164.105C145.005 161.529 141.478 158.953 137.951 156.377C137.144 155.787 137.141 155.451 136.819 154.374C136.096 151.955 135.373 149.535 134.65 147.115C134.264 145.823 133.789 144.526 133.498 143.203C133.017 141.02 132.731 138.761 132.351 136.553C132.236 135.888 132.121 135.221 132.006 134.556C130.529 135.224 129.052 135.893 127.575 136.562C127.361 136.658 126.318 136.947 126.225 137.185C126.166 137.335 126.477 138.016 126.521 138.162C127.746 142.208 128.97 146.254 130.195 150.3C130.58 151.573 130.965 152.845 131.351 154.118C130.43 152.505 129.51 150.891 128.589 149.277C127.866 151.991 127.142 154.705 126.419 157.419C124.709 155.218 123 153.018 121.29 150.817C120.698 153.018 120.106 155.218 119.515 157.419C117.674 154.705 115.832 151.991 113.991 149.277C113.772 150.693 113.553 152.11 113.335 153.526C113.268 153.953 113.282 155.18 113.027 155.518C112.816 155.797 112.212 155.659 111.821 155.659Z" fill="#4D7520"/>
<path fill-rule="evenodd" clip-rule="evenodd" d="M228.392 172.587C228.289 176.274 228.361 181.06 226.552 184.302C226.26 184.825 225.271 186.454 225.161 185.021C225.052 183.613 225.363 182.219 225.055 180.796C224.891 180.034 224.337 178.37 223.391 179.058C222.91 179.409 222.782 180.275 222.594 180.821C222.315 181.63 222.003 182.426 221.709 183.228C220.683 186.03 219.62 189.373 217.34 191.227C217.638 188.811 218.452 186.232 217.905 183.79C217.719 182.958 217.154 181.438 216.182 181.926C215.235 182.401 214.621 184.521 214.174 185.465C212.819 188.327 211.432 191.135 209.907 193.891C209.139 195.276 208.31 196.543 207.306 197.728C206.678 198.47 205.895 199.723 204.905 199.834C204.905 197.721 205.529 195.679 206.098 193.689C206.71 191.549 207.268 189.391 207.869 187.247C208.39 185.388 208.818 183.542 209.165 181.635C209.309 180.847 209.422 180.03 210.025 179.521C210.567 179.063 211.422 178.845 212.026 178.509C213.612 177.625 215.244 176.671 216.717 175.572C217.322 175.121 217.843 174.538 218.476 174.134C219.198 173.673 219.872 173.285 220.54 172.723C223.421 170.299 226.018 167.317 227.768 163.767C228.052 165.193 228.429 166.586 228.47 168.057C228.513 169.564 228.435 171.081 228.392 172.587ZM204.679 189.533C204.218 188.665 203.516 189.021 202.898 189.439C201.938 190.089 200.975 190.733 200.011 191.375C198.047 192.68 196.12 194.053 194.202 195.438C190.297 198.258 186.256 200.565 182.139 202.952C178.16 205.258 174.339 208.003 170.611 210.778C169.715 211.444 168.825 212.127 167.965 212.85C167.201 213.492 166.591 214.393 165.787 214.964C164.95 215.559 164.374 215.077 163.573 214.638C162.572 214.089 161.529 213.629 160.505 213.134C156.374 211.137 152.232 209.063 148.214 206.796C144.22 204.542 140.436 201.946 136.609 199.367C134.787 198.139 132.995 196.833 131.198 195.56C129.284 194.205 127.304 193.19 125.297 192.038C124.409 191.528 123.623 190.836 122.711 190.373C121.752 189.886 120.739 189.536 119.881 188.834C119.496 188.518 119.171 188.142 118.731 187.919C118.37 187.736 117.96 187.705 117.603 187.511C116.878 187.116 116.67 186.314 116.53 185.479C115.626 180.124 115.146 174.62 114.622 169.205C114.328 166.16 113.999 163.127 113.592 160.098C113.409 158.732 113.778 157.674 113.972 156.346C114.198 154.794 114.287 153.21 114.438 151.648C115.153 153.125 115.772 154.676 116.681 156.024C117.352 157.018 118.497 158.427 119.732 158.393C121.651 158.342 121.563 154.67 121.64 153.213C122.514 154.083 122.779 155.501 123.505 156.512C124.167 157.435 125.069 158.58 126.086 158.993C128.228 159.863 128.022 155.428 127.904 154.17C127.845 153.54 127.526 152.541 128.283 152.829C128.981 153.094 129.66 154.192 130.247 154.696C131.26 155.567 132.372 156.291 133.412 157.122C134.703 158.154 136.095 158.899 137.41 159.86C138.233 160.461 139.131 160.596 140.028 161.038C141.342 161.685 142.503 162.65 143.754 163.427C146.231 164.963 148.979 166.341 151.688 167.268C152.565 167.567 153.733 168.412 154.398 167.544C154.808 167.01 155.077 166.194 155.424 165.595C155.864 164.836 156.331 164.098 156.816 163.375C158.539 160.804 160.452 158.377 162.577 156.209C165.048 153.687 167.751 151.418 170.641 149.527C171.883 148.715 177.07 145.075 178.21 147.637C177.273 147.572 176.461 147.954 175.66 148.433C175.464 148.549 174.456 149.353 174.692 148.645C174.399 148.706 174.142 149.132 173.92 149.321C173.537 149.649 172.956 150.027 172.512 150.298C172.073 150.566 171.531 150.631 171.131 150.956C170.985 151.075 170.897 151.267 170.757 151.395L170.358 151.399C170.298 151.646 170.239 151.892 170.179 152.139C169.953 151.332 169.631 152.381 169.254 152.722C169.028 152.927 168.669 153.138 168.402 153.27C168.202 153.369 168.172 153.139 167.978 153.314C167.806 153.469 167.696 153.811 167.511 154.005C167.284 154.244 166.994 154.429 166.741 154.632C166.256 155.021 165.743 155.327 165.252 155.697C164.591 156.193 164.244 157.048 163.603 157.567C163.299 157.813 162.827 157.842 162.662 158C162.25 158.395 162.385 158.995 161.616 159.021C161.686 159.146 161.728 159.282 161.743 159.428C161.559 159.393 161.396 159.308 161.254 159.174C161.286 160.03 160.531 160.335 160.079 160.862C159.818 161.166 159.493 161.593 159.309 161.959C159.279 162.02 159.22 162.508 159.208 162.514C159.138 162.552 158.713 162.135 158.753 162.17C158.634 162.961 157.948 163.709 157.648 164.441C157.49 164.826 157.329 165.447 157.017 165.718C156.932 165.792 156.671 165.715 156.456 165.971C156.297 166.159 156.115 166.506 156.051 166.756C156.008 166.922 156.059 167.353 155.998 167.453C155.885 167.636 155.709 167.452 155.533 167.587C155.206 167.837 155.198 168.227 154.72 168.278C155.049 169.171 157.038 169.446 157.761 169.7C159.806 170.418 161.951 171.135 163.862 172.234C164.357 172.519 164.824 172.753 164.912 173.408C165.034 174.32 164.618 175.532 164.538 176.452C164.323 178.939 164.279 181.498 164.324 183.995C164.367 186.36 164.435 188.748 164.534 191.11C164.626 193.3 165.022 195.447 165.235 197.622C165.294 198.219 165.255 200.91 166.175 200.775C166.943 200.662 166.458 198.823 166.443 198.296C166.411 197.13 166.631 195.939 166.622 194.762C166.618 194.196 166.84 193.709 166.861 193.167C166.882 192.632 166.644 192.21 166.715 191.655C166.784 191.123 168.194 188.063 166.84 188.421C166.919 187.984 166.988 187.542 167.093 187.111C167.238 187.257 167.355 187.426 167.443 187.62C167.563 186.68 167.523 185.742 167.598 184.801C167.631 184.375 167.786 183.908 167.733 183.479C167.743 183.301 167.723 183.126 167.672 182.955C167.589 182.856 167.486 182.805 167.363 182.799C167.299 182.564 167.282 182.5 167.397 182.269C167.446 182.112 167.543 182.015 167.689 181.976C167.967 181.939 167.999 181.761 167.784 181.442C167.896 180.812 167.91 180.414 167.83 179.785C167.762 179.256 168.011 178.233 167.757 177.763C167.46 177.213 167.313 177.746 167.258 176.984C167.246 176.823 167.236 176.487 167.294 176.326C167.358 176.151 167.55 176.222 167.574 176.16C167.74 175.736 167.751 174.902 167.163 174.975C167.186 174.672 167.209 174.37 167.232 174.067C167.657 174.613 167.509 174.151 167.75 173.848C168.074 173.439 168.392 173.368 168.856 173.207C170.093 172.776 171.285 172.128 172.494 171.603C175.054 170.49 177.661 169.497 180.146 168.182C185.372 165.415 190.494 162.413 195.752 159.72C195.377 158.942 195.61 158.904 195.885 158.174C196.251 158.458 196.174 158.26 196.435 158.243C196.411 157.999 196.479 157.926 196.639 158.022C196.766 158.066 196.896 158.081 197.029 158.068C197.354 158.131 197.62 158.33 197.916 158.406C198.013 158.486 198.12 158.546 198.236 158.586C198.341 158.56 198.43 158.502 198.504 158.413C198.983 158.512 199.144 158.915 199.165 159.497C199.169 159.599 198.891 159.703 198.97 159.839C199.109 160.077 199.484 160.02 199.698 160.05C199.651 160.298 199.604 160.545 199.557 160.792C200.497 160.308 200.252 161.823 200.537 162.32C200.617 162.459 200.794 162.348 200.886 162.509C201.006 162.719 200.97 163.016 201.072 163.225C201.303 163.698 201.535 163.641 201.766 164.182C202.971 167.01 204.574 169.644 205.731 172.532C206.281 173.907 206.778 175.305 207.353 176.668C207.882 177.922 208.185 178.988 207.807 180.357C206.933 183.534 205.997 186.769 204.851 189.838C204.794 189.736 204.737 189.635 204.679 189.533ZM143.666 213.247C143.584 213.402 143.502 213.558 143.42 213.714C143.238 212.545 143.724 213.087 143.666 213.247ZM139.808 211.057C139.545 210.969 139.659 210.49 139.667 210.285C139.834 210.516 139.997 210.752 140.135 211.006C140.026 211.023 139.917 211.04 139.808 211.057ZM129.234 206.56C129.51 206.388 129.709 206.264 130.022 206.068C129.704 206.76 129.704 206.76 129.234 206.56ZM112.599 145.62C112.177 146.775 113.464 153.908 112.266 154.141C112.094 153.515 112.072 151.791 111.361 151.586C110.479 151.33 110.566 153.105 110.445 153.654C108.634 152.248 107.829 149.533 106.964 147.381C105.861 144.638 104.993 141.786 104.164 138.928C103.455 136.485 102.869 133.999 102.153 131.559C101.703 130.027 101.218 128.492 100.915 126.913C100.849 126.57 100.591 125.7 100.811 125.374C101.13 124.899 102.28 125.442 102.65 125.567C105.053 126.374 107.546 126.721 110.016 127.19C112.759 127.71 115.496 128.248 118.256 128.652C118.946 128.752 119.636 128.848 120.326 128.941C120.774 129.001 121.452 128.941 121.877 129.165C122.738 129.618 122.921 131.352 123.241 132.252C124.434 135.608 125.838 138.858 127.094 142.184C128.225 145.18 129.083 148.367 130.71 151.095C129.497 150.495 127.959 147.324 126.604 149.152C126.021 149.938 126.168 150.974 126.215 151.914C126.282 153.274 126.303 154.644 126.303 156.006C124.977 155.622 124.086 153.942 123.389 152.752C122.438 151.127 121.839 149.596 121.418 147.733C121.235 146.926 120.752 146.906 120.322 146.424C120.046 146.113 119.907 145.695 119.511 146.146C119.013 146.714 119.344 148.285 119.43 148.955C119.634 150.548 120.304 153.001 119.653 154.499C118.774 156.52 116.42 151.435 116.144 150.7C116.004 150.326 113.499 143.156 112.599 145.62ZM110.954 110.982C111.103 111.007 111.251 111.032 111.399 111.057C111.279 111.175 111.031 111.588 110.828 111.479C110.87 111.313 110.912 111.147 110.954 110.982ZM118.811 109.101C118.765 109.158 118.718 109.214 118.672 109.271C118.459 108.975 118.534 108.542 118.534 108.199C118.815 108.389 118.884 108.768 118.811 109.101ZM119.446 112.392V113.361C118.857 113.077 118.846 112.93 119.446 112.392ZM120.162 113.625C119.749 113.498 119.7 113.396 119.758 112.689C119.929 113.085 120.041 113.346 120.162 113.625ZM122.537 120.805C122.364 121.301 121.353 120.118 121.39 119.764C121.425 119.426 121.581 119.326 121.795 119.543C121.866 119.615 121.761 119.875 121.806 119.965C121.969 120.291 122.298 120.559 122.537 120.805ZM122.548 123.796C122.295 124.501 121.843 123.39 122.505 123.36C122.549 123.502 122.563 123.647 122.548 123.796ZM122.057 122.683C121.959 122.538 121.864 122.39 121.771 122.239C122.112 122.316 122.383 122.87 122.742 122.5C122.7 123.064 122.341 123.08 122.057 122.683ZM100.013 113.52C99.4652 112.852 103.04 112.384 103.471 112.269C106.601 111.437 109.555 110.232 112.481 108.754C113.877 108.049 115.266 107.335 116.629 106.554C117.218 106.216 118.024 105.93 118.516 105.424C118.867 105.062 118.853 104.789 119.309 104.573C119.696 104.391 119.716 104.563 119.893 104.233C119.999 104.035 120.12 103.309 120.058 103.094C119.888 102.508 119.637 102.984 119.284 102.58C119.03 102.289 119.092 101.461 119.161 101.118C119.251 101.281 119.303 101.459 119.316 101.65C119.699 101.439 119.545 100.717 119.963 100.598C120.404 100.474 120.358 100.857 120.473 101.249C120.807 100.703 120.54 100.237 120.359 99.7045C121.276 99.5131 122.261 99.3276 123.169 99.6678C123.827 99.9136 124.389 100.518 125.083 100.635C125.762 100.749 125.893 100.39 126.394 100.025C126.8 99.7292 127.149 100.078 127.359 99.8541C127.23 100.609 126.12 100.506 126.257 101.449C126.318 101.873 126.785 102.255 126.997 102.585C127.264 103 127.476 103.458 127.657 103.925C128.363 105.742 128.665 107.851 128.962 109.794C129.693 114.591 129.785 119.482 130.473 124.294C130.8 126.587 131.129 128.88 131.299 131.194C131.342 131.773 131.659 133.086 131.399 133.642C131.18 134.113 130.693 134.114 130.265 134.228C129.427 134.45 128.64 134.751 127.837 135.086C127.117 135.385 126.907 135.569 126.445 134.813C125.998 134.081 125.777 133.21 125.457 132.408C125.049 131.386 124.557 130.4 124.084 129.415C125.013 129.415 125.547 128.855 125.522 127.803C125.496 126.637 124.636 126.361 124.282 125.402C123.937 125.902 123.908 125.916 123.663 125.442C123.382 124.9 123.192 123.908 123.02 123.293C123.143 123.44 123.266 123.586 123.389 123.732C123.699 123.256 123.213 122.506 123.051 122.058C122.801 121.366 122.756 120.618 122.519 119.929C122.389 119.552 122.089 119.256 122.015 118.863C121.966 118.6 122.163 118.35 122.116 118.083C122.035 117.618 121.564 117.119 121.417 116.647C121.192 115.92 120.947 115.28 120.667 114.571C120.289 113.612 120.377 112.606 120.307 111.586C120.236 110.528 119.932 109.516 119.824 108.462C119.75 107.735 119.982 106.818 119.489 106.235C119.431 107.204 119.68 107.189 118.864 107.364C117.935 107.562 117.261 108.334 116.383 108.564C116.201 108.612 116.069 107.73 116.14 108.933C115.719 108.586 114.819 109.017 115.155 109.223C114.901 109.527 114.4 109.317 114.316 109.771C113.452 108.834 112.066 112.024 111.037 110.36C110.867 111.488 110.135 112.155 109.152 112.304C108.658 112.379 108.354 112.562 107.915 112.728C107.826 112.761 107.793 112.904 107.688 112.942C107.527 113.001 107.291 112.824 107.175 112.858C106.939 112.928 106.676 113.275 106.346 113.344C105.968 113.423 105.556 113.386 105.178 113.338C104.705 113.276 104.497 113.214 104.034 113.388C103.617 113.544 103.171 113.982 102.784 113.505C102.177 114.678 100.729 114.391 100.013 113.52ZM128.093 99.374C127.633 99.3126 127.953 98.8716 128.165 98.7391C128.744 98.3796 128.589 99.4404 128.093 99.374ZM102.642 103.581C105.34 99.2389 109.954 96.2559 114.014 93.7459C116.232 92.375 118.495 91.0461 120.824 89.9241C121.982 89.3665 123.153 88.8304 124.335 88.3406C124.966 88.0789 125.605 87.8411 126.245 87.6043C126.421 87.5389 126.743 87.3382 126.928 87.3578C126.896 87.3543 127.388 87.5035 127.291 87.5504C127.608 87.3966 127.759 86.9954 128.131 86.835C128.55 86.6545 129.083 86.5799 129.531 86.5637C129.928 86.5491 130.271 86.732 130.649 86.7463C130.898 86.7555 131.109 86.624 131.352 86.6046C131.477 86.5949 131.465 86.8026 131.54 86.8147C131.573 86.82 131.904 86.6812 131.908 86.6836C132.028 86.7701 132.135 87.1076 132.244 87.2394C132.557 87.6175 133.016 87.8809 133.434 88.0798C133.941 88.3219 135.18 88.5653 134.606 89.4609C135.014 89.3955 135.203 89.8066 134.693 89.9107C134.416 89.9672 134.298 89.6847 134.093 89.4919C133.618 89.0474 132.467 88.4145 131.783 88.4431C131.399 88.4592 131.102 88.7846 130.747 88.9028C130.398 89.019 130.226 88.8388 129.919 88.8674C129.562 88.9006 129.331 89.2384 128.99 89.2985C128.671 89.3548 128.493 89.1119 128.207 89.1288C127.868 89.1488 127.539 89.4776 127.216 89.5881C126.7 89.7637 126.322 89.8834 125.819 90.1745C124.844 90.7389 123.755 90.9533 122.751 91.4391C121.947 91.8275 121.037 92.032 120.293 92.4615C119.467 92.9388 118.636 93.4143 117.827 93.933C117.242 94.3077 116.054 94.4367 115.409 94.3414C115.4 95.6657 114.815 94.7373 114.227 95.3173C114.366 95.4544 114.524 95.5552 114.701 95.6197C114.062 95.904 113.473 96.2578 112.854 96.5846C112.215 96.9226 111.534 96.997 111.114 97.6362C110.727 98.2253 110.858 97.9214 110.281 98.1534C110.017 98.2599 109.786 98.5847 109.596 98.8027C109.268 99.1777 109.195 99.7454 109.008 98.9748C108.953 99.0688 108.738 99.6671 108.696 99.6823C108.462 99.4046 108.428 99.7338 108.297 99.8515C108.366 100.107 108.267 100.275 108.001 100.355C107.866 100.466 107.73 100.576 107.592 100.683C107.092 101.07 106.455 101.402 106.103 101.979C105.843 101.808 105.747 101.513 105.905 101.212C105.408 101.722 104.816 102.247 104.682 103.032C104.62 102.966 104.548 102.918 104.466 102.888C104.265 103.04 104.527 103.493 104.655 103.595C105.212 103.353 104.516 103.441 104.89 103.48C104.997 103.491 105.107 103.58 105.224 103.581C105.57 103.586 105.894 103.568 106.237 103.509C106.992 103.379 107.734 103.137 108.465 102.895C109.261 102.631 110.058 102.367 110.836 102.043C111.477 101.777 112.108 101.479 112.738 101.183C112.99 101.065 113.241 100.945 113.493 100.827C113.972 100.604 114.225 100.237 114.158 100.866C114.539 100.795 114.87 100.194 115.162 99.9483C115.574 99.6035 116.037 99.3463 116.525 99.1702C116.723 99.0989 116.868 99.0083 117.073 99.0076C117.173 99.0074 117.233 99.3225 117.296 99.3053C117.734 99.1869 117.534 98.9163 117.731 98.5264C118.162 97.6741 119.322 97.2027 120.034 96.7186C120.486 96.4112 120.807 95.9977 121.224 95.6573C121.42 95.4982 121.562 95.4278 121.766 95.3605C121.923 95.3088 122.115 95.7101 122.216 95.3068C121.852 95.1406 121.552 94.9358 121.201 94.8145C120.953 94.7285 121.251 94.4343 120.858 94.6094C120.7 94.6798 120.646 95.0205 120.588 95.1631C120.149 94.7258 118.915 95.1789 118.394 95.362C118.358 95.3745 118.197 95.2799 118.121 95.2856C117.821 95.3081 117.611 95.7594 117.414 95.9539C116.888 96.4708 116.317 96.6869 115.669 96.982C115.841 95.9313 117.108 95.5009 117.848 95.0984C118.929 94.51 119.935 93.7589 121.119 93.4425C121.907 93.2315 122.952 93.0618 123.292 94.0842C123.496 94.697 123.522 96.2195 122.832 96.5023C122.76 96.2162 122.993 95.9718 123.063 95.7235C122.377 96.0158 122.264 96.9354 121.742 97.4153C121.449 97.6849 121.345 97.7714 121.203 98.0319C121.062 98.2907 120.995 98.5321 120.665 98.8074C120.127 97.5308 120.218 99.2794 119.945 99.4988C120.054 99.4105 119.499 99.6682 119.566 99.6409C119.54 99.6515 119.298 99.2145 119.141 99.2237C118.856 99.2404 118.911 99.591 118.773 99.7674C118.307 100.365 117.705 100.756 116.955 100.662C116.937 101.087 117.055 101.595 116.534 101.634L116.466 100.692C116.183 101.011 115.81 101.315 115.58 101.685C115.318 102.105 115.346 102.365 114.911 102.645C114.456 102.939 113.489 103.516 112.949 103.566C113.082 103.355 113.059 103.164 112.878 102.993C112.606 103.306 112.204 103.337 111.915 103.619C112.92 104.088 111.142 104.064 110.917 104.117C110.766 104.152 110.634 104.306 110.481 104.34C110.278 104.386 110.252 104.148 110.077 104.224C109.822 104.334 109.925 104.646 109.658 104.803C109.466 104.915 109.14 104.914 108.923 105.021C108.406 105.276 107.306 105.841 106.957 105.156C106.78 106.332 104.973 105.616 104.304 105.537C103.388 105.428 101.792 104.949 102.642 103.581ZM106.49 91.5441C106.619 91.4207 106.749 91.4297 106.879 91.5714C106.698 90.5068 108.096 89.9899 108.706 89.5372C109.514 88.9369 110.466 87.7722 111.525 87.8644C111.344 88.0136 111.164 88.1628 110.984 88.312C111.241 88.3492 111.498 88.3864 111.755 88.4235C111.61 88.6612 111.465 88.8986 111.32 89.1361C111.082 87.6758 109.843 89.5194 109.485 89.7881C109.123 90.0585 108.763 90.2601 108.442 90.59C108.124 90.9167 107.837 91.5051 107.311 91.2112C107.264 92.0452 106.662 91.8189 106.247 92.2808C106.229 91.991 106.378 91.7862 106.49 91.5441ZM111.98 87.3809C113.26 86.8464 114.373 85.8582 115.579 85.1522C116.73 84.4778 117.905 83.8722 119.076 83.2431C119.669 82.9238 120.757 82.0981 121.436 82.5189C122.352 83.0871 121.091 83.2704 120.763 83.4671C120.642 82.5922 120.218 83.3848 120.471 83.8715C119.773 83.5349 118.248 84.8521 117.582 85.2154C117.431 85.2977 117.498 85.3452 117.327 85.4421C117.284 85.4658 116.847 85.5769 116.722 85.6238C116.094 85.8582 115.68 85.672 115.41 86.5172C115.353 86.3183 115.297 86.1192 115.24 85.92C114.847 86.9043 113.653 87.3352 112.889 87.9172C112.692 88.0673 112.13 88.6493 111.88 88.5289C111.532 88.3613 111.672 87.5097 111.98 87.3809ZM135.058 90.3486C135.598 90.3884 135.077 90.6694 135.226 90.8551C135.209 90.8342 135.551 91.1597 135.506 91.0703C135.566 91.1905 135.711 91.1861 135.786 91.4303C136.041 92.2703 134.925 93.1382 134.549 93.6148C133.818 94.5419 133.395 95.7158 132.633 96.6132C132.289 97.0186 131.946 97.2985 131.469 97.4496C131.135 97.5555 130.782 97.4422 130.475 97.8004C130.228 98.0889 130.284 98.2528 130.01 98.4062C129.529 98.6766 129.317 98.4394 128.849 99.0239C128.446 97.8017 129.604 97.8037 130.208 97.1207C131.042 96.1777 131.956 95.2264 132.738 94.2177C133.433 93.3215 133.711 92.5357 134.041 91.4468C134.145 91.1036 134.258 90.3675 134.545 90.1521C134.991 89.8167 134.723 90.3237 135.058 90.3486ZM137.714 122.098C139.13 120.33 140.888 118.743 142.792 117.679C143.473 117.298 144.442 116.798 145.148 117.384C145.84 117.959 145.691 119.105 145.412 119.884C145.145 119.767 145.397 118.671 145.258 118.401C144.956 117.81 144.303 118.124 143.859 118.322C143.338 118.554 142.874 118.81 142.462 119.231C142.295 119.401 141.974 119.554 141.867 119.672C141.706 119.597 141.611 119.651 141.583 119.834C141.616 119.947 141.612 120.057 141.571 120.166C141.548 120.2 141.338 120.059 141.308 120.087C141.173 120.217 141.046 120.369 140.912 120.49C140.644 120.731 140.416 120.846 140.169 121.183C139.693 121.834 139.062 122.216 138.583 122.837C138.475 122.977 138.346 123.337 138.321 123.369C138.079 123.684 137.721 123.933 137.448 124.267C136.975 124.843 136.471 125.23 135.927 125.724C135.692 125.937 135.419 126.166 135.263 126.462C135.192 126.596 135.152 127.336 135.149 127.339C134.615 127.992 134.719 126.679 134.759 126.515C135.193 124.743 136.659 123.414 137.714 122.098ZM134.798 134.074C134.865 134.353 134.919 134.583 134.987 134.865C134.563 134.477 134.563 134.477 134.798 134.074ZM134.341 134.985C134.185 135.16 134.029 135.334 133.871 135.507C133.524 135.098 134.404 134.915 134.341 134.985ZM134.121 127.952C133.955 128.7 133.348 129.606 132.931 130.196C132.977 130.131 132.575 130.262 132.53 130.292C132.381 130.388 132.737 131.01 132.222 130.732C132.04 130.847 132.399 131.317 132.151 131.527C131.434 129.704 133.392 128.124 134.15 126.771C134.521 127.151 134.214 127.533 134.121 127.952ZM129.462 137.809C129.985 137.959 130.257 137.865 130.61 137.292C130.822 136.948 130.9 136.338 131.385 136.853L131.471 136.191C132.164 136.508 132.106 137.654 132.408 138.289C132.556 137.571 132.905 135.564 133.973 135.885C135.173 136.247 133.176 138.548 132.991 139.112C132.583 138.406 132.744 139.063 132.432 139.162C132.166 139.248 131.749 139.029 131.424 139.048C130.438 139.108 129.571 139.603 128.669 140.023C128.441 139.336 128.213 138.65 127.985 137.964C128.516 138.009 129.613 136.434 129.769 137.579C129.375 137.502 129.264 137.522 129.072 137.921C129.195 137.852 129.325 137.815 129.462 137.809ZM131.677 146.768C131.675 146.762 132.697 146.833 132.789 146.795C133.488 146.51 133.229 145.625 133.372 145C133.661 145.296 133.508 145.835 133.597 146.218C133.701 146.668 134.003 147.051 134.031 147.532C134.095 148.619 133.296 148.378 132.69 148.729C132.172 149.03 132.114 149.408 131.677 148.598C131.559 148.379 131.304 147.808 131.33 147.528C131.356 147.25 131.75 147.019 131.677 146.768ZM132.501 151.471L132.218 151.117C133.06 151.405 132.563 150.973 132.757 150.381C133.404 150.862 133.931 151.355 134.442 150.394L135.326 154.37C134.733 154.526 133.967 153.503 133.56 153.151C133.324 152.948 132.02 152.166 132.803 151.938C132.702 151.782 132.601 151.626 132.501 151.471ZM138.269 138.984C137.779 139.505 137.285 139.796 136.75 140.205C136.282 140.564 136.443 140.977 136.037 141.377C135.767 141.643 135.135 141.914 134.802 142.118C134.208 142.479 133.677 142.548 133.066 142.143C133.232 143.635 132.316 143.752 131.176 144.048C130.632 144.189 130.31 144.404 129.918 143.849C129.65 143.468 129.544 142.78 129.878 142.432C130.409 141.879 131.822 142.07 132.503 141.722C133.019 141.459 133.545 139.973 134.182 140.514C133.854 139.93 134.236 139.772 134.522 139.356C134.835 138.899 135.028 138.365 135.352 137.912C135.967 137.052 136.912 136.186 137.786 135.667C138.555 135.21 138.959 135.533 139.074 136.492C139.132 136.974 139.13 137.693 138.888 138.12C138.811 138.257 138.556 138.258 138.479 138.386C138.345 138.61 138.468 138.774 138.269 138.984ZM147.295 127.411C147.909 127.941 147.849 129.055 147.945 129.813C148.082 130.882 147.983 131.916 147.968 133.005C147.953 134.145 147.451 134.888 147.215 135.957C146.953 137.146 146.614 137.776 146.025 138.774C146.664 138.886 145.714 141.012 145.557 141.288C145.387 141.587 144.016 142.964 144.604 142.964C144.279 143.441 143.926 143.93 143.603 144.394C143.476 144.577 143.253 144.649 143.153 144.778C142.948 145.04 142.936 145.273 142.79 145.579C142.568 146.043 142.495 145.919 142.203 146.256C142.002 146.489 141.87 146.796 141.672 147.019C141.034 147.737 140.953 147.148 140.596 146.595C140.542 146.743 140.445 146.836 140.305 146.874C140.194 146.248 140.962 145.616 141.285 145.236C141.815 144.613 142.298 143.926 142.766 143.244C143.768 141.784 144.669 140.233 145.379 138.571C146.135 136.802 146.739 134.888 147.053 132.959C147.292 131.488 147.519 128.966 145.758 128.592C144.476 128.32 143.064 129.188 142.008 129.891C141.364 130.319 140.717 130.745 140.104 131.227C139.438 131.749 138.863 132.489 138.141 132.908C138.536 132.678 137.232 133.369 137.432 133.174C137.338 133.265 137.419 133.542 137.357 133.667C137.277 133.83 136.997 133.99 136.871 134.096C136.54 134.373 136.01 134.657 135.86 135.116C133.758 133.443 137.938 130.473 139.009 129.717C141.135 128.217 144.834 125.286 147.295 127.411ZM152.965 111.142C152.945 109.938 153.824 108.293 154.418 107.311C154.709 106.83 155.173 106.849 155.343 106.282C155.442 105.956 155.313 105.613 155.342 105.285C155.381 104.842 155.554 104.486 155.753 104.105C157.55 100.66 159.734 97.6103 162.061 94.6044C163.208 93.1225 164.295 91.5837 165.532 90.1917C166.049 89.6103 167.438 87.5202 168.233 87.7293C168.654 87.84 168.898 88.5562 169.088 88.9217C169.402 89.5262 169.748 90.0924 170.13 90.6483C171.137 92.1158 172.299 93.404 173.671 94.4442C174.528 95.0942 175.394 95.726 176.232 96.407C176.922 96.9675 177.965 97.6083 178.457 98.3952C178.95 99.1823 178.227 99.8489 177.831 100.502C177.216 101.519 176.651 102.572 176.034 103.587C175.789 103.391 175.852 102.991 175.684 102.739C175.535 102.516 175.324 102.425 175.118 102.287C174.723 102.023 174.336 101.7 173.979 102.142C173.355 102.916 174.213 104.745 175.138 104.544C175.247 105.308 173.4 106.566 172.938 106.986C171.517 108.275 170.052 109.396 168.176 109.512C167.417 109.559 166.627 109.495 165.905 109.212C165.56 109.076 165.178 108.889 164.913 108.594C164.595 108.239 164.515 107.712 164.207 107.361C163.94 107.057 163.573 107.01 163.307 106.705C163.04 106.399 162.908 105.916 162.799 105.52C162.587 104.747 162.547 103.931 162.344 103.156C162.221 102.69 162.121 102.066 161.721 102.514C161.141 103.165 161.432 105.212 161.581 105.992C161.793 107.104 162.292 108.001 162.813 108.958C163.379 109.997 163.588 110.96 163.689 112.161C163.879 114.411 164.458 116.569 165.358 118.592C165.737 119.444 166.191 120.246 166.6 121.078C166.791 121.467 167.219 122.792 167.739 122.785C168.57 122.773 167.387 120.072 167.223 119.618C166.313 117.106 165.444 114.466 165.249 111.746C166.553 112.121 167.975 112.477 169.325 112.239C168.453 114.414 169.364 116.579 169.252 118.817C169.197 119.94 169.157 120.975 169.177 122.094C169.196 123.076 168.798 124.057 168.455 124.944C167.773 126.707 166.914 128.881 165.647 130.231C164.588 131.359 163.171 131.448 161.788 131.188C158.64 130.596 156.571 127.897 155.25 124.831C154.401 122.862 153.753 120.759 153.35 118.62C152.883 116.145 153.006 113.653 152.965 111.142ZM157.053 94.4598C154.116 92.0887 158.384 89.3962 160.557 89.7628C161.067 89.8486 162.005 90.0836 161.957 90.8256C161.918 91.4321 161.011 92.1081 160.663 92.4824C159.67 93.5505 158.66 95.7561 157.053 94.4598ZM178.424 147.144C178.323 147.043 177.501 147.291 177.826 146.748C178.097 146.297 178.847 146.862 179.12 146.978C178.895 147.151 178.7 147.419 178.424 147.144ZM166.192 175.821C165.939 175.856 165.675 175.096 166.585 175.664C166.454 175.716 166.323 175.769 166.192 175.821ZM166.165 188.201C166.197 188.542 166.29 188.766 166.073 189.014C165.89 188.762 165.866 188.406 166.165 188.201ZM166.535 193.317C166.508 193.502 166.481 193.687 166.455 193.872C166.245 193.754 166.035 193.635 165.824 193.516C166.061 193.45 166.298 193.383 166.535 193.317ZM166.792 189.003C167.105 189.134 166.96 188.716 167.187 188.657C167.269 189.092 167.168 189.465 166.944 189.824C166.923 189.739 166.808 189.01 166.792 189.003ZM174.798 158.135C174.359 158.073 174.292 158.591 173.964 158.792C173.753 158.922 173.109 158.824 172.989 159.073C173.147 159.124 173.306 159.175 173.465 159.226C173.102 159.444 172.739 159.663 172.375 159.881C173.249 159.881 174.159 159.416 175.027 159.552C175.393 159.61 175.662 159.748 175.892 160.081C176.032 160.283 176.155 160.608 176.177 160.855C176.201 161.123 176.014 161.308 176.048 161.435C176.438 161.447 176.392 162.163 176.305 162.454C176.114 163.087 175.358 164.077 174.68 163.676C174.964 164.124 174.892 164.38 174.473 164.641C174.511 164.492 174.539 164.233 174.324 164.259C174.269 164.507 174.29 164.902 174.108 165.089C173.905 165.299 173.723 165.054 173.528 165.19C173.297 165.352 173.366 165.606 173.185 165.782C172.944 166.014 172.91 165.849 172.623 165.894C172.188 165.963 172.465 165.661 172.117 166.054C171.996 166.19 172.017 166.543 171.821 166.741C171.446 167.122 170.445 167.519 170.086 167.031C169.222 168.558 166.631 168.925 165.426 167.719C163.503 165.795 167.088 161.884 168.272 160.644C169.46 159.4 170.78 158.325 172.115 157.288C172.874 156.698 173.652 156.163 174.447 155.638C174.938 155.314 175.554 154.722 176.156 154.779C176.697 154.83 177.159 155.298 177.728 155.391C178.139 155.458 178.939 155.568 178.419 156.191C178.177 156.482 177.223 156.952 176.898 157.023C176.708 157.065 176.507 156.985 176.318 157.028C175.998 157.101 175.778 157.403 175.43 157.364C175.54 157.941 175.339 158.212 174.798 158.135ZM180.489 136.74C180.489 137.191 179.751 137.078 179.597 136.925C179.344 136.673 179.335 135.92 179.241 135.577C179.669 135.697 180.489 136.138 180.489 136.74ZM174.546 121.865C176.095 120.444 177.725 119.141 179.447 117.994C180.064 117.583 180.935 116.754 181.701 116.858C182.023 116.901 182.687 117.313 182.445 117.767C182.4 117.852 182.042 117.886 181.932 117.947C181.806 118.017 181.708 118.21 181.592 118.305C180.787 118.963 179.82 119.368 179.013 120.042C178.349 120.596 177.73 121.216 177.016 121.691C176.331 122.147 175.615 122.435 174.964 122.94C174.977 122.93 174.118 123.275 174.286 123.337C173.532 123.056 174.329 122.064 174.546 121.865ZM184.878 121.335C185.799 120.926 186.699 120.429 187.663 120.154C188.144 120.017 188.638 119.914 189.136 119.976C189.221 119.81 189.333 119.774 189.474 119.866C189.584 120.054 189.729 120.199 189.909 120.3C190.183 120.536 191.194 120.843 190.992 121.363C190.859 121.707 189.845 121.736 189.567 121.813C188.728 122.046 187.946 122.57 187.082 122.699C187.001 122.711 186.737 122.602 186.734 122.602C186.396 122.684 186.116 123.074 185.826 123.262C185.203 123.664 184.307 123.732 183.86 124.426C185.309 125.522 186.567 124.435 187.841 123.608C188.605 123.112 189.424 122.755 190.258 122.437C190.694 122.271 191.134 122.098 191.576 121.953C191.759 121.878 191.947 121.825 192.14 121.792C192.319 121.752 192.448 121.825 192.525 122.011C193.059 121.991 193.105 121.617 193.427 122.314C193.88 123.298 193.187 123.248 192.535 123.368C191.631 123.536 190.712 123.912 189.821 124.162C189.616 124.22 187.814 124.686 187.812 124.702C187.731 125.336 192.9 124.749 193.344 124.654C194.127 124.486 194.967 124.009 195.778 124.124C196.4 124.212 197.819 125.231 196.825 125.908C196.63 124.864 195.959 125.726 195.609 126.078C195.142 126.547 194.473 126.502 193.833 126.686C192.958 126.937 190.716 127.878 190.095 126.678C190.291 127.73 186.719 127.195 186.228 127.16C185.749 127.126 185.131 127.24 184.668 127.088C184.366 126.988 184.198 126.769 183.914 126.72C183.845 126.804 183.761 126.861 183.664 126.891C183.52 126.81 183.39 126.706 183.274 126.581C182.317 126.091 180.837 125.819 181.369 124.257C181.87 122.783 183.662 121.876 184.878 121.335ZM193.846 122.246C193.869 122.154 193.893 122.063 193.917 121.971C193.92 122.252 194.522 122.372 194.452 122.737C194.298 123.544 193.604 122.331 193.544 122.199C193.645 122.215 193.745 122.23 193.846 122.246ZM197.519 123.588C197.589 123.918 198.389 124.623 198.191 124.785C197.875 124.307 197.003 124.524 197.519 123.588ZM184.023 153.766C184.316 153.118 185.201 154.221 185.108 153.115C185.589 153.163 185.289 153.572 185.866 153.392C186.082 153.325 186.228 153.058 186.492 152.996C186.562 152.98 186.865 153.006 186.97 153.003C187.317 152.991 188.677 152.948 187.741 152.44C188.265 152.054 188.329 152.25 188.802 152.604C188.681 151.872 189.377 152.287 189.701 152.379C189.47 151.961 190.043 151.517 190.229 151.235C190.162 151.67 190.197 152.156 190.761 151.878C190.902 151.809 190.87 151.502 190.981 151.452C191.185 151.36 191.299 151.527 191.373 151.518C191.445 151.509 191.596 151.554 191.748 151.49C191.944 151.408 191.849 151.113 192.099 151.069C192.261 151.041 192.38 151.307 192.578 151.31C192.68 151.311 192.85 151.195 192.927 151.202C192.941 151.203 193.037 150.942 193.156 150.936C193.33 150.926 193.401 151.446 193.465 151.547C193.769 152.029 194.174 152.343 194.641 152.6C193.796 153.465 192.091 153.373 191.029 153.665C190.453 153.823 189.962 154.05 189.436 154.344C189.308 154.436 189.199 154.549 189.107 154.683C189.033 154.628 188.958 154.573 188.884 154.517C188.595 154.537 188.322 154.378 187.997 154.439C186.994 154.628 186.208 155.467 185.188 155.653C184.73 155.737 184.353 155.855 184.055 155.412C183.793 155.023 183.836 154.179 184.023 153.766ZM182.647 148.6C182.874 148.815 182.601 149.513 183.041 149.437C183.353 149.383 183.291 148.843 183.536 148.728C183.859 148.578 184.053 148.935 184.356 148.902C184.921 148.839 184.889 148.289 184.412 148.048C184.908 147.902 185.067 148.556 185.506 148.55C186.083 148.542 185.945 147.783 186.436 147.657C186.649 147.603 186.578 147.951 186.716 147.994C186.992 148.081 187.184 147.932 187.429 147.802C187.647 147.685 187.803 147.459 188.042 147.382C188.15 147.347 188.427 147.411 188.506 147.346C188.667 147.216 188.811 146.707 188.969 146.639C188.937 146.653 189.456 146.943 189.53 146.97C189.484 147.185 189.379 147.211 189.213 147.047C189.213 147.532 190.422 147.683 190.174 147.084C190.828 147.386 190.341 147.541 190.276 147.962C190.25 148.132 190.161 148.127 190.188 148.306C190.2 148.389 190.542 148.318 190.538 148.43C190.509 149.154 188.44 149.377 188.048 149.441C187.236 149.573 186.468 149.796 185.686 150.07C185.104 150.274 184.099 150.858 183.48 150.821C182.588 150.769 182.472 149.472 182.647 148.6ZM180.655 141.211C180.438 140.405 181.135 138.741 182.043 138.949C182.266 139 182.322 139.206 182.495 139.298C182.737 139.426 183.13 139.359 183.34 139.491C183.81 139.788 183.573 140.544 184.044 140.817C183.3 141.018 181 142.491 180.655 141.211ZM181.516 144.341C181.836 144.148 182.355 144.124 182.574 143.754C182.683 143.838 182.888 144.349 183.084 144.271C183.175 144.234 183.269 143.958 183.262 143.958C183.436 143.952 183.471 143.69 183.736 143.719C183.98 143.747 184.253 144.074 184.47 144.196C184.433 143.385 184.619 143.307 185.209 142.873C185.338 142.778 185.446 142.421 185.565 142.277C185.451 143.128 185.738 143.132 186.347 143.26C187.111 143.42 187.586 143.878 187.892 144.701C187.242 144.559 186.402 144.729 186.146 145.509C185.627 144.451 183.74 145.911 183.129 146.211C182.676 146.433 182.149 146.731 181.769 146.214C181.501 145.849 181.655 145.411 181.66 145.087C181.662 144.985 181.756 144.98 181.747 144.828C181.736 144.635 181.511 144.558 181.516 144.341ZM188.461 160.981C188.29 161.054 187.405 161.094 187.4 160.768C187.395 160.479 188.96 160.77 188.461 160.981ZM187.025 159.924C186.356 160.384 185.607 158.763 185.361 158.296C186.063 158.396 186.406 157.741 186.819 157.243C187.213 158.205 187.81 157.697 188.438 157.376C189.179 156.997 189.991 156.994 190.75 156.69C190.987 156.595 191.205 156.454 191.437 156.346C191.623 156.268 191.808 156.188 191.993 156.107C192.124 155.975 192.171 155.812 192.133 155.619C192.071 155.457 192.113 155.355 192.26 155.313C192.435 155.371 192.613 155.405 192.796 155.414C193.088 155.349 193.508 155.041 193.155 154.709C193.534 154.326 193.913 154.707 194.277 154.875C194.19 154.6 194.104 154.325 194.018 154.049C194.198 154.135 194.735 154.971 194.79 154.966C195.136 154.937 195.1 154.418 195.299 154.209C195.414 154.367 195.447 155.547 195.9 155.149C196.093 154.979 195.677 154.401 195.574 154.269C196.091 154.399 196.543 155.088 196.683 155.623C196.437 155.662 196.21 155.607 196.002 155.457C195.868 156.202 197.104 155.9 197.304 156.289C197.696 157.051 195.147 157.58 194.815 157.65C194.151 157.792 193.367 157.844 192.758 158.173C192.174 158.487 192.036 158.577 191.355 158.636C190.576 158.704 189.817 158.99 189.064 159.212C188.411 159.406 187.604 159.526 187.025 159.924ZM201.248 132.661C201.862 132.415 203.932 131.135 204.459 131.704C204.403 131.644 204.839 132.648 204.834 132.584C204.872 133.107 204.86 133.317 204.284 133.567C203.871 133.746 203.512 133.365 203.141 133.517C202.733 133.683 203.018 133.977 202.808 134.182C202.578 134.407 202.135 134.504 201.849 134.603C201.148 134.844 200.442 135.046 199.744 135.306C198.325 135.836 196.823 136.328 195.365 136.702C194.275 136.982 192.425 137.677 191.421 136.856C191.323 137.323 191.084 137.259 190.751 137.327C190.49 137.38 190.018 137.524 189.786 137.532C189.4 137.544 188.327 137.432 188.475 136.828C188.434 136.994 189.31 136.424 189.158 136.389C189.53 136.476 189.409 136.267 189.714 136.151C190.112 136 190.528 136.008 190.934 135.847C191.958 135.442 192.817 134.917 193.898 134.663C196.366 134.084 198.866 133.618 201.248 132.661ZM102.28 195.066C102.08 195.072 101.925 194.438 102.533 194.891C102.449 194.95 102.365 195.008 102.28 195.066ZM97.4728 194.246C97.2008 194.324 97.0923 194.154 97.1478 193.738C97.5271 193.571 97.6354 193.74 97.4728 194.246ZM93.7615 193.397C93.6919 193.026 93.9384 192.942 94.1619 192.776C94.1395 193.267 94.1395 193.267 93.7615 193.397ZM84.4233 190.344C84.0471 190.252 83.5459 189.841 83.4597 190.53C83.3968 190.371 83.0756 189.62 83.2135 189.447C83.2855 189.356 83.5581 189.776 83.5291 189.735C83.8584 188.992 84.4259 189.888 84.7431 190.153C84.6366 190.217 84.5299 190.281 84.4233 190.344ZM182.231 108.243C182.361 107.937 182.514 107.84 182.69 107.952C182.413 108.668 181.477 109.057 182.231 108.243ZM188.739 101.518C188.971 102.003 188.622 102.208 188.372 102.611C188.518 102.176 188.619 101.875 188.739 101.518ZM217.022 148.883C217.859 148.882 219.642 148.39 220.146 149.457C220.48 148.732 220.86 150.091 221.15 150.309C221.182 150.334 221.391 150.156 221.488 150.222C221.634 150.32 221.76 150.59 221.844 150.75C222.097 151.232 222.206 151.805 222.346 152.336C220.884 152.336 219.386 151.957 217.925 151.819C216.967 151.728 216.027 151.725 215.067 151.783C214.876 151.794 214.498 151.724 214.334 151.764C214.169 151.805 213.868 152.181 213.686 152.121C213.969 152.715 217.605 154.154 217.882 153.496C217.554 153.274 216.824 153.104 216.824 152.568C216.825 151.967 217.509 151.968 217.872 151.986C218.665 152.025 219.993 152.319 220.318 153.239C220.457 153.633 220.5 154.626 220.347 155.007C220.248 155.253 220.081 155.548 219.815 155.598C219.707 155.619 219.55 155.457 219.534 155.461C218.989 155.59 217.982 156.077 217.389 155.39C216.961 156.008 214.9 155.333 214.269 155.1C213.166 154.693 211.646 154.133 210.976 152.984C210.159 151.584 211.82 150.401 212.774 149.832C214.077 149.054 215.567 148.883 217.022 148.883ZM222.591 152.12C222.848 152.2 223.104 152.281 223.361 152.362C223.292 152.864 222.28 152.467 222.591 152.12ZM230.346 170.357C230.425 168.347 229.904 166.576 229.603 164.632C229.528 164.15 229.604 163.308 229.276 162.911C228.963 162.532 228.263 162.841 228.235 162.171C227.926 162.574 227.958 162.658 227.577 162.194C227.646 162.393 227.657 162.596 227.607 162.802C227.371 162.651 226.515 162.149 226.587 162.835C225.884 162.661 226.087 162.17 225.686 161.795C225.629 161.742 225.4 161.931 225.311 161.851C225.149 161.705 225.069 161.572 224.933 161.384C224.76 161.618 224.525 161.786 224.313 161.971C224.19 161.672 223.951 161.453 223.663 161.38C223.932 162.008 224.597 162.821 223.685 163.178C223.141 163.391 222.25 163.13 221.673 163.179C219.537 163.364 217.197 162.845 215.131 162.277C213.009 161.694 210.863 160.871 208.955 159.667C208.548 159.411 208.292 159.107 207.942 158.789C207.601 158.48 207.354 158.431 206.944 158.233C206.208 157.877 205.534 157.306 204.973 156.669C203.768 155.301 202.649 153.511 202.984 151.508C203.319 149.511 204.549 147.95 205.866 146.635C207.421 145.082 209.177 143.785 211.04 142.74C211.874 142.272 214.005 140.517 214.828 141.544C215.354 142.2 215.058 143.038 214.339 143.183C214.162 143.22 213.977 143.087 213.797 143.178C213.539 143.309 213.63 143.464 213.523 143.573C213.338 143.763 213.141 144.059 212.864 144.224C211.898 144.798 210.965 145.254 210.041 145.954C209.615 146.276 209.206 146.415 208.83 146.696C208.457 146.976 208.372 147.439 207.871 147.153C208.049 147.967 206.976 148.839 206.556 149.338C205.904 150.11 205.123 151.096 205.427 152.239C206.022 154.476 208.711 156.175 210.432 157.158C212.579 158.385 214.947 159.362 217.338 159.766C218.527 159.967 219.756 160.091 220.953 160.219C221.886 160.318 223.317 159.955 223.988 160.892C224.008 159.799 227.067 159.896 227.718 159.756C226.413 154.779 223.85 150.355 221.11 146.221C219.766 144.192 218.445 142.105 216.913 140.244C215.235 138.208 213.318 136.388 211.496 134.514C207.924 130.838 203.883 127.558 199.772 124.668C195.67 121.785 191.422 118.948 186.928 116.892C181.795 114.545 176.392 113.001 170.982 111.686C171.716 110.643 172.91 110.134 173.849 109.371C174.178 109.104 174.623 108.462 175.05 108.375C175.513 108.28 175.877 108.835 176.207 109.114C177.152 109.914 177.806 109.574 178.889 109.526C179.537 109.497 181.072 109.9 181.345 108.922C181.708 109.462 181.181 109.894 180.912 110.29C181.108 110.595 181.266 110.278 181.46 110.231C181.52 110.175 181.579 110.12 181.639 110.065C181.735 109.909 181.822 109.909 181.899 110.062C182.015 110.256 182.131 110.213 182.249 109.933C182.281 109.91 182.313 109.888 182.345 109.865C182.485 109.782 182.62 109.65 182.75 109.547C183.734 108.762 184.611 108.094 185.698 107.516C186.61 107.031 186.119 106.103 186.721 105.448C186.857 105.3 187.086 105.374 187.232 105.248C187.374 105.125 187.396 104.985 187.5 104.853C187.749 104.535 187.452 104.166 188.09 104.555L187.86 103.111C189.11 104.464 189.105 100.571 189.276 99.9948C189.253 100.071 189.388 99.4814 189.388 99.4864C189.424 98.3182 189.567 97.4714 188.341 97.4036C188.805 97.0777 188.947 97.7141 189.162 97.0553C189.269 96.7252 188.934 96.1579 189.468 96.3707C189.581 95.6692 189.469 95.1015 189.329 94.4197C189.186 93.722 189.27 93.2563 189.277 92.5585C189.284 91.767 188.952 90.9715 188.845 90.1921C188.762 89.5817 188.848 88.6189 188.14 88.8432C188.041 88.6696 188.39 88.1355 188.376 87.8714C188.354 87.4613 187.955 87.0445 187.842 86.6506C187.676 86.842 187.441 86.9058 187.215 86.8194C187.428 86.2842 187.228 86.1044 187.025 85.643C186.908 85.3787 186.979 85.0869 186.729 84.8974C186.586 84.7887 186.342 84.9718 186.23 84.8444C185.99 84.5715 186.079 84.2095 185.913 83.85C185.706 83.3991 185.232 83.0547 184.906 82.7163C183.071 80.8139 181.079 79.36 178.638 78.6167C176.176 77.8668 173.306 77.5981 170.852 78.4631C169.871 78.8088 169 78.7734 168.117 79.419C167.831 79.6285 167.8 79.5724 167.655 79.9216C167.621 80.003 167.926 80.2198 167.74 80.3529C167.537 80.4975 167.313 80.2035 167.21 79.9595C165.933 80.9906 164.736 82.3653 164.009 83.9415C163.286 85.5079 163.22 87.3479 162.944 89.05C161.671 87.4278 159.949 86.6501 158.077 87.43C156.445 88.1095 155.181 89.6032 154.862 91.5384C154.667 92.7181 154.88 93.9127 155.36 94.9771C155.568 95.437 155.819 95.9462 156.201 96.2559C156.503 96.5006 157.021 96.4662 157.163 96.9076C157.381 97.5839 156.122 99.0444 155.795 99.6363C155.204 100.708 154.654 101.814 154.236 102.984C152.737 100.621 151.302 98.0405 149.597 95.862C147.987 93.8058 146.069 91.9618 144.188 90.2238C140.283 86.6167 136.223 83.2279 131.855 80.3542C127.788 77.6784 122.876 76.1928 118.136 76.7181C113.504 77.2315 109.959 80.4988 106.975 84.2672C101.238 91.5129 97.7246 101.84 97.3813 111.485C97.2781 114.383 97.476 117.242 98.1175 120.053C98.4231 121.391 98.3787 122.707 98.5562 124.062C98.7567 125.591 99.1032 127.114 99.4384 128.612C100.715 134.317 102.342 140.018 104.167 145.535C105.116 148.403 106.264 151.207 107.818 153.737C108.535 154.905 109.465 155.82 110.237 156.929C110.986 158.005 111.184 159.326 111.349 160.646C111.743 163.812 112.005 166.991 112.243 170.176C112.344 171.525 112.461 172.863 112.622 174.203C112.761 175.372 112.41 175.314 111.529 175.711C111.708 174.661 107.497 175.375 107.1 175.447C106.667 175.525 106.209 175.526 105.869 175.588C105.488 175.657 105.115 175.757 104.676 175.743C104.031 175.723 102.824 175.539 102.578 176.457C102.408 175.393 101.289 176.557 102.117 176.359C101.267 176.465 100.4 176.289 99.5394 176.378C98.5535 176.48 97.559 176.577 96.58 176.743C95.8985 176.858 95.2481 177.151 94.5653 177.236C93.6917 177.345 92.7799 177.334 91.8977 177.421C88.6438 177.741 85.2712 178.533 82.1082 179.44C81.3918 179.645 80.5686 179.791 79.884 180.121C79.7008 180.209 79.5359 180.406 79.3603 180.481C79.066 180.608 79.1062 180.521 78.8449 180.579C77.2788 180.928 75.6632 181.498 74.0973 181.946C73.2287 182.194 71.8159 182.418 71.1073 183.095C70.7897 183.397 70.5122 183.934 71.0211 184.279C71.4277 184.553 72.008 184.115 72.3371 183.877C72.0439 184.73 71.491 185.154 71.7896 186.124C72.0254 186.89 72.5576 187.834 73.3765 187.34C73.4861 187.625 73.5305 188.191 73.8534 188.295C74.1436 188.389 74.3537 187.979 74.638 188.076C74.7398 188.11 74.7011 188.325 74.7922 188.381C74.9493 188.477 75.1084 188.518 75.2884 188.586C75.443 188.645 75.692 188.765 75.8533 188.778C75.9557 188.786 76.197 188.59 76.1962 188.59C76.4313 188.63 76.5578 189.132 76.727 189.277C76.9468 189.465 77.1282 189.508 77.4034 189.577C77.9755 189.718 78.7129 189.961 79.0905 189.308C79.004 189.774 79.5728 189.729 79.8237 189.788C79.7959 189.542 79.6742 189.317 79.4864 189.182C80.0474 189.223 79.8199 189.846 80.2346 190.01C80.5301 190.127 80.4966 189.83 80.7226 189.797C81.0205 189.753 81.2466 189.994 81.7117 189.772C81.8125 190.272 81.8494 190.776 82.3996 190.85C82.7225 190.894 83.4755 190.244 83.4329 190.785C84.1543 190.549 84.4281 190.709 84.805 191.418C84.8688 190.982 85.1771 191.109 85.46 191.082C85.9083 191.039 85.9198 191.079 86.2674 190.796C86.2991 190.77 86.5725 190.072 86.6941 190.506C86.7487 190.7 86.3875 191.158 86.2538 191.275C86.4199 191.368 86.9641 191.696 87.1734 191.636C87.3545 191.584 87.3551 191.239 87.5727 191.221C87.5194 191.419 87.4664 191.618 87.4129 191.817C87.8362 191.885 88.1899 191.569 88.5243 191.338C88.8431 192.237 89.7542 191.73 90.2498 192.407C90.5119 192.765 90.5242 193.037 91.0236 193.13C91.5348 193.226 91.9812 192.976 92.4155 193.446C92.2779 193.154 91.9348 192.912 92.2757 192.599C92.5077 192.966 92.6274 193.408 92.8949 193.75C92.9318 193.576 92.9687 193.403 93.0056 193.229C93.7029 194.061 94.5807 194.068 95.474 194.529V193.92C96.1135 195.009 96.1476 194.32 96.9116 193.876C96.8597 194.196 96.8077 194.516 96.7558 194.836C97.3056 194.79 97.8192 195.516 98.2706 194.899C98.5432 195.409 98.8736 195.158 99.3204 195.32C99.5745 195.412 99.7637 195.691 100.011 195.792C100.382 195.944 100.492 195.937 100.841 196.068C101.151 196.185 101.328 196.413 101.716 196.486C101.969 196.534 102.197 196.53 102.439 196.518C102.532 196.512 102.501 196.278 102.709 196.333C103.029 196.418 103.268 196.866 103.499 197.096C103.846 196.123 104.818 197.427 105.288 197.6C105.333 197.351 105.325 197.05 105.487 196.845C105.677 197.309 105.75 197.7 106.144 197.999C106.372 198.172 106.707 198.296 106.97 198.359C107.136 198.399 107.438 198.351 107.543 198.408C107.721 198.506 107.787 198.766 107.967 198.79C108.073 198.805 108.23 198.494 108.309 198.518C108.672 198.628 108.874 199.12 109.24 199.386C110.331 200.178 111.704 200.255 112.919 200.428C113.224 200.472 113.268 200.379 113.516 200.578C113.648 200.685 113.588 201.009 113.75 201.1C114.363 201.443 114.363 200.712 114.492 200.258C114.694 200.556 114.729 200.95 115.006 201.187C115.158 201.182 115.309 201.186 115.46 201.199C115.546 201.307 115.602 201.432 115.628 201.574C115.995 201.851 116.41 201.755 116.789 201.962C116.913 202.03 117.134 202.441 117.287 202.559C117.561 202.771 117.984 202.884 118.297 202.976C118.954 203.169 119.895 202.913 120.286 203.678C120.804 203.057 120.604 203.798 120.956 203.954C121.164 204.045 121.477 203.68 121.707 203.717C122.122 203.782 122.272 204.283 122.405 204.648C122.658 204.585 122.484 203.787 122.477 203.612C122.791 203.57 122.861 204.494 122.915 204.696C123.412 204.43 122.597 203.601 123.131 203.334C123.082 204.041 123.586 204.623 122.685 204.724C122.809 205.15 125.717 205.622 125.919 205.247C125.964 205.941 126.382 205.293 126.536 205.055C126.554 205.46 126.43 206.035 126.838 206.223C127.115 206.351 127.739 206.02 127.848 205.718C127.972 206.18 128.18 206.165 128.438 206.459C128.616 206.661 128.733 207.011 128.919 207.18C129.262 207.491 129.899 207.443 130.298 207.374C131.079 207.238 130.987 207.071 131.265 207.976C131.328 207.633 131.526 206.914 131.87 207.448C132.089 207.788 131.622 208.536 131.488 208.834C131.789 208.65 132.088 208.431 132.43 208.352C132.449 208.469 132.467 208.719 132.416 208.828C132.427 208.806 132.792 209.079 132.927 209.155C132.895 209.137 133.035 208.456 133.031 208.479C133.512 208.81 133.178 209.445 133.605 209.772C133.715 209.857 133.974 209.758 134.107 209.81C134.34 209.899 134.54 210.142 134.747 210.284C134.582 210.038 134.606 209.624 134.617 209.339C134.722 209.404 134.797 209.646 134.903 209.665C134.943 209.672 135.358 209.734 135.355 209.732C135.788 210.069 135.699 210.112 135.328 210.518C135.46 210.75 136.014 210.346 136.164 210.279C136.195 210.37 136.204 210.7 136.263 210.759C136.298 210.857 136.334 210.954 136.37 211.052C136.481 210.96 136.599 210.929 136.726 210.96C136.806 210.991 137.431 211.275 137.474 211.178C137.337 211.128 137.213 211.053 137.102 210.951C137.463 210.589 137.7 210.397 138.033 210.919C138.074 210.985 137.931 211.221 137.973 211.307C138.132 211.626 138.458 211.881 138.68 212.141C138.772 211.782 138.558 210.882 139.067 210.915C139.474 210.941 139.784 212.04 139.643 212.382C139.805 212.185 140.771 211.989 140.953 212.051C141.468 212.225 141.324 212.756 141.958 211.977C142.39 212.31 142.009 212.437 142.087 212.842C142.201 212.869 142.31 212.837 142.412 212.748C142.335 214.472 143.476 213.155 144.217 213.418C144.508 213.522 144.582 213.89 144.894 213.997C145.059 214.054 145.243 213.92 145.403 213.952C145.532 213.932 145.66 213.907 145.787 213.877C145.948 213.787 146.023 213.887 146.014 214.178C146.272 214.328 146.175 214.387 146.477 214.416C146.672 214.435 146.851 214.208 147.073 214.247C147.455 214.314 147.405 214.641 147.649 214.812C147.868 214.966 148.116 214.961 148.387 214.931C148.525 214.916 148.912 214.718 148.959 214.717C149.248 214.713 149.091 214.644 149.438 214.921C149.708 215.137 149.822 215.277 150.154 215.377C150.534 215.49 151.209 215.739 151.465 215.433C151.811 216.011 152.082 215.586 152.538 215.625C152.772 215.644 152.809 215.746 153.017 215.786C153.354 215.852 153.774 215.795 154.133 215.923C154.697 216.126 154.761 216.228 155.338 216.255C155.443 216.21 155.547 216.164 155.651 216.119C155.682 216.312 155.764 216.471 155.896 216.593C156.219 216.669 156.431 216.487 156.698 216.288C156.896 216.977 157.54 217.038 158.091 217.128C158.979 217.275 159.829 217.354 160.686 217.68C161.41 217.955 162.135 218.264 162.831 218.617C163.444 218.927 164.022 219.39 164.715 219.173C166.286 218.679 167.808 216.881 169.122 215.848C170.679 214.625 172.357 213.617 173.983 212.518C180.458 208.14 187.297 204.437 193.681 199.896C197.166 197.417 200.4 194.472 204.142 192.466C203.61 194.922 202.703 197.416 202.867 199.987C202.932 201.023 203.206 202.247 203.926 202.971C204.817 203.865 205.809 203.296 206.661 202.657C208.486 201.288 209.703 199.29 211.069 197.414C212.685 195.195 213.938 192.811 215.125 190.282C215.409 190.727 215.193 191.473 215.197 191.967C215.203 192.596 215.355 193.203 215.617 193.766C216.293 195.217 217.579 195.568 218.741 194.574C220.978 192.661 222.276 189.253 223.474 186.509C224.157 187.928 225.128 189.713 226.769 188.7C228.123 187.864 228.919 185.996 229.333 184.414C230.543 179.796 230.16 175.091 230.346 170.357Z" fill="#2D4710"/>
<path fill-rule="evenodd" clip-rule="evenodd" d="M228.292 142.616C228.137 142.197 228.069 142.266 228.353 141.86C228.575 142.103 228.398 142.304 228.292 142.616ZM235.137 167.946C234.702 166.569 234.971 165.073 234.707 163.66C234.586 163.012 234.395 162.383 234.326 161.723C234.295 161.43 234.061 160.112 234.221 159.904C233.731 159.573 233.729 159.328 233.616 158.679C233.79 158.473 233.768 158.297 233.55 158.15C233.407 157.957 233.264 157.764 233.121 157.572C233.746 157.913 233.376 157.04 233.313 156.537C233.262 156.14 233.228 155.725 233.109 155.344C232.963 154.876 232.638 154.639 233.314 154.639C233.092 154.357 232.759 154.066 232.648 153.72C232.489 153.222 232.752 152.565 232.427 152.125C232.245 151.88 231.311 151.784 231.475 151.255C231.558 150.985 231.937 151.186 232.054 150.997C232.515 150.255 231.155 149.947 231.088 149.631C231.002 149.221 231.493 149.129 231.523 148.746C231.553 148.371 231.03 147.755 230.892 147.42C230.704 147.471 230.497 147.803 230.282 147.644C230.241 147.614 230.303 146.316 230.254 146.144C230.205 145.974 230.107 145.525 230.072 145.442C229.932 145.112 229.533 144.951 229.47 144.561C229.432 144.328 230.25 143.975 229.312 143.964C229.649 143.302 229.032 142.899 228.807 142.334C228.518 141.606 228.348 140.82 228.051 140.088C227.763 139.377 227.44 138.703 227.025 138.074C226.648 137.505 226.485 136.957 226.185 136.356C226.124 136.303 226.064 136.25 226.004 136.198C225.753 136.238 225.673 136.111 225.763 135.815C225.571 135.498 225.428 135.16 225.259 134.828C225.062 134.444 224.797 134.13 224.594 133.755C224.324 133.259 224.244 132.7 223.94 132.202C223.565 131.589 223.144 131.049 222.796 130.414C222.361 129.618 221.879 129.124 221.331 128.507C221.071 128.214 221.04 127.48 220.72 127.064C220.372 126.61 220.029 126.487 219.788 125.891C219.474 125.116 219.014 124.745 218.566 124.075C218.196 123.523 218.016 122.887 217.609 122.353C217.259 121.893 216.861 121.474 216.487 121.038C216.015 120.488 215.667 119.82 215.176 119.297C215.247 119.373 214.748 118.932 214.773 118.946C214.663 118.883 214.307 118.833 214.359 118.867C213.618 118.381 212.689 116.602 211.573 117.545C210.986 118.04 211.268 118.95 211.678 119.443C211.854 119.656 212.768 120.701 212.965 120.26C213.179 120.597 213.835 122.227 214.382 121.76C214.326 122.317 214.615 122.132 214.806 122.509C214.932 122.757 214.871 122.879 214.962 123.267C215.214 124.333 216.175 125.374 216.687 126.303C217.961 128.617 219.367 130.811 220.642 133.127C221.857 135.334 223.219 137.429 224.385 139.666C225.711 142.21 227.363 144.611 228.362 147.353C228.396 147.445 228.674 147.591 228.742 147.73C228.862 147.97 228.837 148.386 228.914 148.658C229.182 149.603 229.617 150.533 230.112 151.315C230.546 152.001 230.578 152.934 230.877 153.739C231.298 154.874 231.743 155.997 232.153 157.138C232.79 158.913 233.222 160.614 233.663 162.467C233.948 163.668 234.175 164.869 234.266 166.109C234.35 167.25 234.37 168.438 234.749 169.517C235.007 169.073 235.311 168.497 235.137 167.946Z" fill="#2D4710"/>
<path fill-rule="evenodd" clip-rule="evenodd" d="M89.3303 192.385C88.8722 192.282 88.4412 192.144 88.3441 191.558C88.2777 191.834 88.2114 192.111 88.1449 192.387C88.7026 192.528 89.2604 192.669 89.8181 192.81C89.6879 192.554 89.5928 192.444 89.3303 192.385Z" fill="#2D4710"/>
<path fill-rule="evenodd" clip-rule="evenodd" d="M90.5593 96.1038C90.594 95.9383 90.639 95.7761 90.6944 95.6179C90.7321 95.7722 90.9168 96.1058 90.8092 96.2512C90.6723 96.4358 90.5339 96.3313 90.5593 96.1038ZM92.8048 91.3379C92.9551 91.4118 93.2804 91.4261 93.467 91.4886C92.9829 91.9532 92.8977 91.8165 92.2718 91.7626C92.244 91.2926 92.4152 91.1467 92.8048 91.3379ZM88.6087 102.974C88.6736 102.976 88.7387 102.978 88.804 102.979C88.808 102.775 88.8032 102.57 88.7894 102.366C89.4495 102.527 89.0759 101.24 88.8685 100.974C89.5124 100.998 89.8261 98.7235 90.03 98.2854C90.2111 97.8963 90.4163 97.7458 90.5487 97.2714C90.6645 96.8561 90.7897 96.4825 90.9568 96.0897C91.3407 95.1866 91.8443 94.3665 91.7514 93.314C92.0767 94.1037 92.3627 93.3153 92.5691 92.9377C92.9014 92.3292 93.7124 91.5529 93.7986 90.8302C93.8748 90.1941 93.451 90.1604 93.7012 89.5704C93.9541 88.9732 94.162 89.0331 94.605 88.8421C94.8997 88.7149 94.9583 88.8694 95.1663 88.4543C95.301 88.1857 95.2534 87.9854 95.4261 87.7651C95.4973 87.8342 95.5783 87.8628 95.6691 87.851C95.8091 87.6448 95.9011 87.415 95.9447 87.1617C96.0589 86.8198 96.1141 86.5058 96.2861 86.1801C96.4493 85.8716 96.7389 85.0462 96.8923 84.8974C97.0553 84.7394 97.9795 84.8197 97.9755 84.8255C98.3572 84.2899 97.6567 83.7562 98.6267 83.8691C98.4351 83.4713 99.108 82.9775 99.3033 82.7561C99.7912 82.2035 99.83 81.9478 99.933 81.2529C99.9853 80.8986 99.644 80.9396 100.101 80.8588C100.291 80.8256 100.472 81.0954 100.609 81.0557C101.211 80.8815 100.581 80.9147 100.747 80.6407C100.8 80.5538 101.068 80.203 101.065 80.2068C101.052 80.2244 101.125 79.9016 101.186 79.8186C101.301 79.8076 101.415 79.7852 101.526 79.7513C101.583 79.6236 101.633 79.4929 101.676 79.3591C102.113 78.9534 102.765 78.7718 103.067 78.326C103.262 78.0377 103.203 77.7554 103.456 77.468C103.696 77.1943 104.013 77.3925 104.061 76.7742C104.121 75.9875 103.364 75.6374 103.054 76.4313C102.214 75.2767 98.7011 79.513 98.2953 80.0664C96.5327 82.4689 94.8003 84.9309 93.3546 87.5876C91.9459 90.1762 90.7897 92.9 89.886 95.7552C89.4503 97.1319 89.185 98.5024 88.9188 99.9263C88.8295 100.403 88.1617 102.528 88.4397 103.004C88.4959 102.994 88.5523 102.984 88.6087 102.974Z" fill="#2D4710"/>
<path fill-rule="evenodd" clip-rule="evenodd" d="M227.347 161.89C227.643 161.669 227.643 161.669 227.696 161.252C227.297 161.333 227.297 161.333 227.347 161.89Z" fill="#2D4710"/>
<path fill-rule="evenodd" clip-rule="evenodd" d="M81.0083 189.973C81.0123 189.973 81.0153 189.974 81.0176 189.976C81.0108 189.968 80.9864 189.944 81.0083 189.973Z" fill="#2D4710"/>
<path fill-rule="evenodd" clip-rule="evenodd" d="M80.8085 190.199C80.9002 190.42 81.0476 190.475 81.2508 190.363C81.3309 190.491 80.556 189.567 80.8085 190.199Z" fill="#2D4710"/>
<path fill-rule="evenodd" clip-rule="evenodd" d="M94.208 89.2617C93.743 90.2786 94.3254 89.539 94.2956 89.8693C94.3151 89.6523 94.3958 89.3431 94.208 89.2617Z" fill="#2D4710"/>
<path fill-rule="evenodd" clip-rule="evenodd" d="M169.798 105C170 106.823 172.236 105.961 172.739 104.858C173.105 104.055 174.03 100.882 173.035 100.212C172.297 99.7151 172.14 101.857 171.958 102.335C171.653 103.136 171.415 102.569 170.737 102.774C169.99 103.001 169.715 104.244 169.798 105Z" fill="#2D4710"/>
<path fill-rule="evenodd" clip-rule="evenodd" d="M167.355 101.662C168.155 101.861 168.938 101.758 169.506 101.054C169.82 100.664 170.239 99.8908 169.672 99.5135C169.159 99.1717 168.578 99.972 168.037 99.8066C167.303 99.5815 167.681 98.7026 167.429 98.1221C166.502 98.7171 165.986 101.323 167.355 101.662Z" fill="#2D4710"/>
<path fill-rule="evenodd" clip-rule="evenodd" d="M168.184 106.267C167.413 106.265 167.407 107.322 167.809 107.775C168.194 108.209 169.168 108.647 169.689 108.31C170.719 107.645 168.808 106.335 168.184 106.267Z" fill="#2D4710"/>
<path fill-rule="evenodd" clip-rule="evenodd" d="M123.352 148.305C123.516 148.394 124.001 148.852 124.205 148.645C123.917 148.321 123.628 147.997 123.34 147.673C123.181 147.868 123.071 148.153 123.352 148.305Z" fill="#2D4710"/>
<path fill-rule="evenodd" clip-rule="evenodd" d="M119.71 101.927C119.629 101.995 119.546 102.063 119.465 102.131C119.741 102.388 119.734 102.464 120.013 102.221C119.93 102.1 119.829 102.002 119.71 101.927Z" fill="#2D4710"/>
<path fill-rule="evenodd" clip-rule="evenodd" d="M171.932 162.422C171.777 162.112 171.485 162.684 171.287 162.777C170.965 162.929 170.701 162.128 170.793 163.088C170.066 162.716 169.624 163.569 169.155 164.013C168.492 164.64 167.681 164.981 167.238 165.872C169.32 166.415 171.607 164.413 173.16 163.098C173.413 162.883 174.679 161.8 173.821 161.695C173.47 161.653 172.193 162.944 171.932 162.422Z" fill="#2D4710"/>
<path fill-rule="evenodd" clip-rule="evenodd" d="M171.315 160.543C171.723 160.185 170.843 160.152 170.704 160.114C170.716 160.399 170.728 160.684 170.74 160.969C170.937 160.836 171.129 160.694 171.315 160.543Z" fill="#2D4710"/>
<path fill-rule="evenodd" clip-rule="evenodd" d="M169.783 161.737C169.905 161.652 170.245 161.387 170.014 161.189C169.805 161.338 169.655 161.58 169.623 161.856C169.676 161.816 169.73 161.777 169.783 161.737Z" fill="#2D4710"/>
<path fill-rule="evenodd" clip-rule="evenodd" d="M136.068 138.63C135.807 138.744 135.691 138.924 135.718 139.171C136.118 139.08 136.042 138.658 136.068 138.63Z" fill="#2D4710"/>
<defs>
<filter id="filter0_d_609_3478" x="0" y="0" width="328" height="437" filterUnits="userSpaceOnUse" color-interpolation-filters="sRGB">
<feFlood flood-opacity="0" result="BackgroundImageFix"/>
<feColorMatrix in="SourceAlpha" type="matrix" values="0 0 0 0 0 0 0 0 0 0 0 0 0 0 0 0 0 0 127 0" result="hardAlpha"/>
<feOffset dx="4" dy="4"/>
<feGaussianBlur stdDeviation="2"/>
<feComposite in2="hardAlpha" operator="out"/>
<feColorMatrix type="matrix" values="0 0 0 0 0.482353 0 0 0 0 0.380392 0 0 0 0 1 0 0 0 0.25 0"/>
<feBlend mode="normal" in2="BackgroundImageFix" result="effect1_dropShadow_609_3478"/>
<feBlend mode="normal" in="SourceGraphic" in2="effect1_dropShadow_609_3478" result="shape"/>
</filter>
<linearGradient id="paint0_linear_609_3478" x1="0" y1="0" x2="719.868" y2="811.885" gradientUnits="userSpaceOnUse">
<stop stop-color="#ACFFAD"/>
<stop offset="1" stop-color="#4D7520" stop-opacity="0.35"/>
</linearGradient>
</defs>
</svg>
