<svg width="349" height="437" viewBox="0 0 349 437" fill="none" xmlns="http://www.w3.org/2000/svg">
<g filter="url(#filter0_d_609_3477)">
<rect width="341" height="429" rx="20" fill="url(#paint0_linear_609_3477)" fill-opacity="0.5" shape-rendering="crispEdges"/>
</g>
<path d="M0 284H341V409C341 420.046 332.046 429 321 429H20C8.95431 429 0 420.046 0 409V284Z" fill="#FAFFFA"/>
<path d="M62 354.62L58.34 343.8H59.82L62.74 352.8L65.54 343.8H67.04L63.48 354.62V360H62V354.62ZM70.1169 360.18C69.5302 360.18 69.0835 359.967 68.7769 359.54C68.4702 359.113 68.3169 358.507 68.3169 357.72V348.44H69.7969V357.4C69.7969 357.987 69.8835 358.407 70.0569 358.66C70.2435 358.9 70.5235 359.02 70.8969 359.02C71.2302 359.02 71.5702 358.92 71.9169 358.72C72.2769 358.507 72.6169 358.227 72.9369 357.88V348.44H74.3969V360H72.9369V358.72C72.5502 359.173 72.1169 359.533 71.6369 359.8C71.1569 360.053 70.6502 360.18 70.1169 360.18ZM76.6791 343.8H78.1391V354.08L81.9991 348.44H83.5391L80.6191 352.9L83.4191 360H81.9391L79.4991 353.72L78.1391 355.62V360H76.6791V343.8ZM92.8089 360.2C91.2889 360.2 90.2222 359.753 89.6089 358.86C89.0089 357.967 88.7089 356.727 88.7089 355.14V348.7C88.7089 347.073 89.0089 345.827 89.6089 344.96C90.2222 344.08 91.2889 343.64 92.8089 343.64C94.1956 343.64 95.1822 344.033 95.7689 344.82C96.3556 345.607 96.6489 346.747 96.6489 348.24V349.22H95.2089V348.28C95.2089 347.507 95.1489 346.88 95.0289 346.4C94.9089 345.907 94.6756 345.527 94.3289 345.26C93.9822 344.993 93.4822 344.86 92.8289 344.86C92.1222 344.86 91.5822 345.007 91.2089 345.3C90.8356 345.593 90.5822 346 90.4489 346.52C90.3156 347.027 90.2489 347.68 90.2489 348.48V355.38C90.2489 356.633 90.4356 357.547 90.8089 358.12C91.1956 358.693 91.8689 358.98 92.8289 358.98C93.7756 358.98 94.4089 358.693 94.7289 358.12C95.0489 357.533 95.2089 356.647 95.2089 355.46V354.4H96.6489V355.36C96.6489 356.907 96.3622 358.1 95.7889 358.94C95.2156 359.78 94.2222 360.2 92.8089 360.2ZM101.629 360.18C100.883 360.18 100.283 360.033 99.8294 359.74C99.376 359.447 99.0427 358.973 98.8294 358.32C98.616 357.667 98.5094 356.78 98.5094 355.66V352.74C98.5094 351.607 98.616 350.72 98.8294 350.08C99.056 349.427 99.396 348.96 99.8494 348.68C100.316 348.4 100.916 348.26 101.649 348.26C102.449 348.26 103.063 348.433 103.489 348.78C103.929 349.113 104.229 349.62 104.389 350.3C104.563 350.98 104.649 351.893 104.649 353.04V354.08H99.9694V356.1C99.9694 357.207 100.096 357.98 100.349 358.42C100.603 358.86 101.029 359.08 101.629 359.08C102.136 359.08 102.523 358.92 102.789 358.6C103.069 358.28 103.209 357.7 103.209 356.86V356.06H104.629V356.7C104.629 357.82 104.396 358.68 103.929 359.28C103.463 359.88 102.696 360.18 101.629 360.18ZM103.209 353.24V352.28C103.209 351.587 103.169 351.04 103.089 350.64C103.023 350.24 102.876 349.927 102.649 349.7C102.423 349.473 102.083 349.36 101.629 349.36C101.216 349.36 100.889 349.453 100.649 349.64C100.409 349.813 100.236 350.127 100.129 350.58C100.023 351.02 99.9694 351.647 99.9694 352.46V353.24H103.209ZM106.64 343.8H108.1V354.08L111.96 348.44H113.5L110.58 352.9L113.38 360H111.9L109.46 353.72L108.1 355.62V360H106.64V343.8ZM59.42 369.8H62.94C64.54 369.8 65.6733 370.213 66.34 371.04C67.0067 371.853 67.34 373.027 67.34 374.56V381C67.34 382.613 67.0133 383.853 66.36 384.72C65.72 385.573 64.6267 386 63.08 386H59.42V369.8ZM62.98 384.86C63.7933 384.86 64.4 384.693 64.8 384.36C65.2133 384.013 65.48 383.56 65.6 383C65.72 382.427 65.78 381.68 65.78 380.76V374.72C65.78 373.84 65.7067 373.14 65.56 372.62C65.4133 372.087 65.1333 371.68 64.72 371.4C64.3067 371.12 63.7067 370.98 62.92 370.98H60.94V384.86H62.98ZM72.4097 386.18C71.263 386.18 70.463 385.827 70.0097 385.12C69.5564 384.4 69.3297 383.3 69.3297 381.82V378.62C69.3297 377.14 69.5564 376.047 70.0097 375.34C70.463 374.62 71.263 374.26 72.4097 374.26C73.5697 374.26 74.3764 374.62 74.8297 375.34C75.283 376.047 75.5097 377.14 75.5097 378.62V381.82C75.5097 383.3 75.283 384.4 74.8297 385.12C74.3764 385.827 73.5697 386.18 72.4097 386.18ZM72.4097 385.08C72.8897 385.08 73.243 384.953 73.4697 384.7C73.7097 384.447 73.863 384.107 73.9297 383.68C73.9964 383.24 74.0297 382.647 74.0297 381.9V378.54C74.0297 377.793 73.9964 377.207 73.9297 376.78C73.863 376.34 73.7097 375.993 73.4697 375.74C73.243 375.487 72.8897 375.36 72.4097 375.36C71.9297 375.36 71.5764 375.487 71.3497 375.74C71.123 375.993 70.9764 376.34 70.9097 376.78C70.843 377.207 70.8097 377.793 70.8097 378.54V381.9C70.8097 382.647 70.843 383.24 70.9097 383.68C70.9764 384.107 71.123 384.447 71.3497 384.7C71.5764 384.953 71.9297 385.08 72.4097 385.08ZM77.538 374.44H78.998V375.64C79.3846 375.213 79.8113 374.88 80.278 374.64C80.758 374.387 81.258 374.26 81.778 374.26C82.3513 374.26 82.7913 374.473 83.098 374.9C83.4046 375.327 83.558 375.933 83.558 376.72V386H82.098V377.04C82.098 376.453 82.0046 376.033 81.818 375.78C81.6446 375.527 81.3713 375.4 80.998 375.4C80.678 375.4 80.3446 375.5 79.998 375.7C79.6513 375.887 79.318 376.147 78.998 376.48V386H77.538V374.44ZM87.7216 386.18C87.0282 386.18 86.4682 385.933 86.0416 385.44C85.6149 384.947 85.4016 384.333 85.4016 383.6C85.4016 382.84 85.5482 382.213 85.8416 381.72C86.1482 381.227 86.6149 380.787 87.2416 380.4C87.8682 380.013 88.8082 379.54 90.0616 378.98V378.16C90.0616 377.44 90.0149 376.88 89.9216 376.48C89.8416 376.08 89.6949 375.793 89.4816 375.62C89.2816 375.447 88.9949 375.36 88.6216 375.36C87.5416 375.36 87.0016 376.02 87.0016 377.34V377.74L85.5616 377.72C85.5749 376.533 85.8282 375.66 86.3216 375.1C86.8149 374.54 87.6082 374.26 88.7016 374.26C89.7149 374.26 90.4349 374.567 90.8616 375.18C91.3016 375.793 91.5216 376.76 91.5216 378.08V383.7C91.5216 384.073 91.5282 384.5 91.5416 384.98C91.5682 385.46 91.5949 385.8 91.6216 386H90.3216L90.1016 384.4C89.9282 384.907 89.6282 385.333 89.2016 385.68C88.7882 386.013 88.2949 386.18 87.7216 386.18ZM88.1816 384.94C88.5816 384.94 88.9416 384.807 89.2616 384.54C89.5949 384.26 89.8616 383.933 90.0616 383.56V379.96C89.1549 380.44 88.4949 380.813 88.0816 381.08C87.6816 381.347 87.3749 381.647 87.1616 381.98C86.9616 382.3 86.8616 382.72 86.8616 383.24C86.8616 383.813 86.9816 384.24 87.2216 384.52C87.4749 384.8 87.7949 384.94 88.1816 384.94ZM96.3108 386.18C95.4041 386.18 94.6708 385.887 94.1108 385.3C93.5641 384.713 93.2508 383.913 93.1708 382.9L94.3908 382.52C94.4708 383.4 94.6774 384.047 95.0108 384.46C95.3441 384.873 95.8108 385.08 96.4108 385.08C96.9174 385.08 97.3041 384.94 97.5708 384.66C97.8508 384.367 97.9908 383.96 97.9908 383.44C97.9908 382.68 97.5241 381.907 96.5908 381.12L95.0108 379.76C94.4641 379.307 94.0641 378.86 93.8108 378.42C93.5574 377.98 93.4308 377.46 93.4308 376.86C93.4308 376.047 93.6774 375.413 94.1708 374.96C94.6774 374.493 95.3508 374.26 96.1908 374.26C97.0441 374.26 97.6974 374.533 98.1508 375.08C98.6174 375.627 98.8774 376.367 98.9308 377.3L97.8908 377.64C97.8108 376.12 97.2641 375.36 96.2508 375.36C95.7974 375.36 95.4374 375.487 95.1708 375.74C94.9041 375.98 94.7708 376.32 94.7708 376.76C94.7708 377.12 94.8374 377.433 94.9708 377.7C95.1041 377.967 95.3508 378.26 95.7108 378.58L97.3508 380.04C97.9774 380.6 98.4508 381.127 98.7708 381.62C99.1041 382.1 99.2708 382.693 99.2708 383.4C99.2708 384.28 99.0041 384.967 98.4708 385.46C97.9374 385.94 97.2174 386.18 96.3108 386.18ZM101.096 370.86H102.556V372.84H101.096V370.86ZM101.096 374.44H102.556V386H101.096V374.44ZM109.66 369.8H111.18L114.38 383.86L117.64 369.8H119.16L119.56 386H118.3L117.98 373.1L114.88 386H113.9L110.84 373.12L110.52 386H109.26L109.66 369.8ZM123.952 386.18C123.259 386.18 122.699 385.933 122.272 385.44C121.845 384.947 121.632 384.333 121.632 383.6C121.632 382.84 121.779 382.213 122.072 381.72C122.379 381.227 122.845 380.787 123.472 380.4C124.099 380.013 125.039 379.54 126.292 378.98V378.16C126.292 377.44 126.245 376.88 126.152 376.48C126.072 376.08 125.925 375.793 125.712 375.62C125.512 375.447 125.225 375.36 124.852 375.36C123.772 375.36 123.232 376.02 123.232 377.34V377.74L121.792 377.72C121.805 376.533 122.059 375.66 122.552 375.1C123.045 374.54 123.839 374.26 124.932 374.26C125.945 374.26 126.665 374.567 127.092 375.18C127.532 375.793 127.752 376.76 127.752 378.08V383.7C127.752 384.073 127.759 384.5 127.772 384.98C127.799 385.46 127.825 385.8 127.852 386H126.552L126.332 384.4C126.159 384.907 125.859 385.333 125.432 385.68C125.019 386.013 124.525 386.18 123.952 386.18ZM124.412 384.94C124.812 384.94 125.172 384.807 125.492 384.54C125.825 384.26 126.092 383.933 126.292 383.56V379.96C125.385 380.44 124.725 380.813 124.312 381.08C123.912 381.347 123.605 381.647 123.392 381.98C123.192 382.3 123.092 382.72 123.092 383.24C123.092 383.813 123.212 384.24 123.452 384.52C123.705 384.8 124.025 384.94 124.412 384.94ZM132.541 386.18C131.635 386.18 130.901 385.887 130.341 385.3C129.795 384.713 129.481 383.913 129.401 382.9L130.621 382.52C130.701 383.4 130.908 384.047 131.241 384.46C131.575 384.873 132.041 385.08 132.641 385.08C133.148 385.08 133.535 384.94 133.801 384.66C134.081 384.367 134.221 383.96 134.221 383.44C134.221 382.68 133.755 381.907 132.821 381.12L131.241 379.76C130.695 379.307 130.295 378.86 130.041 378.42C129.788 377.98 129.661 377.46 129.661 376.86C129.661 376.047 129.908 375.413 130.401 374.96C130.908 374.493 131.581 374.26 132.421 374.26C133.275 374.26 133.928 374.533 134.381 375.08C134.848 375.627 135.108 376.367 135.161 377.3L134.121 377.64C134.041 376.12 133.495 375.36 132.481 375.36C132.028 375.36 131.668 375.487 131.401 375.74C131.135 375.98 131.001 376.32 131.001 376.76C131.001 377.12 131.068 377.433 131.201 377.7C131.335 377.967 131.581 378.26 131.941 378.58L133.581 380.04C134.208 380.6 134.681 381.127 135.001 381.62C135.335 382.1 135.501 382.693 135.501 383.4C135.501 384.28 135.235 384.967 134.701 385.46C134.168 385.94 133.448 386.18 132.541 386.18ZM138.867 386.18C138.28 386.18 137.834 385.967 137.527 385.54C137.22 385.113 137.067 384.507 137.067 383.72V374.44H138.547V383.4C138.547 383.987 138.634 384.407 138.807 384.66C138.994 384.9 139.274 385.02 139.647 385.02C139.98 385.02 140.32 384.92 140.667 384.72C141.027 384.507 141.367 384.227 141.687 383.88V374.44H143.147V386H141.687V384.72C141.3 385.173 140.867 385.533 140.387 385.8C139.907 386.053 139.4 386.18 138.867 386.18ZM145.429 369.8H146.889V380.08L150.749 374.44H152.289L149.369 378.9L152.169 386H150.689L148.249 379.72L146.889 381.62V386H145.429V369.8Z" fill="#273E0E"/>
<path fill-rule="evenodd" clip-rule="evenodd" d="M152.94 129.192C151.204 130.985 151.684 134.131 152.372 136.384C153.386 139.702 155.19 142.689 157.195 145.219C160.753 149.708 166.629 154.564 171.5 149.842C175.837 145.637 178.263 137.77 178.876 131.283C179.066 129.278 179.3 126.295 177.77 124.952C175.508 122.966 171.771 123.732 169.215 124.266C167.531 124.618 165.933 125.409 164.241 125.276C160.309 124.967 156.015 126.015 152.94 129.192Z" fill="#4D7520"/>
<path fill-rule="evenodd" clip-rule="evenodd" d="M233.328 146.646C229.958 152.729 223.704 154.249 218.099 154.74C214.733 155.035 211.344 155.057 207.997 154.546C206.192 154.27 204.391 153.848 202.63 153.301C201.468 152.939 199.764 152.868 199.194 151.437C197.688 147.662 198.335 142.681 198.625 138.672C198.772 136.633 198.852 134.588 198.992 132.548C199.081 131.242 199.076 129.808 199.449 128.559C199.886 127.095 200.56 127.313 201.683 127.596C203.232 127.986 204.802 128.058 206.378 128.194C210.225 128.529 213.629 129.629 217.207 131.309C220.745 132.971 224.178 134.617 227.393 137.094C229.022 138.349 230.444 139.745 231.791 141.417C232.831 142.708 234.39 144.73 233.328 146.646ZM218.62 173.638C218.626 174.257 212.701 172.966 211.924 172.832C206.822 171.954 201.61 170.895 196.723 168.886C192.162 167.01 188.107 164.75 184.383 160.989C182.646 159.236 181.067 157.365 179.543 155.358C178.78 154.352 177.831 154.57 176.996 153.737C176.245 152.988 175.669 152.402 175.816 151.157C177.604 151.547 181.053 154.763 182.766 152.802C183.742 151.684 182.241 150.762 181.543 150.238C180.229 149.252 179.081 147.99 178.004 146.652C179.731 146.887 181.362 147.507 182.908 148.442C183.595 148.857 185.956 150.375 186.383 148.666C186.645 147.614 185.039 146.482 184.528 145.964C183.274 144.693 181.913 143.198 181.18 141.396C182.693 140.812 184.228 142.115 185.346 143.19C186.586 144.383 188.093 145.615 189.157 147.025C189.706 147.752 189.87 148.659 190.312 149.458C190.811 150.357 191.566 151.096 192.283 151.727C193.665 152.943 195.247 153.784 196.859 154.449C200.542 155.97 204.45 156.918 208.312 157.475C210.208 157.747 212.042 157.779 213.943 157.671C215.42 157.587 216.104 158.059 216.764 159.654C218.552 163.971 218.567 168.911 218.62 173.638ZM172.872 143.885C172.077 144.938 171.006 145.654 170.171 146.672C169.436 147.568 168.584 148.531 167.749 149.28C166.857 150.078 166.13 149.651 165.252 149.092C164.22 148.438 163.068 148.244 162.011 147.672C158.359 145.69 153.721 140.413 154.066 135.118C154.213 132.874 155.026 130.6 156.679 129.427C158.18 128.362 160.41 127.634 162.12 128.235C163.084 128.574 163.812 129.459 164.468 130.335C165.234 131.357 165.493 131.159 166.144 130.038C167.31 128.033 169.32 126.177 171.405 126.013C172.441 125.932 173.486 126.097 174.449 126.528C174.58 126.586 174.663 126.794 174.794 126.854C174.955 126.928 175.2 126.718 175.313 126.79C175.599 126.974 175.91 127.604 176.087 127.921C176.799 129.196 178.092 131.705 177.012 132.943C177.012 132.943 177.154 134.46 177.148 134.635C177.121 135.551 176.908 136.326 176.624 137.189C175.773 139.781 174.413 141.845 172.872 143.885ZM175.824 164.825C175.035 165.209 173.983 162.219 174.728 161.653C175.438 161.113 176.538 164.478 175.824 164.825ZM162.929 162.388C162.719 163.576 162.679 164.906 162.052 165.918C161.372 165.076 161.212 163.417 161.763 162.429C162.079 161.866 163.16 161.089 162.929 162.388ZM187.548 139.517C187.546 139.547 188.555 140.018 188.116 140.685C187.516 141.596 187.507 139.938 187.548 139.517ZM191.018 129.658C191.077 130.833 189.015 130.75 188.959 129.567C188.891 128.112 190.956 128.412 191.018 129.658ZM187.994 120.083C188.133 118.988 191.601 117.145 191.616 119.028C191.623 119.972 187.701 122.41 187.994 120.083ZM153.692 160.105C153.328 160.726 152.776 161.011 152.324 161.505C151.851 162.023 151.529 162.666 151.124 163.259C150.011 164.888 148.638 166.27 147.423 167.785C145.19 170.569 143.069 173.535 140.554 175.957C136.059 180.285 130.706 182.935 125.377 185.318C124.936 185.515 123.675 186.261 123.202 185.844C122.691 185.393 122.832 183.62 122.815 182.956C122.744 180.234 122.841 177.463 122.652 174.757C122.574 173.646 122.212 172.09 122.63 171.026C123.095 169.836 124.565 169.358 125.46 168.84C128.182 167.266 130.749 164.809 133.101 162.535C135.993 159.74 138.912 156.901 141.902 154.263C144.831 151.679 148.121 149.82 151.462 148.181C151.644 148.57 150.091 150.031 149.915 150.232C149.072 151.194 148.153 152.197 147.558 153.417C147.136 154.281 146.764 156.179 148.065 156.099C148.696 156.061 149.582 155.23 150.138 154.935C151.057 154.448 152.011 154.075 152.986 153.799C152.206 155.016 149.455 157.333 150.09 159.168C150.705 160.949 153.511 158.527 154.521 158.428C154.393 159.082 154.004 159.573 153.692 160.105ZM119.348 168.599C117.518 169.585 115.62 170.23 113.712 170.937C111.894 171.612 110.208 172.151 108.298 172.047C105.662 171.903 102.692 170.87 102.147 167.293C101.5 163.056 103.751 158.884 105.702 155.608C108.077 151.622 110.794 148 113.774 144.67C116.751 141.343 119.999 138.349 123.435 135.754C126.048 133.78 129.053 132.442 131.847 130.879C132.379 130.582 133.839 129.577 134.392 130.237C134.839 130.772 134.334 131.784 134.177 132.336C133.872 133.412 133.884 134.464 133.855 135.59C133.728 140.618 133.515 145.654 133.578 150.685C133.595 152.088 133.567 153.559 133.717 154.949C133.8 155.719 134.19 156.673 134.014 157.449C133.676 158.943 131.791 160.094 130.801 160.843C129.027 162.184 127.128 163.241 125.333 164.534C123.361 165.953 121.449 167.466 119.348 168.599ZM143.472 133.648C143.982 133.512 144.744 133.265 145.228 133.626C145.859 134.097 145.745 134.849 145.215 135.287C144.795 135.633 143.777 135.816 143.329 135.583C142.565 135.186 142.613 133.878 143.472 133.648ZM147.013 144.917C146.646 145.801 145.156 146.503 145.196 144.916C145.229 143.558 147.688 143.289 147.013 144.917ZM145.037 121.213C145.725 121.463 146.956 121.614 147.217 122.642C147.46 123.599 146.696 123.608 146.132 123.394C145.668 123.218 143.536 121.343 145.037 121.213ZM252.173 148.139C251.672 146.327 251.849 144.249 251.52 142.375C251.202 140.559 250.725 138.908 250.081 137.229C248.656 133.513 247.08 130.197 244.94 127.023C240.909 121.046 236.337 115.881 230.942 111.755C225.615 107.681 219.797 104.516 213.713 102.494C207.261 100.35 200.875 100.008 194.213 100.127C192.223 100.163 190.234 100.169 188.247 100.057C186.794 99.9759 184.974 99.8785 183.583 100.553C182.709 100.977 182.266 101.974 183.277 102.5C183.993 102.874 184.9 102.838 185.67 102.881C184.96 106.528 183.673 110.243 181.444 112.924C179.267 115.542 176.213 116.665 173.322 117.557C171.755 118.041 169.993 118.469 168.373 118.485C167.349 118.495 166.52 117.999 166.185 119.315C165.952 120.229 165.875 121.214 165.42 119.913C164.881 118.375 164.663 118.406 163.253 118.092C160.368 117.45 157.075 116.928 154.488 115.182C151.804 113.371 150.716 110.123 149.101 107.157C148.702 106.424 147.543 104.975 148.036 104.042C148.487 103.189 150.112 103.111 150.85 102.954C151.628 102.789 152.415 102.708 153.199 102.594C153.653 102.529 154.582 102.666 154.35 101.857C154 100.638 151.048 101.087 150.312 101.139C148.942 101.235 147.559 101.409 146.209 101.725C139.518 103.291 132.811 105.633 126.417 108.506C114.01 114.081 102.22 123.272 93.6613 135.69C85.4461 147.61 83.7277 166.277 90.0195 179.857C93.2893 186.914 99.6192 189.326 105.726 191.177C108.948 192.153 112.337 192.832 115.666 192.263C117.264 191.99 118.755 191.316 120.296 190.767C120.968 190.528 121.728 190.177 122.433 190.178C122.967 190.179 123.512 190.721 123.991 190.358C124.331 190.1 124.447 189.444 124.862 189.129C125.361 188.751 125.982 188.571 126.532 188.351C128.061 187.739 129.523 186.847 131.008 186.088C132.543 185.302 133.979 184.344 135.439 183.374C136.176 182.884 137.839 181.023 138.409 182.209C138.669 182.75 138.637 183.847 138.727 184.432C138.885 185.457 139.06 186.477 139.245 187.494C139.653 189.734 140.114 191.958 140.583 194.18C141.43 198.188 142.441 202.005 143.972 205.703C145.195 208.656 146.315 212.029 148.392 214.27C149.299 215.248 150.479 215.613 151.67 215.161C153.025 214.647 153.62 213.06 154.383 211.749C156.062 208.864 158.975 206.495 161.735 205.474C165.114 204.225 168.538 205.235 171.883 206.05C175.421 206.913 179.018 207.713 182.507 208.825C185.757 209.861 189.299 211.515 192.728 211.006C195.718 210.562 198.343 207.321 200.371 204.849C202.408 202.365 204.927 198.775 208.066 198.737C209.625 198.718 211.092 199.489 212.625 199.712C214.307 199.955 216.075 199.841 217.771 199.827C219.875 199.81 224.519 198.689 225.112 195.552C225.2 195.087 225.145 194.152 224.641 194.018C224.177 193.896 223.984 194.563 223.552 194.576C222.674 194.601 221.88 192.814 221.357 192.143C219.245 189.435 216.457 187.534 214.125 185.129C211.492 182.414 209.181 179.038 207.12 175.687C207.941 175.341 208.871 175.692 209.693 175.821C210.693 175.979 211.67 176.191 212.66 176.421C213.75 176.674 214.849 176.814 215.95 176.981C216.772 177.105 217.85 177.061 218.61 177.484C219.274 177.852 219.658 178.28 220.457 178.328C221.27 178.376 222.09 178.189 222.899 178.103C225.087 177.871 227.268 177.608 229.429 177.114C237.066 175.368 244.99 170.614 249.152 162.309C250.283 160.05 251.157 157.584 251.649 155.011C252.032 153.002 252.731 150.155 252.173 148.139Z" fill="#2D4710"/>
<path fill-rule="evenodd" clip-rule="evenodd" d="M174.614 64.7121C176.638 64.5493 178.577 65.093 180.511 65.7376C182.212 66.3044 184.019 66.806 185.445 68.1295C188.011 70.5105 188.896 74.7815 189.511 78.4495C190.277 83.0266 188.87 87.0672 187.741 91.3863C186.684 95.4258 184.507 98.8273 181.839 101.518C180.441 102.927 178.858 103.85 177.194 104.687C175.504 105.536 173.883 106.611 172.031 106.788C169.219 107.058 165.524 105.787 164.126 102.537C163.49 101.058 164.005 100.73 165.145 101.457C166.8 102.511 168.403 103.666 170.284 104.022C173.933 104.711 178.134 102.68 181.153 100.246C184.171 97.8137 186.092 94.4144 187.267 90.3006C188.452 86.1505 188.77 82.144 187.964 77.8735C187.282 74.2544 186.158 70.9976 183.323 69.2738C177.203 65.5531 169.321 66.6712 164.437 72.761C163.767 73.5959 163.104 74.4094 162.411 75.2118C161.97 75.7219 161.451 76.3329 161.567 77.1292C161.666 77.811 163.029 80.3442 161.529 79.6718C160.312 79.1266 159.596 77.8984 158.16 77.878C156.632 77.8561 154.905 79.4505 154.557 81.2788C154.225 83.0233 155.136 85.2767 156.403 86.1349C157.189 86.6663 158.007 86.4923 158.857 86.3849C159.278 86.3314 160.444 86.0498 160.755 86.5651C161.307 87.4763 159.622 88.6553 159.072 88.9226C157.733 89.5729 156.078 89.1233 155.203 87.714C154.312 86.2815 153.661 84.5864 153.444 82.7973C153.236 81.083 153.454 79.3056 154.207 77.8078C155.008 76.2149 156.722 74.3493 158.38 74.7135C159.1 74.8715 159.72 75.7029 160.423 75.8036C160.867 75.867 160.687 75.961 161.026 75.5315C161.241 75.2591 161.431 74.7764 161.626 74.4593C162.746 72.6361 163.845 70.6996 165.258 69.1898C167.793 66.4826 171.286 64.9795 174.614 64.7121ZM169.21 99.2186C169.473 98.2846 170.151 99.8386 170.339 100.091C170.711 100.591 171.537 100.927 171.549 101.716C171.569 103.019 170.1 102.921 169.575 102.291C168.977 101.575 168.95 100.141 169.21 99.2186ZM179.181 92.0656C180.054 93.4756 179.193 95.174 178.651 96.5505C178.132 97.8666 177.665 99.3427 177.045 100.593C176.015 102.669 173.394 100.788 173.2 98.7771C173.052 97.2376 173.992 97.8222 174.604 98.3428C175.234 98.879 175.525 98.9994 176.11 98.2894C177.287 96.8603 177.721 94.6207 178.49 92.8819C178.642 92.5371 178.942 92.3095 179.181 92.0656ZM181.447 92.325C181.692 93.0242 181.381 94.9708 182.55 94.665C183.196 94.4961 183.267 93.345 183.581 92.815C184.635 91.0333 184.469 94.2245 184.214 95.0441C183.653 96.8503 181.866 98.2317 180.813 96.1127C180.421 95.3244 180.361 94.2871 180.483 93.3867C180.549 92.8964 180.995 91.0338 181.447 92.325ZM170.719 89.9484C170.665 90.7975 170.115 92.5322 170.943 93.055C171.671 93.5151 172.817 92.2494 173.325 91.7179C173.853 91.1657 175.032 89.6143 175.187 91.3864C175.266 92.2897 174.585 93.4493 174.083 94.0232C173.014 95.247 170.713 96.4758 169.752 94.4629C169.228 93.3665 169.381 91.7177 169.615 90.5384C169.804 89.5826 170.851 87.8974 170.719 89.9484ZM185.342 83.9C185.842 84.5072 187.025 85.8617 186.484 86.8489C185.852 88.0028 184.603 86.121 184.124 85.6101C183.692 85.1499 182.762 83.8101 183.078 83.0203C183.6 81.7135 184.902 83.3669 185.342 83.9ZM177.911 81.8009C179.492 82.8495 177.557 83.905 176.703 84.0961C175.67 84.327 174.343 84.5427 173.35 84.0151C171.942 83.2671 172.315 81.8931 173.61 81.4463C174.938 80.9884 176.683 80.987 177.911 81.8009ZM158.046 79.912C159.172 80.0662 160.462 80.2841 160.927 81.7192C161.408 83.2025 160.877 83.7622 159.722 83.5306C158.653 83.3162 157.066 83.1504 156.399 81.962C155.601 80.542 157.001 79.7693 158.046 79.912Z" fill="#2D4710"/>
<path fill-rule="evenodd" clip-rule="evenodd" d="M98.8618 118.576C98.5759 120.076 96.7466 121.231 95.8585 122.213C92.752 125.647 89.7283 129.201 86.9638 133.044C85.5289 135.038 84.4923 137.383 83.2748 139.564C82.9778 140.096 82.4654 141.274 81.8183 141.231C81.1083 141.185 80.8788 139.727 80.863 139.082C80.8096 136.882 82.3311 134.604 83.4161 132.979C84.6367 131.153 85.9512 129.361 87.3022 127.674C88.7897 125.818 90.4266 124.187 92.0982 122.583C93.7397 121.009 95.2971 119.223 97.0154 117.774C97.8248 117.091 99.2144 116.726 98.8618 118.576ZM213.085 93.4366C214.461 93.355 215.835 93.7717 217.16 94.1536C220.077 94.9938 222.883 96.2803 225.656 97.6407C230.518 100.025 235.238 103.024 239.609 106.53C240.523 107.263 241.45 107.839 242.43 108.415C243.058 108.785 243.947 109.223 244.231 110.073C244.952 112.234 241.845 110.298 241.404 110.021L240.784 109.631C231.583 103.857 222.403 98.2702 212.215 95.4388C211.672 95.2879 211.473 94.7287 211.717 94.1311C211.982 93.4835 212.573 93.467 213.085 93.4366ZM97.9114 109.36C97.8878 110.042 97.2676 110.257 96.856 110.515C95.3201 111.479 93.7377 112.327 92.207 113.304C89.366 115.116 86.8052 117.593 83.8139 119.05C83.1304 119.383 82.9763 118.535 83.1288 117.933C83.2987 117.262 83.8978 116.743 84.3283 116.322C85.5703 115.106 87.0058 114.179 88.4119 113.282C89.8059 112.391 91.2534 111.679 92.691 110.907C94.0271 110.188 95.5535 108.946 97.0208 108.721L97.0849 108.711C97.5517 108.637 97.9385 108.56 97.9114 109.36ZM215.251 87.5743C213.822 87.2323 215.082 86.0252 215.919 86.0196C216.852 86.0135 217.781 86.4586 218.681 86.694C221.432 87.4135 223.991 88.2443 226.597 89.5237C226.986 89.7148 228.702 90.6328 227.638 91.2176C226.9 91.6228 225.046 90.3748 224.375 90.0975C221.428 88.8787 218.305 88.3048 215.251 87.5743Z" fill="#2D4710"/>
<path fill-rule="evenodd" clip-rule="evenodd" d="M159.625 96.5191C159.763 95.8777 161.523 88.8408 160.663 88.7178C159.752 88.5873 158.787 92.6645 158.57 93.4054C157.765 96.1418 157.364 99.0326 157.086 101.911C156.892 103.914 156.739 105.963 156.968 107.97C157.143 109.512 157.684 109.696 158.609 110.561C158.329 105.851 158.639 101.099 159.625 96.5191Z" fill="#2D4710"/>
<defs>
<filter id="filter0_d_609_3477" x="0" y="0" width="349" height="437" filterUnits="userSpaceOnUse" color-interpolation-filters="sRGB">
<feFlood flood-opacity="0" result="BackgroundImageFix"/>
<feColorMatrix in="SourceAlpha" type="matrix" values="0 0 0 0 0 0 0 0 0 0 0 0 0 0 0 0 0 0 127 0" result="hardAlpha"/>
<feOffset dx="4" dy="4"/>
<feGaussianBlur stdDeviation="2"/>
<feComposite in2="hardAlpha" operator="out"/>
<feColorMatrix type="matrix" values="0 0 0 0 0.482353 0 0 0 0 0.380392 0 0 0 0 1 0 0 0 0.25 0"/>
<feBlend mode="normal" in2="BackgroundImageFix" result="effect1_dropShadow_609_3477"/>
<feBlend mode="normal" in="SourceGraphic" in2="effect1_dropShadow_609_3477" result="shape"/>
</filter>
<linearGradient id="paint0_linear_609_3477" x1="0" y1="0" x2="712.999" y2="856.909" gradientUnits="userSpaceOnUse">
<stop stop-color="#ACFFAD"/>
<stop offset="1" stop-color="#4D7520" stop-opacity="0.35"/>
</linearGradient>
</defs>
</svg>
