<svg width="16" height="16" viewBox="0 0 16 16" fill="none" xmlns="http://www.w3.org/2000/svg">
<g clip-path="url(#clip0_556_3147)">
<path d="M12.4092 6.5173C11.5523 6.5173 11.0761 7.15246 10.9762 7.84105H13.8576C13.7794 7.18434 13.3153 6.51965 12.4097 6.51965L12.4092 6.5173ZM10.9978 8.78137C11.1445 9.50371 11.7426 10.0114 12.5803 10.0114C13.0317 10.0114 13.6861 9.84309 14.069 9.43996L14.804 10.2851C14.1403 10.9784 13.1465 11.1762 12.4678 11.1762C10.8173 11.1762 9.53107 9.98418 9.53107 8.2948C9.53107 6.71277 10.7147 5.40918 12.3872 5.40918C14.0034 5.40918 15.1997 6.64668 15.1997 8.28543V8.76355H10.9978V8.78137ZM6.94264 11.1739V7.61652C6.94264 7.00902 6.67123 6.65699 6.10498 6.65699C5.59732 6.65699 5.26076 7.02309 5.03295 7.28699V11.1856H3.56342V7.62355C3.56342 7.01277 3.30467 6.66684 2.74029 6.66684C2.23264 6.66684 1.88107 7.03293 1.66639 7.29684V11.1954H0.19873V5.49215H1.66873V6.2098C1.91764 5.92152 2.48107 5.42371 3.36045 5.42371C4.14186 5.42371 4.67107 5.75137 4.90779 6.41746C5.23732 5.94168 5.84529 5.42371 6.72654 5.42371C7.79107 5.42371 8.40889 6.05371 8.40889 7.27434V11.1762H6.93889L6.94123 11.1711L6.94264 11.1739Z" fill="#FDFDFC"/>
</g>
<defs>
<clipPath id="clip0_556_3147">
<rect width="15" height="15" fill="white" transform="translate(0.199951 0.800049)"/>
</clipPath>
</defs>
</svg>
