<svg width="515" height="484" viewBox="0 0 515 484" fill="none" xmlns="http://www.w3.org/2000/svg">
<g clip-path="url(#clip0_307_3838)">
<path fill-rule="evenodd" clip-rule="evenodd" d="M157.903 299.89C159.145 297.825 160.878 291.445 162.337 289.574C165.581 285.416 182.437 273.323 182.934 272.795C183.692 271.99 189.129 268.137 192.267 265.814C199.636 260.357 223.495 233.99 229.824 227.15C231.962 229.833 245.223 240.247 244.33 242.156C241.39 248.442 235.19 257.219 231.033 262.491C227.671 266.754 223.882 270.659 219.898 274.179C215.376 278.177 212.564 281.701 208.077 285.738C203.663 289.71 212.23 293.767 215.38 294.089C218.914 294.45 223.812 293.473 227.337 293.613C225.61 305.343 225.518 318.829 228.973 330.814C229.804 333.698 228.933 336.953 225.639 337.228C223.94 337.37 208.928 340.471 206.384 340.721C189.404 342.387 153.635 331.241 152.525 306.511C154.49 306.78 156.835 301.667 157.903 299.89Z" fill="#4D7520"/>
<path fill-rule="evenodd" clip-rule="evenodd" d="M122.777 179.615C123.889 179.07 125.866 175.267 123.793 174.492C121.701 173.711 122.285 178.732 122.777 179.615ZM66.5318 212.399C66.8102 212.224 65.9587 210.348 65.3919 210.28C63.603 210.064 64.5671 213.028 64.8224 213.823C65.1452 214.825 66.077 217.639 67.6147 216.197C68.4878 215.378 66.9047 213.101 66.5318 212.399ZM158.371 188.308C158.973 190.042 163.185 192.233 163.553 189.836C163.864 187.822 157.169 184.859 158.371 188.308ZM38.6565 188.9C40.4782 191.144 43.4351 186.052 42.8899 184.111C41.7741 180.135 37.6531 186.353 38.6565 188.9ZM78.3718 186.658C80.2866 185.725 81.7986 181.803 83.3022 179.987C84.3199 178.758 87.5143 176.552 87.2658 174.718C87.0504 173.124 82.2428 178.506 81.8363 178.976C79.9688 181.136 78.3991 183.39 78.3718 186.658ZM219.869 110.6C220.918 108.581 222.498 106.94 224.549 106.242C225.574 105.893 227.965 105.842 227.279 103.768C226.166 100.396 218.733 107.796 217.578 108.971C218.342 109.514 219.105 110.057 219.869 110.6ZM169.553 277.055C167.551 275.24 164.976 274.721 162.688 273.389C164.442 276.325 164.192 279.613 164.376 282.823C166.102 280.9 167.827 278.978 169.553 277.055ZM389.152 249.598C388.858 246.861 388.57 244.137 388.398 241.397C388.205 238.329 388.532 237.935 385.808 236.758C385.516 241.047 385.224 245.336 384.932 249.625C386.336 249.77 387.785 249.879 389.152 249.598ZM149.381 133.115C146.096 131.043 135.707 134.721 139.374 140.634C140.654 142.698 142.305 139.379 143.7 138.265C145.085 137.158 149.526 135.419 149.381 133.115ZM164.331 174.25C163.788 173.611 162.258 171.143 161.388 171.229C160.541 171.312 158.546 175.246 158.134 175.887C156.08 179.084 154.158 182.416 152.224 185.714C153.288 185.316 154.088 184.513 155.142 184.108C156.394 183.626 157.521 183.891 158.617 183.089C160.974 181.368 162.757 176.823 164.331 174.25ZM142.479 107.115C142.231 105.698 156.622 104.849 158.445 104.997C159.438 105.077 164.785 106.09 162.359 102.457C160.977 100.387 155.293 100.541 153.446 100.523C148.751 100.478 144.004 100.972 139.731 102.866C138.902 103.234 132.637 106.07 136.447 108.079C137.76 108.771 140.952 107.205 142.479 107.115ZM213.344 288.019C216.264 288.5 219.113 288.637 222.03 288.777C223.325 288.838 225.533 289.443 226.647 288.668C227.559 288.032 227.212 286.119 227.294 284.722C227.59 279.61 228.58 275.205 230.096 270.515C228.34 269.88 223.448 277.406 222.051 278.77C220.653 280.134 219.351 281.469 218.042 282.964C216.809 284.373 214.042 286.254 213.344 288.019ZM241.927 234.701C244.739 231.542 246.834 227.02 248.609 223.01C250.648 218.404 252.285 213.765 253.069 208.499C251.648 209.129 250.478 215.782 248.222 209.859C247.071 206.837 249.514 202.523 249.568 199.301C246.144 198.519 247.668 210.271 243.536 208.829C239.555 207.44 241.101 196.967 240.999 193.883C238.701 193.167 234.338 212.434 233.61 214.963C233.155 216.546 231.599 219.008 231.621 220.648C231.634 221.624 232.611 224.371 233.056 225.107C233.986 226.646 236.301 228.04 237.579 229.319C239.196 230.938 240.726 232.677 241.927 234.701ZM407.636 236.322C402.74 232.466 405.057 229.121 405.972 224.059C406.704 220.01 407.152 215.681 407.018 211.516C406.682 201.097 406.285 191.442 404.169 181.079C402.468 183.004 402.75 187.803 402.535 190.467C402.247 194.049 402.187 197.718 401.704 201.265C400.799 207.902 400.087 214.887 398.1 221.09C397.199 223.9 396.663 226.884 395.419 229.579C394.851 230.81 393.399 232.189 393.152 233.555C392.919 234.844 393.873 235.256 394.106 236.605C394.344 237.989 393.739 239.787 393.723 241.211C393.702 243.083 393.727 244.941 393.62 246.804C393.502 248.835 393.633 249.825 394.063 251.606C394.533 253.554 395.3 253.487 394.547 255.726C397.561 256.081 400.574 256.436 403.588 256.79C404.605 256.91 405.622 257.03 406.639 257.15C406.672 256.689 406.705 256.229 406.738 255.769C407.138 254.722 407.051 252.543 407.06 251.355C407.098 246.396 407.345 241.34 407.636 236.322ZM155.734 306.646C156.798 331.369 188.956 340.495 206.015 338.794C208.378 338.558 210.755 338.518 213.123 338.328C215.706 338.121 217.729 337.214 220.162 336.621C222.099 336.149 223.606 337.489 225.525 337.296C228.731 336.974 227.596 334.483 226.78 331.663C223.32 319.71 224.212 306.595 225.968 294.884C223.125 294.778 220.271 294.569 217.424 294.353C214.988 294.168 210.797 292.655 208.511 293.346C206.82 293.858 204.919 296.444 203.585 297.765C201.364 299.966 199.068 301.992 196.591 303.852C192.26 307.106 187.574 311.085 182.593 313.117C181.157 313.703 177.468 315.981 176.032 315.325C173.293 314.074 175.437 311.376 176.838 310.04C185.192 302.076 195.072 296.324 203.414 288.243C207.706 284.084 211.847 279.683 216.184 275.546C219.923 271.979 223.954 268.552 227.38 264.603C231.904 259.39 236.168 253.408 239.39 247.035C240.035 245.76 241.594 243.64 241.777 242.073C241.938 240.694 242.296 241.876 241.648 240.518C241.182 239.543 239.614 238.572 238.822 237.783C235.874 234.838 233.045 231.738 230.409 228.44C224.031 235.299 218.566 243.431 212.405 250.516C206.204 257.647 198.542 263.907 191.107 269.394C187.943 271.73 183.99 273.572 181.489 276.785C180.425 278.15 179.428 279.642 178.133 280.686C178.062 281.826 177.704 282.178 177.058 281.742C176.663 281.494 176.265 281.476 175.864 281.687C175.027 282.204 174.291 283.047 173.588 283.746C170.031 287.282 166.839 291.238 163.7 295.231C162.212 297.123 160.668 299.015 159.325 301.043C158.605 302.13 157.99 303.184 157.55 304.471C157.023 306.015 157.616 306.899 155.734 306.646ZM268.295 115.404C270.121 114.76 271.346 112.997 273.261 112.353C276.272 111.341 279.632 113.151 282.328 115.099C287.663 118.954 289.107 125.471 289.539 131.856C289.744 134.907 289.602 137.963 289.092 140.893C288.641 143.486 287.165 146.331 287.18 149.025C287.205 153.468 289.48 150.724 290.94 149.227C292.777 147.344 294.378 145.258 295.613 142.793C301.116 131.807 303.459 118.521 300.932 105.213C299.699 98.7207 296.951 91.619 291.446 88.002C286.413 84.6944 280.106 85.3568 275.507 88.0389C270.535 90.939 266.702 95.3643 263.639 100.361C262.749 101.813 261.999 103.315 261.23 104.854C260.221 106.873 259.307 107.258 260.539 109.371C261.454 110.942 262.888 112.388 263.996 113.81C266.069 116.474 266.016 117.383 268.295 115.404ZM293.524 165.251L293.431 166.12C296.013 165.314 297.396 161.83 299.076 159.753C301.259 157.055 302.903 153.872 304.506 150.679C307.333 145.049 310.026 138.887 311.276 132.415C314.081 117.906 315.042 100.482 307.473 86.2469C299.316 70.9044 284.893 69.2175 272.799 76.1747C267.348 79.3099 263.292 84.2754 259.241 89.2916C257.199 91.8204 255.738 94.6564 254.064 97.499C253.196 98.9746 252.108 99.5307 252.686 101.326C253.123 102.68 256.219 104.951 257.203 105.957C260.827 95.7466 265.459 86.6889 275.17 82.605C286.723 77.7465 298.511 88.1258 303.104 100.568C307.61 112.77 307.487 126.173 303.58 137.614C301.804 142.814 299.886 147.17 296.965 151.573C295.508 153.768 294.521 155.618 292.647 157.415C291.321 158.686 291.352 158.266 291.586 160.123C291.786 161.699 292.952 163.752 293.524 165.251ZM291.682 354.606C292.35 356.859 292.776 359.163 293.151 361.464C293.285 362.29 293.332 365.039 293.806 365.848C294.59 367.183 293.914 366.389 295.267 366.733C296.678 367.093 297.963 366.558 299.278 366.336C300.089 366.199 303.431 366.684 303.807 366.27C304.465 365.545 303.885 364.073 304.56 363.151C305.48 361.894 307.532 361.909 308.916 362.105C312.615 362.628 316.021 365.3 319.704 366.083C326.243 367.473 333.207 366.992 339.387 365.557C342.734 364.78 346.274 364.289 349.101 362.238C351.327 360.622 354.579 359.478 354.767 355.864C341.329 356.502 321.253 358.64 310.503 344.352C308.944 348.044 304.085 348.187 300.827 348.976C297.243 349.844 294.215 351.086 290.398 350.435C290.704 351.955 291.079 353.17 291.682 354.606ZM148.246 294.854C154.043 293.14 158.232 288.02 159.741 281.459C160.112 279.844 160.495 278.193 160.435 276.466C160.401 276.035 160.366 275.604 160.332 275.174C160.47 273.898 160.044 273.479 159.056 273.918C158.145 273.22 156.587 273.453 156.38 271.648C156.223 270.286 157.357 269.839 158.203 269.076C157.347 268.292 156.87 267.917 155.84 267.32C154.723 269.936 152.802 274.97 149.853 271.021C148.437 269.126 148.769 266.684 147.731 264.733C147.302 263.926 145.569 262.102 144.845 261.795C140.986 260.156 137.303 262.808 134.877 265.53C133.205 267.405 132.95 268.088 133.551 270.73C134.162 273.416 134.797 276.091 135.368 278.784C136.334 277.558 135.948 275.832 136.321 274.346C136.868 274.88 137.416 275.415 137.965 275.948C138.29 275.506 138.697 275.371 139.186 275.543C140.193 276.399 140.413 278.144 140.652 279.347C142.581 278.376 144.409 280.675 142.778 282.493C141.089 284.375 139.023 281.737 138.227 279.825C137.852 281.21 136.829 280.926 136.492 281.691C136.156 282.456 136.378 283.705 136.663 285.058C137.13 287.28 137.448 290.619 138.992 292.446C141.285 295.16 145.471 295.453 148.246 294.854ZM274.288 133.013C273.553 136.743 271.85 141.904 272.554 145.816C274.085 143.637 275.902 135.229 279.043 140.211C280.846 143.07 278.926 147.999 279.238 151.304C282.018 148.844 282.872 144.078 283.771 140.309C284.918 135.503 285.663 129.456 284.496 124.327C283.552 120.176 279.825 117.373 276.189 118.291C274.332 118.76 272.593 119.786 271.05 120.913C270.347 121.426 269.277 122.137 268.76 122.891C268.109 123.836 268.529 125.325 267.25 124.434C267.054 127.269 266.859 130.103 266.662 132.937C267.585 132.063 269.086 129.257 270.361 129.012C272.222 128.656 273.69 131.486 274.288 133.013ZM77.1192 139.141C72.2823 141.142 67.6159 144.274 63.6539 147.817C62.6702 148.698 58.4087 152.114 60.2989 154.05C61.5482 155.329 64.3856 151.8 65.353 151.027C69.4994 147.712 73.983 144.872 78.4746 142.131C79.5624 141.467 83.5461 140.003 83.0811 138.134C82.5149 135.854 78.5018 138.621 77.1192 139.141ZM303.716 338.645C301.202 340.016 298.599 340.828 295.798 341.443C293.442 341.96 290.764 341.744 288.538 342.576C289.577 345.355 289.422 345.433 292.159 345.088C294.068 344.847 295.935 344.415 297.817 344.041C301.13 343.383 305.13 343.516 308.016 341.6C307.759 341.146 306.299 337.98 305.851 337.78C305.599 337.668 303.985 338.548 303.716 338.645ZM183.896 149.05C184.845 149.325 187.375 150.887 188.274 150.595C187.006 148.165 182.91 144.64 180.7 147.261C180.159 147.904 179.437 150.365 180.405 150.969C180.923 151.293 182.987 149.394 183.896 149.05ZM166.479 181.399C166.34 180.945 166.201 180.49 166.063 180.036C165.3 181.124 164.153 181.933 163.848 183.341C164.893 183.466 165.938 183.592 166.984 183.717C166.816 182.945 166.647 182.172 166.479 181.399ZM272.65 218.802C278.243 218.97 283.681 219.954 288.933 223.111C293.473 225.842 297.484 232.146 300.141 236.957C306.719 248.863 307.489 261.89 309.625 274.834C310.708 281.4 311.112 287.957 311.657 294.544C312.134 300.296 312.912 306.216 312.734 311.921C312.583 316.758 311.933 321.715 312.048 326.632C312.109 329.279 313.795 337.808 309.762 336.439C309.881 339.325 309.594 339.183 311.163 340.632C312.299 341.681 315.182 342.648 316.62 343.31C320.451 345.076 324.84 346.071 328.838 346.815C336.162 348.179 343.577 348.475 350.96 349.454C354.225 349.888 357.817 350.499 358.76 354.88C359.55 358.553 358.81 361.839 356.695 364.395C354.711 366.796 351.513 369.271 348.901 370.768C347.352 371.656 346.674 370.996 345.224 371.223C343.611 371.475 342.086 372.724 340.535 373.286C333.572 375.809 326.738 376.045 319.378 373.449C316.748 372.521 312.098 369.075 309.477 370.056C308.137 370.557 308.775 371.401 307.805 372.399C306.607 373.63 303.616 373.27 302.072 373.5C298.783 373.991 295.438 374.49 292.265 372.188C288.835 369.7 288.082 365.311 287.651 361.286C287.165 356.748 287.382 351.878 286.57 347.391C286.373 346.299 285.83 344.329 285.254 343.359C284.358 341.855 282.601 341.414 281.905 339.682C281.693 339.155 282.084 338.21 281.992 337.619C281.794 336.319 281.287 335.083 280.932 333.818C280.299 331.561 279.943 329.304 279.429 327.032C278.26 321.861 277.942 316.977 277.45 311.757C276.971 306.691 276.873 302.825 277.786 297.943C278.257 295.414 279.668 286.508 276.846 285.152C276.448 292.561 275.054 298.745 272.695 305.406C270.892 310.502 269.66 316.906 266.62 321.192C263.277 325.904 258.473 329.737 254.129 333.192C252.062 334.835 250.744 337.258 248.325 338.52C245.704 339.886 242.758 340.532 239.799 340.824C238.967 340.906 236.274 340.365 235.621 340.708C234.659 341.214 233.991 343.857 233.027 344.656C230.681 346.604 228.168 345.499 225.502 344.608C222.609 343.639 221.77 343.444 219.127 344.186C215.889 345.094 212.354 344.945 208.971 345.309C203.024 345.95 197.359 344.86 191.323 343.758C184.405 342.496 177.826 339.647 171.506 335.739C162.216 329.993 145.108 310.843 152.409 299.168C146.026 300.466 139.36 299.461 135.65 291.78C133.71 287.76 132.708 282.879 132.105 278.531C131.829 276.545 131.637 274.542 131.427 272.554C131.55 271.81 131.486 271.07 131.233 270.334C131.097 269.31 130.609 268.957 129.771 269.275C127.374 267.704 125.467 266.239 123.997 263.285C123.531 262.349 122.883 260.89 123.167 259.839C123.317 259.404 123.566 259.057 123.912 258.801C124.865 258.515 124.928 257.882 124.101 256.903C123.954 255.132 122.817 254.134 124.269 252.829C124.865 252.761 125.464 252.706 126.064 252.664C126.892 252.773 127.242 252.339 127.115 251.364C128.445 250.032 127.3 249.227 129.831 249.354C131.363 249.431 132.984 249.943 134.391 250.78C135.258 249.428 130.435 244.878 129.679 243.134C127.895 239.023 128.084 235.001 128.73 230.835C129.985 222.739 133.079 215.024 136.314 207.914C142.513 194.295 149.391 180.965 157.623 168.884C151.611 166.871 145.841 167.874 141 171.664C136.537 175.159 133.522 179.601 129.814 183.888C126.379 187.859 122.159 190.54 118.378 184.624C114.143 177.998 118.063 173.484 121.268 168.604C119.807 168.057 116.436 170.099 115.106 170.726C112.145 172.12 109.523 174.018 106.819 175.84C105.522 176.714 104.185 177.126 102.899 177.988C100.987 179.269 99.0051 180.645 97.1472 182.146C92.728 185.718 88.6721 190.149 85.597 195.225C82.9386 199.61 81.8937 204.79 80.3026 209.796C78.4874 215.504 76.7908 221.087 72.2579 224.623C70.1355 226.279 67.5706 228.021 64.9281 226.152C62.4702 224.416 61.3318 221.64 60.3184 218.772C58.0798 212.436 58.1434 204.66 59.2523 198.384C60.4561 191.571 63.6684 186.726 66.1531 180.675C60.3212 183.428 55.8875 189.305 51.3081 193.933C50.3445 194.908 49.3947 195.953 48.4098 196.889C47.3594 197.888 46.4101 197.872 45.3046 198.562C42.7813 200.14 40.9375 202.359 37.4805 201.212C30.9405 199.042 32.8959 188.922 35.4112 185.101C38.9149 179.779 42.7101 174.981 47.0811 170.485C42.8464 167.923 43.3607 161.814 45.0456 158.243C47.1774 153.725 50.7467 150.258 54.1329 146.999C56.8109 144.422 59.4522 141.922 62.46 139.849C65.6219 137.67 69.2021 134.809 72.7903 133.614C76.1552 132.492 78.8442 130.709 82.166 129.343C84.93 128.206 87.7636 127.236 90.5294 126.105C97.9714 123.064 105.748 120.831 113.34 118.712C100.078 101.011 140.764 92.7949 149.925 92.329C158.251 91.9059 167.803 91.4545 176.149 94.7166C179.685 96.098 183.209 97.8539 186.593 99.7423C191.587 102.529 195.506 107.157 199.313 111.749C202.971 107.352 206.335 102.792 210.932 99.5711C215.306 96.5065 219.632 92.9522 224.149 90.1836C227.584 88.0783 232.776 85.5797 237.034 87.4645C241.658 89.512 245.35 94.0085 249.022 97.6683C254.711 83.2981 262.605 71.4143 276.637 66.7614C290.367 62.2086 304.371 72.5175 311.538 86.6829C319.436 102.291 319.58 121.633 315.865 137.397C314.2 144.466 312.331 151.39 308.821 157.512C307.08 160.547 305.275 163.834 303.119 166.501C302.044 167.831 300.811 169.131 299.597 170.299C299.049 170.826 298.482 171.362 297.874 171.808C296.138 173.083 296.241 172.209 296.261 174.46C296.277 176.288 297.384 179.03 297.793 180.89C298.262 183.016 298.857 185.125 299.183 187.273C299.748 190.995 300.252 194.644 300.604 198.354C301.27 205.375 301.361 212.669 300.703 219.547C303.561 219.866 306.972 218.73 309.678 218.139C312.607 217.498 315.704 217.296 318.943 217.158C325.434 216.882 331.199 216.541 337.757 217.309C344.564 218.106 351.292 220.581 358.094 222.01C364.349 223.324 370.962 225.427 377.097 227.518C378.556 228.015 379.546 228.552 380.869 229.379C382.222 230.223 382.598 230.346 384.069 230.966C384.732 231.245 387.03 233.045 387.622 232.921C388.683 232.701 388.203 231.886 388.534 230.373C389.226 227.215 390.781 224.387 391.438 221.168C391.986 218.484 392.581 215.751 393.337 213.337C395.165 207.494 396.206 201.386 396.68 195.023C396.927 191.712 397.293 188.51 397.711 185.315C398.127 182.134 399.321 177.694 402.184 176.802C401.453 175.535 400.653 175.578 401.58 174.289C402.177 173.459 404.049 173.737 404.865 174.048C407.025 174.873 408.136 177.624 408.814 179.749C410.561 185.226 411.581 190.895 412.138 196.483C412.807 203.2 412.798 209.351 412.769 216.012C412.747 221.318 412.86 228.281 409.273 232.04C414.046 235.838 414.126 240.359 414.105 246.294C414.09 250.634 413.661 255.272 411.712 258.869C409.514 262.924 405.08 261.839 400.971 261.239C398.489 260.875 391.196 260.557 391.173 256.593C389.509 256.937 388.022 255.974 386.438 256.099C384.76 256.232 385.289 256.852 383.787 257.721C382.635 258.386 380.316 257.79 378.987 257.763C376.767 257.719 374.546 257.653 372.325 257.6C366.076 257.449 359.93 257.297 353.789 257.6C342.363 258.163 331.338 260.182 320.078 261.081C317.821 261.261 315.583 261.457 313.285 261.784C312.81 261.852 310.48 262.555 309.999 262.111C309.156 261.333 308.637 255.407 308.355 254.265C306.508 246.77 303.295 239.01 299.458 232.351C297.864 229.583 294.243 226.58 293.185 223.692C292.475 221.754 293.155 219.094 293.362 217.021C293.876 211.895 294.361 206.382 294.256 201.286C294.098 193.49 292.67 185.157 290.979 177.377C290.096 173.321 289.184 168.907 287.88 164.958C286.886 161.947 285.513 158.913 284.746 155.737C283.397 156.419 281.723 158.014 280.114 157.578C278.083 157.027 276.426 153.906 275.898 151.87C270.832 155.037 268.746 148.903 267.312 144.034C257.403 147.739 263.671 125.818 263.877 121.536C263.972 119.568 264.662 121.481 263.36 118.979C262.787 117.879 261.634 116.854 260.856 115.937C259.158 113.934 257.405 111.992 255.604 110.107C251.799 106.125 247.784 102.404 243.62 98.9259C242.046 101.609 240.822 104.547 239.806 107.587C239.636 103.439 241.625 97.4773 238.473 93.8732C235.551 90.5323 230.752 92.6344 228.123 94.4277C220.983 99.3023 214.494 104.939 208.222 111.002C211.123 111.686 214.227 109.159 216.089 107.11C218.395 104.572 220.888 101.882 223.674 99.9525C226.104 98.2697 229.715 97.1835 230.517 101.69C231.165 105.341 229.531 109.702 228.596 112.964C226.536 120.149 222.943 126.458 219.441 132.729C215.677 139.471 212.265 146.542 208.38 153.174C201.358 165.162 193.175 176.359 185.614 187.927C181.684 193.937 176.743 199.439 171.97 204.589C166.72 210.255 161.822 216.051 156.074 221.124C152.882 223.942 149.629 226.495 146.575 229.485C144.661 231.359 141.427 234.889 138.783 232.439C133.413 227.463 141.541 215.239 143.193 210.351C146.191 211.95 139.13 224.724 141.242 227.894C142.901 230.385 144.054 225.936 144.968 224.746C146.446 222.822 148.504 221.364 149.928 219.268C152.849 214.967 156.348 209.96 155.08 203.803C154.158 203.262 153.897 202.542 154.299 201.642C154.437 201.135 154.502 200.61 154.491 200.069C154.432 199.049 154.117 197.861 153.906 196.836C153.282 193.803 151.156 191.54 151.157 188.344C147.057 196.047 143.456 204.363 139.834 212.396C136.584 219.602 133.717 228.519 134.733 237.079C134.863 238.175 134.882 239.468 135.323 240.512C136.189 242.561 136.199 242.045 137.887 242.177C139.576 242.309 141.648 241.468 143.222 240.961C144.118 240.671 147.648 238.11 147.709 240.659C147.745 242.129 144.997 243.1 144.064 243.586C141.725 244.805 140.279 244.992 142.6 247.659C143.641 248.854 145.048 249.401 146.278 250.167C149.701 252.299 152.669 256.421 155.796 259.26C159.359 262.493 163.053 265.453 166.859 268.283C168.43 269.45 170.842 271.845 172.632 272.428C174.304 272.972 172.756 273.454 174.74 272.237C175.605 271.707 176.186 270.683 176.983 270.096C181.75 266.586 186.594 262.827 191.411 258.894C197.572 253.862 204.214 249.052 209.657 243.089C214.533 237.745 219.145 231.831 224.069 226.425C225.507 224.846 227.058 223.577 227.813 221.379C228.725 218.728 229.115 215.556 229.84 212.801C231.072 208.115 232.076 203.442 233.581 198.875C234.702 195.476 236.603 189.227 239.174 187.076C244.057 182.991 244.783 194.11 245.001 196.908C246.454 196.763 246.409 194.525 248.174 194.514C250.286 194.501 251.557 197.311 252.464 199.03C252.706 199.488 252.484 200.596 252.814 200.962C252.927 201.087 254.452 201.47 254.83 201.77C256.206 202.86 256.679 204.635 256.925 206.274C258.202 214.761 254.433 222.717 252.25 230.145C254.037 228.988 254.996 227.154 256.593 225.826C258.093 224.579 259.839 223.962 261.513 223.139C263.265 222.278 264.717 220.83 266.564 220.093C268.502 219.32 270.616 219.269 272.65 218.802Z" fill="#2D4710"/>
<path fill-rule="evenodd" clip-rule="evenodd" d="M40.3979 225.013C39.6308 226.232 39.6285 227.148 40.2972 229.049C40.5718 229.829 41.6974 232.7 42.5841 232.244C43.4162 231.816 40.7692 226.006 40.3979 225.013ZM36.6136 231.789C34.8517 225.553 34.4491 218.693 37.503 213.255C38.2582 211.91 39.5193 211.476 40.5091 210.436C41.104 209.811 41.6386 207.739 42.5367 207.625C45.8431 207.206 44.0937 213.227 44.0429 214.658C43.885 219.092 45.2536 222.424 46.8493 226.546C48.0621 229.679 50.6062 234.774 50.3111 238.131C49.9954 241.706 46.1147 240.912 43.6884 239.773C40.6259 238.336 37.6037 235.353 36.6136 231.789Z" fill="#2D4710"/>
<path fill-rule="evenodd" clip-rule="evenodd" d="M96.6354 229.721C97.8976 233.096 99.3919 229.933 98.4103 227.563C96.9657 224.074 95.528 227.093 96.6354 229.721ZM102.144 206.391C100.582 210.049 99.165 212.304 100.22 216.636C101.02 219.917 102.556 222.888 103.755 226.046C105.765 231.339 104.178 238.288 97.9538 233.686C93.4139 230.329 91.8404 222.97 92.5241 217.636C92.8832 214.836 93.7788 211.865 95.2675 209.648C96.3871 207.979 99.8831 204.213 102.144 206.391Z" fill="#2D4710"/>
<path fill-rule="evenodd" clip-rule="evenodd" d="M96.8062 301.547C96.8157 302.481 97.3718 306.101 98.5151 304.808C99.5244 303.665 97.8757 301.745 96.8062 301.547ZM85.3869 294C84.6943 292.82 81.8241 284.87 83.9154 284.765C85.5577 284.681 87.3154 288.643 88.441 289.829C92.632 294.248 98.9674 295.606 102.757 300.367C106.988 305.685 101.109 308.097 97.0356 306.826C92.2121 305.322 87.3919 299.024 85.3869 294Z" fill="#2D4710"/>
<path fill-rule="evenodd" clip-rule="evenodd" d="M68.6674 263.256C69.001 261.675 68.8278 260.962 67.9427 260.005C67.632 260.976 68.1378 262.008 68.6674 263.256ZM71.3916 268.752C67.369 270.886 63.7578 261.874 63.3149 258.482C62.9622 255.78 63.2033 252.645 63.7223 250.142C63.8274 249.637 64.8992 245.05 65.3752 244.862C67.2019 244.14 67.6028 246.753 67.7419 247.73C68.1801 250.807 68.8211 253.276 70.168 256.365C71.6097 259.671 75.9733 267.166 71.3916 268.752Z" fill="#2D4710"/>
<path fill-rule="evenodd" clip-rule="evenodd" d="M233.978 118.216C230.143 126.393 226.796 134.944 222.156 142.577C219.885 146.312 217.359 149.811 215.11 153.585C213.965 155.507 212.735 157.304 211.282 158.946C209.997 160.397 208.991 160.899 209.565 158.382C209.949 156.7 211.59 155.014 212.442 153.602C213.752 151.428 214.899 149.131 216.369 147.087C218.959 143.483 221.695 140.333 223.82 136.306C225.706 132.733 227.704 129.186 229.402 125.503C230.13 123.924 231.998 117.225 233.978 118.216Z" fill="#2D4710"/>
<path fill-rule="evenodd" clip-rule="evenodd" d="M242.088 139.531C245.822 141.228 241.797 151.206 240.875 153.471C239.904 155.86 238.694 158.119 237.503 160.359C237.084 161.147 235.053 166.135 234.074 166.16C232.141 166.209 233.488 162.962 233.838 162.116C234.968 159.377 236.161 156.682 237.228 153.904C238.191 151.4 239.345 148.983 240.23 146.439C240.948 144.378 241.048 141.302 242.088 139.531Z" fill="#2D4710"/>
<path fill-rule="evenodd" clip-rule="evenodd" d="M81.504 324.256C80.0762 322.602 79.6013 325.208 80.6043 325.926C81.5534 326.605 81.551 324.658 81.504 324.256ZM75.9233 322.023C75.2487 319.059 75.542 317.161 78.7124 318.721C80.891 319.794 85.7876 323.327 86.4495 326.004C87.3173 329.516 83.7822 329.749 81.4768 328.606C79.1137 327.433 77.1376 324.421 75.9233 322.023Z" fill="#2D4710"/>
<path fill-rule="evenodd" clip-rule="evenodd" d="M101.666 375.705C98.7929 376.498 95.4899 374.895 93.218 372.419C91.3069 370.336 88.8876 366.732 92.8601 366.717C95.4493 366.707 108.08 373.757 101.666 375.705Z" fill="#2D4710"/>
<path fill-rule="evenodd" clip-rule="evenodd" d="M129.379 347.108C127.444 348.482 124.701 347.626 122.684 346.259C121.429 345.407 117.996 342.059 118.334 340.025C118.805 337.189 122.588 341.121 123.635 341.787C125.276 342.831 129.905 344.269 129.379 347.108Z" fill="#2D4710"/>
<path fill-rule="evenodd" clip-rule="evenodd" d="M107.585 282.923C105.56 282.641 103.585 282.128 102.094 280.204C101.145 278.978 99.2278 274.955 101.148 274.259C103.369 273.454 111.903 280.833 107.585 282.923Z" fill="#2D4710"/>
<path fill-rule="evenodd" clip-rule="evenodd" d="M79.598 244.073C81.8355 243.182 82.9118 244.434 84.0049 246.401C84.7468 247.736 87.5755 252.152 86.8704 253.536C85.8632 255.515 82.2203 253.206 81.2546 252.126C79.2653 249.903 79.7126 246.817 79.598 244.073Z" fill="#2D4710"/>
<path fill-rule="evenodd" clip-rule="evenodd" d="M172.19 373.571C173.506 373.743 176.487 374.101 176.283 376.463C176.069 378.933 172.441 377.967 171.028 377.451C170.436 377.235 166.65 375.788 166.454 374.901C166.036 373.018 170.834 373.886 172.19 373.571Z" fill="#2D4710"/>
<path fill-rule="evenodd" clip-rule="evenodd" d="M50.876 269.661C52.446 271.572 56.106 278.786 50.6344 276.197C48.9646 275.407 48.2031 273.926 47.9815 272.067C47.659 269.373 48.7162 269.536 50.876 269.661Z" fill="#2D4710"/>
<path fill-rule="evenodd" clip-rule="evenodd" d="M249.783 163.324C248.128 161.567 249.786 159.414 250.437 157.638C250.863 156.479 252.252 150.533 253.391 150.413C255.736 150.168 250.486 162.002 249.783 163.324Z" fill="#2D4710"/>
<path fill-rule="evenodd" clip-rule="evenodd" d="M130.431 380.102C132.348 378.945 133.828 381.436 135.592 382.104C136.348 382.391 138.468 382.098 138.471 383.306C138.478 386.477 131.03 382.012 130.431 380.102Z" fill="#2D4710"/>
<path fill-rule="evenodd" clip-rule="evenodd" d="M124.25 310.505C125.408 309.283 130.889 311.47 130.315 313.515C129.457 316.574 124.842 311.782 124.25 310.505Z" fill="#2D4710"/>
<path fill-rule="evenodd" clip-rule="evenodd" d="M174.227 353.107C173.239 353.613 168.282 353.644 169.097 350.9C169.669 348.973 174.089 351.607 174.227 353.107Z" fill="#2D4710"/>
<path fill-rule="evenodd" clip-rule="evenodd" d="M118.186 362.358C117.339 363.22 113.273 363.619 113.735 361.31C114.176 359.112 117.634 360.877 118.186 362.358Z" fill="#2D4710"/>
<path fill-rule="evenodd" clip-rule="evenodd" d="M151.488 359.119C152.633 358.525 153.815 359.045 154.554 360.396C153.148 361.206 152.53 360.963 151.488 359.119Z" fill="#2D4710"/>
<path fill-rule="evenodd" clip-rule="evenodd" d="M229.914 93.5039C230.422 93.3171 230.929 93.1311 231.432 92.9462C230.923 93.1327 230.419 93.3182 229.914 93.5039Z" fill="#2D4710"/>
<path fill-rule="evenodd" clip-rule="evenodd" d="M267.944 219.435C267.187 219.719 266.431 220.004 265.674 220.288C266.431 220.003 267.188 219.719 267.944 219.435Z" fill="#2D4710"/>
<path fill-rule="evenodd" clip-rule="evenodd" d="M110.847 114.128C111.143 115.025 111.439 115.922 111.733 116.816C111.436 115.918 111.141 115.023 110.847 114.128Z" fill="#2D4710"/>
<path fill-rule="evenodd" clip-rule="evenodd" d="M401.522 176.534C402.131 177.426 401.839 177.72 400.643 177.419C400.936 177.124 401.229 176.829 401.522 176.534Z" fill="#2D4710"/>
<path fill-rule="evenodd" clip-rule="evenodd" d="M408.828 261.611C409.209 261.472 409.59 261.333 409.967 261.195C409.585 261.335 409.206 261.473 408.828 261.611Z" fill="#2D4710"/>
<path fill-rule="evenodd" clip-rule="evenodd" d="M310.339 217.437C309.915 218.238 309.313 218.554 308.435 218.114C309.07 217.889 309.704 217.663 310.339 217.437Z" fill="#2D4710"/>
<path fill-rule="evenodd" clip-rule="evenodd" d="M268.018 147.448C268.278 148.191 268.537 148.934 268.794 149.674C268.534 148.93 268.276 148.189 268.018 147.448Z" fill="#2D4710"/>
<path fill-rule="evenodd" clip-rule="evenodd" d="M275.26 67.0907C274.629 67.3262 273.998 67.5614 273.367 67.7962C273.895 67.2846 274.56 67.1392 275.26 67.0907Z" fill="#2D4710"/>
<path fill-rule="evenodd" clip-rule="evenodd" d="M86.8141 127.318C86.1997 127.597 85.5846 127.876 84.9702 128.155C85.5846 127.876 86.1997 127.597 86.8141 127.318Z" fill="#2D4710"/>
<path fill-rule="evenodd" clip-rule="evenodd" d="M102.385 121.655C101.862 121.794 101.338 121.933 100.815 122.071C101.338 121.933 101.861 121.794 102.385 121.655Z" fill="#2D4710"/>
<path fill-rule="evenodd" clip-rule="evenodd" d="M110.974 119.241C110.551 119.649 110.095 119.967 109.461 119.81C109.965 119.62 110.469 119.43 110.974 119.241Z" fill="#2D4710"/>
<path fill-rule="evenodd" clip-rule="evenodd" d="M66.384 137.292C65.8087 137.678 65.234 138.064 64.6589 138.448C65.2347 138.063 65.8093 137.678 66.384 137.292Z" fill="#2D4710"/>
<path fill-rule="evenodd" clip-rule="evenodd" d="M307.524 251.941C307.672 252.39 307.82 252.838 307.967 253.284C307.82 252.835 307.672 252.388 307.524 251.941Z" fill="#2D4710"/>
<path fill-rule="evenodd" clip-rule="evenodd" d="M85.5604 294.178C85.6784 294.47 85.7959 294.762 85.9123 295.053C85.7937 294.76 85.6775 294.469 85.5604 294.178Z" fill="#2D4710"/>
<path fill-rule="evenodd" clip-rule="evenodd" d="M403.11 173.632L401.221 174.351C401.646 173.567 402.303 173.401 403.11 173.632Z" fill="#2D4710"/>
<path fill-rule="evenodd" clip-rule="evenodd" d="M272.493 218.909C271.951 219.001 271.41 219.092 270.87 219.184C271.41 219.092 271.952 219 272.493 218.909Z" fill="#2D4710"/>
<path fill-rule="evenodd" clip-rule="evenodd" d="M172.37 373.428C171.686 373.521 171.001 373.612 170.317 373.705L172.37 373.428Z" fill="#2D4710"/>
<path fill-rule="evenodd" clip-rule="evenodd" d="M252.375 199.091C252.198 198.653 252.021 198.215 251.845 197.779C252.022 198.217 252.199 198.654 252.375 199.091Z" fill="#2D4710"/>
<path fill-rule="evenodd" clip-rule="evenodd" d="M88.7612 126.757C88.3623 126.844 87.9634 126.931 87.5648 127.019C87.9634 126.931 88.3623 126.844 88.7612 126.757Z" fill="#2D4710"/>
<path fill-rule="evenodd" clip-rule="evenodd" d="M146.753 92.6271C146.324 92.6349 145.895 92.6428 145.467 92.6504C145.896 92.6426 146.324 92.6349 146.753 92.6271Z" fill="#2D4710"/>
<path fill-rule="evenodd" clip-rule="evenodd" d="M303.145 373.568C303.404 373.492 303.665 373.415 303.922 373.339C303.661 373.416 303.402 373.492 303.145 373.568Z" fill="#2D4710"/>
<path fill-rule="evenodd" clip-rule="evenodd" d="M40.7629 201.456C41.1472 201.325 41.5317 201.195 41.9117 201.067C41.5253 201.198 41.144 201.327 40.7629 201.456Z" fill="#2D4710"/>
<path fill-rule="evenodd" clip-rule="evenodd" d="M279.585 65.9653C278.935 66.1495 278.285 66.3338 277.635 66.5176C278.285 66.3335 278.935 66.1495 279.585 65.9653Z" fill="#2D4710"/>
<path fill-rule="evenodd" clip-rule="evenodd" d="M79.3418 138.486C78.4571 138.819 77.5736 139.151 76.6942 139.482C77.5806 139.148 78.4612 138.817 79.3418 138.486Z" fill="#2D4710"/>
<path fill-rule="evenodd" clip-rule="evenodd" d="M292.175 162.57C292.462 163.303 292.75 164.035 293.037 164.764C292.75 164.031 292.464 163.3 292.175 162.57Z" fill="#2D4710"/>
<path fill-rule="evenodd" clip-rule="evenodd" d="M304.934 337.972C304.424 338.152 303.915 338.332 303.409 338.51C303.92 338.328 304.427 338.15 304.934 337.972Z" fill="#2D4710"/>
<path fill-rule="evenodd" clip-rule="evenodd" d="M271.211 83.9513C271.931 83.5703 272.651 83.1892 273.372 82.808C272.926 83.8294 271.954 83.624 271.211 83.9513Z" fill="#2D4710"/>
<path fill-rule="evenodd" clip-rule="evenodd" d="M300.857 339.759C300.471 339.884 300.085 340.01 299.703 340.135C300.09 340.009 300.473 339.884 300.857 339.759Z" fill="#2D4710"/>
<path fill-rule="evenodd" clip-rule="evenodd" d="M290.65 352.354C290.944 353.085 291.239 353.814 291.533 354.54C291.238 353.809 290.944 353.082 290.65 352.354Z" fill="#2D4710"/>
<path fill-rule="evenodd" clip-rule="evenodd" d="M268.1 116.014C268.585 115.771 269.069 115.527 269.553 115.284C269.247 115.871 268.615 115.831 268.1 116.014Z" fill="#2D4710"/>
<path fill-rule="evenodd" clip-rule="evenodd" d="M146.614 295.318C147.16 295.238 147.705 295.157 148.25 295.076C147.705 295.157 147.16 295.238 146.614 295.318Z" fill="#2D4710"/>
<path fill-rule="evenodd" clip-rule="evenodd" d="M181.903 149.709C182.299 148.847 182.955 148.679 183.793 148.994C183.163 149.232 182.533 149.47 181.903 149.709Z" fill="#2D4710"/>
<path fill-rule="evenodd" clip-rule="evenodd" d="M166.555 180.859C166.464 180.557 166.371 180.256 166.281 179.955C166.374 180.256 166.465 180.557 166.555 180.859Z" fill="#2D4710"/>
<path fill-rule="evenodd" clip-rule="evenodd" d="M273.583 131.276C273.808 131.864 274.034 132.452 274.259 133.036C274.033 132.447 273.808 131.862 273.583 131.276Z" fill="#2D4710"/>
<path fill-rule="evenodd" clip-rule="evenodd" d="M141.098 286.007C142.051 286.025 144.093 286.392 145.011 285.899C145.746 285.503 145.974 284.166 146.722 283.888C148.735 283.139 149.376 285.991 148.949 287.811C147.793 292.732 140.322 290.658 141.098 286.007Z" fill="#2D4710"/>
<path fill-rule="evenodd" clip-rule="evenodd" d="M144.021 268.795C147.073 268.595 148.339 276.145 146.214 277.491C143.711 279.077 141.098 273.53 140.861 271.261C142.621 271.707 143.047 275.486 144.451 273.872C145.344 272.845 144.123 270.099 144.021 268.795Z" fill="#2D4710"/>
</g>
<defs>
<clipPath id="clip0_307_3838">
<rect width="413.796" height="362" fill="white" transform="translate(0.211792 144.93) rotate(-20.5022)"/>
</clipPath>
</defs>
</svg>
