<?xml version="1.0" encoding="UTF-8" standalone="no"?><svg width="512" height="1008" viewBox="0 0 512 1008" fill="none" xmlns="http://www.w3.org/2000/svg">
<g clip-path="url(#clip0_278_3270)">
<path fill-rule="evenodd" clip-rule="evenodd" d="M0.815974 633.023C-11.2558 649.829 -39.1458 645.037 -54.945 640.346C-41.498 624.863 -26.8706 609.243 -18.1379 590.472C-15.261 584.289 -12.6261 577.997 -10.0733 571.682C-9.12947 569.348 -8.19877 567.007 -7.28402 564.662C-7.06076 564.091 -6.44466 561.371 -5.87778 561.018C-4.86369 560.387 -1.18801 562.886 -0.252927 563.527C2.15555 565.176 4.16304 567.363 5.76335 569.837C9.12698 575.034 10.7382 581.367 11.3957 587.654C12.9475 602.481 9.91916 620.351 0.815974 633.023ZM49.6015 497.953C31.6068 498.053 13.3443 492.721 -2.68765 485.658C-27.1106 474.899 -47.6235 456.845 -66.261 437.955C-70.8369 433.317 -75.3397 428.587 -79.6252 423.661C-90.2542 440.111 -95.7718 458.628 -95.915 477.806C-96.0332 493.662 -92.8258 508.983 -91.4245 524.616C-90.1204 539.169 -91.0543 554.079 -98.9085 567.293C-102.186 572.807 -105.718 577.52 -112.176 578.38C-118.666 579.246 -125.26 576.945 -130.995 574.478C-145.355 568.3 -158.388 558.624 -170.009 548.254C-172.265 546.24 -174.479 544.17 -176.589 541.995C-178.983 539.525 -179.461 538.082 -183.25 538.876C-191.425 540.59 -198.374 546.487 -203.938 552.805C-214.36 564.638 -223.256 580.484 -228.279 595.451C-233.117 609.869 -223.268 625.703 -214.647 635.316C-188.642 664.311 -145.741 673.602 -107.337 666.376C-106.5 666.218 -105.664 666.051 -104.83 665.862C-105.512 670.798 -105.994 675.765 -106.221 680.716C-106.379 684.161 -106.47 687.665 -106.078 691.065C-105.937 692.292 -105.861 693.877 -105.303 694.973C-104.264 697.011 -102.113 697.337 -100.011 698.166C-84.501 704.281 -68.5141 709.562 -51.9555 712.484C-26.7831 716.927 -0.387141 714.809 22.3741 699.613C33.8722 691.937 43.7081 681.799 52.2709 670.816C62.1028 658.206 71.0302 644.613 75.7106 629.254C84.288 601.107 79.9343 571.211 71.2093 544.794C65.8107 528.447 58.7348 512.299 49.6015 497.953Z" fill="#4D7520"/>
<path fill-rule="evenodd" clip-rule="evenodd" d="M376.433 480.597C372.716 480.008 369.337 478.377 366.06 476.666C363.489 475.323 360.908 475.17 358.562 473.785C352.03 469.924 345.38 466.192 338.338 463.215C331.266 460.226 326.191 455.172 317.883 457.163C314.926 457.871 311.339 458.568 310.567 462.215C310.214 463.886 310.305 465.3 309.805 467.018C309.241 468.96 308.847 470.882 308.54 472.875C307.952 476.699 307.426 491.981 301.296 490.054C294.65 487.964 287.989 481.375 283.549 476.228C280.958 473.224 278.526 470.082 276.078 466.954C274.14 464.478 271.17 461.903 269.751 459.036C268.809 457.134 269.5 455.325 269.445 453.162C269.345 449.227 269.108 445.78 268.178 441.975C266.247 434.084 262.117 426.961 257.825 420.285C257.548 419.854 257.102 418.971 256.705 418.663C256.276 418.331 255.455 418.52 255.198 418.273C254.492 417.596 254.551 416.873 254.001 415.777C253.261 414.305 249.907 408.848 247.869 410.212C250.225 408.219 250.356 409.302 252.284 411.012C253.132 411.766 254.059 411.698 254.882 412.278C255.641 412.813 255.664 413.493 256.239 414.033C257.294 415.022 258.525 415.546 259.787 416.321C260.622 415.736 261.097 416.042 261.211 417.237C261.482 417.574 261.753 417.91 262.024 418.247C263.044 419.397 264.424 420.163 265.637 421.072C267.457 422.438 270.896 428.082 273.449 426.147C276.175 424.079 273.474 421.448 274.137 419.23C274.791 417.056 277.853 417.457 279.509 416.933C281.395 416.34 282.76 415.637 284.739 415.313C285.9 415.122 287.265 415.121 288.369 414.59C289.385 414.102 290.18 412.781 291.263 412.523C292.555 412.214 292.328 412.845 293.288 412.907C295.172 413.026 294.526 412.675 296.01 412.155C297.278 411.71 297.787 412.066 299.144 411.967C301.132 411.821 302.833 410.17 304.828 409.926C306.289 409.747 307.831 410.714 309.192 410.43C309.993 410.263 310.326 409.387 311.043 409.204C312.42 408.852 312.767 409.563 313.984 409.924C316.037 410.535 317.251 409.854 319.289 409.462C321.15 409.105 321.894 409.577 323.651 410.045C326.051 410.685 328.366 409.876 330.778 410.059C333.049 410.232 335.208 410.708 337.535 410.836C339.216 410.927 340.687 411.252 342.267 411.261C342.801 411.264 343.379 410.415 343.95 410.608C344.605 410.829 344.426 412.129 345 412.562C346.201 413.47 348.593 412.866 349.975 412.515C350.576 412.363 351.709 411.643 352.309 411.724C353.564 411.891 353.596 413.135 354.684 413.333C356.211 413.61 356.619 411.879 357.86 411.561C358.945 411.284 360.306 412.2 361.332 413.145C365.469 416.951 355.963 415.93 354.144 415.788C351.083 415.551 328.814 413.827 329.999 420.66C330.626 424.275 336.785 425.707 339.424 426.51C344.051 427.918 349.465 428.44 353.82 430.508C354.358 430.764 355.615 432.085 356.128 432.173C357.286 432.373 357.529 431.473 358.527 431.545C360.03 431.655 362.317 433.127 363.379 433.979C364.209 434.644 364.831 435.83 365.791 436.323C366.848 436.866 368.208 436.848 369.33 437.27C371.247 437.992 372.905 439.264 374.592 440.394C377.017 442.02 381.711 445.515 375.916 446.782C371.226 447.808 365.423 445.891 360.976 444.836C354.4 443.274 348.022 441.607 341.355 440.345C336.812 439.484 327.458 437.112 328.462 445.173C329.162 445.008 329.862 444.843 330.561 444.678C330.726 445.544 330.581 446.939 331.373 447.479C332.033 447.927 332.271 446.995 333.061 447.151C335.547 447.646 338.262 449.427 340.469 450.608C345.997 453.568 351.751 456.124 357.207 459.215C362.345 462.125 367.22 465.574 371.421 469.766C372.501 470.844 382.191 481.509 376.433 480.597ZM298.696 508.364C297.47 510.914 295.275 512.224 293.559 514.355C291.485 516.931 290.193 519.535 287.723 521.841C282.922 526.324 278.458 531.189 273.572 535.575C264.945 543.318 255.339 548.913 245.466 554.658C240.431 557.587 234.708 559.026 229.255 560.698C223.667 562.412 218.767 564.475 212.964 565.122C201.367 566.416 189.582 566.647 178.329 564.223C166.549 561.687 155.79 556.418 145.978 549.661C141.624 546.663 136.575 544.178 132.654 540.645C128.485 536.888 124.042 532.698 120.2 528.598C113.145 521.074 107.375 512.186 101.24 503.633C94.3887 494.081 89.1113 484.06 84.1184 473.344C82.7978 470.51 80.869 468.364 79.8765 465.312C79.039 462.741 78.1898 460.251 77.1822 457.75C76.0246 454.879 75.0483 451.922 73.7974 449.1C73.0497 447.413 71.7638 445.415 72.0759 443.404C72.5056 440.638 75.3475 438.605 77.2545 436.854C79.7376 434.576 82.2469 432.362 84.8491 430.235C89.2544 426.632 97.5989 422.043 98.4612 415.858C92.0092 416.028 86.279 420.711 81.168 424.543C75.0624 429.121 69.6686 434.124 65.221 440.45C56.2735 453.176 49.6572 468.323 46.4361 483.394C45.9583 485.633 45.8852 488.339 43.8082 489.753C41.6287 491.238 38.1086 491.44 35.6803 491.152C27.9993 490.24 21.5369 487.329 14.376 485.001C12.4262 484.367 9.78833 484.478 8.10669 483.647C6.97135 483.086 6.32347 482.159 5.09492 481.402C3.86092 480.643 2.43981 480.777 1.29119 480.168C0.288542 479.637 -0.18736 478.503 -1.13739 477.987C-3.26429 476.833 -5.99251 480.352 -4.93787 476.411C-5.20705 476.432 -6.99508 477.029 -7.1226 476.949C-7.41303 476.769 -7.34747 475.53 -7.52146 475.193C-7.86007 474.537 -8.55726 474.076 -9.10681 473.615C-10.3187 472.6 -11.7385 471.685 -13.2497 471.193C-16.0523 470.28 -18.331 468.499 -20.3766 467.158C-20.8415 466.853 -21.4302 467.05 -22.0018 466.659C-22.2616 466.48 -22.3295 465.734 -22.564 465.479C-23.9197 464 -25.8324 463.273 -27.4395 462.13C-31.2163 459.443 -34.9336 456.961 -38.1823 453.636C-44.8404 446.821 -52.6037 441.431 -59.3944 434.76C-62.8546 431.361 -66.4733 428.422 -69.6951 424.781C-70.827 423.501 -72.1297 422.416 -73.0097 421.085C-73.85 419.814 -72.9414 419.391 -75.662 419.681C-75.1362 417.018 -75.3699 417.176 -76.903 415.227C-77.4958 414.473 -78.8264 412.689 -79.0573 411.791C-79.0801 411.702 -78.2496 407.667 -78.103 407.199C-77.3865 404.927 -75.5651 402.957 -74.122 401.123C-70.8687 396.987 -67.4231 393.02 -64.5845 388.576C-63.3326 386.615 -62.9649 386.767 -61.4613 385.64C-60.9965 385.29 -60.4979 385.653 -60.0154 384.978C-59.3721 384.08 -59.8583 382.871 -59.0786 381.839C-58.0307 380.451 -55.7218 379.826 -54.3813 378.76C-52.7686 377.475 -51.6856 375.728 -50.2703 374.24C-48.3865 372.261 -46.1567 370.692 -44.2784 368.697C-42.6857 367.008 -41.6884 365.495 -39.6917 364.441C-37.6966 363.39 -37.1344 361.863 -35.3389 360.696C-33.6917 359.626 -32.4642 359.64 -30.8425 358.118C-26.9182 354.437 -22.4153 351.178 -17.5693 349.008C-21.2333 359.762 -24.9508 370.915 -23.4513 382.168C-22.8334 386.801 -21.4965 391.923 -18.2662 395.238C-14.6141 398.987 -9.46425 398.424 -4.6402 396.958C6.85434 393.464 14.9899 386.625 21.9123 376.464C23.6327 373.939 25.2412 371.337 26.8297 368.727C27.5361 367.565 28.8356 364.261 30.1802 363.754C31.6542 363.198 33.5473 365.307 35.1877 365.359C37.205 365.421 40.2731 364.13 40.8044 361.815C43.5478 366.189 45.7408 371.057 49.7876 374.331C51.3895 375.627 53.4363 376.462 55.0429 377.344C54.9948 377.318 56.0714 378.37 56.1348 378.435C56.6797 378.248 57.0704 378.364 57.3062 378.783C57.6024 379.018 57.7196 379.346 57.6584 379.768C63.483 384.343 71.8348 384.976 79.3664 384.824C83.7674 384.735 89.0895 383.856 92.4555 380.427C93.6567 379.204 94.2229 377.697 96.0477 377.831C97.5302 377.939 99.1486 380.135 100.266 380.963C104.198 383.876 108.535 386.006 111.746 389.852C113.706 392.198 114.476 400.529 118.677 397.637C118.953 398.852 117.715 399.932 118.052 401.157C118.346 402.225 120.391 404.127 121.007 405.269C121.962 407.037 122.131 408.7 122.795 410.522C123.61 412.761 125.218 413.901 125.848 416.324C128.03 424.715 131.998 432.288 135.342 440.208C139.31 449.604 141.908 459.378 146.965 468.181C152.139 477.184 157.487 485.348 164.624 492.815C167.862 496.203 171.298 499.489 175.062 502.265C176.837 503.573 178.66 504.615 180.083 506.339C180.947 507.386 181.187 507.788 182.238 508.494C182.851 508.904 183.998 509.084 184.759 509.581C186.32 510.602 187.172 511.037 188.249 512.491C189.467 514.134 190.571 515.356 192.375 516.561C194.451 517.948 196.24 517.859 198.497 518.526C200.316 519.063 201.582 520.142 203.529 520.112C212.185 519.979 220.946 516.988 228.503 512.097C237.179 506.484 246.09 498.601 252.236 490.073C255.755 485.192 257.813 479.572 258.921 473.763C259.234 472.124 259.673 464.585 261.259 464.158C263.059 463.672 264.913 468.529 265.543 469.727C267.544 473.525 272.857 477.667 273.136 482.124C274.419 481.322 276.471 484.986 277.172 486.095C277.752 487.011 277.536 487.878 278.524 488.617C279.456 489.312 280.995 489.109 282.065 489.407C280.172 490.964 282.332 492.444 283.787 493.5C284.834 494.261 286.127 494.813 287.148 495.349C289.102 496.375 289.413 495.945 291.758 495.989C291.222 496.696 290.84 497.476 290.61 498.327C292.767 497.315 294.12 499.802 296.066 499.982C296.084 497.576 300.948 499.959 301.783 500.989C303.883 503.585 299.781 506.104 298.696 508.364ZM14.3596 496.531C16.4781 497.073 18.5787 497.67 20.6873 498.241C18.5204 498.719 15.6376 500.225 13.4888 499.396C10.8977 498.395 11.2896 495.745 14.3596 496.531ZM-73.4351 442.89C-70.6998 445.132 -67.279 446.868 -65.8489 450.378C-68.098 451.147 -69.9477 452.268 -71.5059 450.044C-72.8146 448.177 -72.9358 445.112 -73.4351 442.89ZM-27.6906 590.714C-28.4698 587.618 -27.6882 586.94 -25.2522 585.088C-24.2045 584.292 -21.5497 581.439 -20.6635 583.317C-20.3484 583.982 -21.9239 587.916 -22.2785 588.692C-23.0708 590.424 -26.7871 594.304 -27.6906 590.714ZM-9.86526 586.724C-8.8567 583.579 -6.98366 580.64 -5.92186 577.437C-4.79999 574.053 -3.83678 570.558 -2.19104 567.366C6.90541 575.774 5.90528 590.401 4.64965 602.344C3.98282 608.689 2.9467 615.521 0.442074 621.514C-1.99772 627.354 -6.03 630.424 -10.7447 634.04C-13.1498 635.886 -15.1572 635.792 -17.8859 636.299C-20.3037 636.748 -22.3684 638.767 -24.7608 639.033C-26.5282 639.229 -28.369 638.753 -30.1963 638.925C-32.0016 639.094 -33.8022 639.255 -35.6081 639.338C-37.6729 639.433 -44.2633 640.363 -45.7231 638.37C-46.816 636.878 -44.9736 635.378 -43.8583 634.412C-41.5089 632.375 -39.447 630.288 -37.3258 627.96C-31.6647 621.747 -26.6145 615.213 -21.8215 608.289C-17.1414 601.529 -12.3888 594.604 -9.86526 586.724ZM-38.285 612.94C-38.3462 613.382 -39.5437 616.728 -40.6032 615.223C-41.3393 614.177 -38.7698 613.389 -38.285 612.94ZM40.9302 499.905C42.4854 500.128 41.9752 502.026 43.0163 502.744C44.3981 503.696 45.7551 502.192 47.2775 503.076C51.0002 505.235 53.9229 512.313 55.6555 516.136C52.9745 517.192 51.1183 518.826 50.3264 521.696C49.6294 524.224 50.5676 528.127 49.0654 530.328C47.5575 532.535 44.0162 532.347 41.9359 533.847C40.0247 535.226 37.4217 538.744 39.2375 541.016C42.3596 544.923 48.2947 537.476 51.3651 539.312C52.6775 540.097 52.7291 543.759 53.1531 545.155C54.1023 548.28 55.6253 551.082 57.2966 553.809C58.4256 555.649 59.7021 558.683 62.2878 557.254C64.3597 556.109 65.3045 552.831 65.3026 550.729C65.301 548.318 60.5324 534.302 61.5838 533.988C62.1441 533.821 63.9244 536.364 64.0729 536.891C64.4081 538.079 63.9773 539.401 64.2864 540.637C64.7579 542.522 66.0081 543.934 67.1447 545.381C69.5177 548.399 69.031 553.487 70.8697 557.15C71.9307 559.262 71.7256 561.914 72.2054 564.369C72.8332 567.581 73.4368 570.913 71.2843 573.718C69.7927 575.661 66.4916 580.296 64.3084 581.357C61.9373 582.507 60.4191 580.547 58.3376 579.866C55.9963 579.101 53.3155 579.778 52.2055 582.448C51.0514 585.224 52.8171 586.579 54.74 587.871C60.1615 591.514 55.7697 593.999 55.1136 599.338C54.7579 602.237 55.9555 604.213 58.8027 602.34C61.0937 600.834 61.4479 596.42 63.6284 595.275C66.2852 593.879 72.767 598.768 73.128 601.37C73.4009 603.344 72.8614 605.484 73.094 607.515C73.4478 610.598 72.3173 613.903 71.7239 617.039C71.0932 620.371 70.3051 623.657 69.3696 626.931C68.7123 629.231 67.9956 633.076 66.1297 629.593C64.8268 627.16 64.9503 623.589 62.4297 621.896C59.9357 620.221 56.7151 622.142 55.919 625.068C55.1475 627.898 57.772 631.001 56.6412 633.652C55.4051 636.554 49.4932 636.603 46.9951 637.742C41.2419 640.362 40.5627 646.942 47.7809 646.178C50.3397 645.908 53.8359 644.32 56.3038 644.682C60.2094 645.255 57.0719 650.227 57.3914 652.979C57.5642 654.46 58.477 653.636 57.0861 654.818C56.5732 655.253 55.5922 654.876 55.0704 655.49C54.6897 655.941 54.94 656.463 54.7146 656.855C53.9496 658.184 53.8325 658.377 52.6751 659.619C51.3938 660.995 50.2851 663.009 49.1985 664.544C46.7132 668.049 44.495 671.494 41.8629 674.905C40.3991 676.804 37.4039 680.666 39.0183 683.048C37.3903 683.883 34.0129 686.927 32.6264 685.671C32.2042 686.627 31.4319 687.703 31.8688 688.775C32.3942 688.359 32.9191 687.944 33.4439 687.527C33.1158 689.023 32.6433 688.923 32.0962 689.74C32.7734 688.729 30.3181 690.627 31.0015 690.63C30.3477 690.743 29.6616 690.611 28.7277 690.702C27.4243 690.829 26.3749 691.475 25.1185 691.963C22.8462 692.846 21.871 694.563 19.7079 695.614C16.6397 697.103 13.1566 698.288 10.008 699.725C7.44461 700.894 4.2169 700.473 1.82123 701.955C0.297377 702.897 -0.961219 704.314 -2.70545 704.556C-5.20323 704.902 -8.20382 704.824 -10.8712 705.127C-12.5481 705.317 -14.1737 706.02 -15.8317 706.185C-16.672 706.269 -18.6528 705.647 -19.2137 706.537C-20.955 704.553 -21.0057 701.26 -21.7986 698.779C-22.3282 697.12 -24.2356 694.203 -22.878 692.395C-21.7667 690.915 -18.4774 690.276 -16.9737 688.936C-15.6989 687.802 -13.513 685.566 -13.8917 683.678C-14.6884 679.717 -20.6992 683.386 -22.8521 684.016C-27.2937 685.317 -26.5507 681.667 -27.3609 678.197C-28.6553 672.654 -33.0151 674.835 -34.4606 679.823C-35.1917 682.349 -34.0645 685.715 -35.2844 687.997C-36.6243 690.507 -39.8156 690.191 -41.9823 691.51C-44.027 692.753 -46.4401 695.673 -45.6685 698.244C-44.8179 701.08 -41.9523 700.148 -39.7628 699.394C-38.0622 698.807 -35.3636 696.864 -33.7143 697.69C-31.6491 698.725 -30.8238 704.516 -30.0727 706.614C-32.763 705.901 -35.3835 707.072 -38.0983 707.173C-41.6021 707.303 -45.2813 705.551 -48.75 704.974C-52.0178 704.432 -54.9 703.851 -58.2067 703.646C-62.1299 703.402 -65.9611 701.556 -69.7868 700.772C-73.2021 700.073 -76.7359 699.878 -80.0979 698.961C-83.8875 697.928 -87.5575 696.436 -91.316 695.293C-94.5285 694.315 -98.1994 693.012 -101.035 691.244C-103.903 689.456 -102.655 687.595 -101.988 684.493C-101.196 680.806 -101.347 677.041 -100.662 673.389C-100.011 669.917 -97.6957 669.892 -94.7759 668.75C-92.0246 667.673 -92.2229 667.112 -91.1819 669.728C-89.8109 673.173 -87.3506 672.963 -84.0418 672.06C-81.0991 671.259 -79.4665 670.083 -77.7716 672.986C-76.0744 675.889 -75.0166 679.549 -72.8443 682.11C-71.1323 684.128 -69.2305 684.631 -67.306 682.353C-65.2277 679.891 -65.4667 677.07 -66.277 674.328C-66.895 672.243 -69.0068 668.903 -68.2712 666.605C-67.4964 664.184 -62.7866 662.892 -61.0254 660.745C-58.8029 658.034 -58.6328 655.125 -62.5223 655.53C-65.3445 655.823 -68.6152 658.243 -71.3714 656.795C-68.5868 653.971 -65.1761 652.048 -61.9336 649.892C-59.2189 648.089 -56.4525 645.843 -53.2169 647.477C-52.1675 648.008 -51.5918 648.523 -50.5316 648.932C-49.1306 649.474 -47.3155 650.344 -45.7535 650.819C-42.0778 651.937 -37.676 651.077 -33.8498 651.399C-34.3822 653.726 -36.6157 659.905 -31.9237 658.418C-28.4533 657.319 -28.1349 651.886 -24.6569 650.424C-17.4806 647.406 -11.6868 656.547 -4.95483 656.888C-2.02444 657.037 2.16216 654.281 -0.172444 651.199C-1.53609 649.398 -8.27707 648.675 -8.19488 646.149C-8.1357 644.348 -1.68905 641.202 -0.412703 640.027C3.55999 636.371 6.23157 631.666 9.0774 627.119C10.8401 629.703 12.3552 634.116 14.759 636.095C17.2303 638.129 19.8201 635.043 20.5056 632.381C21.4491 628.713 19.7806 624.178 18.7951 620.818C18.3601 619.337 16.674 616.334 16.9644 614.677C17.2641 612.967 18.4709 612.803 19.8349 612.006C21.9658 610.762 27.3161 607.447 25.8421 604.108C24.486 601.037 20.3627 604.685 18.2627 604.703C14.6992 604.733 16.1562 600.466 16.3295 597.937C16.6442 593.349 16.0182 588.685 15.669 584.16C15.35 580.041 15.2609 577.332 17.2035 573.553C18.6752 570.69 19.4726 568.261 22.8541 569.518C28.8487 571.747 34.9332 579.31 42.14 577.386C45.9196 576.377 45.8729 572.859 42.9386 571.196C39.0842 569.012 35.3935 566.977 31.8214 564.288C29.9227 562.858 25.3998 560.753 25.7726 557.905C26.2526 554.237 31.3317 551.041 30.494 547.039C29.4254 541.929 24.1603 548.67 22.8124 550.597C21.8295 552.001 20.7946 554.426 19.1661 555.153C17.6465 555.831 16.2185 554.914 14.7901 554.609C11.1925 553.84 7.26491 556.747 10.643 559.996C11.779 561.09 13.8531 561.832 14.2901 563.551C14.7486 565.349 13.1052 567.008 12.2955 568.539C11.6872 563.455 5.08769 561.408 2.18452 557.845C0.656001 555.968 0.878681 554.881 1.32187 552.356C1.85864 549.3 1.53353 544.808 3.13378 542.059C4.49288 539.725 7.35072 539.118 9.41593 537.665C11.1879 536.42 13.5571 534.07 14.6404 532.104C17.2529 527.365 6.607 527.209 3.91948 527.966C-0.957167 529.34 -7.08942 531.226 -8.34494 536.71C-9.46603 541.603 -10.1519 544.346 -14.7957 540.999C-16.4953 539.774 -20.4524 537.82 -21.326 536.158C-21.9747 534.925 -20.9238 534.099 -19.9906 532.533C-19.1815 531.178 -17.818 529.209 -17.8881 527.537C-18.1374 521.657 -25.2042 531.477 -27.4838 531.594C-31.0459 531.777 -35.1532 526.677 -37.9695 532.076C-40.4332 536.799 -33.5979 538.519 -34.4494 543.377C-34.8606 545.717 -36.3809 547.788 -36.5542 550.185C-36.8012 553.602 -35.0428 554.513 -32.4667 552.402C-30.6579 550.919 -30.2925 548.459 -28.6957 546.99C-26.388 544.867 -23.1897 547.199 -20.9489 548.198C-18.2258 549.413 -15.6219 550.104 -12.7259 550.77C-9.15175 551.591 -10.3564 553.161 -11.3921 555.878C-12.5931 559.03 -13.4378 562.265 -14.6999 565.438C-15.8763 568.394 -16.3789 572.057 -17.8312 574.843C-18.9422 576.973 -19.4689 576.385 -21.7727 576.574C-24.291 576.78 -28.2637 578.925 -30.5983 578.225C-34.1101 577.173 -32.5407 567.95 -37.6156 569.995C-39.7946 570.873 -41.4884 574.586 -41.6971 576.772C-41.9742 579.658 -40.3022 581.484 -43.573 582.942C-46.0311 584.036 -48.5492 584.5 -50.2623 586.971C-51.8537 589.265 -51.7519 592.441 -48.9693 593.216C-46.7221 593.843 -44.2991 592.466 -42.0718 592.102C-38.2283 591.475 -37.4562 594.768 -35.6903 597.59C-34.3008 599.812 -31.0256 602.744 -31.4531 605.655C-31.9952 609.349 -34.3272 609.449 -36.1753 607.145C-37.2827 610.962 -39.6727 612.086 -42.1016 615.227C-44.0681 617.769 -46.2025 619.884 -48.2141 622.274C-50.8978 625.465 -50.7123 625.052 -54.1514 623.066C-57.0735 621.377 -59.8011 619.555 -62.5724 617.634C-65.0135 615.941 -66.8772 615.114 -64.9565 611.794C-64.1091 610.329 -60.2212 605.996 -63.2268 604.927C-65.8732 603.985 -67.9841 608.847 -69.8065 610.029C-72.444 611.741 -73.8845 609.811 -76.3749 609.083C-78.909 608.341 -81.7151 608.954 -82.8058 611.931C-83.9699 615.111 -81.4432 616.42 -79.7599 618.378C-77.1675 621.392 -81.0456 626.017 -80.8901 629.945C-80.826 631.548 -80.7295 633.188 -78.8654 633.072C-75.4472 632.858 -75.0899 627.333 -73.169 625.652C-71.1491 623.883 -69.2173 625.713 -66.9503 626.739C-63.6045 628.253 -59.3779 628.682 -56.317 630.625C-58.094 632.155 -60.4362 632.225 -62.2817 633.851C-63.2711 634.724 -64.2264 636.911 -65.2232 637.52C-66.2946 638.174 -67.9724 637.52 -69.4213 638.457C-71.3181 639.682 -72.7314 641.383 -74.744 642.486C-79.5029 645.097 -84.0069 647.991 -88.8814 650.472C-93.9152 653.034 -99.0166 655.279 -104.344 656.896C-109.513 658.467 -109.363 656.233 -110.182 651.792C-110.514 649.985 -111.916 647.257 -111.135 645.358C-110.365 643.486 -108.194 642.924 -106.617 641.995C-104.526 640.764 -100.847 638.696 -99.8937 636.245C-98.103 631.642 -103.908 633.279 -106.174 634.003C-110.131 635.269 -113.173 637.3 -115.28 633.025C-116.629 630.288 -117.073 624.828 -120.823 624.397C-124.236 624.005 -125.767 628.087 -125.299 630.936C-125.037 632.532 -124.115 633.929 -123.757 635.494C-122.987 638.865 -124.511 638.695 -126.912 640.429C-128.876 641.849 -131.33 645.521 -130.898 647.999C-130.047 652.873 -123.94 647.937 -121.259 649.438C-119.987 650.15 -117.115 656.96 -117.56 658.485C-118.343 661.161 -125.574 660.415 -127.712 660.563C-132.684 660.906 -137.993 661.106 -142.868 660.345C-148.623 659.448 -141.408 655.442 -142.615 651.855C-144.185 647.189 -148.973 654.283 -150.431 655.877C-154.31 660.117 -159.117 657.282 -163.675 656.082C-166.577 655.319 -169.51 654.601 -172.376 653.723C-174.807 652.978 -177.13 651.506 -179.581 650.934C-181.731 650.432 -183.712 650.905 -185.701 649.679C-186.348 649.282 -186.761 648.698 -187.372 648.294C-188.603 647.477 -190.231 647.525 -191.378 646.696C-193.285 645.318 -191.998 645.189 -191.761 643.269C-191.538 641.467 -192.871 639.919 -193.885 638.678C-196.795 635.119 -200.552 634.29 -197.944 628.932C-197.143 627.288 -192.962 621.091 -196.166 620.116C-199.908 618.974 -201.802 628.265 -204.97 628.906C-206.511 629.219 -207.685 627.847 -209.021 627.389C-211.213 626.636 -213.019 627.658 -215.049 626.242C-216.762 625.05 -217.882 623.18 -218.9 621.382C-220.417 618.702 -222.641 616.163 -223.367 613.067C-224.363 608.824 -222.979 604.053 -221.896 599.836C-220.299 593.626 -217.77 588.025 -214.635 582.428C-213.542 580.477 -213.457 578.671 -212.684 576.738C-211.861 574.681 -210.643 574.928 -209.32 573.32C-208.034 571.756 -207.003 569.871 -205.527 568.257C-203.405 565.936 -201.558 563.359 -199.446 561.021C-195.952 557.155 -192.079 553.568 -188.42 549.859C-187.284 548.706 -184.057 544.753 -182.255 545.307C-180.926 545.716 -179.432 549.177 -178.709 550.371C-177.281 552.732 -176.398 555.31 -174.621 557.438C-173.705 558.536 -172.227 559.409 -172.187 561.028C-172.126 563.589 -175.314 566.533 -176.16 568.985C-177.195 571.986 -175.884 574.358 -172.618 572.738C-170.877 571.873 -170.058 570.056 -168.971 568.576C-167.405 566.442 -167.03 565.924 -164.861 567.491C-162.666 569.079 -161.008 571.406 -158.728 572.989C-156.673 574.416 -154.505 575.686 -152.31 576.888C-146.981 579.804 -141.719 581.852 -135.672 582.911C-131.576 583.628 -125.973 583.098 -122.438 585.453C-117.448 588.777 -121.974 592.95 -123.636 597.151C-124.647 599.708 -125.47 608.985 -120.52 604.136C-118.072 601.737 -117.761 596.201 -114.822 594.491C-111.349 592.47 -107.084 598.62 -103.994 599.583C-101.494 600.361 -95.8674 599.349 -95.6242 595.59C-95.5087 593.809 -97.0613 593.189 -98.2427 592.31C-100.482 590.647 -102.607 588.837 -104.714 587.006C-105.912 585.964 -107.868 584.57 -107.376 582.603C-106.959 580.934 -102.592 578.66 -101.302 577.621C-97.0337 574.178 -94.2501 570.947 -91.2446 566.16C-89.8916 564.003 -88.3336 561.807 -87.321 559.469C-86.9507 558.612 -86.4489 555.37 -85.4668 554.943C-84.1458 554.369 -83.5312 556.532 -83.4359 557.641C-83.2485 559.849 -83.5655 559.483 -85.1801 560.638C-87.5569 562.337 -92.3963 565.99 -90.3884 569.699C-88.2895 573.578 -83.2157 568.086 -80.5611 570.698C-79.3238 571.915 -79.1713 574.826 -78.6048 576.495C-77.9415 578.45 -77.2124 580.539 -76.0441 582.215C-74.1279 584.964 -70.6679 585.968 -69.522 581.79C-68.6183 578.494 -69.8003 574.524 -70.4527 571.379C-71.4922 566.367 -70.5326 565.136 -66.1488 562.743C-64.3145 561.742 -56.8776 557.269 -60.406 554.319C-62.2724 552.757 -66.7035 554.92 -68.6329 555.602C-71.9441 556.771 -73.6322 557.106 -75.2186 553.51C-76.7694 549.995 -77.0641 547.683 -80.2184 545.475C-83.8467 542.934 -81.7589 535.847 -81.8082 531.505C-81.9433 519.711 -87.6079 510.373 -90.545 499.563C-91.9765 494.295 -91.6979 488.749 -91.861 483.264C-91.9387 480.652 -92.5695 478.127 -92.3158 475.493C-92.1563 473.836 -91.9606 469.724 -90.5837 468.513C-88.8697 467.005 -85.165 467.731 -83.1022 467.2C-81.371 466.754 -79.9568 465.733 -78.5784 467.18C-77.3517 468.468 -77.3602 471.408 -76.748 473.085C-76.1474 474.731 -75.3552 476.405 -74.4824 477.901C-72.9042 480.606 -70.4791 483.043 -67.9921 479.376C-65.8396 476.204 -66.4295 470.995 -67.0575 467.553C-67.5145 465.048 -68.8505 462.283 -66.9776 459.932C-66.0497 458.765 -63.6547 457.154 -62.4139 456.466C-58.1405 454.096 -53.4051 460.138 -50.2248 462.452C-46.394 465.241 -41.5257 467.285 -40.2402 472.313C-39.8213 473.953 -38.6301 477.404 -38.9822 479.1C-39.393 481.075 -40.8132 481.189 -42.3233 482.404C-44.275 483.973 -47.232 487.633 -46.0931 490.27C-44.1915 494.672 -38.1636 488.919 -35.6226 492.594C-33.2134 496.078 -33.4625 501.602 -30.1024 504.605C-25.7044 508.534 -24.4188 500.242 -24.9197 497.252C-25.5704 493.374 -28.2443 488.112 -24.5327 485.304C-23.4724 484.501 -21.1799 482.877 -19.9466 482.739C-17.5308 482.468 -15.3699 484.8 -13.5354 485.977C-8.90509 488.95 -4.24572 491.295 0.870473 493.283C2.41285 493.882 2.85697 493.869 3.14039 495.576C3.53356 497.937 2.99984 500.36 3.62826 502.832C-0.261993 504.024 -5.53631 505.004 -6.47603 509.999C-7.28541 514.296 -3.26303 514.457 -0.104236 513.868C1.37873 513.591 3.49827 512.368 4.96329 512.801C6.8651 513.364 7.69924 516.078 8.52449 517.706C9.76319 520.152 11.7913 526.374 15.3664 525.688C20.0951 524.781 19.1748 518.386 18.1898 515.381C17.5935 513.564 16.398 511.785 16.1522 509.848C15.824 507.27 16.7993 507.532 18.6059 506.524C21.9119 504.682 23.611 500.706 27.4601 500.059C29.5944 499.7 32.0347 500.162 34.1602 500.25C36.2521 500.335 38.9987 499.627 40.9302 499.905ZM59.2953 526.617C58.9404 525.845 58.5855 525.074 58.2313 524.303C60.0556 524.446 60.9099 525.1 59.2953 526.617ZM71.1093 581.553C72.1732 580.392 74.5876 578.637 75.121 580.679C75.4655 581.992 72.696 584.381 75.2027 584.81C74.1239 586.761 72.9113 585.779 73.7974 588.67C71.5434 586.837 68.0959 584.844 71.1093 581.553ZM-123.31 681.241C-121.588 679.858 -119.878 677.115 -118.995 679.916C-117.556 677.839 -113.782 670.756 -110.324 673.304C-108.914 674.343 -109.805 675.729 -110.171 677.185C-110.811 679.723 -110.863 682.367 -111.125 684.942C-114.825 682.843 -118.981 681.469 -123.31 681.241ZM-137.398 706.369C-136.381 709.322 -134.119 708.003 -131.727 708.502C-129.519 708.963 -127.906 710.525 -125.625 711.299C-122.796 712.259 -119.949 714.164 -117.527 715.648C-116.93 716.014 -115.752 716.891 -115.199 717.34C-114.191 718.158 -114.44 718.338 -113.513 719.372C-113.009 719.538 -112.519 719.735 -112.043 719.965C-111.482 720.281 -111.204 720.792 -111.207 721.497C-110.417 722.496 -109.896 722.486 -109.082 723.35C-107.143 725.407 -106.348 727.985 -106.075 730.914C-105.517 736.877 -109.22 742.996 -112.416 747.945C-113.326 749.354 -114.313 750.705 -115.054 752.216C-115.734 753.6 -116.105 756.104 -117.265 757.178C-119.023 758.802 -120.393 757.331 -122.366 756.218C-123.527 755.563 -125.142 755.637 -126.084 755.144C-126.995 754.667 -127.13 754.105 -127.877 753.344C-129.827 751.358 -133.025 750.447 -135.707 749.699C-138.459 748.931 -140.918 748.333 -143.577 747.345C-145.308 746.701 -146.799 746.018 -148.474 745.257C-149.848 744.633 -150.842 745.005 -152.132 744.607C-153.375 744.222 -154.15 743.147 -155.365 742.696C-157.022 742.082 -158.765 742.594 -160.461 742.331C-162.798 741.968 -165.003 738.943 -167.345 740.87C-166.193 738.319 -168.7 737.639 -170.138 736.45C-172.509 734.489 -174.278 731.653 -176.269 729.306C-177.901 727.382 -181.207 716.991 -184.075 718.573C-183.92 718.329 -182.805 717.093 -182.918 716.799C-183.315 715.762 -183.504 716.077 -184.092 715.216C-184.991 713.899 -185.207 713.083 -185.52 711.615C-186.155 708.648 -187.96 706.173 -188.796 703.317C-190.901 696.142 -187.095 686.456 -184.473 679.697C-187.781 681.619 -184.92 678.286 -183.889 677.219C-181.453 674.704 -181.353 672.775 -179.778 669.859C-178.329 667.176 -176.911 667.354 -174.567 668.446C-171.679 669.791 -168.808 670.942 -165.735 671.869C-162.8 672.755 -159.86 673.521 -156.747 673.577C-153.897 673.628 -151.419 674.498 -148.62 674.734C-145.533 674.994 -142.453 675.163 -139.364 675.467C-137.973 675.604 -130.934 674.755 -130.266 675.493C-128.896 677.008 -132.423 679.146 -133.444 679.647C-136.067 680.935 -138.821 680.57 -141.583 680.684C-144.074 680.786 -152.902 683.132 -147.178 685.925C-143.386 687.776 -138.478 685.294 -139.049 691.266C-139.251 693.375 -138.876 695.403 -140.838 696.485C-143.576 697.992 -147.987 696.767 -150.913 697.104C-153.406 697.392 -160.726 701.523 -157.719 704.339C-156.854 705.148 -155.179 705.85 -153.933 705.488C-153.093 705.245 -152.416 704.086 -151.68 704.021C-150.636 703.927 -149.676 705.453 -148.683 705.665C-147.269 705.967 -146.578 705.463 -145.413 704.544C-144.559 705.914 -145.046 706.731 -143.156 706.836C-142.53 706.87 -141.768 706.035 -141.072 706.12C-140.136 706.236 -140.614 707.479 -140.114 707.564C-138.761 707.796 -138.453 707.296 -137.398 706.369ZM-199.705 641.741C-201.871 640.616 -204.235 639.384 -205.115 636.874C-203.062 638.351 -201.499 640.048 -199.061 640.917C-198.091 641.263 -196.188 641.255 -195.502 642.102C-193.066 645.108 -198.837 642.192 -199.705 641.741ZM-83.8643 443.942C-83.4088 443.146 -77.4845 432.312 -76.7184 438.504C-76.5086 440.198 -78.4339 441.085 -79.3415 442.246C-80.8705 444.201 -81.4979 446.727 -81.5705 449.134C-81.6387 451.379 -80.7445 453.941 -82.3547 455.916C-83.7673 457.648 -86.5447 458.144 -88.3954 459.157C-88.2753 454.189 -86.4211 448.411 -83.8643 443.942ZM-22.5595 329.706C-30.8313 325.739 -39.4838 322.467 -48.4217 320.18C-57.1975 317.934 -66.3001 317.314 -75.3613 316.507C-72.7141 309.128 -70.1447 301.724 -67.477 294.351C-66.1929 290.803 -64.874 287.265 -63.5399 283.733C-62.5918 281.221 -61.6197 276.041 -59.5649 274.272C-58.4759 273.336 -57.9962 273.629 -56.7695 273.397C-56.0209 273.256 -54.5226 272.702 -53.8871 272.78C-52.3396 272.973 -48.9568 274.41 -47.7803 275.257C-46.7078 276.029 -46.4212 276.87 -45.0562 277.246C-43.8936 277.566 -42.5675 277.274 -41.3716 277.407C-38.3299 277.745 -35.176 279.195 -32.3033 280.165C-29.5387 281.098 -26.9752 282.525 -24.2084 283.467C-21.7844 284.292 -19.7388 283.256 -17.9747 284.444C-13.3841 287.536 -7.83117 290.194 -2.42829 291.907C3.63328 293.829 9.14876 297.643 14.5942 300.851C16.7633 302.129 18.5844 302.554 17.0039 305.103C15.074 308.214 11.7363 310.972 9.24985 313.631C3.73582 319.526 -1.45961 325.36 -6.22378 331.869C-8.60618 335.124 -9.76361 334.068 -13.0091 333.493C-16.6205 332.852 -19.2782 331.28 -22.5595 329.706ZM-106.314 373.174C-104.598 374.667 -101.328 368.956 -100.479 367.91C-101.676 379.915 -102.082 391.932 -104.006 403.899C-104.456 406.697 -105.025 409.492 -105.405 412.297C-105.666 414.217 -105.411 417.173 -106.537 418.891C-107.713 420.684 -109.51 420.506 -111.377 420.275C-113.395 420.025 -114.232 420.006 -114.806 418.476C-115.5 416.623 -114.647 412.787 -114.522 410.759C-114.333 407.661 -114.069 404.565 -113.844 401.468C-113.434 395.856 -113.537 390.172 -112.598 384.599C-111.719 379.378 -112.081 374.184 -111.381 368.953C-110.687 363.772 -110.8 358.378 -110.434 353.111C-107.729 353.493 -103.621 352.79 -101.3 354.425C-98.903 356.113 -100.568 358.639 -101.798 360.843C-103.103 363.181 -108.924 370.902 -106.314 373.174ZM-126.13 418.386C-128.162 419.116 -131.244 418.362 -133.309 418.179C-136.169 417.926 -139.004 417.518 -141.868 417.294C-151.265 416.559 -160.437 415.53 -169.777 414.411C-174.605 413.832 -179.457 413.392 -184.322 413.073C-186.871 412.907 -193.322 413.874 -195.573 412.592C-198.153 411.123 -194.81 405.652 -194.088 403.267C-193.487 401.27 -193.519 399.402 -193.089 397.422C-192.912 396.613 -192.414 396.228 -192.366 395.347C-192.31 394.345 -193.085 393.024 -193.274 392.01C-194.078 387.706 -193.984 382.925 -194.18 378.519C-194.36 374.483 -195.467 368.878 -194.238 364.84C-191.821 356.902 -178.814 359.812 -173.03 359.635C-162.903 359.326 -152.661 358.908 -142.535 357.86C-137.923 357.382 -133.316 356.768 -128.701 356.321C-126.548 356.114 -119.798 354.286 -118.903 357.002C-118.569 358.015 -119.555 359.619 -119.789 360.638C-120.3 362.863 -120.338 365.062 -120.391 367.312C-120.435 369.306 -120.145 371.578 -120.619 373.537C-121.184 375.873 -121.899 376.949 -121.805 379.421C-121.633 383.917 -122.897 388.189 -122.914 392.651C-122.931 396.955 -122.515 400.398 -123.425 404.648C-123.945 407.085 -123.91 409.558 -124.046 412.013C-124.112 413.172 -124.146 414.33 -124.28 415.487C-124.518 417.559 -124.237 417.706 -126.13 418.386ZM-203.605 406.805C-205.619 406.996 -206.526 403.989 -207.832 403.138C-208.399 402.768 -209.269 402.89 -209.645 402.637C-210.776 401.878 -211.2 400.458 -212.02 399.407C-215.806 394.552 -221.609 390.825 -223.528 384.578C-227.341 372.166 -214.328 360.199 -206.953 351.785C-205.449 350.069 -203.238 347.773 -203.701 345.308C-204.208 342.605 -207.224 342.141 -209.538 342.622C-211.911 343.115 -214.166 344.475 -216.438 345.363C-220.058 346.778 -223.766 347.935 -227.468 349.034C-240.62 352.938 -255.013 357.815 -268.537 358.257C-274.162 358.441 -280.002 359.806 -285.611 359.118C-292.357 358.292 -281.103 352.226 -279.206 351.282C-266.794 345.11 -252.888 342.777 -239.872 338.685C-237.416 337.912 -234.003 336.935 -232.482 334.56C-230.196 330.994 -233.361 329.461 -236.327 328.991C-239.102 328.552 -241.653 330.186 -244.408 330.668C-247.838 331.268 -251.405 331.264 -254.845 331.327C-262.264 331.466 -269.663 330.848 -276.998 330.169C-280.429 329.851 -283.855 329.497 -287.282 329.144C-288.223 329.047 -294.349 329.275 -292.577 326.901C-292.338 326.583 -287.364 324.735 -286.943 324.814C-284.841 325.21 -285.252 327.729 -282.113 326.056C-279.883 324.868 -279.132 323.997 -276.743 323.533C-276.337 323.454 -275.781 322.959 -275.327 322.696C-275.445 322.828 -273.553 322.352 -273.902 322.422C-273.423 322.326 -272.659 322.078 -272.201 321.89C-269.992 320.981 -267.707 322.367 -265.505 321.127C-264.665 320.654 -264.312 319.597 -263.395 319.18C-262.111 318.595 -260.393 319.079 -259.069 318.686C-257.933 318.347 -257.001 318.075 -256.3 317.871C-255.817 317.731 -255.18 317.82 -254.616 317.667C-253.214 317.285 -252.777 316.443 -251.132 316.414C-249.654 316.389 -249.571 317.33 -248.149 315.866C-247.42 317.544 -246.777 316.16 -245.683 315.566C-244.26 314.793 -243.069 314.796 -241.598 314.513C-238.361 313.889 -234.669 312.255 -231.428 310.948C-223.37 307.696 -215.507 302.918 -209.536 296.247C-208.109 294.652 -206.807 292.951 -205.55 291.215C-204.888 290.303 -203.725 287.799 -202.588 287.21C-200.825 286.297 -199.559 287.89 -197.925 288.03C-197.37 288.078 -196.557 287.702 -196.073 287.804C-195.395 287.948 -194.843 288.568 -194.149 288.731C-193.879 288.795 -193.389 288.127 -192.965 288.268C-192.133 288.542 -191.592 289.272 -190.886 289.729C-189.339 290.728 -187.614 291.398 -185.785 291.802C-184.12 292.17 -182.286 291.774 -180.678 292.224C-180.842 292.178 -178.591 293.868 -178.63 293.645C-178.124 293.09 -177.618 292.534 -177.111 291.978C-176.631 293.218 -174.11 296.035 -173.059 296.478C-171.369 297.191 -170.766 295.508 -170.682 298.267C-169.515 298.041 -168.348 297.814 -167.182 297.588C-168.192 300.442 -163.589 301.631 -161.934 302.86C-159.603 304.592 -157.361 305.308 -155.697 307.622C-153.674 310.439 -152.023 313.105 -149.284 315.242C-147.369 316.735 -147.163 318.298 -145.555 320.189C-143.395 322.729 -143.771 323.804 -146.459 326.224C-148.638 328.185 -150.382 329.658 -150.918 332.734C-151.868 338.191 -148.176 342.994 -146.954 347.942C-157.641 348.852 -168.181 349.731 -178.851 351.151C-183.321 351.745 -187.981 352.226 -191.952 354.843C-195.617 357.26 -199.041 360.777 -202.239 363.818C-209.573 370.788 -207.059 380.142 -203.168 387.662C-202.363 389.218 -200.962 406.556 -203.605 406.805ZM-221.879 409.34C-221.314 407.47 -220.99 407.08 -219.19 407.408C-218.509 407.533 -216.241 408.558 -216.405 409.571C-216.776 411.868 -220.787 409.325 -221.879 409.34ZM-88.1592 331.922C-89.8616 335.79 -91.573 339.654 -93.3357 343.495C-94.3108 345.617 -94.8209 347.715 -97.1139 348.34C-98.4161 348.695 -100.496 347.83 -101.767 347.657C-103.602 347.409 -105.458 347.277 -107.315 347.187C-110.626 347.027 -113.706 346.25 -116.901 345.975C-118.289 345.854 -119.577 346.524 -120.945 346.685C-122.818 346.906 -124.64 346.443 -126.521 346.591C-129.886 346.854 -133.254 347.551 -136.624 347.827C-140.443 348.141 -140.594 347.177 -140.26 343.392C-139.959 339.994 -140.798 337.833 -141.424 334.63C-141.666 333.385 -141.494 327.262 -139.019 328.275C-138.385 328.534 -136.983 330.692 -136.72 331.267C-136.319 332.141 -136.822 335.363 -136.295 335.753C-135.347 336.455 -132.168 334.216 -131.046 333.805C-123.691 331.108 -115.963 328.723 -108.372 327.088C-104.437 326.24 -100.511 325.681 -96.5367 325.497C-93.7106 325.366 -90.7924 324.53 -88.0377 324.452C-87.3884 324.328 -86.7516 324.348 -86.127 324.512C-84.8035 324.653 -84.6892 325.317 -85.7833 326.504C-86.0246 328.182 -87.4617 330.339 -88.1592 331.922ZM-174.324 271.522C-172.658 271.063 -170.868 270.983 -169.252 270.32C-168.341 269.946 -167.259 268.933 -166.427 268.842C-164.979 268.685 -163.812 269.906 -162.042 269.587C-160.332 269.278 -158.632 268.69 -156.924 268.328C-153.223 267.544 -149.56 266.987 -145.877 266.135C-143.785 265.652 -141.389 264.824 -139.713 264.688C-139.269 264.652 -138.72 264.529 -138.289 264.557C-137.368 264.617 -137.262 265.209 -136.04 265.492C-135.232 265.68 -134.195 265.077 -133.395 264.984C-131.493 264.764 -129.591 265.397 -127.761 265.186C-125.93 264.974 -124.396 263.828 -122.208 264.065C-119.562 264.354 -118.526 266.083 -115.881 265.122C-114.802 264.731 -114.034 263.867 -112.791 263.972C-111.294 264.098 -110.687 265.339 -109.19 265.354C-108.182 265.363 -107.097 264.737 -106.038 264.72C-104.144 264.69 -102.595 265.531 -100.659 265.24C-99.0253 264.994 -99.6739 264.718 -98.1738 265.122C-97.5146 265.299 -96.8547 265.611 -96.1283 265.765C-93.8022 266.259 -90.1805 267.348 -87.8561 266.127C-87.8432 267.372 -87.7608 267.675 -86.6646 267.977C-85.9154 267.859 -85.1798 267.672 -84.4573 267.419C-84.4118 268.007 -84.1078 268.231 -83.5463 268.09C-81.0879 268.605 -78.4643 268.49 -76.0575 269.021C-75.8793 269.356 -75.7015 269.692 -75.5239 270.028C-75.1501 270.293 -74.8662 270.189 -74.6708 269.714C-73.8014 270.047 -72.6814 270.241 -71.7596 270.355C-69.9919 270.573 -67.5321 270.003 -66.2599 271.555C-64.1353 274.146 -67.6847 280.102 -68.6781 282.722C-71.1261 289.177 -73.565 295.635 -76.0071 302.093C-77.0012 304.72 -78.0628 307.33 -78.8842 310.011C-79.4211 311.762 -79.8041 314.601 -81.1637 315.969C-82.831 317.647 -85.0118 317.168 -87.0684 317.139C-89.9026 317.1 -92.7535 317.239 -95.5962 317.457C-107.663 318.384 -119.061 322.912 -130.293 327.845C-130.322 325.48 -131.744 321.295 -133.078 319.402C-134.013 318.076 -135.422 317.791 -136.278 316.352C-136.888 315.325 -137.068 313.952 -137.555 312.837C-140.521 306.022 -144.95 299.152 -150.089 293.969C-160.63 283.332 -175.54 280.251 -188.857 274.882C-184.186 272.827 -179.139 272.847 -174.324 271.522ZM-30.8332 226.216C-24.1012 220.163 -16.0697 215.251 -7.53681 212.89C-3.23501 211.699 1.29471 211.141 5.63209 211.697C9.40479 212.182 13.6976 213.069 10.938 217.377C4.94611 226.728 -2.91111 234.764 -9.06119 244.037C-15.0866 253.125 -18.2834 261.446 -17.7193 272.162C-21.5448 270.912 -25.376 269.676 -29.2218 268.487C-32.1423 267.584 -35.2062 266.704 -37.8614 265.677C-40.4858 264.661 -42.8236 263.607 -45.6703 263.004C-47.5887 262.598 -51.1275 262.813 -52.5795 261.376C-54.9934 258.989 -47.5807 248.625 -46.1029 245.944C-41.93 238.375 -37.257 231.994 -30.8332 226.216ZM11.5963 272.544C18.552 269.962 26.1771 266.643 33.2106 269.757C40.011 272.768 37.2968 282.218 33.5198 287.371C32.2412 289.114 29.0168 293.701 26.8495 294.405C24.4516 295.184 22.789 292.425 21.2032 291.081C14.3596 285.279 5.50348 282.269 -2.04352 277.545C2.50337 275.877 7.05546 274.229 11.5963 272.544ZM30.0378 311.749C32.4043 313.789 34.2273 315.525 30.9671 317.923C24.4384 322.727 18.6778 327.607 16.5366 335.958C14.9014 342.336 16.2226 352.148 20.9146 356.569C22.5583 358.118 25.8017 359.217 25.678 361.981C25.5674 364.443 21.0406 369.198 19.6562 371.142C14.5027 378.384 8.03155 384.721 -0.21675 387.784C-7.55583 390.509 -15.0707 391.533 -17.8503 382.884C-20.1937 375.595 -18.4387 366.276 -15.9033 358.962C-14.5498 355.056 -12.5129 351.59 -10.4782 348.007C-8.67899 344.838 -8.00359 342.537 -4.34297 343.938C-3.3615 344.314 -1.21184 345.734 -0.314876 344.308C0.891187 342.392 -1.92693 341.63 -2.77146 340.966C-6.0307 338.407 -1.67381 335.084 0.411423 332.476C3.96238 328.037 7.82304 323.865 11.6136 319.642C14.8421 316.045 18.1902 310.778 22.0766 307.958C24.3454 306.311 28.4586 310.388 30.0378 311.749ZM27.5939 329.95C29.6197 327.596 31.8669 324.477 35.1792 324.549C38.8192 324.628 38.5345 328.033 38.526 330.956C38.5024 338.708 39.0729 346.334 35.3046 353.618C34.8554 354.486 34.148 356.352 33.0465 356.458C32.554 356.506 32.1821 355.336 31.644 355.055C28.7634 353.546 26.2823 353.09 24.627 349.742C21.3893 343.192 22.7052 335.628 27.5939 329.95ZM38.5703 358.511C41.7956 352.098 42.544 345.089 42.8251 338.146C42.9645 334.724 41.8936 330.216 42.5679 326.93C42.9286 325.17 44.9771 323.992 46.5301 325.816C47.3035 326.725 47.4473 330.624 47.4989 331.975C47.6314 335.445 47.3042 339.018 46.9502 342.496C46.5729 346.212 44.0274 359.126 38.5703 358.511ZM58.974 287.32C62.8483 281.812 66.9761 275.287 73.3863 272.715C78.3551 270.721 84.2489 272.187 89.1071 273.255C95.6521 274.693 102.262 278.42 107.469 282.539C112.053 286.165 113.523 292.079 114.092 297.925C114.67 303.871 113.831 310.536 113.034 316.534C112.834 318.035 112.654 328.352 109.712 326.268C108.546 325.441 109.077 322.254 108.617 320.927C108.257 319.888 107.352 319.422 106.994 318.547C106.61 317.609 107.051 317.239 106.898 316.281C105.837 309.69 100.874 309.997 95.4509 309.724C96.1932 308.121 98.2502 305.566 97.769 303.754C97.1397 301.382 94.1436 302.64 92.3626 303.062C90.7411 303.447 88.3716 304.514 86.7816 304.276C84.7176 303.967 85.739 303.561 84.7013 302.086C82.612 299.116 78.2179 301.285 75.4971 302.443C74.4819 302.875 72.3953 304.262 71.3075 303.87C70.2558 303.49 70.5766 302.708 69.9417 301.947C68.1442 299.796 66.4399 301.129 64.3799 302.819C62.0632 304.72 59.9223 306.607 57.3162 308.106C52.7055 310.758 50.9748 311.496 49.9018 316.939C47.209 315.795 46.4996 315.786 46.7407 312.699C46.9906 309.519 47.9107 307.327 49.7141 304.621C53.486 298.961 54.9945 292.977 58.974 287.32ZM98.7636 350.179C98.2253 356.741 95.5374 364.658 91.9759 370.288C90.2082 373.081 87.8981 376.43 85.0855 378.207C82.3863 379.911 79.1675 379.596 76.2564 379.22C69.2388 378.314 63.1177 374.442 58.0872 369.739C55.4766 367.297 52.3491 365.861 51.0016 362.356C49.9883 359.717 48.5537 356.873 49.6451 353.882C50.1018 352.63 51.0441 351.931 51.6472 350.799C52.0629 350.342 52.3432 349.817 52.4888 349.225C52.2829 348.809 52.0718 348.398 51.8541 347.99C52.1019 346.999 53.1889 346.402 53.5958 345.46C54.0873 344.323 53.8108 342.974 54.0237 341.797C54.6109 338.554 56.2595 337.566 59.3028 337.019C60.0119 336.918 60.7216 336.824 61.4316 336.734C62.3009 336.284 62.7687 336.573 62.8359 337.6C63.7515 338.192 63.5336 338.48 64.695 338.785C67.2395 339.454 70.5429 338.148 73.1616 338.601C74.1793 338.777 75.2118 339.815 76.2523 339.617C77.1821 339.439 77.5203 338.058 78.3728 337.845C81.0934 337.166 82.673 340.413 85.7568 338.88C88.2729 337.629 89.8127 334.582 91.3836 332.356C94.717 335.531 93.9186 340.489 95.8248 344.427C98.0592 342.239 98.1017 342.373 100.943 343.166C98.5098 344.637 98.9562 347.831 98.7636 350.179ZM118.816 324.65C118.913 326.062 117.941 328.809 116.553 328.265L118.816 324.65ZM116.591 335.462C122.42 339.128 121.207 349.362 119.849 355.321C118.371 361.801 115.881 370.119 109.18 373.137C106.61 374.293 104.87 373.458 102.898 371.865C100.522 369.945 99.4528 368.722 102.299 366.412C107.632 362.083 110.599 354.192 110.145 347.489C115.334 349.415 115.245 343.082 113.996 339.951C112.536 336.295 111.883 332.5 116.591 335.462ZM-195.395 537.561C-199.208 540.6 -203.037 543.613 -206.703 546.909C-210.178 550.031 -212.229 554.716 -215.878 557.526C-216.437 556.56 -216.185 555.625 -216.612 554.693C-216.875 554.117 -217.582 553.513 -217.762 552.947C-218.074 551.976 -218.376 548.896 -218.306 547.819C-218.062 544.093 -214.225 540.189 -211.631 537.827C-208.418 534.901 -204.591 532.556 -200.565 531.187C-197.741 530.228 -197.25 531.402 -195.719 533.704C-194.813 535.064 -193.742 536.243 -195.395 537.561ZM-225.05 561.806C-227.634 563.495 -230.887 564.184 -233.589 565.824C-236.426 567.546 -239.156 569.779 -242.206 571.069C-245.313 572.385 -246.542 571.07 -249.434 570.667C-250.472 570.521 -251.234 570.98 -252.215 571.096C-254.053 571.312 -255.772 571.075 -257.606 571.144C-257.016 568.168 -252.262 554.359 -255.98 552.392C-259.212 550.681 -261.583 557.984 -262.35 560.097C-262.999 561.882 -263.614 563.72 -264.052 565.561C-264.495 567.419 -264.32 570.726 -265.969 572.035C-268.066 573.698 -269.865 572.376 -269.833 570.225C-269.807 568.426 -269.1 566.403 -268.794 564.619C-268.525 563.051 -266.591 554.758 -269.278 554.551C-271.865 554.351 -272.977 562.868 -273.284 564.486C-274.024 568.392 -273.563 572.88 -278.243 573.452C-285.346 574.322 -292.95 573.564 -299.954 573.012C-304.042 572.69 -308.136 573.069 -312.188 572.349C-315.951 571.68 -319.552 569.713 -323.329 569.288C-324.259 569.184 -324.046 569.911 -325.215 569.456C-326.195 569.075 -327.444 567.669 -328.389 567.091C-329.954 566.133 -331.593 565.284 -333.014 564.103C-333.814 563.438 -335.163 561.167 -335.909 563.057C-336.915 561.915 -336.558 560.279 -336.938 558.879C-337.276 557.631 -338.05 556.585 -338.582 555.439C-339.681 553.068 -340.207 550.822 -339.322 548.17C-337.244 541.943 -330.957 538.044 -325.185 536.408C-321.874 535.471 -318.451 535.109 -315.198 533.904C-314.056 533.481 -313.014 532.811 -311.798 532.648C-310.31 532.447 -308.904 533.186 -307.44 532.956C-306.351 532.785 -305.529 531.94 -304.437 531.84C-302.823 531.694 -301.759 532.839 -300.044 532.394C-299.064 532.14 -295.204 530.471 -294.837 529.569C-294.407 530.114 -293.977 530.66 -293.548 531.205C-292.079 529.607 -287.767 529.2 -285.787 529.234C-284.785 529.251 -283.382 530.159 -282.546 530.026C-281.433 529.849 -280.669 528.496 -279.605 528.066C-276.554 526.834 -272.492 527.966 -269.339 527.752C-265.327 527.479 -261.228 526.89 -257.253 526.083C-249.218 524.451 -241.296 521.67 -233.864 517.867C-230.87 516.334 -227.952 514.688 -225.232 512.657C-223.558 511.407 -221.081 508.872 -218.899 508.905C-216.646 508.94 -213.73 512.628 -211.988 513.915C-209.43 515.806 -205.158 518.3 -203.634 521.222C-202.004 524.347 -204.881 524.286 -207.335 525.258C-210.927 526.682 -214.112 529.183 -217.062 531.741C-219.332 533.708 -220.946 535.977 -222.97 538.125C-225.11 540.396 -227.297 543.902 -227.595 547.034C-227.889 550.134 -222.145 559.909 -225.05 561.806ZM-356.611 546.028C-357.119 533.97 -344.599 524.623 -334.671 521.352C-322.692 517.405 -310.074 518.866 -297.902 517.178C-283.827 515.225 -269.845 513.979 -255.985 510.031C-248.96 508.031 -242.247 505.336 -235.628 502.044C-230.009 499.248 -224.209 494.469 -218.182 497.329C-224.262 499.675 -228.442 505.922 -234.084 509.24C-240.058 512.754 -246.77 514.586 -253.349 516.043C-267.242 519.119 -281.378 521.055 -295.398 522.802C-302.553 523.693 -309.686 524.84 -316.837 525.761C-323.242 526.586 -329.546 526.774 -335.297 530.54C-345.218 537.037 -353.936 550.406 -348.141 561.862C-352.3 557.833 -356.346 552.292 -356.611 546.028ZM386.115 481.577C386.698 476.838 384.306 473.523 381.981 470.071C379.706 466.693 377.906 463.159 374.688 460.52C373.258 459.346 368.56 457.096 369.866 454.555C370.953 452.438 376.8 453.29 378.816 452.419C381.803 451.129 385.174 448.11 386.361 444.862C387.488 441.782 385.555 439.377 383.556 437.44C377.339 431.416 369.003 427.766 361.415 423.892C363.12 423.125 365.038 422.821 366.733 421.684L366.285 424.936C367.843 423.892 369.439 422.908 371.098 422.054C371.233 423.053 371.368 424.054 371.503 425.052C372.731 421.071 375.775 423.001 377.254 419.923C377.83 418.726 377.428 417.793 377.818 416.785C378.596 414.783 380.585 414.472 380.155 411.895C379.677 409.025 376.546 408.085 374.536 407.067C374.284 406.939 373.621 407.228 373.287 407.076C372.823 406.866 372.971 406.082 372.421 405.785C370.947 404.987 368.959 405.383 367.325 404.859C359.754 402.431 351.367 401.301 343.366 400.141C335.222 398.96 326.905 398.314 318.576 399.248C309.662 400.246 301.556 403.63 293.052 406.64C289.055 408.054 285.051 409.308 281.32 411.484C279.392 412.609 275.304 417.372 273.242 417.146C271.002 416.901 268.15 411.846 266.663 410.312C263.163 406.702 259.31 403.698 254.939 401.247C251.463 399.296 247.963 396.971 244.339 395.318C242.236 394.358 235.95 393.634 234.024 396.02C233.17 397.081 233.8 398.802 233.402 400.048C232.802 401.934 231.036 403.225 230.496 405.154C229.395 409.086 233.168 413.148 235.187 415.867C240.823 423.46 246.973 430.461 252.878 437.796C255.444 440.984 257.113 444.546 258.945 448.221C260.464 451.267 261.768 454.179 257.511 455.45C253.479 456.653 253.097 457.918 251.489 462.046C249.792 466.403 247.584 470.5 246.136 474.959C244.692 479.4 244.191 484.19 241.298 488.034C238.414 491.864 234.245 495.043 230.459 497.838C226.633 500.661 222.682 503.343 218.766 506.026C215.144 508.508 211.37 510.96 207.02 510.263C198.714 508.933 190.603 503.242 184.392 497.95C177.343 491.943 170.537 484.978 165.049 477.415C159.771 470.143 154.741 460.908 152.136 452.084C150.743 447.372 148.644 443.211 146.879 438.669C145.09 434.065 144.656 429.094 143.592 424.257C141.507 414.776 136.948 406.289 131.668 398.49C125.733 389.722 117.023 384.795 108.572 378.958C111.743 376.936 115.228 375.288 117.88 372.488C120.643 369.572 122.425 365.64 124.086 362.038C127.32 355.029 129.327 348.334 128.78 340.696C128.53 337.203 127.656 334.054 124.957 331.881C123.323 330.564 119.15 329.973 118.877 327.573C118.758 326.515 119.818 325.112 120.009 324.021C120.18 323.053 120.037 321.882 120.221 320.829C121.005 316.33 121.167 312.021 121.478 307.48C121.601 305.675 122.29 303.327 122.016 301.571C121.867 300.616 121.353 299.902 121.336 299.261C121.305 298.062 122.016 296.35 122.146 295.1C122.37 292.961 122.302 290.801 121.97 288.713C121.44 285.375 120.211 281.953 118.305 279.262C117.246 277.767 116.284 276.968 114.732 276.119C114.278 275.87 113.621 275.836 113.205 275.525C112.209 274.783 112.625 274.483 111.901 273.77C107.058 268.992 98.4105 266.029 91.7796 264.885C84.7945 263.68 78.4002 263.853 71.6461 267.13C55.0566 275.177 46.2876 293.487 40.6786 310.277C38.9237 308.345 37.2463 306.309 35.4133 304.456C34.2914 303.321 32.4581 302.255 31.7478 300.775C30.1672 297.483 34.9532 294.568 36.6866 291.833C41.0916 284.887 44.8422 272.059 39.9808 264.918C34.9156 257.476 21.0253 260.77 13.6491 262.951C8.91758 264.35 4.28474 266.15 -0.398901 267.737C-3.67159 268.846 -8.38202 270.932 -11.2585 268.306C-17.5327 262.58 -6.3444 249.509 -2.9782 244.831C2.34328 237.436 8.30412 230.27 13.146 222.547C16.0895 217.853 19.296 211.042 14.2521 207.118C7.3099 201.718 -4.23497 204.54 -12.0371 207.388C-32.6112 214.896 -47.25 232.68 -55.705 252.97C-56.9441 255.946 -57.5967 260.163 -61.3684 260.131C-66.3237 260.088 -71.7332 258.555 -76.5897 257.761C-87.4494 255.984 -98.427 255.81 -109.47 255.444C-120.402 255.082 -131.185 254.766 -142.175 256.238C-153.129 257.705 -164.235 259.575 -175.048 262.244C-180.438 263.574 -185.804 265.123 -191.089 266.937C-196.06 268.643 -200.794 271.153 -205.867 272.48C-209.321 273.384 -214.988 273.949 -217.548 277.024C-219.614 279.506 -216.516 284.062 -215.372 286.523C-214.588 288.211 -213.655 288.758 -214.519 290.35C-215.597 292.335 -219.396 294.22 -221.207 295.623C-225.824 299.203 -230.466 301.656 -235.821 303.688C-247.684 308.189 -260.084 310.538 -272.302 313.484C-283.655 316.222 -294.799 318.936 -305.368 324.534C-307.958 325.906 -313.818 328.384 -312.136 332.238C-311.701 333.236 -309.623 335.11 -308.497 335.036C-307.103 334.944 -306.936 333.595 -305.366 333.61C-307.113 335.768 -294.34 337.409 -293.304 337.468C-290.505 337.63 -287.782 337.47 -285.011 337.779C-283.385 337.96 -282.71 337.218 -281.323 337.153C-280.581 337.118 -280.876 337.603 -280.044 337.814C-279.295 338.002 -277.785 338.841 -276.917 338.489C-276.893 338.479 -275.412 337.241 -276.045 337.293C-273.568 337.092 -273.762 339.621 -275.895 340.774C-282.2 344.181 -288.424 345.696 -293.573 351.31C-295.443 353.349 -298.851 357.175 -298.852 360.101C-298.852 360.207 -298.269 360.261 -298.267 360.377C-298.265 360.485 -298.232 361.506 -298.161 361.834C-297.744 363.752 -298.151 364.235 -296.18 365.4C-295.305 365.916 -293.516 366.872 -292.468 366.949C-291.679 367.007 -290.907 366.417 -290.28 366.428C-289.644 366.438 -289.608 366.259 -289.074 366.367C-288.964 366.389 -289.301 367.306 -289.112 367.377C-288.071 367.769 -287.303 367.428 -286.219 367.443C-283.099 367.489 -279.937 367.37 -276.918 367.338C-273.881 367.307 -271.048 366.383 -267.877 366.122C-264.509 365.844 -261.809 365.704 -258.555 364.43C-256.302 363.547 -254.468 363.86 -253.141 363.563C-251.564 363.209 -247.559 360.543 -245.713 361.083C-244.873 361.328 -244.725 362.363 -244.16 362.33C-243.524 362.295 -243.63 361.396 -243.189 361.183C-242.366 360.786 -242.246 360.709 -241.168 360.547C-239.787 360.34 -238.554 360.825 -237.172 360.294C-235.635 359.704 -234.737 358.525 -233.051 358.126C-228.995 357.166 -225.127 355.901 -220.972 355.111C-225.783 360.537 -230.557 365.927 -233.63 372.586C-236.608 379.039 -235.914 383.199 -233.161 389.143C-232.555 390.452 -232.089 392.096 -231.286 393.257C-230.798 393.964 -229.684 394.422 -229.318 394.945C-228.08 396.716 -229.57 397.822 -230.372 399.618C-231.615 402.401 -230.651 405.746 -230.481 408.627C-230.337 411.051 -230.574 416.212 -228.941 418.04C-227.466 419.69 -224.355 418.499 -222.253 418.478C-219.083 418.446 -215.969 418.951 -212.842 419.26C-206.735 419.866 -200.506 419.927 -194.367 420.368C-191.564 420.569 -189.153 421.446 -186.474 422.119C-183.256 422.928 -179.936 422.701 -176.661 423.178C-170.774 424.034 -164.835 424.377 -158.912 425.113C-146.654 426.64 -134.401 430.087 -121.805 428.749C-116.107 428.143 -110.986 430.904 -105.396 430.349C-99.5698 429.769 -99.07 423.618 -98.4179 418.84C-96.6374 405.784 -92.7598 393.495 -93.2764 380.263C-93.5447 373.388 -93.4622 366.508 -93.1202 359.592C-92.8161 353.472 -89.5504 348.369 -86.9804 342.85C-85.2638 339.161 -83.5114 335.474 -81.8983 331.741C-80.8724 329.369 -80.2298 325.973 -77.7125 324.816C-75.0077 323.574 -71.1576 324.734 -68.383 324.922C-64.935 325.155 -61.5028 325.233 -58.0908 325.739C-50.2936 326.897 -42.6851 329.083 -35.2392 331.469C-33.0187 332.181 -22.639 333.828 -22.3564 336.846C-25.1314 337.018 -27.2499 339.158 -29.4458 340.754C-32.7168 343.133 -35.9353 345.336 -38.9558 348.084C-45.1992 353.767 -51.2236 359.74 -57.1745 365.748C-63.0835 371.713 -69.3263 377.545 -74.2814 384.398C-76.8112 387.896 -78.9304 391.655 -81.2246 395.306C-83.6722 399.202 -86.8228 402.555 -89.1353 406.55C-90.673 409.206 -92.4242 412.458 -92.39 415.567C-92.358 418.447 -90.2593 420.08 -88.9932 422.402C-87.3228 425.466 -86.7006 426.717 -88.6519 429.887C-90.9258 433.583 -93.4091 437.055 -95.388 440.932C-102.281 454.432 -107.77 472.135 -105.937 487.036C-105.815 488.027 -103.404 518.77 -99.7579 516.773C-99.5123 519.019 -98.0833 520.679 -97.4439 522.904C-96.4393 526.4 -95.2186 529.456 -94.9187 533.195C-94.3721 540 -94.8425 547.278 -97.6952 553.756C-100.151 559.33 -104.421 565.16 -109.886 567.903C-115.367 570.655 -122.966 569.955 -128.693 569.414C-136.223 568.703 -142.239 565.386 -148.009 560.772C-150.856 558.495 -153.554 556.033 -156.273 553.601C-157.404 552.59 -158.882 551.663 -159.762 550.401C-160.706 549.048 -160.763 548.169 -162.005 547.297C-162.933 546.645 -163.6 546.545 -164.473 545.683C-165.553 544.616 -166.597 543.252 -167.634 542.124C-168.785 540.869 -169.586 539.608 -170.428 538.1C-171.208 536.705 -172.467 535.741 -173.224 534.408C-174.528 532.11 -174.022 529.95 -177.305 529.268C-180.771 528.548 -181.814 531.521 -184.728 532.183C-187.319 532.772 -188.377 530.066 -189.375 528.127C-190.843 525.274 -192.548 522.598 -194.379 519.988C-196.357 517.168 -198.485 514.46 -200.794 511.926C-203.32 509.154 -206.576 506.88 -208.745 503.788C-210.652 501.072 -210.442 498.258 -211.082 495.105C-211.754 491.789 -213.937 489.319 -216.79 487.791C-221.986 485.009 -229.001 488.646 -234.141 491.003C-248.502 497.588 -262.602 502.032 -277.938 504.667C-285.265 505.925 -292.796 506.181 -300.068 507.695C-303.135 508.334 -305.606 509.187 -308.732 509.135C-312.839 509.067 -316.956 509.628 -321.076 509.872C-337.187 510.823 -352.595 517.256 -358.953 534.27C-361.815 541.927 -362.027 548.428 -359.405 555.755C-358.215 559.081 -357.029 561.97 -353.966 563.738C-351.075 565.407 -348.514 566.864 -347.925 562.219C-346.252 564.24 -345.566 567.072 -343.816 569.398C-341.798 572.078 -338.741 574.874 -335.961 576.7C-331.51 579.624 -324.607 580.4 -319.98 581.794C-318.686 582.184 -316.248 583.023 -314.293 582.699C-312.739 582.442 -312.301 581.26 -310.523 581.789C-308.193 582.482 -307.84 583.598 -305.132 583.501C-301.203 583.358 -297.516 584.121 -293.575 584.189C-288.267 584.281 -282.923 583.984 -277.606 583.985C-278.038 585.806 -280.633 596.606 -276.092 593.46C-272.137 590.72 -275.352 584.244 -269.803 582.438C-264.51 580.716 -266.258 584.915 -264.371 588.433C-261.753 593.317 -259.639 588.58 -259.21 585.259C-259.038 583.93 -259.062 581.751 -258.015 580.732C-255.994 578.763 -255.092 581.225 -253.86 582.327C-251.919 584.061 -249.761 584.521 -247.151 583.982C-244.975 583.532 -242.019 583.817 -240.122 582.616C-239.173 582.014 -238.362 580.88 -237.449 580.182C-236.245 579.262 -236.105 579.755 -235.007 578.367C-234.682 577.496 -234.255 576.676 -233.729 575.906C-233.323 576.052 -232.919 576.198 -232.514 576.343C-232.469 576.295 -231.502 574.806 -231.786 574.94C-231.129 574.631 -230.277 574.86 -229.415 574.399C-228.623 573.974 -228.182 572.487 -227.542 571.802C-226.245 570.415 -224.608 569.667 -223.04 568.687C-225.703 576.17 -230.415 582.763 -233.145 590.209C-235.386 596.322 -235.821 602.787 -235.567 609.109C-235.448 612.039 -234.503 614.658 -234.255 617.527C-234.045 619.955 -234.334 621.798 -233.11 623.921C-232.296 625.333 -231.132 626.526 -230.225 627.872C-229.645 628.734 -228.847 631.527 -228.074 631.971C-228.747 631.585 -226.894 632.832 -227.283 632.477C-227.254 632.504 -226.955 631.455 -226.736 631.613C-225.733 636.11 -222.872 637.91 -220.779 641.624C-219.82 643.326 -219.246 643.618 -217.878 644.881C-216.107 646.517 -215.185 648.802 -213.344 650.136C-210.509 652.191 -207.441 654.703 -204.281 656.518C-203.421 657.012 -201.48 657.421 -201.314 658.619C-201.203 659.41 -204.377 662.646 -204.967 663.473C-211.15 672.143 -215.945 682.306 -217.554 692.774C-218.888 701.453 -220.81 711.506 -218.869 719.987C-216.717 729.387 -211.182 738.527 -204.436 744.921C-196.967 752.001 -187.683 756.012 -178.77 760.844C-169.727 765.746 -160.849 769.464 -150.767 772.018C-141.391 774.392 -131.951 775.747 -122.323 776.97C-115.775 777.802 -107.221 778.455 -105.424 769.664C-104.989 767.538 -104.487 761.185 -108.175 762.166C-111.439 763.033 -110.649 769.036 -110.002 771.29C-126.353 772.632 -141.6 766.918 -156.485 761.702C-164.66 758.838 -171.673 754.352 -178.972 749.815C-185.156 745.971 -191.447 742.297 -197.002 737.535C-202.028 733.227 -207.508 727.617 -208.919 720.691C-210.395 713.445 -211.087 705.463 -210.488 697.951C-209.83 689.707 -206.405 682.491 -202.277 675.314C-200.104 671.536 -197.918 667.7 -195.252 664.243C-193.315 661.733 -191.841 662.213 -189.886 660.497C-189.797 663.604 -188.327 663.396 -185.73 663.239C-186.741 667.432 -189.512 670.711 -191.95 674.162C-194.324 677.524 -196.101 681.327 -197.868 685.035C-200.872 691.338 -202.079 699.118 -201.703 705.943C-201.533 709.028 -199.836 711.348 -198.714 714.107C-197.285 717.625 -195.677 721.073 -194.012 724.47C-190.876 730.866 -186.981 737.093 -181.501 741.191C-179.58 742.628 -178.815 744.679 -176.302 746.032C-174.811 746.835 -173.039 747.213 -171.636 748.15C-170.229 749.089 -169.305 750.35 -167.762 751.157C-161.349 754.511 -153.702 756.313 -146.909 758.926C-139.554 761.755 -132.097 764.511 -124.263 765.912C-120.868 766.518 -117.747 766.512 -114.517 764.719C-112.21 763.437 -110.295 759.747 -107.546 759.837C-107.726 757.189 -107.034 757.174 -104.874 756.258C-103.866 755.832 -100.889 754.897 -102.996 753.629C-100.525 751.09 -99.8077 747.588 -98.462 744.434C-97.8805 743.072 -96.652 741.227 -96.7004 739.711C-96.7293 738.827 -97.4171 738.379 -97.5045 737.686C-97.885 737.435 -98.0793 737.074 -98.0865 736.603C-97.8055 736.097 -97.4042 735.932 -96.883 736.11C-96.3802 735.073 -95.9276 735.842 -95.6486 733.904C-95.2672 731.26 -95.8745 728.369 -96.6375 725.932C-97.287 723.854 -96.9853 721.078 -98.2015 719.425C-99.7842 717.274 -101.424 714.988 -103.152 712.829C-107.067 707.937 -111.616 704.156 -117.485 701.835C-120.173 700.773 -122.889 699.834 -125.715 699.175C-127.368 698.789 -130.239 698.745 -130.594 696.633C-130.717 695.908 -129.104 691.408 -128.782 691.015C-127.492 689.433 -123.783 690.79 -122.214 690.939C-119.814 691.166 -115.821 692.304 -113.524 691.213C-112.561 690.756 -111.085 687.176 -110.969 687.168C-109.857 687.096 -111.56 696.964 -111.019 698.048C-110.238 699.616 -106.04 700.819 -104.634 701.484C-100.441 703.469 -96.3075 705.693 -91.8584 707.09C-83.3269 709.77 -74.2735 711.32 -65.4995 713.175C-48.8079 716.703 -31.596 718.357 -14.294 717.86C-6.21288 717.627 2.49218 716.313 10.2863 713.509C13.8008 712.244 17.0318 710.157 20.5575 708.966C24.6257 707.593 25.4893 704.597 28.7309 701.716C35.2919 695.886 41.8916 690.99 47.7141 684.22C53.7086 677.25 59.1161 669.687 63.6734 661.684C72.68 645.867 81.13 630.814 83.6672 612.688C85.9915 596.077 86.4139 578.69 84.2057 562.35C83.6918 558.552 82.9862 554.799 81.6507 551.258C80.2134 547.447 78.217 543.913 77.277 539.885C76.506 536.58 76.2944 533.123 75.3651 529.862C74.2232 525.86 71.76 522.865 69.6357 519.436C67.5987 516.149 66.0923 512.59 63.9078 509.391C62.578 507.445 61.1859 505.546 59.6272 503.792C58.4753 502.497 56.6174 501.298 55.8187 499.707C54.5544 497.188 54.727 492.271 54.6705 489.397C54.5883 485.204 55.7017 481.083 56.9417 477.045C58.4507 472.131 60.0548 467.241 61.5936 462.336C62.1191 460.66 63.852 454.765 65.894 457.737C66.4915 458.607 66.2707 460.67 66.4796 461.742C66.8737 463.775 67.6347 465.847 68.5742 467.649C70.09 470.556 71.5249 473.812 73.2161 476.221C74.7066 478.343 75.7401 481.322 76.8741 483.709C77.0459 484.072 76.7357 484.755 76.995 485.162C77.6063 486.12 78.9 485.342 79.5468 486.136C80.4304 487.22 79.9063 488.468 79.9656 489.759C80.0514 491.63 80.4545 492.027 81.4134 493.562C82.4798 495.271 82.6818 497.454 83.7196 499.123C84.9813 501.15 89.4138 502.965 87.7679 506.202C91.8293 505.995 92.9721 512.049 93.4897 515.142C97.0903 513.336 98.0959 518.719 101.388 519.432C98.5177 520.713 98.9253 520.663 101.099 522.404C102.934 523.874 103.238 526.023 104.683 528.065C105.684 529.479 106.585 531.369 107.744 532.649C108.84 533.86 110.377 533.645 111.405 534.583C112.113 535.229 112.41 536.445 113.044 537.123C113.847 537.984 115.025 539.155 115.942 540.114C117.057 541.281 118.57 541.797 119.725 542.893C121.072 544.172 121.788 545.989 123.155 547.289C124.679 548.739 126.645 549.638 128.097 551.178C129.422 552.583 130.087 553.66 131.716 554.704C134.145 556.26 136.658 558.315 139.257 559.531C140.642 560.178 141.791 559.926 142.819 561.52C143.505 562.583 143.207 564.352 144.933 564.536C143.912 563.063 146.597 561.497 147.019 564.248C148.01 563.474 148.596 563.062 149.815 563.367C149.15 564.316 148.384 565.207 149.424 566.144C149.94 565.517 150.457 564.892 150.974 564.265C152.219 567.925 152.362 569.032 156.341 568.007C155.76 568.794 154.848 569.525 155.267 570.603C156.329 570.022 157.392 569.443 158.454 568.864C157.497 572.281 162.175 573.823 164.46 574.541C165.346 574.82 167.648 575.825 168.563 575.467C169.199 575.219 169.384 574.83 169.689 574.626C169.96 574.444 169.057 573.015 170.384 573.34C171.383 573.584 170.812 575.932 171.833 576.463C172.742 576.937 174.076 575.585 174.9 575.657C174.978 575.664 174.986 576.593 175.371 576.631C175.967 576.691 176.6 576.259 177.235 576.363C178.611 576.589 179.949 577.585 181.509 577.808C183.487 578.09 185.252 578.74 187.187 579.164C189.64 579.701 191.43 578.862 193.778 578.727C194.328 578.696 194.627 579.102 195.121 579.145C195.786 579.204 196.693 578.931 197.472 579.022C199.915 579.307 201.904 579.706 204.463 579.591C206.744 579.488 209.356 579.992 211.601 579.559C213.469 579.199 215.11 577.994 216.997 577.619C219.707 577.081 225.372 577.824 226.621 574.241C229.18 576.492 231.115 574.953 233.526 573.429C235.819 571.979 238.248 572.635 240.766 571.58C241.854 571.123 243.492 570.571 244.394 569.838C244.931 569.402 244.818 568.526 245.183 568.227C246.865 566.856 249.624 567.523 251.663 566.614C254.258 565.456 256.272 563.198 258.679 561.847C259.152 561.581 259.846 561.681 260.326 561.382C260.634 561.19 260.782 560.328 261.116 560.159C261.911 559.759 262.665 559.92 263.432 559.568C265.289 558.716 266.75 556.767 268.631 555.661C269.094 555.389 270.534 554.718 270.776 554.536C271.591 553.921 271.83 553.331 272.551 552.532C272.769 552.291 274.236 551.032 274.476 550.871C275.226 550.369 275.594 550.456 276.553 549.99C278.954 548.823 281.584 546.276 283.14 544.01C283.8 543.049 284.132 541.835 285.056 541.102C285.854 540.468 287.057 540.522 287.926 539.878C290.205 538.191 292.042 534.937 293.782 532.695C295.677 530.251 298.066 528.168 299.902 525.714C300.791 524.525 300.937 523.071 301.715 521.916C302.609 520.593 303.422 520.751 304.379 519.784C305.472 518.68 305.976 516.936 307.095 515.719C308.137 514.588 309.229 513.62 310.15 512.368C312.552 509.107 314.429 505.298 316.434 501.786C317.211 500.423 317.913 498.933 319.056 497.837C319.976 496.956 321.788 496.461 322.464 495.303C324.55 491.725 320.027 493.121 318.67 491.936C317.093 490.56 319.405 486.149 319.942 484.263C321.255 479.657 322.567 475.051 323.879 470.445C330.198 472.313 335.52 476.247 341.266 479.28C346.911 482.261 352.965 484.306 359.081 486.17C364.245 487.744 369.511 490.079 375.074 490.02C379.744 489.971 385.452 486.966 386.115 481.577Z" fill="#2D4710"/>
<path fill-rule="evenodd" clip-rule="evenodd" d="M129.667 631.069C130.477 624.601 130.584 616.061 126.669 610.737C124.503 607.791 121.615 608.614 120.493 612.307C119.601 615.244 121.103 617.892 121.756 620.619C123.435 627.635 122.117 635.715 119.99 642.654C117.742 649.989 113.812 657.016 109.712 663.5C107.547 666.923 104.823 669.371 102.266 672.421C101.262 673.62 99.1379 676.321 100.035 678.024C102.023 681.798 109.407 673.212 110.869 671.586C116.258 665.591 120.025 659.322 123.24 651.982C126.181 645.27 128.759 638.324 129.667 631.069Z" fill="#2D4710"/>
<path fill-rule="evenodd" clip-rule="evenodd" d="M271.468 384.653C273.889 383.614 274.569 380.464 276.258 378.608C278.027 376.663 280.598 375.185 282.799 373.893C287.553 371.104 292.51 368.546 297.497 366.29C302.646 363.961 308.009 362.587 313.227 360.519C314.993 359.819 317.842 359.024 318.407 357.205C319.322 354.261 317.098 354.583 315.271 354.913C305.284 356.721 295.213 360.354 285.994 365.019C281.618 367.234 277.149 369.861 273.796 373.637C272.064 375.588 270.637 377.861 269.905 380.374C269.445 381.953 268.56 385.902 271.468 384.653Z" fill="#2D4710"/>
<path fill-rule="evenodd" clip-rule="evenodd" d="M148.963 621.294C146.375 618.513 145.672 623.213 145.92 624.958C146.379 628.183 146.362 630.373 145.129 633.519C144.411 635.351 141.806 638.87 142.321 640.937C142.829 642.972 143.43 642.208 144.611 640.827C147.939 636.935 153.14 625.78 148.963 621.294Z" fill="#2D4710"/>
<path fill-rule="evenodd" clip-rule="evenodd" d="M261.084 366.246C262.591 365.798 264.367 360.86 265.269 359.651C266.362 358.187 267.521 357.094 268.858 355.915C269.506 355.343 272.109 353.522 272.025 352.398C271.909 350.84 269.477 351.827 268.619 352.278C265.832 353.749 263.108 357.404 261.703 360.145C261.194 361.137 258.2 367.102 261.084 366.246Z" fill="#2D4710"/>
<path fill-rule="evenodd" clip-rule="evenodd" d="M11.4275 667.79C16.0654 671.326 9.01878 675.95 10.6699 680.576C12.2451 684.988 16.9181 678.455 18.1318 676.515C21.0724 671.813 25.3258 676.894 29.0648 678.151C32.2546 679.225 37.215 678.037 35.5455 673.336C34.3411 669.942 29.8242 668.34 27.362 666.1C24.0254 663.063 26.8266 661.075 28.6832 657.923C29.3642 656.769 31.5331 652.49 30.3623 651.313C28.2173 649.157 23.3461 656.606 22.2786 657.935C17.761 663.561 16.1791 657.421 11.177 658.527C4.6379 659.974 8.66469 665.683 11.4275 667.79Z" fill="#2D4710"/>
<path fill-rule="evenodd" clip-rule="evenodd" d="M76.158 343.018C73.6987 345.226 72.4398 348.43 70.8598 351.259C69.5897 348.427 69.8627 344.963 68.2736 342.28C65.0634 344.905 64.7138 357.94 70.1998 357.029C75.2185 356.195 77.8233 346.731 76.158 343.018Z" fill="#2D4710"/>
<path fill-rule="evenodd" clip-rule="evenodd" d="M77.3555 366.62C75.1803 366.224 73.6822 365.019 71.743 364.3C70.4635 363.825 70.7487 363.044 69.7333 364.34C67.5667 367.107 71.3144 371.048 73.3514 372.264C75.8381 373.75 79.6342 373.667 81.1968 370.643C82.8262 367.493 79.7211 367.05 77.3555 366.62Z" fill="#2D4710"/>
<path fill-rule="evenodd" clip-rule="evenodd" d="M86.5744 355.063C86.2651 353.801 86.2602 349.764 84.6138 349.423C83.3525 349.163 83.2565 350.924 83.1467 351.767C82.7333 354.928 83.631 358.399 84.1602 361.473C82.5445 361.152 79.8299 359.897 79.1479 362.463C78.5224 364.82 81.4788 366.248 83.3247 366.247C89.6497 366.24 87.4649 358.693 86.5744 355.063Z" fill="#2D4710"/>
<path fill-rule="evenodd" clip-rule="evenodd" d="M94.078 353.27C93.54 354.821 92.9053 356.206 91.4237 357.049L92.1859 347.422C88.3072 346.854 87.0954 360.653 90.9284 361.441C93.5785 361.986 95.6235 356.423 96.2521 354.664C96.5887 353.723 97.8048 350.819 96.8992 349.88C95.1186 348.034 94.4739 352.126 94.078 353.27Z" fill="#2D4710"/>
</g>
<defs>
<clipPath id="clip0_278_3270">
<rect width="838.19" height="672.781" fill="white" transform="translate(-199.035 -7) rotate(32.0447)"/>
</clipPath>
</defs>
</svg>
