<svg width="372" height="319" viewBox="0 0 372 319" fill="none" xmlns="http://www.w3.org/2000/svg">
<g clip-path="url(#clip0_606_4198)">
<path fill-rule="evenodd" clip-rule="evenodd" d="M300.083 265.489C301.946 266.585 303.687 266.584 305.519 267.437C307.337 268.283 307.811 271.793 309.366 272.212C302.158 273.079 295.059 274.916 287.763 274.003C288.395 271.059 287.261 268.047 288.78 265.285C292.843 260.89 295.484 262.784 300.083 265.489ZM269.646 63.2025C269.74 65.2719 269.874 66.0943 271.158 67.4293C272.165 68.4752 272.731 66.9159 272.827 68.9587C272.882 70.137 271.811 70.7285 271.396 71.6809C269.33 76.4261 270.756 82.5548 271.772 87.2816C273.831 96.8662 278.86 107.287 275.316 117.029C274.959 118.012 274.672 120.141 273.982 120.893C273.072 120.343 272.407 120.584 271.988 121.614C271.737 121.937 271.485 122.26 271.234 122.583C269.641 124.267 267.946 124.893 265.832 123.998C261.57 122.194 260.866 116.534 260.843 112.078C260.818 107.168 261.733 102.025 262.711 97.2404C263.182 94.9368 263.907 92.2627 262.557 90.0895C261.282 88.0368 259.707 89.194 258.452 88.2777C257.115 87.3024 259.04 80.1344 257.723 78.2337C255.424 74.915 254.623 83.0337 254.586 84.6918C254.546 86.5082 254.632 88.6274 255.381 90.2739C255.969 91.5674 257.884 92.7026 258.212 94.0085C258.52 95.2288 257.172 98.3989 256.964 99.7085C256.644 101.726 256.532 103.788 256.44 105.833C256.13 112.742 257.078 120.014 261.237 125.375C263.061 127.727 266.152 130.396 269.044 129.968C271.596 129.59 274.161 128.014 276.542 126.944C278.143 133.976 280.548 140.786 283.11 147.427C285.337 153.2 287.431 159.112 289.77 164.814C294.701 176.833 302.704 187.071 308.957 198.184C314.994 208.912 318.379 221.223 319.191 233.889C319.383 236.884 318.618 240.982 319.228 243.783C319.8 246.408 320.302 247.548 319.928 250.412C319.512 253.593 318.705 256.527 319.052 259.765C319.359 262.637 320.556 266.916 319.248 269.577C317.676 267.662 316.108 266.761 315.154 264.207C314.186 261.615 314.567 259.485 312.373 258.346C310.499 257.373 309.154 257.585 307.5 255.992C305.491 254.057 304.122 251.692 303.132 248.921C301.442 244.194 301.197 239.068 302.626 234.213C303.771 230.32 307.117 223.033 311.807 225.642C311.11 224.006 310.647 222.227 309.318 221.164C308.16 220.238 306.429 219.937 305.137 218.884C303.692 217.707 302.056 216.451 300.443 215.59C299.817 215.256 299.224 215.088 298.577 214.86C297.801 214.586 296.33 214.783 296.234 214.766C293.463 214.287 290.374 212.762 288.682 210.465C287.409 208.735 286.283 207.121 285.311 205.141C284.049 202.573 283.563 202.728 281.142 202.118C277.623 201.232 275.391 200.628 272.576 197.643C269.454 194.332 267.17 190.207 264.886 186.145C263.547 183.765 262.371 183.62 260.19 182.669C258.922 182.117 257.166 179.644 256.011 179.461C255.678 179.407 254.082 180.238 253.542 180.337C252.577 180.516 251.739 180.484 250.773 180.368C248.554 180.102 246.594 179.43 245.103 177.446C240.51 171.334 239.109 156.928 245.397 151.729C246.596 150.739 248.265 150.283 248.971 148.638C249.782 146.75 249.413 143.193 249.348 141.203C249.274 138.931 249.181 136.459 248.884 134.22C248.748 133.191 248.646 132.758 248.279 131.727C247.55 129.684 247.336 129.981 245.836 129.49C243.695 128.789 242.727 129.065 241.414 126.741C240.367 124.888 239.877 122.553 239.782 120.362C239.694 118.317 240.5 116.428 239.827 114.576C238.841 111.866 237.013 109.815 236.211 106.849C235.535 104.352 233.791 98.7773 235.51 96.4728C236.281 95.4402 237.649 95.289 238.413 93.9071C239.744 91.5009 240.282 90.185 242.258 88.2885C243.715 86.8891 245.115 84.804 246.872 83.9483C248.599 83.1068 250.23 84.4613 251.633 84.09C253.162 83.6846 252.76 79.6302 253.184 77.8043C253.756 75.3424 254.983 72.7758 256.469 70.8548C256.965 70.213 257.584 70.0897 257.97 69.2365C258.494 68.0814 258.286 66.4353 258.694 65.1722C259.181 63.6627 260.364 61.0642 261.686 60.2368C265.548 57.8194 266.708 64.0486 269.646 63.2025ZM260.608 241.964C261.153 243.643 260.852 246.341 261.479 247.786C261.979 248.937 263.984 249.667 264.968 251.04C267.073 253.979 267.875 258.701 267.111 262.33C264.534 261.603 262.811 261.138 260.191 261.521C259.927 254.943 260.174 248.54 260.608 241.964ZM228.761 246.922C230.514 249.158 231.384 251.792 231.131 254.78C231.04 255.844 230.756 257.335 230.482 258.357C230.181 259.478 228.684 261.578 229.265 262.179C227.629 262.067 225.708 262.284 224.529 261.075C223.471 259.99 222.731 257.193 222.302 255.71C223.128 253.826 223.954 251.941 224.78 250.057C225.317 251.032 226.896 253.579 228.2 252.764C229.182 252.151 228.389 248.162 228.761 246.922ZM290.294 229.498C292.301 231.63 292.986 235.473 292.884 238.457C292.917 242.568 291.672 250.798 286.997 251.074C283.24 251.296 279.233 245.144 278.81 241.341C278.347 237.172 279.553 227.203 284.333 226.346C286.093 226.03 289.026 228.151 290.294 229.498ZM256.712 234.815C256.792 237.51 256.831 240.103 256.644 242.789C256.488 245.035 257.008 247.687 256.569 249.838C253.789 246.282 250.128 242.411 250.239 237.185C250.343 232.244 253.923 232.665 256.712 234.815ZM228.699 175.416L231.025 178.331C231.092 182.428 231.021 186.479 232.112 190.429C233.26 194.585 235.183 198.591 237.088 202.349C240.789 209.654 241.672 216.544 242.118 224.897C235.156 221.331 231.36 209.145 229.063 201.522C227.846 197.487 226.585 193.448 225.438 189.388C224.307 185.383 222.307 180.151 223.623 175.932C226.152 178.058 227.246 179.154 228.699 175.416ZM272.081 204.169C275.48 207.26 275.738 211.991 276.958 216.313C276.254 216.956 275.481 217.522 274.846 218.254C274.453 218.707 273.528 220.56 273.227 220.75C272.022 221.511 270.97 220.534 269.794 219.306C267.477 216.887 266.031 211.754 266.14 208.205C266.267 204.058 268.831 201.213 272.081 204.169ZM319.644 186.005C324.063 188.899 322.91 196.907 322.359 201.423C322.013 204.254 322.78 207.134 322.727 209.828C322.667 212.867 321.288 212.238 320.405 214.124C319.639 211.836 318.234 209.082 317.914 206.683L317.406 205.165C317.836 204.968 318.065 204.624 318.091 204.136C318.272 202.973 318.269 201.787 318.326 200.602C318.56 195.703 318.884 190.836 319.644 186.005ZM252.323 191.413C251.834 193.545 251.476 197.557 248.729 196.32C246.561 195.344 246.037 191.404 246.032 189.208C246.029 187.405 246.288 184.093 248.494 183.985C251.201 183.852 252.168 189.33 252.323 191.413ZM231.409 132.055C229.581 135.402 228.313 140.346 229.176 144.309C230.083 148.471 232.902 149.478 235.41 146.416C237.48 150.141 233.237 156.776 229.443 153.234C228.624 152.469 228.073 151.004 227.059 150.526C226.228 150.136 225.492 150.667 224.643 150.446C222.032 149.768 221.047 146.836 220.021 144.376C220.303 142.37 220.601 140.382 220.98 138.396C221.182 137.34 221.393 136.286 221.597 135.23C221.945 133.437 221.837 133.661 222.974 132.772C225.973 130.429 228.035 130.314 231.409 132.055ZM232.957 133.862L235.151 139.439C233.956 139.11 232.654 143.211 231.873 144.01C231.508 140.597 232.382 137.18 232.957 133.862ZM231.742 114.812C233.725 115.767 234.12 119.907 234.19 121.91C233.645 124.019 233.135 126.716 230.83 125.231C229.292 124.239 228.633 120.975 228.58 119.192C228.514 116.956 229.249 113.61 231.742 114.812Z" fill="#4D7520"/>
<path fill-rule="evenodd" clip-rule="evenodd" d="M216.884 66.3769C216.067 66.7969 217.626 69.9349 217.869 70.5106C218.502 72.0134 219.274 75.1187 220.773 74.2639C219.477 71.635 218.18 69.0058 216.884 66.3769ZM25.0594 248.45C23.9667 247.896 22.5052 252.662 22.3105 253.63C21.7674 256.328 22.2219 258.14 24.1105 259.884C23.3288 256.029 24.2653 252.189 25.0594 248.45ZM277.308 44.3452C275.949 42.3281 273.986 38.5832 271.241 40.5658C270.156 41.3491 269.322 43.86 268.653 45.0866C267.603 47.0122 266.586 48.866 265.787 50.9391C267.145 50.3011 267.945 48.9137 269.159 48.1553C269.988 47.6373 270.744 47.5875 271.543 47.2099C273.31 46.3759 275.729 45.558 277.308 44.3452ZM55.7371 243.076C56.4724 246.367 57.1524 249.648 57.7213 252.981C58.106 255.236 59.399 258.422 58.7243 260.629C60.4721 260.36 62.2198 260.092 63.9676 259.823C62.671 256.45 61.9888 252.85 61.6037 249.205C61.3679 246.975 61.6702 246.339 60.2004 245.098C59.0622 244.137 57.0583 243.675 55.7371 243.076ZM46.0702 117.129C49.4305 120.975 52.3695 125.359 55.9405 128.942C57.7962 130.804 59.6983 132.614 61.6026 134.41C63.2174 135.933 65.7854 139.29 67.887 139.756C68.1468 138.529 68.7611 136.519 68.5965 135.261C69.2097 134.536 69.0194 134.006 68.0254 133.671C67.4173 133.137 66.8161 132.594 66.2206 132.04C63.8848 129.811 61.6742 127.389 59.4607 125.005C57.2603 122.635 55.2249 120.155 53.3147 117.477C52.3084 116.067 51.7199 114.653 50.0695 114.239C48.1089 113.746 47.4565 115.494 46.0702 117.129ZM113.23 259.926C113.135 262.016 117.63 263.297 118.996 263.422C122.687 263.761 125.085 261.91 126.355 258.26C129 250.662 133.234 243.969 135.005 235.979C135.53 233.609 135.985 232.53 134.113 231.322C133.345 230.827 131.344 229.722 130.509 230.353C129.714 230.953 129.062 233.654 128.551 234.635C127.739 236.195 126.816 237.677 125.935 239.186C121.812 246.243 117.657 253.116 113.23 259.926ZM59.8854 155.296L77.1427 166.579C77.8624 163.738 78.1933 160.776 78.8679 157.913C79.3482 155.878 80.5837 153.004 80.5056 151.218C80.389 148.551 78.5824 145.01 77.7948 142.468C76.8132 139.3 75.8316 136.131 74.85 132.962C73.5208 134.416 71.9903 135.431 71.9739 137.325C71.9649 138.407 72.5959 139.082 72.23 140.308C71.9732 141.169 70.8812 142.311 70.3537 142.95C68.813 144.819 68.8613 144.913 67.2422 143.165C64.79 147.209 62.3375 151.253 59.8854 155.296ZM78.8712 208.196C79.1182 205.478 79.4354 202.872 79.9701 200.204C80.2989 198.566 81.6873 195.201 81.2307 193.657C80.895 192.523 78.8999 191.537 78.1228 190.919C75.8748 189.134 73.6795 187.255 71.4541 185.433C69.5025 183.835 67.5219 182.275 65.6071 180.62C63.8335 179.087 62.4948 177.181 60.3486 176.524C58.4708 175.948 56.088 176.324 54.143 176.25C51.5328 176.151 48.8823 176.118 46.2747 176.264C37.5236 176.753 27.7201 176.054 19.3011 178.844C15.3221 180.163 12.7569 180.939 10.5326 185.249C7.96016 190.233 5.76231 195.412 3.89105 200.795C3.61786 201.581 3.00028 202.715 3.02324 203.574C3.06894 205.215 3.58226 204.837 4.958 205.772C6.44455 206.783 7.90167 207.982 9.32174 209.12C11.7568 211.072 14.78 213.109 17.3063 214.631C20.3459 216.462 23.408 218.104 26.4999 219.948C28.459 221.116 30.4869 222.071 32.4086 223.355C34.4949 224.75 36.8308 225.147 39.0799 226.235C46.044 229.607 52.784 232.723 59.618 236.569C66.2886 240.323 73.0358 243.495 79.8608 246.807C88.6816 251.087 97.4152 255.045 106.615 258.005C107.288 258.221 108.704 258.986 109.369 258.951C110.792 258.876 111.114 257.688 111.968 256.348C113.647 253.717 115.265 251.035 116.871 248.345C120.354 242.509 123.761 236.609 127.511 230.99C116.883 227.599 107.029 221.344 97.6866 214.923C97.2888 216.201 96.972 219.033 95.6969 219.46C94.1203 219.99 92.9749 217.492 92.2683 216.343C91.5995 218.247 90.4551 224.67 88.3147 224.529C85.3572 224.335 85.8792 219.013 85.5109 216.901C83.8805 219.379 81.9911 222.228 79.7754 218.417C78.2398 215.776 78.4102 211.141 78.8712 208.196ZM202.009 177.844C200.638 177.354 199.277 176.919 197.936 176.37C197.584 175.516 196.999 175.256 196.181 175.593C195.511 175.661 194.859 175.567 194.226 175.308C191.426 174.761 188.325 174.051 185.65 173.128C183.267 172.306 181.021 171.58 178.6 170.962C177.163 170.596 170.76 168.524 169.814 169.743C169.523 170.118 170.024 174.665 169.953 175.475C169.828 176.916 169.766 179.288 168.967 180.488C168.661 180.948 167.495 181.458 167.074 181.817C165.704 182.981 164.439 184.428 163.077 185.635C160.103 188.27 157.207 191.005 154.172 193.554C152.028 195.355 149.573 196.247 147.191 197.556C148.886 197.903 152.202 196.038 153.913 195.46C156.129 194.71 158.303 193.878 160.569 193.191C165.215 191.785 169.976 190.197 174.698 188.699C177.598 187.779 180.662 186.821 183.473 185.603C184.72 185.063 185.699 183.807 186.523 185.085C187.181 186.106 186.385 187.449 185.88 188.205C182.932 192.616 174.926 193.689 170.641 195.52C165.805 197.584 161.033 199.759 156.054 201.21C150.238 202.904 143.926 204.2 138.507 207.176C134.011 209.644 128.918 210.601 124.138 212.049C119.649 213.41 114.325 213.682 110.082 215.992C111.915 217.646 114.627 218.51 116.763 219.622C119.378 220.984 122.02 222.227 124.606 223.67C125.707 224.284 126.859 225.197 127.973 225.708C129.387 226.356 129.205 226.014 130.666 225.883C132.939 225.678 136.006 225.211 137.852 227.103C140.079 229.386 138.668 231.886 138.995 234.679C139.219 236.593 139.334 236.286 141.193 236.579C142.904 236.848 144.614 237.161 146.302 237.579C148.386 238.096 150.519 238.963 152.549 239.709C155.697 240.868 156.039 242.231 159.321 240.736C168.665 236.477 178.33 232.977 187.735 228.948C192.066 227.092 196.417 223.512 200.494 220.822C205.725 217.371 210.455 213.639 213.997 207.893C215.612 205.275 217.295 200.852 216.956 197.601C216.652 194.693 214.771 191.462 213.559 188.962C212.01 185.77 210.647 184.532 208.277 182.411C206.63 180.937 204.085 177.825 202.009 177.844ZM97.9384 202.55C98.0833 204.155 97.263 210.77 98.0757 211.788C99.4652 213.528 102.874 211.497 104.192 210.979C108.476 209.295 113.455 209.663 117.817 208.33C122.049 207.036 126.189 205.36 130.444 204.043C132.727 203.335 134.894 202.227 137.139 201.385C139.639 200.448 142.429 199.934 144.747 198.524C144.46 197.709 134.43 199.67 133.29 199.776C129.331 200.143 125.603 199.445 121.701 198.625C113.093 196.815 104.983 192.522 96.4863 189.738C96.8845 194.218 107.912 195.11 106.598 200.309C106.231 201.758 101.298 204.127 99.6669 203.218C96.3523 201.37 100.407 198.769 102.059 198.121C99.5441 196.472 97.1373 194.684 94.8418 192.652C92.3842 190.477 91.3266 187.426 90.0094 184.278C87.2561 177.695 80.7403 173.866 75.679 169.768C70.2062 165.337 64.3788 161.57 58.9093 157.149C57.9331 156.359 57.4772 156.722 57.1343 155.281C56.7673 153.738 58.1155 151.777 58.7698 150.6C60.4895 147.506 62.4927 144.577 64.7646 141.987C61.8348 139.707 58.6698 137.825 55.9224 135.244C53.1374 132.628 50.8328 129.435 48.3759 126.44C44.451 136.205 38.9502 145.261 34.6304 154.838C32.9241 158.62 32.0221 164.341 34.617 168.006C37.3478 171.863 42.4399 170.362 46.2947 170.566C50.3631 170.782 54.0743 171.309 58.0871 172.628C59.9025 173.226 61.555 173.049 63.2999 174.008C65.3462 175.132 67.3588 176.576 69.3056 177.908C73.1343 180.528 76.7111 183.808 80.3265 186.798C81.8094 188.024 89.8506 195.294 83.4903 194.171C83.4903 200.974 82.4481 207.94 81.901 214.71C83.4093 212.65 84.485 210.557 85.3975 208.083C85.9403 206.611 85.9472 202.854 87.756 203.745C90.4769 205.084 88.3576 214.925 88.3576 217.587C89.0318 216.098 89.5041 214.494 89.9894 212.915C90.357 211.72 90.8166 208.329 91.5838 207.527C94.1522 204.843 94.5123 212.163 94.5123 213.691C95.3442 210.992 95.4971 208.112 95.5807 205.261C95.6134 204.136 95.3703 202.386 95.6188 201.297C96.0322 199.483 95.9832 199.602 97.6445 198.835C97.7426 200.073 97.8406 201.311 97.9384 202.55ZM177.281 259.956C177.485 262.257 178.263 263.923 176.94 265.994C179.498 265.784 182.017 265.527 184.579 265.602C186.637 265.661 189.714 266.199 191.633 265.192C192.415 264.781 192.681 265.488 193.084 264.704C193.465 263.958 192.568 261.485 192.46 260.872C191.943 257.928 191.691 254.908 191.221 251.945C190.898 249.909 189.95 245.905 191.142 243.981C192.895 241.149 193.667 245.138 194.124 246.908C195.628 252.742 195.541 258.283 195.541 264.277C197.807 264.277 200.784 263.146 202.969 262.463C205.983 261.521 209.202 260.554 212.122 259.324C214.877 258.165 217.302 256.473 219.044 253.75C220.347 251.713 223.235 246.687 222.517 244.435C221.638 241.674 217.443 239.775 215.203 239.472C212.297 239.078 209.319 239.745 206.345 240.025C203.161 240.326 200.073 241.136 196.923 241.526C193.864 241.905 189.759 243.071 186.787 242.197C186.71 243.595 187.732 245.473 188.088 246.896C188.555 248.762 188.972 250.645 189.35 252.536C189.756 254.56 192.268 261.838 189.984 263.293C187.302 265.001 186.022 257.688 185.689 255.905C184.892 251.654 184.208 247.407 185.042 243.134C181.619 242.428 177.491 243.476 173.962 243.754C175.277 249.05 176.125 254.596 177.281 259.956ZM29.8704 262.258C31.0605 262.863 32.696 262.539 33.9896 262.655C36.0113 262.836 38.0536 263.254 40.0887 263.18C43.1941 263.067 46.4494 262.618 49.5573 262.212C47.7845 258.556 46.7088 255.095 46.4876 250.905C46.408 249.4 45.7094 240.066 48.1383 240.465C49.3103 240.658 49.0614 248.628 49.2888 250.096C49.6194 252.226 50.0459 254.407 50.5651 256.492C50.9418 258.005 52.2234 260.27 51.895 261.905C53.4619 261.615 55.029 261.325 56.5962 261.034C55.3778 258.257 54.4878 255.767 54.0315 252.669C53.811 251.174 53.9516 249.313 53.524 247.893C53.2544 246.998 52.6397 246.156 52.5576 245.405C52.4628 244.539 53.2926 242.411 52.9856 241.642C52.6841 240.886 50.5847 240.186 49.849 239.769C47.8215 238.621 46.6333 238.33 44.3609 238.99C39.9779 240.264 33.0723 241.168 29.8035 244.603C26.5652 248.006 25.3868 259.485 29.8704 262.258ZM221.29 96.3654C222.503 96.2088 223.704 96.112 224.924 96.0402C223.142 93.1733 221.523 90.1769 220.046 87.0924C219.322 85.5813 218.638 84.0461 217.984 82.4943C217.232 80.7136 217.253 79.551 215.62 79.1972C213.359 78.7074 210.336 79.686 208.01 79.5747C206.213 79.4883 202.179 77.5552 200.731 78.2559C202.051 81.3487 200.992 86.1607 201.043 89.4899C201.095 92.8008 200.735 96.0011 200.226 99.2659C203.309 99.2659 207.168 98.0489 210.28 97.5052C213.904 96.8722 217.598 96.8393 221.29 96.3654ZM172.346 266.326C173.534 266.152 174.663 266.098 175.861 266.098C173.16 261.092 171.121 255.493 171.098 249.528C171.095 248.748 171.916 244.263 171.644 243.891C171.115 243.165 168.92 243.738 168.318 243.807C165.858 244.088 163.124 244.067 160.808 245.08C159.21 245.779 159.192 245.357 158.557 247.507C158.181 248.779 157.911 250.231 157.903 251.569C157.888 254.272 158.642 257.43 159.616 259.864C160.544 262.18 162.01 264.664 164.026 265.909C166.349 267.343 169.622 266.489 172.346 266.326ZM196.904 80.3348C196.437 78.3402 196.639 78.7905 195.086 78.543C194.759 78.491 191.202 78.5753 190.997 78.8138C190.762 79.0887 190.852 83.1498 190.821 83.6145C190.716 85.2075 190.56 86.7962 190.408 88.3842C189.792 94.8306 188.624 101.071 187.747 107.464C189.912 105.928 193.041 108.023 194.891 106.36C196.352 105.046 196.133 100.842 196.242 98.9868C196.607 92.7779 196.732 86.5537 196.904 80.3348ZM275.08 72.8068C274.885 73.1644 274.691 73.522 274.496 73.8797C275.252 74.4337 279.677 68.7968 280.662 67.7883C281.972 66.4455 284.047 64.6523 284.638 62.6889C285.325 60.4073 284.649 56.8053 284.483 54.446C284.364 52.7575 284.616 50.4224 283.412 49.2427C282.304 48.1574 279.575 48.1864 278.262 48.4186C274.324 49.1156 271.956 52.8182 269.968 56.3463C271.987 56.0626 279.102 52.3484 279.929 54.3571C281.129 57.2755 273.656 59.8848 272.917 62.4455C274.447 63.0631 277.821 60.6673 276.872 64.6536C276.71 65.2114 276.427 65.6733 276.025 66.0392C275.326 66.3221 275.161 66.855 275.529 67.6384C275.216 69.1997 275.28 71.1752 275.08 72.8068ZM320.405 214.125C320.426 215.071 320.502 215.975 321.179 216.644C322.679 211.212 323.148 205.777 323.769 200.127C324.391 194.477 325.053 188.686 325.151 183.04C325.262 176.713 324.739 169.83 323.844 163.578C323.144 158.691 322.602 152.678 320.054 148.518C321.501 159.297 321.051 169.517 320.075 180.334C319.557 186.077 318.826 191.777 318.49 197.545C318.402 199.069 318.373 200.611 318.257 202.131C318.189 203.027 317.413 204.725 317.406 205.165C317.368 207.607 319.655 211.882 320.405 214.125ZM243.405 205.729C244.609 208.896 245.977 212.015 246.699 215.382C247.461 218.937 247.133 222.249 247.255 225.852C247.457 231.829 247.038 237.771 247.111 243.758C247.174 248.859 247.003 253.834 247.047 258.882C247.076 262.075 246.923 265.256 246.932 268.448C246.932 268.438 247.043 271.313 246.851 271.459C245.989 272.113 245.047 271.184 244.783 270.289L242.228 273.594C243.567 273.209 245.214 272.406 246.591 272.335C247.118 272.113 247.643 272.107 248.166 272.316C248.686 272.675 249.07 273.175 249.321 273.817C252.928 274.696 255.093 271.024 255.742 267.741C257.147 260.619 256.641 253.588 256.539 246.397C256.318 230.776 258.488 215.249 258.283 199.626C258.243 196.603 258.142 193.616 258.54 190.598C259.277 184.993 260.366 190.124 260.541 192.769C261.066 200.719 261.981 208.921 261.478 216.92C261.025 224.127 261.067 231.4 260.753 238.629C260.419 246.312 259.882 253.832 260.191 261.521C261.996 261.257 267.8 260.864 268.404 263.762C268.932 266.29 266.81 265.355 265.708 265.248C263.922 265.075 262.177 265.554 260.224 265.154C260.368 268.554 260.778 273.114 258.12 275.41C256.813 276.539 254.648 277.558 253.121 278.224C251.624 278.877 249.089 280.323 247.53 280.244C246.427 280.188 246.002 279.509 244.792 279.617C242.995 279.779 241.441 281.152 239.537 280.018C235.926 277.866 237.701 271.606 239.981 269.098C240.568 268.451 241.229 267.744 242.018 267.428C242.393 267.278 243.962 267.459 244.143 267.235C244.81 266.406 243.977 261.559 243.888 260.639C243.419 255.813 242.909 250.885 242.717 246.037C242.537 241.48 242.336 236.914 242.198 232.355C242.169 231.362 242.554 229.321 242.19 228.453C241.585 227.011 238.931 226.093 237.78 225.421C238.806 236.911 240.313 249.261 236.6 260.205C235.862 262.378 235.035 265.48 233.165 266.689C231.403 267.828 227.253 267.668 225.142 267.803C222.871 267.948 220.649 267.342 219.397 264.905C218.413 262.986 219.003 260.685 221.024 259.849C222.234 259.348 222.47 259.67 223.53 260.265C223.76 260.692 223.921 261.151 224.015 261.642H224.83C225.934 262.206 230.348 262.836 231.562 261.937C232.968 260.896 233.274 258.082 233.874 256.41C234.988 253.304 235.283 250.783 235.687 247.463C236.32 242.266 235.679 236.239 235.691 230.825C235.694 229.3 235.7 227.775 235.702 226.25C235.704 223.947 235.88 223.961 234.73 222.303C232.998 219.804 231.024 217.25 229.169 214.855C230.174 221.853 229.763 229.222 229.364 236.194C229.14 240.111 228.676 244.101 228.464 247.966C228.4 249.127 229.13 252.33 227.95 252.843C226.753 253.364 225.263 250.934 224.78 250.057C222.141 256.078 218.991 261.885 213.547 265C210.747 266.601 207.832 267.324 204.777 267.952C201.947 268.534 199.331 269.596 196.541 270.097C190.765 271.133 185.446 271.28 179.634 271.053C174.151 270.84 168.901 271.997 163.435 270.54C161.302 269.971 159.147 268.927 157.689 267.059C156.893 266.041 156.541 264.437 155.739 263.498C155.558 262.282 154.932 261.908 153.862 262.373C153.19 262.407 152.521 262.382 151.854 262.296C146.372 261.968 140.28 262.334 134.968 260.544C132.951 259.865 130.701 258.745 131.706 255.86C132.586 253.338 135.012 254.104 137.001 254.324C142.78 254.964 148.468 256.132 154.33 256.72C154.141 253.218 154.304 249.645 155.504 246.369C151.438 245.786 147.222 244.906 143.353 243.421C142.158 242.962 140.968 242.486 139.783 241.996C137.829 241.188 138.235 240.979 137.104 242.389C135.682 244.16 134.811 247.855 133.781 249.995C132.622 252.404 131.51 254.785 130.533 257.298C129.608 259.678 128.919 262.864 127.51 264.915C124.411 269.425 117.254 269.815 113.042 268.044C110.979 267.176 110.234 267.04 108.984 264.925C107.614 262.609 107.274 262.474 104.75 262.159C100.193 261.592 95.8913 260.284 91.622 258.478C87.1115 256.57 82.48 255.082 77.9826 253.023C73.7725 251.094 69.7034 249.154 65.3473 247.649C64.8304 251.406 66.9723 255.642 66.9723 259.515C69.5069 259.225 71.8704 258.971 74.3829 258.51C75.2787 258.345 80.923 256.897 81.4737 257.752C83.7693 261.314 73.3242 262.989 71.6917 263.46C66.4601 264.969 61.1253 266.372 55.8606 267.539C50.4869 268.73 45.2484 269.915 39.7934 270.129C30.5628 270.491 17.8309 269.881 18.2715 256.015C18.4445 250.582 20.4022 244.685 24.1483 241.142C26.4791 238.937 29.3858 237.725 32.2353 236.727C33.2881 236.359 38.8343 235.497 39.0029 235.023C37.4401 233.742 34.7689 233.408 32.9147 232.421C31.1469 231.48 29.2815 231.13 27.472 230.181C23.8563 228.286 20.364 225.969 17.0208 223.625C14.3619 221.761 11.6736 219.703 9.22583 217.487C7.28082 215.727 5.41683 214.034 3.86199 212.022C3.04824 210.969 1.60783 210.036 0.9561 209.129C-1.33257 205.945 1.08107 199.608 2.05575 195.9C3.47945 190.481 5.37941 184.715 8.1814 180.02C10.7582 175.703 13.631 172.795 18.253 171.783C22.519 170.85 26.8086 170.554 31.1716 170.292C30.4385 167.103 29.4065 164.853 29.6684 161.355C29.9154 158.057 31.3722 154.779 32.5154 151.775C34.641 146.19 36.6463 140.724 39.5533 135.582C41.151 132.756 42.9456 130.074 44.6897 127.366C44.9709 126.93 46.719 124.933 46.6521 124.37C46.5857 123.811 44.8303 122.109 44.5615 121.719C42.7563 119.099 41.5084 116.278 43.6282 113.473C44.7333 112.011 47.9825 109.059 49.5464 110.916C51.2375 107.01 54.1953 104.346 56.4982 101.022C59.3692 96.8776 62.1105 92.6699 64.798 88.3289C67.474 84.0067 69.6598 79.3633 73.2069 75.88C77.1598 71.9985 80.8809 72.3341 85.7357 73.9935C86.0129 71.8523 86.3984 72.1372 88.2097 71.4224C89.5807 70.8811 90.9132 70.239 92.2614 69.628C93.6942 68.9779 95.1444 68.6091 96.6091 68.0982C98.5603 67.4178 98.8535 67.64 99.1706 64.7429C99.5542 61.2422 98.2439 57.5409 97.3989 54.2433C96.9818 52.6163 96.6919 50.591 95.7536 49.4965C94.9046 48.5067 93.3995 48.056 92.471 46.9615C84.4708 37.5323 84.3447 17.3996 92.8666 8.63627C94.5228 6.93286 95.8887 4.64129 97.9503 3.49115C100.214 2.22802 103.2 1.20664 105.693 0.611425C110.832 -0.614732 116.595 -0.225535 120.658 3.90485C122.661 5.9418 123.883 9.17956 124.566 12.0717C125.218 14.8343 125.078 19.5039 122.605 15.2343C121.046 12.5415 119.691 9.79513 117.051 8.46306C114.691 7.27304 111.811 6.63047 109.24 6.88301C103.183 7.47782 98.2744 9.51144 94.0814 14.6375C89.4452 20.3051 89.2094 29.3538 90.2088 36.5608C91.0894 34.4292 91.6859 31.0539 94.1548 30.6469C96.2124 30.3075 99.4562 33.3114 98.3518 35.8975C93.341 34.437 91.8756 43.1007 96.2084 43.6224C97.5202 43.7803 99.1815 41.1103 100.389 41.7321C102.648 42.8943 99.6211 46.8992 99.0242 48.218C98.7071 48.4411 98.3899 48.6641 98.0728 48.8876C98.3852 49.7175 98.7005 50.5461 99.0191 51.3731C99.4053 52.4277 99.7729 53.4848 100.112 54.5606C100.938 57.1787 101.794 59.8781 102.292 62.6054C102.798 65.3784 103.06 68.6166 101.865 71.2217C100.551 74.0853 99.313 73.733 98.3035 71.0091C95.661 72.9135 93.0039 74.9442 89.8975 75.6956C93.155 81.9444 97.372 87.3163 103.713 89.2818C109.087 90.9478 115.851 90.8867 120.979 88.1308C126.3 85.271 129.228 78.587 128.595 71.937C128.389 69.7833 127.293 62.3026 129.901 67.714C131.331 70.6818 131.436 75.4958 131.11 78.7502C129.55 94.3172 115.749 100.141 103.848 96.3937C97.7433 94.4709 93.3439 89.3246 90.0686 83.2665C89.3046 81.8538 88.6057 80.3959 87.9231 78.9301C87.6502 78.3444 87.4101 77.5266 87.0461 77.0127C85.6195 74.9995 87.021 76.1214 85.5065 75.8692C83.1626 75.4796 79.4742 77.532 77.7338 79.1581C73.0115 83.5697 70.3958 90.6267 66.7714 96.1868C62.9126 102.106 58.0119 107.374 53.096 112.097C58.6568 118.609 64.2172 125.121 69.7779 131.633C70.9266 130.179 73.1103 126.856 73.4158 124.912C73.5949 123.773 72.791 120.023 75.2634 121.692C76.9327 122.819 77.5659 127.643 78.0865 129.616C78.8908 132.664 80.2451 135.534 81.1206 138.551C82.7445 144.147 84.7451 149.694 86.4085 155.331C87.085 157.623 89.0136 160.467 87.1605 162.408C84.344 165.356 83.5067 159.551 82.7608 157.334C81.7222 158.985 81.857 161.662 81.3215 163.588C80.9946 164.764 79.9988 166.595 80.0319 167.754C80.0882 169.735 81.6616 170.325 83.0794 171.433C85.7172 173.493 88.424 175.504 90.8402 177.904C91.8483 178.905 92.7758 179.917 93.5114 181.205C94.1537 182.329 94.347 184.864 95.0568 185.646C95.9854 186.669 99.4176 185.956 101.23 186.179C104.257 186.551 107.324 187.782 110.262 188.666C115.461 190.23 120.809 192.483 126.254 193.319C131.601 194.139 136.619 193.732 141.949 192.639C144.86 192.041 147.987 191.328 150.644 189.727C153.704 187.884 156.417 184.934 159.275 182.707C160.555 181.71 161.863 180.768 163.171 179.823C164.919 178.56 164.462 178.834 164.576 176.827C164.708 174.505 165.556 170.071 164.199 168.004C163.633 167.141 161.894 166.51 161.076 165.882C159.886 164.969 158.819 163.908 157.544 163.173C156.152 162.371 156.111 163.007 155.465 161.039C154.878 159.252 154.491 157.38 153.952 155.575C151.487 147.316 150.85 138.929 149.828 130.305C149.354 126.3 148.189 120.849 149.508 116.948C151.342 111.521 152.876 119.11 153.263 121.056C155.014 117.627 156.02 113.814 157.841 110.429C158.903 108.456 159.422 107.447 160.021 105.285C160.263 104.409 160.36 103.682 160.872 102.955C161.956 101.416 162.116 102.293 163.243 102.255C166.787 102.136 170.271 102.241 173.819 102.428C175.779 102.532 177.74 102.587 179.715 102.579C180.677 102.575 181.65 102.521 182.612 102.584C183.13 102.578 183.645 102.622 184.158 102.717C185.217 103.282 185.621 102.795 185.37 101.256C186.292 99.0516 186.231 95.5343 186.557 93.1293C186.885 90.7086 187.19 88.2837 187.464 85.8538C187.611 84.5549 188.842 79.654 188.189 78.587C187.541 77.529 184.166 77.7662 183.167 77.5764C176.528 76.3145 170.352 73.1864 164.142 70.6236C161.085 69.3621 158.183 67.6587 155.25 66.1111C153.724 65.3053 152.281 63.6459 150.672 63.1292C148.642 62.4771 145.946 63.5196 143.923 63.9122C140.067 64.6602 136.347 65.3152 132.434 65.5587C131.052 65.6446 128.423 66.0878 127.176 65.0016C124.67 62.8202 127.523 61.5446 129.16 61.2692C136.403 60.0513 143.624 59.3514 150.921 58.843C151.264 58.8194 152.517 58.5282 152.934 58.6786C153.884 59.0216 153.501 59.4196 154.071 59.7735C155.126 60.4289 156.33 60.9116 157.668 61.3182C161.49 62.4787 165.339 64.426 169.174 65.9562C176.074 68.7092 184.318 73.0988 191.219 72.327C192.922 72.1368 194.322 71.8934 196.103 72.0907C198.188 72.322 199.405 73.5449 201.007 73.9004C203.153 74.3764 206.223 74.0188 208.483 74.1102C210.637 74.1974 212.793 74.3116 214.948 74.3116C213.055 69.9603 211.903 65.8747 210.839 61.2015C210.259 58.6528 209.386 56.338 209.764 53.6539C209.943 52.387 210.385 51.1966 210.868 50.0523C211.597 48.3248 211.804 48.6861 212.063 46.773C212.419 44.14 211.908 41.3637 212.188 38.7228C212.475 36.0125 214.266 33.5968 214.466 31.0057C214.572 29.6271 213.898 28.5019 214.1 27.0149C214.28 25.6849 214.969 24.2905 215.588 23.1707C217.028 20.5614 218.783 19.0819 221.218 18.0189C223.175 17.1645 225.673 16.3807 227.65 17.7643C229.668 19.1757 229.522 22.0164 230.489 24.0891C232.568 28.5459 237.364 32.5289 241.187 34.8051C244.699 36.896 248.483 38.2169 252.249 39.5805C254.541 40.4104 256.897 41.0023 259.149 41.9506C260.771 42.6334 263.415 44.2895 265.066 43.2835C266.505 42.4067 268.183 39.7309 269.607 38.4885C271.274 37.0352 273.496 35.6167 275.594 36.8827C277.692 38.1483 277.52 42.8137 279.151 43.691C279.72 43.9967 281.408 43.1011 282.184 43.2424C283.436 43.47 284.298 44.356 285.048 45.4467C287.851 49.5227 288.719 55.9878 288.842 61.0125C288.903 63.5221 288.85 66.6436 287.509 68.7744C285.946 71.2599 282.987 71.3214 280.979 73.0705C279.374 74.4695 278.237 76.7565 276.607 78.2472C275.604 79.166 275.216 78.4603 274.801 79.8921C274.53 80.8233 275.077 82.6401 275.238 83.541C276.236 89.0994 278.105 94.2263 279.879 99.5214C280.714 102.016 281.423 104.512 281.804 107.156C282.054 108.891 281.766 110.408 281.887 112.077C281.973 113.266 282.415 114.292 282.317 115.511C282.111 118.091 280.886 120.371 280.106 122.641C279.217 125.229 280.438 129.71 281.333 132.386C283.478 138.798 286.494 145.275 289.174 151.436C291.807 157.487 293.765 163.932 296.832 169.745C299.81 175.391 303.315 180.919 306.704 186.258C308.589 189.228 310.589 192.054 312.297 195.169C312.671 195.85 315.22 201.5 315.882 201.304C315.071 191.445 315.891 181.192 316.253 171.34C316.707 159.007 315.334 147.836 312.299 136.064C311.589 133.312 310.957 130.495 310.457 127.683C310.108 125.714 309.121 124.096 311.543 124.957C315.554 126.382 319.083 135.038 321.122 138.806C325.688 147.245 329.502 158.499 330.014 168.397C330.517 178.112 330.083 187.408 329.022 196.98C328.497 201.702 327.651 206.967 326.357 211.483C325.691 213.806 324.892 216.212 324.006 218.438C323.632 219.378 322.81 220.439 322.668 221.472C322.444 223.109 323.493 225.319 323.756 226.937C324.614 232.229 324.811 237.713 324.519 243.084C324.362 245.964 324.014 248.54 323.192 251.249C322.145 254.701 322.631 257.337 323.067 260.895C323.534 264.702 323.981 273.356 320.518 275.519C320.274 275.491 320.028 275.461 319.784 275.433C319.165 274.617 318.616 274.666 318.136 275.578C317.241 275.912 316.366 276.772 315.423 277.142C313.234 278.002 310.872 278.054 308.59 278.432C304.121 279.171 299.668 280.476 295.279 280.634C290.081 280.821 284.658 280.588 279.576 279.546C278.525 279.331 277.298 278.761 276.247 278.652C274.821 278.504 273.82 279.588 272.348 279.333C270.067 278.938 268.625 276.177 268.476 273.915C268.001 266.707 271.498 263.401 277.214 262.121C273.521 256.076 269.269 251.116 268.286 243.351C267.319 235.712 269.417 226.87 273.227 220.75C276.884 214.875 283.126 210.947 289.562 212.437C292.549 213.129 306.642 217.887 303.918 223.283C303.314 220.814 299.598 221.292 297.803 220.936C294.825 220.344 291.848 219.452 288.826 219.636C282.884 219.997 277.14 224.016 274.263 230.1C270.945 237.115 272.459 244.114 276.453 250.103C280.105 255.579 283.869 261.332 288.78 265.285C287.831 267.011 288.174 267.553 286.288 267.244C284.994 267.032 283.782 265.877 282.474 265.59C279.761 264.994 275.49 267.536 273.813 270.078C272.823 271.58 272.859 272.323 274.686 273.248C276.034 273.93 278.156 273.577 279.604 273.725C283.205 274.093 286.875 274.216 290.488 274.201C296.742 274.175 302.558 273.028 308.748 272.285C311.491 271.956 314.359 272.335 317.043 271.181C320.679 269.618 319.788 265.027 319.317 261.308C318.85 257.624 319.325 254.767 319.832 251.119C320.051 249.534 320.461 247.705 320.171 246.11C319.826 244.215 319.208 243.376 319.287 241.263C319.567 233.742 318.742 225.821 316.999 218.562C313.212 202.796 303.966 190.353 296.255 176.953C294.077 173.168 291.787 169.582 290.053 165.483C288.411 161.6 287.279 157.493 285.648 153.599C282.053 145.016 278.643 136.175 276.542 126.943C274.161 128.015 271.596 129.59 269.044 129.968C266.152 130.397 263.061 127.727 261.237 125.375C257.078 120.014 256.129 112.742 256.44 105.833C256.532 103.788 256.644 101.727 256.964 99.7087C257.172 98.399 258.52 95.229 258.213 94.0086C257.884 92.7027 255.969 91.5675 255.382 90.2741C254.632 88.6276 254.546 86.5084 254.586 84.692C254.623 83.0339 255.424 74.9152 257.723 78.2335C259.04 80.1346 257.115 87.3022 258.452 88.2778C259.654 89.1555 261.311 88.083 262.558 90.0897C263.905 92.2583 263.183 94.9312 262.711 97.2406C261.735 102.016 260.818 107.174 260.843 112.079C260.866 116.545 261.564 122.192 265.832 123.998C267.989 124.911 269.626 124.283 271.234 122.583C271.603 122.098 271.979 121.621 272.362 121.151C272.714 120.459 273.254 120.373 273.982 120.894C274.521 120.404 275.319 117.023 275.589 116.268C278.895 107.005 273.683 96.37 271.772 87.2818C270.603 81.723 269.584 76.1471 271.95 70.7823C272.333 69.9137 273.388 69.159 272.755 67.9129C272.588 67.5852 270.995 67.4315 270.618 67.0506C269.39 65.8108 269.646 63.4993 269.646 61.8441C266.805 62.8459 265.986 60.3184 266.355 57.2206C264.236 57.6048 262.764 58.3459 261.979 55.5421C261.283 53.0558 262.334 50.5204 263.031 48.2035C253.225 47.0018 242.634 45.4621 234.819 37.7255C232.893 35.8177 231.29 33.4165 229.955 30.9289C229.714 30.479 228.577 27.3123 228.2 27.147C227.081 26.6556 226.142 29.1594 225.147 29.7796C224.263 30.3303 223.006 30.634 222.024 30.9696C221.099 31.2857 217.84 31.3488 217.262 31.8975C215.817 33.2699 215.931 41.2038 215.92 43.0451C215.881 49.3869 217.119 55.7066 219.409 61.4806C221.565 66.9186 224.865 74.3968 229.178 77.9556C230.268 78.8553 231.249 79.3218 232.63 79.2474C233.617 79.1947 234.595 78.4046 235.623 78.8154C238.223 79.8555 237.293 81.9219 235.294 82.8989C229.581 85.6926 224.766 79.551 221.462 75.2603C220.495 80.351 224.981 86.3751 227.354 90.5287C228.867 93.1758 230.362 95.8254 231.801 98.5266C232.846 100.488 234.899 104.111 231.252 102.596C229.492 113.155 224.662 122.39 222.196 132.652C219.664 143.185 217.457 155.213 217.457 166.183C219.385 164.648 220.357 157.656 222.95 163.008C223.231 163.587 223.143 164.545 223.513 165.051C224.024 165.751 224.64 165.556 225.423 166.055C226.666 166.846 227.467 168.422 226.356 169.788C227.787 169.408 229.285 169.602 229.594 171.536C229.767 172.622 228.376 177.651 227.338 178.062C224.175 179.314 220.668 172.094 219.812 169.798C217.836 172.065 215.559 173.809 213.738 170.142C212.381 167.409 213.168 163.274 213.36 160.298C213.745 154.305 214.249 148.458 215.005 142.522C216.424 131.391 220.023 121.492 224.445 111.473C225.662 108.715 227.011 105.893 228.098 103.071C229.738 98.814 227.172 99.8183 224.664 100.436C219.751 101.648 214.605 102.588 209.64 103.017C207.049 103.241 203.73 103.374 201.24 104.231C199.489 104.833 199.789 104.417 199.086 106.561C198.771 107.521 198.416 108.541 197.861 109.363C195.032 113.555 187.704 112.853 183.657 112.541C183.902 110.773 184.145 109.005 184.399 107.238C181.283 108.075 177.583 108.658 174.375 108.615C172.647 108.593 170.81 108.292 169.087 108.128C167.817 108.007 165.408 106.977 164.212 107.378C162.826 107.842 160.73 113.573 159.937 115.421C158.449 118.891 155.789 122.747 154.85 126.401C154.017 129.64 155.716 135.229 156.25 138.454C157.021 143.115 157.724 147.785 159.017 152.305C159.954 155.581 161.034 160.099 163.912 161.733C166.779 163.362 168.839 164.278 171.942 163.947C177.407 163.363 183.22 164.322 188.615 165.536C194.17 166.787 199.257 167.35 204.533 169.579C216.497 174.635 224.116 190.211 219.605 204.479C217.011 212.686 212.736 218.785 206.466 223.862C203.271 226.45 199.496 228.549 195.993 230.542C194.385 231.458 192.804 232.568 191.165 233.382C189.967 233.976 187.909 235.344 186.607 235.494C188.052 236.28 189.33 235.544 190.833 235.3C192.959 234.954 195.13 234.88 197.264 234.579C200.586 234.109 203.858 233.754 207.181 233.282C210.018 232.88 213.218 232.737 216.036 233.201C217.398 233.424 219.447 233.866 220.66 234.617C221.613 235.206 222.488 236.565 223.513 237.239C224.641 231.942 224.114 225.414 224.167 219.971C224.21 215.529 224.383 211.184 224.749 206.762C225.158 201.816 222.512 196.192 221.535 191.348C220.621 186.814 218.184 181.068 219.081 176.336C220.212 170.371 223.172 181.087 223.578 182.619C224.852 187.413 226.331 192.092 227.743 196.83C229.423 202.465 231.115 207.925 233.561 213.206C235.596 217.6 237.935 222.755 242.118 224.898C241.773 218.436 241.39 212.452 239.04 206.494C236.812 200.845 233.415 195.82 231.929 189.766C231.191 186.758 231.083 183.681 231.046 180.574C231.022 178.483 231.106 175.673 233.067 177.927C234.622 179.715 234.924 185.416 235.604 187.822C235.933 188.98 236.387 190.044 236.749 191.17C236.912 191.677 238.01 194.149 238.01 194.481C239.142 198.387 241.646 202.134 243.405 205.729Z" fill="#20330B"/>
<path fill-rule="evenodd" clip-rule="evenodd" d="M123.319 63.3127C123.427 64.8259 124.194 68.7478 123.211 69.9453C121.908 71.534 121.291 69.4905 120.727 67.8793C119.55 64.5123 118.964 57.9923 121.292 55.1865C123.721 52.2566 128.522 52.1776 131.114 49.2597C132.155 48.0876 132.055 48.3322 131.964 46.4996C131.913 45.4649 131.328 44.0901 131.045 43.1601C130.309 40.7435 129.502 38.356 128.733 35.9535C127.388 36.6542 125.454 38.8158 124.129 37.004C122.905 35.3288 124.942 32.5841 126.36 32.0944C125.62 30.2431 122.13 30.5853 121.466 27.8659C120.888 25.5025 122.547 26.4417 122.91 25.5108C123.338 24.4155 122.463 22.9347 122.913 21.9254C124.475 18.421 126.206 24.8645 126.984 26.0147C128.431 28.1538 130.953 28.6211 131.175 31.8568C131.312 33.8489 131.181 34.7751 131.899 36.7315C132.56 38.5325 133.345 40.2596 133.9 42.1129C134.734 44.9054 136.021 49.9874 134.39 52.6915C133.015 54.9722 129.675 56.7109 127.503 57.6862C126.416 58.1743 124.908 58.4717 124.028 59.4224C122.879 60.6627 123.237 61.4249 123.319 63.3127Z" fill="#20330B"/>
<path fill-rule="evenodd" clip-rule="evenodd" d="M236.154 147.755C235.906 147.308 235.658 146.862 235.41 146.416C233.692 148.515 231.788 149.377 230.051 146.711C228.263 143.966 228.934 139.851 229.63 136.853C229.988 135.31 231.798 129.228 232.958 133.861C233.213 134.884 232.358 137.161 232.203 138.162C231.899 140.126 231.659 142.01 231.873 144.01C233.888 141.948 234.875 136.72 236.92 142.148C237.661 144.117 237.742 147.358 239.717 144.368C240.77 142.772 240.838 139.824 241.331 137.943C244.696 138.863 244.083 144.553 242.96 147.325C241.171 151.739 238.738 150.318 236.154 147.755Z" fill="#20330B"/>
<path fill-rule="evenodd" clip-rule="evenodd" d="M247.936 48.7355C249.133 51.0179 246.869 55.1919 246.458 57.5354C248.463 57.27 253.425 51.7402 254.822 52.6519C257.729 54.5493 251.588 61.1669 250.408 62.1368C240.978 69.8867 242.678 47.469 247.936 48.7355Z" fill="#20330B"/>
<path fill-rule="evenodd" clip-rule="evenodd" d="M236.11 74.153C239.633 73.0315 244.384 80.2614 242.099 83.8418C240.46 86.41 238.434 84.9413 237.92 82.6805C237.659 81.5274 237.891 80.138 237.548 78.852C237.127 77.2687 236.562 75.7264 236.11 74.153Z" fill="#20330B"/>
<path fill-rule="evenodd" clip-rule="evenodd" d="M127.747 42.9893C130.426 45.5641 124.951 51.8415 122.207 46.9261C121.452 45.5741 121.314 44.34 122.434 43.8408C122.999 43.589 124.332 44.4135 125.13 44.2677C126.004 44.1078 126.954 43.4046 127.747 42.9893Z" fill="#20330B"/>
<path fill-rule="evenodd" clip-rule="evenodd" d="M118.54 32.6935C117.5 31.2107 114.578 22.0893 118.199 24.1208C120.017 25.141 121.52 32.9386 118.54 32.6935Z" fill="#20330B"/>
<path fill-rule="evenodd" clip-rule="evenodd" d="M238.088 228.876C237.986 227.725 237.883 226.573 237.78 225.422C239.117 226.202 241.799 226.971 242.265 228.716C243.139 231.994 239.079 229.372 238.088 228.876Z" fill="#20330B"/>
<path fill-rule="evenodd" clip-rule="evenodd" d="M276.897 90.0337C276.101 88.8038 273.624 78.5447 275.773 78.7794C276.149 82.501 276.226 86.366 276.897 90.0337Z" fill="#20330B"/>
<path fill-rule="evenodd" clip-rule="evenodd" d="M243.405 205.729C241.646 202.134 239.142 198.387 238.01 194.48C240.664 196.938 242.738 201.958 243.405 205.729Z" fill="#20330B"/>
<path fill-rule="evenodd" clip-rule="evenodd" d="M315.56 197.396C315.667 198.699 315.775 200.001 315.882 201.304C314.288 201.774 315.463 197.825 315.56 197.396Z" fill="#20330B"/>
<path fill-rule="evenodd" clip-rule="evenodd" d="M238.014 194.487C237.259 193.548 236.936 192.393 236.749 191.171C237.17 192.276 237.592 193.381 238.014 194.487Z" fill="#20330B"/>
<path fill-rule="evenodd" clip-rule="evenodd" d="M247.139 253.469C247.167 252.31 247.195 251.151 247.223 249.994C247.195 251.154 247.167 252.311 247.139 253.469Z" fill="#20330B"/>
<path fill-rule="evenodd" clip-rule="evenodd" d="M127.939 65.3682C128.614 65.4641 129.29 65.5601 129.965 65.656C129.432 65.9414 128.176 66.3206 127.939 65.3682Z" fill="#20330B"/>
<path fill-rule="evenodd" clip-rule="evenodd" d="M262.574 265.636C263.276 265.515 263.981 265.239 264.671 265.683C263.971 265.668 263.272 265.652 262.574 265.636Z" fill="#20330B"/>
<path fill-rule="evenodd" clip-rule="evenodd" d="M242.501 239.446C242.511 240.305 242.52 241.163 242.529 242.019C242.519 241.16 242.51 240.303 242.501 239.446Z" fill="#20330B"/>
<path fill-rule="evenodd" clip-rule="evenodd" d="M257.016 226.086C256.972 227.002 256.928 227.917 256.884 228.831C256.928 227.915 256.972 227.001 257.016 226.086Z" fill="#20330B"/>
<path fill-rule="evenodd" clip-rule="evenodd" d="M247.46 229.67C247.422 228.873 247.383 228.076 247.346 227.281C247.384 228.078 247.422 228.874 247.46 229.67Z" fill="#20330B"/>
<path fill-rule="evenodd" clip-rule="evenodd" d="M268.334 236.698C268.296 237.408 268.258 238.118 268.221 238.825C268.258 238.115 268.296 237.406 268.334 236.698Z" fill="#20330B"/>
<path fill-rule="evenodd" clip-rule="evenodd" d="M142.21 254.624C141.526 255.018 140.844 255.057 140.162 254.619C140.845 254.621 141.528 254.622 142.21 254.624Z" fill="#20330B"/>
<path fill-rule="evenodd" clip-rule="evenodd" d="M212.151 40.21C212.161 40.9115 212.171 41.6131 212.18 42.3117C212.17 41.6093 212.16 40.9098 212.151 40.21Z" fill="#20330B"/>
<path fill-rule="evenodd" clip-rule="evenodd" d="M144.293 59.3516C143.593 59.4122 142.893 59.4724 142.194 59.5331C142.894 59.4724 143.594 59.4122 144.293 59.3516Z" fill="#20330B"/>
<path fill-rule="evenodd" clip-rule="evenodd" d="M288.847 62.0516C288.844 61.3592 288.84 60.6668 288.837 59.9756C289.158 60.6668 289.165 61.3583 288.847 62.0516Z" fill="#20330B"/>
<path fill-rule="evenodd" clip-rule="evenodd" d="M123.319 63.3126C123.287 62.577 123.255 61.8418 123.223 61.1074C123.256 61.8434 123.287 62.5778 123.319 63.3126Z" fill="#20330B"/>
<path fill-rule="evenodd" clip-rule="evenodd" d="M295.279 280.634C295.751 280.637 296.224 280.641 296.692 280.645C296.218 280.641 295.748 280.637 295.279 280.634Z" fill="#20330B"/>
<path fill-rule="evenodd" clip-rule="evenodd" d="M109.25 0.124023C108.628 0.184667 108.007 0.24531 107.385 0.305538C108.007 0.24531 108.628 0.184667 109.25 0.124023Z" fill="#20330B"/>
<path fill-rule="evenodd" clip-rule="evenodd" d="M170.556 271.482C170.957 271.482 171.358 271.481 171.754 271.482C171.352 271.482 170.954 271.482 170.556 271.482Z" fill="#20330B"/>
<path fill-rule="evenodd" clip-rule="evenodd" d="M232.63 79.248C232.023 79.1786 231.415 79.1088 230.807 79.0391C231.415 79.1088 232.023 79.1786 232.63 79.248Z" fill="#20330B"/>
<path fill-rule="evenodd" clip-rule="evenodd" d="M260.256 270.27C260.294 269.697 260.331 269.124 260.368 268.554C260.331 269.127 260.294 269.698 260.256 270.27Z" fill="#20330B"/>
<path fill-rule="evenodd" clip-rule="evenodd" d="M194.467 71.9133C193.869 71.9071 193.271 71.9013 192.673 71.8955C193.274 71.4975 193.871 71.6114 194.467 71.9133Z" fill="#20330B"/>
<path fill-rule="evenodd" clip-rule="evenodd" d="M114.631 0.315789C114.028 0.293775 113.391 0.653065 112.835 0.106445C113.434 0.176227 114.033 0.246008 114.631 0.315789Z" fill="#20330B"/>
<path fill-rule="evenodd" clip-rule="evenodd" d="M98.3431 67.917C97.7651 67.9776 97.1867 68.0383 96.6091 68.0985C97.1875 68.0379 97.7651 67.9776 98.3431 67.917Z" fill="#20330B"/>
<path fill-rule="evenodd" clip-rule="evenodd" d="M134.759 254.03C134.15 254.103 133.541 254.176 132.933 254.248C133.541 254.176 134.15 254.103 134.759 254.03Z" fill="#20330B"/>
<path fill-rule="evenodd" clip-rule="evenodd" d="M149.916 58.9319C149.322 58.9465 148.728 58.961 148.135 58.9755C148.724 58.706 149.313 58.4518 149.916 58.9319Z" fill="#20330B"/>
<path fill-rule="evenodd" clip-rule="evenodd" d="M247.117 244.641C247.114 244.052 247.11 243.463 247.106 242.876C247.11 243.465 247.114 244.053 247.117 244.641Z" fill="#20330B"/>
<path fill-rule="evenodd" clip-rule="evenodd" d="M315.778 194.73C315.714 195.442 315.65 196.153 315.586 196.865C315.65 196.154 315.714 195.442 315.778 194.73Z" fill="#20330B"/>
<path fill-rule="evenodd" clip-rule="evenodd" d="M238.732 240.587C238.688 239.981 238.644 239.375 238.6 238.771C238.644 239.378 238.688 239.982 238.732 240.587Z" fill="#20330B"/>
<path fill-rule="evenodd" clip-rule="evenodd" d="M39.0029 235.022C38.8943 235.626 38.5092 235.745 37.8477 235.379L39.0029 235.022Z" fill="#20330B"/>
<path fill-rule="evenodd" clip-rule="evenodd" d="M260.898 235.291C260.863 234.765 260.828 234.239 260.793 233.714C260.829 234.241 260.863 234.766 260.898 235.291Z" fill="#20330B"/>
<path fill-rule="evenodd" clip-rule="evenodd" d="M136.488 60.2002C135.989 60.2779 135.489 60.3551 134.989 60.4328C135.489 60.3551 135.989 60.2779 136.488 60.2002Z" fill="#20330B"/>
<path fill-rule="evenodd" clip-rule="evenodd" d="M242.201 230.806C242.2 231.322 242.199 231.839 242.198 232.354C242.199 231.837 242.2 231.321 242.201 230.806Z" fill="#20330B"/>
<path fill-rule="evenodd" clip-rule="evenodd" d="M212.062 45.3096C212.062 45.7985 212.063 46.2869 212.063 46.7733C212.063 46.284 212.062 45.7968 212.062 45.3096Z" fill="#20330B"/>
<path fill-rule="evenodd" clip-rule="evenodd" d="M29.8163 159.812C29.7669 160.327 29.7175 160.842 29.6685 161.355C29.7179 160.839 29.7669 160.325 29.8163 159.812Z" fill="#20330B"/>
<path fill-rule="evenodd" clip-rule="evenodd" d="M329.136 195.222C329.11 194.737 329.083 194.252 329.057 193.77C329.083 194.255 329.11 194.739 329.136 195.222Z" fill="#20330B"/>
<path fill-rule="evenodd" clip-rule="evenodd" d="M71.0728 259.252C70.5566 259.242 70.0404 259.233 69.5242 259.223C70.0466 258.814 70.5613 258.902 71.0728 259.252Z" fill="#20330B"/>
<path fill-rule="evenodd" clip-rule="evenodd" d="M131.188 32.5854C131.18 32.0991 131.171 31.6127 131.163 31.1279C131.428 31.6093 131.513 32.0928 131.188 32.5854Z" fill="#20330B"/>
<path fill-rule="evenodd" clip-rule="evenodd" d="M89.9705 26.4158C90.0064 25.9361 90.0424 25.4563 90.078 24.9795C90.042 25.4601 90.0064 25.9377 89.9705 26.4158Z" fill="#20330B"/>
<path fill-rule="evenodd" clip-rule="evenodd" d="M260.594 194.355C260.576 193.826 260.558 193.297 260.541 192.77C260.559 193.299 260.576 193.827 260.594 194.355Z" fill="#20330B"/>
<path fill-rule="evenodd" clip-rule="evenodd" d="M257.271 221.672C257.259 222.171 257.246 222.669 257.232 223.165C257.245 222.665 257.258 222.169 257.271 221.672Z" fill="#20330B"/>
<path fill-rule="evenodd" clip-rule="evenodd" d="M197.854 269.764C198.177 269.763 198.501 269.762 198.82 269.763C198.496 269.764 198.175 269.764 197.854 269.764Z" fill="#20330B"/>
<path fill-rule="evenodd" clip-rule="evenodd" d="M40.446 270.017C40.769 270.027 41.0916 270.037 41.4106 270.047C41.0865 270.037 40.7661 270.027 40.446 270.017Z" fill="#20330B"/>
<path fill-rule="evenodd" clip-rule="evenodd" d="M235.702 226.25C232.553 223.468 229.808 219.308 229.169 214.854C230.523 216.604 231.661 218.555 233.016 220.303C233.554 220.997 234.214 221.595 234.731 222.302C235.909 223.915 235.702 223.987 235.702 226.25Z" fill="#20330B"/>
<path fill-rule="evenodd" clip-rule="evenodd" d="M224.641 207.447C223.13 203.467 221.818 198.639 222.081 194.248C223.124 198.235 225.543 203.243 224.641 207.447Z" fill="#20330B"/>
<path fill-rule="evenodd" clip-rule="evenodd" d="M229.711 230.851C229.685 232.006 229.66 233.162 229.635 234.314C229.661 233.158 229.686 232.004 229.711 230.851Z" fill="#20330B"/>
<path fill-rule="evenodd" clip-rule="evenodd" d="M29.8706 262.258C30.9034 262.328 31.9366 262.398 32.9694 262.468C31.9319 262.484 30.8805 262.771 29.8706 262.258Z" fill="#20330B"/>
<path fill-rule="evenodd" clip-rule="evenodd" d="M229.706 227.034C229.709 228.019 229.713 229.005 229.717 229.988C229.713 229.002 229.709 228.018 229.706 227.034Z" fill="#20330B"/>
<path fill-rule="evenodd" clip-rule="evenodd" d="M187.269 112.789C186.687 112.755 186.106 112.72 185.529 112.686C186.112 112.72 186.691 112.755 187.269 112.789Z" fill="#20330B"/>
<path fill-rule="evenodd" clip-rule="evenodd" d="M196.728 88.2818C196.726 87.4822 196.723 86.6827 196.721 85.8848C196.723 86.6848 196.726 87.4835 196.728 88.2818Z" fill="#20330B"/>
<path fill-rule="evenodd" clip-rule="evenodd" d="M184.24 108.34C184.214 107.777 183.952 107.494 183.454 107.49C184.453 106.873 184.716 107.156 184.24 108.34Z" fill="#20330B"/>
<path fill-rule="evenodd" clip-rule="evenodd" d="M213.866 152.822C213.905 152.111 213.944 151.399 213.983 150.689C213.944 151.401 213.905 152.112 213.866 152.822Z" fill="#20330B"/>
<path fill-rule="evenodd" clip-rule="evenodd" d="M44.5347 262.761C45.2314 262.706 45.9282 262.65 46.625 262.595C45.9278 262.65 45.2314 262.706 44.5347 262.761Z" fill="#20330B"/>
<path fill-rule="evenodd" clip-rule="evenodd" d="M190.877 166.161L192.951 166.146C192.259 166.151 191.568 166.156 190.877 166.161Z" fill="#20330B"/>
<path fill-rule="evenodd" clip-rule="evenodd" d="M210.667 79.457C210.185 79.4614 209.703 79.4658 209.226 79.4698C209.709 79.4654 210.188 79.4614 210.667 79.457Z" fill="#20330B"/>
<path fill-rule="evenodd" clip-rule="evenodd" d="M311.175 271.987C311.78 271.983 312.384 271.98 312.988 271.978C312.386 272.413 311.781 272.401 311.175 271.987Z" fill="#20330B"/>
<path fill-rule="evenodd" clip-rule="evenodd" d="M57.416 176.328C57.0062 176.341 56.5965 176.355 56.1907 176.368C56.6019 176.355 57.0088 176.341 57.416 176.328Z" fill="#20330B"/>
<path fill-rule="evenodd" clip-rule="evenodd" d="M275.08 72.8066C275.468 73.2345 274.958 74.2181 274.496 73.8791C274.691 73.5215 274.886 73.1643 275.08 72.8066Z" fill="#20330B"/>
<path fill-rule="evenodd" clip-rule="evenodd" d="M85.6206 219.637C85.6377 219.032 85.6551 218.426 85.6722 217.822C85.6548 218.428 85.6377 219.033 85.6206 219.637Z" fill="#20330B"/>
<path fill-rule="evenodd" clip-rule="evenodd" d="M224.167 219.971C224.195 219.34 224.223 218.709 224.25 218.078C224.222 218.71 224.194 219.34 224.167 219.971Z" fill="#20330B"/>
<path fill-rule="evenodd" clip-rule="evenodd" d="M320.854 154.17C320.877 154.802 320.9 155.434 320.922 156.064C320.9 155.432 320.876 154.801 320.854 154.17Z" fill="#20330B"/>
<path fill-rule="evenodd" clip-rule="evenodd" d="M134.15 225.765C134.769 225.825 135.388 225.885 136.007 225.946C135.388 225.885 134.769 225.825 134.15 225.765Z" fill="#20330B"/>
<path fill-rule="evenodd" clip-rule="evenodd" d="M219.036 177.276C219.066 176.648 219.097 176.02 219.127 175.394C219.096 176.022 219.066 176.649 219.036 177.276Z" fill="#20330B"/>
<path fill-rule="evenodd" clip-rule="evenodd" d="M111.49 189.224C112.106 189.289 112.723 189.354 113.34 189.418C112.723 189.353 112.106 189.288 111.49 189.224Z" fill="#20330B"/>
<path fill-rule="evenodd" clip-rule="evenodd" d="M201.115 90.6436C201.091 91.2305 201.067 91.817 201.044 92.401C201.068 91.8136 201.092 91.2284 201.115 90.6436Z" fill="#20330B"/>
<path fill-rule="evenodd" clip-rule="evenodd" d="M209.916 232.999C210.526 232.503 211.12 232.831 211.716 233.046C211.116 233.031 210.516 233.015 209.916 232.999Z" fill="#20330B"/>
<path fill-rule="evenodd" clip-rule="evenodd" d="M138.527 65.0725C138.125 65.054 137.724 65.0352 137.326 65.0146C137.729 65.0331 138.128 65.0528 138.527 65.0725Z" fill="#20330B"/>
<path fill-rule="evenodd" clip-rule="evenodd" d="M235.872 243.792C235.836 243.207 235.8 242.623 235.764 242.041C235.8 242.626 235.836 243.209 235.872 243.792Z" fill="#20330B"/>
<path fill-rule="evenodd" clip-rule="evenodd" d="M202.993 177.835C202.663 177.837 202.332 177.84 202.005 177.843C202.337 177.841 202.665 177.838 202.993 177.835Z" fill="#20330B"/>
<path fill-rule="evenodd" clip-rule="evenodd" d="M216.955 199.058C216.955 198.571 216.955 198.083 216.956 197.599C216.955 198.087 216.955 198.573 216.955 199.058Z" fill="#20330B"/>
<path fill-rule="evenodd" clip-rule="evenodd" d="M195.778 234.8C196.274 234.726 196.77 234.653 197.265 234.579C196.769 234.653 196.273 234.726 195.778 234.8Z" fill="#20330B"/>
<path fill-rule="evenodd" clip-rule="evenodd" d="M174.348 163.896C174.885 163.893 175.422 163.889 175.958 163.885C175.423 164.245 174.886 164.178 174.348 163.896Z" fill="#20330B"/>
<path fill-rule="evenodd" clip-rule="evenodd" d="M202.162 104.241C201.852 104.237 201.542 104.234 201.235 104.231C201.547 104.234 201.854 104.237 202.162 104.241Z" fill="#20330B"/>
<path fill-rule="evenodd" clip-rule="evenodd" d="M110.469 194.644C110.149 194.639 109.83 194.634 109.514 194.629C109.835 194.634 110.152 194.639 110.469 194.644Z" fill="#20330B"/>
<path fill-rule="evenodd" clip-rule="evenodd" d="M48.6536 170.653C49.1894 170.66 49.7252 170.666 50.2611 170.672C49.722 171.018 49.1861 171.028 48.6536 170.653Z" fill="#20330B"/>
<path fill-rule="evenodd" clip-rule="evenodd" d="M320.905 171.666C320.871 172.133 320.837 172.601 320.805 173.066C320.839 172.597 320.872 172.132 320.905 171.666Z" fill="#20330B"/>
<path fill-rule="evenodd" clip-rule="evenodd" d="M184.49 246.792C184.535 246.282 184.581 245.771 184.626 245.263C184.58 245.774 184.535 246.283 184.49 246.792Z" fill="#20330B"/>
<path fill-rule="evenodd" clip-rule="evenodd" d="M97.8467 185.975C98.388 185.983 98.9296 185.992 99.4713 186.001C98.9242 186.432 98.3858 186.161 97.8467 185.975Z" fill="#20330B"/>
<path fill-rule="evenodd" clip-rule="evenodd" d="M221.29 96.3655C221.817 96.2974 222.343 96.2293 222.87 96.1611C222.343 96.2293 221.817 96.2974 221.29 96.3655Z" fill="#20330B"/>
<path fill-rule="evenodd" clip-rule="evenodd" d="M177.281 259.956C177.329 260.492 177.376 261.029 177.423 261.563C177.376 261.026 177.328 260.491 177.281 259.956Z" fill="#20330B"/>
<path fill-rule="evenodd" clip-rule="evenodd" d="M224.176 224.689C224.175 224.189 224.174 223.688 224.173 223.19C224.174 223.692 224.175 224.19 224.176 224.689Z" fill="#20330B"/>
<path fill-rule="evenodd" clip-rule="evenodd" d="M33.2256 262.54C33.7353 262.617 34.245 262.693 34.7543 262.77C34.2446 262.693 33.7349 262.617 33.2256 262.54Z" fill="#20330B"/>
<path fill-rule="evenodd" clip-rule="evenodd" d="M42.7874 262.776C43.2905 262.306 43.8013 262.45 44.3139 262.751C43.8049 262.759 43.2959 262.768 42.7874 262.776Z" fill="#20330B"/>
<path fill-rule="evenodd" clip-rule="evenodd" d="M134.729 193.86C135.228 193.79 135.726 193.72 136.224 193.65C135.726 193.72 135.228 193.79 134.729 193.86Z" fill="#20330B"/>
<path fill-rule="evenodd" clip-rule="evenodd" d="M190.11 265.424C190.618 265.347 191.126 265.269 191.633 265.191C191.125 265.269 190.618 265.347 190.11 265.424Z" fill="#20330B"/>
<path fill-rule="evenodd" clip-rule="evenodd" d="M172.346 266.327C172.864 266.251 173.382 266.175 173.9 266.099C173.382 266.175 172.864 266.251 172.346 266.327Z" fill="#20330B"/>
<path fill-rule="evenodd" clip-rule="evenodd" d="M200.862 94.1904C200.839 94.6685 200.817 95.147 200.794 95.6222C200.817 95.1429 200.84 94.6664 200.862 94.1904Z" fill="#20330B"/>
<path fill-rule="evenodd" clip-rule="evenodd" d="M78.8711 208.195C78.9172 207.688 78.9634 207.18 79.0095 206.674C78.963 207.182 78.9172 207.689 78.8711 208.195Z" fill="#20330B"/>
<path fill-rule="evenodd" clip-rule="evenodd" d="M196.863 81.8236C196.876 81.3256 196.89 80.8276 196.903 80.332C196.89 80.8309 196.877 81.3272 196.863 81.8236Z" fill="#20330B"/>
<path fill-rule="evenodd" clip-rule="evenodd" d="M97.9385 202.55C97.9842 203.058 98.03 203.567 98.0754 204.073C98.0297 203.564 97.9839 203.057 97.9385 202.55Z" fill="#20330B"/>
<path fill-rule="evenodd" clip-rule="evenodd" d="M99.6548 185.98C100.18 186.047 100.705 186.113 101.23 186.179C100.705 186.113 100.18 186.047 99.6548 185.98Z" fill="#20330B"/>
<path fill-rule="evenodd" clip-rule="evenodd" d="M183.279 260.092C183.578 261.096 183.468 263.432 182.619 264.139C180.857 265.608 180.675 262.926 180.326 261.477C179.355 257.459 177.793 252.971 177.395 248.839C177.273 247.572 177.206 245.198 178.673 244.771C180.088 244.359 180.805 246.922 181.293 248.239C182.647 251.893 183.432 256.131 183.279 260.092Z" fill="#20330B"/>
<path fill-rule="evenodd" clip-rule="evenodd" d="M183.279 260.093C183.299 259.574 183.319 259.055 183.339 258.538C183.319 259.058 183.299 259.575 183.279 260.093Z" fill="#20330B"/>
</g>
<defs>
<clipPath id="clip0_606_4198">
<rect width="372" height="319" fill="white"/>
</clipPath>
</defs>
</svg>
