<svg width="20" height="22" viewBox="0 0 20 22" fill="none" xmlns="http://www.w3.org/2000/svg">
<path d="M12.9974 10.9987C12.9974 12.7465 11.653 14.1633 9.99457 14.1633C8.33617 14.1633 6.99177 12.7465 6.99177 10.9987C6.99177 9.25099 8.33617 7.83419 9.99457 7.83419C11.653 7.83417 12.9974 9.25101 12.9974 10.9987ZM10 4.40967C8.28292 4.41805 6.5031 4.87786 4.81827 5.75821C3.5673 6.43878 2.34817 7.39897 1.2899 8.58413C0.770133 9.18911 0.107183 10.0651 0 10.9998C0.0126667 11.8094 0.802167 12.8087 1.2899 13.4154C2.28228 14.554 3.46967 15.4874 4.81827 16.242C6.38945 17.0808 8.12853 17.5637 10 17.5906C11.7187 17.5821 13.4981 17.117 15.1811 16.242C16.4321 15.5615 17.6518 14.6006 18.7101 13.4154C19.2299 12.8104 19.8928 11.9344 20 10.9998C19.9873 10.1901 19.1978 9.1908 18.7101 8.58409C17.7177 7.44548 16.5297 6.51281 15.1811 5.75818C13.6107 4.92005 11.8674 4.44045 10 4.40967ZM9.99873 6.04588C12.6007 6.04588 14.71 8.2641 14.71 11.0005C14.71 13.7368 12.6007 15.9551 9.99873 15.9551C7.39675 15.9551 5.28748 13.7368 5.28748 11.0005C5.28748 8.2641 7.39675 6.04588 9.99873 6.04588Z" fill="#4D7520"/>
</svg>
