<svg width="20" height="20" viewBox="0 0 20 20" fill="none" xmlns="http://www.w3.org/2000/svg">
<path d="M13.0001 7.08008C13.6631 7.08008 14.299 6.81669 14.7678 6.34785C15.2367 5.879 15.5001 5.24312 15.5001 4.58008C15.5001 3.91704 15.2367 3.28115 14.7678 2.81231C14.299 2.34347 13.6631 2.08008 13.0001 2.08008C12.337 2.08008 11.7011 2.34347 11.2323 2.81231C10.7634 3.28115 10.5001 3.91704 10.5001 4.58008C10.5001 5.24312 10.7634 5.879 11.2323 6.34785C11.7011 6.81669 12.337 7.08008 13.0001 7.08008ZM18.8451 5.94308C15.2651 8.49808 13.6161 8.05108 12.0001 8.00008C10.8821 7.94308 10.5001 8.29808 10.5001 9.08008L10.5011 15.0801C10.5011 20.0801 18.9221 18.5101 15.6661 10.1311C17.3371 9.17208 18.7421 7.69708 19.5421 6.71908C19.9531 6.11108 19.5141 5.47408 18.8451 5.94308ZM7.00006 2.08008C6.33701 2.08008 5.70113 2.34347 5.23229 2.81231C4.76345 3.28115 4.50006 3.91704 4.50006 4.58008C4.50006 5.24312 4.76345 5.879 5.23229 6.34785C5.70113 6.81669 6.33701 7.08008 7.00006 7.08008C7.6631 7.08008 8.29898 6.81669 8.76782 6.34785C9.23666 5.879 9.50006 5.24312 9.50006 4.58008C9.50006 3.91704 9.23666 3.28115 8.76782 2.81231C8.29898 2.34347 7.6631 2.08008 7.00006 2.08008ZM8.00006 8.00008C6.38406 8.05108 4.73505 8.49808 1.15506 5.94308C0.486055 5.47408 0.0470552 6.11108 0.458055 6.71808C1.25806 7.69708 2.66306 9.17108 4.33406 10.1301C1.07806 18.5091 9.49905 20.0791 9.49905 15.0791L9.50006 9.07908C9.50006 8.29808 9.11806 7.94308 8.00006 8.00008Z" fill="#4D7520"/>
</svg>
