<svg width="16" height="16" viewBox="0 0 16 16" fill="none" xmlns="http://www.w3.org/2000/svg">
<path d="M8.45145 1.99128C8.24496 1.80576 7.97717 1.70312 7.69958 1.70312C7.42198 1.70312 7.15419 1.80576 6.9477 1.99128L2.8227 5.69778C2.70542 5.80325 2.61162 5.9322 2.54741 6.07627C2.48319 6.22034 2.44999 6.3763 2.44995 6.53403V11.8253C2.44995 12.1236 2.56848 12.4098 2.77946 12.6208C2.99043 12.8318 3.27658 12.9503 3.57495 12.9503H5.07495C5.37332 12.9503 5.65947 12.8318 5.87045 12.6208C6.08143 12.4098 6.19995 12.1236 6.19995 11.8253V8.82528C6.19995 8.72582 6.23946 8.63044 6.30979 8.56011C6.38011 8.48979 6.4755 8.45028 6.57495 8.45028H8.82495C8.92441 8.45028 9.01979 8.48979 9.09012 8.56011C9.16044 8.63044 9.19995 8.72582 9.19995 8.82528V11.8253C9.19995 12.1236 9.31848 12.4098 9.52946 12.6208C9.74044 12.8318 10.0266 12.9503 10.325 12.9503H11.825C12.1233 12.9503 12.4095 12.8318 12.6204 12.6208C12.8314 12.4098 12.95 12.1236 12.95 11.8253V6.53403C12.9499 6.3763 12.9167 6.22034 12.8525 6.07627C12.7883 5.9322 12.6945 5.80325 12.5772 5.69778L8.4522 1.99128H8.45145Z" fill="#FDFDFC"/>
</svg>
