<svg width="15" height="15" viewBox="0 0 15 15" fill="none" xmlns="http://www.w3.org/2000/svg">
<path d="M11.0962 8.75C11.8512 8.75 12.4674 9.34563 12.5006 10.0925L12.4999 10.1562H7.50244V10.7806L12.4868 10.7812C12.4488 11.113 12.3403 11.4329 12.1687 11.7194L7.50244 11.7181V12.3431L11.6512 12.3444C10.6762 13.2856 9.28244 13.7506 7.49994 13.7506C5.53369 13.7506 4.04244 13.185 3.06369 12.0381C2.70157 11.614 2.50257 11.0746 2.50244 10.5169V10.1556C2.50236 9.97104 2.53864 9.78824 2.6092 9.61767C2.67976 9.4471 2.78323 9.2921 2.9137 9.16151C3.04416 9.03093 3.19907 8.92733 3.36958 8.85661C3.54009 8.7859 3.72285 8.74946 3.90744 8.74937H11.0962V8.75ZM7.49994 1.25C8.52244 1.25 9.42994 1.74062 9.99994 2.5H7.50182V3.12438L10.3649 3.125C10.4924 3.4175 10.5768 3.7325 10.6093 4.0625H7.50119V4.6875L10.6093 4.68875C10.5774 5.01211 10.495 5.32846 10.3649 5.62625L7.50119 5.625L7.50182 6.25063L9.99932 6.25125C9.67954 6.67717 9.25622 7.01429 8.76954 7.23062C8.28285 7.44694 7.74895 7.53529 7.21852 7.48727C6.68809 7.43926 6.17874 7.25647 5.73881 6.95627C5.29888 6.65606 4.94298 6.2484 4.70489 5.77198C4.4668 5.29557 4.35442 4.7662 4.37843 4.23415C4.40244 3.70209 4.56203 3.185 4.84205 2.73196C5.12208 2.27892 5.51325 1.90496 5.97842 1.6456C6.4436 1.38623 6.96734 1.25005 7.49994 1.25Z" fill="#FDFDFC"/>
</svg>
