<?xml version="1.0" encoding="UTF-8" standalone="no"?><svg width="24" height="24" viewBox="0 0 24 24" fill="none" xmlns="http://www.w3.org/2000/svg">
<path d="M5.25 5C4.38805 5 3.5614 5.34241 2.9519 5.9519C2.34241 6.5614 2 7.38805 2 8.25V15.75C2 16.612 2.34241 17.4386 2.9519 18.0481C3.5614 18.6576 4.38805 19 5.25 19H18.75C19.1768 19 19.5994 18.9159 19.9937 18.7526C20.388 18.5893 20.7463 18.3499 21.0481 18.0481C21.3499 17.7463 21.5893 17.388 21.7526 16.9937C21.9159 16.5994 22 16.1768 22 15.75V8.25C22 7.8232 21.9159 7.40059 21.7526 7.00628C21.5893 6.61197 21.3499 6.25369 21.0481 5.9519C20.7463 5.65011 20.388 5.41072 19.9937 5.24739C19.5994 5.08406 19.1768 5 18.75 5H5.25ZM6.28 10.22L7 10.94L7.72 10.22C7.78866 10.1463 7.87146 10.0872 7.96346 10.0462C8.05546 10.0052 8.15478 9.98318 8.25548 9.98141C8.35618 9.97963 8.45621 9.99816 8.5496 10.0359C8.64299 10.0736 8.72782 10.1297 8.79904 10.201C8.87026 10.2722 8.9264 10.357 8.96412 10.4504C9.00184 10.5438 9.02037 10.6438 9.01859 10.7445C9.01682 10.8452 8.99477 10.9445 8.95378 11.0365C8.91279 11.1285 8.85369 11.2113 8.78 11.28L8.061 12L8.781 12.718C8.85073 12.7877 8.90606 12.8704 8.94382 12.9614C8.98159 13.0525 9.00105 13.1501 9.00109 13.2486C9.00114 13.3472 8.98177 13.4448 8.94409 13.5359C8.90642 13.627 8.85117 13.7098 8.7815 13.7795C8.71183 13.8492 8.62912 13.9046 8.53807 13.9423C8.44702 13.9801 8.34942 13.9995 8.25085 13.9996C8.15228 13.9996 8.05467 13.9803 7.96359 13.9426C7.8725 13.9049 7.78973 13.8497 7.72 13.78L7 13.06L6.28 13.78C6.13783 13.9125 5.94978 13.9846 5.75548 13.9812C5.56118 13.9777 5.37579 13.899 5.23838 13.7616C5.10097 13.6242 5.02225 13.4388 5.01883 13.2445C5.0154 13.0502 5.08752 12.8622 5.22 12.72L5.94 12L5.22 11.28C5.08752 11.1378 5.0154 10.9498 5.01883 10.7555C5.02225 10.5612 5.10097 10.3758 5.23838 10.2384C5.37579 10.101 5.56118 10.0223 5.75548 10.0188C5.94978 10.0154 6.13783 10.0875 6.28 10.22ZM11.78 10.22L12.5 10.94L13.22 10.22C13.2887 10.1463 13.3715 10.0872 13.4635 10.0462C13.5555 10.0052 13.6548 9.98318 13.7555 9.98141C13.8562 9.97963 13.9562 9.99816 14.0496 10.0359C14.143 10.0736 14.2278 10.1297 14.299 10.201C14.3703 10.2722 14.4264 10.357 14.4641 10.4504C14.5018 10.5438 14.5204 10.6438 14.5186 10.7445C14.5168 10.8452 14.4948 10.9445 14.4538 11.0365C14.4128 11.1285 14.3537 11.2113 14.28 11.28L13.561 12L14.281 12.718C14.4217 12.8587 14.5007 13.0495 14.5007 13.2485C14.5007 13.4475 14.4217 13.6383 14.281 13.779C14.1403 13.9197 13.9495 13.9987 13.7505 13.9987C13.5515 13.9987 13.3607 13.9197 13.22 13.779L12.5 13.06L11.78 13.78C11.7113 13.8537 11.6285 13.9128 11.5365 13.9538C11.4445 13.9948 11.3452 14.0168 11.2445 14.0186C11.1438 14.0204 11.0438 14.0018 10.9504 13.9641C10.857 13.9264 10.7722 13.8703 10.701 13.799C10.6297 13.7278 10.5736 13.643 10.5359 13.5496C10.4982 13.4562 10.4796 13.3562 10.4814 13.2555C10.4832 13.1548 10.5052 13.0555 10.5462 12.9635C10.5872 12.8715 10.6463 12.7887 10.72 12.72L11.44 12L10.72 11.28C10.5875 11.1378 10.5154 10.9498 10.5188 10.7555C10.5223 10.5612 10.601 10.3758 10.7384 10.2384C10.8758 10.101 11.0612 10.0223 11.2555 10.0188C11.4498 10.0154 11.6378 10.0875 11.78 10.22ZM15.75 14.25C15.75 14.0511 15.829 13.8603 15.9697 13.7197C16.1103 13.579 16.3011 13.5 16.5 13.5H18.25C18.4489 13.5 18.6397 13.579 18.7803 13.7197C18.921 13.8603 19 14.0511 19 14.25C19 14.4489 18.921 14.6397 18.7803 14.7803C18.6397 14.921 18.4489 15 18.25 15H16.5C16.3011 15 16.1103 14.921 15.9697 14.7803C15.829 14.6397 15.75 14.4489 15.75 14.25Z" fill="#4D7520"/>
</svg>
