<svg width="24" height="24" viewBox="0 0 24 24" fill="none" xmlns="http://www.w3.org/2000/svg">
<path d="M21.531 2.4707C20.893 1.83291 20.0279 1.47461 19.1257 1.47461C18.2236 1.47461 17.3585 1.83291 16.7205 2.4707L10.3455 8.8457C10.2631 8.92781 10.201 9.02795 10.164 9.1382L8.289 14.7632C8.24482 14.8953 8.23832 15.0371 8.2702 15.1727C8.30209 15.3083 8.37112 15.4324 8.46954 15.5309C8.56796 15.6295 8.6919 15.6987 8.82745 15.7309C8.963 15.763 9.10482 15.7567 9.237 15.7127L14.862 13.8377C14.9728 13.8009 15.0735 13.7388 15.156 13.6562L21.531 7.2812C22.1688 6.64323 22.5271 5.77806 22.5271 4.87595C22.5271 3.97385 22.1688 3.10868 21.531 2.4707Z" fill="#2D4710"/>
<path d="M19.4805 11.4523C19.5924 12.9784 19.2348 14.5021 18.4558 15.8191C17.6768 17.1361 16.5136 18.1833 15.1223 18.8202C13.731 19.4571 12.1782 19.6532 10.6722 19.3822C9.16628 19.1112 7.77925 18.386 6.69728 17.3041C5.6153 16.2221 4.89016 14.8351 4.61915 13.3291C4.34814 11.8232 4.54424 10.2703 5.18113 8.87905C5.81802 7.48775 6.86522 6.32454 8.18221 5.54552C9.4992 4.7665 11.023 4.40895 12.549 4.52083L13.8735 3.19483C11.975 2.79118 9.99688 3.01209 8.2342 3.8246C6.47152 4.63711 5.01874 5.9977 4.09255 7.70339C3.16637 9.40909 2.81642 11.3685 3.0949 13.2894C3.37338 15.2102 4.26537 16.9896 5.63782 18.362C7.01027 19.7345 8.78963 20.6265 10.7105 20.9049C12.6313 21.1834 14.5907 20.8335 16.2964 19.9073C18.0021 18.9811 19.3627 17.5283 20.1752 15.7656C20.9877 14.003 21.2087 12.0248 20.805 10.1263L19.4805 11.4523Z" fill="#2D4710"/>
</svg>
