<?xml version="1.0" encoding="UTF-8" standalone="no"?><svg width="264" height="294" viewBox="0 0 264 294" fill="none" xmlns="http://www.w3.org/2000/svg">
<g filter="url(#filter0_d_127_933)">
<rect x="5" y="1" width="254" height="284" rx="19" stroke="#4AAE3E" stroke-width="2"/>
<rect x="28" y="27" width="208" height="187" rx="20" fill="#ACFFAD"/>
<path d="M110.645 262.562C110.645 262.49 110.686 262.453 110.768 262.453H111.15C112.044 262.453 112.759 262.262 113.297 261.879C113.844 261.496 114.117 261.049 114.117 260.539V245.404C114.117 245.213 114.076 245.108 113.994 245.09C113.921 245.062 113.83 245.04 113.721 245.021H108.471C107.623 245.204 107.067 245.855 106.803 246.977C106.657 247.578 106.57 247.965 106.543 248.139C106.516 248.303 106.465 248.385 106.393 248.385H106.146C106.092 248.385 106.064 248.367 106.064 248.33V247.879L106.57 243.613C106.625 243.331 106.716 243.189 106.844 243.189C106.971 243.189 107.108 243.281 107.254 243.463C107.4 243.636 107.678 243.723 108.088 243.723H122.826C123.218 243.723 123.455 243.677 123.537 243.586C123.619 243.495 123.697 243.408 123.77 243.326C123.842 243.235 123.934 243.189 124.043 243.189C124.161 243.189 124.234 243.235 124.262 243.326C124.298 243.417 124.326 243.513 124.344 243.613L124.85 247.879V248.33C124.85 248.367 124.822 248.385 124.768 248.385H124.521C124.449 248.385 124.398 248.316 124.371 248.18C124.225 247.268 124.016 246.548 123.742 246.02C123.469 245.482 123.036 245.149 122.443 245.021H117.18C117.07 245.04 116.975 245.062 116.893 245.09C116.82 245.108 116.783 245.213 116.783 245.404V260.539C116.783 261.049 117.052 261.496 117.59 261.879C118.137 262.262 118.857 262.453 119.75 262.453H120.146C120.219 262.453 120.256 262.49 120.256 262.562V262.891C120.256 262.964 120.219 263 120.146 263H110.754C110.681 263 110.645 262.964 110.645 262.891V262.562ZM135.131 260.744C135.131 260.981 135.24 261.173 135.459 261.318C135.687 261.455 135.947 261.523 136.238 261.523C136.53 261.523 136.771 261.451 136.963 261.305C137.163 261.15 137.3 261.072 137.373 261.072C137.446 261.072 137.482 261.173 137.482 261.373C137.482 261.564 137.391 261.729 137.209 261.865C135.842 262.868 134.917 263.369 134.434 263.369C133.85 263.369 133.376 262.763 133.012 261.551C132.984 261.46 132.962 261.419 132.943 261.428C131.813 262.275 131.102 262.786 130.811 262.959C130.063 263.387 129.311 263.456 128.555 263.164C127.807 262.872 127.265 262.389 126.928 261.715C126.764 261.368 126.682 260.999 126.682 260.607C126.682 259.833 126.969 259.217 127.543 258.762C128.117 258.306 129.211 257.868 130.824 257.449C131.371 257.303 131.859 257.117 132.287 256.889C132.715 256.661 132.939 256.515 132.957 256.451C132.984 256.387 132.998 256.328 132.998 256.273V253.648C132.998 252.618 132.597 251.894 131.795 251.475C131.531 251.338 131.212 251.27 130.838 251.27C130.473 251.27 130.1 251.415 129.717 251.707C129.343 251.999 129.156 252.413 129.156 252.951L129.225 253.484C129.17 253.594 128.842 253.776 128.24 254.031C127.639 254.286 127.292 254.423 127.201 254.441C127.055 254.441 126.982 254.268 126.982 253.922C126.982 253.566 127.087 253.174 127.297 252.746C127.507 252.318 127.803 251.926 128.186 251.57C129.079 250.741 130.1 250.326 131.248 250.326C132.396 250.326 133.331 250.645 134.051 251.283C134.771 251.912 135.131 252.664 135.131 253.539V260.744ZM128.828 260.348C128.828 260.785 128.997 261.168 129.334 261.496C129.671 261.815 130.054 261.975 130.482 261.975C130.92 261.975 131.449 261.792 132.068 261.428C132.688 261.054 132.998 260.671 132.998 260.279V257.504C132.998 257.404 132.975 257.354 132.93 257.354C132.884 257.354 132.852 257.358 132.834 257.367L129.662 258.844C129.334 259.081 129.111 259.281 128.992 259.445C128.883 259.609 128.828 259.91 128.828 260.348ZM142.117 252.486C142.062 252.486 142.035 252.527 142.035 252.609V260.156C142.035 260.703 142.154 261.132 142.391 261.441C142.637 261.751 142.947 261.906 143.32 261.906C143.694 261.906 144.018 261.847 144.291 261.729C144.574 261.601 144.815 261.464 145.016 261.318C145.225 261.173 145.412 261.04 145.576 260.922C145.74 260.794 145.886 260.73 146.014 260.73C146.141 260.73 146.205 260.762 146.205 260.826C146.205 261.045 146.182 261.186 146.137 261.25C145.043 262.663 143.986 263.369 142.965 263.369C141.953 263.369 141.188 263.05 140.668 262.412C140.158 261.765 139.902 260.995 139.902 260.102V252.486H138.877C138.622 252.486 138.485 252.404 138.467 252.24C138.458 252.076 138.485 251.971 138.549 251.926C139.032 251.616 139.697 251.06 140.545 250.258C140.636 250.158 140.759 250.007 140.914 249.807C141.069 249.606 141.292 249.333 141.584 248.986C141.885 248.64 142.113 248.467 142.268 248.467C142.423 248.467 142.5 248.531 142.5 248.658C142.5 248.676 142.345 249.273 142.035 250.449C142.035 250.613 142.108 250.7 142.254 250.709H145.74C146.141 250.709 146.342 251.274 146.342 252.404C146.342 252.459 146.305 252.486 146.232 252.486H142.117ZM156.104 260.744C156.104 260.981 156.213 261.173 156.432 261.318C156.66 261.455 156.919 261.523 157.211 261.523C157.503 261.523 157.744 261.451 157.936 261.305C158.136 261.15 158.273 261.072 158.346 261.072C158.419 261.072 158.455 261.173 158.455 261.373C158.455 261.564 158.364 261.729 158.182 261.865C156.814 262.868 155.889 263.369 155.406 263.369C154.823 263.369 154.349 262.763 153.984 261.551C153.957 261.46 153.934 261.419 153.916 261.428C152.786 262.275 152.075 262.786 151.783 262.959C151.036 263.387 150.284 263.456 149.527 263.164C148.78 262.872 148.238 262.389 147.9 261.715C147.736 261.368 147.654 260.999 147.654 260.607C147.654 259.833 147.941 259.217 148.516 258.762C149.09 258.306 150.184 257.868 151.797 257.449C152.344 257.303 152.831 257.117 153.26 256.889C153.688 256.661 153.911 256.515 153.93 256.451C153.957 256.387 153.971 256.328 153.971 256.273V253.648C153.971 252.618 153.57 251.894 152.768 251.475C152.503 251.338 152.184 251.27 151.811 251.27C151.446 251.27 151.072 251.415 150.689 251.707C150.316 251.999 150.129 252.413 150.129 252.951L150.197 253.484C150.143 253.594 149.814 253.776 149.213 254.031C148.611 254.286 148.265 254.423 148.174 254.441C148.028 254.441 147.955 254.268 147.955 253.922C147.955 253.566 148.06 253.174 148.27 252.746C148.479 252.318 148.775 251.926 149.158 251.57C150.051 250.741 151.072 250.326 152.221 250.326C153.369 250.326 154.303 250.645 155.023 251.283C155.743 251.912 156.104 252.664 156.104 253.539V260.744ZM149.801 260.348C149.801 260.785 149.969 261.168 150.307 261.496C150.644 261.815 151.027 261.975 151.455 261.975C151.893 261.975 152.421 261.792 153.041 261.428C153.661 261.054 153.971 260.671 153.971 260.279V257.504C153.971 257.404 153.948 257.354 153.902 257.354C153.857 257.354 153.825 257.358 153.807 257.367L150.635 258.844C150.307 259.081 150.083 259.281 149.965 259.445C149.855 259.609 149.801 259.91 149.801 260.348Z" fill="#4B4453"/>
</g>
<defs>
<filter id="filter0_d_127_933" x="0" y="0" width="264" height="294" filterUnits="userSpaceOnUse" color-interpolation-filters="sRGB">
<feFlood flood-opacity="0" result="BackgroundImageFix"/>
<feColorMatrix in="SourceAlpha" type="matrix" values="0 0 0 0 0 0 0 0 0 0 0 0 0 0 0 0 0 0 127 0" result="hardAlpha"/>
<feOffset dy="4"/>
<feGaussianBlur stdDeviation="2"/>
<feComposite in2="hardAlpha" operator="out"/>
<feColorMatrix type="matrix" values="0 0 0 0 0.482353 0 0 0 0 0.380392 0 0 0 0 1 0 0 0 0.25 0"/>
<feBlend mode="normal" in2="BackgroundImageFix" result="effect1_dropShadow_127_933"/>
<feBlend mode="normal" in="SourceGraphic" in2="effect1_dropShadow_127_933" result="shape"/>
</filter>
</defs>
</svg>
