<?xml version="1.0" encoding="UTF-8" standalone="no"?><svg width="671" height="588" viewBox="0 0 671 588" fill="none" xmlns="http://www.w3.org/2000/svg">
<g clip-path="url(#clip0_197_2106)">
<path fill-rule="evenodd" clip-rule="evenodd" d="M302.546 158.906C308.559 155.742 314.195 150.609 318.349 144.295C318.384 150.029 318.269 157.234 315.851 161.891C314.932 163.661 313.493 164.99 312.194 166.262C310.283 168.133 308.284 169.865 306.258 171.537C302.682 174.488 298.951 177.71 294.887 179.621C293.759 180.151 293.097 179.995 291.916 179.259C289.932 178.023 288.042 176.437 286.178 174.894C283.19 172.42 280.248 169.836 277.343 167.187C285.914 165.396 294.652 163.06 302.546 158.906ZM244.765 190.411C246.167 191.19 247.57 191.97 248.972 192.749C258.874 198.253 268.777 203.756 278.68 209.26C275.395 213.608 272.109 217.956 268.824 222.304C270.652 223.994 272.479 225.684 274.307 227.374C273.183 228.643 272.059 229.913 270.936 231.182C268.875 233.51 266.815 235.837 264.755 238.165C264.025 238.99 263.294 239.815 262.564 240.64C262.392 240.834 262.17 241.211 261.952 241.23C261.624 241.258 260.895 240.647 260.589 240.478C259.621 239.941 258.653 239.402 257.686 238.86C254.71 237.194 251.739 235.508 248.774 233.801C241.506 229.613 234.237 225.358 227.131 220.63C223.848 218.447 220.739 216.122 217.882 212.99C214.737 209.545 211.915 205.606 209.303 201.502C207.103 198.047 205.044 194.447 203.115 190.752C202.452 189.483 201.053 187.519 200.766 186.033C200.611 185.235 200.901 183.98 200.953 183.201C201.076 181.354 201.199 179.507 201.321 177.66C201.384 176.712 201.641 175.499 201.53 174.526C201.395 173.351 200.646 171.861 200.276 170.75C200.096 170.209 199.784 168.646 199.4 168.399C199.146 168.234 198.367 168.504 198.107 168.53C195.994 168.746 193.882 168.962 191.77 169.177C186.105 169.756 180.44 170.334 174.776 170.912C173.217 171.072 171.523 171.532 169.935 171.407C168.735 171.312 167.781 170.261 167.154 168.931C165.274 164.936 163.435 160.864 161.924 156.651C160.463 152.58 160.37 149.197 160.877 145.048C161.321 141.416 161.977 137.769 162.869 134.331C163.126 133.34 163.164 133.533 163.996 133.556C167.412 133.652 170.828 133.747 174.244 133.843C185.806 134.167 197.367 134.49 208.929 134.814C213.006 134.928 217.082 135.043 221.158 135.156C221.754 135.173 222.861 134.912 223.446 135.221C223.747 135.379 224.067 135.966 224.303 136.272C225.325 137.595 226.348 138.917 227.37 140.241C233.11 147.667 238.948 154.964 244.756 162.301C251.214 170.458 257.672 178.616 264.131 186.774C257.675 187.986 251.22 189.198 244.765 190.411Z" fill="#4D7520"/>
<path fill-rule="evenodd" clip-rule="evenodd" d="M206.893 46.0615C209.209 46.8505 210.99 49.9851 212.575 52.1909C214.476 54.838 216.283 57.648 217.623 60.7934C218.996 64.0163 219.849 67.6844 220.256 71.1971C220.436 72.7427 220.408 74.1885 220.377 75.7087C220.344 77.3336 221.075 78.1088 222.136 79.0318C224.339 80.949 226.882 82.2446 228.746 84.7813C230.325 86.9307 231.684 87.1092 233.762 86.7881C238.922 85.9905 243.885 84.7527 249.211 85.0001C250.563 85.063 251.922 85.2008 253.278 85.3878C253.724 85.4491 254.211 85.6161 254.65 85.5796C255.282 85.5268 255.32 85.1817 255.717 84.7742C257.462 82.9814 260.308 83.7738 262.49 84.1118C267.999 84.9655 273.36 86.5669 278.704 89.0504C284.476 91.7323 290.407 93.5157 296.155 96.3174C301.707 99.0239 306.969 102.785 312.326 106.176C317.774 109.625 323.062 113.482 328.282 117.556C333.328 121.494 338.493 125.316 343.229 129.925C347.548 134.127 351.354 139.369 354.374 145.151C355.382 147.081 355.286 148.447 353.315 148.147C353.579 150.255 352.584 151.363 351.006 151.225C351.82 152.872 353.348 155.014 353.136 157.01C352.854 159.663 350.208 158.318 348.894 157.577C349.427 159.553 350.741 162.67 349.819 164.543C348.39 167.445 344.454 164.93 342.693 163.343C338.205 159.298 334.749 153.861 330.578 149.36C325.408 143.781 319.824 138.666 314.274 133.794C313.836 133.409 308.823 128.715 308.42 129.576C310.875 132.927 313.067 136.719 316.068 139.305C316.764 136.992 317.79 137.85 318.431 139.897C319.202 142.358 320.028 144.947 320.195 147.538C320.523 152.638 319.118 157.841 317.386 162.066C315.575 166.486 312.942 170.109 309.955 173.204C308.264 174.956 306.55 176.624 304.615 177.944C303.748 178.536 302.893 179.19 301.976 179.666C301.094 180.123 300.078 180.313 299.334 181.09C308.101 184.378 317.113 184.67 325.873 187.83C327.987 188.592 332.372 190.802 331.157 194.55C330.216 197.449 326.885 198.23 324.793 199.2C326.824 200.88 326.967 202.798 325.066 204.331C324.302 204.947 323.454 205.334 322.549 205.553C321.935 205.701 320.807 205.631 320.439 206.374C322.606 207.142 325.22 206.531 327.225 208.251C329.271 210.006 327.685 212.082 326.406 213.184C324.723 214.633 322.34 216.287 320.144 215.408C318.408 214.713 317.043 215.222 315.298 215.304C313.5 215.389 311.677 215.252 309.86 214.936C302.943 213.735 296.093 210.289 289.499 206.869C282.912 203.453 276.577 199.335 270.487 194.402C268.985 193.185 267.627 191.649 266.107 190.484C264.508 189.257 263.128 189.402 261.48 189.766C257.734 190.595 253.802 190.485 250.165 191.838C256.666 196.091 263.342 199.642 270.012 203.291C272.549 204.68 275.324 206.657 278.028 206.934C279.215 207.056 281.654 206.796 282.397 208.531C282.939 209.797 282.127 210.196 281.761 211.019C281.23 212.21 282.349 212.342 283.206 212.614C284.285 212.958 285.204 212.951 286.229 212.591C287.797 212.039 289.078 211.852 290.769 212.454C293.425 213.399 296.12 213.648 298.777 214.56C299.877 214.938 300.49 216.613 301.205 217.689C302.328 219.379 303.549 220.958 304.756 222.55C307.032 225.551 309.109 228.692 311.912 230.883C314.369 232.803 316.996 234.411 319.566 236.015C323.579 238.521 328.661 241.595 328.871 248.085C329.079 254.501 324.069 254.837 320.128 254.494C318.47 254.349 316.066 253.486 314.616 254.422C313.365 255.23 312.445 255.501 310.948 255.369C309.212 255.216 307.501 255.236 305.774 255.239C302.156 255.245 298.413 254.798 294.78 253.949C293.037 253.542 291.506 252.836 289.943 251.593C289.479 251.224 289.079 250.648 288.585 250.755C288.164 250.846 287.716 251.965 287.46 252.374C286.654 253.665 285.701 254.801 284.263 253.758C283.346 253.092 282.312 251.446 283.222 250.378C283.92 249.56 285.589 249.99 285.933 248.643C286.294 247.234 284.517 245.661 283.866 244.709C282.791 246.159 281.342 248.942 279.408 247.282C277.859 245.954 279.023 244.714 280.048 243.976C281.315 243.064 282.947 242.812 281.73 240.499C281.038 239.185 280.134 238.066 279.717 236.562C279.4 235.419 279.424 234.252 279.194 233.101C278.782 231.043 276.742 229.617 275.181 229.431C274.228 229.317 274.169 230.376 273.78 231.258C273.208 232.555 272.353 233.614 271.48 234.563C270.047 236.12 268.479 237.444 266.917 238.784C265.882 239.671 263.991 240.944 265.229 242.735C267.04 245.356 263.896 244.57 262.731 244.13C260.02 243.107 257.299 242.158 254.601 241.046C249.068 238.765 243.764 235.633 238.56 232.082C233.452 228.595 228.387 224.818 223.544 220.669C221.198 218.658 218.908 216.508 216.771 214.116C214.475 211.547 212.397 208.677 210.075 206.144C207.666 203.515 205.295 200.971 203.413 197.672C201.669 194.616 199.703 191.208 198.943 187.613C198.104 183.64 197.382 180.066 197.595 176.046C197.684 174.369 197.844 172.609 198.283 171.068C198.409 170.625 199.223 169.032 198.886 168.533C198.905 168.561 196.509 169.578 196.254 169.664C194.638 170.215 192.892 170.183 191.197 170.319C186.185 170.723 181.297 171.963 176.245 172.08C174.341 172.124 172.421 172.884 170.502 172.637C169.596 172.521 169.256 171.925 168.526 171.53C168.193 171.35 167.906 171.491 167.573 171.214C167.184 170.889 167.002 170.342 166.761 169.863C165.474 167.308 163.745 165.146 162.464 162.584C161.024 159.702 160.411 156.535 159.815 153.336C158.632 153.711 157.365 153.983 156.098 153.571C155.962 157.551 152.006 158.293 149.524 158.503C146.424 158.767 142.798 159.121 140.441 155.433C137.672 151.098 136.616 145.362 135.343 140.272C133.847 134.295 132.515 128.189 131.499 122.109C130.635 116.938 130.427 111.428 132.107 106.838C133.59 102.788 137 99.8943 140.712 102.626C143.502 104.68 145.428 109.017 146.354 112.767C146.825 114.676 147.112 116.418 148.8 115.515C149.449 115.168 150.008 114.707 150.71 115.537C151.329 116.267 151.367 117.499 150.925 118.232C150.524 118.896 149.501 119.008 149.319 119.91C149.138 120.805 149.963 122.009 150.66 122.04C151.454 122.075 151.773 120.677 152.655 121.114C153.464 121.515 153.309 122.606 152.964 123.297C152.557 124.116 152.055 124.372 152.68 125.407C153.158 126.2 153.881 126.645 154.34 127.497C155.471 129.598 156.354 132.769 156.071 135.174C157.405 135.097 160.952 136.473 161.635 134.63C161.882 133.961 161.748 133.082 162.023 132.395C162.346 131.587 162.941 131.149 163.613 130.892C165.049 130.341 166.693 130.624 168.217 130.712C170.742 130.857 173.266 130.92 175.787 130.989C180.859 131.127 185.905 130.912 190.982 131.137C196.049 131.362 201.132 131.918 206.211 132.469C208.874 132.758 211.546 133.148 214.205 133.326C216.691 133.491 219.24 133.466 221.712 134.389C220.554 130.95 218.679 127.955 217.225 124.699C215.729 121.35 214.792 117.893 214.486 114.19C214.206 110.797 214.138 107.458 214.818 104.269C215.093 102.98 215.421 101.684 215.971 100.577C216.362 99.7893 216.993 99.0715 217.246 98.1763C217.496 97.2928 217.37 97.1255 216.549 96.9111C216.093 96.7915 215.704 96.807 215.252 96.601C214.837 96.4117 214.428 95.9969 213.984 95.9931C212.962 95.9837 211.787 97.5294 210.981 98.1591C209.882 99.0184 208.729 99.8256 207.459 100.279C203.294 101.769 197.532 99.5346 193.773 96.1655C192.519 95.041 189.639 92.4546 190.139 90.2438C190.402 89.0768 191.318 89.1529 191.944 88.5188C192.924 87.5259 191.945 86.414 191.195 85.526C189.153 83.1068 187.518 80.1939 185.834 77.3813C184.119 74.5187 182.072 72.0656 180.244 69.3293C178.932 67.366 177.429 65.1771 176.539 62.8751C175.451 60.0638 176.861 59.3448 178.603 58.5518C184.114 56.043 189.442 53.099 194.832 50.2696C196.981 49.1419 199.139 48.0011 201.322 46.9672C203.024 46.1615 204.965 45.4051 206.893 46.0615ZM294.99 217.281C292.05 218.096 289.23 219.586 290.077 224.191C292.228 232.818 297.858 238.439 303.581 243.278C305.024 244.499 306.462 245.813 307.974 246.869C308.864 247.491 309.734 247.68 310.651 248.129C310.876 248.239 311.314 248.673 311.51 248.712C311.975 248.807 311.97 248.594 312.375 248.45C313.259 248.137 313.598 248.938 314.43 249.479C316.008 250.505 318.323 249.831 319.946 249.92C321.445 250.002 327.662 251.541 326.607 247.7C325.576 243.947 322.118 242.732 319.6 241.479C316.09 239.733 312.446 237.811 309.237 235.107C306.187 232.536 303.743 228.662 301.332 225.175C299.83 223.002 299.134 221.041 298.295 218.44C297.939 217.339 297.851 216.974 296.976 216.955C296.3 216.942 295.633 217.103 294.99 217.281ZM284.486 218.781C282.915 219.871 281.989 221.96 281.555 224.195C281.333 225.339 281.3 226.454 281.397 227.663C281.52 229.201 281.425 230.89 282.053 232.333C283.193 234.951 285.321 237.628 286.993 239.732C288.873 242.098 291.219 244.705 293.662 245.89C296.013 247.031 298.551 246.942 300.83 248.479C300.443 247.456 299.53 246.829 298.804 246.291C297.745 245.507 296.796 244.707 295.829 243.712C293.69 241.513 291.782 239.048 290.278 236.102C288.82 233.247 287.642 229.939 287.085 226.691C286.82 225.145 286.685 223.473 286.9 221.969C287.043 220.964 287.475 220.045 287.53 219.008C287.655 216.63 285.27 218.238 284.486 218.781ZM231.335 151.745C229.005 152.599 226.746 153.698 224.384 154.491C219.61 156.094 214.6 157.491 210.796 161.487C205.262 167.301 199.873 178.786 204.269 188.813C209.461 200.657 217.42 210.697 226.303 218.007C231.973 222.674 237.961 226.7 243.931 230.564C249.706 234.303 255.9 236.26 261.76 239.66C260.757 233.081 262.633 226.472 265.451 221.576C266.966 218.945 268.597 216.387 270.439 214.135C271.344 213.028 272.316 212.051 273.31 211.077C274.064 210.339 274.854 209.308 275.835 209.042C275.622 208.085 273.722 208.106 273.172 207.984C271.272 207.562 269.357 206.711 267.509 205.886C263.483 204.088 259.611 201.681 255.737 199.295C253.844 198.129 251.935 197.012 250.052 195.811C248.357 194.729 246.737 193.202 244.978 192.345C243.169 191.465 241.271 191.593 239.437 191.509C237.234 191.407 235.044 191.198 232.844 191.164C229.171 191.106 225.294 189.061 221.674 187.869C220.457 187.467 218.684 187.267 217.61 186.255C216.636 185.338 216.492 183.642 217.307 182.709C218.707 181.104 221.813 182.183 223.551 182.675C226.765 183.586 229.926 184.343 233.167 184.482C237.606 184.672 242.025 185.828 246.465 185.996C251.254 186.177 256.075 186.461 260.794 185.92C259.048 183.187 256.659 181.11 254.641 178.729C252.326 175.997 250.013 173.263 247.709 170.514C243.649 165.668 239.245 160.866 235.772 155.301C234.581 153.393 233.308 151.021 231.335 151.745ZM269.493 226.67C268.853 226.948 268.529 227.934 268.194 228.611C267.157 230.704 266.146 232.774 265.434 235.125C267.005 233.773 268.098 231.754 269.575 230.271C270.108 229.736 272.097 228.38 271.425 227.334C271.047 226.746 269.964 226.465 269.493 226.67ZM276.14 217.729C274.725 219.648 273.204 221.417 271.651 223.152C273.068 223.531 274.534 224.155 275.828 225.105C276.42 225.539 277.732 226.897 278.348 226.361C278.921 225.863 278.839 223.678 278.996 222.85C279.398 220.732 280.142 218.657 281.034 216.868C278.889 215.64 277.634 215.703 276.14 217.729ZM243.991 135.688C242.705 136.484 241.441 137.325 240.157 138.124C237.595 139.721 234.936 141.162 232.04 141.757C231.842 142.794 233.292 144.121 233.789 144.779C235.093 146.506 236.292 148.399 237.525 150.211C240.139 154.052 242.879 157.697 245.75 161.221C248.651 164.781 251.39 168.572 254.331 172.074C257.178 175.464 260.209 178.702 263.193 181.884C274.816 194.282 288.961 201.572 302.694 207.91C306.543 209.686 310.472 211.14 314.451 211.725C316.093 211.966 317.749 212.116 319.389 212.21C320.491 212.273 322.358 212.538 323.137 211.45C319.792 210.493 315.708 210.698 312.641 208.148C310.742 206.568 312.108 204.818 313.576 204.15C316.416 202.858 319.857 203.934 322.554 202.222C321.383 200.492 319.154 201.044 317.687 200.84C315.833 200.582 315.532 199.444 317.017 198.322C318.844 196.942 321.287 196.985 323.361 196.373C324.373 196.075 328.645 194.96 326.804 192.62C325.356 190.778 322.739 190.717 320.947 190.296C318.434 189.706 315.865 188.506 313.358 188.164C310.907 187.829 308.476 187.813 306.016 187.433C303.448 187.037 300.896 186.534 298.355 185.67C293.457 184.002 288.689 181.352 284.175 178.112C279.525 174.772 275.219 170.735 271.11 166.301C268.948 163.969 266.848 161.543 264.721 159.157C262.667 156.853 260.439 154.713 258.631 152.075C256.632 149.158 254.293 146.6 252.248 143.704C251.14 142.134 249.981 140.609 248.917 138.992C248.16 137.842 247.442 136.075 246.543 135.126C245.698 134.233 244.745 135.221 243.991 135.688ZM188.098 189.361C188.679 189.827 188.649 190.074 188.706 190.805C188.823 192.304 188.915 193.779 189.135 195.279C189.885 200.408 191.508 205.554 193.136 210.437C194.762 215.31 197.149 219.63 200.215 223.306C203.185 226.868 206.433 229.524 210.251 230.786C210.907 231.003 213.483 231.763 213.567 232.936C213.631 233.817 212.326 233.58 211.867 233.546C205.373 233.075 198.667 226.828 194.165 220.656C192.301 218.101 190.886 215.405 189.536 212.434C189.339 212.001 186.527 205.859 187.012 205.675C185.661 201.3 184.415 195.898 185.166 191.437C185.447 189.771 186.572 188.141 188.098 189.361ZM177.587 192.524C177.719 196.004 178.61 199.4 179.434 202.783C179.585 203.4 180.247 205.258 179.461 205.382C178.905 205.469 178.085 203.706 177.852 203.259C176.441 200.543 175.482 197.354 175.266 194.229C175.197 193.24 175.152 192.032 175.886 191.533C176.525 191.099 177.431 191.454 177.587 192.524ZM317.825 147.495C317.525 147.786 317.459 148.235 317.451 148.716C315.374 152.305 312.801 155.894 310.084 158.684C307.657 161.176 304.557 162.653 301.656 164.151C295.023 167.577 288.177 169.817 280.629 168.701C284.216 171.6 287.771 175.702 291.845 177.182C293.87 177.917 295.722 176.841 297.39 175.769C299.437 174.454 301.493 173.117 303.411 171.536C307.034 168.55 310.893 165.276 313.553 160.887C314.733 158.941 315.553 156.667 316.201 154.309C316.573 152.959 316.831 151.543 317.212 150.2C317.431 149.425 318.049 148.4 317.825 147.495ZM275.069 91.6064C275.321 93.3536 274.847 94.962 274.459 96.519C274.194 97.5777 273.532 98.925 274.184 99.9302C274.958 101.123 276.746 101.619 277.766 102.334C279.277 103.393 280.734 104.589 282.177 105.813C284.765 108.009 287.409 110.109 289.965 112.37C292.394 114.517 294.775 116.724 297.536 117.961C303.597 120.678 309.336 125.034 314.988 129.137C320.75 133.319 326.508 137.777 331.826 142.954C334.672 145.724 337.213 148.884 339.55 152.357C340.751 154.144 342.002 155.876 343.205 157.661C343.737 158.451 344.31 159.207 344.815 160.026C345.19 160.634 345.565 161.667 346.108 162.063C346.458 159.318 344.392 156.206 343.124 154.059C342.257 152.591 341.399 151.115 340.538 149.641C339.934 148.607 338.878 147.427 338.58 146.196C337.856 143.203 341.247 144.766 342.253 145.566C344.744 147.547 346.636 150.905 348.661 153.581C348.508 151.15 344.19 148.236 345.244 145.874C346.079 144 349.026 147.381 349.894 148.282C349.743 145.269 348.004 142.649 346.318 140.558C344.441 138.229 342.38 136.07 340.308 134.05C335.464 129.33 330.214 125.321 325.021 121.363C319.855 117.425 314.606 113.708 309.369 109.958C304.284 106.316 299.136 102.687 293.745 100.043C290.722 98.5599 287.639 97.4333 284.59 96.0961C281.396 94.6959 278.278 92.9281 275.069 91.6064ZM237.354 92.4265C237.24 92.4915 236.56 92.7475 236.524 92.8399C236.368 93.2431 236.91 94.3318 237.223 94.483C236.479 95.5941 235.603 96.6463 234.447 97.0332C235.391 97.8447 237.156 99.2412 237.255 100.843C237.392 103.046 235.132 101.946 234.208 101.461C232.726 100.681 231.203 99.8445 229.951 98.467C229.157 97.593 228.739 96.5789 228.078 95.5977C227.718 95.0646 227.836 94.9306 227.297 94.9994C226.681 95.0788 225.799 96.0503 225.299 96.4671C224.527 97.1114 223.791 97.8229 223.099 98.5979C221.823 100.028 220.693 101.678 219.786 103.53C217.908 107.363 217.07 112.065 217.828 116.867C219.585 116.21 221.149 114.814 222.414 113.212C223.315 112.072 224.205 110.767 224.929 113.313C225.21 114.305 225.479 116.694 225.18 117.568C224.902 118.383 224.595 117.831 224.241 118.359C223.83 118.97 224.251 119.642 224.397 120.351C224.093 120.128 223.789 119.905 223.485 119.682C223.196 120.546 223.618 120.028 223.883 120.46C224.038 120.712 223.524 121.634 223.417 121.801C223.198 122.146 222.995 121.939 222.76 122.418C222.61 122.726 222.512 123.367 222.357 123.744C221.561 125.694 223.634 128.067 224.61 129.761C225.332 131.015 226.089 132.234 226.827 133.473C227.367 134.38 227.788 135.501 228.424 136.308C229.685 137.91 231.534 136.513 232.826 136.02C234.579 135.35 236.299 134.679 238.069 134.081C239.106 133.73 240.141 132.666 238.557 131.891C236.984 131.121 232.256 131.887 231.671 129.196C231.05 126.335 233.974 125.237 235.541 125.172C237.832 125.076 239.416 125.519 241.386 127.413C240.182 123.276 237.203 120.263 235.83 116.147C235.457 115.029 233.582 108.051 236.3 110.673C237.755 112.078 239.15 114.37 240.366 116.09C242.207 118.695 243.909 121.444 245.662 124.142C247.334 126.716 249.494 129.076 250.875 131.897C251.652 133.483 252.979 136.88 254.527 137.453C255.518 137.821 256.855 136.798 257.726 136.437C258.265 136.214 258.79 135.995 259.184 135.47C259.388 135.197 259.516 134.574 259.817 134.445C260.685 134.074 261.294 135.851 261.406 136.704C261.577 138.019 261.194 138.448 260.309 138.787C262.059 139.467 260.32 143.078 260.158 144.409C260.123 144.349 259.672 143.53 259.471 143.573C259.071 143.657 261.567 147.545 261.75 147.814C263.023 149.677 264.471 151.289 265.894 152.955C266.712 153.912 268.095 156.29 269.258 155.8C269.902 155.528 270.922 153.419 271.706 154.56C272.414 155.589 271.192 157.1 271.155 158.041C271.093 159.62 272.814 160.913 273.799 161.532C276.409 163.171 279.338 163.083 282.049 163.182C281.375 162.407 280.203 162.151 279.924 160.9C279.734 160.05 280.096 159.49 279.596 158.625C279.184 157.913 278.454 157.6 278.096 156.819C277.7 155.959 277.819 154.864 278.043 154.04C278.989 150.547 282.828 151.13 285.216 152.138C285.08 152.259 284.978 152.415 284.911 152.605L284.896 152.654L284.9 152.647C285.124 152.375 286.427 152.815 286.601 152.923C287.149 153.264 287.976 154.152 288.421 154.716C289.856 156.53 290.51 158.967 290.452 161.37C296.832 160.058 302.381 156.581 307.356 151.835C308.493 150.751 309.666 149.965 310.69 148.685C311.743 147.37 312.708 145.951 313.729 144.598C314.687 143.326 314.454 142.729 313.369 141.424C312.047 139.837 310.815 138.108 309.409 136.644C309.342 137.143 309.47 138.089 309.181 138.447C308.862 138.842 308.38 138.286 308.17 138.577C308.188 138.551 307.714 140.397 307.497 140.007C308.06 141.017 306.552 140.607 306.268 140.457C306.533 141.458 306.074 142.461 305.437 141.181C304.704 142.557 302.173 141.956 303.046 139.888C303.478 138.867 304.049 138.254 304.196 137.007C304.36 135.611 304.207 134.101 303.971 132.677C303.414 129.32 301.727 128.046 299.569 126.238C298.364 125.229 297.129 124.29 295.905 123.326C294.828 122.48 293.819 121.364 292.715 120.601C291.922 120.053 291.361 119.964 290.85 120.686C290.64 120.984 290.618 121.312 290.332 121.616C289.964 122.006 289.365 122.323 288.902 122.501C286.575 123.391 283.563 122.876 281.114 122.157C280.444 121.961 280.047 121.497 279.442 121.208C279.059 121.024 278.809 121.235 278.396 121.006C277.317 120.411 277.104 119.142 277.57 118.024C278.66 115.406 281.33 117.01 282.546 114.827C284.062 112.106 280.086 109.592 278.455 108.453C277.149 107.541 276.177 107.485 274.804 107.457C274.517 107.451 272.553 107.133 273.395 107.998C271.97 108.241 271.275 108.392 270.375 109.79C270.139 110.157 269.801 110.527 269.826 111.065C269.839 111.349 270.28 111.316 270.281 111.313C270.261 111.51 269.897 111.934 269.847 112.005C270.599 111.969 270.798 113.894 270.612 113.943L270.601 113.944L270.627 113.964C271.027 114.296 270.434 115.055 270.212 115.208C269.581 115.641 268.794 115.142 268.201 114.604C266.875 113.4 265.628 111.143 265.29 109.164C264.816 106.388 265.861 104.506 266.569 102.206C267.1 100.485 265.67 99.9217 264.594 99.1316C263.276 98.1655 261.516 97.0063 260.774 95.1881C260.098 93.5318 260.869 92.7592 262.117 93.0423C263.805 93.4246 265.425 94.9683 267.024 95.8138C268.444 96.564 270.397 98.2906 271.904 98.1022C271.37 96.8814 270.049 97.294 269.333 96.4529C268.387 95.3416 269.342 94.563 270.181 94.5402C270.832 94.5224 272.985 95.9072 272.523 93.8952C272.275 92.8172 270.83 92.7363 270.169 92.5458C266.809 91.5784 263.48 91.1318 260.113 91.056C259.022 91.0319 258.79 91.2538 258.541 92.5978C258.456 93.0541 258.24 95.1182 257.639 93.9028C257.415 95.0461 257.518 96.1943 256.647 96.8147C255.539 97.6038 253.808 97.1289 252.557 96.7418C251.485 96.4094 250.416 95.8539 249.564 94.8467C249.14 94.3461 248.787 93.7662 248.505 93.1289C248.265 92.5877 248.132 91.6471 247.803 91.1784C247.254 90.3945 246.404 90.7628 245.7 90.8179C244.129 90.9408 242.582 91.0783 241.037 91.371C239.754 91.6145 238.512 91.7631 237.354 92.4265ZM286.191 161.191C285.749 161.523 286.778 162.116 287.047 161.966C286.877 161.74 286.511 160.951 286.191 161.191ZM284.896 152.654L284.885 152.67C284.872 152.693 284.866 152.722 284.868 152.755C284.874 152.729 284.881 152.703 284.888 152.678L284.896 152.654ZM290.519 130.347C291.063 130.746 291.118 131.92 291.565 132.556C292.762 134.258 294.605 135.801 296.216 136.647C297.952 137.558 298.979 138.991 299.796 141.119C299.965 141.559 300.322 142.144 300.308 142.638C300.295 143.1 299.95 143.323 299.916 143.739C299.9 143.93 300.406 145.273 300.38 145.282C300.256 145.329 299.739 144.707 299.742 144.711C299.693 145.225 299.858 145.765 299.512 146.106L299.469 146.145L299.477 146.15C299.597 146.231 300.153 146.634 300.067 146.766C299.947 146.949 299.557 146.921 299.386 147.048C299.118 147.249 298.975 147.642 298.722 147.864C298.044 148.457 297.131 148.505 296.289 148.518C294.516 148.546 292.43 148.136 290.854 146.723C288.945 145.012 288.869 142.847 288.269 140.611C287.595 138.101 288.193 133.965 288.905 131.766C289.148 131.015 289.68 129.732 290.519 130.347ZM163.69 135.824C163.655 136.144 163.848 136.594 163.859 136.935C163.882 137.627 163.708 138.273 163.54 138.893C163.226 140.052 162.891 141.124 162.773 142.384C162.483 145.476 162.304 148.78 162.513 151.953C162.963 158.763 167.131 163.598 168.623 170.014C169.623 167.786 171.731 167.255 173.625 166.86C176.145 166.334 178.673 165.96 181.245 165.735C186.166 165.304 191.126 164.519 196.157 165.898C196.711 166.05 197.11 166.083 197.642 166.119C198.226 166.158 197.863 165.877 198.356 166.225C198.489 166.319 198.619 166.729 198.763 166.853C199.507 167.491 199.754 166.903 200.085 165.986C200.995 163.464 201.945 161.146 203.351 159.042C206.347 154.56 210.205 151.981 214.724 150.477C217.315 149.614 219.87 148.899 222.544 148.385C225.098 147.893 227.799 147.402 230.458 148.107C229.393 145.967 227.951 144.15 226.688 142.196C226.075 141.248 225.48 140.24 224.775 139.397C224.155 138.655 223.338 138.112 222.832 137.224C222.815 137.427 222.799 137.629 222.783 137.832C217.504 136.989 212.247 137.032 207.007 137.007C201.744 136.981 196.458 136.533 191.191 136.436C188.546 136.386 185.939 136.566 183.315 136.708C180.789 136.846 178.278 136.614 175.737 136.502C173.162 136.387 170.627 136.129 168.045 135.774C166.963 135.625 165.907 135.329 164.837 135.102C163.983 134.921 163.79 134.885 163.69 135.824ZM274.435 125.291C274.744 126.053 274.486 127.171 274.491 127.953C274.496 128.841 274.198 129.258 274.165 130.073C274.136 130.781 275.172 134.29 273.646 133.492C273.739 133.74 274.026 134.047 274.095 134.271C274.182 134.55 274.061 135.029 274.172 135.262C274.273 135.471 274.98 136 275.195 136.341C276.041 137.677 276.772 139.266 277.367 140.79C277.987 142.378 278.799 144.588 277.998 145.937C277.805 146.261 277.604 146.379 277.416 146.759C277.449 147.069 277.395 147.341 277.256 147.576C277.165 147.633 277.079 147.617 276.998 147.528C276.729 147.818 276.64 146.85 276.458 147.845C276.415 148.086 276.733 148.814 276.636 148.752C276.462 148.641 275.9 148.128 275.755 148.146C275.555 148.782 275.442 148.2 275.123 148.35C275.159 148.589 275.088 148.739 274.912 148.8C274.761 148.787 274.611 148.772 274.461 148.759C273.607 148.941 272.246 148.728 271.363 148.598C269.679 148.349 268.268 147.158 267.485 145.074C265.854 140.732 267.564 134.534 268.94 130.85C269.41 129.592 272.834 121.348 274.435 125.291ZM291.078 136.936C291.133 137.318 291.337 137.863 291.025 137.971C290.952 137.542 290.704 137.026 291.078 136.936ZM268.641 140.884C269.011 141.94 268.917 141.313 268.739 142.128C268.537 141.711 268.504 141.296 268.641 140.884ZM292.089 134.602C292.26 134.785 292.863 135.248 292.473 135.479C292.132 135.68 292.127 134.863 292.089 134.602ZM272.88 130.702C272.953 131.905 273.399 131.522 274.047 131.168C273.658 131.012 273.269 130.857 272.88 130.702ZM134.93 109.911C132.386 114.341 133.634 120.917 134.823 126.172C136.44 133.313 138.248 140.435 140.241 147.465C141.142 150.641 142.178 152.14 144.815 152.724C147.673 153.357 150.445 152.551 153.116 151.785C151.504 146.573 149.049 139.785 152.369 135.413C152.673 135.013 152.963 134.704 153.407 134.58C153.701 134.499 154.201 134.767 154.446 134.527C154.942 134.041 154.401 133.065 154.092 132.513C153.154 130.836 151.772 129.623 150.578 128.282C149.079 126.598 148.138 126.845 146.534 127.421C145.895 127.651 143.383 128.573 143.512 126.614C143.605 125.19 145.711 125.109 146.472 124.627C147.049 124.261 147.155 124.131 146.955 123.294C146.642 121.986 145.995 121.747 145.114 121.965C143.981 122.246 142.167 123.454 140.972 122.465C139.265 121.052 141.037 119.453 142.011 119.013C143.032 118.553 144.507 118.478 144.395 116.682C144.288 114.969 143.208 113.092 142.386 111.733C141.591 110.419 140.531 108.753 139.304 108.118C137.574 107.223 135.88 108.256 134.93 109.911ZM154.235 138.587C152.971 139.262 152.671 141.732 152.847 143.379C153.017 144.973 153.579 147.183 154.695 148.205C156.16 149.546 158.127 149.031 159.659 150.258C159.472 146.586 159.773 142.954 160.441 139.502C159.319 139.337 158.202 139.057 157.082 138.828C156.263 138.662 154.994 138.182 154.235 138.587ZM242.232 128.487C242.604 128.765 242.721 128.849 242.909 129.367C242.204 129.574 242.358 129.226 242.232 128.487ZM244.136 101.705C245.264 101.513 245.886 101.884 246.93 102.406C247.675 102.779 248.34 102.077 248.604 103.358C250.043 101.087 254.459 105.278 256.004 106.296C257.635 107.369 259.293 108.686 259.939 111.067C260.13 111.772 260.168 112.527 260.396 113.222C260.567 113.745 260.935 114.227 261.005 114.792C261.086 115.447 260.75 115.908 260.779 116.533C260.791 116.781 261.019 117.236 260.979 117.446C260.566 119.596 259.85 121.437 258.092 122.003C256.56 122.496 254.678 122.115 253.24 120.908C251.964 119.839 250.966 118.048 250.336 116.311C250.226 116.01 250.167 115.282 250.035 115.036C249.844 114.678 249.674 114.706 249.471 114.426C248.932 113.683 248.083 112.248 248.379 111.249C247.267 111.845 245.679 108.685 245.036 107.801C244.554 107.138 243.638 106.731 243.27 106.066C242.765 105.154 243.772 104.511 243.254 103.91C242.977 103.588 241.939 104.06 241.859 103.127C241.785 102.265 243.705 101.778 244.136 101.705ZM270.561 113.918C270.575 113.934 270.589 113.943 270.6 113.944L270.601 113.944L270.596 113.94L270.561 113.918ZM265.934 107.268C266.013 107.13 266.413 106.283 266.591 106.82C266.736 107.261 266.099 107.234 265.934 107.268ZM202.815 60.6248C201.64 60.9665 200.925 62.885 200.219 63.9601C199.164 65.5652 197.795 66.8657 196.382 67.9269C194.736 69.1614 193.02 70.312 191.283 71.3491C189.521 72.4013 187.572 72.9432 185.822 74.02C187.222 76.0856 188.623 78.1516 190.023 80.2175C190.281 79.3882 189.968 78.5761 190.533 77.9017C190.926 77.4337 191.594 77.2432 192.096 76.9968C193.493 76.3106 195.042 75.6387 196.621 75.7268C197.64 75.7838 198.917 76.5434 198.284 78.1012C197.884 79.0841 196.595 79.1177 196.776 80.5111C196.949 81.8462 198.2 82.7664 198.248 84.1977C198.316 86.2095 196.723 85.9304 195.81 84.8085C194.995 83.8082 194.807 81.7701 193.739 81.1475C193.102 80.7762 191.628 80.8982 191.133 81.4299C192.731 83.8014 195.457 86.5698 194.88 89.9163C194.702 90.9444 193.962 91.4746 194.7 92.2971C195.552 93.2458 197.553 93.7602 198.453 93.2312C199.295 92.7361 200.057 91.1768 201.213 91.6332C202.305 92.0639 201.842 93.2714 202.13 94.2413C202.998 97.1626 207.276 94.5149 208.452 93.8619C209.631 93.207 210.749 91.979 212.042 91.6722C213.261 91.3826 214.561 91.9279 215.72 92.6411C216.589 93.1752 218.212 94.9266 219.149 94.8034C220.09 94.6799 221.031 92.6016 221.737 91.8861C223.002 90.6021 224.547 89.9883 225.967 89.0139C226.193 88.8594 227.211 88.3453 227.133 87.8666C227.057 87.4067 225.578 86.6708 225.316 86.4973C222.929 84.9131 220.916 82.4663 218.475 81.025C217.386 80.3822 216.274 80 215.126 79.8462C214.488 79.7611 212.81 79.8143 212.538 78.7049C215.263 77.4878 214.369 72.7795 212.618 70.3655C211.504 68.8304 210.151 68.2695 208.726 68.942C206.66 69.9168 206.694 72.0958 206.708 74.6869C204.67 73.7784 202.092 71.0572 201.421 68.3302C200.676 65.2984 202.895 63.4725 202.815 60.6248ZM260.067 70.2589C263.212 70.3755 266.342 70.7493 269.493 71.4535C271.434 71.8873 274.16 72.043 276.004 73.2262C276.543 73.572 277.306 74.4191 277.055 75.2729C276.838 76.009 275.938 76.0078 275.407 76.0094C272.991 76.016 270.457 75.2041 268.021 74.986C261.548 74.4069 255.116 74.8317 248.766 75.5257C247.016 75.7174 245.268 75.9311 243.517 76.125C242.06 76.287 240.5 76.6701 239.011 76.5313C237.837 76.4218 237.342 75.4084 237.922 74.0336C238.487 72.6938 239.877 72.5987 240.914 72.1622C247.089 70.3285 253.582 70.0184 260.067 70.2589ZM247.676 62.812C249.905 63.3186 247.614 64.2496 246.702 64.3358C246.393 64.3652 242.3 64.6636 242.333 64.8251C241.537 64.9887 239.597 66.2235 238.808 65.2807C237.96 64.2682 240.505 63.3283 241.026 63.1686C243.028 62.5549 245.531 62.3246 247.676 62.812Z" fill="#2D4710"/>
</g>
<path fill-rule="evenodd" clip-rule="evenodd" d="M193.916 278.691C192.774 282.381 191.632 286.072 190.489 289.762C189.757 292.127 189.025 294.491 188.293 296.856C188.034 297.694 187.889 298.554 187.387 299.136C186.204 300.507 184.08 301.379 182.657 302.343C181.705 302.989 180.752 303.635 179.799 304.281C179.307 304.615 178.218 305.033 177.874 305.587C177.495 306.196 177.674 307.316 177.674 308.159V315.436V329.149C182.596 328.398 187.518 327.648 192.44 326.897C185.882 336.131 179.325 345.365 172.768 354.599C171.152 356.875 169.19 359.065 167.986 361.713C165.423 367.349 162.918 373.025 160.385 378.681C158.027 383.946 155.669 389.21 153.311 394.475L174.525 393.373C180.017 393.088 185.66 393.517 190.952 391.617C195.314 390.051 199.676 388.485 204.039 386.919C204.619 386.711 206.426 386.475 206.838 385.905C207.223 385.371 207.214 383.354 207.323 382.671C209.382 369.755 212.004 355.521 218.013 344.403C222.322 336.432 228.136 329.454 233.46 322.504C235.539 319.791 237.653 317.111 239.658 314.316C240.171 313.6 240.913 312.788 241.252 311.919C241.471 311.357 241.778 310.286 241.642 309.788C241.583 309.571 240.213 308.796 240.016 308.642C238.628 307.553 237.252 306.441 235.873 305.334C231.998 302.225 228.126 299.108 224.229 296.04C221.19 293.647 218.16 291.111 214.955 289.055C211.633 286.924 207.975 285.424 204.492 283.741C200.973 282.039 197.447 280.357 193.916 278.691Z" fill="#4D7520"/>
<path fill-rule="evenodd" clip-rule="evenodd" d="M313.367 475.831C311.677 477.775 308.6 480.383 306.167 479.197C304.945 478.601 303.902 477.294 302.789 476.45C301.481 475.459 300.252 474.467 299.143 473.147C296.932 470.51 295.257 466.659 292.645 464.595C291.768 463.901 290.054 463.752 289.445 462.644C289.172 462.148 289.147 461.394 289.197 460.819C289.306 459.582 289.854 459.655 288.939 458.747H290.36C290.387 458.077 289.839 458.022 289.431 458.108C289.621 457.046 289.814 452.891 288.228 454.774C286.854 456.407 287.541 459.115 286.568 460.882C285.823 462.236 283.845 461.14 283.578 459.651C283.458 458.982 284.062 457.937 284.134 457.281C284.292 455.826 283.759 454.568 282.986 453.467C281.291 454.846 282.252 457.7 281.285 459.512C280.411 461.151 278.463 460.386 277.132 460.098C275.536 459.752 273.731 460.102 272.204 459.642C269.898 458.947 270.759 455.643 270.531 453.511C270.286 451.226 268.394 448.055 268.963 445.75C269.573 443.276 273.143 442.741 274.849 442.14C278.748 440.768 284.31 440.504 287.209 436.661C289.514 439.799 291.369 443.392 293.787 446.414C296.399 449.677 299.189 452.689 301.697 456.084C304.307 459.617 307.001 463.082 309.516 466.717C310.613 468.303 311.576 470.012 312.712 471.56C313.721 472.936 314.785 474.202 313.367 475.831ZM197.471 414.798C198.669 414.02 198.821 414.508 198.821 416.109C198.476 415.34 198.134 415.134 197.471 414.798ZM187.312 445.931V443.109C188.467 443.072 187.757 445.486 187.312 445.931ZM187.029 450.136C187.029 448.886 187.002 447.695 187.297 446.479C187.452 447.804 187.748 448.951 187.029 450.136ZM191.996 536.015C193.057 536.136 194.692 535.244 195.584 536.26C196.501 537.304 196.427 540.342 196.644 541.752C197.003 544.083 197.321 546.421 197.623 548.763C197.821 550.298 198.066 551.857 196.644 552.445C194.542 553.313 191.539 552.074 189.348 551.962C185.02 551.739 180.694 551.43 176.363 551.323C172.165 551.22 167.957 551.302 163.778 551.835C161.89 552.075 160.044 552.5 158.175 552.885C157.19 553.088 154.551 553.938 153.662 552.924C151.988 551.017 154.771 546.563 155.967 545.306C158.189 542.971 161.347 541.288 164.132 540.275C165.621 539.733 168.102 538.211 169.275 539.913C170.174 541.218 170.138 542.96 171.427 543.949C174.414 546.24 172.667 539.668 170.8 538.859C172.053 535.279 174.442 540.333 175.433 541.547C175.785 541.979 176.932 543.404 177.43 542.688C177.803 542.151 177.058 540.23 176.92 539.708C176.711 538.914 176.18 537.707 176.333 536.846C176.609 535.288 178.399 534.863 179.471 534.734C181.134 534.533 182.766 535.176 184.41 535.391C186.931 535.721 189.472 535.726 191.996 536.015ZM175.299 389.275C172.016 389.594 168.713 388.982 165.438 389.483C162.339 389.958 159.419 391.346 156.498 392.622C160.841 380.191 166.459 368.876 173.307 358.275C176.717 352.996 180.385 347.753 184.07 342.756C185.784 340.431 187.558 338.184 189.328 335.924C190.907 333.909 192.039 330.486 193.934 328.98C195.551 327.695 198.378 328.612 200.171 328.692C202.197 328.782 204.663 329.006 206.639 328.183C208.071 327.587 208.465 325.995 206.672 325.942C204.558 325.88 202.479 326.149 200.337 325.907C194.788 325.281 189.438 324.253 183.844 324.836C182.563 324.969 180.876 325.636 179.618 325.436C178.713 325.291 179.308 325.846 178.68 324.96C178.439 324.622 178.149 323.825 178.077 323.375C177.677 320.847 178.814 317.235 179.086 314.69C179.338 312.334 179.115 309.746 179.586 307.452C180.015 305.365 181.323 305.087 182.933 304.864C187.338 304.253 191.833 303.928 196.258 303.468C206.356 302.419 216.775 300.835 226.805 303.429C230.426 304.366 234.842 305.814 238.078 308.133C239.089 308.858 240.11 309.712 239.742 311.214C239.36 312.773 237.489 314.42 236.562 315.448C229.711 323.038 223.094 330.78 218.282 340.52C212.144 352.939 208.622 366.352 206.556 380.584C206.111 383.646 205.699 385.248 203.118 386.129C200.347 387.076 197.673 387.691 194.8 387.979C188.305 388.63 181.79 388.643 175.299 389.275ZM177.499 307.028C177.001 311.549 176.327 316.06 176.261 320.617C176.236 322.338 176.102 323.2 174.603 323.584C172.835 324.036 171.038 324.373 169.262 324.843C160.691 327.11 152.282 329.894 143.896 333.028C135.747 336.074 127.731 339.501 119.398 341.758C115.814 342.729 111.62 343.383 108.355 345.532C104.843 347.845 105.305 351.637 104.99 355.803C104.569 361.367 103.217 366.756 102.741 372.318C102.514 374.976 102.307 377.65 102.341 380.325C102.37 382.605 102.638 385.126 101.382 387.045C98.8628 382.934 97.6687 377.764 97.1722 372.726C96.9307 370.277 97.0263 367.808 96.9573 365.348C96.9016 363.367 96.9378 360.216 95.8805 358.562C93.5823 354.966 90.5933 369.374 90.3091 370.913C89.8311 373.502 89.4368 376.113 88.9606 378.703C88.7495 379.851 88.4785 384.025 87.2183 384.44C84.6066 385.303 85.1799 376.346 85.1385 374.982C85.0559 372.229 84.9997 369.474 85.0525 366.719C85.0909 364.73 85.4062 362.572 85.219 360.583C84.7594 355.698 82.5088 360.844 81.8761 362.663C80.2773 367.253 79.5542 372.166 78.1204 376.83C77.882 377.606 77.3216 380.218 76.4338 380.266C75.446 380.32 75.4538 377.623 75.3973 376.835C75.0695 372.267 73.9624 367.731 74.2965 363.116C74.6339 358.456 75.9724 353.665 77.8665 349.611C81.8709 341.042 89.1024 336.121 96.0289 331.639C103.956 326.51 112.325 322.458 120.872 319.157C131.152 315.187 141.707 311.975 152.326 309.689C157.728 308.526 163.214 307.695 168.672 307.028C170.59 306.794 172.509 306.657 174.402 306.211C175.117 306.043 177.695 305.242 177.499 307.028ZM183.021 292.398C180.312 292.424 177.546 290.821 174.907 290.159C171.766 289.37 168.698 288.228 165.562 287.404C159.421 285.79 153.277 284.217 147.142 282.568C144.479 281.852 141.802 281.229 139.149 280.46C136.311 279.637 133.245 278.72 130.339 279.606C125.936 280.95 124.076 286.83 122.459 291.418C121.317 294.659 120.422 298.272 118.641 301.092C118.007 302.098 117.105 303.297 115.956 302.971C113.819 302.367 114.159 298.917 114.431 297.01C114.825 294.242 115.383 291.507 115.83 288.752C116.011 287.64 117.407 280.363 114.914 281.49C113.065 282.325 112.087 287.83 111.387 289.796C110.867 291.257 110.316 292.708 109.732 294.133C108.953 296.034 106.731 302.385 104.271 301.566C100.75 300.394 104.127 289.097 104.727 286.716C105.056 285.409 108.635 275.497 105.614 276.307C104.328 276.653 103.075 279.569 102.419 280.778C101.256 282.922 100.096 285.081 99.0013 287.278C97.875 289.537 97.2999 292.109 96.1829 294.335C95.5952 295.507 94.3959 297.069 93.2249 295.984C91.3995 294.294 92.4815 288.415 92.8012 286.193C93.3959 282.06 94.8732 277.823 96.9001 274.445C99.9459 269.368 105.693 267.728 110.526 266.742C116.764 265.469 123.089 265.817 129.353 266.57C136.398 267.418 143.336 268.325 150.28 270.058C157.279 271.804 164.281 273.536 171.172 275.845C174.418 276.933 177.711 277.898 180.911 279.175C184.313 280.533 187.633 282.222 191.13 283.2C189.9 286.946 188.669 290.692 187.439 294.439C186.262 293.018 184.655 292.381 183.021 292.398ZM243.31 302.72C244.388 302 245.58 301.661 245.973 300.07C246.322 298.663 245.727 297.07 245.443 295.721C244.648 291.942 244.438 288.027 245.142 284.204C245.814 285.456 248.332 290.276 249.863 287.358C250.787 285.598 248.312 283.067 247.59 281.83C249.175 280.636 251.439 277.432 253.265 279.364C254.446 280.613 254.945 281.816 256.536 282.424C258.467 283.161 260.285 282.992 262.257 282.788C263.638 282.646 263.97 282.421 264.51 283.719C264.933 284.739 265.152 286.001 265.399 287.096C265.886 289.256 267.015 293.51 265.679 295.533C264.508 297.305 259.965 295.786 259.335 298.073C258.99 299.321 260.632 299.365 261.26 299.983C262.037 300.747 262.68 301.963 263.102 303.049C263.415 303.852 263.89 305.179 263.358 306.001C262.622 307.137 261.26 306.275 260.667 305.449C259.88 304.352 259.624 302.852 258.968 301.658C257.762 299.465 257.69 301.209 257.362 302.783C257.021 304.419 256.215 304.306 254.981 304.516C252.814 304.885 250.625 305.405 248.516 306.114C247.435 306.477 246.387 306.94 245.358 307.481C244.694 307.828 243.545 308.882 242.825 308.892C241.491 308.911 240.566 306.188 239.878 305.052C241.021 304.273 242.161 303.487 243.31 302.72ZM314.934 469.423C311.603 464.543 308.718 459.242 305.431 454.319C302.19 449.464 298.44 445.218 294.802 440.821C293.085 438.745 291.44 436.468 289.545 434.629C288.131 433.257 287.043 433.236 285.343 433.844C280.511 435.571 275.59 437.65 271.017 440.227C266.759 442.628 262.881 445.71 258.263 447.048C253.549 448.415 248.648 448.854 243.817 448.515C238.862 448.167 234.188 446.909 229.476 445.06C225.013 443.308 220.36 441.779 216.543 438.307C212.541 434.668 209.45 429.433 206.585 424.51C205.135 422.017 203.695 419.4 202.718 416.575C201.87 414.124 201.316 411.231 199.794 409.233C199.421 409.878 198.957 410.432 198.767 411.19C198.681 411.535 199.189 411.524 199.137 411.798C199.039 412.314 198.476 412.84 198.149 413.121C196.974 414.13 196.967 413.326 197.275 415.214C197.455 416.314 197.115 418.796 195.645 417.985C196.186 418.775 195.327 419.773 195.046 420.425C194.853 420.154 194.612 420.06 194.325 420.141C194.863 421.448 194.545 421.483 194.024 422.52C193.929 422.71 193.592 423.702 193.64 423.619C193.108 424.544 192.493 424.777 192.183 425.929C191.928 426.876 191.993 427.917 191.709 428.862C191.365 428.282 191.021 427.702 190.678 427.123C190.748 427.579 190.888 428.254 191.051 428.667C191.154 428.926 191.594 429.529 191.588 429.67C191.564 430.198 191.025 430.071 190.871 430.525C190.583 431.378 191 431.504 190.843 432.336C190.663 433.291 190.179 432.909 189.949 433.723C189.905 433.878 190.245 434.486 190.191 434.819C190.115 435.291 189.766 435.554 189.642 435.973C189.327 437.039 189.442 437.819 189.005 438.842C188.836 439.238 188.59 439.502 188.471 439.953C188.366 440.349 188.591 441.193 188.389 441.548C187.416 443.259 187.553 440.311 187.626 439.58C188.246 433.441 190.235 427.105 192.055 421.366C192.959 418.516 193.839 415.575 194.973 412.845C195.429 411.745 195.956 410.61 196.71 409.769C197.664 408.705 199.017 408.279 199.881 407.091C199.745 407.278 200.818 406.039 200.646 406.446C200.8 406.082 200.532 405.59 200.627 405.237C200.745 404.8 200.969 404.708 201.219 404.325C201.667 403.637 202.2 403.295 201.496 402.419C202.541 402.137 203.041 401.723 203.25 400.357C203.402 399.357 203.094 399.422 203.632 398.756C204.171 398.087 204.444 398.609 204.784 397.45C205.191 396.063 205.461 394.177 205.704 392.725C205.917 391.458 205.401 389.594 206.276 388.699C207.385 387.566 208.377 388.046 208.178 385.767C207.984 383.546 208.55 382.2 209.118 380.098C210.252 375.901 210.691 371.47 211.685 367.224C213.808 358.161 217.559 349.99 221.591 342.013C225.317 334.641 230.526 328.361 235.557 322.313C236.934 320.656 238.296 318.976 239.533 317.16C240.598 315.596 241.085 313.467 242.109 311.982C242.731 311.081 243.889 310.695 244.757 310.217C246.206 309.42 247.932 308.379 249.567 308.541C248.917 311.214 248.705 314.337 250.622 316.341C252.948 318.773 255.057 316.247 257.189 314.861C261.075 312.334 266.633 314.653 270.022 310.866C270.829 309.964 271.054 308.523 271.893 307.68C272.509 307.062 273.385 306.906 274.078 306.445C276.184 305.046 277.206 302.486 276.386 299.657C275.637 297.071 274.472 296.174 277.064 294.863C279.168 293.8 279.968 292.198 279.016 289.346C278.108 286.626 276.445 286.313 274.871 284.534C273.346 282.81 275.097 280.804 276.239 279.51C277.712 277.841 277.994 276.337 276.286 274.601C274.498 272.783 271.945 272.847 269.861 273.746C267.504 274.762 265.951 276.451 264.953 279.187C263.937 281.974 261.419 281.196 259.38 280.42C257.43 279.677 256.923 278.075 255.642 276.35C254.218 274.431 251.315 276.072 249.636 276.949C245.498 279.107 241.387 282.513 241.223 288.546C241.125 292.143 242.371 295.201 243.02 298.577C243.612 301.665 239.548 301.422 238.844 304.409C231.335 299.558 222.973 298.073 214.58 297.743C205.659 297.392 196.609 297.11 187.764 298.827C189.817 294.462 190.901 289.675 192.688 285.19C193.202 283.899 193.423 284.009 194.558 284.399C196.738 285.148 198.901 285.987 201.077 286.758C209.024 289.578 216.814 292.975 224.498 296.695C225.245 297.057 226.913 298.061 227.567 296.969C228.322 295.71 226.575 294.157 225.868 293.524C222.774 290.754 218.939 289.072 215.474 287.129C207.898 282.881 199.509 280.864 191.605 277.709C174.54 270.897 156.885 265.723 139.151 262.306C134.823 261.472 130.449 261.35 126.102 260.731C122.252 260.183 118.395 260.195 114.545 260.762C107.435 261.808 99.1917 264.066 95.1758 272.01C91.5505 279.182 89.1304 287.246 90.0555 295.754C90.3335 298.309 91.2201 301.335 93.8038 300.676C95.5959 300.22 96.5476 298.361 97.3796 296.547C98.6369 293.807 99.8787 291.067 101.241 288.401C101.747 292.399 99.9101 296.331 100.199 300.404C100.395 303.168 101.647 307.535 104.587 306.752C108.617 305.68 110.275 297.996 112.213 294.31C112.311 297.149 111.496 299.947 111.745 302.793C111.991 305.604 113.791 308.257 116.318 307.872C118.702 307.509 120.252 304.392 121.264 302.045C122.673 298.779 123.685 295.278 125.061 291.99C126.351 288.909 127.879 285.24 130.958 284.661C133.707 284.144 136.856 285.341 139.571 285.835C147.101 287.204 154.479 289.536 161.927 291.42C169.913 293.44 178.087 294.667 185.826 297.926C183.105 302.446 175.984 301.47 171.93 301.955C165.804 302.688 159.599 303.24 153.507 304.322C147.491 305.391 141.6 307.288 135.631 308.665C129.693 310.035 123.765 311.408 118.02 313.744C107.352 318.082 96.5062 323.572 87.1072 331.141C82.734 334.664 78.8491 338.689 76.1478 344.248C73.429 349.843 72.1226 356.168 71.6243 362.603C71.3142 366.61 71.841 370.078 72.477 373.977C72.9377 376.801 73.0868 381.528 74.9418 383.596C78.4822 387.542 81.4217 371.536 82.0754 369.602C82.5461 372.771 81.7764 390.618 87.4571 389.167C89.9924 388.519 90.5675 384.272 90.9879 381.714C91.755 377.051 92.442 372.294 93.7539 367.803C94.5959 373.854 94.947 380.159 96.7609 385.938C97.9658 389.777 101.404 396.588 103.8 390.016C105.598 385.088 104.981 379.432 105.197 374.2C105.436 368.401 106.8 362.809 107.283 357.067C107.47 354.843 107.3 352.336 109.132 351.123C110.704 350.081 113.003 349.742 114.719 349.16C119.803 347.437 124.921 345.854 129.981 344.026C135.043 342.197 140.036 340.06 145.031 337.975C149.808 335.98 154.685 334.846 159.52 333.138C162.269 332.167 164.985 331.151 167.772 330.34C169.069 329.963 170.382 329.669 171.677 329.279C172.636 328.989 173.9 327.898 174.886 327.917C175.901 327.937 176.283 328.986 177.447 329.069C178.7 329.157 179.974 328.82 181.221 328.703C184.257 328.419 187.484 327.959 190.513 328.473C188.693 331.108 186.234 332.93 184.079 335.113C181.594 337.631 179.188 340.35 177.065 343.324C172.794 349.306 168.756 355.63 165.005 362.112C161.306 368.506 158.327 375.503 155.737 382.652C154.446 386.215 153.193 389.855 152.302 393.599C151.936 395.137 151.637 396.681 150.976 398.08C150.369 399.363 149.514 400.469 150.231 402.018C150.725 401.641 151.168 401.173 151.614 400.72C151.099 405.154 149.986 409.442 149.414 413.863C148.85 418.217 148.873 422.696 148.909 427.094C148.986 436.304 149.547 445.306 151.078 454.34C152.626 463.476 154.615 472.542 157.123 481.354C159.537 489.839 161.96 498.737 165.33 506.735C168.929 515.277 173.21 524.257 178.42 531.488C175.017 533.189 170.686 532.871 167.083 533.556C163.316 534.272 160.057 535.624 156.847 538.168C153.6 540.742 151.837 544.056 151.388 548.75C151.069 552.09 150.121 556.715 153.712 557.593C156.295 558.224 159.183 557.188 161.771 556.931C166.298 556.483 170.832 556.204 175.369 555.962C179.894 555.721 184.42 555.509 188.947 555.338C191.076 555.257 193.207 555.217 195.335 555.123C196.289 555.082 196.867 555.064 197.723 555.4C198.399 555.667 198.35 556.219 199.103 555.536C200.317 554.434 200.067 550.958 200.033 549.43C199.982 547.071 199.798 544.686 199.422 542.372C199.198 540.997 196.482 532.134 198.594 531.761C196.141 528.471 195.161 523.773 194.059 519.65C192.679 514.485 191.467 509.333 190.516 504.02C188.484 492.671 187.585 481.198 187.585 469.586C197.005 476.672 206.972 480.511 218.066 480.939C229.097 481.365 241.216 480.259 251.69 475.78C256.541 473.706 260.885 470.982 265.044 467.313C266.535 465.998 268.132 463.019 270.088 463.07C272.423 463.131 275.037 464.21 277.356 464.671C281.79 465.553 287.577 466.051 291.332 469.398C293.371 471.217 294.832 473.762 296.652 475.856C298.036 477.45 299.867 478.316 301.241 479.91C302.723 481.629 302.135 483.876 304.593 484.015C306.694 484.134 308.998 483.102 310.81 481.891C314.425 479.475 318.275 474.318 314.934 469.423Z" fill="#2D4710"/>
<path fill-rule="evenodd" clip-rule="evenodd" d="M280.184 354.501C285.475 359.088 291.544 362.221 297.073 366.352C298.457 367.386 302.768 369.533 302.726 371.45C302.702 372.572 301.406 373.978 300.839 374.755C299.867 376.086 298.953 377.432 298.056 378.84C293.95 385.289 290.084 391.799 285.634 397.924C284.964 398.846 282.946 403.245 282.295 401.06C281.999 400.069 282.242 398.956 281.473 398.033C281.077 397.557 279.546 397.295 279.992 396.274C280.289 396.437 280.586 396.601 280.884 396.763C280.653 395.948 280.67 395.055 280.324 394.284C280.108 393.805 279.688 393.578 279.542 393.039C279.341 392.294 279.682 391.428 279.625 390.66C279.569 389.894 279.244 389.17 279.049 388.447C277.898 384.164 277.485 379.845 276.895 375.426C276.312 371.053 275.404 366.816 275.047 362.395C274.67 357.724 274.208 353.063 273.592 348.43C274.692 348.618 275.537 350.076 276.315 350.901C277.538 352.197 278.865 353.358 280.184 354.501ZM276.036 399.718C275.784 399.476 275.586 399.179 275.444 398.827C278.037 397.259 276.472 399.934 276.036 399.718ZM274.459 396.375C273.329 396.755 272.517 396.832 271.646 396.264C271.563 396.211 271.658 395.796 271.509 395.711C271.379 395.637 271.18 395.728 271.068 395.659C270.689 395.423 270.024 395.939 269.96 395.037C271.402 394.499 272.821 393.504 274.344 393.337C276.461 393.104 276.363 395.734 274.459 396.375ZM269.507 391.176C267.965 391.616 266.694 392.644 265.056 392.375C263.517 392.124 262.181 391.15 260.967 390.029C264.003 388.98 267.186 388.791 270.219 387.776C271.206 387.446 272.504 386.575 273.568 386.926C274.75 387.316 274.825 388.668 275.179 389.897C273.287 390.313 271.38 390.641 269.507 391.176ZM259.861 385.957C258.379 386.389 256.865 387.334 255.626 385.703C255.426 385.44 255.251 385.703 255.274 384.892C255.299 384.038 255.935 383.487 256.482 383.186C257.767 382.479 259.569 382.936 260.934 382.832C263.111 382.667 265.328 382.114 267.482 381.689C268.973 381.395 270.513 380.742 272.038 380.87C273.214 380.97 274.634 382.194 272.919 383.087C271.357 383.901 269.015 383.776 267.323 384.128C264.822 384.649 262.33 385.237 259.861 385.957ZM258.414 377.449C258.51 377.569 258.606 377.688 258.702 377.807C258.686 377.803 259.27 377.226 259.424 377.209C260.176 377.129 260.931 377.192 261.684 377.141C263.417 377.021 265.164 376.653 266.867 376.247C268.253 375.916 269.666 375.346 271.094 375.489C272.33 375.612 272.459 375.921 272.54 377.377C269.386 377.377 266.136 377.296 263.036 378.111C261.017 378.641 258.793 380.221 257.782 377.373C257.992 377.399 258.203 377.424 258.414 377.449ZM260.386 371.286C261.168 372.014 263.301 370.804 264.238 370.684C265.256 370.552 266.214 370.416 267.201 370.106C268.076 369.831 270.97 368.459 271.641 369.771C272.67 371.782 268.505 372.151 267.844 372.251C265.074 372.668 262.201 373.039 259.506 373.925C259.799 373.046 260.093 372.166 260.386 371.286ZM264.185 364.457C264.387 365.386 270.651 361.962 270.765 364.451C270.853 366.36 264.568 367.312 263.438 367.144C263.703 366.265 264.407 365.477 264.185 364.457ZM266.288 358.615C266.421 356.74 266.627 356.751 267.859 356.575C268.799 356.44 270.09 355.768 269.846 357.811C269.636 359.561 266.154 360.507 266.288 358.615ZM268.527 352.165C268.823 351.159 269.49 352.513 269.505 353.025C269.542 354.387 268.696 354.092 267.881 354.092C268.108 353.456 268.324 352.813 268.527 352.165ZM278.836 344.61C278.67 344.366 277.737 344.273 277.472 344.154C276.819 343.862 276.912 343.24 276.077 343.854C276.035 343.802 276.115 343.341 276.069 343.32C276.046 343.309 275.461 343.04 275.271 342.891C274.812 342.532 274.399 342.181 273.977 341.731C273.529 341.253 273.08 340.56 272.568 340.179C272.352 340.019 272.176 339.791 271.916 339.742C271.241 339.615 271.434 340.189 270.844 340.303C270.48 340.373 270.215 339.855 269.74 340.078C269.329 340.271 269.091 340.975 268.908 341.393C268.242 342.916 267.729 344.556 267.077 346.095C263.745 353.967 259.958 361.54 256.731 369.486C255.176 373.313 253.554 377.168 252.46 381.235C251.671 384.169 249.89 388.455 251.423 391.386C252.537 393.518 254.768 394.438 256.549 395.468C259.228 397.018 261.697 399.044 264.406 400.546C267.635 402.338 270.771 404.212 273.919 406.213C275.262 407.066 276.474 408.295 277.812 409.103C278.63 409.597 279.894 408.754 280.16 409.887C281.186 408.371 282.847 409.382 284.034 408.314C284.732 407.686 285.242 406.449 285.824 405.675C286.697 404.516 287.645 403.44 288.536 402.3C292.073 397.775 295.339 393.061 298.557 388.201C301.63 383.559 305.221 379.174 307.817 374.093C308.848 372.076 309.035 369.961 308.354 367.732C307.857 366.107 306.661 363.652 304.951 364.729C305.599 363.415 303.099 362.012 302.34 361.755C302.329 361.752 302.179 362.761 301.968 362.736C302.043 362.745 301.332 360.5 301.02 360.212C300.093 359.355 298.965 358.356 297.953 357.651C297.025 357.004 296.045 356.684 295.146 355.961C294.057 355.084 293.056 354.044 291.963 353.173C290.907 352.333 289.729 351.339 288.562 350.761C287.55 350.259 286.641 350.161 285.73 349.339C284.604 348.323 283.621 347.633 282.322 346.932C281.198 346.326 279.64 345.797 278.836 344.61Z" fill="#2D4710"/>
<path fill-rule="evenodd" clip-rule="evenodd" d="M125.4 466.36C125.607 465.767 125.813 465.175 126.02 464.583C126.275 465.616 126.347 466.129 125.4 466.36ZM125.675 469.096C125.228 469.194 125.404 467.48 125.404 467.181C126.177 467.716 125.537 468.356 125.675 469.096ZM124.977 464.151C125.359 463.876 125.741 463.601 126.122 463.326C125.591 464.528 125.799 463.777 126.019 464.579C125.618 464.72 125.228 464.556 124.977 464.151ZM122.715 473.545C121.284 479.881 116.74 484.878 111.94 487.466C109.182 488.953 106.47 489.325 103.491 489.159C102.343 489.095 100.991 488.639 99.8853 488.724C99.0341 488.79 99.0724 488.835 98.3674 489.714C98.0555 489.013 98.2814 488.521 97.6557 488.113C96.875 487.604 96.5508 488.197 96.1636 488.902C95.6568 488.261 95.4493 487.926 94.7926 487.545C94.8133 487.557 94.164 487.527 94.1906 487.537C94.0732 487.493 93.367 486.939 93.1459 486.838C92.2385 486.422 91.1894 486.252 90.3522 485.656C89.6199 485.135 89.0167 483.674 88.1787 484.797C88.178 482.921 86.1075 482.143 85.137 481.16C83.6206 479.625 82.415 477.352 81.659 475.153C80.8528 472.808 80.5837 470.56 80.2064 468.143C79.9428 466.455 78.2167 464.014 79.2533 462.31C79.5002 463.024 79.3843 463.756 79.7944 464.404C80.1636 463.536 80.3666 462.564 80.5335 461.614C80.6154 461.149 81.0901 459.783 81.0362 459.377C80.9266 458.547 80.085 458.502 80.5515 457.485C81.5194 458.77 82.3005 456.513 81.5693 455.614C81.2082 456.111 81.0757 456.675 80.9092 457.29C79.9576 454.946 82.5914 455.701 82.0152 453.584C82.9764 453.359 83.529 453.063 83.8945 451.904C84.3009 450.614 84.0019 450.333 84.9248 449.481C85.2422 449.188 86.14 448.767 86.3042 448.285C86.6221 447.353 85.8133 447.077 86.5217 446.205C86.7609 446.717 87.6933 447.731 88.2038 446.766C88.3061 446.573 87.8768 446.437 88.1891 445.994C88.6516 445.338 89.1691 444.694 89.9513 444.832C89.3319 442.942 93.2899 442.793 94.3035 442.347C95.3194 441.9 96.1813 441.607 97.2585 441.503C98.3345 441.4 98.3881 441.015 99.2991 440.224C99.3762 441.356 99.5992 441.107 100.258 441.306C100.416 440.975 100.579 440.937 100.745 441.195C100.91 441.387 101.113 441.477 101.351 441.466C101.713 441.489 102.123 441.431 102.503 441.441C103.393 441.462 104.311 441.371 105.184 441.394C105.409 441.348 105.619 441.253 105.816 441.107C105.899 441.297 105.981 441.486 106.063 441.676C106.526 441.747 106.562 442.454 107.13 441.68C107.299 442.664 107.782 442.152 108.293 442.419C108.759 442.663 108.833 443.052 109.263 443.323C109.546 443.603 109.849 443.64 110.173 443.435C110.481 443.714 110.795 443.985 111.112 444.247C111.697 444.651 112.387 444.898 113.003 445.216C113.413 445.422 113.821 445.637 114.225 445.86C114.237 446.455 114.456 446.666 114.881 446.491C115.266 446.883 115.374 446.868 115.747 447.536C116.591 449.05 117.34 450.226 118.407 451.58C123.044 457.463 124.469 465.782 122.715 473.545ZM124.138 448.526C122.045 445.105 119.082 441.187 116.419 439.026C115.07 437.931 113.175 435.964 111.525 435.385C111.133 435.247 110.728 435.238 110.344 435.094C110.047 434.983 109.885 434.611 109.546 434.544C109.309 434.497 109.283 435.144 109.031 435.085C108.505 434.96 108.171 434.322 107.799 433.923C107.001 435.602 106.567 432.779 105.395 434.677C104 432.007 100.722 432.591 98.4936 432.725C97.8329 432.765 97.5224 433.052 96.9366 433.265C96.3914 433.462 96.3375 433.412 95.7421 433.406C94.2592 433.392 92.9429 433.62 91.5722 434.414C89.2695 435.749 87.1558 437.829 84.9687 439.438C82.5242 441.236 80.3208 443.525 78.4508 446.155C71.6903 455.663 69.8826 469.542 75.2732 480.566C83.8354 498.073 105.921 499.944 118.436 488.065C128.105 478.887 131.785 461.021 124.138 448.526Z" fill="#2D4710"/>
<path fill-rule="evenodd" clip-rule="evenodd" d="M230.114 399.259C229.874 399.958 227.63 399.723 227.581 398.898C227.508 397.665 230.532 398.043 230.114 399.259ZM232.498 398.801C233.77 398.927 235.859 399.981 237.084 399.344C238.955 398.372 236.991 396.88 235.987 396.434C234.966 395.98 233.445 396.221 232.921 394.918C232.526 393.939 233.502 391.203 232.291 391.643C231.02 392.104 231.39 396.023 229.396 394.702C228.445 394.071 228.833 390.232 227.24 392.194C226.804 392.73 226.766 393.716 226.189 394.116C225.6 394.524 224.861 394.098 224.239 394.134C222.592 394.228 222.067 396.108 223.736 396.854C224.354 397.13 226.681 397.467 225.271 398.699C224.383 399.475 222.409 397.846 221.646 399.197C220.597 401.052 223.406 401.094 224.161 401.649C225.44 402.589 224.383 404.784 224.485 406.348C224.641 408.736 225.778 408.237 226.191 406.216C226.542 404.501 226.108 402.032 228.226 402.713C231.676 403.823 226.308 409.169 228.835 410.537C230.446 411.409 230.674 406.694 230.799 405.882C231.263 402.886 232.642 403.585 234.731 403.677C237.172 403.784 237.761 401.581 235.176 400.95C234.352 400.748 233.217 401.003 232.501 400.362C232.077 399.983 231.495 398.702 232.498 398.801Z" fill="#2D4710"/>
<path fill-rule="evenodd" clip-rule="evenodd" d="M142.382 496.696C140.406 495.833 137.102 496.02 136.613 499.133C136.408 500.437 136.807 501.815 137.544 502.762C138.4 503.86 139.762 503.962 139.689 502.05C139.638 500.727 138.607 499.578 140.421 499.311C141.549 499.145 143.219 500.175 143.275 501.697C143.402 505.127 138.537 505.396 136.744 504.803C133.185 503.626 134.152 499.077 136.596 497.001C137.227 496.465 139.039 495.639 139.121 494.524C139.231 493.047 137.734 493.349 137 493.543C131.606 494.976 130.43 506.005 136.067 508.084C138.626 509.028 142.231 508.054 143.774 505.224C145.22 502.572 145.239 497.945 142.382 496.696Z" fill="#2D4710"/>
<path fill-rule="evenodd" clip-rule="evenodd" d="M70.859 418.623C69.1728 419.614 67.4866 420.604 65.8007 421.595C65.2433 420.139 64.3016 416.163 62.8878 415.655C60.5991 414.833 62.0565 419.168 62.4515 420.159C62.776 420.973 63.5287 422.234 63.3459 423.205C63.1008 424.512 61.5896 424.975 60.7985 425.65C58.8409 427.319 58.8564 430.826 61.6914 429.34C63.2957 428.499 65.2821 426.166 66.5117 428.815C67.0794 430.036 68.4246 436.863 69.8295 432.398C70.6988 429.635 66.5146 426.763 68.5774 424.425C69.2415 423.672 70.0189 423.609 70.6822 423.176C72.2843 422.132 71.381 420.201 70.859 418.623Z" fill="#2D4710"/>
<path fill-rule="evenodd" clip-rule="evenodd" d="M318.068 319.716C317.062 319.267 315.819 318.391 314.701 318.69C313.514 319.007 313.036 320.458 312.172 321.331C309.825 323.704 308.458 320.167 307.168 318.229C305.95 316.399 304.464 315.955 302.745 317.08C302.06 317.528 299.175 319.582 299.678 320.898C300.04 321.845 301.465 320.995 301.952 320.788C303.007 320.34 303.987 319.947 305.066 320.601C307.091 321.826 307.616 325.187 310.066 325.711C312.599 326.253 312.682 323.311 314.49 322.203C315.702 321.461 316.546 322.775 317.715 322.513C318.829 322.264 319.344 320.285 318.068 319.716Z" fill="#2D4710"/>
<path fill-rule="evenodd" clip-rule="evenodd" d="M297.617 331.572C298.513 331.81 299.098 329.689 299.659 329.151C300.589 328.26 302.202 328.08 303.149 328.977C304.999 330.729 304.361 334.511 306.995 335.496C309.349 336.378 310.458 332.594 312.439 331.652C313.592 331.104 314.856 330.745 314.407 328.779C314.096 327.42 313.181 327.071 312.187 327.593C310.478 328.49 309.898 332.142 307.871 332.208C305.775 332.275 305.548 328.587 304.648 326.98C303.276 324.532 300.455 323.94 298.852 326.281C298.368 326.988 295.911 331.121 297.617 331.572Z" fill="#2D4710"/>
<path fill-rule="evenodd" clip-rule="evenodd" d="M256.179 289.759C257.425 290.8 259.909 290.764 261.057 289.473C262.225 288.16 260.665 287.958 259.714 287.998C258.982 288.029 257.611 288.472 258.029 286.929C258.399 285.56 260.434 286.257 260.604 284.754C259.072 284.419 257.385 284.54 256.252 286.009C255.433 287.071 255.012 288.785 256.179 289.759Z" fill="#2D4710"/>
<g clip-path="url(#clip1_197_2106)">
<path fill-rule="evenodd" clip-rule="evenodd" d="M437.391 373.43L437.459 373.432C438.45 373.556 440.361 376.585 441.106 377.426C443.507 380.141 445.909 382.856 448.31 385.571C449.272 386.657 450.614 387.767 451.348 389.06C451.913 390.055 452.208 391.473 452.592 392.56C457.359 406.068 462.059 419.673 465.913 433.539C466.742 436.524 467.546 439.532 468.139 442.586C468.432 444.095 469.035 446.296 468.595 447.823C468.1 449.544 466.064 450.433 464.747 451.077C462.186 452.33 459.462 453.189 456.761 453.985C450.254 455.902 443.613 457.286 436.97 458.527C434.941 458.906 432.834 459.102 430.83 459.611C429.873 459.853 430.136 459.527 429.9 460.303C429.573 461.382 430.061 463.524 430.118 464.661C430.251 467.338 430.385 470.013 430.518 472.69L431.609 494.588C431.978 501.989 432.348 509.389 432.716 516.79C432.856 519.594 432.996 522.398 433.136 525.202C433.211 526.701 433.592 528.609 433.379 530.087C433.218 531.205 433.623 530.842 432.459 531.017C429.763 531.424 426.92 531.314 424.199 531.46C421.113 531.626 418.027 531.791 414.94 531.957C414.059 532.004 413.105 532.382 412.683 531.694C412.169 530.857 412.268 528.413 412.145 527.435C411.801 524.712 411.456 521.988 411.112 519.264C410.167 511.787 409.222 504.31 408.277 496.833C406.989 486.636 405.699 476.439 404.411 466.241C401.067 467.353 397.723 468.465 394.378 469.577C389.437 471.22 384.495 472.863 379.554 474.506C377.288 475.26 374.651 476.739 372.222 476.573C369.808 476.408 368.716 475.338 368.337 472.768C367.932 470.012 367.723 467.216 367.493 464.441C367.116 459.902 366.801 455.359 366.521 450.813C373.204 449.478 379.889 448.141 386.572 446.805C390.131 446.094 393.69 445.382 397.249 444.671C398.057 444.51 400.085 444.499 400.382 443.761C400.844 442.612 399.873 439.073 399.739 437.836L398.468 426.146L393.797 383.135C395.418 383.042 397.04 382.944 398.661 382.843C405.713 382.404 412.81 382.063 419.819 381.149C423.334 380.691 426.573 379.285 429.78 377.683C431.486 376.832 433.168 375.922 434.832 374.974C435.356 374.676 436.856 373.358 437.459 373.432L437.391 373.43ZM431.723 414.403L430.038 434.863L442.241 432.765L431.723 414.403Z" fill="#4D7520"/>
<path fill-rule="evenodd" clip-rule="evenodd" d="M518.921 241.498C518.882 243.759 519.292 246.182 517.142 246.981C515.153 247.721 512.898 247.78 510.835 248.168C508.517 248.605 506.212 249.121 503.904 249.607C500.992 250.219 501.289 248.884 500.373 246.067C499.536 243.495 498.35 240.96 497.326 238.471C496.85 237.314 496.314 236.259 495.713 235.183C495.168 234.209 495.25 232.806 494.686 231.998C492.763 229.239 485.483 237.971 484.588 236.471C485.833 235.13 488.057 233.551 488.277 231.437C488.537 228.952 487.115 228.352 485.5 229.405C481.526 231.996 476.861 234.168 472.376 235.4C473.744 234.131 486.243 223.965 481.515 221.75C480.449 221.25 479.208 222.498 478.337 223.008C476.957 223.818 475.491 224.412 474.025 224.995C472.48 225.61 470.929 226.208 469.372 226.782C468.279 227.184 466.381 228.426 465.265 228.27C464.132 228.111 466.021 227.137 466.324 226.921C467.65 225.979 468.947 224.979 470.232 223.969C472.512 222.177 474.583 220.155 476.201 217.566C477.422 215.612 479.346 211.415 478.137 208.987C477.436 207.58 476.076 206.347 475.221 205.032C474.223 203.496 473.378 201.838 472.484 200.224C473.771 200.726 475.165 200.754 476.472 201.19C477.778 201.627 479.094 201.956 480.438 202.245C483.134 202.826 485.757 202.726 488.414 203.152C491.422 203.634 494.562 204.194 497.586 204.351C500.219 204.487 502.632 205.079 505.011 206.49C509.869 209.372 513.472 213.832 515.624 219.566C516.885 222.925 517.453 226.5 517.903 230.076C518.377 233.847 518.987 237.693 518.921 241.498ZM493.446 244.193C490.524 247.143 487.021 249.564 483.829 252.14C482.002 253.614 480.127 255.007 478.254 256.404C476.924 257.395 475.36 259.136 473.85 259.723C472.894 260.094 472.969 260.109 472.25 259.142C471.563 258.219 470.945 257.214 470.293 256.258C469.092 254.495 467.881 252.741 466.671 250.986C463.957 247.053 461.248 243.12 458.426 239.287C455.594 235.44 452.854 231.509 450.094 227.597C448.81 225.778 447.533 223.952 446.187 222.192C445.16 220.849 442.666 218.887 443.593 217.103C444.454 215.446 446.629 213.93 447.877 212.619C449.401 211.019 450.937 209.432 452.456 207.824C455.722 204.368 458.882 200.785 462.145 197.325C465.74 203.105 469.832 208.455 473.95 213.756C470.933 216.431 467.873 218.993 464.65 221.344C462.27 223.081 458.603 225.47 457.279 228.462C455.975 231.408 457.822 234.489 460.625 234.275C462.301 234.147 463.92 233.482 465.533 233.036C466.697 232.715 468.766 231.532 469.899 232.12C468.113 233.704 461.539 238.45 465.631 241.677C468.556 243.984 472.737 239.817 475.707 240.312C475.008 242.336 474.383 245.52 476.935 246.343C479.058 247.029 481.573 245.138 483.326 244.095C484.594 243.342 485.85 242.568 487.09 241.76C488.076 241.117 489.213 239.895 490.299 239.555C491.566 239.157 494.591 243.036 493.446 244.193ZM448.016 392.851C449.796 392.3 450.646 391.351 451.457 393.822C452.184 396.035 452.898 398.165 453.768 400.322C450.959 400.871 448.604 402.659 446.743 405.036C445.418 406.73 442.84 410.718 443.813 413.252C446.177 419.41 453.741 404.376 454.656 402.759C456.158 404.805 456.904 407.601 457.783 410.021C458.409 411.743 460.432 414.966 458.223 415.609C455.122 416.511 449.325 418.419 450.185 423.506C451.2 429.51 457.913 428.839 461.706 428.754C463.845 428.705 464.039 430.654 464.548 432.806C464.776 433.769 465.324 435.047 464.668 435.83C464.086 436.525 462.121 436.729 461.304 437.013C458.924 437.844 456.547 438.685 454.168 439.515C451.466 440.457 449.913 439.643 447.245 439.021C446.257 438.79 445.309 439.017 445.122 437.796C445.007 437.047 445.541 435.821 445.681 435.056C446.236 432.029 446.659 428.928 446.605 425.809C446.528 421.279 445.453 414.577 440.534 414.158C438.194 413.958 437.739 413.864 436.466 411.49C435.089 408.922 433.071 406.615 433.211 403.494C433.311 401.233 432.384 397.059 433.453 395.09C433.947 394.18 435.019 393.563 435.725 392.862C436.624 391.969 437.482 391.022 438.305 390.039C438.998 389.213 439.79 387.651 440.605 387.024C441.6 386.258 441.676 386.709 442.535 387.677C443.802 389.106 446.016 393.471 448.016 392.851ZM454.094 402.357C453.603 403.871 452.277 405.361 451.466 406.662C450.65 407.972 449.891 409.346 448.956 410.551C447.928 411.878 444.145 415.205 444.665 411.16C445.069 408.013 447.438 405.271 449.586 403.516C450.002 403.176 454.926 399.795 454.094 402.357ZM459.928 416.601C460.526 418.625 460.944 420.73 461.485 422.774C461.762 423.819 462.98 426.291 462.679 427.35C462.17 429.145 455.915 427.67 454.602 427.194C451.478 426.059 449.76 422.55 452.272 419.696C453.225 418.615 459.33 414.578 459.928 416.601ZM466.248 440.988C466.772 442.924 467.933 444.656 466.441 446.299C465.203 447.662 463.062 448.716 461.433 449.314C459.214 450.129 458.343 448.738 456.96 446.973C455.473 445.075 453.909 443.254 452.298 441.492C456.683 439.914 461.067 438.336 465.453 436.758C465.586 438.192 465.873 439.606 466.248 440.988ZM456.345 451.144C453.988 451.227 451.543 452.274 449.186 452.712C446.243 453.259 443.32 453.925 440.37 454.435C440.868 451.582 442 448.972 442.82 446.243C443.643 443.505 444.37 443.148 446.819 442.711C449.088 442.306 450.616 441.251 452.514 443.313C454.489 445.458 456.318 447.819 458.153 450.117C457.647 450.587 457.04 451.12 456.345 451.144ZM439.646 453.3C439.113 453.837 437.2 452.634 436.574 452.425C435.356 452.019 435.081 451.877 434.347 450.629C433.716 449.556 432.762 448.359 432.476 447.092C432.099 445.424 432.541 443.138 432.62 441.436C433.418 443.124 435.515 443.13 436.945 443.283C438.027 443.399 441.14 442.756 442.022 443.546C442.997 444.419 441.622 447.24 441.293 448.285C440.9 449.533 440.541 452.397 439.646 453.3ZM438.644 454.793C437.96 454.988 436.033 455.97 435.935 454.511C435.822 452.844 438.748 454.376 438.644 454.793ZM435.106 455.04C435.112 456.453 432.47 456.586 432.293 455.36C431.994 453.288 435.097 452.785 435.106 455.04ZM428.52 417.566C428.055 419.823 424.033 420.996 422.523 421.821C421.145 422.574 417.122 425.828 415.543 424.936C420.184 420.513 424.956 416.158 428.728 410.715C429.02 411.943 428.853 413.009 428.644 414.217C428.456 415.308 428.725 416.565 428.52 417.566ZM428.031 425.684C427.818 431.127 427.626 436.639 427.154 442.052C425.231 441.577 423.571 440.402 421.573 440.128C419.749 439.877 417.905 440.042 416.135 440.519C412.364 441.535 409.152 444.031 406.008 446.464C405.35 442.808 404.336 438.924 404.061 435.219C403.833 432.14 408.337 430.796 410.299 429.329C411.486 428.442 412.523 427.254 413.932 426.851C415.383 426.435 416.809 426.308 418.219 425.654C421.552 424.109 424.615 421.869 427.858 420.109C428.309 421.927 428.103 423.843 428.031 425.684ZM426.963 448.734C426.926 449.97 427.326 452.132 426.601 453.14C425.919 454.089 424.287 454.273 423.3 454.606C420.294 455.622 417.291 456.645 414.291 457.683C412.949 458.148 411.606 458.598 410.255 459.027C409.61 459.232 408.028 460.111 407.418 459.564C406.838 459.044 407.057 457.188 407.013 456.422C406.925 454.893 406.855 453.356 406.627 451.84C406.19 448.93 406.226 447.796 408.46 446.058C410.832 444.21 413.336 442.862 416.122 441.997C418.943 441.121 421.716 441.191 424.575 442.197C425.371 442.476 426.555 442.802 426.999 443.709C427.603 444.944 427.003 447.421 426.963 448.734ZM427.97 496.21C426.92 497.126 424.454 497.221 423.175 497.508C421.109 497.97 418.991 498.019 416.879 497.846C415.289 497.716 412.92 497.553 411.602 496.409C409.731 494.784 411.687 494.516 413.002 494.518C416.825 494.524 420.636 493.906 424.39 493.234C425.121 493.103 427.031 492.174 427.775 492.454C428.725 492.811 428.706 495.568 427.97 496.21ZM428.558 525.278C421.426 525.161 416.701 518.856 413.493 512.257C411.771 508.714 411.901 504.812 411.398 500.941C411.306 500.234 410.75 498.51 411.336 497.92C411.888 497.365 414.455 498.675 415.127 498.797C418.573 499.421 422.293 499.159 425.571 497.925C426.99 497.39 427.737 496.576 428.356 498.186C428.855 499.483 428.476 501.995 428.542 503.398C428.656 505.824 430.836 525.315 428.558 525.278ZM414.461 526.621C414.323 525.451 412.684 513.653 413.181 513.57C415.019 517.108 416.86 520.253 419.827 522.702C421.343 523.954 423.018 525.053 424.819 525.631C425.496 525.848 429.203 525.71 429.471 526.617C429.94 528.205 427.362 527.791 426.603 527.73C425.994 527.681 425.427 527.44 424.828 527.373C423.687 527.247 422.659 527.659 421.537 527.792C419.833 527.994 418.136 527.947 416.443 528.279C414.896 528.581 414.671 528.395 414.461 526.621ZM410.466 473.385C416.296 470.576 421.746 474.333 425.46 479.574C427.578 482.563 428.194 484.735 428.231 488.508C428.244 489.859 428.54 490.746 427.516 491.394C426.503 492.036 424.046 491.864 422.899 492.035C419.603 492.526 416.325 493.075 412.991 493.164C410.825 493.222 410.481 492.833 410.291 490.437C410.063 487.552 409.582 484.705 409.166 481.834C408.717 478.728 407.406 474.859 410.466 473.385ZM408.096 469.424C407.899 467.307 407.583 465.146 407.495 463.023C407.409 460.917 408.197 460.947 409.89 460.426C413.556 459.298 417.208 458.077 420.798 456.678C422.217 456.125 423.791 455.172 425.31 455.022C426.904 454.864 426.909 455.811 426.956 457.438C427.059 461.043 426.82 464.627 426.984 468.207C427.16 472.071 427.431 475.976 427.81 479.825C427.939 481.124 428.306 482.061 427.223 480.936C426.139 479.809 425.481 477.913 424.486 476.626C422.449 473.99 419.602 471.984 416.59 471.311C414.925 470.939 413.217 471.009 411.606 471.545C411.117 471.708 408.744 473.313 408.4 473.073C408.167 472.911 408.104 469.509 408.096 469.424ZM437.149 540.672C439.732 542.41 442.536 543.746 445.352 544.87C446.938 545.502 453.075 546.567 453.432 548.295C453.622 549.217 452.729 550.354 452.09 550.526C451.28 550.744 449.864 550.256 449.014 550.219C445.922 550.084 442.876 550.37 439.807 549.679C433.678 548.3 427.463 548.337 421.297 547.212C419.829 546.945 418.361 546.702 416.89 546.474C415.493 546.256 414.887 546.373 414.681 544.708C414.227 541.053 414.789 537.212 414.445 533.501C419.364 533.675 424.239 533.205 429.161 533.266C431.27 533.292 431.264 533.75 432.377 535.752C433.532 537.83 435.315 539.437 437.149 540.672ZM402.173 423.848C401.983 422.497 401.806 421.141 401.57 419.798C401.412 418.896 400.446 416.424 400.788 415.677C401.194 414.791 401.732 415.258 402.599 415.152C403.742 415.012 404.651 414.394 405.53 413.614C407.195 412.138 408.362 410.291 409.333 408.173C410.187 406.31 409.768 403.914 409.555 401.799C409.004 396.332 408.846 390.962 408.034 385.495C407.661 382.984 409.689 384.353 411.239 384.536C413.775 384.835 416.44 384.209 418.966 383.977C418.936 384.659 413.93 386.818 413.156 387.533C411.175 389.362 410.176 392.083 410.652 395.032C411.609 400.964 417.445 401.418 421.64 401.032C418.494 404.886 415.395 408.57 413.072 413.177C411.359 416.573 408.406 423.23 412.039 426.464C409.304 428.636 406.616 431.018 403.406 432.243C402.992 429.445 402.567 426.649 402.173 423.848ZM390.522 315.003C391.791 315.764 392.173 314.482 393.016 313.758C394.202 312.737 394.631 312.785 394.602 310.759C394.547 307.001 392.857 303.755 390.848 300.865C389.935 299.552 388.998 297.974 387.792 296.994C386.692 296.101 385.707 296.538 384.678 295.604C384.274 295.237 384.299 294.662 383.695 294.736C383.298 294.784 382.464 296.289 382.164 296.632C381.218 297.716 380.018 298.587 378.579 297.903C376.484 296.909 376.714 292.556 378.123 291.019C379.207 289.836 380.624 289.869 381.958 289.568C382.959 289.343 383.174 289.373 382.632 288.086C382.252 287.184 381.51 286.523 381.092 285.645C380.287 283.961 380.225 281.826 379.775 280.005C379.37 278.374 378.621 276.639 378.482 274.956C378.307 272.813 378.865 272.199 380.427 271.446C381.941 270.716 383.118 269.311 384.352 268.108C385.749 266.746 387.329 265.784 388.778 264.524C389.761 263.669 390.297 262.077 391.525 262.68C392.984 263.397 394.674 265.714 395.965 266.857C394.368 268.267 394.021 268.85 394.489 271.269C394.918 273.486 395.505 275.443 397.146 276.86C397.777 277.405 398.893 277.783 399.403 278.432C399.998 279.188 399.594 278.51 399.614 279.425C399.626 279.918 399.318 280.271 399.445 280.83C400.013 283.314 402.395 281.59 403.352 280.618C406.771 277.144 399.6 275.322 397.844 274.341C396.633 273.663 395.832 271.209 397.698 271.704C398.939 272.034 402.003 275.534 401.954 272.083C405.114 273.779 407.347 277.808 410.092 280.228C412.071 281.974 414.687 283.87 413.55 287.066C412.102 291.139 408.664 293.251 405.532 295.246C402.494 297.181 403.595 301.738 405.569 304.403C406.711 305.944 408.094 306.779 409.725 307.426C411.39 308.087 411.811 309.009 412.336 310.859C412.919 312.911 412.59 313.792 411.113 315.02C409.671 316.22 408.156 317.394 406.589 318.374C403.199 320.495 399.518 320.958 395.79 321.924C394.483 322.263 393.253 322.827 392.386 321.39C391.412 319.771 391.075 316.858 390.522 315.003ZM389.181 306.945C388.239 306.492 386.258 308.482 385.139 308.667C383.33 308.966 382.129 309.031 380.617 310.291C377.758 312.673 375.477 315.607 373.302 318.76C370.853 322.312 368.421 325.879 365.982 329.44C364.876 331.052 363.764 332.658 362.636 334.25C361.748 335.505 360.926 337.23 359.769 338.175C359.74 337.185 360.201 336.439 360.301 335.51C360.359 334.966 360.126 334.532 360.148 334.015C360.156 333.847 360.49 333.234 360.531 333.04C360.641 332.526 360.788 332.015 360.926 331.48C361.055 330.98 360.982 330.481 361.111 329.96C361.244 329.422 361.71 329.03 361.835 328.501C362.2 326.953 361.294 326.337 359.954 326.499C360.195 323.448 360.286 321.958 362.926 320.639C365.449 319.38 367.899 318.002 370.154 316.194C372.157 314.588 373.747 312.397 375.652 310.639C377.357 309.065 379.506 307.381 379.215 304.511C380.333 305.222 381.374 305.811 382.49 304.892C383.432 304.116 383.513 303.555 384.664 303.317C385.604 303.123 386.189 303.039 387.082 303.437C388.132 303.905 388.306 304.283 388.729 302.572C389.45 303.146 391.369 305.638 391.413 306.692C391.437 307.273 391.386 307.541 390.775 307.752C389.909 308.052 389.87 307.277 389.181 306.945ZM399.891 464.169C399.529 464.971 397.689 465.004 396.982 465.06C394.828 465.232 393.879 463.236 392.746 461.327C390.96 458.318 388.115 451.985 390.243 448.447C391.923 445.656 395.987 448.587 397.489 450.434C398.785 452.029 398.69 454.614 398.989 456.647C399.241 458.361 400.605 462.586 399.891 464.169ZM394.122 465.867C393.355 466.933 390.544 466.989 389.424 467.309C387.426 467.879 385.446 468.524 383.538 469.399C382.117 470.05 380.796 471.566 380.186 469.257C379.674 467.316 379.612 464.936 379.454 462.943C379.284 460.792 379.28 458.654 379.24 456.501C379.213 455.045 378.685 452.412 379.61 451.205C380.408 450.165 382.558 449.868 383.681 449.442C385.524 448.742 387.438 447.872 389.427 447.918C388.617 451.596 388.875 455.347 390.443 458.787C390.89 459.769 394.595 465.208 394.122 465.867ZM378.308 453.021C378.337 458.434 378.367 463.882 379.34 469.233C379.398 469.552 379.874 470.994 379.749 471.239C379.621 471.492 378.438 471.729 378.174 471.828C377.124 472.223 376.078 472.635 375.019 472.997C372.957 473.702 372.536 472.202 371.91 470.001C370.569 465.287 371.795 459.921 372.4 455.214C372.695 452.921 373.046 452.627 374.955 452.259C376.284 452.002 378.296 450.721 378.308 453.021ZM372.058 473.82C371.331 474.737 370.15 470.85 370.04 470.453C369.606 468.876 369.609 467.234 369.459 465.605C369.224 463.06 368.815 460.543 368.571 458.011C368.439 456.641 367.278 453.926 368.625 453.067C369.02 452.815 370.678 452.747 371.079 452.991C371.912 453.499 371.641 453.905 371.506 454.939C371.205 457.258 370.976 459.583 370.743 461.915C370.515 464.202 370.285 466.403 370.715 468.701C370.857 469.462 372.521 473.236 372.058 473.82ZM395.403 446.371C397.309 445.551 397.577 447.266 397.731 448.917C397.406 448.682 394.409 446.8 395.403 446.371ZM357.626 327.692C357.23 328.646 354.203 329.184 353.354 329.506C351.684 330.139 350.012 330.769 348.348 331.421C345.23 332.642 342.203 333.974 338.963 334.765C340.454 331.286 340.744 328.377 340.017 324.28C339.1 319.108 338.073 314 336.541 308.998C335.032 304.065 333.362 299.181 331.737 294.293C330.939 291.891 330.099 289.541 329.12 287.224C328.335 285.366 327.164 283.045 328.002 280.985C330.807 282.91 333.112 285.052 334.907 288.21C336.83 291.595 338.56 295.094 340.724 298.301C341.713 299.768 342.83 301.085 343.874 302.497C344.494 303.337 345.007 304.585 345.761 305.272C346.63 306.063 347.509 306.392 347.82 304.888C348.154 303.274 346.32 300.316 345.726 298.886C344.291 295.435 342.866 291.99 341.674 288.423C340.709 285.539 339.239 282.082 339.345 278.933C339.45 275.816 341.483 277.847 342.542 279.191C344.725 281.963 346.191 285.296 347.758 288.524C349.199 291.489 350.817 294.293 352.374 297.176C352.915 298.179 353.754 300.824 354.943 301.025C356.67 301.317 356.27 298.614 356.004 297.526C354.244 290.319 350.794 283.586 349.511 276.205C349.449 275.853 348.785 273.128 349.087 272.867C349.673 272.36 350.785 275.082 351.121 275.743C352.869 279.181 354.207 282.853 355.465 286.541C356.535 289.677 357.534 292.844 358.695 295.94C359.333 297.643 360.038 299.309 360.735 300.982C361.365 302.497 362.108 305.118 363.465 306.027C365.39 307.317 371.454 303.242 372.396 306.282C373.066 308.443 367.306 310.78 366.107 311.569C364.529 312.608 362.99 313.727 361.41 314.767C360.215 315.553 358.432 315.998 357.64 317.341C356.801 318.762 356.824 320.645 356.951 322.298C357.048 323.549 358.095 326.56 357.626 327.692ZM355.867 352.147C355.848 352.848 355.454 353.811 355.301 354.49C354.988 355.875 354.765 357.516 354.271 358.829C353.847 359.959 353.161 360.999 352.756 362.145C352.372 363.231 352.421 364.438 351.956 365.533C351.423 366.786 350.438 367.743 349.909 368.988C349.648 369.601 349.385 370.299 348.998 370.963C347.626 373.316 346.253 375.543 345.206 378.023C344.938 378.658 343.6 381.445 342.981 381.648C341.688 382.07 343.022 379.774 343.239 379.304C344.806 375.91 346.147 372.365 347.644 368.927C349.094 365.597 350.588 362.288 351.968 358.918C353.093 356.169 353.687 352.321 355.745 350.265C355.813 350.891 355.854 351.518 355.867 352.147ZM414.102 316.794C415.674 321.81 417.445 326.648 419.151 331.605C420.735 336.205 422.726 341.1 423.658 345.908C424.58 350.672 426.115 355.434 427.99 359.861C428.858 361.909 429.745 363.963 430.667 365.981C431.173 367.09 431.724 368.169 432.282 369.245C432.715 370.082 433.775 371.403 433.898 372.322C433.996 373.057 434.192 372.741 433.609 373.356C433.005 373.993 431.844 373.892 431.086 374.066C429.11 374.521 427.241 375.568 425.343 376.311C421.683 377.744 417.28 379.024 413.354 378.64C411.703 378.479 409.993 378.365 408.35 378.106C406.33 377.788 405.835 376.891 405.22 374.709C403.874 369.938 402.653 365.167 401.459 360.349C400.038 354.618 398.547 348.9 397.322 343.114C396.083 337.261 395.035 331.383 393.418 325.631C397.779 326.045 401.901 326.589 406.07 324.838C409.761 323.287 412.287 320.7 414.102 316.794ZM436.877 378.585C438.049 380.755 435.933 383.006 434.98 384.853C433.722 387.288 432.571 389.816 431.052 392.054C430.314 389.745 429.611 387.133 428.054 385.326C426.065 383.018 424.114 384.223 421.854 383.257C423.989 381.787 426.912 381.994 429.196 380.648C431.45 379.32 433.749 378.227 435.807 376.585C436.164 377.251 436.518 377.92 436.877 378.585ZM433.518 432.117C432.086 432.345 432.72 428.775 432.731 427.902C432.763 425.501 432.798 423.1 432.798 420.699C434.326 424.175 435.855 427.652 437.382 431.128C436.097 431.465 434.83 431.908 433.518 432.117ZM432.805 449.544C433.049 450.025 434.124 451.606 433.429 451.982C432.478 452.496 432.097 449.747 432.805 449.544ZM427.422 411.043C423.232 415.673 419.074 420.311 414.451 424.394C413.439 425.289 412.375 425.723 411.505 424.222C410.821 423.042 411.288 421.595 411.537 420.353C412.172 417.185 413.533 414.355 415.085 411.679C418.184 406.335 422.033 401.656 427.273 399.168C428.131 398.761 429.409 397.657 429.848 398.973C430.106 399.747 429.518 401.797 429.431 402.554C429.074 405.683 429.506 408.741 427.422 411.043ZM443.53 440.389C443.969 443.942 435.193 441.875 434.073 441.338C435.145 440.806 443.333 438.792 443.53 440.389ZM446.69 440.112C447.21 440.219 449.166 440.231 448.514 441.058C447.931 441.798 444.971 441.804 444.202 441.961C444.538 439.946 444.92 439.751 446.69 440.112ZM444.663 435.489C444.548 436.3 444.585 437.516 444.016 438.118C443.308 438.869 441.626 438.613 440.752 438.702C439.267 438.851 437.792 439.079 436.329 439.388C435.77 439.506 433.553 440.514 432.972 440.025C432.545 439.665 432.514 437.792 432.758 437.348C433.259 436.434 434.628 436.604 435.465 436.49C438.528 436.073 441.585 435.773 444.663 435.489ZM441.44 422.508C440.936 421.811 440.86 421.826 440.569 420.727C440.258 419.552 439.657 418.578 439.252 417.452C438.36 414.975 440.462 415.003 442.077 415.79C446.264 417.83 446.109 426.361 445.504 430.405C443.967 429.342 443.391 428.848 442.718 426.961C442.462 426.244 442.185 425.542 441.922 424.829C441.729 424.305 441.691 422.856 441.44 422.508ZM437.89 381.395C438.981 381.138 440.364 384.969 440.129 385.849C439.647 387.649 437.325 389.437 436.173 390.666C435.405 391.484 434.654 392.41 433.82 393.139C433.046 393.815 432.536 393.525 431.79 393.886C430.711 394.406 430.569 395.787 429.48 396.478C427.947 397.45 426.017 397.864 424.406 398.763C422.45 399.854 420.582 400.056 418.403 399.833C415.268 399.513 411.495 398.107 411.367 393.799C411.14 386.197 423.873 381.085 428.053 387.152C429.141 388.731 429.311 390.676 430.084 392.41C430.922 394.286 431.484 393.464 432.332 391.943C433.442 389.954 434.451 387.872 435.505 385.843C435.847 385.187 437.103 381.582 437.89 381.395ZM364.576 462.562C364.635 463.853 364.826 465.15 364.552 466.413C364.276 467.686 363.574 468.761 363.229 470.007C362.529 472.53 362.815 475.476 363.1 478.081C363.761 484.144 365.575 489.922 366.808 495.857C364.597 496.06 362.316 496.305 360.105 495.785C358.131 495.32 357.674 493.747 356.942 491.781C354.885 486.257 352.709 480.769 351.656 474.881C351.155 472.075 350.786 469.232 350.406 466.405C350.073 463.925 350.458 462.793 352.303 461.375C356.314 458.292 360.523 455.642 364.478 452.436C364.362 455.806 364.422 459.187 364.576 462.562ZM527.78 246.397C526.721 246.277 525.66 246.24 524.599 246.196C524.045 246.173 522.351 246.438 521.903 246.069C521.37 245.63 521.865 241.877 521.834 241.085C521.649 236.321 520.879 231.464 520.052 226.779C518.555 218.297 515.458 210.602 509.459 204.961C506.474 202.153 503.214 200.009 499.421 199.185C497.212 198.705 494.968 198.55 492.756 198.091C490.971 197.72 489.295 197.261 487.474 197.22C483.842 197.137 480.411 195.894 476.82 195.327C474.178 194.909 469.881 193.733 468.525 197.227C467.042 195.584 465.592 194.382 463.807 193.22C462.097 192.108 461.718 190.871 459.909 192.514C456.394 195.707 453.179 199.5 449.951 203.06C446.937 206.384 444.043 209.84 440.846 212.938C437.587 216.097 438.71 220.827 440.745 224.645C444.575 231.829 449.995 237.768 454.816 243.781C457.836 247.548 460.865 251.319 463.876 255.094C466.754 258.703 469.349 262.949 472.613 266.127C474.671 268.13 476.611 265.072 478.157 263.597C480.076 261.765 481.953 259.877 483.875 258.049C487.877 254.244 492.203 250.624 496.488 247.236C496.922 248.282 497.356 249.329 497.79 250.375C496.796 250.556 495.417 250.428 495.024 251.711C494.462 253.543 496.272 253.605 496.682 254.587C497.047 255.463 496.125 257.956 495.862 258.802C495.272 260.708 494.355 262.389 493.323 264.01C489.241 270.422 483.762 275.251 478.179 279.889C472.204 284.85 465.61 288.159 458.884 291.629C455.463 293.393 451.835 294.406 448.252 295.668C444.8 296.884 441.377 298.375 437.795 299.05C430.468 300.43 422.672 301.683 415.196 300.549C414.378 300.425 413.491 300.072 412.67 300.067C412.012 300.063 411.559 300.421 410.947 300.52C409.634 300.732 408.748 299.45 407.817 300.807C407.352 301.486 407.442 302.543 406.599 301.438C405.526 300.033 407.879 299.519 408.721 299.01C411.555 297.296 413.669 294.186 415.279 291.091C416.889 288 416.865 284.863 415.393 281.561C413.923 278.26 411.093 276.197 408.871 273.614C407.796 272.363 406.79 271.028 405.63 269.875C405.011 269.259 404.055 268.703 403.957 268.033C403.842 267.253 404.215 266.825 403.879 265.895C403.792 265.654 403.507 265.539 403.424 265.272C403.291 264.847 403.397 264.461 403.31 264.043C403.108 263.084 402.718 262.506 402.173 261.756C401.833 261.288 401.311 260.334 400.873 260.001C400.105 259.416 399.167 259.773 398.387 259.18C397.152 258.243 396.544 256.078 395.419 254.905C393.835 253.253 393.704 255.086 392.152 254.659C390.824 254.293 390.63 252.083 389.523 251.435C387.965 250.521 386.92 252.573 385.665 253.127C384.015 253.855 384.461 251.592 382.923 251.535C381.535 251.484 379.937 254.85 379.36 256.047C378.575 255.183 377.662 253.67 376.462 254.356C375.203 255.078 375.231 257.874 374.363 258.955C374.061 259.331 374.155 259.579 373.758 259.776C373.245 260.031 372.451 259.213 371.788 259.548C370.451 260.224 370.821 262.331 370.949 263.707C369.284 263.588 368.128 263.556 367.771 265.631C367.421 267.662 367.135 266.808 365.468 267.615C364.03 268.31 363.976 269.95 363.88 271.558C363.821 272.558 364 272.947 364.317 273.823C364.716 274.927 364.715 274.913 364.341 276.038C363.69 278.001 363.837 280.082 363.901 282.169C363.97 284.396 363.823 286.442 364.577 288.552C365.044 289.857 365.242 291.675 366.457 292.316C366.939 292.57 367.694 292.334 368.108 292.592C368.899 293.084 368.755 293.961 369.324 294.736C369.75 295.315 370.349 295.318 370.808 295.778C371.308 296.277 371.397 296.936 371.715 297.573C372.656 299.461 373.456 300.342 371.005 300.687C369.493 300.9 367.922 301.575 366.394 301.559C364.591 301.539 364.038 300.439 363.305 298.752C359.61 290.255 357.17 280.896 352.608 272.914C351.607 271.162 347.499 264.004 346.578 269.59C345.803 274.302 347.924 279.761 348.967 284.278C346.867 282.486 345.823 278.997 344.143 276.725C342.902 275.046 339.129 270.992 337.398 273.684C336.033 275.806 336.818 279.956 337.328 282.29C338.135 285.982 339.518 289.483 340.609 293.076C339.539 291.761 338.914 290.09 338.114 288.571C337.111 286.666 335.915 284.881 334.59 283.249C333.432 281.822 332.165 280.515 330.813 279.333C329.78 278.429 327.893 276.416 326.548 276.425C323.087 276.449 324.85 283.557 325.568 285.568C327.057 289.738 328.625 293.781 329.879 298.06C332.33 306.42 335.11 314.55 337.139 323.059C337.588 324.946 338.056 326.441 337.57 328.341C337.141 330.016 336.721 332.01 335.765 333.356C333.602 336.406 331.87 339.608 330.375 343.178C328.774 347.001 327.12 350.871 325.898 354.884C325.336 356.731 324.921 358.71 324.244 360.499C323.632 362.113 322.837 363.419 322.46 365.178C320.66 373.584 319.514 381.784 319.46 390.51C319.416 397.673 320.978 407.049 328.616 408C332.125 408.437 335.045 406.399 338.007 404.665C341.071 402.872 343.159 400.23 345.529 397.409C348.475 393.903 351.563 390.583 354.547 387.128C357.534 383.67 360.237 379.893 363.202 376.404C366.13 372.956 368.733 369.343 371.177 365.43C373.602 361.549 375.471 357.326 377.803 353.402C378.243 358.155 378.073 362.921 378.35 367.682C378.604 372.047 379.013 376.394 379.578 380.727C380.143 385.058 379.533 389.29 379.936 393.627C380.328 397.858 380.58 402.077 380.9 406.31C381.043 408.209 380.92 410.366 381.712 412.136C382.303 413.458 383.795 413.747 385.068 413.998C387.035 414.385 392.689 412.744 393.765 415.004C394.353 416.238 394.103 418.608 394.273 420.016C394.555 422.337 394.849 424.656 395.139 426.975C395.439 429.371 395.737 431.766 396.041 434.161C396.309 436.27 396.892 438.594 396.868 440.711C396.848 442.524 395.911 442.376 394.471 442.606C392.297 442.951 390.12 443.27 387.942 443.587C384.748 444.052 381.392 444.296 378.356 445.021C377.081 445.326 375.661 445.382 374.326 445.808C372.652 446.342 371.082 446.587 369.357 446.85C367.967 447.061 366.159 447.115 365.173 448.403C364.831 448.85 364.792 449.347 364.565 449.83C364.14 450.734 364.4 450.482 363.588 450.754C360.417 451.813 357.418 452.953 354.368 454.519C352.841 455.303 351.448 456.294 349.91 457.041C348.562 457.695 347.599 458.436 347.057 460.072C346.089 462.995 346.786 467.025 347.162 470.041C347.75 474.745 349.091 479.15 350.511 483.619C351.987 488.269 353.254 493.066 355.665 497.238C356.457 498.609 357.339 500.37 358.75 500.99C360.572 501.79 363.178 500.953 365.067 500.778C366.335 500.66 369.778 500.837 370.61 499.53C371.416 498.264 370.178 495.027 369.91 493.576C368.97 488.493 367.662 483.396 367.184 478.233C368.384 479.885 370.463 482.736 372.003 479.885C372.382 479.183 372.181 478.893 372.929 478.436C373.342 478.183 374.244 477.967 374.72 477.959C375.367 477.947 375.633 478.221 376.21 478.02C376.72 477.842 377.257 477.251 377.841 477.031C385.076 474.305 392.254 471.426 399.543 468.918C401.47 468.255 401.354 470.015 401.669 471.956C402.018 474.102 401.95 476.309 402.414 478.42C402.818 480.257 403.166 482.051 403.023 483.95C402.854 486.191 403.272 488.007 403.855 490.155C406.104 498.437 406.71 507.593 407.848 516.119C408.441 520.56 408.507 525.145 409.293 529.543C409.59 531.204 410.493 532.052 410.968 533.544C411.514 535.256 410.689 537.581 410.535 539.306C410.224 542.766 409.574 547.739 411.888 550.505C413.138 551.999 414.6 552.095 416.277 552.481C418.284 552.943 420.273 553.515 422.287 553.943C429.642 555.505 437.403 555.211 444.841 555.751C446.662 555.883 448.322 555.698 450.113 555.384C451.217 555.19 453.996 555.349 454.848 554.499C455.305 554.044 455.006 553.557 455.21 553.035C455.501 552.293 455.907 551.963 456.474 551.465C457.413 550.64 458.539 550.103 458.566 548.58C458.633 544.849 454.42 543.276 452.116 541.884C449.171 540.105 445.772 539.632 442.694 538.244C440.995 537.478 439.342 536.584 437.691 535.689C436.975 535.301 435.562 534.919 435.025 534.251C434.478 533.571 434.848 532.49 434.948 531.434C435.36 527.069 434.668 522.711 434.681 518.338C434.693 513.958 434.164 509.603 433.89 505.227C433.608 500.722 433.507 496.21 433.331 491.701C433.167 487.537 432.999 483.305 432.644 479.155C432.316 475.306 432.416 471.489 432.157 467.609C432.07 466.291 431.638 463.928 432.294 462.743C432.87 461.704 435.093 461.617 436.108 461.348C438.845 460.622 441.453 459.966 444.175 459.427C450.654 458.144 457.886 456.966 463.824 453.769C466.273 452.45 469.528 450.658 470.056 447.223C470.664 443.274 468.944 438.655 468.529 434.716C468.085 430.511 466.63 426.504 465.444 422.501C464.168 418.192 463.203 413.777 461.858 409.49C460.625 405.557 458.904 402.133 457.235 398.447C456.557 396.951 453.03 391.912 453.843 390.509C454.281 389.754 456.083 389.402 456.791 389.009C458.315 388.161 459.834 387.217 461.207 386.085C463.04 384.574 467.12 381.975 467.039 379.011C466.96 376.177 464.275 373.561 462.838 371.467C460.522 368.092 457.732 365.214 455.503 361.76C451 354.778 447.21 347.024 443.684 339.375C441.84 335.373 440.996 331.52 440.338 327.124C444.556 326.736 448.904 326.923 453.031 325.851C457.521 324.684 461.97 323.013 466.393 321.565C474.449 318.926 482.153 316.079 489.382 311.173C496.152 306.578 502.991 301.603 508.314 294.824C511.066 291.318 513.874 287.745 516.165 283.817C518.519 279.783 520.153 275.297 521.843 270.858C523.709 265.958 525.081 260.865 526.049 255.607C526.244 254.55 526.121 253.239 526.403 252.231C526.721 251.093 527.486 250.991 528.233 250.337C529.284 249.417 529.777 246.623 527.78 246.397Z" fill="#2D4710"/>
<path fill-rule="evenodd" clip-rule="evenodd" d="M424.639 203.301C425.693 204.158 430.164 207.106 431.429 206.166C432.99 205.006 430.082 202.234 429.306 201.556C428.318 200.694 424.836 198.131 423.633 198.514C421.227 199.279 423.691 202.53 424.639 203.301Z" fill="#2D4710"/>
<path fill-rule="evenodd" clip-rule="evenodd" d="M429.941 237.395C430.369 236.115 431.775 235.527 432.332 234.275C433.003 232.771 433.254 231.486 432.791 229.763C430.804 230.753 428.685 233.383 427.484 235.396C426.479 237.078 425.152 240.52 428.163 240.243C428.092 239.778 428.022 239.312 427.951 238.847C428.868 238.912 429.618 238.359 429.941 237.395Z" fill="#2D4710"/>
<path fill-rule="evenodd" clip-rule="evenodd" d="M418.178 217.901C419.55 218.213 420.641 218.047 422.003 217.952C422.991 217.884 424.398 218.377 425.13 217.602C424.377 217.199 425.27 217.088 425.051 216.646C424.868 216.278 424.599 216.429 424.343 216.142C423.427 215.116 422.722 215.196 421.413 215.089C420.399 215.005 418.893 214.732 417.989 215.391C417.037 216.084 416.786 217.585 418.178 217.901Z" fill="#2D4710"/>
<path fill-rule="evenodd" clip-rule="evenodd" d="M440.313 249.927C441.095 249.019 441.805 246.539 441.862 245.288C441.885 244.798 441.545 244.456 441.548 244.097C441.553 243.413 442.646 241.986 441.318 241.551C440.157 241.169 439.468 245.052 439.263 245.905C439.052 246.777 438.416 248.497 438.737 249.291C439.002 249.949 439.785 250.539 440.313 249.927Z" fill="#2D4710"/>
<path fill-rule="evenodd" clip-rule="evenodd" d="M445.747 197.738C446.447 196.837 446.851 195.852 446.662 194.722C446.513 193.832 445.635 190.799 444.984 190.952C442.823 191.462 444.557 199.272 445.747 197.738Z" fill="#2D4710"/>
<path fill-rule="evenodd" clip-rule="evenodd" d="M412.615 340.227C412.364 339.488 411.271 334.932 410.168 335.354C409.331 335.675 410.61 339.654 410.7 340.185C410.89 341.296 409.009 341.437 408.122 341.369C406.716 341.26 406.739 340.321 406.395 338.9C406.266 338.363 405.733 335.931 404.827 336.926C404.215 337.599 404.981 340.587 405.102 341.274C405.523 343.654 406.138 347.727 407.589 349.786C408.168 350.608 408.655 350.994 409.071 349.831C409.491 348.654 407.972 345.332 407.653 344.199C408.649 344.216 411.45 343.581 412.154 344.697C412.798 345.715 412.22 348.853 413.982 348.936C415.028 348.986 414.711 347.635 414.512 346.593C414.095 344.405 413.326 342.311 412.615 340.227Z" fill="#2D4710"/>
<path fill-rule="evenodd" clip-rule="evenodd" d="M415.156 338.908C414.07 339.607 416.32 348.084 417.964 347.648C419.883 347.138 416.19 338.242 415.156 338.908Z" fill="#2D4710"/>
<path fill-rule="evenodd" clip-rule="evenodd" d="M413.613 336.177C413.656 338.129 415.925 338.644 415.829 336.526C415.755 334.893 413.568 334.124 413.613 336.177Z" fill="#2D4710"/>
<path fill-rule="evenodd" clip-rule="evenodd" d="M396.661 285.905C398.072 290.098 407.389 291.055 405.609 285.389C404.717 282.552 402.385 285.369 400.554 285.202C399.369 285.095 395.667 282.949 396.661 285.905Z" fill="#2D4710"/>
<path fill-rule="evenodd" clip-rule="evenodd" d="M393.64 278.475C393.853 276.14 389.231 274.023 387.701 274.805C385.462 275.95 386.032 281.858 387.955 283.261C388.208 283.446 388.971 283.871 389.284 283.445C389.779 282.771 389.19 282.998 389.002 282.389C388.704 281.422 387.913 280.218 388.475 279.032C389.535 276.791 393.336 281.82 393.64 278.475Z" fill="#2D4710"/>
<path fill-rule="evenodd" clip-rule="evenodd" d="M381.334 290.877C379.744 290.925 378.715 293.857 381.017 293.401C381.458 293.314 382.403 293.095 382.61 292.535C382.953 291.607 382.033 290.856 381.334 290.877Z" fill="#2D4710"/>
<path fill-rule="evenodd" clip-rule="evenodd" d="M451.635 216.661C451.01 215.816 449.739 214.482 448.849 215.473C448.06 216.352 448.397 218.304 448.822 219.25C449.963 221.797 452.294 223.941 454.536 222.199C453.527 220.376 452.86 218.314 451.635 216.661Z" fill="#2D4710"/>
</g>
<defs>
<clipPath id="clip0_197_2106">
<rect width="262" height="259" fill="white" transform="translate(92.6035 53.0361) rotate(-11.6185)"/>
</clipPath>
<clipPath id="clip1_197_2106">
<rect width="446.928" height="383.89" fill="white" transform="translate(189 205.169) rotate(-5.41408)"/>
</clipPath>
</defs>
</svg>
