<?xml version="1.0" encoding="UTF-8" standalone="no"?><svg width="80" height="80" viewBox="0 0 80 80" fill="none" xmlns="http://www.w3.org/2000/svg">
<circle cx="40" cy="40" r="40" fill="#FDFDFC"/>
<circle cx="40" cy="40" r="39.5" stroke="#ACFFAD" stroke-opacity="0.2"/>
<path d="M47 25.031L46.344 25.75C44.875 27.367 43.664 28.09 42.656 28.563C41.648 29.035 40.801 29.176 39.969 29.813C39.082 30.493 37.793 31.797 37.25 34.125C36.086 34.379 35.234 34.825 34.562 35.406C33.898 35.98 33.398 36.633 32.782 37.344C32.777 37.352 32.785 37.367 32.782 37.375C31.898 38.391 31.125 39.485 29.625 40.063L29 40.313V51H48.063C49.156 50.941 49.914 50.184 50.375 49.437C50.835 48.691 51.09 47.883 51.219 47.219C51.551 45.527 52.156 40.656 52.156 40.656L52.188 40.563V40.469C52.156 39.793 51.878 39.219 51.531 38.687L52.656 35.344L54.438 32.656L54.938 31.937L54.281 31.344L47.719 25.656L47 25.031ZM47.063 27.781L52.281 32.313L50.906 34.343L50.813 34.438L50.781 34.594L49.875 37.281C49.402 37.086 48.915 36.949 48.375 36.969H48.312L42 37H41V40.875C40.86 41.965 40.254 42.387 39.5 42.688C39.25 42.789 39.219 42.734 39 42.781V36.97C38.836 33.263 40.156 32.196 41.188 31.407C41.473 31.188 42.308 30.935 43.5 30.376C44.496 29.907 45.734 29.067 47.063 27.782V27.781ZM37.063 36.375C37.059 36.602 36.988 36.762 37 37V45H38C38 45 39.07 44.988 40.219 44.531C41.367 44.074 42.754 43.004 43 41.125V39L48.375 38.969H48.406C48.845 38.945 49.2756 39.0958 49.6036 39.3886C49.9316 39.6813 50.1302 40.0921 50.156 40.531C50.152 40.547 50.106 40.918 50.094 41H46V43H49.844C49.738 43.773 49.641 44.258 49.531 45H46V47H49.219C49.1008 47.4838 48.9111 47.9473 48.656 48.375C48.383 48.82 48.148 48.988 47.938 49H31V41.531C32.621 40.671 33.629 39.434 34.281 38.688C34.957 37.914 35.421 37.328 35.875 36.938C36.172 36.684 36.637 36.539 37.063 36.375Z" fill="#4AAE3E"/>
</svg>
