<svg width="301" height="421" viewBox="0 0 301 421" fill="none" xmlns="http://www.w3.org/2000/svg">
<g filter="url(#filter0_d_481_3337)">
<rect x="4" width="293" height="413" rx="20" fill="#4D7520"/>
</g>
<path d="M135 95.6667C135 103.937 141.73 110.667 150 110.667C158.27 110.667 165 103.937 165 95.6667C165 87.3967 158.27 80.6667 150 80.6667C141.73 80.6667 135 87.3967 135 95.6667ZM176.667 144H180V140.667C180 127.803 169.53 117.333 156.667 117.333H143.333C130.467 117.333 120 127.803 120 140.667V144H176.667Z" fill="#FAFFFA"/>
<path d="M115.409 197.264C116.361 197.264 117.061 197.18 117.509 197.012C117.976 196.825 118.293 196.499 118.461 196.032C118.629 195.547 118.713 194.809 118.713 193.82V176.32H121.849V193.876C121.849 195.239 121.709 196.331 121.429 197.152C121.149 197.955 120.645 198.552 119.917 198.944C119.208 199.336 118.209 199.532 116.921 199.532H115.409V197.264ZM127.471 199.224C126.593 199.224 125.968 198.907 125.595 198.272C125.221 197.637 125.035 196.853 125.035 195.92V182.816H128.031V195.024C128.031 195.64 128.124 196.107 128.311 196.424C128.497 196.723 128.833 196.872 129.319 196.872C129.916 196.872 130.616 196.536 131.419 195.864V182.816H134.415V199H131.419V197.404C130.131 198.617 128.815 199.224 127.471 199.224ZM137.479 182.816H140.251V184.356C140.792 183.759 141.38 183.311 142.015 183.012C142.668 182.695 143.349 182.536 144.059 182.536C145.44 182.536 146.317 183.217 146.691 184.58C147.811 183.217 149.155 182.536 150.723 182.536C151.563 182.536 152.244 182.844 152.767 183.46C153.308 184.076 153.579 185.019 153.579 186.288V199H150.835V186.484C150.835 185.737 150.713 185.224 150.471 184.944C150.228 184.645 149.883 184.496 149.435 184.496C149.024 184.496 148.595 184.617 148.147 184.86C147.699 185.084 147.288 185.401 146.915 185.812V186.288V199H144.171V186.484C144.171 185.737 144.049 185.224 143.807 184.944C143.564 184.645 143.219 184.496 142.771 184.496C142.379 184.496 141.959 184.617 141.511 184.86C141.063 185.084 140.643 185.401 140.251 185.812V199H137.479V182.816ZM156.79 176.32H159.786V199H156.79V176.32ZM165.82 199.224C165.204 199.224 164.644 199.047 164.14 198.692C163.655 198.337 163.272 197.871 162.992 197.292C162.712 196.713 162.572 196.107 162.572 195.472C162.572 194.203 162.843 193.176 163.384 192.392C163.926 191.589 164.616 190.955 165.456 190.488C166.296 190.021 167.463 189.489 168.956 188.892V187.744C168.956 186.68 168.844 185.933 168.62 185.504C168.415 185.056 167.986 184.832 167.332 184.832C166.194 184.832 165.624 185.597 165.624 187.128V187.94L162.656 187.828C162.694 186.036 163.104 184.72 163.888 183.88C164.672 183.021 165.886 182.592 167.528 182.592C169.078 182.592 170.198 183.021 170.888 183.88C171.598 184.72 171.952 185.999 171.952 187.716V195.108C171.952 196.321 172.046 197.619 172.232 199H169.488C169.283 197.936 169.152 197.143 169.096 196.62C168.872 197.348 168.48 197.964 167.92 198.468C167.379 198.972 166.679 199.224 165.82 199.224ZM166.996 196.648C167.388 196.648 167.771 196.499 168.144 196.2C168.518 195.883 168.788 195.584 168.956 195.304V190.712C168.154 191.16 167.528 191.552 167.08 191.888C166.651 192.205 166.287 192.579 165.988 193.008C165.708 193.437 165.568 193.951 165.568 194.548C165.568 195.22 165.69 195.743 165.932 196.116C166.175 196.471 166.53 196.648 166.996 196.648ZM174.914 176.32H177.91V184.496C179.254 183.227 180.608 182.592 181.97 182.592C182.848 182.592 183.464 182.909 183.818 183.544C184.192 184.179 184.378 184.963 184.378 185.896V199H181.382V186.764C181.382 186.148 181.289 185.691 181.102 185.392C180.916 185.093 180.58 184.944 180.094 184.944C179.441 184.944 178.713 185.299 177.91 186.008V199H174.914V176.32ZM111.959 217.32H116.887C119.333 217.32 121.059 217.88 122.067 219C123.094 220.12 123.607 221.865 123.607 224.236V232.58C123.607 235.081 123.103 236.948 122.095 238.18C121.106 239.393 119.454 240 117.139 240H111.959V217.32ZM116.915 237.732C118.017 237.732 118.81 237.517 119.295 237.088C119.799 236.659 120.107 236.08 120.219 235.352C120.35 234.605 120.415 233.485 120.415 231.992V224.628C120.415 223.34 120.331 222.36 120.163 221.688C120.014 220.997 119.687 220.493 119.183 220.176C118.679 219.84 117.895 219.672 116.831 219.672H115.123V237.732H116.915ZM130.925 240.224C129.208 240.224 127.985 239.72 127.257 238.712C126.548 237.685 126.193 236.201 126.193 234.26V229.556C126.193 227.615 126.548 226.14 127.257 225.132C127.985 224.105 129.208 223.592 130.925 223.592C132.624 223.592 133.828 224.105 134.537 225.132C135.265 226.14 135.629 227.615 135.629 229.556V234.26C135.629 236.201 135.265 237.685 134.537 238.712C133.828 239.72 132.624 240.224 130.925 240.224ZM130.925 238.012C131.466 238.012 131.858 237.853 132.101 237.536C132.344 237.219 132.493 236.827 132.549 236.36C132.605 235.893 132.633 235.259 132.633 234.456V229.388C132.633 228.585 132.605 227.951 132.549 227.484C132.493 226.999 132.344 226.597 132.101 226.28C131.858 225.963 131.466 225.804 130.925 225.804C130.384 225.804 129.982 225.963 129.721 226.28C129.478 226.597 129.329 226.999 129.273 227.484C129.217 227.951 129.189 228.585 129.189 229.388V234.456C129.189 235.259 129.217 235.893 129.273 236.36C129.329 236.827 129.478 237.219 129.721 237.536C129.982 237.853 130.384 238.012 130.925 238.012ZM138.367 223.816H141.363V225.412C142.651 224.199 143.967 223.592 145.311 223.592C146.189 223.592 146.814 223.909 147.187 224.544C147.561 225.179 147.747 225.963 147.747 226.896V240H144.751V227.764C144.751 227.148 144.658 226.691 144.471 226.392C144.285 226.093 143.949 225.944 143.463 225.944C142.866 225.944 142.166 226.28 141.363 226.952V240H138.367V223.816ZM153.584 240.224C152.968 240.224 152.408 240.047 151.904 239.692C151.419 239.337 151.036 238.871 150.756 238.292C150.476 237.713 150.336 237.107 150.336 236.472C150.336 235.203 150.607 234.176 151.148 233.392C151.689 232.589 152.38 231.955 153.22 231.488C154.06 231.021 155.227 230.489 156.72 229.892V228.744C156.72 227.68 156.608 226.933 156.384 226.504C156.179 226.056 155.749 225.832 155.096 225.832C153.957 225.832 153.388 226.597 153.388 228.128V228.94L150.42 228.828C150.457 227.036 150.868 225.72 151.652 224.88C152.436 224.021 153.649 223.592 155.292 223.592C156.841 223.592 157.961 224.021 158.652 224.88C159.361 225.72 159.716 226.999 159.716 228.716V236.108C159.716 237.321 159.809 238.619 159.996 240H157.252C157.047 238.936 156.916 238.143 156.86 237.62C156.636 238.348 156.244 238.964 155.684 239.468C155.143 239.972 154.443 240.224 153.584 240.224ZM154.76 237.648C155.152 237.648 155.535 237.499 155.908 237.2C156.281 236.883 156.552 236.584 156.72 236.304V231.712C155.917 232.16 155.292 232.552 154.844 232.888C154.415 233.205 154.051 233.579 153.752 234.008C153.472 234.437 153.332 234.951 153.332 235.548C153.332 236.22 153.453 236.743 153.696 237.116C153.939 237.471 154.293 237.648 154.76 237.648ZM166.687 240.224C164.354 240.224 163.187 238.936 163.187 236.36V225.804H161.479V223.816H163.187V219.084H166.183V223.816H168.787V225.804H166.183V236.164C166.183 236.817 166.286 237.275 166.491 237.536C166.697 237.797 167.089 237.928 167.667 237.928C168.041 237.928 168.405 237.9 168.759 237.844V240.056C168.013 240.168 167.322 240.224 166.687 240.224ZM173.313 240.224C172.435 240.224 171.81 239.907 171.437 239.272C171.063 238.637 170.877 237.853 170.877 236.92V223.816H173.873V236.024C173.873 236.64 173.966 237.107 174.153 237.424C174.339 237.723 174.675 237.872 175.161 237.872C175.758 237.872 176.458 237.536 177.261 236.864V223.816H180.257V240H177.261V238.404C175.973 239.617 174.657 240.224 173.313 240.224ZM183.405 223.816H186.401V226.112C186.961 225.197 187.53 224.553 188.109 224.18C188.706 223.807 189.331 223.62 189.985 223.62C190.153 223.62 190.311 223.629 190.461 223.648V226.952C189.863 226.728 189.313 226.616 188.809 226.616C188.323 226.616 187.885 226.737 187.493 226.98C187.119 227.204 186.755 227.605 186.401 228.184V240H183.405V223.816Z" fill="#FAFFFA"/>
<path d="M128.48 360.216C126.576 360.216 125.208 359.68 124.376 358.608C123.56 357.52 123.152 355.952 123.152 353.904V346.536C123.152 344.52 123.568 342.992 124.4 341.952C125.232 340.912 126.592 340.392 128.48 340.392C130.368 340.392 131.72 340.92 132.536 341.976C133.368 343.016 133.784 344.536 133.784 346.536V353.928C133.784 355.944 133.368 357.496 132.536 358.584C131.704 359.672 130.352 360.216 128.48 360.216ZM128.48 358.08C129.488 358.08 130.168 357.784 130.52 357.192C130.872 356.6 131.048 355.704 131.048 354.504V345.984C131.048 344.8 130.872 343.928 130.52 343.368C130.168 342.792 129.488 342.504 128.48 342.504C127.456 342.504 126.768 342.792 126.416 343.368C126.064 343.928 125.888 344.8 125.888 345.984V354.504C125.888 355.704 126.064 356.6 126.416 357.192C126.768 357.784 127.456 358.08 128.48 358.08ZM136.306 346.128H138.874V348.096C139.354 347.312 139.842 346.76 140.338 346.44C140.85 346.12 141.386 345.96 141.946 345.96C142.09 345.96 142.226 345.968 142.354 345.984V348.816C141.842 348.624 141.37 348.528 140.938 348.528C140.522 348.528 140.146 348.632 139.81 348.84C139.49 349.032 139.178 349.376 138.874 349.872V360H136.306V346.128ZM146.44 360.192C145.912 360.192 145.432 360.04 145 359.736C144.584 359.432 144.256 359.032 144.016 358.536C143.776 358.04 143.656 357.52 143.656 356.976C143.656 355.888 143.888 355.008 144.352 354.336C144.816 353.648 145.408 353.104 146.128 352.704C146.848 352.304 147.848 351.848 149.128 351.336V350.352C149.128 349.44 149.032 348.8 148.84 348.432C148.664 348.048 148.296 347.856 147.736 347.856C146.76 347.856 146.272 348.512 146.272 349.824V350.52L143.728 350.424C143.76 348.888 144.112 347.76 144.784 347.04C145.456 346.304 146.496 345.936 147.904 345.936C149.232 345.936 150.192 346.304 150.784 347.04C151.392 347.76 151.696 348.856 151.696 350.328V356.664C151.696 357.704 151.776 358.816 151.936 360H149.584C149.408 359.088 149.296 358.408 149.248 357.96C149.056 358.584 148.72 359.112 148.24 359.544C147.776 359.976 147.176 360.192 146.44 360.192ZM147.448 357.984C147.784 357.984 148.112 357.856 148.432 357.6C148.752 357.328 148.984 357.072 149.128 356.832V352.896C148.44 353.28 147.904 353.616 147.52 353.904C147.152 354.176 146.84 354.496 146.584 354.864C146.344 355.232 146.224 355.672 146.224 356.184C146.224 356.76 146.328 357.208 146.536 357.528C146.744 357.832 147.048 357.984 147.448 357.984ZM154.163 346.128H156.731V347.496C157.835 346.456 158.963 345.936 160.115 345.936C160.867 345.936 161.403 346.208 161.723 346.752C162.043 347.296 162.203 347.968 162.203 348.768V360H159.635V349.512C159.635 348.984 159.555 348.592 159.395 348.336C159.235 348.08 158.947 347.952 158.531 347.952C158.019 347.952 157.419 348.24 156.731 348.816V360H154.163V346.128ZM168.31 364.296C166.966 364.296 165.894 364.08 165.094 363.648C164.294 363.232 163.894 362.576 163.894 361.68C163.894 361.072 164.078 360.544 164.446 360.096C164.83 359.648 165.31 359.288 165.886 359.016C165.454 358.888 165.118 358.688 164.878 358.416C164.654 358.144 164.542 357.848 164.542 357.528C164.542 357.048 164.662 356.632 164.902 356.28C165.142 355.928 165.534 355.504 166.078 355.008C165.534 354.592 165.126 354.072 164.854 353.448C164.598 352.808 164.47 351.952 164.47 350.88C164.47 349.264 164.798 348.04 165.454 347.208C166.126 346.36 167.102 345.936 168.382 345.936C169.118 345.936 169.718 346.064 170.182 346.32C170.646 346.576 170.998 346.96 171.238 347.472C171.35 347.296 171.582 347.064 171.934 346.776C172.302 346.472 172.694 346.224 173.11 346.032L173.494 345.864L174.142 347.52C173.822 347.584 173.374 347.72 172.798 347.928C172.238 348.136 171.902 348.296 171.79 348.408C171.902 348.696 171.998 349.096 172.078 349.608C172.174 350.12 172.222 350.568 172.222 350.952C172.222 352.472 171.926 353.656 171.334 354.504C170.742 355.336 169.758 355.752 168.382 355.752C167.95 355.752 167.51 355.696 167.062 355.584C166.758 356.032 166.606 356.384 166.606 356.64C166.606 356.816 166.694 356.96 166.87 357.072C167.062 357.168 167.358 357.232 167.758 357.264L169.918 357.456C171.006 357.552 171.814 357.88 172.342 358.44C172.87 359 173.134 359.8 173.134 360.84C173.134 363.144 171.526 364.296 168.31 364.296ZM168.382 353.952C169.07 353.952 169.518 353.712 169.726 353.232C169.934 352.752 170.038 351.968 170.038 350.88C170.038 349.776 169.934 348.976 169.726 348.48C169.518 347.968 169.078 347.712 168.406 347.712C167.734 347.712 167.278 347.968 167.038 348.48C166.814 348.976 166.702 349.776 166.702 350.88C166.702 351.872 166.814 352.632 167.038 353.16C167.278 353.688 167.726 353.952 168.382 353.952ZM168.502 362.28C169.414 362.28 170.086 362.168 170.518 361.944C170.95 361.736 171.166 361.392 171.166 360.912C171.166 360.464 171.03 360.136 170.758 359.928C170.486 359.704 169.99 359.56 169.27 359.496L167.086 359.304C166.75 359.64 166.494 359.936 166.318 360.192C166.142 360.448 166.054 360.728 166.054 361.032C166.054 361.464 166.23 361.776 166.582 361.968C166.95 362.176 167.59 362.28 168.502 362.28Z" fill="#FAFFFA"/>
<defs>
<filter id="filter0_d_481_3337" x="0" y="0" width="301" height="421" filterUnits="userSpaceOnUse" color-interpolation-filters="sRGB">
<feFlood flood-opacity="0" result="BackgroundImageFix"/>
<feColorMatrix in="SourceAlpha" type="matrix" values="0 0 0 0 0 0 0 0 0 0 0 0 0 0 0 0 0 0 127 0" result="hardAlpha"/>
<feOffset dy="4"/>
<feGaussianBlur stdDeviation="2"/>
<feComposite in2="hardAlpha" operator="out"/>
<feColorMatrix type="matrix" values="0 0 0 0 0.482353 0 0 0 0 0.380392 0 0 0 0 1 0 0 0 0.25 0"/>
<feBlend mode="normal" in2="BackgroundImageFix" result="effect1_dropShadow_481_3337"/>
<feBlend mode="normal" in="SourceGraphic" in2="effect1_dropShadow_481_3337" result="shape"/>
</filter>
</defs>
</svg>
