<?xml version="1.0" encoding="UTF-8" standalone="no"?><svg width="80" height="80" viewBox="0 0 80 80" fill="none" xmlns="http://www.w3.org/2000/svg">
<circle cx="40" cy="40" r="40" fill="#ACFFAD" fill-opacity="0.2"/>
<g clip-path="url(#clip0_419_3788)">
<path d="M54.1169 28.191C52.2986 27.2377 50.4789 26.875 48.6602 26.875C42.8866 26.8744 37.1134 30.5277 31.3398 30.5277C29.8919 30.5277 28.4448 30.298 26.9969 29.7238C26.8342 29.6594 26.6711 29.6289 26.5117 29.6289C25.705 29.6289 25 30.4094 25 31.4928V50.0822C25 50.8223 25.3389 51.5236 25.8831 51.8084C27.7014 52.7623 29.5211 53.125 31.3398 53.125C37.1134 53.125 42.887 49.4717 48.6606 49.4717C50.1086 49.4717 51.5556 49.7014 53.0036 50.2756C53.1662 50.34 53.3294 50.3705 53.4888 50.3705C54.2955 50.3705 55.0005 49.59 55.0005 48.5066V29.9178C55 29.1771 54.6611 28.4764 54.1169 28.191ZM27.25 32.7473C28.1931 33.0426 29.1775 33.1908 30.19 33.2705C29.9144 34.9926 28.7031 36.2904 27.25 36.2904V32.7473ZM27.25 49.4465V46.6469C28.8611 46.6469 30.1647 48.2447 30.2364 50.2445C29.1803 50.1385 28.1931 49.8748 27.25 49.4465ZM40 45.625C37.9286 45.625 36.25 43.1061 36.25 40C36.25 36.8934 37.9291 34.375 40 34.375C42.0709 34.375 43.75 36.8934 43.75 40C43.75 43.1072 42.0705 45.625 40 45.625ZM52.75 47.2527C51.9287 46.9955 51.0761 46.8514 50.2038 46.7582C50.4789 45.2301 51.4928 44.0699 52.75 43.8707V47.2527ZM52.75 33.4182C51.302 33.1891 50.1784 31.6779 50.1339 29.8117C51.0498 29.9389 51.9194 30.1768 52.75 30.5535V33.4182Z" fill="#2D4710"/>
</g>
<defs>
<clipPath id="clip0_419_3788">
<rect width="30" height="30" fill="white" transform="translate(25 25)"/>
</clipPath>
</defs>
</svg>
