<?xml version="1.0" encoding="UTF-8" standalone="no"?><svg width="244" height="266" viewBox="0 0 244 266" fill="none" xmlns="http://www.w3.org/2000/svg">
<path fill-rule="evenodd" clip-rule="evenodd" d="M227.563 104.919C224.938 110.253 222.165 115.445 219.365 120.682C217.883 123.454 213.103 134.921 211.868 135.359C210.538 135.831 202.395 130.853 200.057 129.878C195.904 128.144 191.957 126.504 187.619 125.435C182.76 124.238 177.864 123.356 172.825 123.801C170.618 123.996 166.965 124.551 169.158 121.328C170.757 118.978 172.306 116.814 174.478 115.116C176.059 113.88 178.376 111.613 180.226 110.787C182.168 109.921 185.032 110.113 187.119 110.164C189.375 110.219 200.128 113.707 200.719 110.072C201.816 111.109 202.455 110.708 203.712 111.214C205.128 111.785 206.011 112.894 207.418 113.563C208.33 113.998 210.013 115.715 211.027 115.726C212.376 115.74 212.739 114.579 213.707 113.722C215.877 111.802 218.766 110.538 221.12 108.87C223.193 107.4 225.167 105.868 227.563 104.919ZM203.939 62.7549C203.754 65.19 204.386 67.4527 204.371 69.9582C204.365 71.0516 204.317 72.1446 204.636 73.198C204.923 74.1423 204.723 75.8388 204.875 76.8275C202.192 75.9784 197.206 74.7191 194.467 75.8641C191.847 76.9589 191.518 82.021 191.426 84.4831C191.363 86.1611 192.079 88.7462 191.536 90.3528C191.283 91.1021 191.281 91.344 191.297 91.4114L191.299 91.4187C191.247 91.391 191.037 91.3915 190.295 91.9478C189.56 92.4987 188.682 92.8027 187.955 93.4111C186.634 94.5194 186.407 95.7752 185.755 97.3814C185.122 98.9413 183.434 100.328 181.55 100.271C183.065 97.4185 185.167 94.7542 183.961 91.4035C183.05 88.8746 184.646 85.9068 185.901 83.5045C186.317 82.7088 190.923 76.6132 188.882 76.1835C187.557 75.9042 184.514 82.3747 183.932 83.5045C182.308 82.3635 181.579 80.9573 182.829 79.2388C183.789 77.9191 184.967 76.7907 185.901 75.4243C187.418 73.2065 188.896 70.5595 190.697 68.5896C193.861 65.1307 199.383 62.776 203.939 62.7549ZM191.299 91.4187C191.316 91.4314 191.309 91.4435 191.301 91.4249L191.299 91.4187ZM246.455 58.9756C248.477 60.9888 251.034 62.6586 252.987 64.7713C254.697 66.6208 257 69.7318 257.812 72.2026C253.644 73.0378 246.718 75.5957 245.058 80.1429C238.575 73.9568 236.068 85.2662 234.781 89.9955C230.987 88.2889 231.744 82.6074 231.794 79.2902C231.833 76.6589 233.375 73.5443 229.699 73.3287C226.952 73.1682 224.285 74.331 221.807 75.4199C218.716 76.7786 215.473 78.8112 212.976 81.1457L210.375 79.0406C214.643 76.55 216.867 71.7881 219.365 67.4278C220.162 66.0377 221.226 64.4919 221.807 62.9893C222.209 61.9502 222.492 59.8529 222.933 58.929C223.626 57.4766 230.397 57.0767 232.191 56.7024C236.926 55.7144 242.586 55.1223 246.455 58.9756Z" fill="#4D7520"/>
<path fill-rule="evenodd" clip-rule="evenodd" d="M245.376 91.2538C247.125 91.1608 248.866 91.5669 250.616 91.3899C249.097 90.0149 247.579 88.6404 246.06 87.2658C245.389 88.4903 245.34 89.8833 245.376 91.2538ZM203.879 62.9906C199.352 63.0112 193.83 65.3749 190.685 68.827C189.019 70.6566 187.642 73.1133 186.233 75.1688C185.288 76.5479 184.365 77.8789 183.217 79.0908C181.544 80.8571 182.023 81.2609 183.908 82.591C184.505 81.4289 187.668 75.216 188.994 75.4954C191.008 75.9204 187.117 82.4832 186.693 83.3007C185.434 85.7197 183.402 89.0985 184.315 91.6496C185.52 95.0172 183.773 96.9366 182.256 99.8061C183.849 99.8542 184.006 99.2083 184.555 97.796C185.26 95.9808 186.029 94.4642 187.52 93.2092C188.675 92.2376 190.564 91.8283 191.106 90.655C191.777 89.2046 191.356 86.3405 191.411 84.7269C191.493 82.2752 191.499 76.4792 194.098 75.3899C196.822 74.2484 201.718 75.3243 204.38 76.1697C204.048 74.009 202.999 72.5976 203.014 70.1966C203.029 67.6834 203.695 65.441 203.879 62.9906ZM169.1 103.088C171.468 102.308 173.713 101.487 176.15 100.956C178.7 100.4 178.87 99.7639 180.307 97.491C181.397 95.7683 182.719 94.4252 182.41 92.3153C182.212 90.9618 181.499 90.3024 181.714 88.7805C181.846 87.8372 182.27 86.8072 182.576 85.9101C182.951 84.8096 183.729 83.5613 181.921 83.5069C180.922 83.4768 180.873 84.0244 180.198 84.9439C178.95 86.6423 177.515 88.1844 176.188 89.8132C173.883 92.6414 171.438 95.651 168.865 98.2685C166.033 101.149 163.588 104.623 161.757 108.31C161.419 108.991 159.363 113.002 160.24 113.789C161.046 114.511 165.526 112.827 166.343 112.629C169.869 111.779 173.871 111.475 177.202 109.93C178.9 109.142 182.645 108.203 183.986 106.984C185.232 105.852 185.176 103.109 184.453 101.512C182.429 102.821 167.795 107.76 169.1 103.088ZM213.155 80.5777C215.518 78.3591 218.312 76.5793 221.229 75.2605C223.839 74.0809 227.081 72.7661 229.984 72.9709C233.602 73.2256 232.09 76.2546 232.077 78.8339C232.06 82.2563 230.617 87.1868 234.549 88.9624C235.832 84.2234 238.537 73.0172 245.018 79.2269C246.674 74.6702 252.58 73.1281 256.74 72.2913C255.986 69.9891 253.696 67.9053 252.109 66.1772C250.123 64.0157 248.556 61.4822 246.567 59.3615C242.637 55.1736 235.518 56.5185 230.543 57.5624C228.882 57.9106 224.068 58.3481 223.264 59.6157C222.759 60.4108 223.041 62.3532 222.667 63.3252C222.152 64.6647 221.272 65.9063 220.565 67.1434C217.988 71.6574 215.367 76.2007 210.957 78.7854L213.155 80.5777ZM227.576 104.896C225.243 105.827 223.527 107.383 221.458 108.693C218.948 110.282 216.006 111.77 213.754 113.733C212.93 114.451 212.467 115.69 211.33 115.771C210.341 115.841 208.833 114.646 207.956 114.229C206.485 113.527 205.08 112.463 203.601 111.837C202.386 111.323 201.848 111.428 200.797 110.428C200.207 114.076 189.479 110.666 187.228 110.61C185.146 110.559 182.289 110.816 180.352 111.685C178.505 112.514 177.062 114.338 175.481 115.581C173.315 117.285 171.248 119.009 169.653 121.368C167.464 124.603 170.766 123.687 172.968 123.492C177.993 123.046 182.882 124.29 187.727 125.491C192.057 126.564 196.334 127.851 200.479 129.591C202.811 130.57 205.265 131.47 207.457 132.742C208.613 133.413 210.488 135.055 211.814 134.582C213.031 134.148 214.243 130.523 214.981 129.076C216.413 126.265 217.92 123.502 219.398 120.72C222.192 115.463 224.958 110.25 227.576 104.896ZM198.866 174.467C200.303 173.608 202.647 173.84 204.237 173.48C206.034 173.073 207.841 172.411 209.554 171.721C211.289 171.022 212.928 170.307 214.513 169.432C215.238 169.032 216.205 168.638 216.875 168.084C217.415 167.636 217.611 166.805 218.109 166.4C219.408 165.341 219.79 166.005 219.964 163.963C220.153 161.744 218.955 160.488 217.465 158.827C216.13 157.342 214.397 156.057 212.72 155.012C211.978 154.55 211.185 154.03 210.428 153.588C209.283 152.92 207.749 151.809 207.148 153.243C208.399 153.575 208.675 155.237 207.545 155.834C206.925 156.162 205.986 155.68 205.287 156.029C204.207 156.567 203.168 158.069 202.244 158.877C199.21 161.533 196.308 162.528 192.337 162.741C184.039 163.186 175.35 162.202 167.211 160.924C165.117 160.595 163.026 160.951 160.912 160.873C158.855 160.796 156.71 160.329 154.688 159.968C150.794 159.272 146.688 158.7 142.854 157.677C138.217 156.439 133.564 154.838 129.211 152.765C125.035 150.776 120.315 147.49 115.624 147.236C117.626 149.273 120.625 150.058 123.033 151.4C125.001 152.496 128.078 153.2 129.321 155.006C130.13 156.182 130.536 158.341 131.148 159.72C131.824 161.245 132.448 162.795 133.074 164.343C133.702 165.901 134.357 167.46 134.868 169.064C135.184 170.06 135.32 172.123 136.067 172.804C137.258 173.891 141.244 174.372 142.849 174.734C145.846 175.409 149.264 175.319 152.321 175.366C153.584 175.385 154.857 175.564 156.064 175.588C157.759 175.622 157.598 175.317 157.573 173.788C157.56 172.869 157.577 171.198 158.759 171.955C159.565 172.471 159.01 174.754 158.861 175.565C165.608 176.264 172.648 176.615 179.363 176.381C185.967 176.151 192.342 175.266 198.866 174.467ZM229.336 158.367C230.527 149.481 231.977 140.446 233.601 131.675C235.242 122.811 237.215 114.028 239.435 105.197C237.969 104.833 236.503 104.469 235.037 104.105C234.982 105.965 234.377 107.581 234.119 109.433C233.763 111.99 233.082 114.472 232.674 117.02C231.9 121.863 230.465 126.602 229.201 131.325C227.913 136.14 227.482 141.101 226.299 145.94C225.323 149.927 224.824 154.318 224.28 158.416C222.958 168.359 221.075 178.322 219.642 188.27C218.298 197.597 218.163 207.113 218.24 216.527C218.288 222.274 219.131 228.005 219.087 233.76C219.076 235.183 219.191 236.601 219.263 238.022C219.313 239.024 218.795 241.802 219.234 242.641C219.512 243.172 220.707 243.663 221.129 244.401C221.798 245.568 221.939 246.964 223.013 247.847C223.884 244.197 223.473 239.379 223.282 235.653C223.098 232.063 223.456 228.353 223.526 224.709C223.664 217.559 224.028 210.513 224.381 203.36C224.767 195.515 225.867 187.479 226.941 179.693C227.917 172.614 228.569 165.409 229.336 158.367ZM197.47 46.9236C196.998 46.8778 196.526 46.8324 196.054 46.7866C196.125 47.8206 195.915 49.4952 196.616 50.0347C197.147 50.4435 198.223 50.3092 198.867 50.4399C200.979 50.8689 203.425 51.2278 205.521 50.4462C206.336 50.1425 205.813 49.6668 206.934 49.8645C208.285 50.103 207.792 50.3254 208.182 51.2013C208.482 51.8774 208.637 53.0278 208.978 53.8395C209.435 54.9256 210.36 56.8693 209.964 58.1235C209.58 59.3426 208.145 59.711 207.536 61.0918C207.082 62.1182 207.19 63.6105 206.954 64.7411C206.64 66.2491 206.242 67.7512 206.067 69.287C205.846 71.2217 205.922 73.492 208.228 73.792C210.368 74.071 211.899 73.3559 213.334 71.7356C216.075 68.6424 219.205 64.2757 220.816 60.3848C221.004 59.9302 221.467 59.1715 221.402 58.685C221.275 57.7223 221.219 58.6967 220.925 58.0283C220.645 57.389 220.206 56.8091 219.947 56.0998C219.017 53.5515 218.358 50.8806 217.985 48.1831C217.816 46.9613 217.76 45.7543 217.789 44.5204C217.798 44.099 218.041 42.8341 217.896 42.5457C217.748 42.2532 216.977 42.1185 216.737 41.8283C216.291 41.2906 215.525 39.7723 215.032 39.3698C214.424 38.8753 213.066 39.267 212.819 38.2832C212.424 36.7088 221.764 34.1443 217.401 32.0434C214.143 30.4748 209.146 38.404 208.007 32.1646C207.809 31.0839 208.185 29.6168 207.729 28.6263C207.225 27.5316 205.853 27.1224 204.894 26.5896C203.671 25.9104 202.436 25.2124 201.248 24.4685C200.432 23.9587 199.258 22.6048 198.39 22.4808C198.731 24.3185 198.077 26.14 198.066 27.9741C199.945 27.4453 201.239 27.4341 203.094 28.3743C203.978 28.8217 207.306 31.361 205.62 32.5824C204.253 31.7428 202.792 31.0147 201.269 30.521C200.668 30.3261 199.918 30.061 199.279 30.0476C197.796 30.0166 198.004 30.1778 197.448 31.3404C196.911 32.4602 197.026 35.3809 195.848 36.096C194.629 36.8354 195.569 35.8005 194.528 36.0394C193.935 36.176 193.288 36.6346 192.744 36.8938C193.489 37.7338 194.992 38.5006 195.485 39.4336C196.206 40.7938 195.956 43.6071 196.068 45.0953C197.011 44.7445 198.004 44.7301 198.96 44.4696C199.858 44.2243 201.104 43.1629 201.198 44.7234C201.302 46.4622 198.658 46.9236 197.47 46.9236ZM209.742 92.7052C209.816 91.2026 209.896 89.7005 210.057 88.2042C210.166 87.1993 211.083 84.2849 210.565 83.4022C210.001 82.4423 208.11 82.3812 207.2 82.1508C205.455 81.7088 203.782 81.3467 202.009 81.0547C200.379 80.7865 198.842 80.7299 197.199 80.6522C195.41 80.5682 194.966 80.0746 194.571 82.1243C194.26 83.736 193.842 85.4147 193.785 87.065C193.73 88.6139 194.18 89.9583 192.703 91.0023C195.946 91.0023 200.169 88.0012 203.129 90.6847C207.361 94.5222 199.995 95.6277 198.053 96.4749C199.667 97.2906 202.065 97.9312 202.825 99.7945C203.678 101.883 202.44 102.771 200.546 102.938C200.724 103.743 201.406 104.266 201.609 105.234C201.906 106.653 200.941 106.183 202.173 107.281C203.794 108.726 207.131 109.692 209.119 110.613C209.585 110.829 210.056 111.032 210.533 111.222C211.278 111.911 211.827 111.78 212.183 110.828C213.203 110.157 214.11 108.66 215.015 107.789C217.028 105.851 219.25 104.15 221.642 102.751C220.65 102.324 219.464 103.289 218.513 102.819C217.744 102.44 218.033 101.749 217.573 101.232C217.757 100.558 217.562 100.311 216.988 100.493C216.701 100.524 216.434 100.474 216.186 100.341C215.705 99.7212 215.489 99.5182 215.457 98.561C215.423 97.5453 215.989 97.1869 216.206 96.3738C216.912 95.8738 216.896 95.3824 216.158 94.9009C215.855 94.3852 215.689 93.8259 215.662 93.2227C215.522 90.9825 217.489 90.0796 218.989 88.8946C216.303 88.5878 216.405 85.3131 218.264 83.8815C220.19 82.3974 224.269 83.0051 226.598 83.3398C227.083 83.409 228.391 84.0585 228.881 83.6444C229.182 83.3906 228.969 81.2447 228.983 80.8661C229.015 80.0063 229.216 78.9812 229.084 78.1259C228.808 76.335 229.393 77.237 228.152 77.1871C225.201 77.0681 221.442 79.7466 218.845 81.0093C215.938 82.423 214.07 82.6404 214.04 86.1451C214.011 89.4637 213.115 92.7703 212.724 96.036C212.554 97.4622 212.432 104.872 209.921 102.137C208.947 101.077 209.571 99.4459 209.643 98.1378C209.742 96.3379 209.683 94.5101 209.742 92.7052ZM47.3575 203.793C48.7945 204.058 51.135 203.201 52.7025 203.111C55.4438 202.954 58.2668 202.683 60.9523 202.09C63.0533 201.626 65.4475 201.218 66.5805 199.104C67.5934 197.214 67.9514 194.848 68.497 192.787C68.7866 191.692 69.5341 190.104 69.5341 188.972C69.5341 187.499 69.343 187.79 67.8658 186.984C65.9961 185.964 64.1769 184.543 62.1602 183.965C61.5502 183.841 60.9398 183.719 60.3289 183.6C59.5387 183.124 59.0925 183.358 58.9892 184.303C58.218 185.148 57.7658 186.706 57.1186 187.695C55.6431 189.949 53.891 191.485 51.6019 192.785C47.4828 195.124 43.6448 196.929 39.2331 198.458C36.8018 199.3 34.5598 200.483 32.1834 201.412C30.2795 202.156 27.6519 202.382 26.1894 204.039C24.5393 205.908 27.0757 206.588 28.4854 207.851C29.6406 208.887 29.6631 209.124 31.2431 208.622C32.4203 208.247 33.4639 207.531 34.5944 207.046C38.4666 205.383 43.1533 204.277 47.3575 203.793ZM135.853 233.441C134.41 233.116 132.967 232.791 131.524 232.468C132.943 235.222 135.928 239.251 133.786 242.439C132.985 243.63 131.653 243.969 130.463 244.574C129.023 245.305 127.694 246.241 126.333 247.113C120.719 250.706 115.014 254.349 109.099 257.432C110.951 258.053 113.798 258.483 115.705 257.942C117.926 257.311 119.982 255.864 122.262 255.231C126.352 254.096 130.657 253.13 134.813 252.548C138.209 252.072 146.712 253.147 146.299 247.837C145.907 242.796 143.01 237.986 142.148 233.002C140.033 233.49 138.014 233.405 135.853 233.441ZM221.873 152.751C223.518 144.359 224.501 135.824 226.441 127.493C227.409 123.336 228.091 119.123 229.036 114.965C229.476 113.031 229.809 111.078 230.237 109.147C230.671 107.193 231.605 105.389 231.819 103.368C230.247 103.773 229.883 107.515 229.407 108.923C228.533 111.506 227.579 113.987 226.456 116.46C224.671 120.391 222.777 124.183 220.762 127.993C218.639 132.013 216.396 135.878 213.743 139.549C212.871 140.755 211.688 141.7 211.126 143.023C210.243 145.104 209.871 147.584 209.027 149.75C209.622 150.064 211.157 150.142 211.886 150.291C213.242 150.569 214.191 150.816 215.493 151.487C217.787 152.667 219.715 154.066 221.247 156.19C221.632 155.1 221.733 153.905 221.873 152.751ZM157.937 216.779C157.909 208.697 157.799 200.546 157.927 192.524C157.962 190.296 158.136 187.893 158.447 185.682C158.642 184.293 159.79 181.34 159.036 180.673C158.391 180.104 154.986 180.479 154.15 180.459C152.529 180.42 150.914 180.345 149.29 180.218C149.29 183.213 150.416 186.615 150.939 189.577C151.426 192.341 151.827 195.121 152.23 197.897C153.101 203.91 153.349 210.005 154.294 216.034C155.151 221.5 156.282 226.944 156.905 232.409C157.247 235.409 157.939 238.24 158.477 241.238C158.758 242.802 159.782 249.242 161.072 249.875C161.345 247.565 160.231 244.775 160.031 242.439C159.825 240.028 159.666 237.6 159.29 235.175C158.848 232.329 158.625 229.413 158.455 226.531C158.352 224.768 158.32 223.011 158.174 221.249C158.068 219.97 157.602 218.033 157.937 216.779ZM198.456 108.704C198.51 107.824 196.318 107.86 195.91 106.848C195.082 104.794 196.969 105.164 198.13 104.951C197.716 103.809 189.969 104.225 191.774 101.141C193.026 99.0016 197.774 102.276 199.043 100.243C199.877 98.9077 197.607 98.724 196.707 98.5902C195.353 98.3885 192.162 99.0403 192.267 97.2133C192.399 94.9179 198.602 93.3336 200.342 92.6594C200.149 91.0876 192.683 93.3219 191.603 93.9589C189.158 95.4013 187.284 97.9887 186.925 100.864C186.507 104.211 188.139 106.846 191.355 107.667C192.695 108.009 193.686 108.047 194.926 108.562C195.743 108.9 198.384 109.744 198.943 108.89C198.781 108.828 198.619 108.766 198.456 108.704ZM242.285 87.8924C242.408 86.4635 243.565 83.7737 242.232 82.8349C240.366 81.521 239.593 83.6861 239.171 84.9866C238.654 86.5745 236.48 90.4614 238.381 91.451C238.823 91.681 240.918 91.4133 241.287 91.2615C242.316 91.5404 242.649 91.1397 242.285 90.0585V87.8924ZM196.752 203.283C196.635 199.378 198.317 194.683 199.27 190.858C200.351 186.524 200.92 182.104 202.065 177.818C200.791 177.977 199.506 178.108 198.248 178.373C196.531 178.736 196.5 178.679 196.624 180.429C196.808 183.058 196.566 185.635 196.436 188.263C196.174 193.525 196.812 198.873 196.388 204.101C196.766 204.201 196.887 203.928 196.752 203.283ZM244.284 100.933C248.409 101.589 252.362 102.948 256.115 104.775C258.184 105.781 260.463 106.863 262.775 107.265C265.344 107.712 268.068 107.502 270.691 107.675C271.616 107.735 274.047 108.203 274.949 107.637C275.842 107.077 275.772 106.128 275.814 104.996C275.922 102.086 274.655 99.2361 273.515 96.6249C272.538 94.3847 271.798 92.6742 270.281 90.7471C268.333 88.272 266.637 85.6011 264.813 83.0177C263.437 81.0704 262.047 79.151 260.645 77.206C259.642 75.8134 259.69 75.3341 258.178 75.49C256.689 75.6437 255.191 76.5582 253.789 77.0429C251.708 77.7625 249.188 78.1574 247.29 79.3078C246.063 80.0517 246.008 80.1887 246.022 81.4868C246.036 82.6961 246.411 84.1708 247.106 85.1168C248.552 87.0807 250.948 88.1202 253.005 89.0999C254.195 89.6663 255.223 90.47 256.282 91.2516C257.423 92.0943 259.725 92.5906 260.598 93.551C263.14 96.3482 258.513 95.7952 257.219 95.7108C254.429 95.5284 251.654 95.5563 248.843 95.554C245.775 95.5518 242.732 95.4035 239.707 95.5073C237.935 95.5679 235.903 94.634 234.755 93.0771C234.199 92.3229 233.983 91.61 233.256 90.8275C232.304 89.8029 231.475 88.7235 230.317 87.9306C228.421 86.6333 224.977 85.8993 222.72 86.3836C223.528 86.5008 227.328 87.8457 225.655 89.5361C225.452 89.7418 223.007 89.8766 222.476 90.1304C221.517 90.5881 220.308 91.2534 219.746 92.22C221.383 91.9348 227.457 91.6046 224.358 94.8708C223.598 95.6726 221.414 96.4726 223.272 97.3252C223.699 97.5211 224.553 97.2439 225.103 97.4204C225.919 97.6832 226.587 98.3862 227.352 98.7608C229.522 99.825 232.513 100.481 234.778 100.248C237.91 99.9252 241.173 100.506 244.284 100.933ZM161.234 199.347C161.341 204.039 161.178 208.759 161.274 213.472C161.377 218.506 161.999 223.439 162.295 228.422C162.561 232.888 163.141 237.269 163.612 241.714C163.883 244.274 164.196 246.722 164.612 249.263C165.003 251.64 165.069 253.735 162.335 254.375C157.107 255.597 156.295 247.779 155.284 244.486C153.776 239.569 152.809 234.409 152.062 229.312C150.67 219.821 148.821 210.462 148.099 200.891C147.654 194.997 147.01 189.163 146.644 183.274C146.572 182.12 146.855 180.342 145.88 179.828C145.294 179.52 143.679 179.517 142.939 179.293C140.877 178.67 138.975 177.752 136.963 176.799C138.391 184.56 138.862 192.283 139.934 200.112C140.502 204.266 141.589 208.571 142.532 212.66C143.508 216.897 143.725 221.459 144.852 225.604C145.348 227.431 145.768 228.175 145.048 230.05C144.165 232.352 144.751 232.902 145.859 235.163C147.897 239.321 149.453 244.229 149.107 248.918C148.825 252.747 146.042 254.751 142.594 255.784C138.282 257.076 133.766 256.923 129.427 258.39C125.647 259.668 121.806 260.613 118.136 262.3C116.655 262.98 115.249 263.787 113.605 263.912C111.351 264.082 109.831 262.723 107.702 262.439C106.372 262.263 104.423 262.922 103.657 261.472C103.049 260.323 103.737 257.815 104.5 256.889C106.643 254.289 110.934 252.023 113.824 250.489C117.155 248.72 120.378 246.506 123.464 244.224C125.335 242.84 127.243 241.512 129.112 240.126C130.348 239.208 130.818 239.202 130.692 237.745C130.591 236.582 130.087 235.455 129.999 234.264C129.932 233.353 130.239 232.11 129.824 231.514C129.52 231.076 128.375 230.766 127.925 230.434C126.279 229.221 125.905 227.72 125.158 225.876C123.46 221.685 121.509 217.613 119.87 213.389C116.35 204.32 114.202 194.784 111.284 185.53C108.303 176.076 105.638 166.151 103.996 156.342C101.799 157.037 99.7253 160.112 97.9757 161.634C95.6119 163.69 93.1901 165.679 90.872 167.791C87.0724 171.255 83.2253 174.623 80.0855 178.77C78.5728 180.768 77.3342 182.918 75.9647 185.016C75.1736 186.229 74.436 187.601 73.5792 188.755C73.4417 188.94 73.4378 189.32 73.2896 189.477C72.9632 189.824 72.3402 189.362 72.131 189.591C70.8401 190.994 70.8569 194.978 70.4545 196.83C69.9002 199.382 69.2777 202.316 67.3609 204.075C64.4 206.791 58.9395 207.212 55.1922 207.353C50.3832 207.534 45.7182 208.927 41.1556 210.423C39.0273 211.121 36.9548 211.937 34.8188 212.614C33.5901 213.005 32.1886 213.782 30.8765 213.633C29.2943 213.452 28.0449 212.068 26.8859 211.04C25.0317 209.394 23.315 207.772 23.3748 205.073C23.4417 202.215 24.931 200.058 27.2771 198.638C31.8129 195.894 36.8861 194.135 41.7751 192.238C43.6487 191.511 45.2526 190.706 47.0441 189.728C49.5752 188.344 52.489 187.215 54.7348 185.388C55.3971 184.849 57.8306 183.198 58.0381 182.346C58.0653 182.235 57.4571 180.935 57.4545 180.729C57.4484 180.198 57.7506 179.624 57.9365 179.17C59.1063 176.311 61.0686 173.558 62.5687 170.862C65.316 165.925 68.0737 160.961 71.259 156.317C77.6105 147.059 84.7453 137.994 92.4461 129.912C96.2002 125.972 99.4443 121.503 103.251 117.617C104.76 116.078 106.352 114.825 108.21 113.826C110.282 112.712 112.607 112.494 114.982 112.154C120.736 111.33 125.542 113.1 130.945 114.64C136.052 116.095 141.165 117.323 146.301 118.839C151.941 120.503 157.523 122.1 163.146 123.915C166.15 124.884 169.241 125.479 172.259 126.41C173.712 126.857 179.207 129.662 180.419 128.74C176.602 126.879 172.691 125.181 168.607 124.058C167.404 123.727 166.636 124.093 166.68 122.657C166.705 121.874 167.552 120.817 167.856 120.173C168.586 118.63 169.412 117.122 170.126 115.574C167.537 116.339 160.578 118.983 158.627 116.249C156.585 113.387 158.29 107.776 159.569 104.974C162.91 97.6594 168.591 91.5552 174.127 86.0413C175.325 84.8491 177.906 83.2922 178.544 81.7739C178.738 81.3121 178.316 80.6338 178.754 80.0341C179.014 79.6775 180.06 79.4336 180.478 79.049C182 77.6484 183.214 74.7012 184.266 72.8649C185.368 70.9419 186.36 68.8594 187.744 67.134C190.008 64.3126 192.346 61.3218 196.012 60.6619C197.81 60.3385 199.72 60.511 201.443 59.8655C203.528 59.0848 205.508 57.8549 207.612 57.0463C207.09 55.9305 206.667 54.1561 205.654 54.0344C204.679 53.9167 203.248 54.7882 202.132 54.7819C200.502 54.7725 199.11 54.5016 197.537 54.1786C195.796 53.8206 195.222 53.8857 194.587 51.9223C193.922 49.8654 194.089 47.4765 194.095 45.3401C194.098 44.2962 194.297 43.0003 194.211 41.9756C194.083 40.4317 193.794 40.3724 192.63 39.3905C191.175 38.1637 189.382 36.5403 191.164 34.4089C192.127 33.2571 194.105 34.1528 194.958 32.9153C195.827 31.6548 195.785 28.4884 196.049 27.0078C193.372 28.3761 194.354 23.261 194.353 22.0302C194.353 20.2393 193.198 17.0185 194.86 15.5285C195.633 14.8367 196.206 15.409 197.09 15.0115C198.097 14.5578 198.732 13.3679 199.804 12.9065C201.935 11.9893 204.111 13.0938 206.299 12.9115C208.808 12.7026 211.273 12.2992 213.797 12.7179C214.992 12.9155 215.496 13.3876 216.507 13.9168C217.48 14.4257 218.467 14.565 219.523 14.8924C220.464 15.184 221.288 15.3313 221.923 16.183C222.426 16.8568 222.221 17.9901 222.728 18.5709C223.228 19.1432 224.218 19.0601 224.814 19.7398C225.386 20.392 225.729 21.4701 226.026 22.2818C226.428 23.3751 226.475 23.7857 227.183 24.6608C227.8 25.4244 228.688 26.0385 229.203 26.9095C230.416 28.9627 230.447 31.932 230.06 34.2417C229.929 35.0283 228.832 37.0614 229.004 37.7307C229.167 38.3677 230.195 38.2001 230.661 38.603C231.063 38.9512 231.418 40.5023 231.735 40.597C232.421 40.8014 233.266 39.3941 233.786 39.183C234.688 38.816 235.066 38.4395 235.566 39.8226C235.937 40.849 235.421 42.242 235.149 43.2217C234.803 44.4687 234.421 45.9704 233.504 46.9132C232.427 48.0219 231.565 47.4159 230.376 48.0129C228.594 48.9077 229.12 51.7053 226.928 52.5049C224.839 53.2667 222.537 50.8698 220.957 49.7679C221.284 52.4429 222.516 55.0204 221.925 57.7619C226.73 55.8052 231.482 53.0282 236.718 52.4164C239.388 52.1042 242.085 51.7345 244.605 52.8867C247.555 54.2352 249.363 57.2098 251.36 59.6813C255.112 64.3265 258.963 68.8414 262.565 73.6362C265.869 78.0343 268.654 83.1305 272.291 87.2487C275.978 91.425 278.761 98.2007 278.357 103.984C278.321 104.506 277.931 105.692 277.992 106.254C278.04 106.686 278.417 107.232 278.411 107.58C278.391 108.75 278.018 109.424 276.945 110.073C275.085 111.199 272.313 111.769 270.211 112.049C267.418 112.42 263.997 112.46 261.202 112.063C258.32 111.654 255.787 109.977 253.136 108.964C250.811 108.074 248.476 107.519 246.033 106.952C244.686 106.638 243.194 105.772 242.361 106.611C241.597 107.381 241.438 111.336 241.26 112.388C239.327 123.786 237.03 134.798 234.996 146.138C232.69 158.991 231.114 171.839 229.51 184.802C228.053 196.585 227.576 208.501 227.251 220.274C227.095 225.889 227.072 231.444 227.105 237.065C227.124 240.212 228.637 250.717 224.149 251.119C221.512 251.356 219.402 247.426 218.695 245.282C217.633 242.061 217.08 238.593 216.911 235.21C216.568 228.36 216.119 221.506 215.853 214.654C215.565 207.23 215.931 199.67 216.518 192.27C217.109 184.822 218.598 177.482 219.055 170.022C217.685 172.054 217.246 172.436 214.965 173.321C212.577 174.248 210.28 175.344 207.871 176.207C207.051 176.501 205.772 176.685 205.1 177.167C203.86 178.054 204.675 177.047 204.279 178.775C203.856 180.62 203.777 182.836 203.664 184.733C203.136 193.634 200.764 202.471 199.67 211.325C199.406 213.463 199.783 222.538 196.244 219.678C193.518 217.475 193.572 210.557 193.184 207.316C192.668 202.997 192.955 198.556 193.037 194.21C193.13 189.261 193.21 184.07 194.346 179.237C192.313 178.876 189.486 179.861 187.44 180.027C185.668 180.17 183.903 180.261 182.141 180.362C177.94 180.602 173.613 180.793 169.34 180.707C168.563 180.691 163.482 179.952 162.833 180.548C162.622 180.742 162.557 183.405 162.518 183.73C162.368 184.953 162.165 186.176 162.014 187.393C161.532 191.282 161.096 195.459 161.234 199.347Z" fill="#2D4710"/>
<path fill-rule="evenodd" clip-rule="evenodd" d="M236.688 236.311C239.894 237.614 243.297 238.086 246.53 239.273C249.421 240.334 252.105 241.76 254.952 242.838C255.118 241.465 255.207 239.141 254.719 237.848C254.029 236.016 252.212 235.971 250.423 235.319C246.069 233.731 241.49 233.396 237.167 231.541C237.907 233.022 237.577 234.983 236.688 236.311ZM292.035 231.521C285.111 231.732 278.493 233.407 271.668 234.443C268.347 234.947 265.023 235.397 261.699 235.867C260.42 236.048 258.089 235.835 257.159 236.986C256.388 237.94 257.233 241.194 256.891 242.592C258.29 242.699 260.775 241.34 262.294 241.115C264.66 240.765 266.994 240.276 269.384 240.12C273.17 239.872 276.889 239.661 280.668 239.223C284.511 238.778 288.229 237.95 292.102 237.648C293.985 237.5 294.743 237.867 294.854 235.801C294.897 234.993 295.004 233.641 294.786 232.844C295.134 231.865 294.825 231.39 293.859 231.418C293.245 231.346 292.638 231.38 292.035 231.521ZM278.642 224.927C280.515 224.744 282.395 224.482 284.272 224.373C284.653 224.35 286.584 224.471 286.899 224.103C287.346 223.583 286.848 221.679 286.766 221.09C286.488 219.087 286.18 217.923 284.079 217.918C282.305 217.914 280.468 218.304 278.702 218.484C270.681 219.301 262.701 219.646 254.768 221.198C255.251 223.335 255.799 225.54 255.222 227.726C259.027 227.93 263.205 227.169 266.924 226.388C270.724 225.59 274.757 225.194 278.642 224.927ZM265.947 204.803C263.082 204.817 260.053 206.129 257.225 205.836C257.183 206.383 258.088 205.929 258.338 206.441C258.872 206.442 259.058 206.623 258.895 206.985C258.904 207.232 258.783 207.376 258.53 207.418C258.406 207.43 258.281 207.441 258.157 207.452C257.61 207.47 257.52 207.854 257.888 208.603C257.73 209.531 257.967 210.71 258.002 211.642C263.083 210.923 268.02 210.175 273.138 209.855C275.554 209.703 277.968 209.704 280.381 209.497C283.036 209.27 285.934 209.757 288.529 209.24C289.917 208.964 289.772 208.983 289.671 207.108C289.609 205.968 289.632 204.616 288.739 203.784C287.249 202.396 283.854 203.199 282.072 203.247C276.703 203.395 271.244 203.913 265.947 204.803ZM268.881 231.588C276.558 230.864 284.177 229.276 291.897 229.276C291.351 228.709 290.162 228.563 289.483 228.254C288.708 227.901 287.977 227.151 287.22 226.842C285.701 226.224 284.155 227.083 282.595 227.454C278.831 228.35 274.969 228.381 271.2 229.26C267.302 230.168 263.354 231.005 259.385 231.467C257.495 231.687 255.467 232.132 253.6 231.613C253.448 231.501 253.296 231.388 253.145 231.276C252.982 230.553 252.528 230.36 251.785 230.697C250.841 230.51 249.639 230.751 248.689 230.776C248.651 231.17 252.161 232.408 252.83 232.714C254.443 233.452 255.537 233.993 257.259 233.677C261.138 232.964 264.953 232.114 268.881 231.588ZM241.875 208.258C242.175 209.474 243.435 208.921 244.52 209.054C245.975 209.234 247.424 209.756 248.834 210.149C251.394 210.865 253.956 211.57 256.505 212.326C256.405 211.255 256.633 208.819 256.088 207.869C255.517 206.874 252.81 206.437 251.55 206.134C248.372 205.369 244.978 205.804 241.749 205.965C241.806 206.729 241.849 207.492 241.875 208.258ZM272.399 215.863C275.414 215.598 278.433 215.392 281.456 215.281C284.913 215.155 282.401 214.581 282.328 212.389C277.784 213.143 273.2 213.292 268.671 213.935C264.918 214.47 260.448 215.864 256.621 215.115C254.815 214.762 252.972 214.626 251.052 214.426C249.24 214.238 247.53 213.36 245.741 213.142C243.732 212.898 241.679 214.072 239.68 214.382C238.833 214.513 238.636 215.11 238.236 214.05C237.822 212.951 239.01 212.053 239.478 211.395C240.024 210.627 239.797 211.874 240.1 210.675C240.185 210.339 239.955 209.495 239.913 209.133C239.806 208.217 239.529 207.225 239.486 206.311C239.446 205.472 239.439 204.192 240.315 203.702C240.85 203.403 241.229 203.839 241.695 203.755C245.334 203.097 249.614 203.043 253.303 203.678C257.304 204.366 260.747 202.544 264.69 201.806C269.315 200.939 273.989 200.81 278.654 200.443C282.643 200.131 289.932 198.508 291.451 203.804C291.881 205.305 292.509 209.436 291.351 210.713C289.832 212.389 286.314 211.854 284.349 212.29C284.643 213.159 285.518 213.75 285.215 214.785C287.968 214.92 288.455 217.623 288.886 220.146C289.333 222.757 288.462 223.795 290.863 225.155C294.208 227.049 297.752 228.963 297.687 233.475C297.654 235.744 297.41 239.166 295.168 240.343C292.976 241.495 289.406 241.3 286.99 241.718C282.31 242.528 277.615 243.478 272.907 243.964C267.895 244.482 262.799 244.907 257.778 245.139C255.042 245.265 252.679 245.695 250.036 244.738C247.439 243.797 244.898 243.11 242.218 242.412C239.572 241.723 231.472 240.795 233.832 236.091C234.21 235.338 235.501 234.74 235.709 234.028C236.045 232.88 234.909 231.985 234.957 230.947C235.044 229.049 237.103 228.811 238.526 228.811C236.088 227.226 239.353 225.35 239.333 224.004C239.299 221.633 236.463 220.094 236.302 218.107C235.912 213.27 250.672 218.306 252.944 219.352C251.195 222.048 243.083 219.716 240.667 219.307C240.996 220.207 241.311 221.016 241.407 221.937C241.484 222.688 241.208 223.546 241.461 224.302C241.859 225.497 241.846 225.268 243.257 225.594C244.302 225.835 245.334 226.113 246.375 226.368C247.974 226.761 250.49 227.813 252.074 227.755C253.464 227.705 253.189 228.153 253.444 226.549C253.581 225.686 253.347 224.77 253.207 223.925C252.915 222.155 252.489 220.48 253.976 219.21C255.394 217.998 258.383 217.422 260.122 216.995C263.983 216.047 268.438 215.814 272.399 215.863Z" fill="#2D4710"/>
<path fill-rule="evenodd" clip-rule="evenodd" d="M290.769 185.65C286.577 184.92 282.317 184.74 278.075 184.961C278.305 186.053 278.535 187.143 278.765 188.234C282.739 187.17 286.771 186.547 290.769 185.65ZM256.678 194.114C254.996 193.986 256.166 194.768 256.581 195.912C257.091 197.317 256.982 199.094 257.099 200.573C262.019 198.623 267.743 197.482 272.973 196.826C275.453 196.515 277.97 196.426 280.464 196.293C281.201 196.253 283.864 196.574 284.404 196.059C284.804 195.675 284.523 193.56 284.138 193.093C282.045 190.556 273.952 192.747 271.024 192.974C266.224 193.347 261.511 194.238 256.678 194.114ZM263.665 187.316C268.02 187.751 272.227 187.71 276.583 188.388C276.253 185.51 276.647 184.776 273.506 184.623C270.707 184.487 267.917 184.377 265.13 184.378C258.865 184.382 252.614 184.258 246.342 184.258V187.183C252.143 186.565 257.852 187.68 263.665 187.316ZM242.718 198.073C245.467 198.06 248.065 199.139 250.815 199.418C252.46 199.585 251.943 199.798 253.085 200.656C254.863 201.994 255.375 201.281 255.152 199.464C254.397 193.315 246.907 194.693 242.591 194.352C242.874 195.818 242.222 197.062 241.262 198.073H242.718ZM272.433 190.178C268.478 190.244 264.52 190.478 260.593 190.393C258.836 190.354 256.559 189.993 254.836 190.304C253.574 190.532 252.519 191.2 251.135 191.448C253.168 192.587 254.198 191.818 256.336 191.558C258.471 191.3 260.638 191.305 262.782 191.17C266.304 190.949 270.057 190.072 273.526 190.31C273.589 189.802 273.225 189.758 272.433 190.178ZM241.07 203.496C239.256 203.492 241.752 201.347 242.08 201.134C240.071 201.134 239.585 199.882 240.167 197.87C240.715 195.975 241.121 196.555 239.741 194.977C238.703 193.789 238.546 192.914 239.77 191.585C241.016 190.234 243.539 190.616 244.642 189.501C246.522 187.602 244.097 183.82 246.701 182.366C248.461 181.383 251.298 181.505 253.241 181.297C255.12 181.097 257.064 181.058 258.955 181.031C263.076 180.973 267.358 181.691 271.461 182.086C272.957 182.23 274.639 182.859 276.113 182.86C277.616 182.862 279.191 182.513 280.743 182.553C282.547 182.601 284.285 182.462 286.146 182.77C287.571 183.006 290.9 183.13 291.989 184.232C295.62 187.903 287.01 189.589 285.529 190.001C287.037 191.718 286.974 193.988 286.746 196.149C287.464 196.149 288.701 195.824 289.073 196.661C289.534 197.7 287.827 197.97 287.423 198.091C285.1 198.788 282.381 198.597 279.987 198.851C275.201 199.357 270.473 199.649 265.736 200.591C263.428 201.051 261.134 201.619 258.827 202.066C258.429 202.144 258.029 202.206 257.627 202.252C257.009 202.197 256.81 202.6 257.027 203.462C256.387 203.787 254 202.977 253.262 202.853C249.036 202.141 245.256 202.437 241.07 203.496Z" fill="#2D4710"/>
<path fill-rule="evenodd" clip-rule="evenodd" d="M181.844 77.0479C181.5 77.6431 181.156 78.2384 180.812 78.8345C180.93 78.0669 181.192 77.4091 181.844 77.0479Z" fill="#2D4710"/>
<path fill-rule="evenodd" clip-rule="evenodd" d="M161.412 209.613C161.398 209.017 161.384 208.422 161.37 207.827C161.384 208.423 161.398 209.018 161.412 209.613Z" fill="#2D4710"/>
<path fill-rule="evenodd" clip-rule="evenodd" d="M180.125 180.491C180.585 180.492 181.044 180.492 181.5 180.493C181.04 180.493 180.582 180.492 180.125 180.491Z" fill="#2D4710"/>
<path fill-rule="evenodd" clip-rule="evenodd" d="M241.656 52.1499C241.083 52.193 240.51 52.2357 239.938 52.2788C240.511 52.2357 241.083 52.193 241.656 52.1499Z" fill="#2D4710"/>
<path fill-rule="evenodd" clip-rule="evenodd" d="M227.073 226.764C227.055 226.287 227.038 225.81 227.021 225.335C227.038 225.813 227.055 226.289 227.073 226.764Z" fill="#2D4710"/>
<path fill-rule="evenodd" clip-rule="evenodd" d="M227.753 208.542C227.741 208.065 227.728 207.588 227.716 207.112C227.729 207.589 227.741 208.065 227.753 208.542Z" fill="#2D4710"/>
<path fill-rule="evenodd" clip-rule="evenodd" d="M216.022 216.76C216.039 217.237 216.056 217.714 216.072 218.189C216.055 217.711 216.039 217.236 216.022 216.76Z" fill="#2D4710"/>
<path fill-rule="evenodd" clip-rule="evenodd" d="M182.875 180.141C183.22 180.136 183.565 180.132 183.906 180.127C183.56 180.132 183.218 180.136 182.875 180.141Z" fill="#2D4710"/>
<path fill-rule="evenodd" clip-rule="evenodd" d="M216.705 228.194C216.725 228.671 216.744 229.148 216.764 229.624C216.744 229.145 216.725 228.669 216.705 228.194Z" fill="#2D4710"/>
<path fill-rule="evenodd" clip-rule="evenodd" d="M213.931 12.7832C213.445 12.7189 212.959 12.6552 212.473 12.5909C212.955 12.7066 213.483 12.2774 213.931 12.7832Z" fill="#2D4710"/>
<path fill-rule="evenodd" clip-rule="evenodd" d="M193.035 196.035C193.022 196.512 193.009 196.989 192.996 197.464C193.009 196.986 193.022 196.511 193.035 196.035Z" fill="#2D4710"/>
<path fill-rule="evenodd" clip-rule="evenodd" d="M163.489 239.628C163.465 239.151 163.441 238.675 163.418 238.199C163.442 238.675 163.465 239.152 163.489 239.628Z" fill="#2D4710"/>
<path fill-rule="evenodd" clip-rule="evenodd" d="M157.95 112.78C157.952 113.257 157.955 113.735 157.957 114.209C157.954 113.732 157.952 113.256 157.95 112.78Z" fill="#2D4710"/>
<path fill-rule="evenodd" clip-rule="evenodd" d="M150.737 219.976C150.736 220.453 150.734 220.93 150.732 221.405C150.733 220.927 150.735 220.451 150.737 219.976Z" fill="#2D4710"/>
<path fill-rule="evenodd" clip-rule="evenodd" d="M236.412 217.117C236.399 217.594 236.387 218.071 236.374 218.546C236.186 218.056 236.207 217.581 236.412 217.117Z" fill="#2D4710"/>
<path fill-rule="evenodd" clip-rule="evenodd" d="M227.396 214.974C227.393 214.496 227.389 214.019 227.385 213.543C227.389 214.022 227.393 214.497 227.396 214.974Z" fill="#2D4710"/>
<path fill-rule="evenodd" clip-rule="evenodd" d="M142.849 215.33C142.835 214.973 142.821 214.615 142.807 214.258C142.822 214.616 142.835 214.974 142.849 215.33Z" fill="#2D4710"/>
<path fill-rule="evenodd" clip-rule="evenodd" d="M242.688 203.627C242.234 203.849 241.775 203.879 241.312 203.643C241.771 203.638 242.229 203.633 242.688 203.627Z" fill="#2D4710"/>
<path fill-rule="evenodd" clip-rule="evenodd" d="M148.342 201.752C148.333 202.11 148.324 202.468 148.315 202.824C148.323 202.465 148.332 202.108 148.342 201.752Z" fill="#2D4710"/>
<path fill-rule="evenodd" clip-rule="evenodd" d="M227.364 221.047C227.382 220.689 227.4 220.331 227.417 219.976C227.4 220.334 227.382 220.691 227.364 221.047Z" fill="#2D4710"/>
<path fill-rule="evenodd" clip-rule="evenodd" d="M161.405 199.251C161.396 198.893 161.386 198.535 161.376 198.179C161.386 198.538 161.396 198.895 161.405 199.251Z" fill="#2D4710"/>
<path fill-rule="evenodd" clip-rule="evenodd" d="M218.838 171.737C218.81 172.095 218.783 172.453 218.756 172.809C218.784 172.451 218.811 172.094 218.838 171.737Z" fill="#2D4710"/>
<path fill-rule="evenodd" clip-rule="evenodd" d="M227.077 232.125C227.057 231.767 227.037 231.409 227.016 231.053C227.037 231.411 227.057 231.768 227.077 232.125Z" fill="#2D4710"/>
<path fill-rule="evenodd" clip-rule="evenodd" d="M227.069 234.983C227.054 234.625 227.039 234.268 227.025 233.911C227.04 234.269 227.055 234.626 227.069 234.983Z" fill="#2D4710"/>
<path fill-rule="evenodd" clip-rule="evenodd" d="M162.071 187.816C162.076 187.459 162.081 187.1 162.086 186.745C162.08 187.103 162.076 187.46 162.071 187.816Z" fill="#2D4710"/>
<path fill-rule="evenodd" clip-rule="evenodd" d="M149.044 247.846C149.025 247.488 149.006 247.13 148.988 246.774C149.007 247.132 149.025 247.489 149.044 247.846Z" fill="#2D4710"/>
<path fill-rule="evenodd" clip-rule="evenodd" d="M223.438 250.876C223.668 250.881 223.898 250.885 224.125 250.891C223.894 250.886 223.666 250.881 223.438 250.876Z" fill="#2D4710"/>
<path fill-rule="evenodd" clip-rule="evenodd" d="M223.581 220.333C223.6 219.261 223.619 218.189 223.638 217.117C223.619 218.19 223.6 219.261 223.581 220.333Z" fill="#2D4710"/>
<path fill-rule="evenodd" clip-rule="evenodd" d="M196.779 181.028C196.791 181.862 196.802 182.696 196.815 183.529C196.803 182.694 196.791 181.861 196.779 181.028Z" fill="#2D4710"/>
<path fill-rule="evenodd" clip-rule="evenodd" d="M137.5 233.364C136.926 233.371 136.352 233.378 135.781 233.386C136.357 233.379 136.928 233.371 137.5 233.364Z" fill="#2D4710"/>
<path fill-rule="evenodd" clip-rule="evenodd" d="M184.594 162.282C184.019 162.273 183.445 162.263 182.875 162.255C183.451 162.264 184.023 162.273 184.594 162.282Z" fill="#2D4710"/>
<path fill-rule="evenodd" clip-rule="evenodd" d="M169.812 176.204C170.386 176.204 170.959 176.203 171.531 176.203C170.958 176.203 170.385 176.204 169.812 176.204Z" fill="#2D4710"/>
<path fill-rule="evenodd" clip-rule="evenodd" d="M177.375 161.899C176.915 161.907 176.456 161.916 176 161.923C176.461 161.915 176.918 161.907 177.375 161.899Z" fill="#2D4710"/>
<path fill-rule="evenodd" clip-rule="evenodd" d="M140.25 233.378C139.79 233.376 139.331 233.373 138.875 233.371C139.336 233.373 139.793 233.376 140.25 233.378Z" fill="#2D4710"/>
<path fill-rule="evenodd" clip-rule="evenodd" d="M202.125 50.8472C202.698 50.8057 203.271 50.7646 203.844 50.7231C203.271 50.7646 202.698 50.8057 202.125 50.8472Z" fill="#2D4710"/>
<path fill-rule="evenodd" clip-rule="evenodd" d="M209.827 92.7705C209.849 92.1748 209.87 91.5791 209.891 90.9839C209.87 91.5801 209.849 92.1753 209.827 92.7705Z" fill="#2D4710"/>
<path fill-rule="evenodd" clip-rule="evenodd" d="M166.719 160.833C166.374 160.837 166.029 160.841 165.688 160.845C166.034 160.841 166.376 160.837 166.719 160.833Z" fill="#2D4710"/>
<path fill-rule="evenodd" clip-rule="evenodd" d="M158.812 175.431C159.271 175.469 159.729 175.508 160.188 175.546C159.729 175.508 159.271 175.469 158.812 175.431Z" fill="#2D4710"/>
<path fill-rule="evenodd" clip-rule="evenodd" d="M157.942 193.533C157.95 193.056 157.957 192.58 157.964 192.104C157.957 192.581 157.95 193.057 157.942 193.533Z" fill="#2D4710"/>
<path fill-rule="evenodd" clip-rule="evenodd" d="M197.312 174.487C197.771 174.44 198.229 174.394 198.688 174.348C198.229 174.394 197.771 174.44 197.312 174.487Z" fill="#2D4710"/>
<path fill-rule="evenodd" clip-rule="evenodd" d="M228.725 166.02C228.752 165.544 228.779 165.067 228.807 164.592C228.779 165.069 228.752 165.545 228.725 166.02Z" fill="#2D4710"/>
<path fill-rule="evenodd" clip-rule="evenodd" d="M234.781 100.15C235.24 100.113 235.698 100.076 236.156 100.04C235.698 100.076 235.24 100.113 234.781 100.15Z" fill="#2D4710"/>
<path fill-rule="evenodd" clip-rule="evenodd" d="M188.031 162.631C187.687 162.627 187.341 162.624 187 162.621C187.346 162.624 187.689 162.627 188.031 162.631Z" fill="#2D4710"/>
<path fill-rule="evenodd" clip-rule="evenodd" d="M157.978 220.333C157.961 219.975 157.944 219.617 157.928 219.261C157.944 219.619 157.961 219.976 157.978 220.333Z" fill="#2D4710"/>
<path fill-rule="evenodd" clip-rule="evenodd" d="M196.519 202.109C197.271 204.046 196.849 202.675 196.868 203.122C196.228 203.211 196.111 202.874 196.519 202.109Z" fill="#2D4710"/>
<path fill-rule="evenodd" clip-rule="evenodd" d="M165 160.858C164.655 160.846 164.31 160.833 163.969 160.82C164.316 160.833 164.657 160.845 165 160.858Z" fill="#2D4710"/>
<path fill-rule="evenodd" clip-rule="evenodd" d="M235.265 124.572C235.286 124.095 235.308 123.618 235.329 123.142C235.308 123.619 235.286 124.096 235.265 124.572Z" fill="#2D4710"/>
<path fill-rule="evenodd" clip-rule="evenodd" d="M157.955 216.76C157.954 216.283 157.952 215.806 157.951 215.33C157.952 215.808 157.954 216.284 157.955 216.76Z" fill="#2D4710"/>
<path fill-rule="evenodd" clip-rule="evenodd" d="M157.917 206.04C157.941 205.682 157.965 205.324 157.989 204.968C157.965 205.326 157.941 205.683 157.917 206.04Z" fill="#2D4710"/>
<path fill-rule="evenodd" clip-rule="evenodd" d="M229.405 159.231C229.437 158.873 229.469 158.516 229.501 158.159C229.469 158.517 229.437 158.874 229.405 159.231Z" fill="#2D4710"/>
<path fill-rule="evenodd" clip-rule="evenodd" d="M153.438 207.112C153.469 207.47 153.5 207.828 153.531 208.184C153.5 207.826 153.469 207.469 153.438 207.112Z" fill="#2D4710"/>
<path fill-rule="evenodd" clip-rule="evenodd" d="M152.746 204.253C152.78 204.611 152.814 204.969 152.848 205.325C152.814 204.967 152.78 204.61 152.746 204.253Z" fill="#2D4710"/>
<path fill-rule="evenodd" clip-rule="evenodd" d="M221.508 155.301C221.534 154.944 221.56 154.586 221.585 154.229C221.559 154.587 221.534 154.944 221.508 155.301Z" fill="#2D4710"/>
<path fill-rule="evenodd" clip-rule="evenodd" d="M46.0625 203.773C46.5205 203.736 46.979 203.699 47.4375 203.662C46.978 203.699 46.52 203.736 46.0625 203.773Z" fill="#2D4710"/>
<path fill-rule="evenodd" clip-rule="evenodd" d="M218.473 212.472C218.459 212.83 218.446 213.188 218.433 213.543C218.447 213.185 218.46 212.829 218.473 212.472Z" fill="#2D4710"/>
<path fill-rule="evenodd" clip-rule="evenodd" d="M223.915 213.543C223.94 213.186 223.966 212.829 223.991 212.472C223.966 212.83 223.94 213.187 223.915 213.543Z" fill="#2D4710"/>
<path fill-rule="evenodd" clip-rule="evenodd" d="M221.836 153.872C221.873 153.514 221.909 153.157 221.945 152.8C221.909 153.158 221.873 153.515 221.836 153.872Z" fill="#2D4710"/>
<path fill-rule="evenodd" clip-rule="evenodd" d="M48.8125 203.43C49.271 203.383 49.7295 203.337 50.1875 203.29C49.7295 203.337 49.2705 203.383 48.8125 203.43Z" fill="#2D4710"/>
<path fill-rule="evenodd" clip-rule="evenodd" d="M194.562 162.265C194.332 162.267 194.102 162.27 193.875 162.273C194.106 162.27 194.334 162.267 194.562 162.265Z" fill="#2D4710"/>
<path fill-rule="evenodd" clip-rule="evenodd" d="M157.955 202.824C157.954 202.466 157.952 202.108 157.951 201.752C157.952 202.111 157.954 202.467 157.955 202.824Z" fill="#2D4710"/>
<path fill-rule="evenodd" clip-rule="evenodd" d="M224.667 202.109C224.546 201.74 224.486 201.376 224.721 201.038C224.703 201.395 224.685 201.752 224.667 202.109Z" fill="#2D4710"/>
<path fill-rule="evenodd" clip-rule="evenodd" d="M218.812 195.321C218.802 195.678 218.792 196.036 218.782 196.393C218.792 196.034 218.802 195.677 218.812 195.321Z" fill="#2D4710"/>
<path fill-rule="evenodd" clip-rule="evenodd" d="M219.109 230.695C219.13 231.052 219.152 231.411 219.173 231.767C219.152 231.409 219.13 231.052 219.109 230.695Z" fill="#2D4710"/>
<path fill-rule="evenodd" clip-rule="evenodd" d="M243.031 100.767C243.492 100.795 243.999 100.566 244.406 100.902L243.031 100.767Z" fill="#2D4710"/>
<path fill-rule="evenodd" clip-rule="evenodd" d="M184.25 176.208C184.708 176.206 185.167 176.203 185.625 176.201C185.167 176.203 184.708 176.206 184.25 176.208Z" fill="#2D4710"/>
<path fill-rule="evenodd" clip-rule="evenodd" d="M194.562 100.391L195.938 100.514C195.479 100.473 195.021 100.432 194.562 100.391Z" fill="#2D4710"/>
<path fill-rule="evenodd" clip-rule="evenodd" d="M171.875 176.11C172.334 176.112 172.792 176.115 173.25 176.117C172.79 176.347 172.331 176.37 171.875 176.11Z" fill="#2D4710"/>
<path fill-rule="evenodd" clip-rule="evenodd" d="M159.368 236.054C159.341 235.696 159.315 235.339 159.289 234.983C159.315 235.341 159.341 235.697 159.368 236.054Z" fill="#2D4710"/>
<path fill-rule="evenodd" clip-rule="evenodd" d="M209.508 100.989C209.513 100.631 209.518 100.273 209.524 99.916C209.518 100.275 209.513 100.632 209.508 100.989Z" fill="#2D4710"/>
<path fill-rule="evenodd" clip-rule="evenodd" d="M180.469 176.261C180.927 176.223 181.386 176.185 181.844 176.146C181.385 176.185 180.927 176.223 180.469 176.261Z" fill="#2D4710"/>
<path fill-rule="evenodd" clip-rule="evenodd" d="M219.473 239.271C219.48 239.628 219.488 239.986 219.496 240.343C219.488 239.984 219.48 239.627 219.473 239.271Z" fill="#2D4710"/>
<path fill-rule="evenodd" clip-rule="evenodd" d="M220.688 91.9443C221.146 91.8991 221.604 91.8538 222.062 91.8086C221.604 91.8538 221.146 91.8991 220.688 91.9443Z" fill="#2D4710"/>
<path fill-rule="evenodd" clip-rule="evenodd" d="M226.656 183.171C226.688 182.814 226.719 182.456 226.75 182.1C226.719 182.458 226.687 182.814 226.656 183.171Z" fill="#2D4710"/>
<path fill-rule="evenodd" clip-rule="evenodd" d="M242.476 87.7681C242.503 87.4102 242.529 87.0528 242.555 86.6963C242.529 87.0541 242.502 87.4111 242.476 87.7681Z" fill="#2D4710"/>
<path fill-rule="evenodd" clip-rule="evenodd" d="M209.849 57.0391C209.856 57.3963 209.862 57.7539 209.869 58.1099C209.862 57.7518 209.856 57.3954 209.849 57.0391Z" fill="#2D4710"/>
<path fill-rule="evenodd" clip-rule="evenodd" d="M197.656 50.3682C198.115 50.408 198.573 50.4483 199.031 50.4878C198.573 50.4479 198.115 50.408 197.656 50.3682Z" fill="#2D4710"/>
<path fill-rule="evenodd" clip-rule="evenodd" d="M128.906 253.454C129.365 253.407 129.823 253.361 130.281 253.314C129.823 253.361 129.365 253.408 128.906 253.454Z" fill="#2D4710"/>
<path fill-rule="evenodd" clip-rule="evenodd" d="M198.344 46.8552C198.114 46.8549 197.883 46.8545 197.656 46.8545C197.887 46.8552 198.116 46.8552 198.344 46.8552Z" fill="#2D4710"/>
<path fill-rule="evenodd" clip-rule="evenodd" d="M113.781 258.108C114.24 257.863 114.698 257.933 115.156 258.109C114.698 258.109 114.239 258.108 113.781 258.108Z" fill="#2D4710"/>
<path fill-rule="evenodd" clip-rule="evenodd" d="M241.807 207.112C241.821 207.469 241.835 207.827 241.849 208.184C241.835 207.826 241.821 207.468 241.807 207.112Z" fill="#2D4710"/>
<path fill-rule="evenodd" clip-rule="evenodd" d="M243.031 198.081C243.603 197.844 244.176 197.89 244.75 198.074C244.177 198.076 243.604 198.078 243.031 198.081Z" fill="#2D4710"/>
<path fill-rule="evenodd" clip-rule="evenodd" d="M146.781 167.477C147.153 165.898 147.052 164.662 148.378 165.671C149.105 166.225 150.305 169.035 150.214 169.986C150.102 171.16 149.587 171.628 148.524 171.255C147.302 170.824 146.818 168.658 146.781 167.477Z" fill="#2D4710"/>
<path fill-rule="evenodd" clip-rule="evenodd" d="M213.754 157.89C216.833 157.89 215.489 161.296 212.923 161.372C211.744 161.408 210.048 161.166 210.43 159.525C210.634 158.649 213.625 157.469 213.754 157.89Z" fill="#2D4710"/>
<path fill-rule="evenodd" clip-rule="evenodd" d="M180.735 164.592C182.957 165.709 179.831 170.617 177.811 169.402C175.225 167.847 179.821 165.292 180.735 164.592Z" fill="#2D4710"/>
<path fill-rule="evenodd" clip-rule="evenodd" d="M175.328 169.237C176.055 170.061 179.333 172.857 177.526 173.981C175.304 175.364 173.613 170.8 175.328 169.237Z" fill="#2D4710"/>
<path fill-rule="evenodd" clip-rule="evenodd" d="M138.077 167.092C137.354 165.639 138.349 161.836 140.556 162.531C142.778 163.231 139.299 166.706 138.077 167.092Z" fill="#2D4710"/>
<path fill-rule="evenodd" clip-rule="evenodd" d="M187.117 167.93C188.558 167.327 188.284 169.112 188.502 169.687C188.749 170.341 190.018 171.934 189.699 172.63C189.227 173.663 188.098 173.004 187.485 172.334C186.409 171.158 186.486 169.273 187.117 167.93Z" fill="#2D4710"/>
<path fill-rule="evenodd" clip-rule="evenodd" d="M165.151 169.584C163.95 169.584 161.082 165.983 162.767 165.379C164.859 164.63 166.607 169.849 165.151 169.584Z" fill="#2D4710"/>
<path fill-rule="evenodd" clip-rule="evenodd" d="M206.665 163.876C207.766 164.159 209.222 167.397 207.564 167.773C205.728 168.189 205.4 164.772 206.665 163.876Z" fill="#2D4710"/>
<path fill-rule="evenodd" clip-rule="evenodd" d="M199.995 169.951C199.132 168.224 198.919 164.526 201.026 167.494C201.483 168.137 201.954 167.877 201.719 168.937C201.514 169.863 200.697 169.951 199.995 169.951Z" fill="#2D4710"/>
<path fill-rule="evenodd" clip-rule="evenodd" d="M154.545 161.018C155.424 162.394 155.165 166.708 153.327 164.157C152.545 163.072 153.084 161.07 154.545 161.018Z" fill="#2D4710"/>
<path fill-rule="evenodd" clip-rule="evenodd" d="M198.752 31.346C200.458 30.8881 200.868 35.07 199.873 35.531C198.479 36.1761 198.654 32.0455 198.752 31.346Z" fill="#2D4710"/>
</svg>
