<?xml version="1.0" encoding="UTF-8" standalone="no"?><svg width="240" height="89" viewBox="0 0 240 89" fill="none" xmlns="http://www.w3.org/2000/svg">
<path d="M54.02 49.234C51.9573 49.234 50.4753 48.6533 49.574 47.492C48.69 46.3133 48.248 44.6147 48.248 42.396V34.414C48.248 32.23 48.6987 30.5747 49.6 29.448C50.5013 28.3213 51.9747 27.758 54.02 27.758C56.0653 27.758 57.53 28.33 58.414 29.474C59.3153 30.6007 59.766 32.2473 59.766 34.414V42.422C59.766 44.606 59.3153 46.2873 58.414 47.466C57.5127 48.6447 56.048 49.234 54.02 49.234ZM54.02 46.92C55.112 46.92 55.8487 46.5993 56.23 45.958C56.6113 45.3167 56.802 44.346 56.802 43.046V33.816C56.802 32.5333 56.6113 31.5887 56.23 30.982C55.8487 30.358 55.112 30.046 54.02 30.046C52.9107 30.046 52.1653 30.358 51.784 30.982C51.4027 31.5887 51.212 32.5333 51.212 33.816V43.046C51.212 44.346 51.4027 45.3167 51.784 45.958C52.1653 46.5993 52.9107 46.92 54.02 46.92ZM62.2896 40.108H68.0876V42.214H62.2896V40.108ZM75.9731 49.234C74.2051 49.234 72.8531 48.688 71.9171 47.596C70.9985 46.504 70.4871 45.0047 70.3831 43.098L72.9831 42.396C73.0698 43.748 73.3298 44.84 73.7631 45.672C74.2138 46.504 74.9505 46.92 75.9731 46.92C76.7358 46.92 77.3078 46.712 77.6891 46.296C78.0878 45.8627 78.2871 45.2473 78.2871 44.45C78.2871 43.5833 78.1051 42.864 77.7411 42.292C77.3771 41.72 76.7965 41.0873 75.9991 40.394L72.4631 37.274C71.7525 36.65 71.2325 35.9827 70.9031 35.272C70.5911 34.544 70.4351 33.66 70.4351 32.62C70.4351 31.0773 70.8771 29.8813 71.7611 29.032C72.6451 28.1827 73.8498 27.758 75.3751 27.758C77.0391 27.758 78.2958 28.2 79.1451 29.084C79.9945 29.968 80.5058 31.3373 80.6791 33.192L78.1831 33.868C78.0965 32.6373 77.8538 31.6927 77.4551 31.034C77.0738 30.358 76.3805 30.02 75.3751 30.02C74.6298 30.02 74.0578 30.2193 73.6591 30.618C73.2605 30.9993 73.0611 31.5713 73.0611 32.334C73.0611 32.958 73.1651 33.4867 73.3731 33.92C73.5811 34.336 73.9365 34.7607 74.4391 35.194L78.0011 38.314C78.9198 39.1287 79.6478 40.0127 80.1851 40.966C80.7398 41.9193 81.0171 43.0027 81.0171 44.216C81.0171 45.7587 80.5491 46.9807 79.6131 47.882C78.6771 48.7833 77.4638 49.234 75.9731 49.234ZM83.1402 27.94H85.9222V35.532C87.1702 34.3533 88.4269 33.764 89.6922 33.764C90.5069 33.764 91.0789 34.0587 91.4082 34.648C91.7549 35.2373 91.9282 35.9653 91.9282 36.832V49H89.1462V37.638C89.1462 37.066 89.0595 36.6413 88.8862 36.364C88.7129 36.0867 88.4009 35.948 87.9502 35.948C87.3435 35.948 86.6675 36.2773 85.9222 36.936V49H83.1402V27.94ZM97.3443 49.208C96.7723 49.208 96.2523 49.0433 95.7843 48.714C95.3337 48.3847 94.9783 47.9513 94.7183 47.414C94.4583 46.8767 94.3283 46.3133 94.3283 45.724C94.3283 44.5453 94.5797 43.592 95.0823 42.864C95.585 42.1187 96.2263 41.5293 97.0063 41.096C97.7863 40.6627 98.8697 40.1687 100.256 39.614V38.548C100.256 37.56 100.152 36.8667 99.9443 36.468C99.7537 36.052 99.355 35.844 98.7483 35.844C97.691 35.844 97.1623 36.5547 97.1623 37.976V38.73L94.4063 38.626C94.441 36.962 94.8223 35.74 95.5503 34.96C96.2783 34.1627 97.405 33.764 98.9303 33.764C100.369 33.764 101.409 34.1627 102.05 34.96C102.709 35.74 103.038 36.9273 103.038 38.522V45.386C103.038 46.5127 103.125 47.7173 103.298 49H100.75C100.56 48.012 100.438 47.2753 100.386 46.79C100.178 47.466 99.8143 48.038 99.2943 48.506C98.7917 48.974 98.1417 49.208 97.3443 49.208ZM98.4363 46.816C98.8003 46.816 99.1557 46.6773 99.5023 46.4C99.849 46.1053 100.1 45.828 100.256 45.568V41.304C99.511 41.72 98.9303 42.084 98.5143 42.396C98.1157 42.6907 97.7777 43.0373 97.5003 43.436C97.2403 43.8347 97.1103 44.3113 97.1103 44.866C97.1103 45.49 97.223 45.9753 97.4483 46.322C97.6737 46.6513 98.003 46.816 98.4363 46.816ZM105.789 33.972H108.571V36.104C109.091 35.2547 109.619 34.6567 110.157 34.31C110.711 33.9633 111.292 33.79 111.899 33.79C112.055 33.79 112.202 33.7987 112.341 33.816V36.884C111.786 36.676 111.275 36.572 110.807 36.572C110.356 36.572 109.949 36.6847 109.585 36.91C109.238 37.118 108.9 37.4907 108.571 38.028V49H105.789V33.972ZM118.224 49.208C117.063 49.208 116.161 48.9913 115.52 48.558C114.879 48.1073 114.428 47.4487 114.168 46.582C113.908 45.7153 113.778 44.5887 113.778 43.202V39.77C113.778 37.69 114.099 36.1733 114.74 35.22C115.399 34.2493 116.56 33.764 118.224 33.764C119.437 33.764 120.347 34.0153 120.954 34.518C121.578 35.0207 121.985 35.7313 122.176 36.65C122.384 37.5513 122.488 38.7733 122.488 40.316V41.538H116.56V44.554C116.56 45.4727 116.69 46.14 116.95 46.556C117.227 46.9547 117.661 47.154 118.25 47.154C118.839 47.154 119.238 46.9547 119.446 46.556C119.654 46.14 119.758 45.516 119.758 44.684V43.774H122.462V44.346C122.462 45.9233 122.124 47.128 121.448 47.96C120.772 48.792 119.697 49.208 118.224 49.208ZM119.758 40.03V38.678C119.758 37.6553 119.654 36.9273 119.446 36.494C119.255 36.0433 118.839 35.818 118.198 35.818C117.747 35.818 117.401 35.922 117.158 36.13C116.933 36.338 116.777 36.6847 116.69 37.17C116.603 37.638 116.56 38.3227 116.56 39.224V40.03H119.758Z" fill="#2D4710"/>
<g clip-path="url(#clip0_412_3507)">
<path d="M13.9989 14.347V24.2202C13.9989 28.4296 16.7733 32.2514 20.6239 32.2514C24.4744 32.2514 27.2489 28.4297 27.2489 24.2202V19.7514H38.1239C38.4139 19.7514 38.9989 20.1289 38.9989 21.0952V25.7827C38.9989 26.749 38.4139 27.1264 38.1239 27.1264H37.4989H36.4989V28.1264V34.3764C36.4989 35.7724 35.6327 36.5014 34.9989 36.5014H33.7489H32.7489V37.5014C32.7489 40.6162 30.7577 42.7514 28.7489 42.7514H18.077H17.7538L17.4918 42.9406L9.41511 48.7696C9.41488 48.7697 9.41464 48.7699 9.41441 48.7701C9.07415 49.0144 8.72712 49.0474 8.41796 48.9442C8.09606 48.8368 7.73743 48.5516 7.49324 48.0209L7.49267 48.0197L1.24268 34.4845L1.24143 34.4819C0.715533 33.3518 1.08786 31.9836 1.8326 31.4481L1.83416 31.447L8.08416 26.9353L8.49885 26.6359V26.1245V21.5053C8.49885 19.5723 9.317 17.8562 10.5259 16.9558L10.5291 16.9533L13.9989 14.347ZM42.5045 1.98193L42.505 1.98315L48.7545 15.5171C49.2755 16.6495 48.9104 18.0117 48.1619 18.557C48.1615 18.5573 48.1611 18.5576 48.1608 18.5579L43.4989 21.9232V21.0952C43.4989 17.7451 41.2869 14.6264 38.1239 14.6264H23.7489H22.7489V15.6264V24.2202C22.7489 26.0459 21.6014 27.1264 20.6239 27.1264C19.6463 27.1264 18.4989 26.0459 18.4989 24.2202V11.8862C18.4989 11.0572 18.8397 10.3723 19.2815 10.0316L19.2857 10.0283L21.899 7.99023C21.8996 7.98979 21.9002 7.98935 21.9007 7.98891C22.5404 7.49559 23.2427 7.25143 23.9364 7.25143H31.9207H32.2439L32.5059 7.0623L40.5826 1.23329C40.5828 1.23316 40.583 1.23303 40.5831 1.23291C40.9234 0.988458 41.2705 0.955449 41.5798 1.05864C41.9016 1.16607 42.2603 1.45121 42.5045 1.98193Z" stroke="#2D4710" stroke-width="2"/>
</g>
<path d="M1.13379 74.5361L0.922852 74.5625C0.864258 74.5625 0.834961 74.5449 0.834961 74.5098C0.834961 74.3457 0.931641 73.9854 1.125 73.4287C1.31836 72.8662 1.54102 72.4531 1.79297 72.1895C2.64258 71.3164 3.59766 70.8799 4.6582 70.8799C5.71875 70.8799 6.57129 71.2139 7.21582 71.8818C7.86035 72.5439 8.18262 73.3789 8.18262 74.3867C8.18262 75.3887 7.53223 76.4961 6.23145 77.709C5.82129 78.0957 5.47852 78.4062 5.20312 78.6406C4.85156 78.9395 4.23047 79.5225 3.33984 80.3896C2.45508 81.251 2.0127 81.7256 2.0127 81.8135H6.96094C7.38867 81.8135 7.69043 81.6934 7.86621 81.4531C7.97168 81.3125 8.10645 80.9404 8.27051 80.3369H8.60449L8.22656 82.71C8.19727 82.8447 8.12988 82.9414 8.02441 83H0.711914C0.682617 83 0.667969 82.9238 0.667969 82.7715C0.667969 82.625 0.802734 82.3965 1.07227 82.0859C1.34766 81.7754 1.69629 81.4092 2.11816 80.9873C2.5459 80.5596 3.12598 79.9766 3.8584 79.2383C5.72168 77.3457 6.65332 75.8311 6.65332 74.6943C6.65332 73.9971 6.39844 73.3672 5.88867 72.8047C5.38477 72.2363 4.7959 71.9521 4.12207 71.9521C3.4541 71.9521 2.85645 72.1777 2.3291 72.6289C1.81348 73.0801 1.46484 73.6631 1.2832 74.3779C1.25977 74.4834 1.20996 74.5361 1.13379 74.5361ZM9.89648 76.9092C9.89648 75.4619 10.3008 74.0967 11.1094 72.8135C11.918 71.5244 12.8174 70.8799 13.8076 70.8799C14.5869 70.8799 15.2842 71.1787 15.8994 71.7764C16.5205 72.3682 16.9893 73.1445 17.3057 74.1055C17.6221 75.0664 17.7803 76.0713 17.7803 77.1201C17.7803 78.7197 17.4199 80.1201 16.6992 81.3213C16.2246 82.1182 15.6445 82.6777 14.959 83C14.6074 83.1582 14.2441 83.2373 13.8691 83.2373C13.1602 83.2373 12.501 82.9502 11.8916 82.376C11.2822 81.7959 10.7959 81.0781 10.4326 80.2227C10.0752 79.3613 9.89648 78.5293 9.89648 77.7266V76.9092ZM13.8955 82.7188C15.5361 82.7188 16.3564 81.0166 16.3564 77.6123C16.3564 76.1885 16.3271 75.2305 16.2686 74.7383C16.1455 73.707 15.9141 72.9219 15.5742 72.3828C15.1523 71.7266 14.5459 71.3984 13.7549 71.3984C12.2666 71.3984 11.4609 72.9014 11.3379 75.9072C11.3203 76.3408 11.3115 76.8623 11.3115 77.4717C11.3115 79.0713 11.4844 80.3105 11.8301 81.1895C12.2344 82.209 12.9229 82.7188 13.8955 82.7188ZM19.5908 74.5361L19.3799 74.5625C19.3213 74.5625 19.292 74.5449 19.292 74.5098C19.292 74.3457 19.3887 73.9854 19.582 73.4287C19.7754 72.8662 19.998 72.4531 20.25 72.1895C21.0996 71.3164 22.0547 70.8799 23.1152 70.8799C24.1758 70.8799 25.0283 71.2139 25.6729 71.8818C26.3174 72.5439 26.6396 73.3789 26.6396 74.3867C26.6396 75.3887 25.9893 76.4961 24.6885 77.709C24.2783 78.0957 23.9355 78.4062 23.6602 78.6406C23.3086 78.9395 22.6875 79.5225 21.7969 80.3896C20.9121 81.251 20.4697 81.7256 20.4697 81.8135H25.418C25.8457 81.8135 26.1475 81.6934 26.3232 81.4531C26.4287 81.3125 26.5635 80.9404 26.7275 80.3369H27.0615L26.6836 82.71C26.6543 82.8447 26.5869 82.9414 26.4814 83H19.1689C19.1396 83 19.125 82.9238 19.125 82.7715C19.125 82.625 19.2598 82.3965 19.5293 82.0859C19.8047 81.7754 20.1533 81.4092 20.5752 80.9873C21.0029 80.5596 21.583 79.9766 22.3154 79.2383C24.1787 77.3457 25.1104 75.8311 25.1104 74.6943C25.1104 73.9971 24.8555 73.3672 24.3457 72.8047C23.8418 72.2363 23.2529 71.9521 22.5791 71.9521C21.9111 71.9521 21.3135 72.1777 20.7861 72.6289C20.2705 73.0801 19.9219 73.6631 19.7402 74.3779C19.7168 74.4834 19.667 74.5361 19.5908 74.5361ZM29.5312 73.9561C29.4902 73.9561 29.4316 73.8799 29.3555 73.7275C29.3555 73.71 29.4609 73.6338 29.6719 73.499C29.8828 73.3584 30.3018 73.0098 30.9287 72.4531C31.5557 71.8965 32.0742 71.3721 32.4844 70.8799H32.9766C33.0527 70.8799 33.0996 70.8916 33.1172 70.915C33.1348 70.9385 33.1436 70.9824 33.1436 71.0469V81.7695C33.1436 82.1387 33.1816 82.3467 33.2578 82.3936C33.5449 82.5635 34.1279 82.6484 35.0068 82.6484C35.0537 82.6484 35.0771 82.6719 35.0771 82.7188V82.9297C35.0771 82.9766 35.0537 83 35.0068 83H29.7158C29.6689 83 29.6455 82.9766 29.6455 82.9297V82.7188C29.6455 82.6719 29.6689 82.6484 29.7158 82.6484C30.0088 82.6309 30.2637 82.6191 30.4805 82.6133C30.6973 82.6016 30.9258 82.584 31.166 82.5605C31.4062 82.5371 31.5732 82.499 31.667 82.4463C31.7666 82.3936 31.8252 82.3145 31.8428 82.209C31.8604 82.1035 31.8691 81.9658 31.8691 81.7959V72.4355C31.875 72.4238 31.8105 72.4707 31.6758 72.5762C30.9141 73.1855 30.2168 73.6426 29.584 73.9473L29.5312 73.9561Z" fill="#20330B"/>
<path d="M74.2676 82.2441C73.7578 82.5547 73.2012 82.7979 72.5977 82.9736C71.9941 83.1494 71.458 83.2373 70.9893 83.2373C70.0283 83.2373 69.1113 83.082 68.2383 82.7715C67.043 82.3379 66.082 81.6963 65.3555 80.8467C64.4297 79.7627 63.9668 78.3887 63.9668 76.7246C63.9668 75.5234 64.2744 74.4307 64.8896 73.4463C65.5049 72.4561 66.3545 71.6738 67.4385 71.0996C68.5283 70.5254 69.6973 70.2383 70.9453 70.2383C72.1992 70.2383 73.3213 70.5166 74.3115 71.0732C75.3018 71.6299 76.0957 72.3945 76.6934 73.3672C77.291 74.3398 77.5898 75.3945 77.5898 76.5312C77.5898 77.6621 77.2939 78.7402 76.7021 79.7656C76.1104 80.7852 75.2988 81.6113 74.2676 82.2441ZM65.8125 76.4434C65.8125 77.416 66.0264 78.3828 66.4541 79.3438C66.8877 80.2988 67.5059 81.0781 68.3086 81.6816C69.1113 82.2852 70.04 82.5869 71.0947 82.5869C72.5947 82.5869 73.7637 82.0127 74.6016 80.8643C75.3574 79.8271 75.7354 78.5029 75.7354 76.8916C75.7354 75.2803 75.2725 73.8916 74.3467 72.7256C73.8955 72.1572 73.3418 71.7031 72.6855 71.3633C72.0352 71.0176 71.376 70.8447 70.708 70.8447C70.0459 70.8447 69.501 70.918 69.0732 71.0645C68.6514 71.2109 68.2676 71.4131 67.9219 71.6709C67.5762 71.9229 67.2715 72.2246 67.0078 72.5762C66.7441 72.9277 66.5244 73.3086 66.3486 73.7188C65.9912 74.5625 65.8125 75.4707 65.8125 76.4434ZM85.834 77.9199V79.124H79.3037V77.9199H85.834ZM94.0078 70.7129C94.0664 70.7129 94.0957 70.7773 94.0957 70.9062L94.3242 72.7783C94.3477 72.8955 94.3594 72.9717 94.3594 73.0068C94.3594 73.0361 94.3125 73.0508 94.2188 73.0508C94.1309 73.0508 94.0752 73.0391 94.0518 73.0156C94.0283 72.9922 94.0049 72.9541 93.9814 72.9014C93.958 72.8428 93.9287 72.7783 93.8936 72.708C93.8643 72.6377 93.832 72.5674 93.7969 72.4971C93.6738 72.2275 93.4805 71.9609 93.2168 71.6973C92.5723 71.0762 91.8457 70.7656 91.0371 70.7656C90.5508 70.7656 90.0908 70.9238 89.6572 71.2402C89.2236 71.5566 89.0068 71.9316 89.0068 72.3652C89.0068 72.793 89.0859 73.165 89.2441 73.4814C89.4082 73.7979 89.6221 74.0908 89.8857 74.3604C90.1494 74.6299 90.4512 74.8877 90.791 75.1338C91.1309 75.3799 91.4766 75.6289 91.8281 75.8809C92.7598 76.5312 93.4219 77.0879 93.8145 77.5508C94.4297 78.2656 94.7637 79.0684 94.8164 79.959C94.8164 80.9551 94.4326 81.752 93.665 82.3496C92.9033 82.9414 92.0156 83.2373 91.002 83.2373C90.3516 83.2373 89.833 83.1699 89.4463 83.0352C89.0654 82.9062 88.8018 82.8125 88.6553 82.7539C88.5088 82.6953 88.4004 82.666 88.3301 82.666C88.2656 82.666 88.2246 82.6689 88.207 82.6748L87.7764 82.7627C87.7002 82.7627 87.6533 82.7012 87.6357 82.5781C87.4658 81.125 87.3809 80.3545 87.3809 80.2666C87.3809 80.1729 87.3867 80.1113 87.3984 80.082C87.416 80.0469 87.457 80.0293 87.5215 80.0293C87.6855 80.0293 87.835 80.2637 87.9697 80.7324C88.585 82.0508 89.6074 82.71 91.0371 82.71C91.6934 82.71 92.2529 82.5107 92.7158 82.1123C93.1846 81.7139 93.4189 81.1953 93.4189 80.5566C93.4189 79.5371 92.8096 78.5879 91.5908 77.709C91.2451 77.4629 90.7471 77.1201 90.0967 76.6807C89.4463 76.2412 88.9277 75.8018 88.541 75.3623C87.9375 74.6826 87.6357 73.9268 87.6357 73.0947C87.6357 72.2568 87.9668 71.5713 88.6289 71.0381C89.2969 70.5049 90.0615 70.2383 90.9229 70.2383C91.3682 70.2383 91.8574 70.3145 92.3906 70.4668C92.9297 70.6191 93.3047 70.7217 93.5156 70.7744L94.0078 70.7129ZM98.6045 76.1973C98.6045 76.3379 98.625 76.4082 98.666 76.4082C98.707 76.4082 98.7363 76.3994 98.7539 76.3818C98.7715 76.3584 98.8945 76.2207 99.123 75.9688C99.7852 75.2305 100.456 74.8613 101.136 74.8613C102.026 74.8613 102.68 75.0605 103.096 75.459C103.605 75.9629 103.86 76.8096 103.86 77.999V81.6641C103.86 82.2383 104.177 82.5723 104.81 82.666C105.085 82.7012 105.223 82.7627 105.223 82.8506C105.223 82.9385 105.193 82.9883 105.135 83H101.215C101.156 82.9883 101.127 82.9473 101.127 82.877C101.127 82.7715 101.265 82.7012 101.54 82.666C102.173 82.5723 102.489 82.2383 102.489 81.6641V78.0869C102.489 77.2256 102.428 76.666 102.305 76.4082C102.07 75.8926 101.581 75.6348 100.837 75.6348C100.38 75.6348 99.8936 75.8311 99.3779 76.2236C98.8623 76.6104 98.6045 77.0381 98.6045 77.5068V81.6641C98.6045 82.2383 98.9209 82.5723 99.5537 82.666C99.8291 82.7012 99.9668 82.7627 99.9668 82.8506C99.9668 82.9385 99.9375 82.9883 99.8789 83H95.959C95.9004 82.9883 95.8711 82.9473 95.8711 82.877C95.8711 82.7715 96.0088 82.7012 96.2842 82.666C96.917 82.5723 97.2334 82.2383 97.2334 81.6641V70.7041C97.2334 70.458 97.0986 70.2881 96.8291 70.1943C96.7119 70.1533 96.5859 70.1211 96.4512 70.0977C96.3164 70.0684 96.208 70.042 96.126 70.0186C96.0498 69.9951 96 69.9746 95.9766 69.957C95.959 69.9336 95.9502 69.8896 95.9502 69.8252C95.9502 69.7549 95.9941 69.6963 96.082 69.6494L98.3232 68.5947C98.3936 68.5596 98.4375 68.542 98.4551 68.542C98.5547 68.542 98.6045 68.6123 98.6045 68.7529V76.1973ZM111.533 81.5498C111.533 81.7021 111.604 81.8252 111.744 81.9189C111.891 82.0068 112.058 82.0508 112.245 82.0508C112.433 82.0508 112.588 82.0039 112.711 81.9102C112.84 81.8105 112.928 81.7607 112.975 81.7607C113.021 81.7607 113.045 81.8252 113.045 81.9541C113.045 82.0771 112.986 82.1826 112.869 82.2705C111.99 82.915 111.396 83.2373 111.085 83.2373C110.71 83.2373 110.405 82.8477 110.171 82.0684C110.153 82.0098 110.139 81.9834 110.127 81.9893C109.4 82.5342 108.943 82.8623 108.756 82.9736C108.275 83.249 107.792 83.293 107.306 83.1055C106.825 82.918 106.477 82.6074 106.26 82.1738C106.154 81.9512 106.102 81.7139 106.102 81.4619C106.102 80.9639 106.286 80.5684 106.655 80.2754C107.024 79.9824 107.728 79.7012 108.765 79.4316C109.116 79.3379 109.43 79.2178 109.705 79.0713C109.98 78.9248 110.124 78.8311 110.136 78.79C110.153 78.749 110.162 78.7109 110.162 78.6758V76.9883C110.162 76.3262 109.904 75.8604 109.389 75.5908C109.219 75.5029 109.014 75.459 108.773 75.459C108.539 75.459 108.299 75.5527 108.053 75.7402C107.812 75.9277 107.692 76.1943 107.692 76.54L107.736 76.8828C107.701 76.9531 107.49 77.0703 107.104 77.2344C106.717 77.3984 106.494 77.4863 106.436 77.498C106.342 77.498 106.295 77.3867 106.295 77.1641C106.295 76.9355 106.362 76.6836 106.497 76.4082C106.632 76.1328 106.822 75.8809 107.068 75.6523C107.643 75.1191 108.299 74.8525 109.037 74.8525C109.775 74.8525 110.376 75.0576 110.839 75.4678C111.302 75.8721 111.533 76.3555 111.533 76.918V81.5498ZM107.481 81.2949C107.481 81.5762 107.59 81.8223 107.807 82.0332C108.023 82.2383 108.27 82.3408 108.545 82.3408C108.826 82.3408 109.166 82.2236 109.564 81.9893C109.963 81.749 110.162 81.5029 110.162 81.251V79.4668C110.162 79.4023 110.147 79.3701 110.118 79.3701C110.089 79.3701 110.068 79.373 110.057 79.3789L108.018 80.3281C107.807 80.4805 107.663 80.6094 107.587 80.7148C107.517 80.8203 107.481 81.0137 107.481 81.2949ZM119.232 76.6982C119.162 76.6865 119.06 76.6484 118.925 76.584C118.438 76.3613 118.058 76.25 117.782 76.25C117.507 76.25 117.217 76.4229 116.912 76.7686C116.613 77.1084 116.464 77.416 116.464 77.6914V81.6641C116.464 82.1035 116.719 82.3965 117.229 82.543C117.451 82.6016 117.659 82.6455 117.853 82.6748C118.046 82.6982 118.169 82.7217 118.222 82.7451C118.28 82.7686 118.31 82.8154 118.31 82.8857C118.31 82.9502 118.28 82.9883 118.222 83H113.818C113.76 82.9883 113.73 82.9473 113.73 82.877C113.73 82.7715 113.868 82.7012 114.144 82.666C114.776 82.5723 115.093 82.2383 115.093 81.6641V77.0146C115.093 76.7686 114.958 76.5986 114.688 76.5049C114.571 76.4639 114.445 76.4316 114.311 76.4082C114.176 76.3789 114.067 76.3525 113.985 76.3291C113.909 76.3057 113.859 76.2852 113.836 76.2676C113.818 76.2441 113.81 76.2002 113.81 76.1357C113.81 76.0654 113.854 76.0068 113.941 75.96L116.183 74.9053C116.253 74.8701 116.297 74.8525 116.314 74.8525C116.414 74.8525 116.464 74.9229 116.464 75.0635V76.4873C116.464 76.5576 116.481 76.5928 116.517 76.5928C116.563 76.5928 116.684 76.4551 116.877 76.1797C117.434 75.4004 117.894 75.0107 118.257 75.0107C118.462 75.0107 118.775 75.0928 119.197 75.2568C119.625 75.4209 119.839 75.5586 119.839 75.6699C119.839 75.8047 119.771 76.0098 119.637 76.2852C119.502 76.5605 119.367 76.6982 119.232 76.6982ZM121.878 78.3682C121.778 78.3682 121.729 78.582 121.729 79.0098C121.729 79.918 121.998 80.6797 122.537 81.2949C123.076 81.9102 123.744 82.2178 124.541 82.2178C125.344 82.2178 126.114 81.8721 126.853 81.1807C126.864 81.1689 126.879 81.1631 126.896 81.1631H126.94C126.976 81.1631 127.008 81.1924 127.037 81.251C127.072 81.3037 127.104 81.3389 127.134 81.3564C126.454 82.1826 125.654 82.7539 124.734 83.0703C124.418 83.1816 124.061 83.2373 123.662 83.2373C123.264 83.2373 122.859 83.1289 122.449 82.9121C122.039 82.6895 121.688 82.3994 121.395 82.042C120.773 81.2979 120.463 80.3721 120.463 79.2646C120.463 78.1514 120.8 77.1377 121.474 76.2236C122.153 75.3096 123.085 74.8525 124.269 74.8525C125.118 74.8525 125.812 75.2334 126.352 75.9951C126.891 76.751 127.16 77.416 127.16 77.9902C127.16 78.2422 127.099 78.3682 126.976 78.3682H121.878ZM121.975 77.5244C121.975 77.6357 122.027 77.6914 122.133 77.6914H125.446C125.599 77.6914 125.675 77.6006 125.675 77.4189C125.675 76.9971 125.484 76.5664 125.104 76.127C124.729 75.6816 124.315 75.459 123.864 75.459C123.425 75.459 123.023 75.6582 122.66 76.0566C122.303 76.4551 122.074 76.9092 121.975 77.4189V77.5244Z" fill="#20330B"/>
<path d="M50 68.25C45.168 68.25 41.25 72.168 41.25 77C41.25 81.832 45.168 85.75 50 85.75C54.832 85.75 58.75 81.832 58.75 77C58.75 72.168 54.832 68.25 50 68.25ZM50 84.2656C45.9883 84.2656 42.7344 81.0117 42.7344 77C42.7344 72.9883 45.9883 69.7344 50 69.7344C54.0117 69.7344 57.2656 72.9883 57.2656 77C57.2656 81.0117 54.0117 84.2656 50 84.2656ZM50.1094 73.8613C51.1445 73.8613 51.8477 74.5215 51.9258 75.4902C51.9316 75.5723 52 75.6348 52.082 75.6348H53.1895C53.2402 75.6348 53.2812 75.5937 53.2812 75.543C53.2812 73.8496 51.9453 72.6641 50.1035 72.6641C47.957 72.6641 46.7188 74.1133 46.7188 76.5078V77.5293C46.7188 79.9062 47.957 81.3359 50.1035 81.3359C51.9395 81.3359 53.2812 80.1875 53.2812 78.5742C53.2812 78.5234 53.2402 78.4824 53.1895 78.4824H52.0801C51.998 78.4824 51.9316 78.5449 51.9238 78.625C51.8418 79.5254 51.1406 80.1445 50.1074 80.1445C48.832 80.1445 48.1133 79.209 48.1133 77.5352V76.5078C48.1152 74.8086 48.8359 73.8613 50.1094 73.8613V73.8613Z" fill="#296122"/>
<defs>
<clipPath id="clip0_412_3507">
<rect width="50" height="50" fill="white"/>
</clipPath>
</defs>
</svg>
