<?xml version="1.0" encoding="UTF-8" standalone="no"?><svg width="264" height="294" viewBox="0 0 264 294" fill="none" xmlns="http://www.w3.org/2000/svg">
<g filter="url(#filter0_d_127_929)">
<rect x="5" y="1" width="254" height="284" rx="19" stroke="#ACFFAD" stroke-width="2"/>
<rect x="28" y="27" width="208" height="187" rx="20" fill="#ACFFAD"/>
<path d="M117.918 262.891C117.918 262.964 117.882 263 117.809 263H110.822C110.749 263 110.713 262.964 110.713 262.891V262.562C110.713 262.49 110.772 262.453 110.891 262.453C112.139 262.398 112.982 261.733 113.42 260.457L118.998 244.311C119.007 244.292 119.012 244.27 119.012 244.242L118.861 243.791C118.861 243.745 118.88 243.723 118.916 243.723H121.65C121.669 243.732 121.691 243.741 121.719 243.75C121.755 243.759 121.783 243.786 121.801 243.832L127.584 260.061C127.712 260.307 127.812 260.53 127.885 260.73C127.967 260.931 128.058 261.113 128.158 261.277C128.377 261.651 128.737 261.938 129.238 262.139C129.658 262.348 130.04 262.453 130.387 262.453C130.46 262.453 130.496 262.494 130.496 262.576V262.891C130.496 262.964 130.46 263 130.387 263H122.02C121.947 263 121.91 262.964 121.91 262.891V262.562C121.91 262.49 122.079 262.444 122.416 262.426C122.753 262.408 123.031 262.389 123.25 262.371C124.517 262.234 125.15 261.806 125.15 261.086C125.15 261.031 125.141 260.967 125.123 260.895L123.059 255.07C123.049 255.052 123.031 255.011 123.004 254.947C122.895 254.637 122.703 254.482 122.43 254.482H117.576C117.303 254.482 117.089 254.633 116.934 254.934C116.906 254.997 116.893 255.034 116.893 255.043L114.842 261.045V261.168C114.842 261.405 114.965 261.619 115.211 261.811C115.767 262.239 116.514 262.453 117.453 262.453H117.809C117.882 262.453 117.918 262.49 117.918 262.562V262.891ZM121.965 252.965C122.129 252.965 122.211 252.896 122.211 252.76C122.211 252.687 122.193 252.605 122.156 252.514L120.119 246.908C120.028 246.662 119.96 246.539 119.914 246.539C119.868 246.539 119.796 246.667 119.695 246.922L117.781 252.514C117.745 252.605 117.727 252.705 117.727 252.814C117.727 252.915 117.795 252.965 117.932 252.965H121.965ZM139.971 250.9C140.372 251.037 140.618 251.105 140.709 251.105C140.8 251.105 140.855 251.105 140.873 251.105C140.9 251.096 140.932 251.037 140.969 250.928V243.873C140.969 243.49 140.759 243.226 140.34 243.08C140.158 243.016 139.962 242.966 139.752 242.93C139.542 242.884 139.374 242.843 139.246 242.807C139.128 242.77 139.05 242.738 139.014 242.711C138.986 242.674 138.973 242.606 138.973 242.506C138.973 242.396 139.041 242.305 139.178 242.232L142.664 240.592C142.773 240.537 142.842 240.51 142.869 240.51C143.024 240.51 143.102 240.619 143.102 240.838V260.307C143.147 260.708 143.261 260.995 143.443 261.168C143.626 261.341 143.922 261.428 144.332 261.428L145.125 261.373C145.18 261.373 145.207 261.428 145.207 261.537C145.207 261.637 145.139 261.719 145.002 261.783L141.365 263.287C141.256 263.342 141.16 263.369 141.078 263.369C141.005 263.369 140.969 263.255 140.969 263.027V261.783C140.969 261.692 140.946 261.646 140.9 261.646C140.837 261.646 140.458 261.852 139.766 262.262C137.642 263.52 135.851 263.706 134.393 262.822C133.226 262.111 132.438 260.986 132.027 259.445C131.836 258.725 131.74 257.964 131.74 257.162C131.74 256.351 131.904 255.549 132.232 254.756C132.57 253.954 133.03 253.252 133.613 252.65C134.898 251.338 136.448 250.682 138.262 250.682C139 250.682 139.57 250.755 139.971 250.9ZM133.805 256.766C133.805 258.142 134.188 259.35 134.953 260.389C135.719 261.419 136.785 261.934 138.152 261.934C138.754 261.934 139.374 261.788 140.012 261.496C140.65 261.195 140.969 260.967 140.969 260.812V253.758C140.969 253.585 140.85 253.38 140.613 253.143C139.884 252.14 138.913 251.639 137.701 251.639C136.498 251.639 135.546 252.149 134.844 253.17C134.151 254.182 133.805 255.38 133.805 256.766ZM146.438 263C146.346 262.982 146.301 262.918 146.301 262.809C146.301 262.645 146.515 262.535 146.943 262.48C147.928 262.335 148.42 261.815 148.42 260.922V253.689C148.42 253.307 148.21 253.042 147.791 252.896C147.609 252.833 147.413 252.783 147.203 252.746C146.993 252.701 146.825 252.66 146.697 252.623C146.579 252.587 146.501 252.555 146.465 252.527C146.438 252.491 146.424 252.423 146.424 252.322C146.424 252.213 146.492 252.122 146.629 252.049L150.115 250.408C150.225 250.354 150.293 250.326 150.32 250.326C150.475 250.326 150.553 250.436 150.553 250.654V260.922C150.553 261.815 151.045 262.335 152.029 262.48C152.458 262.535 152.672 262.631 152.672 262.768C152.672 262.904 152.626 262.982 152.535 263H146.438ZM149.281 246.484C148.908 246.484 148.575 246.366 148.283 246.129C148.001 245.892 147.859 245.564 147.859 245.145C147.859 244.716 147.996 244.379 148.27 244.133C148.543 243.887 148.867 243.764 149.24 243.764C149.623 243.764 149.942 243.91 150.197 244.201C150.462 244.493 150.594 244.807 150.594 245.145C150.594 245.482 150.471 245.792 150.225 246.074C149.979 246.348 149.664 246.484 149.281 246.484Z" fill="#4B4453"/>
</g>
<defs>
<filter id="filter0_d_127_929" x="0" y="0" width="264" height="294" filterUnits="userSpaceOnUse" color-interpolation-filters="sRGB">
<feFlood flood-opacity="0" result="BackgroundImageFix"/>
<feColorMatrix in="SourceAlpha" type="matrix" values="0 0 0 0 0 0 0 0 0 0 0 0 0 0 0 0 0 0 127 0" result="hardAlpha"/>
<feOffset dy="4"/>
<feGaussianBlur stdDeviation="2"/>
<feComposite in2="hardAlpha" operator="out"/>
<feColorMatrix type="matrix" values="0 0 0 0 0.482353 0 0 0 0 0.380392 0 0 0 0 1 0 0 0 0.25 0"/>
<feBlend mode="normal" in2="BackgroundImageFix" result="effect1_dropShadow_127_929"/>
<feBlend mode="normal" in="SourceGraphic" in2="effect1_dropShadow_127_929" result="shape"/>
</filter>
</defs>
</svg>
