<?xml version="1.0" encoding="UTF-8" standalone="no"?><svg width="455" height="392" viewBox="0 0 455 392" fill="none" xmlns="http://www.w3.org/2000/svg">
<rect x="2.5" y="2.5" width="406" height="359" rx="17.5" stroke="#ACFFAD" stroke-width="5"/>
<g filter="url(#filter0_d_373_3423)">
<rect x="40" y="20" width="411" height="364" rx="20" fill="#4B4453"/>
<rect x="78.5312" y="54.3635" width="333.938" height="238" rx="20" fill="#ACFFAD" fill-opacity="0.88"/>
<path d="M145.176 357.091C145.103 357.091 145.066 357.054 145.066 356.981V356.653C145.066 356.58 145.13 356.544 145.258 356.544C145.686 356.544 146.16 356.498 146.68 356.407C148.348 356.125 149.182 355.55 149.182 354.685V340.261C149.09 339.094 148.557 338.461 147.582 338.36C147.29 338.324 146.967 338.306 146.611 338.306H145.832C145.759 338.306 145.723 338.269 145.723 338.196V337.854C145.723 337.782 145.759 337.745 145.832 337.745L146.434 337.731L148.785 337.718L153.652 337.567C158.866 337.567 161.473 339.108 161.473 342.188C161.473 343.492 160.798 344.576 159.449 345.442C159.24 345.579 159.057 345.679 158.902 345.743C158.757 345.807 158.674 345.843 158.656 345.853C159.859 346.527 160.803 347.284 161.486 348.122C162.179 348.961 162.525 349.963 162.525 351.13C162.525 353.618 161.35 355.35 158.998 356.325C157.786 356.836 156.469 357.091 155.047 357.091H145.176ZM152.094 346.427C151.975 346.427 151.916 346.477 151.916 346.577V354.069C151.916 354.716 152.217 355.236 152.818 355.628C153.429 356.02 154.085 356.216 154.787 356.216C156.136 356.216 157.285 355.737 158.232 354.78C159.18 353.814 159.654 352.629 159.654 351.226C159.654 349.813 159.144 348.66 158.123 347.767C157.111 346.873 155.826 346.427 154.268 346.427H152.094ZM151.889 345.319C151.889 345.493 151.993 345.579 152.203 345.579H155.566C156.441 345.579 157.175 345.256 157.768 344.608C158.369 343.961 158.67 343.237 158.67 342.435C158.67 341.004 158.264 339.969 157.453 339.331C156.642 338.684 155.562 338.36 154.213 338.36C153.803 338.388 153.516 338.401 153.352 338.401C153.197 338.401 153.033 338.401 152.859 338.401C152.686 338.392 152.513 338.401 152.34 338.429C152.167 338.456 152.048 338.515 151.984 338.606C151.921 338.698 151.889 338.848 151.889 339.058V345.319ZM173.367 354.835C173.367 355.072 173.477 355.263 173.695 355.409C173.923 355.546 174.183 355.614 174.475 355.614C174.766 355.614 175.008 355.541 175.199 355.396C175.4 355.241 175.536 355.163 175.609 355.163C175.682 355.163 175.719 355.263 175.719 355.464C175.719 355.655 175.628 355.819 175.445 355.956C174.078 356.959 173.153 357.46 172.67 357.46C172.087 357.46 171.613 356.854 171.248 355.642C171.221 355.55 171.198 355.509 171.18 355.519C170.049 356.366 169.339 356.877 169.047 357.05C168.299 357.478 167.548 357.547 166.791 357.255C166.044 356.963 165.501 356.48 165.164 355.806C165 355.459 164.918 355.09 164.918 354.698C164.918 353.924 165.205 353.308 165.779 352.853C166.354 352.397 167.447 351.959 169.061 351.54C169.607 351.394 170.095 351.207 170.523 350.979C170.952 350.752 171.175 350.606 171.193 350.542C171.221 350.478 171.234 350.419 171.234 350.364V347.739C171.234 346.709 170.833 345.985 170.031 345.565C169.767 345.429 169.448 345.36 169.074 345.36C168.71 345.36 168.336 345.506 167.953 345.798C167.579 346.09 167.393 346.504 167.393 347.042L167.461 347.575C167.406 347.685 167.078 347.867 166.477 348.122C165.875 348.377 165.529 348.514 165.438 348.532C165.292 348.532 165.219 348.359 165.219 348.013C165.219 347.657 165.324 347.265 165.533 346.837C165.743 346.409 166.039 346.017 166.422 345.661C167.315 344.832 168.336 344.417 169.484 344.417C170.633 344.417 171.567 344.736 172.287 345.374C173.007 346.003 173.367 346.755 173.367 347.63V354.835ZM167.064 354.438C167.064 354.876 167.233 355.259 167.57 355.587C167.908 355.906 168.29 356.065 168.719 356.065C169.156 356.065 169.685 355.883 170.305 355.519C170.924 355.145 171.234 354.762 171.234 354.37V351.595C171.234 351.494 171.212 351.444 171.166 351.444C171.12 351.444 171.089 351.449 171.07 351.458L167.898 352.935C167.57 353.172 167.347 353.372 167.229 353.536C167.119 353.7 167.064 354.001 167.064 354.438ZM187.271 345.729C187.271 345.729 188.493 345.675 190.936 345.565C191.145 345.565 191.282 345.588 191.346 345.634C191.41 345.679 191.478 345.839 191.551 346.112C191.624 346.377 191.66 346.627 191.66 346.864C191.66 347.101 191.637 347.238 191.592 347.274C191.546 347.311 191.455 347.329 191.318 347.329H188.283C188.338 347.429 188.397 347.534 188.461 347.644C188.525 347.753 188.607 347.935 188.707 348.19C188.807 348.446 188.857 348.842 188.857 349.38C188.857 349.909 188.725 350.465 188.461 351.048C188.206 351.622 187.827 352.132 187.326 352.579C186.214 353.582 184.774 354.083 183.006 354.083C182.541 354.083 182.031 353.996 181.475 353.823C181.338 353.969 181.156 354.106 180.928 354.233C180.7 354.352 180.477 354.475 180.258 354.603C179.711 354.912 179.438 355.222 179.438 355.532C179.438 356.307 180.723 356.703 183.293 356.722C185.863 356.74 187.549 356.826 188.352 356.981C189.163 357.127 189.792 357.424 190.238 357.87C190.94 358.572 191.291 359.374 191.291 360.276C191.291 361.051 190.958 361.849 190.293 362.669C189.135 364.118 187.367 365.084 184.988 365.567C184.141 365.741 183.243 365.827 182.295 365.827C180.572 365.827 179.264 365.513 178.371 364.884C177.478 364.264 177.031 363.512 177.031 362.628C177.031 362.145 177.145 361.744 177.373 361.425C177.601 361.115 177.888 360.819 178.234 360.536C178.59 360.263 178.977 359.971 179.396 359.661C179.816 359.36 180.217 358.973 180.6 358.499C179.725 358.426 178.973 358.148 178.344 357.665C177.724 357.182 177.414 356.708 177.414 356.243C177.414 355.778 177.537 355.437 177.783 355.218C178.029 354.99 178.33 354.799 178.686 354.644C179.041 354.479 179.415 354.329 179.807 354.192C180.199 354.056 180.54 353.878 180.832 353.659C179.811 353.258 179.023 352.707 178.467 352.005C177.911 351.294 177.633 350.519 177.633 349.681C177.633 348.122 178.198 346.851 179.328 345.866C180.467 344.882 181.839 344.39 183.443 344.39C185.048 344.39 186.324 344.836 187.271 345.729ZM179.834 359.989C179.624 360.199 179.451 360.422 179.314 360.659C179.178 360.896 179.109 361.192 179.109 361.548C179.109 361.912 179.237 362.291 179.492 362.683C179.757 363.084 180.112 363.444 180.559 363.763C181.543 364.492 182.728 364.856 184.113 364.856C185.499 364.856 186.752 364.451 187.873 363.64C189.003 362.838 189.568 361.953 189.568 360.987C189.568 360.03 189.104 359.388 188.174 359.06C187.736 358.914 186.611 358.823 184.797 358.786C182.983 358.75 181.807 358.7 181.27 358.636C181.033 358.909 180.786 359.151 180.531 359.36C180.285 359.57 180.053 359.78 179.834 359.989ZM186.615 349.366C186.615 348.081 186.292 347.037 185.645 346.235C185.007 345.424 184.159 345.019 183.102 345.019C181.734 345.019 180.768 345.661 180.203 346.946C179.984 347.438 179.875 348.004 179.875 348.642C179.875 349.945 180.144 351.03 180.682 351.896C181.338 352.935 182.199 353.454 183.266 353.454C184.332 353.454 185.157 353.094 185.74 352.374C186.324 351.654 186.615 350.651 186.615 349.366ZM201.176 354.835C201.176 355.072 201.285 355.263 201.504 355.409C201.732 355.546 201.992 355.614 202.283 355.614C202.575 355.614 202.816 355.541 203.008 355.396C203.208 355.241 203.345 355.163 203.418 355.163C203.491 355.163 203.527 355.263 203.527 355.464C203.527 355.655 203.436 355.819 203.254 355.956C201.887 356.959 200.962 357.46 200.479 357.46C199.895 357.46 199.421 356.854 199.057 355.642C199.029 355.55 199.007 355.509 198.988 355.519C197.858 356.366 197.147 356.877 196.855 357.05C196.108 357.478 195.356 357.547 194.6 357.255C193.852 356.963 193.31 356.48 192.973 355.806C192.809 355.459 192.727 355.09 192.727 354.698C192.727 353.924 193.014 353.308 193.588 352.853C194.162 352.397 195.256 351.959 196.869 351.54C197.416 351.394 197.904 351.207 198.332 350.979C198.76 350.752 198.984 350.606 199.002 350.542C199.029 350.478 199.043 350.419 199.043 350.364V347.739C199.043 346.709 198.642 345.985 197.84 345.565C197.576 345.429 197.257 345.36 196.883 345.36C196.518 345.36 196.145 345.506 195.762 345.798C195.388 346.09 195.201 346.504 195.201 347.042L195.27 347.575C195.215 347.685 194.887 347.867 194.285 348.122C193.684 348.377 193.337 348.514 193.246 348.532C193.1 348.532 193.027 348.359 193.027 348.013C193.027 347.657 193.132 347.265 193.342 346.837C193.551 346.409 193.848 346.017 194.23 345.661C195.124 344.832 196.145 344.417 197.293 344.417C198.441 344.417 199.376 344.736 200.096 345.374C200.816 346.003 201.176 346.755 201.176 347.63V354.835ZM194.873 354.438C194.873 354.876 195.042 355.259 195.379 355.587C195.716 355.906 196.099 356.065 196.527 356.065C196.965 356.065 197.493 355.883 198.113 355.519C198.733 355.145 199.043 354.762 199.043 354.37V351.595C199.043 351.494 199.02 351.444 198.975 351.444C198.929 351.444 198.897 351.449 198.879 351.458L195.707 352.935C195.379 353.172 195.156 353.372 195.037 353.536C194.928 353.7 194.873 354.001 194.873 354.438ZM211.471 347.739C211.471 347.94 211.393 348.04 211.238 348.04C211.092 348.04 210.979 347.931 210.896 347.712C210.678 347.11 210.35 346.577 209.912 346.112C209.484 345.647 208.951 345.415 208.312 345.415C207.474 345.415 206.909 345.834 206.617 346.673C206.526 346.955 206.48 347.247 206.48 347.548C206.48 347.849 206.672 348.186 207.055 348.56C207.438 348.924 208.066 349.362 208.941 349.872C209.816 350.382 210.454 350.815 210.855 351.171C211.767 351.982 212.223 352.921 212.223 353.987C212.223 355.054 211.831 355.901 211.047 356.53C210.263 357.15 209.352 357.46 208.312 357.46C207.757 357.46 207.251 357.382 206.795 357.228C206.348 357.082 206.089 357.009 206.016 357.009C205.952 357.009 205.842 357.082 205.688 357.228C205.542 357.382 205.423 357.46 205.332 357.46H205.1C205.045 357.46 204.977 356.968 204.895 355.983C204.812 354.999 204.771 354.416 204.771 354.233C204.771 354.051 204.785 353.951 204.812 353.933C204.849 353.914 204.904 353.905 204.977 353.905C205.049 353.905 205.109 353.928 205.154 353.974C205.209 354.019 205.255 354.078 205.291 354.151C205.327 354.215 205.355 354.284 205.373 354.356C205.4 354.429 205.46 354.566 205.551 354.767C206.171 356.088 207.128 356.749 208.422 356.749C208.996 356.749 209.456 356.539 209.803 356.12C210.149 355.692 210.322 355.218 210.322 354.698C210.322 354.179 210.186 353.741 209.912 353.386C209.639 353.03 209.297 352.707 208.887 352.415C208.486 352.123 208.048 351.841 207.574 351.567C205.733 350.492 204.812 349.302 204.812 347.999C204.812 347.024 205.232 346.185 206.07 345.483C206.909 344.772 207.77 344.417 208.654 344.417C209.538 344.417 210.19 344.513 210.609 344.704C211.038 344.896 211.288 345.06 211.361 345.196C211.434 345.324 211.471 345.752 211.471 346.481V347.739ZM218.279 350.542C218.17 350.542 218.115 350.765 218.115 351.212V355.013C218.115 355.906 218.607 356.425 219.592 356.571C220.02 356.626 220.234 356.726 220.234 356.872C220.234 357.018 220.189 357.091 220.098 357.091H214C213.909 357.073 213.863 357.009 213.863 356.899C213.863 356.735 214.077 356.626 214.506 356.571C215.49 356.425 215.982 355.906 215.982 355.013V337.964C215.982 337.581 215.773 337.317 215.354 337.171C215.171 337.107 214.975 337.057 214.766 337.021C214.556 336.975 214.387 336.934 214.26 336.897C214.141 336.861 214.064 336.829 214.027 336.802C214 336.765 213.986 336.697 213.986 336.597C213.986 336.487 214.055 336.396 214.191 336.323L217.678 334.683C217.787 334.628 217.855 334.601 217.883 334.601C218.038 334.601 218.115 334.71 218.115 334.929V348.573C218.188 348.838 218.284 348.993 218.402 349.038C218.521 349.084 218.648 349.106 218.785 349.106C219.049 349.106 219.482 348.901 220.084 348.491C220.695 348.072 221.246 347.607 221.738 347.097C222.23 346.577 222.477 346.222 222.477 346.03C222.477 345.83 222.39 345.707 222.217 345.661C222.044 345.606 221.848 345.57 221.629 345.552C221.419 345.524 221.228 345.488 221.055 345.442C220.882 345.388 220.795 345.265 220.795 345.073C220.795 344.882 220.982 344.786 221.355 344.786H226.564C226.883 344.786 227.043 344.891 227.043 345.101C227.043 345.21 226.938 345.297 226.729 345.36C226.519 345.424 226.113 345.524 225.512 345.661C224.91 345.789 224.432 345.994 224.076 346.276L220.152 349.339C220.152 349.457 220.239 349.603 220.412 349.776L226.031 355.696C226.396 356.07 226.77 356.316 227.152 356.435C227.535 356.544 227.79 356.617 227.918 356.653C228.046 356.69 228.109 356.754 228.109 356.845C228.109 357.009 228.036 357.091 227.891 357.091H221.889C221.798 357.091 221.752 357.036 221.752 356.927C221.752 356.763 221.866 356.658 222.094 356.612C222.777 356.485 223.119 356.252 223.119 355.915C223.119 355.815 223.051 355.683 222.914 355.519C222.777 355.354 222.65 355.195 222.531 355.04L218.307 350.569C218.307 350.56 218.302 350.551 218.293 350.542H218.279ZM237.652 354.835C237.652 355.072 237.762 355.263 237.98 355.409C238.208 355.546 238.468 355.614 238.76 355.614C239.051 355.614 239.293 355.541 239.484 355.396C239.685 355.241 239.822 355.163 239.895 355.163C239.967 355.163 240.004 355.263 240.004 355.464C240.004 355.655 239.913 355.819 239.73 355.956C238.363 356.959 237.438 357.46 236.955 357.46C236.372 357.46 235.898 356.854 235.533 355.642C235.506 355.55 235.483 355.509 235.465 355.519C234.335 356.366 233.624 356.877 233.332 357.05C232.585 357.478 231.833 357.547 231.076 357.255C230.329 356.963 229.786 356.48 229.449 355.806C229.285 355.459 229.203 355.09 229.203 354.698C229.203 353.924 229.49 353.308 230.064 352.853C230.639 352.397 231.732 351.959 233.346 351.54C233.893 351.394 234.38 351.207 234.809 350.979C235.237 350.752 235.46 350.606 235.479 350.542C235.506 350.478 235.52 350.419 235.52 350.364V347.739C235.52 346.709 235.118 345.985 234.316 345.565C234.052 345.429 233.733 345.36 233.359 345.36C232.995 345.36 232.621 345.506 232.238 345.798C231.865 346.09 231.678 346.504 231.678 347.042L231.746 347.575C231.691 347.685 231.363 347.867 230.762 348.122C230.16 348.377 229.814 348.514 229.723 348.532C229.577 348.532 229.504 348.359 229.504 348.013C229.504 347.657 229.609 347.265 229.818 346.837C230.028 346.409 230.324 346.017 230.707 345.661C231.6 344.832 232.621 344.417 233.77 344.417C234.918 344.417 235.852 344.736 236.572 345.374C237.292 346.003 237.652 346.755 237.652 347.63V354.835ZM231.35 354.438C231.35 354.876 231.518 355.259 231.855 355.587C232.193 355.906 232.576 356.065 233.004 356.065C233.441 356.065 233.97 355.883 234.59 355.519C235.21 355.145 235.52 354.762 235.52 354.37V351.595C235.52 351.494 235.497 351.444 235.451 351.444C235.406 351.444 235.374 351.449 235.355 351.458L232.184 352.935C231.855 353.172 231.632 353.372 231.514 353.536C231.404 353.7 231.35 354.001 231.35 354.438ZM249.629 347.288C249.52 347.27 249.36 347.211 249.15 347.11C248.394 346.764 247.801 346.591 247.373 346.591C246.945 346.591 246.493 346.86 246.02 347.397C245.555 347.926 245.322 348.405 245.322 348.833V355.013C245.322 355.696 245.719 356.152 246.512 356.38C246.858 356.471 247.182 356.539 247.482 356.585C247.783 356.621 247.975 356.658 248.057 356.694C248.148 356.731 248.193 356.804 248.193 356.913C248.193 357.013 248.148 357.073 248.057 357.091H241.207C241.116 357.073 241.07 357.009 241.07 356.899C241.07 356.735 241.285 356.626 241.713 356.571C242.697 356.425 243.189 355.906 243.189 355.013V347.78C243.189 347.397 242.98 347.133 242.561 346.987C242.378 346.924 242.182 346.873 241.973 346.837C241.763 346.791 241.594 346.75 241.467 346.714C241.348 346.677 241.271 346.646 241.234 346.618C241.207 346.582 241.193 346.513 241.193 346.413C241.193 346.304 241.262 346.213 241.398 346.14L244.885 344.499C244.994 344.444 245.062 344.417 245.09 344.417C245.245 344.417 245.322 344.526 245.322 344.745V346.96C245.322 347.069 245.35 347.124 245.404 347.124C245.477 347.124 245.664 346.91 245.965 346.481C246.831 345.269 247.546 344.663 248.111 344.663C248.43 344.663 248.918 344.791 249.574 345.046C250.24 345.301 250.572 345.515 250.572 345.688C250.572 345.898 250.467 346.217 250.258 346.646C250.048 347.074 249.839 347.288 249.629 347.288ZM259.992 354.835C259.992 355.072 260.102 355.263 260.32 355.409C260.548 355.546 260.808 355.614 261.1 355.614C261.391 355.614 261.633 355.541 261.824 355.396C262.025 355.241 262.161 355.163 262.234 355.163C262.307 355.163 262.344 355.263 262.344 355.464C262.344 355.655 262.253 355.819 262.07 355.956C260.703 356.959 259.778 357.46 259.295 357.46C258.712 357.46 258.238 356.854 257.873 355.642C257.846 355.55 257.823 355.509 257.805 355.519C256.674 356.366 255.964 356.877 255.672 357.05C254.924 357.478 254.173 357.547 253.416 357.255C252.669 356.963 252.126 356.48 251.789 355.806C251.625 355.459 251.543 355.09 251.543 354.698C251.543 353.924 251.83 353.308 252.404 352.853C252.979 352.397 254.072 351.959 255.686 351.54C256.232 351.394 256.72 351.207 257.148 350.979C257.577 350.752 257.8 350.606 257.818 350.542C257.846 350.478 257.859 350.419 257.859 350.364V347.739C257.859 346.709 257.458 345.985 256.656 345.565C256.392 345.429 256.073 345.36 255.699 345.36C255.335 345.36 254.961 345.506 254.578 345.798C254.204 346.09 254.018 346.504 254.018 347.042L254.086 347.575C254.031 347.685 253.703 347.867 253.102 348.122C252.5 348.377 252.154 348.514 252.062 348.532C251.917 348.532 251.844 348.359 251.844 348.013C251.844 347.657 251.949 347.265 252.158 346.837C252.368 346.409 252.664 346.017 253.047 345.661C253.94 344.832 254.961 344.417 256.109 344.417C257.258 344.417 258.192 344.736 258.912 345.374C259.632 346.003 259.992 346.755 259.992 347.63V354.835ZM253.689 354.438C253.689 354.876 253.858 355.259 254.195 355.587C254.533 355.906 254.915 356.065 255.344 356.065C255.781 356.065 256.31 355.883 256.93 355.519C257.549 355.145 257.859 354.762 257.859 354.37V351.595C257.859 351.494 257.837 351.444 257.791 351.444C257.745 351.444 257.714 351.449 257.695 351.458L254.523 352.935C254.195 353.172 253.972 353.372 253.854 353.536C253.744 353.7 253.689 354.001 253.689 354.438ZM273.664 340.001C273.664 338.907 273.035 338.36 271.777 338.36C271.577 338.36 271.477 338.324 271.477 338.251V337.923C271.477 337.85 271.513 337.813 271.586 337.813H278.436C278.508 337.813 278.545 337.85 278.545 337.923V338.251C278.545 338.324 278.344 338.36 277.943 338.36C277.542 338.36 277.173 338.488 276.836 338.743C276.499 338.998 276.33 339.522 276.33 340.315V354.903C276.33 355.997 276.964 356.544 278.23 356.544C278.422 356.544 278.518 356.58 278.518 356.653V356.981C278.518 357.054 278.481 357.091 278.408 357.091H271.559C271.486 357.091 271.449 357.054 271.449 356.981V356.653C271.449 356.58 271.65 356.544 272.051 356.544C272.452 356.544 272.821 356.416 273.158 356.161C273.495 355.906 273.664 355.382 273.664 354.589V340.001ZM287.377 347.739C287.377 347.94 287.299 348.04 287.145 348.04C286.999 348.04 286.885 347.931 286.803 347.712C286.584 347.11 286.256 346.577 285.818 346.112C285.39 345.647 284.857 345.415 284.219 345.415C283.38 345.415 282.815 345.834 282.523 346.673C282.432 346.955 282.387 347.247 282.387 347.548C282.387 347.849 282.578 348.186 282.961 348.56C283.344 348.924 283.973 349.362 284.848 349.872C285.723 350.382 286.361 350.815 286.762 351.171C287.673 351.982 288.129 352.921 288.129 353.987C288.129 355.054 287.737 355.901 286.953 356.53C286.169 357.15 285.258 357.46 284.219 357.46C283.663 357.46 283.157 357.382 282.701 357.228C282.255 357.082 281.995 357.009 281.922 357.009C281.858 357.009 281.749 357.082 281.594 357.228C281.448 357.382 281.329 357.46 281.238 357.46H281.006C280.951 357.46 280.883 356.968 280.801 355.983C280.719 354.999 280.678 354.416 280.678 354.233C280.678 354.051 280.691 353.951 280.719 353.933C280.755 353.914 280.81 353.905 280.883 353.905C280.956 353.905 281.015 353.928 281.061 353.974C281.115 354.019 281.161 354.078 281.197 354.151C281.234 354.215 281.261 354.284 281.279 354.356C281.307 354.429 281.366 354.566 281.457 354.767C282.077 356.088 283.034 356.749 284.328 356.749C284.902 356.749 285.363 356.539 285.709 356.12C286.055 355.692 286.229 355.218 286.229 354.698C286.229 354.179 286.092 353.741 285.818 353.386C285.545 353.03 285.203 352.707 284.793 352.415C284.392 352.123 283.954 351.841 283.48 351.567C281.639 350.492 280.719 349.302 280.719 347.999C280.719 347.024 281.138 346.185 281.977 345.483C282.815 344.772 283.676 344.417 284.561 344.417C285.445 344.417 286.096 344.513 286.516 344.704C286.944 344.896 287.195 345.06 287.268 345.196C287.34 345.324 287.377 345.752 287.377 346.481V347.739ZM311.057 344.786C311.157 344.813 311.207 344.877 311.207 344.978C311.207 345.078 311.193 345.151 311.166 345.196C311.139 345.242 310.938 345.292 310.564 345.347C310.191 345.401 309.922 345.511 309.758 345.675C309.603 345.83 309.462 346.007 309.334 346.208C309.215 346.409 309.111 346.618 309.02 346.837C308.928 347.047 308.842 347.238 308.76 347.411L305.027 357.063C304.918 357.328 304.818 357.46 304.727 357.46H303.646C303.555 357.46 303.455 357.319 303.346 357.036L300.311 348.819L297.125 357.063C297.016 357.328 296.915 357.46 296.824 357.46H295.744C295.653 357.46 295.553 357.319 295.443 357.036L291.82 347.233C291.483 346.313 290.904 345.72 290.084 345.456C290.02 345.438 289.943 345.424 289.852 345.415C289.469 345.379 289.277 345.265 289.277 345.073C289.277 344.882 289.387 344.786 289.605 344.786H295.689C295.762 344.786 295.799 344.859 295.799 345.005C295.799 345.142 295.749 345.233 295.648 345.278C295.484 345.342 295.202 345.369 294.801 345.36C294.135 345.342 293.803 345.616 293.803 346.181L293.83 346.509L296.605 354.097C296.788 354.562 296.97 354.548 297.152 354.056C297.171 354.01 297.549 353.053 298.287 351.185C299.035 349.316 299.513 347.999 299.723 347.233C299.385 346.313 298.807 345.72 297.986 345.456C297.923 345.438 297.845 345.424 297.754 345.415C297.371 345.379 297.18 345.265 297.18 345.073C297.18 344.882 297.289 344.786 297.508 344.786H303.592C303.665 344.786 303.701 344.859 303.701 345.005C303.701 345.142 303.651 345.233 303.551 345.278C303.387 345.342 303.104 345.369 302.703 345.36C302.038 345.342 301.705 345.616 301.705 346.181L301.732 346.509L304.508 354.097C304.69 354.562 304.872 354.548 305.055 354.056C305.073 354.01 305.191 353.714 305.41 353.167C306.531 350.36 307.192 348.628 307.393 347.972C307.602 347.306 307.707 346.851 307.707 346.604C307.707 346.358 307.575 346.103 307.311 345.839C307.046 345.565 306.691 345.429 306.244 345.429C305.798 345.429 305.574 345.292 305.574 345.019C305.574 344.864 305.674 344.786 305.875 344.786H311.057ZM321.023 354.835C321.023 355.072 321.133 355.263 321.352 355.409C321.579 355.546 321.839 355.614 322.131 355.614C322.423 355.614 322.664 355.541 322.855 355.396C323.056 355.241 323.193 355.163 323.266 355.163C323.339 355.163 323.375 355.263 323.375 355.464C323.375 355.655 323.284 355.819 323.102 355.956C321.734 356.959 320.809 357.46 320.326 357.46C319.743 357.46 319.269 356.854 318.904 355.642C318.877 355.55 318.854 355.509 318.836 355.519C317.706 356.366 316.995 356.877 316.703 357.05C315.956 357.478 315.204 357.547 314.447 357.255C313.7 356.963 313.158 356.48 312.82 355.806C312.656 355.459 312.574 355.09 312.574 354.698C312.574 353.924 312.861 353.308 313.436 352.853C314.01 352.397 315.104 351.959 316.717 351.54C317.264 351.394 317.751 351.207 318.18 350.979C318.608 350.752 318.831 350.606 318.85 350.542C318.877 350.478 318.891 350.419 318.891 350.364V347.739C318.891 346.709 318.49 345.985 317.688 345.565C317.423 345.429 317.104 345.36 316.73 345.36C316.366 345.36 315.992 345.506 315.609 345.798C315.236 346.09 315.049 346.504 315.049 347.042L315.117 347.575C315.062 347.685 314.734 347.867 314.133 348.122C313.531 348.377 313.185 348.514 313.094 348.532C312.948 348.532 312.875 348.359 312.875 348.013C312.875 347.657 312.98 347.265 313.189 346.837C313.399 346.409 313.695 346.017 314.078 345.661C314.971 344.832 315.992 344.417 317.141 344.417C318.289 344.417 319.223 344.736 319.943 345.374C320.663 346.003 321.023 346.755 321.023 347.63V354.835ZM314.721 354.438C314.721 354.876 314.889 355.259 315.227 355.587C315.564 355.906 315.947 356.065 316.375 356.065C316.812 356.065 317.341 355.883 317.961 355.519C318.581 355.145 318.891 354.762 318.891 354.37V351.595C318.891 351.494 318.868 351.444 318.822 351.444C318.777 351.444 318.745 351.449 318.727 351.458L315.555 352.935C315.227 353.172 315.003 353.372 314.885 353.536C314.775 353.7 314.721 354.001 314.721 354.438ZM333 347.288C332.891 347.27 332.731 347.211 332.521 347.11C331.765 346.764 331.173 346.591 330.744 346.591C330.316 346.591 329.865 346.86 329.391 347.397C328.926 347.926 328.693 348.405 328.693 348.833V355.013C328.693 355.696 329.09 356.152 329.883 356.38C330.229 356.471 330.553 356.539 330.854 356.585C331.154 356.621 331.346 356.658 331.428 356.694C331.519 356.731 331.564 356.804 331.564 356.913C331.564 357.013 331.519 357.073 331.428 357.091H324.578C324.487 357.073 324.441 357.009 324.441 356.899C324.441 356.735 324.656 356.626 325.084 356.571C326.068 356.425 326.561 355.906 326.561 355.013V347.78C326.561 347.397 326.351 347.133 325.932 346.987C325.749 346.924 325.553 346.873 325.344 346.837C325.134 346.791 324.965 346.75 324.838 346.714C324.719 346.677 324.642 346.646 324.605 346.618C324.578 346.582 324.564 346.513 324.564 346.413C324.564 346.304 324.633 346.213 324.77 346.14L328.256 344.499C328.365 344.444 328.434 344.417 328.461 344.417C328.616 344.417 328.693 344.526 328.693 344.745V346.96C328.693 347.069 328.721 347.124 328.775 347.124C328.848 347.124 329.035 346.91 329.336 346.481C330.202 345.269 330.917 344.663 331.482 344.663C331.801 344.663 332.289 344.791 332.945 345.046C333.611 345.301 333.943 345.515 333.943 345.688C333.943 345.898 333.839 346.217 333.629 346.646C333.419 347.074 333.21 347.288 333 347.288ZM343.363 354.835C343.363 355.072 343.473 355.263 343.691 355.409C343.919 355.546 344.179 355.614 344.471 355.614C344.762 355.614 345.004 355.541 345.195 355.396C345.396 355.241 345.533 355.163 345.605 355.163C345.678 355.163 345.715 355.263 345.715 355.464C345.715 355.655 345.624 355.819 345.441 355.956C344.074 356.959 343.149 357.46 342.666 357.46C342.083 357.46 341.609 356.854 341.244 355.642C341.217 355.55 341.194 355.509 341.176 355.519C340.046 356.366 339.335 356.877 339.043 357.05C338.296 357.478 337.544 357.547 336.787 357.255C336.04 356.963 335.497 356.48 335.16 355.806C334.996 355.459 334.914 355.09 334.914 354.698C334.914 353.924 335.201 353.308 335.775 352.853C336.35 352.397 337.443 351.959 339.057 351.54C339.604 351.394 340.091 351.207 340.52 350.979C340.948 350.752 341.171 350.606 341.189 350.542C341.217 350.478 341.23 350.419 341.23 350.364V347.739C341.23 346.709 340.829 345.985 340.027 345.565C339.763 345.429 339.444 345.36 339.07 345.36C338.706 345.36 338.332 345.506 337.949 345.798C337.576 346.09 337.389 346.504 337.389 347.042L337.457 347.575C337.402 347.685 337.074 347.867 336.473 348.122C335.871 348.377 335.525 348.514 335.434 348.532C335.288 348.532 335.215 348.359 335.215 348.013C335.215 347.657 335.32 347.265 335.529 346.837C335.739 346.409 336.035 346.017 336.418 345.661C337.311 344.832 338.332 344.417 339.48 344.417C340.629 344.417 341.563 344.736 342.283 345.374C343.003 346.003 343.363 346.755 343.363 347.63V354.835ZM337.061 354.438C337.061 354.876 337.229 355.259 337.566 355.587C337.904 355.906 338.286 356.065 338.715 356.065C339.152 356.065 339.681 355.883 340.301 355.519C340.921 355.145 341.23 354.762 341.23 354.37V351.595C341.23 351.494 341.208 351.444 341.162 351.444C341.117 351.444 341.085 351.449 341.066 351.458L337.895 352.935C337.566 353.172 337.343 353.372 337.225 353.536C337.115 353.7 337.061 354.001 337.061 354.438Z" fill="#FDFDFC"/>
</g>
<defs>
<filter id="filter0_d_373_3423" x="36" y="20" width="419" height="372" filterUnits="userSpaceOnUse" color-interpolation-filters="sRGB">
<feFlood flood-opacity="0" result="BackgroundImageFix"/>
<feColorMatrix in="SourceAlpha" type="matrix" values="0 0 0 0 0 0 0 0 0 0 0 0 0 0 0 0 0 0 127 0" result="hardAlpha"/>
<feOffset dy="4"/>
<feGaussianBlur stdDeviation="2"/>
<feComposite in2="hardAlpha" operator="out"/>
<feColorMatrix type="matrix" values="0 0 0 0 0.482353 0 0 0 0 0.380392 0 0 0 0 1 0 0 0 0.25 0"/>
<feBlend mode="normal" in2="BackgroundImageFix" result="effect1_dropShadow_373_3423"/>
<feBlend mode="normal" in="SourceGraphic" in2="effect1_dropShadow_373_3423" result="shape"/>
</filter>
</defs>
</svg>
