<?xml version="1.0" encoding="UTF-8" standalone="no"?><svg width="630" height="412" viewBox="0 0 630 412" fill="none" xmlns="http://www.w3.org/2000/svg">
<g clip-path="url(#clip0_405_3419)">
<path fill-rule="evenodd" clip-rule="evenodd" d="M195.083 139.205C201.032 144.015 208.999 141.195 214.777 137.575C215.124 140.379 219.651 140.113 221.272 141.465C223.828 143.596 226.692 147.475 228.697 150.301C233.328 156.828 236.19 165.949 238.782 173.77C241.452 181.823 244.749 188.731 251.612 193.208C253.829 194.655 255.976 196.595 258.252 197.952C260.972 199.574 264.124 200.367 267.117 200.107C270.682 199.797 273.757 199.668 277.252 198.891C280.987 198.06 284.972 197.189 288.672 197.32C291.417 197.418 294.189 196.77 296.865 196.917C298.508 197.007 300.136 196.846 301.777 196.925C302.427 196.957 302.934 196.951 303.605 197.021C305.194 197.186 305.219 196.987 305.453 198.618C305.728 200.545 304.664 203.674 304.559 205.652C304.437 207.951 304.774 210.221 304.701 212.5C304.62 215.061 303.982 214.825 302.05 215.999C300.176 217.138 298.394 218.235 296.456 219.239C290.906 222.115 285.046 224.93 278.924 225.723C271.579 226.674 263.927 225.665 256.628 225.299C252.561 225.096 248.347 224.288 244.435 223.132C241.357 222.222 236.368 220.376 233.963 217.984C236.715 217.841 235.75 215.013 234.144 213.762C231.217 211.483 229.906 212.577 230.607 216.399C227.162 215.093 224.081 211.928 221.148 209.394C217.377 206.136 211.781 201.241 211.557 195.38C211.306 188.771 204.582 175.431 205.281 182.387C205.91 188.637 208.271 197.087 205.281 202.943C205.151 199.433 199.747 193.664 197.203 192.675C192.679 190.918 187.307 191.189 182.594 191.525C173.862 192.145 165.104 194.133 156.726 196.812C148.274 199.515 139.227 203.025 132.208 209.441C131.344 210.232 130.536 211.543 129.656 212.224C129.349 212.462 128.429 212.327 127.992 212.59C126.829 213.289 128.594 213.407 126.681 213.571C126.267 213.606 125.18 213.092 124.898 212.944C120.271 210.512 120.533 204.009 120.809 199.027C121.443 187.576 124.637 176.022 128.538 165.571C132.029 156.222 136.789 146.2 143.691 139.654C146.71 136.79 149.708 133.432 153.186 131.391C154.507 130.616 156.882 129.403 156.362 127.087C155.806 124.614 153.28 125.818 151.504 125.719C142.281 125.205 134.845 120.709 127.862 113.874C120.705 106.87 113.185 104.504 104.302 101.857C101.744 101.095 84.1564 96.2021 81.6328 96.2276C78.8405 96.256 76.0593 96.3614 73.2699 96.4225C71.6117 96.4589 69.9517 96.4547 68.2916 96.6086C66.9552 96.7328 65.4827 97.3723 64.1513 97.2067C62.9032 97.0515 63.001 97.4802 62.3874 96.4066C61.9556 95.6513 62.0722 94.0871 61.9473 93.167C61.838 92.3636 61.7287 91.5597 61.6198 90.7559C61.2753 88.2202 59.6655 86.9235 61.4402 85.8984C64.0471 84.3924 69.4186 83.0266 72.2705 82.4219C75.0007 81.8435 90.4572 77.5606 95.6244 76.3958C98.1982 75.8157 129.365 74.4719 130.527 74.4627C141.724 74.3737 165.603 81.5135 170.967 87.2202C176.331 92.9269 176.337 97.0657 178.655 99.3743C181.245 101.954 184.752 105.162 186.575 108.506C187.807 110.767 188.28 116.748 190.799 117.629C188.969 124.409 189.629 134.794 195.083 139.205Z" fill="#4D7520"/>
<path fill-rule="evenodd" clip-rule="evenodd" d="M29.7464 118.266C30.4568 118.456 30.8007 118.129 30.924 117.279C30.4586 117.669 30.1025 117.968 29.7464 118.266ZM39.0471 319.58C38.417 319.62 39.0406 321.468 39.1209 321.46C39.0961 320.834 39.0716 320.207 39.0471 319.58ZM210.826 90.9894C211.647 91.149 216.27 92.6125 214.713 89.6275C213.877 88.0236 212.191 90.9906 210.826 90.9894ZM195.553 127.075C193.201 128.581 200.456 133.9 201.494 134.233C202.508 134.559 210.154 135.732 210.245 133.783C207.577 133.1 204.897 133.512 202.282 132.599C199.083 131.482 197.848 129.642 195.553 127.075ZM309.899 209.21C310.039 206.785 310.124 204.429 310.549 202.042C310.638 201.546 311.358 199.261 311.198 198.963C310.947 198.497 309.03 198.108 308.634 197.952C308.33 202.703 307.984 207.438 307.414 212.161C308.753 211.626 308.404 209.493 309.899 209.21ZM59.8059 97.9408C59.8059 95.3412 59.2076 91.473 58.7599 88.9499C58.3937 86.8875 57.0893 84.881 56.3435 82.8065C56.1111 84.2344 55.2961 86.4155 55.5567 87.8719C55.8973 89.7705 56.6741 89.4586 56.6741 91.7953C56.6741 93.2161 56.4711 94.8342 56.6946 96.2316C57.1333 98.9841 57.8372 98.544 59.8059 97.9408ZM232.615 77.8824C229.923 76.1556 225.321 79.4399 222.908 80.9501C220.042 82.7434 217.16 87.5638 215.998 91.065C217.136 90.9187 218.099 90.894 218.927 90.1843C219.353 89.8189 219.801 88.7869 220.203 88.2999C221.241 87.0434 222.548 85.8734 223.687 84.7301C226.4 82.0056 229.335 79.5945 232.615 77.8824ZM248.529 121.406C250.765 120.951 253.343 119.775 253.982 116.86C254.601 114.042 252.817 112.678 250.636 112.327C245.634 111.522 242.251 119.925 248.529 121.406ZM231.073 112.711C233.54 114.704 236.236 114.452 238.678 112.224C240.633 110.441 242.542 107.392 240.326 105.212C236.765 101.71 231.662 108.876 231.073 112.711ZM337.453 333.31C335.909 333.42 333.42 335.288 332.066 336.208C330.367 337.362 328.579 338.58 326.936 339.644C323.527 341.854 319.695 344.334 315.915 345.991C312.208 347.616 308.47 349.659 304.685 351.58C303.065 352.402 300.799 353.363 298.963 353.139C297.282 352.935 295.518 350.935 294.012 350.059C291.674 348.698 290.154 346.932 288.286 344.755C287.473 343.807 285.401 339.822 284.302 339.673C283.364 339.545 280.798 341.922 280.065 342.432C278.932 343.222 277.223 344.516 276.146 345.508C275.081 346.489 275.022 345.768 274.948 347.057C274.897 347.934 276.633 349.654 277.169 350.36C278.968 352.734 280.845 355.056 282.544 357.532C284.004 359.659 285.361 361.942 286.615 364.239C287.83 366.467 290.083 369.045 290.573 371.65C293.4 368.446 296.178 370.009 299.732 369.043C301.271 368.624 302.638 367.637 304.08 367.052C305.281 366.564 306.572 366.404 307.809 366.088C313.295 364.685 318.617 361.941 323.749 359.487C324.947 358.914 325.941 357.818 327.1 357.155C328.34 356.445 329.695 356.208 330.946 355.555C334.165 353.875 337.428 352.109 340.61 350.31C344.024 348.381 347.622 346.713 350.971 344.677C352.995 343.447 356.921 341.242 357.856 338.637C355.62 339.101 353.743 340.576 351.673 341.322C348.021 342.637 348.2 338.657 348.2 335.625C346.978 335.625 344.525 337.654 343.355 338.283C341.844 339.096 339.863 341.246 338.186 341.39C334.036 341.748 336.041 335.427 337.453 333.31ZM190.851 117.576C188.533 116.766 188.069 111.636 187.088 109.515C185.64 106.386 182.865 103.851 180.651 101.406C178.615 99.1572 176.435 97.2544 174.151 95.3659C171.811 93.4309 170.192 90.8857 168.04 88.7522C159.053 79.8424 148.079 76.8261 136.481 76.3604C124.829 75.8927 113.07 77.3825 101.363 78.2486C99.8713 78.3589 98.5381 78.4074 97.0498 78.6988C96.6923 78.5738 96.3351 78.4488 95.9776 78.3238L95.1496 79.0139C94.5758 79.1117 93.7594 79.2133 93.2311 79.332C90.5029 79.9444 87.7762 80.7591 85.0496 81.4731C79.2693 82.9858 73.6804 84.3765 67.8547 85.7898C66.4656 86.1267 63.0869 86.3432 61.9973 87.3636C61.1521 88.1553 61.4678 88.4671 61.6653 89.9213C61.847 91.259 62.0283 92.5962 62.2103 93.9338C62.5632 96.5304 62.41 97.4266 64.835 97.1579C66.9198 96.9267 68.9519 96.4987 71.0601 96.3879C74.0909 96.2278 77.1719 96.0242 80.2035 96.0936C83.2067 96.1626 86.6665 95.5857 89.6065 96.4773C88.7 94.2778 88.1662 87.6152 90.5718 92.2258C91.7025 94.3932 91.4224 97.0492 93.8532 97.8229C95.8352 98.4537 97.9913 98.8219 100.034 99.4205C108.087 101.781 116.481 103.407 123.351 109.552C130.084 115.575 136.212 122.508 144.83 124.706C146.898 125.234 149.411 125.54 151.588 125.662C152.855 125.733 155.375 124.844 156.237 126.169C158.328 129.386 150.581 133.171 149.028 134.774C145.872 138.032 142.304 140.579 139.571 144.382C136.714 148.356 134.26 152.686 132.156 157.218C127.423 167.415 124.08 178.227 122.137 189.575C121.217 194.948 120.177 201.101 121.004 206.599C121.338 208.817 122.411 211.025 124.064 212.289C124.601 212.701 125.274 212.985 125.895 213.201C126.481 213.424 127.083 213.556 127.7 213.596C127.768 213.195 127.9 212.825 128.094 212.486C128.53 212.224 129.45 212.359 129.756 212.121C130.636 211.44 131.442 210.13 132.307 209.34C133.807 207.968 135.428 206.664 137.079 205.556C141.242 202.763 145.774 201.12 150.229 199.363C159.4 195.746 169.006 192.781 178.744 191.676C183.883 191.094 189.659 190.735 194.752 191.839C198.036 192.552 204.7 195.891 204.871 200.507C207.85 194.673 205.961 188.535 205.322 182.299C204.608 175.329 203.381 168.747 205.403 161.868C206.777 157.189 209.143 151.015 213.163 148.626C214.603 147.77 217.675 148.286 216.609 151.114C216.582 151.187 214.576 152.508 214.291 152.893C213.316 154.208 212.577 155.926 211.85 157.436C206.072 169.44 211.214 182.546 211.593 195.285C211.769 201.167 217.414 206.041 221.176 209.292C224.099 211.819 227.192 214.991 230.628 216.294C229.928 212.474 231.237 211.381 234.162 213.658C235.767 214.908 236.731 217.735 233.982 217.878C236.149 220.035 240.577 221.706 243.333 222.536C246.561 223.509 249.864 224.375 253.227 224.926C259.941 226.026 266.778 225.676 273.529 225.757C280.48 225.839 286.279 223.69 292.665 220.899C295.597 219.617 298.352 218.136 301.14 216.452C302.085 215.881 304.23 215.218 304.75 213.968C305.421 212.358 304.419 208.182 304.479 206.341C304.542 204.381 305.798 200.308 305.414 198.522C305.048 196.812 305.978 198.013 304.478 197.158C304.072 196.927 303.163 196.807 302.666 196.743C299.889 196.38 296.606 196.678 293.908 197.081C290.816 197.542 287.951 196.92 284.945 197.331C280.773 197.902 276.492 198.758 272.461 200.141C266.101 202.324 260.215 202.169 254.531 197.993C252.127 196.226 249.295 194.413 247.235 191.996C244.465 188.747 242.435 184.121 240.871 179.972C237.431 170.845 234.924 161.264 230.214 152.843C228.195 149.235 225.388 146.298 222.795 143.225C221.568 141.772 220.863 140.935 219.183 140.31C217.828 139.806 215.075 139.651 214.81 137.512C209.036 141.131 201.077 143.945 195.132 139.141C189.683 134.737 189.024 124.346 190.851 117.576ZM190.552 204.791C183.027 205.753 175.74 206.474 168.34 208.457C160.874 210.458 153.086 213.508 145.999 216.52C143.219 217.701 139.696 218.535 137.179 220.364C135.311 221.721 135.545 221.67 136.885 224.171C137.783 225.846 138.538 227.72 139.498 229.328C143.401 235.863 148.748 241.453 153.234 247.383C158.19 253.933 163.998 260.419 169.678 266.159C175.141 271.68 180.528 277.594 186.336 282.555C198.444 292.895 210.706 303.091 223.29 312.639C230.278 317.942 237.1 323.375 244.107 328.716C247.75 331.493 251.15 334.559 255.021 336.879C259.015 339.272 263.895 342.624 267.183 346.158C269.478 341.46 274.332 338.418 277.964 335.378C278.689 334.772 279.469 333.952 280.163 333.271C281.486 331.977 281.552 332.192 280.846 330.711C280.069 329.082 277.95 327.769 276.84 326.421C275.825 325.188 275.155 323.938 274.233 322.619C271.168 318.231 267.219 314.587 263.788 310.596C260.484 306.753 257.413 302.851 254.184 298.758C252.585 296.732 250.768 295.273 249.234 293.223C247.105 290.374 245.005 287.458 242.902 284.58C239.129 279.418 235.959 273.938 232.287 268.749C225.607 259.307 220.54 248.632 214.693 238.504C211.104 232.289 206.667 226.486 203.404 220.024C201.608 216.465 199.877 212.918 198.589 209.029C197.856 206.814 198.033 206.64 196.243 205.992C194.515 205.367 192.335 204.933 190.552 204.791ZM97.0675 295.472C100.877 295.046 104.796 296.51 108.492 296.691C112.086 296.867 115.763 297.32 119.364 297.046C123.316 296.746 127.291 296.754 131.227 296.896C135.494 297.05 139.559 296.249 143.672 295.551C147.83 294.845 152.358 292.656 156.423 291.256C158.827 290.427 161.14 289.353 163.556 288.572C165.999 287.781 167.946 285.905 170.173 284.464C171.692 283.481 174.913 282.291 174.238 280.269C173.639 278.473 169.644 275.776 168.338 274.471C164.474 270.611 160.557 266.781 156.978 262.544C149.387 253.559 142.152 244.597 135.739 234.456C134.215 239.447 132.533 244.51 129.165 248.309C126.303 251.537 123.005 254.304 119.948 257.243C114.011 262.951 106.868 267.018 99.7772 270.305C96.2684 271.932 92.8757 272.976 89.3398 274.415C87.666 275.096 85.8836 274.963 84.3143 275.391C81.9361 276.038 79.452 277.378 77.0433 278.165C73.648 279.275 70.2152 280.053 66.6653 279.699C62.0453 279.239 58.2045 276.617 53.9971 274.72C54.2159 276.615 52.9587 283.332 53.8904 284.75C54.4069 285.536 57.7125 285.859 58.7365 286.124C62.915 287.203 67.3627 287.856 71.5373 288.482C75.9645 289.146 80.1401 291.683 84.4595 292.864C88.536 293.978 93.0389 295.015 97.0675 295.472ZM22.6751 323.115C22.9411 326.71 23.3293 332.145 25.8437 334.732C26.8067 332.026 26.2726 328.369 26.6986 325.486C26.9523 323.768 27.2966 322.078 27.6548 320.386C27.8585 319.426 27.9832 316.658 28.4164 316.1C31.5266 312.096 32.1566 324.014 32.5088 325.399C33.6597 322.185 33.2801 318.618 34.3023 315.478C35.5249 311.722 37.4366 314.744 38.479 317.103C38.7868 311.917 37.0268 306.69 37.0892 301.405C37.1562 295.77 37.9838 292.02 41.7125 288.225C43.4952 286.411 48.2565 284.191 49.1143 281.909C49.2603 281.522 49.2232 278.661 49.128 278.263C48.7279 276.586 48.8772 276.93 47.119 276.442C45.5785 276.014 44.1447 275.438 42.5858 275.17C38.3395 274.442 35.0675 274.339 31.4686 277.4C27.7258 280.584 25.9467 286.249 24.9483 291.333C22.9086 301.719 21.9686 312.487 22.6751 323.115ZM316.647 208.41C323.008 207.471 329.304 204.458 335.577 203.958C339.348 203.657 343.554 202.656 347.248 201.74C349.679 201.137 354.755 200.641 356.112 197.92C354.473 198.504 352.312 199.834 350.599 199.885C349.34 199.924 348.902 200.199 348.653 198.198C348.533 197.241 348.803 196.092 349.304 195.339C350.169 194.043 352.02 193.409 353.277 192.585C354.971 191.474 356.547 190.285 358.143 188.992C357.656 187.594 350.856 190.398 349.791 190.841C348.471 191.39 347.132 191.923 345.865 192.624C345.033 193.084 343.592 194.569 342.652 194.529C340.278 194.43 340.492 191.112 341.642 189.206C343.272 186.507 346.521 184.497 348.709 182.399C346.37 182.514 344.244 184.097 342.094 185.044C339.718 186.091 337.31 187.281 334.985 188.449C329.28 191.317 323.202 193.282 317.401 196.049C319.145 199.493 317.162 201.188 314.313 199.922C313.884 202.827 313.717 205.786 313.717 208.725C314.693 208.62 315.671 208.515 316.647 208.41ZM52.2479 91.1875C52.2797 90.5513 52.696 87.4476 52.2025 86.9105C52.0299 86.7228 49.2553 87.1751 48.9821 87.2215C47.1774 87.5283 45.6862 88.3104 43.9962 89.1439C39.8602 91.1837 35.6777 93.0238 31.5497 95.0774C23.8209 98.9223 16.1653 102.493 8.95013 107.492C14.3119 106.967 19.797 105.169 24.6787 102.548C26.7437 101.44 34.4941 93.9885 34.7222 100.472C34.8231 103.341 32.689 104.361 30.8872 105.744C28.681 107.436 26.5187 109.114 24.47 111.051C23.3804 112.082 14.6944 118.845 15.1146 119.927C17.3208 119.316 19.6929 117.388 21.636 116.044C23.7986 114.547 26.0671 113.216 28.3 111.856C29.5179 111.113 32.2969 108.535 33.6351 109.662C35.9538 111.616 32.7759 115.246 31.7317 116.581C33.7613 116.337 36.4808 112.916 38.0598 111.49C40.0566 109.687 42.1565 108.076 44.1832 106.301C46.3015 104.446 48.5196 102.706 50.6703 100.896C52.679 99.2061 52.3535 99.2157 52.1568 96.4305C52.0331 94.6816 52.1611 92.9335 52.2479 91.1875ZM140.093 210.451C142.706 210.14 145.048 208.279 147.557 207.696C150.029 207.122 152.363 205.528 154.794 204.624C157.992 203.435 161.229 202.555 164.532 201.884C167.304 201.321 169.98 200.1 172.755 199.727C178.481 198.957 183.948 198.067 189.713 199.016C192.567 199.485 195.067 200.179 197.619 201.758C200.459 203.515 200.739 203.429 203.789 201.874C202.835 198.903 199.218 196.931 196.791 196.326C193.134 195.414 189.3 195.825 185.576 195.969C179.144 196.217 172.467 197.835 166.305 199.84C154.491 203.684 143.137 208.161 132.279 214.566C133.198 216.027 134.166 214.251 135.231 213.5C136.785 212.402 138.507 211.516 140.093 210.451ZM240.593 99.5576C238.532 99.0861 236.472 98.8963 234.414 98.3291C231.814 97.6122 230.675 98.7028 228.255 100.104C229.224 100.614 230.458 101.499 231.488 101.807C233.302 102.351 232.695 101.911 234.42 101.112C235.95 100.403 238.83 100.117 240.404 100.487C244.62 101.478 243.944 107.24 243.541 111.081C245.618 109.912 245.881 107.712 246.62 105.473C247.419 103.05 248.28 100.85 248.895 98.3304C246.264 99.1271 243.326 99.5911 240.593 99.5576ZM273.689 190.858C281.169 187.625 289.57 188.451 297.264 187.697C300.225 187.407 304.318 187.926 307.233 189.025C308.629 189.551 310.201 189.937 311.526 190.649C312.237 191.032 312.812 191.951 313.543 192.235C314.975 192.791 314.901 192.465 316.435 191.491C317.78 190.637 319.136 189.823 320.519 189.055C328.884 184.409 337.325 180.289 345.933 176.415C348.168 175.409 350.39 174.732 352.687 173.854C354.137 173.3 356.673 172.17 358.233 172.745C363.672 174.748 355.759 182.271 353.975 184.208C356.195 184.088 360.271 182.889 361.555 185.747C362.088 186.932 361.9 188.665 361.423 189.851C361.074 190.719 360.312 191.221 359.928 192.04C359.203 193.586 359.482 193.03 359.593 194.578C359.898 198.876 359.171 200.778 356.078 203.535C353.155 206.141 349.374 207.252 345.887 208.392C339.79 210.387 333.392 210.953 327.217 212.674C324.313 213.484 321.281 214.008 318.369 214.619C315.134 215.298 311.329 214.772 308.592 216.851C303.12 221.006 298.103 226.191 292.029 229.196C286.669 231.849 281.672 233.147 275.913 234.291C270.491 235.37 264.876 234.604 259.641 234.759C253.518 234.94 247.839 234.456 242.003 232.413C236.068 230.335 230.343 227.677 225.294 223.703C222.44 221.458 219.6 219.295 216.916 216.767C213.642 213.683 211.413 210.03 208.964 206.068C207.558 207.825 206.434 208.8 204.593 209.924C210.213 217.073 214.96 225.365 220.294 232.809C222.517 235.912 224.361 239.257 226.469 242.425C228.555 245.56 229.942 249.44 232.233 252.358C234.371 255.081 235.819 258.237 237.632 261.259C239.855 264.964 242.845 268.206 245.212 271.813C247.654 275.535 250.154 279.207 252.807 282.698C255.265 285.933 257.881 289.12 260.181 292.482C264.859 299.32 270.403 305.499 275.722 311.675C276.813 312.941 278.011 314.168 278.979 315.563C279.693 316.592 280.388 317.273 281.247 318.345C281.968 319.243 282.848 320.811 283.437 321.896C284.476 323.813 285.099 324.654 286.464 326.311C287.365 327.403 289.161 329.579 288.776 331.274C288.54 332.315 287.451 332.35 287.145 333.22C286.975 333.704 287.327 334.322 287.314 334.808C287.25 337.195 288.249 337.856 289.893 339.604C291.549 341.367 293.689 342.777 295.64 344.092C297.111 345.084 298.637 346.432 300.267 345.527C301.399 344.897 302.576 343.698 303.767 342.986C306.783 341.185 310.039 339.568 313.114 338.116C319.986 334.871 326.874 331.339 333.471 327.181C337.191 324.836 341.25 322.514 345.347 321.383C347.192 320.874 349.139 319.592 350.497 321.494C351.846 323.381 350.976 325.955 350.22 327.862C352.128 327.543 354.657 326.921 355.892 329.11C356.36 329.939 356.056 332.127 356.567 332.609C356.793 332.822 358.615 332.358 358.975 332.468C363.627 333.885 362.005 341.866 359.665 344.871C354.32 351.738 346.346 355.124 339.389 359.079C337.568 360.114 335.725 361 333.849 361.851C331.446 362.941 329.248 364.319 326.809 365.336C322.746 367.032 318.819 369.496 314.859 371.368C310.816 373.28 306.314 374.235 302.066 375.652C298.463 376.855 290.815 379.6 290.737 372.86C287.336 375.926 282.987 365.916 281.256 363.552C279.694 361.42 278.14 359.254 276.659 357.047C275.306 355.032 273.977 350.132 272.205 348.819C271.122 348.016 269.924 349.622 268.258 350.005C265.367 350.669 263.934 349.727 261.495 348.172C257.027 345.323 252.907 341.819 248.326 339.201C243.791 336.608 239.921 332.847 235.668 329.696C231.592 326.676 227.183 324.16 223.356 320.806C215.852 314.227 207.125 309.684 200.084 302.378C196.455 298.612 192.196 295.475 188.323 291.983C186.558 290.392 184.691 289.038 182.858 287.565C181.827 286.736 180.834 285.505 179.705 284.874C178.584 284.249 179.153 284.003 178.105 284.475C177.507 284.745 176.822 286 176.33 286.506C169.056 293.987 160.842 297.525 151.661 300.863C149.583 301.619 147.649 302.44 145.539 303.079C143.527 303.689 142.054 304.739 139.864 305.106C135.824 305.782 131.845 305.819 127.776 305.847C123.77 305.874 119.648 305.945 115.757 306.346C111.754 306.759 107.59 305.965 103.66 305.588C101.671 305.398 99.6154 305.058 97.6226 304.707C95.6795 304.365 94.0384 304.799 92.1263 304.557C86.7512 303.878 81.9664 302.467 76.845 300.438C72.1716 298.586 67.3991 298.252 62.6702 296.706C60.1566 295.884 57.3095 295.208 54.993 293.832C53.6771 293.05 51.7401 290.24 51.1475 292.232C50.4454 291.184 49.9974 289.94 50.0742 288.591C48.2756 289.102 47.3659 291.792 46.0467 293.201C44.584 294.762 43.1441 295.786 42.1471 297.901C39.9164 302.632 41.3657 309.096 42.2448 314.058C43.1665 319.263 43.9994 325.152 43.4667 330.464C43.2728 332.401 42.8295 335.233 40.7714 335.36C38.6769 335.489 37.4503 331.682 36.7089 330.013C35.1057 334.437 33.0022 335.995 29.958 332.228C29.3791 334.737 30.938 344.876 26.5898 343.702C23.33 342.822 20.6116 334.565 19.642 331.461C16.45 321.246 16.9521 309.518 18.0572 298.9C19.1291 288.6 20.1236 277.269 27.334 269.886C30.4536 266.691 33.4975 266.167 37.4529 266.285C41.427 266.403 47.0083 268.46 49.6568 271.974C50.3131 270.674 48.9965 269.265 49.5256 267.919C50.232 266.122 51.7087 266.875 53.14 267.282C56.3738 268.2 59.3784 269.915 62.7081 270.563C64.4129 270.895 66.1686 270.794 67.8745 270.994C69.3758 271.171 69.7751 270.724 71.0781 270.457C72.105 270.247 73.6642 270.546 74.6338 270.156C75.0389 269.993 75.7158 269.147 76.2207 268.861C77.0447 268.394 78.2774 268.181 79.1817 268.032C84.6225 267.135 89.8239 264.7 95.092 262.626C101.493 260.106 107.71 257.677 113.387 253.199C118.584 249.1 124.179 245.057 128.471 239.696C130.396 237.292 131.51 234.531 132.553 231.54C133.469 228.912 132.285 228.574 131.175 226.134C130.199 223.99 130.027 221.968 128.346 220.672C125.888 218.78 122.982 218.416 120.568 216.196C117.6 213.468 117.702 209.121 117.049 204.965C115.712 196.466 116.786 186.208 118.608 177.921C120.609 168.819 123.536 160.015 127.478 151.813C131.194 144.081 136.22 138.282 141.62 132.208C140.262 131.116 137.918 130.953 136.301 130.115C133.939 128.89 132.007 127.074 129.948 125.387C126.105 122.236 122.623 118.79 118.496 116.136C114.664 113.669 110.622 111.582 106.536 109.99C104.463 109.182 102.006 109.387 99.8353 108.716C98.1416 108.193 96.2176 107.873 94.5769 107.175C93.7306 106.814 92.9885 106.022 92.1162 105.798C82.6339 103.359 72.1378 103.844 62.2914 103.782C60.1887 103.769 56.8312 103.055 54.8787 104.115C52.8412 105.221 50.5575 107.947 48.733 109.512C44.4377 113.195 39.9006 116.392 35.7296 120.241C30.7906 124.797 25.7456 129.314 20.626 133.607C18.8696 135.08 15.6643 138.649 14.2316 135.033C13.0028 131.93 15.4754 128.817 16.3754 126.173C13.8441 127.85 8.55617 132.504 7.23627 127.121C5.95997 121.917 10.008 117.037 12.6612 113.505C9.68469 114.208 3.94803 116.156 1.25595 113.761C-1.50389 111.306 0.863799 105.945 2.82816 104.062C8.81424 98.322 16.8007 94.7865 23.9665 91.5482C31.2383 88.2619 38.5623 85.8011 46.0229 83.5008C47.5576 83.0272 48.8775 81.5249 50.4703 81.3594C52.3056 81.1683 51.6327 82.5594 52.5053 80.1986C52.8848 79.1715 52.7446 77.9162 53.2438 76.9323C55.6717 72.152 58.788 79.2961 59.7241 81.7932C64.9121 79.3258 70.2015 78.1604 75.5028 76.3441C79.6921 74.9087 83.9993 73.3412 88.239 71.9542C90.5227 71.2069 92.8321 70.8336 95.1413 70.3403C97.3472 69.8692 99.9694 69.1072 102.317 68.8447C106.322 68.3962 110.568 67.9615 114.515 67.8561C133.797 67.3403 154.298 65.9187 169.919 81.8597C169.919 83.3131 173.941 87.2444 174.933 88.0453C177.698 90.2783 180.152 92.4708 182.716 95.1226C185.487 97.9893 187.704 100.468 189.347 104.361C190.763 107.715 191.109 111.417 191.864 115.018C193.879 112.36 194.5 114.86 194.887 117.047C195.304 119.398 195.801 120.811 197.098 122.739C199.869 126.86 203.509 129.021 207.962 129.531C208.78 129.624 211.485 129.891 212.246 129.529C213.627 128.872 213.214 128.48 213.806 126.713C214.257 125.367 214.922 124.382 215.511 123.136C216.23 122.542 216.502 121.749 216.327 120.756C216.346 120.32 216.366 119.883 216.385 119.446C217.883 118.428 219.588 123.119 220.138 123.965C221.735 126.421 223.458 126.837 226.052 126.837C225.883 125.195 225.507 125.102 226.843 124.351C227.668 123.888 228.849 124.213 229.631 124.581C231.878 125.636 231.829 126.154 234.369 124.949C236.246 124.058 237.928 122.899 239.627 121.628C241.073 120.547 241.301 120.363 241.856 118.472C242.281 117.025 242.212 115.102 242.371 113.601C240.656 114.792 239.652 117.09 237.771 118.272C235.862 119.471 233.56 120.221 231.483 119.117C227.159 116.82 228.377 110.467 229.653 106.436C227.676 106.043 225.607 104.682 224.343 102.888C223.492 101.68 222.877 100.175 221.967 98.7948C219.891 95.6489 214.526 94.8956 213.51 99.6997C212.992 102.145 214.221 103.019 216.158 103.33C218.465 103.7 219.027 103.043 218.187 106.198C217.262 106.75 216.974 107.609 217.325 108.775C217.267 109.163 217.209 109.551 217.152 109.939C216.942 110.916 216.492 111.672 216.246 112.611C215.549 115.274 215.428 116.003 212.828 116.815C208.266 118.238 202.968 118.981 198.265 119.448C196.701 119.603 195.043 119.583 195.561 117.124C195.989 115.094 198.902 114.407 200.378 113.78C202.09 113.054 205.25 112.716 206.716 111.668C208.278 110.551 208.128 108.522 207.778 106.365C207.341 103.672 206.897 101.624 206.968 98.7308C207.046 95.5623 208.03 94.4128 209.66 91.9044C205.362 93.2855 200.564 96.8979 196.101 96.8907C190.163 96.8811 191.264 89.8135 192.448 85.1657C190.278 85.59 186.911 86.6388 185.847 83.4941C184.603 79.8173 187.707 75.5725 189.611 73.1213C187.115 72.84 184.734 73.5381 183.825 70.0523C183.192 67.6258 183.969 64.7616 185.409 62.9308C189.182 58.1358 195.048 57.1774 200.217 56.501C203.076 56.1273 205.99 55.8159 208.858 56.1277C211.638 56.43 213.815 57.786 216.352 59.1478C219.004 60.572 220.807 62.5579 222.578 65.2758C223.41 66.5528 224.104 67.7909 224.57 69.3083C224.798 70.0486 225.011 73.7086 225.512 74.1275C226.254 74.7486 230.798 72.5875 232.093 72.6481C233.523 72.715 234.411 73.2308 235.256 74.6207C235.714 75.3744 236.181 78.1595 237.038 78.4634C237.452 78.6101 240.035 77.3774 240.642 77.27C241.525 77.1137 242.378 76.8892 243.282 76.7885C246.092 76.475 249.012 76.3872 251.738 77.3854C257.177 79.3763 260.275 85.0896 258.854 91.8203C258.588 93.0748 257.847 93.9906 257.522 95.1799C257.086 96.7787 257.245 98.452 256.917 100.105C256.226 103.588 254.945 105.656 252.348 107.467C260.696 115.159 251.642 132.642 243.018 123.821C240.568 127.799 235.232 130.645 231.229 131.752C225.835 133.244 220.827 132.369 217.942 126.608C217.615 127.597 217.084 128.661 216.922 129.691C216.796 130.074 216.669 130.457 216.543 130.839C216.166 131.419 216.347 131.754 217.086 131.844C217.59 133.493 217.96 133.661 217.217 135.657C222.729 133.447 228.539 139.194 232.345 143.453C234.909 146.323 236.273 150.532 237.878 154.124C239.762 158.338 241.196 162.741 242.935 167.023C244.498 170.871 245.463 175.052 247.17 178.816C248.784 182.377 251.395 184.945 254.104 187.227C256.617 189.343 259.139 191.459 262.354 192.339C266.018 193.342 270.108 191.922 273.689 190.858Z" fill="#2D4710"/>
<path fill-rule="evenodd" clip-rule="evenodd" d="M28.0273 210.293C28.3109 205.065 35.1392 200.305 38.2348 197.104C42.2492 192.953 46.2794 188.762 50.6874 185.096C61.7266 175.915 73.1977 167.647 85.4179 160.788C87.2875 159.739 100.917 152.251 101.292 156.483C101.517 159.015 95.9688 160.282 94.4523 161.04C91.1266 162.702 87.9718 164.792 84.7585 166.694C75.1159 172.401 66.3701 180.469 57.4435 187.766C52.1158 192.12 47.1325 197.042 41.8564 201.459C39.0443 203.813 36.5726 206.611 33.8568 209.052C31.9198 210.792 28.9573 214.468 28.0273 210.293Z" fill="#2D4710"/>
<path fill-rule="evenodd" clip-rule="evenodd" d="M258.654 244.247C260.163 243.539 261.902 250.633 262.561 251.899C263.818 254.312 265.193 256.806 266.718 258.992C270.24 264.042 273.816 268.883 277.97 273.263C281.951 277.462 286.448 281.437 291.225 284.379C292.6 285.227 302.907 289.023 299.023 292.814C297.822 293.985 294.062 292.875 292.773 292.409C290.547 291.602 288.08 290.257 286.042 288.952C281.766 286.213 277.767 282.719 274.34 278.681C270.423 274.064 267.22 269 264.067 263.67C261.239 258.889 256.91 250.144 258.654 244.247Z" fill="#2D4710"/>
<path fill-rule="evenodd" clip-rule="evenodd" d="M86.4844 184.941C85.8885 186.449 84.8604 186.039 83.7481 186.519C82.0196 187.265 80.3772 188.63 78.7771 189.694C75.702 191.739 72.6569 193.867 69.6476 196.04C64.0568 200.076 58.6555 204.445 53.6657 209.432C50.5212 205.772 66.2655 192.877 68.3328 191.337C71.4231 189.035 74.6309 186.66 77.9465 184.808C80.5472 183.356 86.369 179.409 86.4844 184.941Z" fill="#2D4710"/>
<path fill-rule="evenodd" clip-rule="evenodd" d="M278.44 254.441C280.527 253.942 281.127 257.724 281.996 258.906C283.376 260.783 285.135 262.389 286.783 263.882C288.79 265.699 290.597 267.572 292.705 269.235C294.419 270.587 298.196 272.695 297.871 275.668C297.129 282.463 286.563 272.685 284.786 270.651C282.251 267.753 274.838 258.758 278.44 254.441Z" fill="#2D4710"/>
<path fill-rule="evenodd" clip-rule="evenodd" d="M302.295 269.36C300.858 275.16 291.19 264.804 291.925 260.634C292.592 256.85 296.085 260.765 297.556 262.202C299.585 264.183 302.199 266.142 302.295 269.36Z" fill="#2D4710"/>
<path fill-rule="evenodd" clip-rule="evenodd" d="M77.9983 206.275C75.7387 205.529 70.1461 208.812 73.5339 203.803C74.502 202.372 75.594 201.008 76.9444 201.771C78.3104 202.544 79.0059 204.962 77.9983 206.275Z" fill="#2D4710"/>
<path fill-rule="evenodd" clip-rule="evenodd" d="M219.014 134.957C218.48 135.214 217.946 135.472 217.412 135.729C217.603 135.111 217.795 134.493 217.987 133.875C218.188 134.497 218.53 134.857 219.014 134.957Z" fill="#2D4710"/>
<path fill-rule="evenodd" clip-rule="evenodd" d="M106.104 68.6116C104.87 68.867 103.751 68.9129 102.5 68.8679C103.72 68.6213 104.87 68.626 106.104 68.6116Z" fill="#2D4710"/>
<path fill-rule="evenodd" clip-rule="evenodd" d="M17.3575 313.266C17.3977 314.503 17.4374 315.739 17.4767 316.974C17.4366 315.736 17.3973 314.501 17.3575 313.266Z" fill="#2D4710"/>
<path fill-rule="evenodd" clip-rule="evenodd" d="M259.191 90.3021C259.168 89.2198 259.145 88.1376 259.122 87.0573C259.5 88.1333 259.42 89.2159 259.191 90.3021Z" fill="#2D4710"/>
<path fill-rule="evenodd" clip-rule="evenodd" d="M110.508 68.4076C109.574 68.4127 108.639 68.4183 107.705 68.4234C108.776 68.0567 109.739 68.0512 110.508 68.4076Z" fill="#2D4710"/>
<path fill-rule="evenodd" clip-rule="evenodd" d="M116.765 190.427C116.731 191.355 116.696 192.282 116.663 193.208C116.697 192.281 116.731 191.354 116.765 190.427Z" fill="#2D4710"/>
<path fill-rule="evenodd" clip-rule="evenodd" d="M134.932 67.2518C134.131 67.3218 133.33 67.3918 132.529 67.4618C133.33 67.3918 134.131 67.3218 134.932 67.2518Z" fill="#2D4710"/>
<path fill-rule="evenodd" clip-rule="evenodd" d="M138.135 67.4567L135.732 67.2569C136.533 67.3236 137.334 67.3899 138.135 67.4567Z" fill="#2D4710"/>
<path fill-rule="evenodd" clip-rule="evenodd" d="M35.6348 266.278C34.8287 266.299 34.0064 266.621 33.2324 266.046C34.033 266.123 34.8342 266.201 35.6348 266.278Z" fill="#2D4710"/>
<path fill-rule="evenodd" clip-rule="evenodd" d="M357.549 184.015C356.772 184.611 355.947 184.146 355.146 184.215C355.947 184.148 356.748 184.082 357.549 184.015Z" fill="#2D4710"/>
<path fill-rule="evenodd" clip-rule="evenodd" d="M198.193 56.9839C197.425 57.5907 196.598 57.2305 195.791 57.2008C196.592 57.1285 197.393 57.0562 198.193 56.9839Z" fill="#2D4710"/>
<path fill-rule="evenodd" clip-rule="evenodd" d="M68.8672 270.976C68.1995 270.984 67.5322 270.992 66.8652 270.999C67.5306 270.571 68.1982 270.649 68.8672 270.976Z" fill="#2D4710"/>
<path fill-rule="evenodd" clip-rule="evenodd" d="M187.383 72.9473C187.784 72.9288 188.186 72.9102 188.584 72.8912C188.181 72.9098 187.782 72.9283 187.383 72.9473Z" fill="#2D4710"/>
<path fill-rule="evenodd" clip-rule="evenodd" d="M126.523 67.2741C125.989 67.3612 125.455 67.4483 124.922 67.535C125.406 66.8536 125.991 67.3779 126.523 67.2741Z" fill="#2D4710"/>
<path fill-rule="evenodd" clip-rule="evenodd" d="M279.473 189.153C278.939 189.23 278.405 189.306 277.871 189.383C278.405 189.306 278.939 189.23 279.473 189.153Z" fill="#2D4710"/>
<path fill-rule="evenodd" clip-rule="evenodd" d="M32.832 334.401C33.2335 334.371 33.6354 334.342 34.0332 334.312C33.6306 334.343 33.2313 334.372 32.832 334.401Z" fill="#2D4710"/>
<path fill-rule="evenodd" clip-rule="evenodd" d="M282.275 188.776C281.741 188.795 281.208 188.814 280.674 188.834C281.208 188.814 281.742 188.795 282.275 188.776Z" fill="#2D4710"/>
<path fill-rule="evenodd" clip-rule="evenodd" d="M217.225 108.844C217.217 108.379 217.208 107.915 217.199 107.453C217.208 107.918 217.217 108.381 217.225 108.844Z" fill="#2D4710"/>
<path fill-rule="evenodd" clip-rule="evenodd" d="M208.05 109.307C208.018 109.926 207.987 110.545 207.956 111.161C207.988 110.542 208.019 109.925 208.05 109.307Z" fill="#2D4710"/>
<path fill-rule="evenodd" clip-rule="evenodd" d="M119.717 306.115C120.119 306.092 120.52 306.069 120.918 306.046C120.515 306.069 120.116 306.092 119.717 306.115Z" fill="#2D4710"/>
<path fill-rule="evenodd" clip-rule="evenodd" d="M6.80664 114.643C7.20852 114.64 7.61003 114.636 8.00781 114.633C7.60481 114.636 7.20554 114.64 6.80664 114.643Z" fill="#2D4710"/>
<path fill-rule="evenodd" clip-rule="evenodd" d="M302.695 188.061C302.161 188.06 301.627 188.059 301.094 188.058C301.628 187.75 302.162 187.422 302.695 188.061Z" fill="#2D4710"/>
<path fill-rule="evenodd" clip-rule="evenodd" d="M302.012 269.229C301.993 268.611 301.974 267.992 301.956 267.375C302.291 267.982 302.341 268.598 302.012 269.229Z" fill="#2D4710"/>
<path fill-rule="evenodd" clip-rule="evenodd" d="M293.486 187.775C292.952 187.844 292.419 187.912 291.885 187.98C292.419 187.912 292.952 187.844 293.486 187.775Z" fill="#2D4710"/>
<path fill-rule="evenodd" clip-rule="evenodd" d="M86.7048 184.865C86.6912 184.246 86.678 183.628 86.6643 183.01C86.6784 183.629 86.6916 184.247 86.7048 184.865Z" fill="#2D4710"/>
<path fill-rule="evenodd" clip-rule="evenodd" d="M55.6543 103.998C55.9222 103.984 56.1906 103.969 56.4551 103.955C56.1857 103.969 55.9203 103.984 55.6543 103.998Z" fill="#2D4710"/>
<path fill-rule="evenodd" clip-rule="evenodd" d="M143.74 68.4255C143.206 68.3309 142.673 68.2363 142.139 68.1422C142.673 68.2363 143.206 68.3309 143.74 68.4255Z" fill="#2D4710"/>
<path fill-rule="evenodd" clip-rule="evenodd" d="M40.4395 266.337C39.9056 266.257 39.3717 266.176 38.8379 266.095C39.3717 266.176 39.9056 266.257 40.4395 266.337Z" fill="#2D4710"/>
<path fill-rule="evenodd" clip-rule="evenodd" d="M84.8828 266.57C84.3488 266.643 83.8148 266.716 83.2812 266.79C83.8152 266.716 84.3488 266.643 84.8828 266.57Z" fill="#2D4710"/>
<path fill-rule="evenodd" clip-rule="evenodd" d="M299.092 187.709C298.56 188.156 298.026 188.158 297.49 187.72C298.024 187.716 298.558 187.713 299.092 187.709Z" fill="#2D4710"/>
<path fill-rule="evenodd" clip-rule="evenodd" d="M74.873 269.693C74.6723 270.395 74.1201 270.093 73.6719 270.086C74.0723 269.955 74.473 269.824 74.873 269.693Z" fill="#2D4710"/>
<path fill-rule="evenodd" clip-rule="evenodd" d="M188.984 85.9279C189.252 85.908 189.52 85.888 189.785 85.869C189.516 85.8894 189.25 85.9084 188.984 85.9279Z" fill="#2D4710"/>
<path fill-rule="evenodd" clip-rule="evenodd" d="M115.312 67.7051C114.779 67.7821 114.244 67.859 113.711 67.9355C114.245 67.8586 114.779 67.7821 115.312 67.7051Z" fill="#2D4710"/>
<path fill-rule="evenodd" clip-rule="evenodd" d="M312.305 215.209C312.573 215.22 312.841 215.232 313.105 215.244C312.837 215.234 312.57 215.221 312.305 215.209Z" fill="#2D4710"/>
<path fill-rule="evenodd" clip-rule="evenodd" d="M118.363 210.823C118.332 211.287 118.3 211.752 118.268 212.214C118.299 211.748 118.331 211.285 118.363 210.823Z" fill="#2D4710"/>
<path fill-rule="evenodd" clip-rule="evenodd" d="M196.592 119.263C196.86 119.27 197.128 119.277 197.393 119.283C197.124 119.276 196.857 119.27 196.592 119.263Z" fill="#2D4710"/>
<path fill-rule="evenodd" clip-rule="evenodd" d="M72.8711 299.096C73.1393 299.117 73.4074 299.139 73.6719 299.16C73.4028 299.138 73.1368 299.116 72.8711 299.096Z" fill="#2D4710"/>
<path fill-rule="evenodd" clip-rule="evenodd" d="M287.08 188.497C286.546 188.495 286.012 188.493 285.479 188.491C286.014 188.01 286.547 188.163 287.08 188.497Z" fill="#2D4710"/>
<path fill-rule="evenodd" clip-rule="evenodd" d="M339.531 210.161C339.799 210.139 340.067 210.116 340.332 210.094C340.063 210.116 339.797 210.139 339.531 210.161Z" fill="#2D4710"/>
<path fill-rule="evenodd" clip-rule="evenodd" d="M347.539 320.788C347.005 320.872 346.471 320.956 345.938 321.04C346.472 320.956 347.005 320.872 347.539 320.788Z" fill="#2D4710"/>
<path fill-rule="evenodd" clip-rule="evenodd" d="M244.238 76.5154C243.704 76.5905 243.17 76.6651 242.637 76.7398C243.171 76.6651 243.705 76.5905 244.238 76.5154Z" fill="#2D4710"/>
<path fill-rule="evenodd" clip-rule="evenodd" d="M186.035 81.0312C186 81.4957 185.964 81.9598 185.928 82.4219C185.963 81.9566 185.999 81.4941 186.035 81.0312Z" fill="#2D4710"/>
<path fill-rule="evenodd" clip-rule="evenodd" d="M140.137 210.375C138.511 211.423 136.755 212.302 135.154 213.373C134.023 214.129 133.102 215.905 132.129 214.421C134.274 213.207 137.749 210.115 140.137 210.375Z" fill="#2D4710"/>
<path fill-rule="evenodd" clip-rule="evenodd" d="M37.141 303.995C36.8121 302.91 36.8165 301.827 37.1731 300.75C37.1627 301.833 37.1515 302.914 37.141 303.995Z" fill="#2D4710"/>
<path fill-rule="evenodd" clip-rule="evenodd" d="M39.1526 319.292C39.1798 319.91 39.2075 320.528 39.2348 321.146C39.1453 321.153 38.4513 319.331 39.1526 319.292Z" fill="#2D4710"/>
<path fill-rule="evenodd" clip-rule="evenodd" d="M52.1865 93.5469C52.2295 92.7736 52.2732 92.0004 52.3157 91.2292C52.2728 92.0029 52.2295 92.7749 52.1865 93.5469Z" fill="#2D4710"/>
<path fill-rule="evenodd" clip-rule="evenodd" d="M242.236 99.3527C241.701 99.3444 241.166 99.3365 240.635 99.3296C241.171 99.3379 241.704 99.3453 242.236 99.3527Z" fill="#2D4710"/>
<path fill-rule="evenodd" clip-rule="evenodd" d="M122.92 296.902C123.587 296.84 124.255 296.779 124.922 296.718C124.255 296.779 123.587 296.84 122.92 296.902Z" fill="#2D4710"/>
<path fill-rule="evenodd" clip-rule="evenodd" d="M22.9321 324.391C22.9923 325.009 23.0529 325.628 23.1131 326.245C23.0525 325.626 22.9919 325.008 22.9321 324.391Z" fill="#2D4710"/>
<path fill-rule="evenodd" clip-rule="evenodd" d="M97.2949 295.528C97.8289 295.455 98.3628 295.383 98.8965 295.31C98.3625 295.383 97.8286 295.456 97.2949 295.528Z" fill="#2D4710"/>
<path fill-rule="evenodd" clip-rule="evenodd" d="M92.4902 294.43C93.0186 294.577 93.6204 293.913 94.0918 294.682C93.5575 294.597 93.0242 294.514 92.4902 294.43Z" fill="#2D4710"/>
<path fill-rule="evenodd" clip-rule="evenodd" d="M22.6691 311.875C22.6378 312.339 22.6061 312.804 22.5752 313.266C22.6073 312.8 22.6382 312.338 22.6691 311.875Z" fill="#2D4710"/>
<path fill-rule="evenodd" clip-rule="evenodd" d="M34.2119 111.161C34.2262 111.626 34.2404 112.09 34.2555 112.552C34.2416 112.087 34.2266 111.624 34.2119 111.161Z" fill="#2D4710"/>
<path fill-rule="evenodd" clip-rule="evenodd" d="M28.144 317.437C28.1998 316.974 28.2556 316.51 28.3113 316.047C28.2552 316.511 28.1998 316.974 28.144 317.437Z" fill="#2D4710"/>
<path fill-rule="evenodd" clip-rule="evenodd" d="M316.709 208.397C317.243 208.314 317.777 208.232 318.311 208.15C317.777 208.232 317.243 208.314 316.709 208.397Z" fill="#2D4710"/>
<path fill-rule="evenodd" clip-rule="evenodd" d="M22.5646 321.609C22.6031 322.074 22.6412 322.537 22.6797 323C22.6412 322.536 22.6031 322.073 22.5646 321.609Z" fill="#2D4710"/>
<path fill-rule="evenodd" clip-rule="evenodd" d="M313.982 206.188C314.323 206.65 314.305 207.114 313.99 207.578C313.987 207.113 313.984 206.65 313.982 206.188Z" fill="#2D4710"/>
<path fill-rule="evenodd" clip-rule="evenodd" d="M191.387 204.608C191.119 204.58 190.851 204.551 190.586 204.522C190.855 204.55 191.121 204.579 191.387 204.608Z" fill="#2D4710"/>
<path fill-rule="evenodd" clip-rule="evenodd" d="M16.416 105.487L18.0176 105.247L16.416 105.487Z" fill="#2D4710"/>
<path fill-rule="evenodd" clip-rule="evenodd" d="M284.824 213.568C281.86 214.066 284.593 209.318 285.396 208.659C286.331 207.894 287.32 207.589 288.226 206.669C288.792 206.094 289.435 204.706 290.304 204.802C292.223 205.011 291.358 208.195 290.786 209.561C289.665 212.234 287.32 213.613 284.824 213.568Z" fill="#2D4710"/>
<path fill-rule="evenodd" clip-rule="evenodd" d="M188.624 158.906C186.879 158.19 178.058 156.249 181.965 152.113C184.546 149.38 191.717 156.366 188.624 158.906Z" fill="#2D4710"/>
<path fill-rule="evenodd" clip-rule="evenodd" d="M148.151 191.293C147.878 187.68 156.345 183.678 155.255 188.425C155.001 189.529 152.602 192.252 151.947 192.973C150.194 194.905 148.152 194.484 148.151 191.293Z" fill="#2D4710"/>
<path fill-rule="evenodd" clip-rule="evenodd" d="M68.8672 91.4284C69.4409 89.0867 70.073 87.9863 72.0775 87.0817C73.3589 86.5026 75.4817 85.9765 75.6676 88.3924C75.805 90.1753 73.6322 91.9096 72.581 92.6684C70.7009 94.0261 69.6655 93.9541 68.8672 91.4284Z" fill="#2D4710"/>
<path fill-rule="evenodd" clip-rule="evenodd" d="M183.373 177.615C183.394 180.072 182.651 182.962 180.781 184.438C179.318 185.593 175.99 186.136 177.253 182.789C177.638 181.77 178.724 181.265 179.388 180.51C180.48 179.266 180.57 177.918 181.181 176.754C181.39 176.355 181.06 175.413 181.716 175.181C182.813 174.793 183.449 176.723 183.373 177.615Z" fill="#2D4710"/>
<path fill-rule="evenodd" clip-rule="evenodd" d="M223.093 157.516C224.602 157.513 226.029 158.141 225.151 160.135C224.485 161.646 221.595 162.806 220.288 163.018C218.609 163.29 216.734 162.689 217.655 160.226C218.423 158.176 221.431 157.991 223.093 157.516Z" fill="#2D4710"/>
<path fill-rule="evenodd" clip-rule="evenodd" d="M235.43 189.965C235.367 194.471 228.354 189.762 229.076 186.382C229.985 182.123 234.868 187.976 235.43 189.965Z" fill="#2D4710"/>
<path fill-rule="evenodd" clip-rule="evenodd" d="M154.948 110.693C154.948 114.52 147.981 109.619 148.582 106.271C149.383 101.808 155.094 107.802 154.948 110.693Z" fill="#2D4710"/>
<path fill-rule="evenodd" clip-rule="evenodd" d="M148.076 94.474C145.133 91.7498 151.882 84.741 153.82 87.8271C155.575 90.6223 149.853 94.3073 148.076 94.474Z" fill="#2D4710"/>
<path fill-rule="evenodd" clip-rule="evenodd" d="M150.111 151.953C148.498 151.785 146.639 151.804 145.219 150.733C144.183 149.952 142.384 146.935 143.962 145.632C144.934 144.83 147.387 147.114 148.383 147.714C150.081 148.737 151.21 149.374 150.111 151.953Z" fill="#2D4710"/>
<path fill-rule="evenodd" clip-rule="evenodd" d="M218.393 177.447C214.592 177.505 213.391 172.188 217.97 172.874C219.187 173.056 222.188 173.395 222.216 175.251C222.25 177.391 219.83 177.173 218.393 177.447Z" fill="#2D4710"/>
<path fill-rule="evenodd" clip-rule="evenodd" d="M179.775 128.46C179.502 130.479 179.031 131.964 177.5 133.144C176.184 134.159 173.6 135.508 173.778 132.479C173.885 130.676 179.073 123.929 179.775 128.46Z" fill="#2D4710"/>
<path fill-rule="evenodd" clip-rule="evenodd" d="M105.781 85.6667C107.293 86.5053 109.268 95.4374 107.24 96.2227C104.017 97.4716 104.748 87.2479 105.781 85.6667Z" fill="#2D4710"/>
<path fill-rule="evenodd" clip-rule="evenodd" d="M171.495 169.568C169.146 166.481 175.302 160.345 176.784 163.484C178.008 166.078 172.923 168.472 171.495 169.568Z" fill="#2D4710"/>
<path fill-rule="evenodd" clip-rule="evenodd" d="M129.334 87.7388C129.748 83.009 134.446 89.993 134.114 92.2671C133.533 96.2498 129.117 89.8571 129.334 87.7388Z" fill="#2D4710"/>
<path fill-rule="evenodd" clip-rule="evenodd" d="M132.93 205.371C132.905 208.528 127.552 205.255 128.176 201.922C128.88 198.157 132.89 203.611 132.93 205.371Z" fill="#2D4710"/>
<path fill-rule="evenodd" clip-rule="evenodd" d="M241.035 207.584C242.622 202.092 243.55 205.828 243.996 209.294C244.138 210.401 244.783 213.465 243.124 213.113C241.582 212.786 241.16 208.746 241.035 207.584Z" fill="#2D4710"/>
<path fill-rule="evenodd" clip-rule="evenodd" d="M260.445 210.823C261.688 211.809 264.175 219.186 261.381 218.138C259.25 217.339 258.808 212.278 260.445 210.823Z" fill="#2D4710"/>
<path fill-rule="evenodd" clip-rule="evenodd" d="M197.685 180.693C197.827 182.674 198.059 183.352 198.97 184.983C199.752 186.383 200.262 187.037 199.16 188.573C197.853 187.418 196.273 186.52 195.883 184.595C195.581 183.108 195.985 180.754 197.685 180.693Z" fill="#2D4710"/>
<path fill-rule="evenodd" clip-rule="evenodd" d="M160.468 160.297C159.547 159.45 156.337 154.932 157.058 153.293C157.947 151.269 162.422 157.185 160.468 160.297Z" fill="#2D4710"/>
<path fill-rule="evenodd" clip-rule="evenodd" d="M220.931 193.208C221.926 194.229 221.467 196.386 221.637 197.706C221.81 199.044 222.772 200.83 221.762 202.016C219.279 200.372 219.363 195.555 220.931 193.208Z" fill="#2D4710"/>
<path fill-rule="evenodd" clip-rule="evenodd" d="M135.732 176.045C135.716 174.452 138.993 171.554 139.673 173.415C140.257 175.013 136.616 179.797 135.732 176.045Z" fill="#2D4710"/>
</g>
<path fill-rule="evenodd" clip-rule="evenodd" d="M416.685 175.612C428.546 180.252 440.278 185.707 452.039 190.857C453.362 191.436 453.359 191.534 454.542 190.488C457.761 187.644 461.041 184.943 464.358 182.354C474.365 174.548 484.652 168.302 495.67 164.329C503.48 161.512 511.42 159.278 519.386 157.638C518.576 161.295 517.004 165.107 515.061 167.682C513.555 169.678 511.503 170.77 509.641 171.84C504.11 175.023 498.318 177.249 492.881 180.787C487.335 184.396 483.832 191.899 482.779 200.604C482.582 202.232 482.594 202.48 483.505 203.301C484.526 204.223 485.767 204.762 486.892 205.324C495.931 209.841 505.462 212.622 514.809 215.363C519.77 216.818 524.75 218.171 529.755 219.261C532.861 219.937 536.143 220.845 539.298 220.575C552.818 219.418 560.832 195.809 564.79 179.841C577.006 189.549 591.021 195.754 604.704 198.748C621.296 202.378 642.196 202.577 655.311 184.641C661.557 176.098 665.393 164.53 668.211 152.88C659.019 151.724 649.868 149.701 640.752 147.656C639.16 147.298 637.569 146.934 635.978 146.564C635.339 146.415 634.356 145.888 633.701 146.028C632.708 146.24 631.425 147.821 630.545 148.521C623.8 153.891 616.826 158.816 609.59 162.596C605.713 164.62 601.687 166.411 597.576 167.011C593.166 167.655 588.65 166.332 584.391 164.752C573.707 160.789 562.53 154.084 553.619 144.422C551.452 148.956 547.539 152.027 543.808 149.839C539.722 147.443 537.45 141.159 535.261 135.99C534.463 134.108 532.96 134.095 531.477 133.54C527.334 131.989 523.14 130.725 518.926 129.676C505.086 126.232 490.856 125.064 476.888 127.44C463.258 129.758 449.839 136.208 437.821 145.903C432.593 150.121 427.503 155.007 423.159 161.045C420.415 164.858 417.209 169.849 416.685 175.612Z" fill="#4D7520"/>
<path fill-rule="evenodd" clip-rule="evenodd" d="M457.86 44.472C462.137 46.5729 465.996 49.6596 469.766 53.2539C471.603 55.0053 473.441 57.0549 475.471 58.2951C477.274 59.3952 479.241 59.8958 481.093 60.7998C489.386 64.8503 498.385 65.6649 506.819 61.7709C515.416 57.8013 522.713 49.2764 531.603 46.6025C540.274 43.9947 549.092 44.5714 557.418 49.2938C561.462 51.5876 564.872 55.442 568.324 59.1953C571.631 62.7923 575.101 66.34 577.661 71.1417C580.175 75.8572 581.627 81.7252 582.734 87.4314C583.373 90.7222 583.668 94.1203 583.622 97.5433C583.59 99.9381 582.727 102.251 583.235 104.566C583.947 107.813 584.984 110.199 584.717 113.813C584.501 116.724 583.599 119.233 582.189 121.276C580.743 123.372 579.012 124.811 577.084 125.721C575.625 126.408 575.165 126.235 574.317 124.369C571.944 127.521 570.249 131.504 567.275 133.586C565.799 134.62 564.288 135.118 562.661 135.27C561.429 135.384 560.299 135.437 559.259 136.536C558.166 137.69 554.174 142.837 555.701 144.862C556.592 146.043 558.671 146.277 559.804 146.956C561.39 147.905 562.915 149.07 564.354 150.433C569.619 155.421 574.86 158.533 580.948 160.765C587.268 163.083 593.641 164.337 600.162 164.371C606.086 164.403 612.292 163.742 617.784 160.224C620.421 158.536 622.966 156.296 625.123 153.493C627.275 150.695 628.596 146.805 630.807 144.201C632.239 142.516 630.915 139.921 630.473 137.608C629.573 132.902 628.885 127.544 628.612 122.678C628.347 117.951 627.903 113.238 627.331 108.56C626.724 103.602 625.46 98.986 624.567 94.1431C623.909 90.5721 623.247 86.381 624.01 82.7344C624.389 80.9253 625.228 79.0137 626.422 78.1505C627.489 77.3781 628.147 78.1161 629.103 78.0331C631.909 77.791 634.076 79.4694 636.193 82.2157C637.337 83.6997 638.663 84.9991 639.752 86.5533C640.6 87.7618 640.801 89.7119 641.705 90.7835C643.188 85.229 644.743 78.1679 649.775 81.3445C653.755 83.8583 654.267 93.303 656.199 98.2268C657.284 96.9158 657.406 94.3323 657.828 92.5048C658.266 90.6133 659.002 88.6155 660.04 87.2775C662.307 84.3552 665.073 85.5288 666.633 89.0295C667.467 90.9009 666.971 93.0493 667.799 94.8974C668.621 96.7303 668.364 98.8718 668.7 101.006C669.125 103.712 669.639 106.378 669.981 109.114C670.14 110.379 670.37 111.806 670.33 113.104C670.313 113.642 670.016 114.568 670.108 115.099C670.227 115.794 670.79 116.42 670.996 117.107C671.274 118.032 671.171 118.703 671.202 119.657C671.259 121.373 671.572 122.78 671.908 124.475C672.754 128.744 672.54 134.147 671.287 138.19C670.637 140.285 670.182 141.809 669.988 144.052C669.864 145.5 669.12 146.819 669.165 148.375C669.227 150.541 673.177 153.881 670.059 155.318C668.756 155.918 668.478 155.604 668.122 157.787C667.769 159.953 667.369 162.061 666.79 164.125C665.562 168.504 663.745 172.426 662.031 176.415C660.176 180.732 658.228 184.904 655.488 188.124C652.946 191.109 650.033 193.537 647.131 195.686C641.019 200.214 634.218 202.741 627.356 202.496C620.037 202.235 612.614 203.249 605.362 201.426C597.937 199.559 590.692 196.468 583.298 194.395C579.976 193.464 576.879 192.448 573.857 190.149C570.79 187.816 567.73 185.434 564.925 182.46C562.992 189.256 561.951 196.34 559.18 202.592C556.761 208.048 553.844 213.178 550.273 217.09C546.785 220.913 542.228 223.772 537.836 224.018C536.496 224.092 534.435 223.229 533.474 224.711C532.993 225.452 532.944 226.925 532.753 227.876C532.428 229.496 531.957 231.076 531.696 232.722C531.299 235.217 532.896 235.256 534.296 236.268C536.173 237.627 538.005 239.111 539.82 240.639C541.673 242.201 543.441 243.998 545.297 245.536C546.892 246.856 548.538 247.875 550.073 249.37C553.699 252.906 557.673 255.264 561.568 258.062C565.738 261.058 569.793 264.401 573.89 267.601C582.006 273.941 590.147 280.521 597.809 287.993C601.386 291.481 604.825 295.113 608.493 298.411C611.914 301.489 615.819 305.091 617.997 310.14C619.696 314.077 622.136 315.942 624.944 318.088C626.599 319.353 627.623 319.592 628.967 317.522C630.286 315.491 631.561 313.471 632.953 311.533C638.66 303.588 643.543 294.892 648.302 285.743C651.835 278.951 656.68 270.796 663.169 272.285C665.114 272.731 666.406 274.059 667.845 275.928C668.821 277.196 670.585 278.026 671.236 279.668C671.612 280.616 671.769 281.831 672.148 282.826C672.544 283.867 673.036 284.881 673.301 286.019C673.749 287.944 672.783 291.003 673.746 292.571C674.451 293.719 673.796 296.423 673.603 297.72C673.248 300.12 672.946 302.556 672.384 304.873C671.941 306.697 671.506 309.197 670.573 310.621C669.741 311.891 668.765 311.766 668.983 313.966C668.082 313.526 667.308 316.689 667.054 317.487C666.372 319.63 665.626 321.39 664.527 323.167C661.749 327.656 658.568 330.695 654.964 333.549C653.649 334.59 650.923 336.038 650.617 338.445C650.324 340.756 651.224 342.633 650.591 345.101C649.277 350.237 646.323 355.652 643.911 359.795C641.742 363.522 639.639 366.013 636.16 365.138C633.079 364.364 630.031 362.057 627.466 359.498C624.378 356.417 621.106 354.1 617.771 351.654C616.129 350.451 614.487 349.339 613.064 347.61C611.742 346.003 610.595 344.193 609.062 342.999C607.97 342.149 606.544 341.547 606.089 339.654C605.593 337.589 606.499 336.301 607.27 334.821C607.788 333.828 608.074 333.674 607.627 332.876C607.27 332.24 606.291 331.7 605.798 331.313C604.607 330.375 603.417 329.555 602.144 330.585C600.724 331.734 599.753 334.111 598.689 335.838C597.414 337.906 595.982 339.791 594.583 341.677C591.81 345.419 588.771 348.773 586.062 352.603C585.442 353.478 584.222 355.699 583.199 355.278C582.444 354.968 582.841 354.311 582.452 353.804C582.034 353.26 581.678 353.253 581.142 352.664C579.808 351.199 579.401 348.389 578.002 346.872C576.564 345.313 574.789 344.193 573.232 342.909C566.127 337.052 559.205 330.735 552.711 323.494C549.454 319.864 546.378 315.925 543.224 312.111C541.739 310.316 540.233 308.349 538.582 306.891C537.076 305.561 535.402 304.631 533.868 303.355C530.581 300.622 527.064 298.529 523.81 295.707C522.28 294.38 521.146 292.598 519.723 291.12C518.477 289.826 517.439 289.06 516.512 287.175C516.072 288.599 514.863 286.742 514.426 286.306C514.082 285.962 513.642 285.72 513.323 285.327C513.003 284.931 512.809 284.051 512.565 283.776C512.026 283.167 511.4 283.306 510.676 282.925C509.708 282.416 508.432 281.06 507.689 280.023C507.174 279.307 508.014 279.871 507.144 278.992C506.739 278.583 506.045 278.473 505.59 278.039C504.51 277.012 503.519 275.692 502.488 274.557C500.62 272.503 498.205 270.634 497.145 267.431C491.45 274.291 485.951 281.736 479.412 286.869C473.095 291.828 465.79 294.08 459.046 297.501C452.106 301.021 445.098 304.559 438.042 307.543C434.612 308.993 431.075 310.034 427.569 311.014C423.973 312.02 420.426 311.72 416.817 312.288C415.043 312.567 413.267 312.477 411.494 312.729C409.861 312.961 408.277 313.57 406.655 313.886C405.226 314.165 403.614 313.93 402.239 314.5C401.23 314.918 399.898 316.402 399.159 314.472C398.618 315.66 398.446 315.099 397.741 315.023C396.99 314.942 396.763 314.99 396.028 315.196C394.831 315.531 393.51 315.661 392.494 314.282C392.03 316.753 387.525 314.506 386.988 312.872C386.383 315.489 380.912 313.231 380.833 310.776C380.766 308.697 381.707 305.708 382.095 303.755C382.729 300.568 383.515 297.451 384.336 294.359C385.204 291.089 386.095 287.83 386.988 284.574C387.38 283.143 387.751 281.69 388.199 280.295C388.419 279.61 388.991 278.589 388.981 277.798C388.954 275.488 386.131 275.323 384.937 274.747C384.035 274.311 383.118 273.851 382.261 273.247C381.639 272.808 380.892 271.8 380.203 271.661C378.626 271.34 378.983 273.96 378.811 275.57C378.591 277.641 377.813 278.707 376.318 278.722C374.571 278.739 369.589 274.332 368.649 277.692C368.208 279.265 368.328 282.284 368.167 283.975C367.901 286.747 368.007 289.504 368.265 292.268C368.69 296.82 370.092 302.578 368.514 306.94C365.363 315.654 354.435 310.403 350.948 304.918C345.811 296.841 345.961 284.736 348.422 274.957C349.619 270.201 351.353 265.104 353.619 261.236C354.626 259.517 356.541 257.859 356.873 255.497C357.149 253.539 356.111 251.734 356.33 249.727C356.589 247.344 357.963 245.899 359.141 244.454C360.367 242.95 361.56 241.311 362.957 240.146C366.189 237.451 369.856 239.078 373.07 241.056C376.584 243.22 379.951 246.122 383.09 249.281C384.644 250.844 385.962 252.25 387.805 253.007C389.218 253.587 390.645 254.157 392.065 254.702C393.404 255.216 394.533 255.598 395.473 253.899C396.508 252.03 396.851 251.275 398.641 251.194C400.548 251.109 402.457 251.265 404.362 251.372C404.764 251.395 405.678 251.211 405.996 251.703C406.279 252.141 405.869 253.056 406.132 253.334C406.548 253.771 408.911 248.876 409.113 252.839C409.242 250.915 410.618 251.847 411.385 252.1C411.664 252.192 411.943 252.301 412.219 252.391C412.519 252.244 412.768 252.356 412.966 252.727C413.281 252.826 413.494 252.65 413.606 252.199C416.94 252.128 420.303 252.436 423.645 252.41C427.51 252.38 431.397 252.324 435.226 251.503C436.644 251.199 438.063 250.779 439.484 250.524C440.135 250.408 440.682 250.509 441.317 250.571C441.549 250.635 441.759 250.776 441.948 250.994C442.045 250.714 442.189 250.502 442.381 250.357C444.812 249.313 447.314 248.604 449.785 247.692C451.515 247.054 452.965 246.561 454.687 246.381L455.013 246.351L455.705 246.651C455.806 246.288 455.971 246.006 456.199 245.804C456.76 245.466 457.237 245.336 457.842 245.245C460.25 244.885 462.613 244.922 464.889 244.405C466.088 244.133 470.469 243.137 471.277 244.881C471.896 242.757 476.356 245.648 477.663 244.394C475.636 240.338 474.753 235.998 474.179 231.094C473.554 225.752 473.161 220.132 474.086 214.81C474.937 209.907 476.794 204.874 479.33 201.425C481.784 198.089 482.359 194.098 483.996 189.981C487.407 181.402 493.026 176.161 499.285 172.996C502.694 171.272 506.16 169.838 509.598 168.254C512.391 166.968 514.729 165.128 516.142 161.193C504.25 161.193 492.871 166.603 481.983 173.167C476.567 176.431 471.174 179.828 465.824 183.322C463.101 185.1 460.408 187.001 457.868 189.297L457.166 189.932C456.347 190.675 455.533 191.435 454.77 192.292C454.588 192.497 453.594 193.347 453.536 193.631C453.082 195.838 455.583 199.389 456.233 201.282C457.117 203.861 457.982 206.876 458.091 209.783C458.221 213.26 456.709 215 454.38 214.286C451.532 213.413 449.376 209.931 447.114 207.51C446.61 209.732 447.261 212.288 447.614 214.453C448.099 217.423 448.58 220.438 448.925 223.451C449.412 227.711 449.066 232.517 446.177 234.749C438.816 240.436 435.063 225.432 433.569 217.937C432.558 219.006 432.676 222.922 432.49 224.56C432.133 227.711 431.723 231.095 430.769 233.988C430.039 236.204 428.797 238.792 426.969 239.031C424.987 239.29 423.389 236.79 422.501 234.482C420.967 230.496 420.605 226.052 420.484 221.584C420.457 220.599 420.652 211.485 419.973 211.225C417.979 216.467 416.867 222.295 414.524 227.294C412.471 231.675 409.382 234.646 406.606 229.581C402.307 221.737 403.683 210.401 405.444 201.576C406.468 196.444 407.862 191.545 409.741 186.956C410.52 185.052 411.463 183.624 412.431 181.946C413.229 180.562 413.536 179.912 413.192 178.317C412.991 177.387 412.802 177.354 412.98 176.325C413.109 175.588 413.495 174.68 413.715 173.995C414.345 172.037 415.006 170.106 415.777 168.259C417.427 164.313 419.673 161.031 422.033 157.987L422.27 157.682L422.258 157.698C422.106 157.903 423.21 156.669 423.188 156.666L423.182 156.669L423.211 156.644C423.618 156.253 423.773 154.969 424.237 156.115L424.27 156.201C424.343 154.515 425.31 153.556 426.141 152.612C426.45 152.26 426.759 151.771 427.135 151.56C427.396 151.414 428.003 151.558 428.193 151.353C428.561 150.956 428.74 150.169 429.09 149.702C429.44 149.234 429.924 149.015 430.322 148.658C431.299 147.783 432.197 146.712 433.15 145.78C435.174 143.798 437.288 142.013 439.454 140.386C444.01 136.963 448.846 134.209 453.686 131.78C457.951 129.639 462.372 127.656 466.752 126.096C471.249 124.495 475.974 124.893 480.567 124.235C489.927 122.893 499.806 123.164 509.162 124.503C513.747 125.16 518.306 126.186 522.828 127.47C527.214 128.714 531.776 130.131 535.671 133.495C536.502 134.212 538.001 136.511 538.975 136.426C539.794 136.355 540.505 134.138 540.89 133.264C541.805 131.188 542.955 129.281 543.732 127.094C544.689 124.401 545.179 121.373 545.899 118.539C542.561 119.214 539.055 119.652 535.851 117.776C532.95 116.077 530.995 112.681 528.828 109.546C526.545 106.243 524.1 104.005 520.834 103.702C517.13 103.357 513.789 105.308 510.382 107.125C503.182 110.965 495.985 115.184 488.576 118.081C484.955 119.496 481.232 120.614 477.48 120.866C475.57 120.993 473.637 120.867 471.748 121.385C470.964 121.599 470.729 121.778 470.11 121.271C470.194 121.34 469.321 119.211 469.148 120.04C468.982 120.838 469.254 121.462 468.778 122.063C468.218 122.77 467.002 122.426 466.354 122.345C465.382 122.223 464.608 121.739 463.672 121.417C462.226 120.92 460.606 121.248 459.132 120.976C458.448 120.85 457.951 120.596 457.335 120.318C456.69 120.027 457.105 120.064 456.441 119.94C455.852 119.83 455.518 119.944 454.806 119.604C454.168 119.3 453.579 119.09 452.927 118.867C452.33 118.664 451.848 118.297 451.293 118.059C451.991 118.359 450.397 117.432 450.466 117.679L450.472 117.694L450.466 117.686C450.294 117.4 450.093 116.825 449.75 116.736L449.68 116.725C450.807 119.263 445.852 116.581 445.524 116.434C442.785 115.212 439.98 112.438 437.119 112.183C434.325 111.933 431.616 114.726 429.367 116.797C426.651 119.299 423.947 121.821 421.242 124.348C415.261 129.933 408.786 134.929 402.074 138.323C398.81 139.974 395.464 141.298 392.153 142.728C390.66 143.373 389.03 143.638 387.603 144.562C386.639 145.187 385.249 147.057 384.275 145.401C383.882 146.85 381.977 146.776 381.169 146.821C381.045 146.827 381.244 147.175 380.96 147.146C380.541 147.102 380.429 146.506 380.099 146.381C379.429 146.129 379.36 146.507 378.696 146.883C377.834 147.371 377.998 146.948 377.236 146.833C376.799 146.767 376.337 147.119 375.9 147.139C375.722 147.147 375.489 146.713 375.232 146.72C374.985 146.726 374.405 147.159 374.078 147.231C373.259 147.412 372.295 147.292 371.468 147.238C370.286 147.16 358.444 145.611 359.294 141.98C357.869 143.908 354.564 140.756 353.078 139.755C352.525 139.382 352.49 139.02 352.178 138.6C352.264 138.095 352.117 137.869 351.736 137.923C351.654 137.91 351.572 137.896 351.491 137.883C350.839 137.395 350.606 137.406 350.087 136.55C349.394 135.408 348.118 134.375 347.759 132.886C347.663 132.486 347.765 131.796 347.667 131.482C347.542 131.08 347.212 131.126 347.135 130.799C347.108 130.685 347.236 129.936 347.227 129.924C346.627 129.188 345.783 129.537 345.088 128.654C343.169 126.211 342.012 121.311 341.46 117.831C340.016 108.731 339.523 99.5797 342.325 90.9717C343.687 86.7864 345.355 82.8057 347.196 79.0402C347.706 77.9987 348.24 76.6237 348.89 75.7446C349.182 75.3497 349.564 75.2688 349.706 75.0325C350.465 73.7717 350.859 72.1503 351.877 70.9234C353.011 69.5568 354.128 68.1522 355.38 67.0219C356.529 65.9842 357.959 65.3144 359.013 64.3438C359.302 64.0774 359.202 63.6571 359.516 63.3405C359.849 63.0048 360.279 62.9789 360.656 62.8155C361.103 62.6226 361.658 62.2668 362.122 62.2081C362.988 62.0976 363.279 62.4618 363.933 63.3648C363.933 59.89 368.295 59.4063 370.059 59.3999C370.873 59.3968 374.964 58.8612 374.885 60.6904C375.817 58.8834 378.65 60.2278 379.882 60.7697C381.361 61.4194 382.297 63.009 383.246 64.707C383.421 64.1688 383.598 63.6302 383.774 63.092C384.043 63.3679 384.953 63.8268 384.66 64.5548C385.726 63.1755 385.125 64.3116 386.038 64.5569C386.439 64.6647 386.784 64.4474 387.206 64.374C387.241 65.1912 386.999 65.4561 386.655 66.026C387.481 66.0487 390.658 65.5645 388.307 67.0886C388.621 67.9132 390.112 67.6235 390.636 67.7346C390.914 67.7932 391.606 67.8144 391.772 68.1125C391.881 68.3087 391.689 68.8511 391.714 68.8992C391.938 69.3448 391.472 69.5737 391.932 69.7027C392.045 69.7344 392.403 69.2074 392.484 69.2095C393.081 69.2232 392.662 69.0493 393.295 69.183C393.518 69.2301 393.946 69.6033 394.232 69.6895C398.552 70.9863 403.831 66.1079 406.969 62.3313C410.718 57.8188 413.982 52.9954 418.49 50.0662C422.851 47.2331 427.71 44.9991 432.345 43.3788C440.916 40.3824 449.427 40.3301 457.86 44.472ZM566.963 333.219C567.102 333.328 567.24 333.436 567.379 333.544C567.576 333.397 567.774 333.251 567.972 333.104C567.405 332.709 567.366 332.536 566.963 333.219ZM612.991 315.247C611.952 316.209 611.06 318.381 610.15 319.677C608.874 321.497 607.538 323.226 606.206 324.957C607.742 325.739 609.971 328.903 611.634 327.469C612.457 326.759 612.977 324.671 613.498 323.564C614.304 321.849 615.247 320.239 616.195 318.691C617.172 317.095 614.08 314.238 612.991 315.247ZM515.59 282.399C516.002 282.652 516.903 284.11 516.485 284.621C516.061 283.902 515.492 283.382 515.59 282.399ZM383.357 259.326C382.605 260.279 381.757 262.269 381.233 263.523C380.643 264.935 380.623 265.646 381.523 266.588C383.264 268.41 385.793 268.944 387.812 269.794C388.89 270.247 390.223 271.388 391.138 269.946C392.045 268.518 392.047 265.859 392.455 264.089C392.786 262.656 393.139 261.234 393.482 259.807C391.579 260.088 389.665 260.108 387.794 259.483C386.436 259.03 384.558 257.803 383.357 259.326ZM416.227 183.007C414.691 186.069 413.32 189.311 412.111 192.674C410.111 198.24 408.557 204.15 407.572 210.277C406.874 214.618 405.854 220.72 407.448 224.885C410.92 233.956 417.967 207.769 419.043 205.03C419.683 203.399 420.677 201.65 421.778 203.747C422.681 205.467 422.387 208.225 422.428 210.252C422.553 216.274 421.98 223.486 423.622 229.153C424.16 231.013 425.587 233.699 427.198 232.854C428.642 232.096 429.363 228.448 429.81 226.568C431.222 220.623 432.224 213.355 432.27 207.064C432.279 205.8 431.506 197.444 433.499 199.293C434.803 200.501 434.749 206.368 434.876 208.287C435.371 215.787 436.381 228.522 442.723 229.784C444.12 230.062 445.7 229.577 446.518 227.736C447.534 225.447 446.512 222.37 446.156 219.964C445.542 215.818 444.847 211.543 444.786 207.274C444.749 204.658 444.924 200.307 447.43 201.317C450.449 202.533 451.726 208.328 455.117 208.522C455.12 207.356 454.68 206.405 454.307 205.431C453.101 202.282 450.903 199.585 450.16 196.101C449.916 194.958 450.169 193.24 449.687 192.287C449.231 191.388 448.202 191.158 447.514 190.954C442.935 189.597 438.432 187.76 433.874 186.196C429.001 184.524 424.483 182.717 419.919 179.774C417.863 178.447 417.394 180.684 416.227 183.007ZM525.491 229.979C526.164 230.447 526.83 230.935 527.511 231.378C528.102 231.764 528.334 231.457 528.57 230.646C528.143 230.516 525.739 229.263 525.491 229.979ZM496.635 128.389C487.921 128.764 479.401 128.927 470.813 131.354C466.705 132.515 462.679 133.86 458.65 135.509C456.949 136.205 455.449 136.931 453.965 138.319C453.413 138.835 451.952 140.456 451.728 138.604C450.995 139.635 449.564 142.784 448.391 141.034C448.185 142.299 447.544 142.26 446.919 142.69C446.698 142.841 446.578 143.355 446.295 143.542C446.224 143.588 446.2 142.866 446.096 142.854C445.723 142.81 445.428 143.965 445.213 144.259C444.696 144.965 444.212 145.288 443.526 145.544C443.229 145.69 442.923 145.784 442.611 145.825C442.243 146.047 442.023 145.887 441.95 145.348C441.442 145.36 441.07 145.631 440.539 145.984C441.686 146.37 439.756 146.794 439.499 146.837C439.467 148.095 440.2 147.298 440.674 147.558C440.455 149.138 438.46 150.343 437.639 151.117C437.499 150.68 437.359 150.242 437.218 149.805C436.991 150.127 436.815 150.497 436.689 150.916C436.605 151.424 436.359 151.599 435.952 151.443C435.572 151.886 435.515 151.681 435.281 152.305C435.039 152.951 435.754 154.209 434.716 153.668C434.716 155.815 433.356 154.513 433.594 153.956C432.566 153.81 432.127 156.572 432.242 157.649C431.751 156.934 431.449 157.025 430.955 157.583L430.911 157.633L430.937 157.606C431.317 157.229 430.926 158.772 430.96 158.754L430.965 158.747C429.92 160.766 430.019 158.506 430.342 157.315C429.634 157.731 429.5 158.857 428.932 159.492C428.427 160.058 428.284 159.795 427.85 159.88C427.18 160.01 427.382 159.201 427.088 160.284C426.964 160.743 427.152 161.565 427.152 162.066C427.443 161.483 427.333 160.562 427.857 160.228C427.701 161.916 425.463 167.715 424.522 164.298C423.607 165.231 424.615 166.253 424.015 167.503C423.568 166.87 423.461 165.864 423.511 165.003C423.23 165.55 423.239 166.242 423.019 166.796C422.79 167.374 422.55 167.421 422.44 168.049C422.272 169.002 422.845 168.535 422.542 169.547C422.391 170.055 421.68 170.5 421.4 170.786C420.421 171.787 419.431 172.947 420.381 174.611C421.87 177.216 425.792 177.514 427.899 177.951C432.391 178.885 436.769 180.436 441.195 181.872C443.86 182.737 446.47 183.7 449.084 184.854C450.961 185.682 453.554 186.197 454.545 189.048C459.777 181.71 466.754 177.881 473.212 173.479C480.206 168.712 487.429 164.286 494.839 161.1C501.408 158.275 508.146 157.203 514.933 156.229C516.721 155.972 519.479 155.315 521.073 156.927C522.057 157.922 522.102 159.429 521.349 160.76C520.941 161.481 520.501 161.294 520.251 162.579C520.058 163.573 520.164 164.326 520.341 165.31C519.889 164.79 519.078 165.1 518.846 164.182L518.824 164.079L518.802 164.189C518.493 165.979 520.652 166.227 519.99 168.374L519.947 168.506C519.718 169.162 519.717 167.057 519.516 167.042C518.968 167 518.519 168.877 518.294 169.397C519.313 169.397 518.925 170.484 518.379 171.032C517.988 171.424 517.33 171.538 516.877 171.861C515.973 172.508 515.178 173.457 514.25 174.074C513.235 174.75 512.342 174.792 511.333 175.193C511.177 175.255 510.558 175.595 510.495 175.603C510.41 175.614 510.39 175.998 510.317 176.013C509.673 176.147 509.186 175.269 508.561 175.626C508.323 175.764 508.446 176.62 508.239 176.814C508.01 177.028 507.362 176.755 507.085 176.732C506.42 176.676 506.317 176.547 505.789 177C504.881 177.778 504.418 178.83 503.194 179.021C502.237 179.17 501.62 178.905 500.709 179.432C499.788 179.964 498.914 180.082 498.016 180.439C497.902 180.484 497.872 181.056 497.779 181.095C497.482 181.224 497.127 181.126 496.843 181.254C496.191 181.548 495.661 181.811 495.055 182.339C492.393 184.66 489.464 188.144 487.376 191.489C486.423 193.017 483.765 196.864 484.632 199.075C485.188 200.493 487.108 201.182 488.065 201.781C489.493 202.675 490.97 203.326 492.414 204.154C494.209 205.184 495.837 206.783 497.668 207.68C499.435 208.545 501.326 208.716 503.151 209.178C511.05 211.176 518.788 214.39 526.69 216.383C531.024 217.476 535.449 218.781 539.851 217.751C543.731 216.842 547.446 214.325 550.544 210.808C556.183 204.408 560.112 195.321 562.088 185.325C562.496 183.26 562.582 178.095 563.899 176.831C564.996 175.779 565.571 178.098 566.283 179.014C567.439 180.502 569.134 181.078 570.525 181.927C573.97 184.028 577.099 186.246 580.739 187.668C584.429 189.108 588.171 190.238 591.902 191.426C599.466 193.834 606.685 196.111 614.458 196.148C622.151 196.184 629.872 196.609 637.479 194.53C644.134 192.712 650.826 187.746 655.801 181.002C658.313 177.597 660.25 173.297 662.225 169.232C663.285 167.052 664.269 164.792 665.097 162.403C665.705 160.647 666.751 158.105 666.858 156.114C666.953 154.335 666.244 154.588 665.033 154.406C663.169 154.127 661.298 153.95 659.433 153.669C655.673 153.103 651.925 152.381 648.166 151.795C644.33 151.197 640.52 150.385 636.793 148.894C635.679 148.449 634.856 147.887 634.069 149.475C633.562 150.497 633.571 152.83 632.513 151.117C630.478 154.886 627.503 157.143 624.723 159.508C621.715 162.067 618.792 164.883 615.604 166.95C608.734 171.403 601.165 171.05 593.875 169.623C586.468 168.173 578.962 166.303 572.002 162.168C568.809 160.271 566.066 157.386 563.203 154.633C561.855 153.336 560.456 152.269 559.024 151.189C557.41 149.971 556.424 148.165 554.964 146.757C553.98 151.456 550.196 153.072 547.208 153.282C543.477 153.544 540.46 150.93 538.197 146.685C536.318 143.161 535.953 137.89 533.045 135.961C529.727 133.761 525.838 132.886 522.288 131.863C513.948 129.46 505.133 128.023 496.635 128.389ZM540.871 164.517C541.809 165.133 544.537 169.735 542.373 169.802C540.998 169.845 540.189 167.314 538.67 167.697C537.989 167.87 536.971 168.214 536.803 168.986C536.386 170.906 538.312 172.143 539.145 172.677C540.428 173.498 541.482 174.324 542.182 176.204C543.258 179.091 543.54 183.763 541.025 185.054C539.155 186.014 536.818 185.269 534.973 184.515C533.418 183.878 532.23 181.519 532.946 179.174C533.149 178.51 533.692 177.339 534.325 177.778C534.827 178.127 534.583 178.788 534.737 179.379C535.355 181.75 539.976 185.129 541.04 181.546C542.338 177.177 537.404 175.862 535.898 174.401C533.951 172.513 533.9 169.284 535.386 166.816C536.687 164.653 538.98 163.277 540.871 164.517ZM549.022 179.323C548.944 180.352 548.848 181.419 548.726 182.438C548.621 183.325 548.626 184.257 547.931 184.577C547.474 184.788 547.027 184.075 546.586 184.549C546.097 185.074 546.331 181.253 546.353 181.038C546.498 179.613 546.761 176.719 547.695 175.835C549.276 174.339 549.116 178.068 549.022 179.323ZM548.921 173.35C547.244 174.908 546.809 170.489 547.476 169.052C549.133 165.485 551.566 170.895 548.921 173.35ZM514.847 171.178C515.327 171.701 515.168 171.413 515.168 172.803C514.611 172.839 514.695 171.719 514.847 171.178ZM516.742 169.976C516.581 170.528 517.306 171.19 517.54 171.276C517.555 171.098 517.201 168.41 516.742 169.976ZM425.741 161.903C425.296 162.851 425.548 163.433 426.257 163.06L426.315 163.027L425.741 161.903ZM434.704 152.787L434.279 153.051C434.079 153.331 433.879 153.611 433.679 153.892C434.263 153.725 434.668 153.854 434.704 152.787ZM437.055 151.455C436.763 150.581 435.758 152.315 435.736 152.721C435.97 152.518 437.395 152.473 437.055 151.455ZM437.998 148.365C437.754 148.869 437.804 149.273 438.147 149.577C438.432 149.018 438.649 148.408 438.796 147.744C438.415 147.339 438.133 147.887 437.998 148.365ZM630.288 85.9459C629.553 86.4301 629.937 88.0975 630.009 89.0009C630.35 93.3041 630.893 97.5645 631.229 101.867C631.702 107.917 631.769 114.041 632.543 120.038C633.249 125.507 634.439 130.818 635.068 136.312C635.489 139.988 634.686 144.235 637.675 145.35C640.362 146.353 643.426 146.407 646.182 146.848C649.731 147.416 653.286 147.695 656.851 147.948C658.538 148.068 660.278 148.099 661.949 148.474C662.933 148.695 664.158 149.652 664.915 148.316C665.652 147.017 665.654 143.709 665.884 142.051C666.187 139.86 666.46 137.659 666.608 135.432C666.945 130.392 666.45 125.401 665.995 120.411C665.505 115.031 665.128 109.629 664.621 104.255C664.294 100.791 664.332 95.1967 662.707 92.4006C661.225 98.8919 660.824 105.784 660.749 112.59C660.733 114.051 660.082 122.449 658.349 118.355C657.868 117.216 657.86 116.566 657.111 115.603C656.34 114.611 656.07 113.818 655.809 112.315C655.336 109.594 655.26 107.201 654.238 104.754C652.157 99.7726 651.313 93.606 648.215 89.5851C648.184 94.2588 647.723 99.3137 648.316 103.93C648.688 106.832 650.214 111.007 648.956 113.877C648.328 115.309 647.966 114.882 647.227 114.163C646.754 113.702 646.827 113.487 646.232 113.026C645.665 112.586 645.219 112.607 644.683 111.992C642.784 109.818 642.634 106.041 642.013 102.914C640.643 96.0097 635.906 91.7457 632.278 87.4752C631.883 87.0106 630.895 85.5467 630.288 85.9459ZM558.705 99.9333C555.924 101.563 553.057 102.183 550.101 101.263C550.104 102.215 551.041 103.763 550.317 104.311C550.145 104.442 549.16 103.816 548.968 103.743C547.902 103.338 546.466 102.641 545.352 102.973C544.173 103.325 544.214 104.445 544.984 105.714C546.065 107.495 548.78 107.567 548.811 110.523C548.824 111.8 548.287 113.401 548.172 114.719C548 116.69 547.813 118.645 547.497 120.58C546.954 123.907 546.076 127.072 545.03 130.124C544.128 132.753 543.032 135.493 541.353 137.211C540.259 138.33 540.68 137.825 540.895 139.475C541.039 140.581 541.015 141.404 540.042 141.131C539.855 141.047 539.67 140.964 539.484 140.88C541.765 146.365 547.536 149.822 551.486 146.162C549.82 144.192 552.081 140.758 553.036 139.303C554.465 137.124 555.964 134.616 557.496 132.626C559.843 129.58 562.915 131.062 565.692 129.781C568.503 128.484 570.547 125.558 572.364 122.288C573.982 119.375 576.127 115.811 576.346 111.869C576.389 111.097 576.133 110.192 576.226 109.462C576.321 108.718 576.628 108.621 576.789 108.134C577.117 107.131 577.197 106.098 577.249 104.95C577.419 101.203 576.607 100.615 574.208 99.6468C572.811 99.0822 571.394 98.6392 569.994 98.0878C568.657 97.5618 567.466 96.5495 566.148 95.9849C563.375 94.7959 561.148 98.5028 558.705 99.9333ZM565.853 123.48C568.059 125.443 564.582 126.701 563.298 125.833C561.564 124.66 564.621 122.384 565.853 123.48ZM570.008 107.155C572.011 110.665 574.237 117.798 569.852 119.242C568.498 119.688 566.404 120.408 565.043 119.862C563.099 119.081 563.607 115.359 565.546 115.196C566.695 115.099 569.331 116.432 570.013 114.475C570.384 113.413 569.542 111.726 569.414 110.667C569.249 109.304 569.4 108.214 570.008 107.155ZM450.472 117.694L450.474 117.698C450.481 117.713 450.492 117.73 450.508 117.75L450.515 117.759L450.501 117.739L450.472 117.694ZM573.975 108.41C575.365 108.405 574.676 112.738 573.986 113.478C572.747 114.806 572.219 108.415 573.975 108.41ZM564.807 111.677C563.194 111.964 563.557 106.299 565.028 106.125C566.957 105.896 566.673 111.346 564.807 111.677ZM578.766 102.275C578.573 102.852 578.721 108.473 579.183 108.579C579.308 107.206 579.239 105.826 579.226 104.447L579.224 104.098C579.234 104.12 579.311 100.646 578.766 102.275Z" fill="#2D4710"/>
<defs>
<clipPath id="clip0_405_3419">
<rect width="410" height="356" fill="white" transform="translate(0 56)"/>
</clipPath>
</defs>
</svg>
