<svg width="16" height="16" viewBox="0 0 16 16" fill="none" xmlns="http://www.w3.org/2000/svg">
<path d="M2.07495 9.5752C2.07495 9.49232 2.10788 9.41283 2.16648 9.35422C2.22509 9.29562 2.30457 9.2627 2.38745 9.2627H3.32495C3.40783 9.2627 3.48732 9.29562 3.54592 9.35422C3.60453 9.41283 3.63745 9.49232 3.63745 9.5752V13.0114C3.63745 13.0943 3.60453 13.1738 3.54592 13.2324C3.48732 13.291 3.40783 13.3239 3.32495 13.3239H2.38745C2.30457 13.3239 2.22509 13.291 2.16648 13.2324C2.10788 13.1738 2.07495 13.0943 2.07495 13.0114V9.57551V9.5752Z" fill="#FDFDFC"/>
<path d="M6.73589 9.32172C6.73589 9.32172 6.02401 9.18891 5.73276 9.32172C5.51589 9.42047 4.67651 9.72172 4.26245 9.86922V12.638C4.50214 12.6242 4.97901 12.5989 5.18276 12.607C6.35651 12.6542 6.95558 13.1489 8.12714 13.2377C8.78245 13.2873 9.35651 13.4033 9.80964 13.2377C10.2628 13.0717 12.8509 11.8108 13.1743 11.4789C13.4981 11.147 13.3362 10.2508 12.3331 10.4167C11.33 10.5827 10.0037 11.3792 9.4537 11.3461C8.9037 11.313 7.44745 11.0473 7.44745 11.0473L9.11933 11.0677C9.11933 11.0677 9.35558 11.0802 9.67995 10.8483C10.005 10.6164 10.295 9.95235 9.80964 9.95235C9.32433 9.95235 8.80651 9.7861 8.80651 9.7861L6.73589 9.32172Z" fill="#FDFDFC"/>
<path fill-rule="evenodd" clip-rule="evenodd" d="M6.67681 5.42822C6.75377 5.50472 6.8149 5.59563 6.85671 5.69576C6.89852 5.79589 6.92018 5.90328 6.92047 6.01179C6.92076 6.1203 6.89967 6.22781 6.8584 6.32816C6.81712 6.42851 6.75648 6.51975 6.67993 6.59666L6.07368 7.22385C5.92798 7.3745 5.75347 7.49429 5.56052 7.57611C5.36757 7.65793 5.16013 7.70009 4.95056 7.7001H4.08806C3.86896 7.7001 3.65884 7.61306 3.50392 7.45814C3.349 7.30322 3.26196 7.0931 3.26196 6.874C3.26196 6.65491 3.349 6.44479 3.50392 6.28987C3.65884 6.13494 3.86896 6.04791 4.08806 6.04791H4.89587L5.50837 5.43166C5.58487 5.3547 5.67578 5.29357 5.77591 5.25176C5.87604 5.20995 5.98343 5.18828 6.09194 5.18799C6.20045 5.1877 6.30795 5.2088 6.40831 5.25007C6.50866 5.29134 6.5999 5.35199 6.67681 5.42853V5.42822Z" fill="#FDFDFC"/>
<path d="M10.4312 4.88689C10.6183 4.89088 10.8043 4.85747 10.9784 4.78862C11.1524 4.71978 11.311 4.61688 11.4447 4.48597C11.5785 4.35506 11.6848 4.19876 11.7573 4.02623C11.8299 3.85371 11.8673 3.66844 11.8674 3.48127C11.8674 3.2941 11.8301 3.10881 11.7576 2.93626C11.6851 2.7637 11.5789 2.60735 11.4452 2.47638C11.3115 2.34541 11.153 2.24244 10.9789 2.17352C10.8049 2.1046 10.6189 2.07111 10.4318 2.07501C10.064 2.08277 9.71397 2.2343 9.45663 2.49712C9.19929 2.75994 9.05518 3.11312 9.05518 3.48095C9.05518 3.84878 9.19929 4.20196 9.45663 4.46478C9.71397 4.7276 10.064 4.87913 10.4318 4.88689H10.4312Z" fill="#FDFDFC"/>
<path d="M11.8559 6.86387C11.8559 6.64283 11.7681 6.43084 11.6118 6.27454C11.4555 6.11824 11.2435 6.03043 11.0224 6.03043H10.4109L9.54961 5.15137C9.43321 5.03262 9.2943 4.93829 9.14099 4.8739C8.98769 4.80951 8.82308 4.77635 8.6568 4.77637H7.10742L7.25367 7.69824H8.21711C8.41209 7.69798 8.60503 7.6585 8.78444 7.58216C8.96386 7.50582 9.12609 7.39418 9.26148 7.25387L9.48648 7.47949C9.55545 7.55047 9.63837 7.60638 9.73002 7.64371C9.82167 7.68104 9.92006 7.69897 10.019 7.69637C10.0274 7.69637 10.0346 7.69824 10.0434 7.69824L11.0237 7.6973C11.2445 7.69697 11.4562 7.60902 11.6122 7.45276C11.7682 7.29649 11.8559 7.08469 11.8559 6.86387Z" fill="#FDFDFC"/>
</svg>
