<?xml version="1.0" encoding="UTF-8" standalone="no"?><svg width="479" height="1015" viewBox="0 0 479 1015" fill="none" xmlns="http://www.w3.org/2000/svg">
<g clip-path="url(#clip0_163_1839)">
<path fill-rule="evenodd" clip-rule="evenodd" d="M237.958 472.839C239.305 475.912 235.235 477.711 233.452 478.758C234.599 479.741 234.224 481.063 236.078 480.776C233.345 485.919 229.78 490.477 226.566 495.294C223.482 499.915 221.838 506.125 218.4 510.368C215.481 513.97 208.599 511.761 204.503 512.523C199.888 513.382 195.188 516.188 192.794 520.368C191.675 522.323 191.142 524.447 191.401 526.726C191.659 528.993 193.528 530.63 193.867 532.59C194.148 534.216 193.163 534.606 191.842 535.626C190.028 537.025 188.394 538.593 187.514 540.81C186.532 543.289 186.741 545.548 185.057 547.737C183.588 549.648 181.997 550.972 181.334 553.419C180.45 556.684 181.308 561.196 177.133 562.205C177.643 562.555 178.152 562.905 178.663 563.256C175.617 565.416 172.809 567.948 170.128 570.551C168.871 571.771 168.199 572.406 166.525 572.898C165.422 573.222 164.398 572.872 163.55 573.874C162.193 575.477 163.33 578.244 162.372 579.978C161.39 581.756 159.042 580.985 158.306 582.912C157.906 582.327 155.918 580.986 155.273 581.935C154.346 583.299 156.063 582.832 156.076 583.576C156.107 585.287 154.097 585.565 153.968 586.948C153.942 587.232 155.077 586.849 155.366 586.742L155.377 586.737L153.884 588.25C141.438 600.941 130.136 614.768 117.328 627.071L115.784 628.54C90.9255 651.943 67.686 677.751 46.667 704.799C41.7087 711.179 36.9281 717.969 31.6836 724.079C26.4129 730.218 22.2062 737.117 17.3595 743.593C12.3741 750.256 7.00015 756.613 2.05555 763.304C-1.88804 768.64 -5.89926 774.903 -12.5262 776.952C-15.4716 777.862 -18.8544 778.46 -21.3569 776.068C-20.1683 775.612 -22.1057 774.165 -22.5454 773.813C-24.4492 772.289 -23.9713 773.296 -24.187 771.067C-24.5367 767.45 -26.4472 764.876 -25.566 761.146C-23.6974 753.234 -21.6859 745.383 -20.0379 737.41C-16.4767 720.177 -12.6717 703.028 -7.1683 686.34C2.45244 657.168 9.6344 626.518 22.2302 598.511C34.8164 570.524 46.9054 541.512 52.9499 511.139C53.355 509.103 53.2089 503.685 55.6385 503.413C57.7674 503.176 61.9966 506.741 63.8815 507.863C70.4233 511.757 76.7788 515.959 83.4654 519.596C95.8096 526.309 109.09 532.644 122.428 536.933C128.917 539.018 135.409 539.068 142.12 539.352C148.044 539.603 155.147 539.316 159.388 534.487C161.352 532.25 161.695 529.919 160.61 527.158C159.712 524.872 159.279 525.126 161.404 523.428C163.691 521.6 166.456 519.825 167.112 516.671C167.792 513.404 165.523 512.051 163.243 510.308C166.061 506.567 171.35 501.393 170.039 496.083C168.67 490.538 161.13 489.547 156.588 488.93C143.159 487.108 129.965 483.371 117.106 478.928C103.168 474.112 88.975 469.17 75.4202 463.288C72.5503 462.043 68.5652 460.861 66.3221 458.532C64.0202 456.143 64.5815 453.371 65.424 450.462C67.4082 443.606 69.5442 436.874 71.1344 429.888C72.8962 422.15 74.277 414.333 75.775 406.537C76.4358 403.098 77.4705 399.704 77.9401 396.227C78.3782 392.988 78.0617 389.713 78.3116 386.46C84.7684 396.051 84.2858 408.479 84.278 419.51C84.274 425.235 84.2773 431.22 86.4943 436.623C88.4112 441.297 92.3115 444.849 96.2644 447.768C103.41 453.045 111.028 451.207 117.839 446.569C125.679 441.231 132.753 434.636 140.347 428.936C143.801 426.343 147.631 424.094 151.972 426.101C155.855 427.898 157.363 431.346 157.381 435.484C157.423 445.519 157.311 454.467 160.703 464.155C163.355 471.729 168.577 480.773 176.291 483.985C180.52 485.745 185.13 484.392 189.261 483.086C194.157 481.539 198.976 479.653 203.596 477.407C211.838 473.4 219.456 467.396 229.143 468.784C231.415 469.109 236.845 470.301 237.958 472.839ZM155.405 586.727L155.377 586.737L155.383 586.732C155.445 586.71 155.446 586.712 155.405 586.727ZM95.0197 257.484C99.0135 258.842 108.624 262.979 108.571 268.497C108.562 269.46 107.913 270.361 107.464 271.138C107.077 271.71 106.686 272.279 106.292 272.847C105.686 273.315 105.626 273.826 106.113 274.382C104.302 276.889 103.3 279.931 100.711 281.867C98.1444 283.783 96.2013 287.352 94.0593 289.774C92.4027 291.647 87.8188 296.143 85.1928 296.749L78.6624 298.833C76.0446 299.394 69.9548 295.99 67.693 294.831C62.0754 291.953 60.0605 287.524 58.6 281.069C57.363 275.6 56.8975 268.155 59.8821 263.233C62.7457 258.51 68.9093 256.597 73.9581 255.55C81.0083 254.087 88.2003 255.165 95.0197 257.484ZM99.1622 274.202C100.62 272.663 100.377 270.392 99.5695 268.586C98.7627 266.781 97.9232 264.681 96.5591 263.225C95.2987 261.881 93.7217 261.5 93.5349 259.383C92.4661 260.586 91.257 259.427 90.0047 259.604C88.3958 259.831 87.1884 260.771 86.3593 262.172C84.6423 265.073 85.7068 268.247 86.4199 271.289C87.0229 273.861 87.6017 277.076 85.7741 279.283C84.5959 280.707 83.253 280.185 81.9069 281.106C80.915 281.783 80.7224 283.355 79.9725 284.255C83.5021 285.341 89.6686 283.295 92.3671 281.085C93.6415 280.041 95.1924 278.34 96.1975 277.064C96.5267 276.647 96.8133 275.818 97.1031 275.529C97.6032 275.03 98.659 274.733 99.1622 274.202Z" fill="#4D7520"/>
<path fill-rule="evenodd" clip-rule="evenodd" d="M-211.476 631.243C-208.929 634.432 -208.148 639.117 -206.999 642.947C-205.558 647.755 -204.382 652.663 -203.226 657.547C-201.005 666.925 -197.801 675.94 -195.714 685.37C-194.678 690.051 -193.609 694.726 -192.535 699.4C-191.594 703.491 -191.15 708.449 -189.137 712.192C-188.306 713.737 -185.38 717.688 -183.29 716.116C-181.678 714.903 -182.152 709.554 -182.155 707.763C-182.16 703.55 -182.549 699.322 -182.699 695.108C-182.777 692.945 -182.809 690.775 -183.671 688.746C-184.401 687.024 -186.293 685.567 -186.717 683.721C-187.346 680.991 -184.519 678.579 -183.701 676.168C-182.4 672.331 -184.36 670.419 -187.647 668.844C-190.077 667.68 -193.439 666.905 -194.528 664.069C-195.914 660.462 -193.062 658.764 -189.932 659.552C-187.05 660.278 -183.285 663.558 -180.216 662.819C-178.276 662.352 -174.194 657.631 -174.042 655.616C-173.787 652.227 -178.353 649.008 -180.205 646.609C-183.438 642.418 -186.506 638.066 -189.592 633.763C-191.701 630.819 -193.35 625.978 -197.308 626.558C-202.263 627.285 -206.742 629.756 -211.476 631.243ZM-199.061 420.287C-196.689 420.581 -195.194 421.209 -193.885 418.688C-193.153 417.279 -193.105 415.606 -192.328 414.201C-191.158 412.09 -187.376 408.158 -185.145 411.173C-183.013 414.054 -186.542 418.181 -186.678 421.091C-186.851 424.784 -184.142 426.174 -180.907 425.661C-176.751 425.004 -172.823 423.015 -168.657 422.218C-164.573 421.437 -160.858 421.8 -156.749 421.676C-153.962 421.592 -151.106 421.667 -151.598 418.169C-152.05 414.962 -154.411 411.828 -155.561 408.797C-157.354 404.068 -159.145 399.276 -161.373 394.73C-163.86 389.655 -169.153 391.451 -173.933 391.503C-185.519 391.629 -197.261 390.585 -208.786 392.033C-213.755 392.657 -216.229 395.996 -219.058 399.866C-222.6 404.712 -226.086 409.69 -229.146 414.874C-231.189 418.336 -232.932 422.058 -233.061 426.191C-233.206 430.872 -231.041 431.952 -227.297 429.689C-222.356 426.7 -217.805 423.117 -212.16 421.566C-210.104 421.002 -207.731 420.91 -206.511 418.871C-205.664 417.457 -205.835 415.552 -205.551 413.969C-205.081 411.358 -202.381 406.684 -200.173 410.774C-198.674 413.551 -199.614 417.311 -199.061 420.287ZM42.5869 453.881C40.5366 457.461 38.6848 461.232 36.4774 464.71C35.2114 466.705 33.4622 468.389 32.3206 470.461C29.8191 474.997 34.8691 477.109 38.1493 479.372C51.0506 488.273 64.4933 496.233 77.8582 504.371C84.2262 508.249 90.3414 512.584 96.7704 516.347C103.283 520.16 110.33 522.816 117.049 526.19C120.276 527.811 123.634 529.912 127.249 530.394C130.332 530.806 133.336 530.156 136.445 530.754C141.83 531.79 148.618 534.674 153.83 531.852C149.671 529.769 136.659 528.242 140.266 521.14C142.841 516.072 149.721 518.213 154.102 516.626C151.416 513.451 145.564 516.367 143.23 512.813C141.967 510.891 143.258 508.49 144.582 506.983C146.869 504.378 150.031 504.057 153.281 503.871C155.495 503.745 163.318 504.951 163.09 501.362C162.892 498.25 156.942 497.489 154.803 497.12C150.879 496.444 146.966 496.201 143.061 495.33C136.327 493.829 129.686 491.743 123.044 489.854C109.364 485.964 96.0423 480.8 82.8909 475.313C68.8436 469.452 55.18 462.615 42.5869 453.881ZM33.2483 548.576C23.184 551.37 12.8537 545.036 4.91188 539.238C-5.23816 531.829 -16.1144 525.476 -23.8142 515.233C-26.7785 511.29 -28.1008 505.607 -33.5507 505.387C-35.681 505.301 -36.1814 506.156 -37.8621 507.522C-40.4923 509.659 -43.5263 511.408 -46.5116 512.977C-56.6697 518.313 -68.2214 519.963 -79.2955 516.207C-85.1823 514.21 -90.6664 511.008 -95.8424 507.539C-101.006 504.08 -106.702 501.066 -111.38 496.929C-121.359 488.103 -128.954 477.185 -134.762 465.19C-137.782 458.951 -140.709 452.653 -143.146 446.156C-144.41 442.787 -145.535 439.368 -146.482 435.896C-146.905 434.344 -147.457 428.249 -148.667 427.417C-149.599 426.776 -153.716 427.672 -154.872 427.854C-157.318 428.236 -159.708 428.684 -162.175 428.929C-167.129 429.421 -172.801 429.763 -177.015 432.714C-178.233 433.568 -179.226 434.261 -179.272 435.688C-179.301 436.592 -178.334 437.87 -177.99 438.666C-177.21 440.464 -176.577 442.196 -176.174 444.127C-174.851 450.463 -174.461 456.975 -172.065 463.042C-166.957 475.973 -161.826 488.913 -155.625 501.363C-152.609 507.419 -148.798 512.937 -145.361 518.743C-142.086 524.276 -138.799 529.802 -134.447 534.553C-125.921 543.862 -116.032 551.824 -105.343 558.344C-93.9312 565.305 -82.0115 568.519 -69.0577 571.017C-57.6784 573.212 -46.4455 574.54 -35.3467 570.743C-28.3227 568.339 -19.8929 564.507 -12.3226 566.699C-8.86449 567.7 -4.99478 570.711 -5.35536 574.782C-6.00956 582.171 -13.3881 577.743 -17.1469 576.204C-22.5624 573.988 -28.9149 576.545 -34.2587 577.842C-40.5647 579.371 -46.4254 579.679 -52.8296 580.2C-59.0975 580.711 -65.1504 585.648 -71.018 587.818C-77.3806 590.172 -83.905 592.041 -90.387 594.029C-103.28 597.982 -115.897 602.681 -128.755 606.735C-135.424 608.837 -142.062 611.147 -148.852 612.839C-155.043 614.383 -161.252 614.964 -167.562 615.752C-173.756 616.525 -181.264 617.168 -187.089 619.432C-176.768 632.59 -165.567 645.029 -155.766 658.607C-153.245 652.592 -147.616 650.564 -142.053 648.368C-134.718 645.473 -127.689 641.839 -120.369 638.896C-105.913 633.084 -90.242 628.42 -75.044 624.989C-58.7269 621.305 -42.1217 618.709 -26.018 614.125C-18.2606 611.917 -10.7552 608.852 -3.58532 605.154C2.45544 602.038 10.191 598.538 14.7607 593.327C19.1273 588.347 20.6521 581.268 22.7407 575.101C25.7948 566.082 29.6915 557.387 33.2483 548.576ZM241.182 483.211C239.308 485.868 237.702 488.708 236.256 491.632C234.765 494.65 235.571 495.475 237.61 497.864C241.666 502.616 244.298 501.66 247.942 497.122C256.394 486.597 268.299 479.828 276.4 468.959C284.382 458.251 289.302 444.809 291.658 431.595C294.186 417.415 292.025 403.611 287.468 389.991C285.139 383.031 282.421 376.145 279.438 369.442C276.537 362.921 272.45 357.602 268.725 351.581C266.851 348.551 265.083 345.372 262.929 342.532C261.04 340.039 258.7 338.003 256.866 335.46C252.854 329.895 248.59 324.365 243.482 319.819C238.487 315.373 233.449 311.54 227.876 307.834C222.104 303.995 215.879 301.048 210.477 296.63C205.557 292.607 199.825 289.989 194.49 286.621C188.916 283.101 182.551 280.247 176.296 278.269C170.179 276.335 163.292 277.053 156.984 276.719C149.641 276.33 141.853 276.105 134.608 277.387C121.109 279.777 107.229 288.513 96.8364 297.304C86.5579 305.999 79.2153 317.118 73.5746 329.39C70.8235 335.373 68.5976 341.653 67.5768 348.22C66.7033 353.837 64.3687 361.543 69.0921 365.847C71.0044 367.589 72.9887 368.866 74.331 371.158C75.7973 373.662 76.3934 376.385 79.0223 377.945C81.2563 379.272 83.5225 379.524 85.2907 381.639C87.3871 384.145 88.6891 387.485 89.6645 390.574C91.854 397.512 92.371 404.987 92.6015 412.2C92.8128 418.811 91.8337 424.712 95.4629 430.649C98.1599 435.06 103.72 441.742 109.411 441.062C114.498 440.455 119.558 434.92 123.275 431.76C128.411 427.393 133.526 423.289 139.26 419.745C143.803 416.936 151.084 412.48 156.707 414.52C162.232 416.524 164.701 424.447 165.154 429.714C165.451 433.166 164.923 436.595 165.209 440.053C165.5 443.575 166.204 447.09 166.902 450.556C169.32 462.563 177.486 478.139 191.777 472.898C204.514 468.227 215.134 456.817 229.423 456.954C235.247 457.009 242.474 458.613 245.75 464.078C248.35 468.413 249.215 475.117 248.138 480.017C247.273 483.948 244.294 488.522 241.182 483.211ZM109.175 268.705C103.214 257.726 88.7002 253.838 77.3337 255.105C72.1833 255.679 66.3093 257.175 62.2248 260.548C57.5159 264.436 57.2153 271.273 57.8057 277.033C58.4803 283.617 60.7314 288.924 66.475 292.482C69.0006 294.046 71.7245 295.184 74.5583 295.982C77.4563 296.799 79.9022 298.44 82.0703 295.997C87.4418 289.942 92.8813 284.503 99.3461 279.581C102.231 277.385 105.082 275.341 108.188 273.503C110.655 272.044 112.185 271.23 109.175 268.705ZM69.5417 394.177C66.69 392.594 64.1637 390.537 62.0875 387.982C59.8097 385.18 60.1023 384.015 56.5313 385.33C52.5877 386.783 49.3963 387.833 45.0797 387.156C43.0591 386.839 39.679 384.365 37.914 385.599C35.3798 387.371 35.3943 397.234 35.2447 400.16C34.8857 407.162 37.1653 414.47 42.3734 419.309C48.4235 424.929 55.62 423.3 61.5729 418.556C62.208 418.05 63.1106 416.658 63.9782 416.653C65.5699 416.643 65.9553 418.572 65.7437 419.816C65.2842 422.519 61.9448 424.653 59.8269 425.879C54.1698 429.154 46.7995 428.807 41.1218 425.487C38.2369 423.8 35.8694 421.293 33.8803 418.601C32.7509 417.073 31.7168 415.423 30.9609 413.669C30.3507 412.252 30.2118 410.262 29.3591 408.996C27.8569 406.764 24.8542 407.601 22.4888 407.678C18.2613 407.816 13.9184 408.696 9.86172 409.832C3.30007 411.669 -4.7128 415.097 -8.99401 420.669C-18.9831 433.671 -17.9395 452.318 -20.2509 467.875C-21.4797 476.144 -23.7744 484.18 -26.4571 492.05C-26.722 492.828 -27.3348 494.06 -27.4568 494.93C-27.8695 497.874 -28.134 495.503 -26.8019 496.878C-25.7764 497.936 -24.0771 498.58 -22.9556 499.653C-20.372 502.127 -18.4204 505.208 -15.9103 507.761C-10.0734 513.697 -3.63491 518.541 3.10835 523.311C10.0188 528.197 16.5329 533.302 23.9342 537.409C27.0545 539.141 29.8653 541.316 32.8972 543.116C35.9516 544.929 35.851 541.393 36.821 538.723C40.1229 529.635 43.6327 520.581 46.1232 511.206C46.9544 508.079 48.4617 505.074 49.0641 501.895C49.6929 498.576 47.7846 497.335 45.1245 495.728C42.2179 493.971 39.3895 492.315 36.7023 490.184C33.153 487.372 30.6658 483.579 27.2262 480.709C25.5986 483.775 26.6058 489.664 23.2846 491.625C19.9185 493.613 15.3203 488.986 13.093 486.848C9.16026 483.074 6.04989 478.519 3.35249 473.775C1.1082 469.828 0.451037 463.124 -3.75436 460.729C-2.06354 459.124 -1.30833 457.884 1.1122 458.865C3.52908 459.845 4.76235 462.574 6.21275 464.583C10.1312 470.009 14.6799 475.133 19.0297 480.205C20.5613 478.859 21.1591 476.525 21.845 474.672C22.825 472.028 24.0915 469.664 25.5995 467.284C28.4768 462.743 31.724 458.459 34.7665 454.038C36.086 452.121 37.4413 450.324 35.6794 448.154C34.124 446.239 31.2198 444.812 29.398 443.075C25.2767 439.149 21.4493 435.785 18.1216 431.077C16.7808 429.18 12.1234 421.147 18.0194 421.797C19.767 421.99 21.1237 424.065 22.2407 425.254C24.3045 427.45 26.39 429.63 28.5995 431.676C33.1377 435.878 38.33 439.204 43.2363 442.925C48.6484 447.03 53.9799 451.26 59.7033 454.908C61.3271 448.942 61.9209 442.709 63.2176 436.661C64.5282 430.548 65.5419 424.488 66.4653 418.303C67.2004 413.379 68.052 408.341 69.5192 403.596C70.1028 401.71 72.8804 394.976 69.5417 394.177ZM223.289 516.414C222.922 515.815 222.535 515.229 222.128 514.655C217.034 521.058 207.486 518.831 200.909 522.425C204.5 525.689 213.665 523.341 213.941 529.948C214.237 537.064 205.324 536.321 201.453 539.739C205.083 541.988 203.765 546.388 201.038 548.664C198.082 551.13 194.335 550.214 191.178 551.932C187.912 553.708 190.83 554.968 193.233 555.415C196.296 555.985 200.223 556.085 203.049 554.612C206.486 552.821 209.071 549.244 211.881 546.641C214.674 544.055 217.559 541.529 219.762 538.374C223.932 532.398 226.551 523.494 223.289 516.414ZM158.981 583.126C164.982 578.093 169.968 571.888 176.073 566.99C177.859 565.558 180.963 564.086 181.556 561.617C181.946 559.994 180.874 558.342 180.839 556.701C180.803 555.065 181.353 553.154 182.096 551.735C183.456 549.14 185.979 547.634 186.971 544.768C188.251 541.07 188.37 538.49 191.647 535.88C194.221 533.83 194.65 533.69 192.927 530.547C191.045 527.116 190.97 523.865 192.959 520.449C196.325 514.665 202.839 512.065 209.219 512.341C212.202 512.47 215.854 513.185 218.197 510.875C220.374 508.729 221.218 504.935 222.641 502.247C226.239 495.454 231.083 489.489 235.039 482.933C235.986 481.364 236.921 479.77 238.144 478.403C238.921 477.535 240.46 476.678 240.314 475.287C240.063 472.892 235.267 470.969 233.523 470.28C220.766 465.239 208.873 475.554 197.787 480.202C192.142 482.568 185.546 485.944 179.235 485.054C173.288 484.215 168.71 478.751 165.584 473.912C161.368 467.385 159.005 459.685 157.86 452.039C157.26 448.035 157.145 444.045 157.326 440.016C157.511 435.893 158.631 431.309 154.959 428.339C150.218 424.507 144.293 428.049 139.966 430.604C132.897 434.778 126.755 440.087 120.289 445.113C114.858 449.334 107.724 453.626 100.704 450.635C93.6933 447.648 87.7434 440.882 85.6927 433.473C81.4416 418.111 88.0803 400.73 78.608 386.668C78.3605 389.957 78.6514 393.258 78.2122 396.534C77.6823 400.49 76.5357 404.361 75.791 408.274C74.3621 415.786 72.9903 423.304 71.2674 430.751C69.7108 437.478 67.7346 444 65.7323 450.586C63.2371 458.793 69.5083 460.694 75.8993 463.408C89.8491 469.334 104.3 474.602 118.629 479.458C131.086 483.68 143.818 487.225 156.799 489.011C161.444 489.65 169.316 490.709 170.318 496.596C171.209 501.822 166.24 506.621 163.456 510.359C165.295 511.76 167.478 512.767 167.56 515.425C167.629 517.629 166.049 519.672 164.606 521.118C163.614 522.112 159.745 523.808 159.47 525.028C159.275 525.896 161.088 528.397 161.204 529.733C161.602 534.303 156.68 537.376 152.948 538.519C147.804 540.094 141.977 539.54 136.659 539.26C124.737 538.631 114.223 534.391 103.391 529.474C92.399 524.484 82.0902 518.878 71.7439 512.595C69.1905 511.045 66.6229 509.522 64.0292 508.044C61.9024 506.832 59.3923 504.638 57.1087 503.887C52.8832 502.496 53.4475 509.644 52.9812 512.519C50.9744 524.892 46.9878 536.975 42.7223 548.668C38.3228 560.727 33.9115 572.849 28.9457 584.672C24.088 596.238 18.5579 607.462 14.3975 619.337C10.1235 631.536 6.56779 644.025 2.73956 656.381C-1.09254 668.75 -5.37942 680.963 -9.22457 693.322C-12.9819 705.401 -15.5215 717.89 -18.3411 730.233C-19.8167 736.69 -21.2361 743.16 -22.6622 749.629C-23.8151 754.86 -26.2676 760.921 -24.9218 766.256C-23.7088 771.064 -23.9778 776.076 -18.0677 777.295C-13.5815 778.22 -8.63185 775.664 -5.53421 772.612C-1.75372 768.887 1.25158 763.988 4.50844 759.783C8.25344 754.948 12.2128 750.305 15.9962 745.505C19.6233 740.903 22.784 736.066 26.0293 731.187C29.3201 726.24 33.4451 721.968 37.1183 717.323C44.9714 707.395 52.5833 697.334 60.7721 687.684C79.5528 665.553 99.5801 644.708 120.157 624.33C121.97 622.534 158.366 582.528 158.981 583.126ZM8.19698 608.527C-15.887 624.886 -44.381 628.978 -71.9526 635.999C-85.8929 639.549 -99.698 643.818 -113.512 647.828C-120.227 649.777 -126.888 651.916 -133.454 654.323C-136.757 655.534 -140.014 656.85 -143.278 658.16C-146.165 659.319 -149.691 659.551 -152.421 660.842C-155.917 662.497 -154.267 670.144 -159.682 669.36C-163.315 668.835 -165.504 663.634 -167.745 661.189C-168.781 662.925 -170.305 665.609 -169.762 667.78C-169.273 669.735 -167.176 670.696 -166.014 672.218C-164.982 673.568 -163.783 675.497 -165.216 677.016C-166.716 678.605 -169.415 677.14 -171.093 676.755C-170.724 679.766 -168.44 681.201 -167.775 683.81C-167.075 686.556 -169.628 687.505 -170.562 689.754C-171.631 692.327 -170.871 695.98 -170.796 698.707C-170.708 701.879 -170.817 705.13 -171.43 708.24C-172.526 713.8 -176.15 719.432 -180.628 722.787C-185.269 726.263 -190.689 724.877 -195.235 721.687C-196.929 720.498 -199.034 718.691 -199.055 716.404C-199.079 713.791 -197.305 712.815 -198.371 709.961C-199.327 707.397 -201.133 705.25 -202.098 702.674C-203.518 698.889 -204.06 694.826 -205.433 691.021C-210.976 675.667 -216.066 660.165 -219.557 644.184C-220.461 640.049 -221.407 636.016 -222.547 632.019C-223.433 628.911 -221.271 627.938 -218.622 626.518C-212.222 623.087 -204.637 623.736 -198.467 620.247C-198.874 620.478 -198.434 617.937 -198.302 617.606C-197.497 615.586 -195.798 614.455 -194.007 613.36C-189.239 610.44 -183.964 608.771 -178.563 607.479C-166.303 604.549 -153.712 603.042 -141.733 599.013C-135.696 596.982 -129.582 595.238 -123.517 593.305C-117.944 591.528 -112.281 590.289 -106.733 588.571C-94.5692 584.805 -82.1577 582.283 -69.9238 578.781C-73.2046 576.981 -77.0663 576.704 -80.6552 576.042C-85.0682 575.227 -89.516 574.166 -93.8099 572.821C-102.676 570.043 -110.749 565.096 -118.35 559.728C-132.855 549.483 -145.431 537.338 -155.034 522.18C-165.429 505.77 -174.368 488.673 -182.035 470.782C-183.808 466.643 -185.409 462.396 -186.368 457.986C-186.997 455.098 -186.237 449.837 -188.21 447.532C-190.453 444.913 -193.717 445.284 -194.122 441.04C-194.277 439.421 -193.638 438.009 -193.395 436.471C-193.036 434.207 -193.738 434.346 -194.457 432.524C-195.259 430.492 -194.643 428.924 -196.854 427.636C-198.732 426.543 -199.656 427.002 -200.507 428.82C-201.703 431.375 -201.001 434.63 -202.277 437.213C-203.518 439.725 -205.907 440.108 -206.881 437.15C-207.862 434.173 -206.631 430.856 -207.292 427.853C-215.53 431.167 -224.128 436.772 -233.324 436.535C-237.591 436.424 -240.98 434.347 -242.318 430.064C-244.556 422.896 -240.126 414.568 -236.49 408.661C-234.48 405.396 -231.984 402.472 -229.88 399.267C-227.728 395.99 -225.615 392.537 -222.536 390.071C-219.259 387.448 -215.38 386.67 -211.291 386.248C-206.232 385.724 -201.146 385.116 -196.065 384.814C-186.213 384.228 -176.405 386.245 -166.569 385.705C-162.848 385.5 -158.818 384.201 -155.153 385.512C-151.272 386.9 -149.888 390.544 -148.914 394.286C-147.708 398.917 -146.749 403.623 -145.807 408.313C-145.212 411.273 -145.228 418.183 -142.767 419.961C-141.92 420.574 -140.37 420.081 -139.536 420.847C-138.732 421.585 -138.637 423.162 -138.394 424.172C-137.187 429.175 -136.044 434.244 -134.621 439.188C-129.33 457.563 -120.423 475.892 -106.966 489.511C-100.721 495.831 -92.8456 499.65 -85.2048 503.892C-77.6918 508.064 -69.9941 511.334 -61.3377 510.339C-53.434 509.43 -44.7178 506.038 -38.297 501.308C-32.0417 496.701 -30.4792 486.935 -28.9759 479.71C-26.8911 469.691 -25.7939 459.412 -25.271 449.168C-25.188 447.542 -25.0558 445.555 -25.8447 444.048C-26.8118 442.2 -28.8895 441.413 -30.1897 439.867C-31.7357 438.027 -32.5688 435.432 -33.7899 433.36C-34.9733 431.351 -36.3243 429.457 -37.3539 427.354C-40.5958 420.734 -42.8937 410.709 -40.3881 403.583C-36.2935 391.935 -24.4486 394.403 -14.857 394.664C-15.7688 391.443 -17.3448 389.021 -16.9823 385.553C-16.6211 382.097 -15.0246 378.976 -12.5191 376.654C-7.9599 372.428 -1.33508 371.914 4.49277 370.872C7.12744 370.4 9.75784 369.983 12.4473 370.211C14.53 370.389 16.683 371.084 18.7756 370.927C21.0805 370.754 20.9942 370.052 21.435 367.898C22.1148 364.576 23.2843 361.969 25.5052 359.36C29.8558 354.249 35.7546 352.274 42.3488 353.219C45.018 353.602 49.0485 355.261 51.6511 354.095C53.8901 353.093 54.8403 349.826 55.856 347.757C58.9913 341.369 61.6675 334.786 64.0337 328.056C65.1397 324.911 65.9865 321.565 67.4268 318.568C68.4814 316.372 71.4006 313.551 71.502 310.976C71.6037 308.398 68.5903 307.665 66.7252 306.487C63.8178 304.65 60.6261 303.02 57.9272 300.87C53.0866 297.012 51.7592 290.737 51.0387 284.867C50.2864 278.734 50.4996 272.755 52.1024 266.81C52.7393 264.448 54.5723 261.342 54.0076 258.864C53.4042 256.217 50.007 254.217 47.9163 252.855C42.4572 249.3 35.9009 249.802 29.7348 248.684C22.8489 247.437 16.3137 248.059 9.96607 251.022C4.25535 253.688 0.505071 257.47 -3.19106 262.496C-3.95608 263.535 -5.29592 265.825 -6.79028 264.941C-8.61926 263.86 -6.90742 259.901 -6.35909 258.608C-0.910678 245.764 10.3179 235.869 24.4331 234.969C32.0118 234.485 39.6016 235.849 46.9135 237.911C50.0234 238.788 53.1201 239.623 55.3714 242.156C57.9344 245.038 58.9713 248.901 60.4739 252.374C71.5555 246.103 84.2276 241.203 97.0092 245.526C106.818 248.842 117.59 258.607 114.181 270.159C122.811 266.976 130.716 263.046 140.095 262.679C144.299 262.514 148.524 262.778 152.693 263.429C156.778 264.066 160.541 265.546 164.663 265.799C180.918 266.798 197.277 273.448 211.331 281.642C225.537 289.926 241.981 297.253 253.222 309.81C264.951 322.911 276.075 336.514 284.476 352.095C293.197 368.266 299.504 385.737 301.976 404.043C304.142 420.09 299.613 437.027 293.562 451.624C286.656 468.281 275.987 481.017 262.636 492.659C259.703 495.216 256.725 497.73 254.049 500.572C251.08 503.726 248.546 507.369 245.144 510.077C242.111 512.492 238.436 513.908 234.605 512.554C231.911 511.602 230.345 508.385 227.902 507.58C226.67 507.173 225.742 507.55 225.953 509.241C226.171 510.987 228.218 511.199 229.317 512.154C232.052 514.529 231.851 519.178 231.784 522.484C231.624 530.325 229.051 537.243 224.386 543.393C219.922 549.279 214.241 554.055 208.657 558.782C205.134 561.764 201.612 564.657 197.606 566.959C196.098 567.825 191.866 569.713 192.954 566.482C193.395 565.172 186.995 565.544 186.144 566.13C183.186 568.171 181.247 572.7 179.261 575.635C174.592 582.536 168.656 588.053 162.71 593.768C149.833 606.145 137.674 619.232 125.228 632.049C99.8831 658.15 76.1966 685.394 52.9652 713.455C41.4554 727.359 30.2843 741.47 19.3898 755.883C14.5825 762.243 9.7757 768.617 4.87486 774.901C0.71021 780.242 -4.07444 785.727 -11.0215 786.912C-17.3823 787.998 -23.4526 785.858 -27.3527 780.511C-29.4427 777.646 -31.8871 774.233 -32.6544 770.697C-33.4936 766.831 -32.0965 762.738 -31.2524 759.022C-27.3728 741.949 -23.502 724.877 -19.6405 707.799C-15.3224 688.701 -8.79481 670.411 -3.18359 651.713C-0.328622 642.2 1.92078 632.611 4.16422 622.932C4.66933 620.752 9.82535 609.949 8.19698 608.527Z" fill="#2D4710"/>
<path fill-rule="evenodd" clip-rule="evenodd" d="M259.066 549.928C256.476 550.271 251.225 550.638 250.766 546.901C250.179 542.133 259.491 541.602 262.39 540.602C275.023 536.241 285.907 528.09 294.936 518.281C299.425 513.405 303.27 507.935 308.006 503.294C308.927 502.392 311.112 499.849 312.689 500.686C314.584 501.691 313.323 505.18 312.632 506.535C309.96 511.774 305.062 516.831 301.403 521.384C296.52 527.464 291.135 533.175 285.022 537.993C277.636 543.812 268.471 548.682 259.066 549.928Z" fill="#2D4710"/>
<path fill-rule="evenodd" clip-rule="evenodd" d="M302.453 545.35C300.38 546.475 295.03 550.446 293.328 546.952C291.398 542.99 300.993 538.505 303.276 536.506C304.479 535.451 309.6 530.246 311.479 531.508C315.391 534.135 303.963 543.949 302.453 545.35Z" fill="#2D4710"/>
<path fill-rule="evenodd" clip-rule="evenodd" d="M70.0302 397.058C68.8976 396.885 69.1047 394.587 68.7338 393.936C71.0212 394.251 70.9557 395.514 70.0302 397.058Z" fill="#2D4710"/>
<path fill-rule="evenodd" clip-rule="evenodd" d="M222.485 516.338C221.634 516.377 220.782 516.417 219.931 516.457C220.415 515.945 220.899 515.433 221.383 514.921C221.75 515.393 222.118 515.866 222.485 516.338Z" fill="#2D4710"/>
<path fill-rule="evenodd" clip-rule="evenodd" d="M75.5703 567.492C76.6862 572.712 78.0543 577.87 79.5235 583C80.7635 587.33 82.1185 588.839 86.6506 587.996C92.0238 586.996 97.307 585.554 102.682 584.554C105.123 584.099 110.559 584.931 110.92 581.724C111.222 579.036 108.543 575.849 107.58 573.442C106.506 570.761 106.003 566.359 103.639 564.441C101.111 562.39 95.3375 564.855 92.4024 565.305C86.8074 566.162 81.1928 566.835 75.5703 567.492ZM99.8899 557.07C98.0873 552.592 96.3511 548.074 94.4136 543.653C93.551 541.686 91.2518 537.879 92.152 535.702C94.2647 530.589 100.261 545.262 101.075 546.884C102.445 549.617 103.417 554.734 106.662 555.732C109.87 556.719 114.137 554.849 117.337 554.347C122.153 553.592 126.996 552.942 131.767 551.941C133.37 551.605 138.426 549.741 139.724 551.175C142.706 554.471 124.268 559.021 122.892 559.389C120.528 560.025 118.149 560.652 115.733 561.058C114.372 561.286 112.4 561.19 111.222 562.013C107.842 564.373 112.113 570.286 113.372 573.198C114.783 576.461 115.168 582.074 119.59 581.893C125.147 581.664 130.884 579.608 136.307 578.45C137.807 578.13 148.783 575.041 148.817 578.05C148.853 581.41 139.399 583.111 137.055 583.829C134.408 584.639 131.774 585.491 129.084 586.148C126.668 586.738 123.552 586.982 121.371 588.234C117.547 590.43 121.321 594.713 118.516 597.201C115.849 599.565 115.894 591.301 114.381 590.243C112.122 588.663 105.628 591.289 103.203 591.734C97.8767 592.713 92.1606 593.152 86.9278 594.371C82.7975 595.335 84.3892 598.477 85.7564 601.754C86.9291 604.565 88.614 607.527 89.1618 610.544C89.6024 612.969 88.5442 616.891 86.0671 613.947C82.194 609.344 83.2083 597.132 75.7318 596.584C74.3215 596.481 59.0787 598.771 65.2981 593.551C67.8978 591.369 73.5499 592.876 74.8193 588.94C75.2599 587.576 74.591 585.965 74.2678 584.648C73.4711 581.405 72.5254 578.187 71.5748 574.986C70.6266 571.795 70.3413 568.746 66.5551 568.605C63.6051 568.495 60.6785 569.546 57.7284 569.648C55.5165 569.724 51.3647 568.98 54.0635 565.974C55.8359 563.999 59.9591 563.762 62.4108 563.258C63.6382 563.005 66.3261 562.945 67.0291 561.705C67.784 560.374 66.3598 557.912 65.8638 556.692C64.4313 553.169 60.5846 546.984 62.9046 543.197C64.8458 540.029 66.4318 544.822 67.2163 546.654C68.0245 548.542 68.8188 550.436 69.6401 552.318C70.5444 554.39 71.1549 557.321 72.4549 559.128C74.6386 562.163 79.0621 560.485 82.0525 559.776C87.8944 558.39 93.9464 557.905 99.8899 557.07Z" fill="#2D4710"/>
<path fill-rule="evenodd" clip-rule="evenodd" d="M106.701 620.463C103.321 621.241 99.5126 622.054 96.0363 621.965C93.408 621.897 92.1593 620.465 94.9902 618.937C96.7845 617.969 108.303 616.922 106.701 620.463Z" fill="#2D4710"/>
<path fill-rule="evenodd" clip-rule="evenodd" d="M60.1371 399.709C60.6538 398.056 63.5986 390.068 65.2714 394.629C66.1258 396.957 63.9529 403.255 61.8936 404.073C61.3736 404.28 60.7272 403.205 60.2332 403.432C59.2923 403.865 59.3015 405.496 58.6757 406.222C57.2944 407.824 53.7624 408.47 51.6957 407.63C46.9823 405.715 52.1855 400.258 54.1886 402.266C53.7421 401.819 55.019 393.497 55.7389 392.97C59.6841 390.083 58.2374 399.916 60.1371 399.709Z" fill="#2D4710"/>
<path fill-rule="evenodd" clip-rule="evenodd" d="M46.3546 416.532C45.7807 414.908 44.84 411.577 45.5933 409.983C46.9925 407.018 48.6973 411.384 50.1047 412.372C52.0772 413.756 56.71 412.672 54.8297 416.433C52.9643 420.163 48.9399 418.69 46.3546 416.532Z" fill="#2D4710"/>
<path fill-rule="evenodd" clip-rule="evenodd" d="M50.5381 389.137C51.9099 391.967 47.7655 400.562 46.3277 397.492C45.3761 395.46 49.0155 390.132 50.5381 389.137Z" fill="#2D4710"/>
</g>
<defs>
<clipPath id="clip0_163_1839">
<rect width="862.234" height="632.142" fill="white" transform="translate(215.962 0.473145) rotate(72.2998)"/>
</clipPath>
</defs>
</svg>
