<?xml version="1.0" encoding="UTF-8" standalone="no"?><svg width="536" height="810" viewBox="0 0 536 810" fill="none" xmlns="http://www.w3.org/2000/svg">
<g clip-path="url(#clip0_160_6622)">
<path fill-rule="evenodd" clip-rule="evenodd" d="M364.302 398.462C364.873 405.774 373.108 411.263 379.711 414.475C389.434 419.204 400.014 421.605 409.957 422.644C427.597 424.488 450.837 422.261 449.946 402.377C449.151 384.67 435.999 363.393 422.31 348.738C418.08 344.209 411.689 337.572 405.454 337.989C396.239 338.605 390.343 347.971 386.33 354.398C383.687 358.63 382.234 363.591 378.457 366.843C369.681 374.397 363.289 385.502 364.302 398.462Z" fill="#4D7520"/>
<path fill-rule="evenodd" clip-rule="evenodd" d="M569.38 266.976C576.484 286.541 567.161 302.705 556.798 315.395C550.574 323.016 543.674 330.12 535.632 336.04C531.296 339.232 526.628 342.113 521.758 344.652C518.54 346.329 514.883 349.732 510.416 347.97C498.631 343.322 488.48 331.702 479.836 322.832C475.44 318.321 470.893 313.937 466.479 309.439C463.655 306.562 460.34 303.615 458.227 300.262C455.75 296.335 457.634 295.38 460.59 293.622C464.664 291.2 468.049 288.076 471.597 285.075C480.256 277.75 489.771 272.926 500.981 268.937C512.065 264.993 522.899 261.233 535.199 259.644C541.432 258.84 547.566 258.756 554.178 259.396C559.287 259.891 567.142 260.813 569.38 266.976ZM601.409 353.279C602.848 354.541 587.722 364.222 585.82 365.566C573.333 374.384 560.204 383.061 545.552 389.096C531.876 394.731 518.353 398.518 502.049 398.523C494.449 398.525 486.901 397.958 479.151 396.994C475.266 396.51 473.823 398.937 470.193 398.959C466.926 398.977 464.393 398.969 461.826 396.097C466.393 393.177 480.876 392.622 479.87 385.009C479.296 380.669 474.094 381.896 471.454 382.271C466.488 382.974 461.225 382.763 455.934 382.249C460.017 379.136 464.792 377.016 470.116 375.722C472.481 375.146 480.819 373.359 477.758 368.946C475.873 366.229 469.969 367.241 467.729 367.238C462.228 367.229 455.994 366.983 450.338 364.792C452.094 360.438 458.246 359.926 463.013 359.814C468.306 359.69 474.234 359.091 479.667 359.782C482.469 360.138 484.893 361.666 487.642 362.392C490.735 363.208 493.986 363.158 496.911 362.965C502.548 362.594 507.728 361.032 512.567 359.046C523.624 354.507 533.824 348.323 543.028 341.422C547.543 338.036 551.378 334.28 555.027 330.097C557.864 326.847 560.353 326.395 565.384 328.308C578.996 333.485 590.409 343.639 601.409 353.279ZM439.035 387.236C439.83 391.06 439.283 394.768 439.918 398.608C440.475 401.988 440.947 405.748 440.958 409.031C440.969 412.536 438.493 413.168 435.405 413.848C431.781 414.647 428.971 416.65 425.485 417.669C413.429 421.193 391.76 419.974 380.268 408.336C375.398 403.403 371.827 397.02 372.513 391.157C373.137 385.834 376.034 379.686 380.924 377.364C383.682 376.055 387.215 376.364 390.581 376.802C394.505 377.313 394.578 376.366 393.332 372.697C391.104 366.133 390.948 358.121 394.847 353.438C396.786 351.111 399.307 349.276 402.276 348.158C402.679 348.006 403.328 348.261 403.735 348.112C404.236 347.929 404.253 346.985 404.653 346.899C405.661 346.682 407.751 347.331 408.846 347.617C413.242 348.764 421.677 351.244 422.313 356.045C422.314 356.048 426.1 358.879 426.492 359.252C428.547 361.196 429.894 363.239 431.301 365.609C435.528 372.727 437.494 379.819 439.035 387.236ZM493.335 424.263C492.601 426.699 483.557 422.726 483.78 420.006C483.992 417.412 494 422.059 493.335 424.263ZM461.276 446.102C463.583 448.991 466.564 451.816 467.609 455.209C464.277 454.89 460.123 451.802 458.981 448.617C458.329 446.799 458.756 442.943 461.276 446.102ZM459.068 347.65C459.131 347.718 462.288 346.588 462.923 348.878C463.791 352.006 459.955 348.606 459.068 347.65ZM443.468 320.092C446.297 322.394 441.875 326.517 439.037 324.195C435.544 321.336 440.471 317.652 443.468 320.092ZM415.205 306.648C412.967 304.101 415.833 293.075 420.201 296.928C422.391 298.86 419.966 312.059 415.205 306.648ZM437.072 460.638C437.758 462.679 437.281 464.418 437.494 466.377C437.715 468.431 438.537 470.428 439.072 472.495C440.543 478.17 440.912 483.883 441.911 489.537C443.747 499.93 446.23 510.465 446.653 520.699C447.407 538.988 442.535 555.604 437.097 571.619C436.647 572.946 435.779 577.112 433.847 577.236C431.763 577.371 427.963 573.42 426.399 572.087C419.982 566.622 413.798 560.707 407.175 555.52C404.455 553.39 400.128 550.937 398.531 547.872C396.746 544.45 398.657 540.403 399.301 537.469C401.257 528.552 400.858 518.138 400.444 508.549C399.934 496.762 399.378 484.825 399.433 473.157C399.487 461.726 401.948 451.037 405.024 440.696C406.294 441.119 406.475 447.369 406.577 448.149C407.067 451.889 407.492 455.871 409.082 459.627C410.208 462.287 413.818 466.976 416.302 464.102C417.507 462.709 417.41 459.15 417.872 457.383C418.633 454.464 419.733 451.708 421.094 449.106C422.298 453.24 421.996 463.751 427.526 466.213C432.891 468.602 433.065 457.762 434.908 455.455C436.154 457.07 436.486 458.893 437.072 460.638ZM386.209 549.704C384.728 555.551 382.321 560.835 380.039 566.268C377.864 571.448 375.65 576.072 371.493 579.835C365.754 585.031 357.284 589.088 347.924 582.849C336.835 575.459 331.839 562.166 328.292 551.346C323.977 538.179 321.205 525.05 319.644 511.975C318.084 498.913 317.847 485.972 318.913 473.463C319.723 463.947 322.804 454.929 324.934 445.884C325.339 444.163 326.017 439.05 328.673 439.26C330.821 439.43 332.117 442.57 333.068 444.034C334.921 446.889 337.369 449.034 339.905 451.415C351.23 462.049 362.395 472.877 374.118 483.121C377.385 485.976 380.717 489.069 384.228 491.624C386.172 493.039 389.167 494.192 390.597 496.16C393.346 499.944 392.132 506.243 391.827 509.852C391.28 516.312 389.82 522.449 389.116 528.854C388.344 535.889 387.908 542.992 386.209 549.704ZM355.152 427.376C355.885 426.031 356.881 423.936 358.705 423.673C361.083 423.329 362.583 425.116 362.504 427.125C362.442 428.712 360.776 431.211 359.319 431.664C356.838 432.436 353.921 429.639 355.152 427.376ZM388.38 443.237C389.665 445.823 388.227 450.374 384.651 447.021C381.59 444.149 386.013 438.473 388.38 443.237ZM329.711 398.475C331.699 397.556 334.572 395.302 337.475 396.878C340.177 398.345 338.633 399.956 336.982 400.689C335.624 401.292 326.933 401.868 329.711 398.475ZM611.467 230.793C606.265 228.101 601.84 223.45 596.849 220.27C592.01 217.188 587.227 214.776 582.04 212.656C570.557 207.963 559.684 204.409 547.981 202.323C525.942 198.396 504.666 197.27 484.094 200.001C463.785 202.698 444.561 208.293 427.424 216.798C409.252 225.818 395.367 238.418 381.978 252.543C377.981 256.762 373.915 260.919 369.582 264.829C366.416 267.686 362.459 271.277 361.161 275.567C360.346 278.262 361.733 281.24 365.019 280.22C367.349 279.497 369.127 277.534 370.803 276.019C377.75 285.018 383.672 295.36 385.277 305.534C386.844 315.467 383.168 324.145 379.297 332.007C377.197 336.27 374.57 340.822 371.284 344.229C369.207 346.384 366.365 347.089 368.708 350.501C370.337 352.87 372.45 355.063 368.517 353.329C363.867 351.279 363.494 351.797 359.877 354.088C352.482 358.772 344.526 364.559 335.199 366.348C325.522 368.204 315.804 363.774 305.661 361.021C303.153 360.342 297.437 359.767 296.298 356.817C295.257 354.119 298.41 350.571 299.562 348.713C300.777 346.752 302.206 344.944 303.551 343.077C304.331 341.995 306.553 340.342 304.213 339.159C300.686 337.375 295.669 344.449 294.277 346.09C291.69 349.142 289.253 352.384 287.213 355.846C277.098 373.016 268.74 391.816 262.247 411.064C249.649 448.406 246.646 491.923 257.706 535.359C268.322 577.053 307.809 619.127 352.002 634.021C374.968 641.762 393.507 633.548 410.296 624.641C419.151 619.943 427.666 614.279 433.183 606.171C435.829 602.28 437.335 597.784 439.232 593.442C440.059 591.548 440.809 589.241 442.257 587.774C443.354 586.664 445.72 586.646 445.866 584.9C445.969 583.66 444.695 582.067 444.82 580.551C444.972 578.732 445.832 577.067 446.453 575.468C448.179 571.022 449.123 566.136 450.418 561.477C451.756 556.659 452.492 551.691 453.251 546.649C453.635 544.102 452.756 536.8 456.658 538.059C458.439 538.634 460.9 540.961 462.434 541.981C465.118 543.764 467.827 545.504 470.551 547.216C476.547 550.984 482.619 554.611 488.699 558.214C499.67 564.714 510.539 570.479 522.2 574.914C531.511 578.456 541.579 583.078 551.004 583.371C555.118 583.498 558.378 581.792 559.78 578.38C561.374 574.498 558.937 569.985 557.481 565.693C554.277 556.247 554.792 545.291 558.101 537.438C562.153 527.822 571.501 522.771 580.24 517.484C589.484 511.892 598.704 506.047 608.42 501.072C617.475 496.436 628.548 492.467 634.406 484.274C639.516 477.13 637.433 464.98 635.896 455.655C634.352 446.29 631.243 433.638 637.595 427.021C640.748 423.735 645.534 422.268 649.189 419.533C653.202 416.531 656.563 412.61 660.009 409.051C664.286 404.631 671.227 392.644 665.215 384.941C664.323 383.798 662.056 381.984 660.714 382.759C659.481 383.472 660.622 385.252 659.765 386.177C658.023 388.06 652.278 386.028 649.659 385.735C639.089 384.55 628.99 386.439 618.666 386.338C607.01 386.224 594.493 384.077 582.546 381.462C583.432 379.037 586.147 377.824 588.132 376.378C590.544 374.619 593.038 373.022 595.597 371.434C598.417 369.685 600.994 367.684 603.637 365.733C605.607 364.277 607.718 361.94 610.25 361.228C612.46 360.605 614.233 360.689 615.982 359.122C617.761 357.528 619.011 355.431 620.472 353.569C624.424 348.534 628.291 343.448 631.585 337.927C643.225 318.415 648.521 292.104 637.92 266.309C635.036 259.292 631.147 252.388 626.226 246.057C622.383 241.114 617.256 233.789 611.467 230.793Z" fill="#2D4710"/>
<path fill-rule="evenodd" clip-rule="evenodd" d="M260.186 220.348C263.963 215.794 269.193 212.875 274.644 210.176C279.438 207.801 284.299 205.071 290.274 204.829C301.022 204.393 312.678 211.356 322.39 217.639C334.508 225.48 340.932 236.743 348.567 248.003C355.708 258.533 359.08 270.084 359.807 281.191C360.188 287.01 359.068 292.211 357.583 297.401C356.075 302.673 355.226 308.268 351.837 312.491C346.693 318.905 336.185 323.983 325.831 320.193C321.117 318.468 321.419 316.721 325.432 315.843C331.253 314.57 337.203 313.612 341.881 310.425C350.953 304.245 354.887 291.306 355.472 279.998C356.055 268.694 352.163 257.682 345.094 246.752C337.962 235.725 329.383 226.8 317.891 219.673C308.153 213.632 298.343 209.259 288.558 211.61C267.434 216.688 253.847 235.413 257.862 258.146C258.412 261.263 258.927 264.322 259.353 267.421C259.624 269.392 259.967 271.733 262.04 273.133C263.814 274.333 272.447 276.716 267.82 278.456C264.069 279.866 259.77 278.826 256.778 281.775C253.594 284.913 253.727 291.798 257.226 296.294C260.564 300.583 267.624 303.332 272.201 302.461C275.035 301.921 276.314 299.856 277.808 297.865C278.549 296.877 280.29 293.868 282.117 294.282C285.347 295.012 284.609 300.952 284.097 302.649C282.849 306.78 278.419 309.301 273.376 308.219C268.25 307.119 263.008 304.982 258.44 301.745C254.064 298.643 250.417 294.523 248.51 289.866C246.482 284.913 245.7 277.494 249.939 274.791C251.779 273.617 254.966 274.04 256.64 272.783C257.696 271.99 257.544 272.557 257.249 270.966C257.063 269.955 256.341 268.564 256.01 267.505C254.105 261.412 251.898 255.129 251.318 249.071C250.278 238.208 253.978 227.832 260.186 220.348ZM328.61 302.76C326.998 300.286 331.968 302.078 332.936 302.207C334.851 302.461 337.319 301.434 339.163 303.036C342.206 305.681 338.966 308.539 336.438 308.336C333.561 308.104 330.202 305.203 328.61 302.76ZM332.579 267.236C337.618 268.325 339.765 273.621 341.824 277.589C343.793 281.384 346.237 285.4 347.845 289.271C350.516 295.697 340.808 297.279 335.776 293.536C331.925 290.671 335.2 289.917 337.655 289.715C340.183 289.508 341.057 289.151 340.62 286.468C339.741 281.07 335.471 275.547 333.041 270.36C332.56 269.331 332.65 268.237 332.579 267.236ZM337.823 263.051C339.937 263.982 343.783 268.645 345.476 265.579C346.412 263.884 343.906 261.361 343.328 259.616C341.384 253.746 348.396 260.673 349.763 262.893C352.774 267.785 352.292 274.358 345.25 272.182C342.63 271.373 340.117 269.359 338.292 267.248C337.298 266.099 333.92 261.33 337.823 263.051ZM310.347 280.499C312.191 282.364 315.061 287.086 317.963 286.44C320.517 285.871 319.95 280.875 319.767 278.72C319.578 276.481 318.421 270.826 322.822 274.157C325.066 275.855 326.34 279.666 326.634 281.893C327.261 286.645 325.374 293.971 318.765 291.824C315.165 290.654 311.679 286.935 309.44 284.018C307.626 281.653 305.892 275.995 310.347 280.499ZM326.398 237.564C328.824 237.773 334.369 238.103 335.536 241.264C336.899 244.96 330 243.684 327.84 243.628C325.895 243.578 320.901 242.752 319.729 240.466C317.789 236.683 324.268 237.381 326.398 237.564ZM306.322 248.717C311.982 247.584 310.446 253.791 309.135 255.965C307.546 258.595 305.324 261.803 302.071 262.784C297.46 264.175 295.058 260.565 296.685 256.945C298.354 253.234 301.93 249.596 306.322 248.717ZM261.231 286.207C263.897 284.178 267.042 281.941 271.304 283.93C275.708 285.987 275.908 288.248 273.006 290.177C270.32 291.961 266.684 294.926 262.576 293.866C257.669 292.599 258.76 288.089 261.231 286.207Z" fill="#2D4710"/>
<path fill-rule="evenodd" clip-rule="evenodd" d="M228.941 489.236C231.81 492.924 230.72 499.116 231.16 502.991C232.701 516.543 234.69 530.173 237.874 543.856C239.527 550.958 242.803 557.952 245.332 564.986C245.949 566.703 247.611 570.198 246.186 571.458C244.623 572.842 240.792 570.313 239.274 569.016C234.096 564.591 231.967 556.724 230.45 551.114C228.745 544.805 227.311 538.371 226.196 532.078C224.969 525.151 224.568 518.377 224.301 511.588C224.04 504.922 223.119 497.994 223.304 491.427C223.392 488.334 225.4 484.685 228.941 489.236ZM405.266 199.43C407.902 196.393 411.678 194.392 415.277 192.417C423.193 188.074 431.913 184.88 440.735 181.908C456.198 176.697 472.787 173.047 489.832 171.17C493.395 170.777 496.621 170.034 499.96 169.18C502.098 168.634 504.933 167.685 507.474 168.846C513.931 171.799 503.099 174.28 501.556 174.627L499.386 175.116C467.212 182.379 435.513 189.984 408.095 205.371C406.634 206.191 404.937 205.452 404.062 203.711C403.114 201.823 404.287 200.559 405.266 199.43ZM205.757 472.212C207.279 473.666 206.503 475.402 206.254 476.792C205.324 481.979 204.033 487.024 203.144 492.227C201.492 501.882 201.948 512.326 199.171 521.561C198.537 523.673 196.268 522.246 195.194 520.687C193.994 518.948 194.027 516.63 193.94 514.865C193.686 509.77 194.494 504.868 195.31 500.088C196.117 495.348 197.446 490.864 198.613 486.276C199.699 482.011 199.965 476.268 202.458 472.749L202.566 472.595C203.352 471.469 203.969 470.505 205.757 472.212ZM396.203 182.827C392.484 185.099 392.285 179.987 393.988 178.232C395.889 176.274 398.82 175.256 401.208 173.867C408.507 169.62 415.67 166.001 423.962 163.21C425.199 162.795 430.835 161.111 429.999 164.536C429.419 166.908 422.742 168.197 420.727 169.022C411.875 172.649 404.147 177.973 396.203 182.827Z" fill="#2D4710"/>
<path fill-rule="evenodd" clip-rule="evenodd" d="M302.732 317.161C301.537 315.551 288.933 297.374 286.886 298.911C284.718 300.539 292.133 310.957 293.393 312.939C298.047 320.258 303.886 327.055 309.946 333.569C314.166 338.104 318.572 342.647 323.666 346.309C327.58 349.124 329.111 348.375 333.001 348.233C321.576 339.103 311.263 328.658 302.732 317.161Z" fill="#2D4710"/>
</g>
<defs>
<clipPath id="clip0_160_6622">
<rect width="602.703" height="583.349" fill="white" transform="translate(0.265869 445.854) rotate(-51.374)"/>
</clipPath>
</defs>
</svg>
