<svg width="24" height="24" viewBox="0 0 24 24" fill="none" xmlns="http://www.w3.org/2000/svg">
<path d="M3.71652 10.464H5.38932V21.216H7.89924V12H10.4092V21.216H12.9186V12H15.429V21.216H17.9389V10.464H19.6112C20.0735 10.464 20.4484 10.1203 20.4484 9.69598C20.4484 9.43966 20.3101 9.21406 20.0994 9.07486L20.1008 9.07342L20.0884 9.06622L20.0668 9.05326L12.082 4.92094V3.71038C13.5565 4.38814 14.7704 3.22078 16.6828 3.92254V1.24846C14.7695 0.5467 13.556 1.7131 12.082 1.03582V0.86398C12.082 0.65134 11.8952 0.47998 11.6639 0.47998C11.4325 0.47998 11.2463 0.65134 11.2463 0.86398V4.92094L3.26148 9.0523L3.23988 9.06526L3.22788 9.07342V9.07486C3.01812 9.21406 2.88036 9.44014 2.88036 9.69598C2.87988 10.1203 3.25476 10.464 3.71652 10.464V10.464ZM4.55268 21.9845L2.87988 23.52H20.4488L18.7751 21.9845H4.55268Z" fill="#2D4710"/>
</svg>
