<svg width="413" height="318" viewBox="0 0 413 318" fill="none" xmlns="http://www.w3.org/2000/svg">
<path fill-rule="evenodd" clip-rule="evenodd" d="M150.082 80.5233C149.798 85.2981 149.513 90.0724 149.229 94.8472C151.059 94.306 162.704 90.7884 161.985 94.355C161.468 96.913 158.195 99.6801 156.527 101.461C154.991 103.101 153.411 104.698 151.79 106.248C154.769 105.077 157.773 103.968 160.799 102.931C163.089 102.146 165.395 101.38 167.741 100.792C168.612 100.573 170.964 99.6814 171.786 100.289C173.948 101.887 162.218 113.651 160.611 115.31C162.883 114.225 165.21 113.24 167.576 112.394C169.284 111.783 174.562 109.45 176.074 111.443C177.692 113.574 173.683 118.469 172.572 120.021C170.979 122.245 169.252 124.378 167.441 126.418C174.969 133.36 183.816 139.538 193.23 143.378C200.133 146.194 206.914 146.911 214.198 145.366C221.681 143.778 228.858 140.733 235.68 137.253C239.687 135.208 243.641 132.996 247.407 130.51C245.854 128.571 244.347 126.592 242.882 124.582C240.791 121.713 238.222 118.577 237.03 115.161C235.863 111.818 240.24 112.471 242.34 112.652C245.38 112.915 248.412 113.473 251.391 114.141C249.285 112.636 247.216 111.072 245.189 109.457C242.547 107.352 239.024 104.971 237.295 101.943C235.774 99.28 239.111 99.9525 240.654 100.301C244.333 101.134 247.913 102.551 251.422 103.934C253.992 104.947 256.546 106.008 259.075 107.125C257.505 105.724 255.988 104.256 254.53 102.733C252.569 100.687 249.926 98.1888 249.048 95.3713C247.258 89.6336 259.296 93.9617 261.352 94.8472C260.972 88.9034 260.593 82.9595 260.213 77.0156C244.273 81.37 228.333 85.7249 212.393 90.0798C210.67 90.5505 208.514 91.5754 206.718 91.63C205.09 91.68 203.125 90.9278 201.538 90.6167L172.693 84.9586C165.156 83.4801 157.619 82.0017 150.082 80.5233Z" fill="#4D7520"/>
<path fill-rule="evenodd" clip-rule="evenodd" d="M321.404 284.964C319.683 285.975 317.668 286.755 315.756 287.279C314.633 287.587 312.778 288.537 311.791 287.666C311.318 287.248 311.209 286.298 310.93 285.748C310.488 284.877 309.859 284.124 309.27 283.354C307.843 281.487 306.358 279.687 304.804 277.931C304.067 277.099 302.722 275.156 301.425 275.284C299.807 275.444 299.846 277.742 300.252 278.916C301.542 282.654 305.448 285.913 308 288.729C307.351 289.754 303.788 289.632 302.799 289.392C301.288 289.026 301.135 287.922 300.446 286.658C298.833 283.707 295.562 282.055 292.873 280.32C291.893 279.686 289.809 277.932 288.531 278.374C287.321 278.792 287.373 280.38 287.759 281.417C288.341 282.984 289.998 284.071 291.224 285.062C292.858 286.382 294.352 287.819 295.714 289.435C293.751 289.599 291.795 289.883 289.838 290.049C287.47 290.249 285.496 288.915 283.316 288.159C281.291 287.457 279.273 286.863 277.281 286.053C275.045 285.144 272.703 284.827 270.447 284.03C261.595 280.9 252.921 276.963 244.39 272.995C240.325 271.104 236.344 269.211 232.109 267.732C229.022 266.653 224.171 264.503 223.433 260.729C223.044 258.734 224.463 256.589 224.672 254.597C224.918 252.252 224.725 249.673 224.029 247.424C223.416 245.443 222.4 243.608 221.599 241.705C220.666 239.488 221.501 239.524 223.314 239.272C225.483 238.97 228.014 237.716 230.053 236.9C232.401 235.959 234.729 234.645 236.88 233.293C238.826 232.071 240.519 230.495 242.068 228.783C243.643 227.042 244.663 224.98 246.187 223.196C251.809 230.294 257.152 237.5 263.126 244.292C265.946 247.498 269.012 250.148 272.486 252.586C273.937 253.604 275.376 254.766 276.957 255.571C278.934 256.578 281.143 257.203 283.175 258.122C290.965 261.646 298.399 265.498 305.666 270.045C309.182 272.244 312.132 274.765 315.228 277.524C316.192 278.383 324.085 283.389 321.404 284.964ZM230.025 226.813C228.766 227.398 227.567 228.159 226.223 228.534C226.604 226.156 228.766 222.569 231.538 222.963C232.597 223.114 233.396 223.958 232.93 225.122C232.507 226.18 230.922 226.396 230.025 226.813ZM142.403 162.305C140.976 163.114 139.646 163.585 138.809 161.849C139.429 161.721 142.245 161.336 142.403 162.305ZM140.027 157.396C138.924 157.053 139.806 156.692 140.185 156.277C140.481 155.955 141.46 154.824 141.802 154.637C143.315 153.814 144.484 156.876 145.208 157.869C143.495 157.713 141.694 157.915 140.027 157.396ZM151.818 167.995C149.728 168.359 149.96 165.674 150.023 164.314C150.464 164.866 153.448 167.712 151.818 167.995ZM158.746 163.358C156.198 163.799 154.514 159.279 154.97 157.302C155.372 155.56 157.348 154.587 158.92 154.33C160.444 154.081 162.565 154.421 163.018 156.225C163.418 157.82 160.445 163.063 158.746 163.358ZM219.072 231.596C217.241 232.174 215.446 232.247 213.605 232.814C211.517 233.458 209.584 233.401 207.491 233.839C206.64 234.016 204.343 235.29 203.512 235.006C202.69 234.724 201.499 232.103 201.026 231.421C204.729 229.841 207.888 227.801 210.328 224.472C212.269 221.824 214.35 217.858 213.129 214.441C211.752 210.588 207.006 209.752 203.841 211.361C202.344 212.122 200.86 213.068 199.626 214.228C198.215 215.553 197.66 217.001 196.745 218.636C195.821 220.29 195.172 219.37 194.248 217.966C193.459 216.765 193.562 215.553 192.575 214.368C192.072 213.764 191.292 213.181 191.03 212.401C190.863 211.906 191.214 211.028 190.898 210.639C190.454 210.091 189.913 210.735 189.541 210.246C189.271 209.891 189.359 209.081 189.08 208.637C188.838 208.385 188.569 208.169 188.271 207.99C187.909 207.807 187.844 207.577 188.073 207.302C187.786 206.756 188.062 206.572 187.447 205.907C186.488 204.872 185.614 203.88 184.931 202.658C184.619 202.098 184.65 201.269 184.262 200.785C183.73 200.12 182.844 200.22 182.387 199.397C181.979 198.664 182.252 197.381 181.58 196.716C181.226 196.612 180.871 196.51 180.517 196.409C180.25 196.143 180.095 195.821 180.05 195.441C179.677 194.851 179.603 194.158 179.132 193.535C178.23 192.343 177.017 191.242 176.221 189.986C175.383 188.665 175.827 188.443 177.282 187.97C178.594 187.543 179.791 187.148 181.007 186.421C186.628 183.063 191.958 174.154 183.035 171.433C179.724 170.423 177.004 167.707 173.333 168.774C171.741 169.237 170.232 170.223 169.044 171.392C168.224 172.2 167.464 174.362 166.457 174.776C164.646 175.521 165.412 173.661 164.898 172.806C164.652 172.398 163.664 171.928 163.298 171.557C162.869 171.122 162.453 170.572 162.155 170.034C161.601 169.035 161.263 168.478 160.464 167.664C160.163 167.357 158.66 165.77 160.015 165.978C159.466 164.26 160.267 164.002 161.375 162.747C162.675 161.273 164.018 159.225 164.025 157.16C164.04 153.195 159.464 151.419 156.59 153.772C156.006 154.251 152.547 158.874 153.255 155.926C153.636 154.336 157.169 150.185 158.807 151.259C156.971 148.513 152.755 155.181 151.771 156.546C150.933 154.962 150.873 153.723 149.487 152.496C148.358 154.355 148.954 152.324 148.705 151.911C148.167 151.019 148.463 152.039 148.171 151.722C147.808 151.328 147.236 151.017 146.85 150.494C146.188 151.416 146.453 150.424 146.25 150.08C145.776 149.275 145.959 148.808 145.147 148.108C144.556 147.599 143.391 146.809 142.595 146.736C141.678 146.653 141.423 147.014 140.489 146.747C139.299 146.407 137.802 145.886 138.378 147.928C138.796 149.412 140.496 150.255 140.868 151.772C141.243 153.298 139.773 154.836 139.06 156.088C138.144 157.693 137.395 157.562 135.736 157.924C134.675 158.155 133.26 158.65 134.169 159.971C134.819 160.914 136.341 160.716 137.198 161.275C138.4 162.058 138.383 163.99 139.918 164.326C141.608 164.696 142.576 162.765 144.001 162.298C145.014 161.966 148.152 162.003 148.95 162.784C150.036 163.849 149.098 165.882 149.371 167.204C149.778 169.164 151.07 169.284 152.703 169.347C154.715 169.424 155.422 171.406 156.504 172.979C159.037 176.663 161.24 180.59 163.835 184.225C164.984 185.834 166.664 187.266 167.605 189.012C168.767 191.169 167.154 192.413 165.762 193.961C163.944 195.985 162.586 198.287 161.009 200.498C159.607 202.463 157.865 201.974 155.625 201.974C156.125 200.918 156.725 200.259 157.953 200.387C156.669 198.777 155.642 200.619 154.809 201.638C153.604 203.113 152.033 203.469 150.485 204.439C149.938 204.782 146.955 207.006 147.861 207.766C147.964 207.852 152.902 204.518 153.464 204.212C153.464 205.443 153.202 206.722 153.37 207.946C153.493 208.843 154.108 209.78 153.977 210.713C153.728 212.475 151.511 213.862 150.559 215.235C149.842 216.268 150.015 217.083 149.65 218.192C149.318 219.204 149.492 218.898 148.664 219.21C146.976 219.847 144.135 219.503 142.607 218.598C141.659 218.037 140.931 217.149 140.161 216.367C139.58 215.777 138.12 214.769 137.959 213.944C137.682 212.523 140.43 209.883 140.974 208.417C142.51 204.281 139.876 201.066 135.777 200.831C137.041 199.83 138.606 200.584 139.938 200.966C137.662 197.728 133.774 200.392 131.844 202.593C130.524 199.169 129.888 195.558 129.082 191.987C128.533 189.556 126.444 185.217 127.376 182.714C127.826 181.504 129.098 180.829 129.978 179.99C130.978 179.037 131.834 177.897 132.565 176.717C134.287 173.937 135.281 170.427 132.91 167.687C133.631 167.565 134.351 167.444 135.072 167.322C133.9 166.192 132.051 166.743 130.531 166.408C129.566 166.195 126.789 166.333 126.145 165.772C125.37 165.098 125.867 161.997 125.895 161.079C125.958 158.934 126.133 156.871 126.364 154.739C126.583 152.725 126.539 150.549 126.944 148.57C127.273 146.964 128.325 146.475 129.538 145.529C132.439 143.266 134.803 140.513 133.812 136.614C134.163 136.557 134.514 136.5 134.865 136.442C133.73 135.6 132.262 135.906 130.999 135.461C132.158 132.111 134.722 126.222 138.885 125.905C139.029 127.403 138.931 129.184 139.915 130.423C141.035 131.834 143.002 131.977 144.52 131.23C145.897 130.552 147.189 129.115 147.824 127.696C148.254 126.735 148.176 125.11 148.93 124.348C149.941 123.327 156.911 123.943 156.697 125.667C156.572 126.681 154.708 128.385 154.187 129.283C153.234 130.928 152.471 132.706 152.12 134.595C151.589 137.462 151.897 141.248 154.733 142.756C157.959 144.471 161.891 142.29 164.537 140.406C165.99 139.372 167.397 138.23 168.724 137.031C169.431 136.394 170.141 135.736 170.764 135.011C171.224 134.475 171.592 133.611 172.158 133.21C173.496 132.263 174.807 133.87 175.939 134.682C177.783 136.005 179.618 137.261 181.597 138.362C185.614 140.596 189.286 143.554 192.837 146.492C196.409 149.447 200.092 152.487 202.986 156.169C201.233 157.276 201.546 157.563 200.766 159.537C200.213 160.938 199.451 162.131 199.363 163.688C199.211 166.374 200.89 168.664 203.44 169.258C204.866 169.591 206.225 169.325 207.546 168.726C208.572 168.261 209.596 167.116 210.668 166.831C212.662 166.303 214.258 170.171 215.376 171.533C220.34 177.583 225.587 183.394 230.261 189.691C230.779 190.388 232.317 191.751 232.441 192.674C232.621 194 230.589 195.264 229.746 196.024C229.304 196.423 224.611 200.955 226.187 201.675C226.636 201.881 227.951 199.1 228.279 198.862C229.51 197.972 228.579 199.717 228.506 200.599C228.323 202.792 229.79 203.987 231.852 203.709C234.053 203.413 236.012 201.629 237.374 199.944C239.08 201.974 241.748 205.041 242.242 207.752C242.557 209.484 241.097 213.723 243.822 214.076C244.238 214.13 245.743 212.983 246.024 213.634C246.258 214.177 244.631 215.106 244.396 215.286C243.393 216.054 242.788 216.877 241.978 217.808C241.028 218.901 239.729 219.821 238.66 220.868C237.533 221.971 235.305 224.966 233.819 223.519C233.072 222.792 233.268 221.841 232.072 221.414C230.982 221.026 229.602 221.518 228.589 221.949C227.449 222.434 223.694 224.205 223.278 225.663C222.703 227.673 225.806 225.256 226.358 224.903C225.729 226.543 225.381 228.917 223.779 229.873C222.447 230.668 220.532 231.135 219.072 231.596ZM197.789 219.194C198.855 215.678 205.138 209.409 209.11 211.37C204.481 212.365 200.808 215.618 197.789 219.194ZM200.139 229.262C198.59 228.376 198.674 225.802 198.133 224.297C197.823 223.433 197.202 222.801 197.385 221.843C197.598 220.719 198.994 219.469 199.738 218.658C202.077 216.107 206.194 212.62 209.96 213.205C214.752 213.95 211.503 220.556 209.871 222.83C208.48 224.77 203.12 230.969 200.139 229.262ZM188.958 224.962C183.775 224.607 178.609 224.131 173.497 223.155C171.685 222.808 170.166 222.86 171.203 220.72C171.545 220.014 173.61 215.588 174.076 215.715C174.353 215.791 174.29 218.832 174.371 219.181C174.737 220.747 175.765 222.206 177.497 222.106C180.332 221.944 182.159 218.181 183.652 216.161C184.848 217.812 185.713 219.646 186.915 221.269C187.49 222.045 189.49 223.849 188.958 224.962ZM158.571 204.075C157.701 206.123 155.953 208.072 154.736 209.928C154.049 208.433 153.565 205.002 155.196 203.897C155.813 203.48 159.121 202.78 158.571 204.075ZM176.547 210.175C176.786 209.386 177.052 208.604 177.347 207.836C177.854 209.475 178.114 209.523 176.547 210.175ZM180.984 211.853C181.613 212.948 182.662 214.025 182.497 215.399C182.372 216.441 181.455 217.509 180.8 218.235C179.716 219.436 177.315 221.741 175.744 220.146C174.432 218.814 174.889 215.151 175.499 213.652C176.371 211.511 179.484 209.245 180.984 211.853ZM177.906 209.61C178.266 209.463 177.509 207.073 178.212 206.835C178.825 208.271 179.403 208.659 177.906 209.61ZM168.002 177.452C167.768 176.571 167.233 176.608 167.426 175.518C167.552 174.803 168.105 174.04 168.524 173.474C169.359 172.345 170.461 171.415 171.652 170.711C174.168 169.224 177.622 168.607 179.874 170.934C177.769 171.275 171.314 173.409 171.273 176.365C173.614 175.902 175.455 173.488 177.804 172.727C179.731 172.102 181.821 172.146 183.739 172.806C188.987 174.61 186.805 179.268 183.842 182.293C182.084 184.089 179.975 185.429 177.67 186.355C176.603 186.783 175.949 186.83 174.9 186.615C174.704 186.574 174.474 186.201 174.239 186.12C173.654 185.921 173.823 186.596 173.341 186.293C172.921 186.029 172.024 184.325 171.738 183.837C171.282 183.061 171.07 182.305 170.511 181.597C169.952 180.888 169.68 179.937 169.162 179.295C168.914 178.987 168.233 178.999 168.05 178.698C167.775 178.245 168.125 177.916 168.002 177.452ZM159.942 212.185C161.134 210.057 163.175 208.25 164.754 206.391C164.851 209.447 162.716 211.54 159.942 212.185ZM161.554 213.167C164.017 212.278 165.374 210.148 165.626 207.567C165.944 204.297 167.944 202.581 169.148 199.644C169.61 198.518 170.148 194.813 171.937 195.874C172.551 196.237 172.915 197.605 173.235 198.223C174.009 199.718 174.889 201.167 175.71 202.635C176.379 203.83 177.38 205.032 177.085 206.471C176.828 207.725 176.001 209.062 175.516 210.244C174.372 213.038 172.869 215.612 171.613 218.344C171.106 219.446 170.506 222.056 168.959 222.043C167.735 222.032 167.872 220.658 167.066 220.186C166.048 219.592 164.891 220.724 164.055 221.193C165.017 219.524 166.7 218.579 168.592 218.893C166.327 216.577 164.796 219.702 162.852 220.398C161.01 221.057 157.742 217.947 156.192 217.066C156.785 216.035 157.321 214.773 158.341 214.094C159.309 213.45 160.497 213.549 161.554 213.167ZM141.525 234.331C141.795 232.998 142.557 232.21 143.041 230.999C143.601 232.467 142.289 233.333 141.525 234.331ZM180.665 242.514C180.532 247.005 180.175 251.483 180.046 255.975C179.987 258.046 179.629 260.022 179.392 262.07C179.192 263.801 179.294 265.502 178.232 266.981C176.558 269.313 173.304 269.984 170.777 270.848C168.922 271.482 167.045 272.058 165.213 272.763C163.565 273.397 162.236 274.358 160.668 275.112C159.266 275.786 157.752 276.186 156.356 276.905C154.913 277.648 153.771 278.554 152.288 279.216C150.513 280.008 149.05 281.418 147.471 282.537C146.081 283.522 144.611 284.282 143.415 285.521C142.294 286.683 140.875 287.192 139.604 288.225C138.26 289.316 136.854 290.026 135.37 290.882C132.329 292.636 128.227 295.632 124.568 293.928C125.615 292.556 127.756 291.237 127.919 289.346C128.131 286.883 126.043 287.79 124.834 288.576C123.003 289.767 121.989 291.205 120.595 292.793C118.965 294.649 116.906 293.4 114.912 292.878C116.276 291.618 117.628 290.346 118.99 289.084C120.139 288.018 121.897 286.866 122.597 285.392C123.097 284.339 123.073 282.895 121.866 282.348C120.515 281.736 118.988 283.026 117.988 283.794C115.333 285.833 113.585 288.419 111.842 291.257C110.915 292.766 110.487 292.65 108.782 292.349C106.974 292.029 105.166 291.688 103.343 291.464C105.758 288.918 108.456 286.161 110.363 283.182C110.981 282.217 111.787 279.673 109.904 279.439C109.129 279.343 107.585 280.971 106.986 281.41C104.372 283.329 101.858 285.749 100.125 288.55C99.5528 289.475 99.3731 290.503 98.2654 290.58C96.8172 290.68 94.1259 289.261 92.7288 288.823C95.3991 285.367 98.0506 281.886 101.17 278.839C104.037 276.039 106.896 274.004 110.248 271.857C113.841 269.554 117.187 266.904 120.486 264.184C123.643 261.58 126.942 259.124 129.848 256.217C135.654 250.41 140.825 243.732 145.107 236.67C146.109 235.018 147.052 233.323 147.867 231.564C148.633 229.913 148.986 227.939 150.02 226.437C150.377 225.918 150.88 225.533 151.198 224.991C151.499 224.481 151.397 223.865 151.854 223.414C152.913 222.37 154.841 222.999 155.831 223.731C157.422 224.907 158.71 226.335 160.458 227.319C162.218 228.309 164.121 229.029 166.069 229.516C170.622 230.652 175.135 231.585 179.773 232.275C179.296 234.092 180.468 234.379 180.856 236.014C181.328 237.998 180.724 240.493 180.665 242.514ZM136.826 212.212C135.794 210.637 134.873 208.991 133.858 207.406C133.24 206.441 132.474 205.404 133.002 204.224C133.892 202.234 137.03 201.88 138.733 202.747C142.604 204.72 139.008 210.359 136.826 212.212ZM126.579 176.202C126.222 173.124 127.369 170.941 130.08 169.327C132.013 168.177 133.569 169.749 133.306 171.845C132.904 175.039 129.579 178.592 127.042 180.258C126.877 178.908 126.736 177.554 126.579 176.202ZM126.165 167.396C126.965 166.744 129.107 167.576 130.034 167.633C128.76 168.776 127.485 169.92 126.21 171.063C126.127 170.279 125.427 167.998 126.165 167.396ZM130.467 137.676C136.917 136.815 129.492 143.921 127.622 145.035C127.926 143.523 128.674 137.916 130.467 137.676ZM147.638 125.235C146.771 128.877 140.038 132.85 139.968 126.884C139.942 124.661 141.158 124.841 142.934 124.628C143.946 124.506 148.133 123.152 147.638 125.235ZM124.381 130.875C123.625 132.912 123.019 135.001 122.278 137.04C121.95 137.943 121.564 138.564 120.952 139.279C120.44 139.877 119.831 140.028 119.851 140.974C120.493 140.847 120.994 140.454 121.512 140.076C121.387 141.951 120.741 143.968 120.429 145.836C120.055 148.077 119.743 150.318 119.627 152.59C119.377 157.53 119.374 162.453 119.48 167.396C119.534 169.915 119.558 172.436 119.691 174.952C119.757 176.203 119.831 177.46 119.982 178.704C120.043 179.206 120.398 180.276 120.179 180.746C119.317 182.594 115.501 177.519 113.844 178.264C114.082 176.857 113.533 177.165 112.614 176.474C112.169 176.138 111.88 175.568 111.416 175.27C111.276 175.114 111.121 174.976 110.953 174.855C110.761 174.586 110.559 174.615 110.346 174.94C108.479 173.795 107.996 171.353 106.994 169.71C106.479 168.865 105.981 168.733 105.893 167.565C105.816 166.548 105.966 165.511 105.925 164.489C105.88 163.336 105.814 162.065 105.499 160.949C105.133 159.653 104.63 159.759 103.651 159.068C103.953 158.932 104.152 158.705 104.248 158.385C103.935 158.442 102.984 158.84 102.748 158.554C102.284 157.992 103.38 157.917 103.668 157.693C102.439 157.133 102.703 156.672 103.147 155.646C103.273 155.355 103.392 154.921 103.499 154.676C103.732 154.141 103.867 154.48 103.944 153.815C104.017 153.181 103.469 151.935 103.308 151.26C103.038 150.127 102.888 149.148 103.131 147.967C103.328 147.012 103.857 146.146 103.894 145.164C103.905 144.888 103.495 144.796 103.49 144.53C103.482 144.14 103.836 143.969 103.928 143.609C104.163 142.689 104.057 141.715 104.459 140.841C104.821 140.056 105.551 139.04 106.069 138.355C106.427 137.881 107.307 137.346 107.403 136.719C107.467 136.304 106.837 136.352 106.865 136.039C106.903 135.616 107.249 135.478 107.344 135.164C107.606 134.3 107.672 133.47 108.348 132.808C109.2 131.975 109.57 132.324 109.605 130.95C109.623 130.28 109.1 130.177 109.38 129.404C109.532 128.984 109.981 128.736 110.268 128.439C111.119 127.557 111.694 126.773 112.3 125.684C112.836 124.721 113.692 124.16 114.242 123.328C114.957 122.245 113.887 121.707 115.34 121.401C115.133 120.728 114.914 120.184 115.457 119.615C115.8 119.255 116.669 119.475 116.972 119.059C117.32 118.582 116.806 117.451 117.33 117.142C117.756 116.89 118.394 117.666 119.063 117.282C119.573 116.989 120.343 115.374 120.179 114.78C121.498 115.541 121.169 115.017 121.8 114.04C121.942 113.821 122.371 113.772 122.492 113.551C122.736 113.109 122.681 112.658 123.031 112.299C123.617 111.701 124.574 111.855 125.217 111.427C125.749 111.074 125.721 110.694 126.145 110.361C126.508 110.077 127.104 110.022 127.456 109.727C128.147 109.15 128.153 108.54 129.017 108.042C130.041 107.454 130.947 106.953 131.877 106.172C132.484 105.664 133.06 104.762 133.77 104.426C134.752 103.962 135.516 103.929 136.477 103.267C137.171 102.788 137.827 101.998 138.508 101.594C139.022 101.291 139.383 101.356 140.031 101.168C141.197 100.828 141.481 99.7003 142.432 99.2411C143.085 98.9257 144.035 99.2145 144.752 99.0488C146.984 98.5346 149.188 97.4253 151.427 96.8108C154.16 96.0612 156.912 95.4046 159.666 94.7419C157.136 98.2635 153.912 101.441 150.643 104.238C149.57 105.156 143.689 109.342 146.859 111.129C148.131 111.846 150.895 109.529 151.923 108.963C153.991 107.822 156.134 106.909 158.3 105.987C161.804 104.495 166.366 101.841 170.259 102.055C167.889 105.04 164.931 107.436 162.22 110.073C159.729 112.497 155.976 114.769 157.151 118.736C153.652 117.822 150.509 116.742 146.871 116.981C145.242 117.088 143.611 116.887 141.989 117.121C140.225 117.377 138.564 117.983 136.869 118.515C135.528 118.936 134.046 118.969 132.813 119.668C132.216 120.006 131.479 120.489 130.944 120.908C130.229 121.468 130.067 121.838 129.506 122.575C127.506 125.205 125.57 127.671 124.381 130.875ZM113.437 180.653C113.328 180.198 113.229 179.783 113.104 179.263C114.217 179.967 114.217 179.967 113.437 180.653ZM105.022 166.155C104.884 166.35 104.308 166.413 104.14 166.244C103.931 166.035 104.48 165.221 104.568 165.048C104.785 165.219 105.285 165.78 105.022 166.155ZM102.637 160.879C102.785 160.323 102.933 159.768 103.08 159.212C103.261 159.727 104.077 160.296 104.095 160.787C104.106 161.113 102.799 160.951 102.637 160.879ZM103.111 161.642C104.388 162.505 104.522 163.524 104.56 165.015C103.031 164.495 103.25 162.975 103.111 161.642ZM125.332 102.82C125.203 103.178 124.655 104.295 124.254 103.514C124.126 103.264 125.065 102.923 125.332 102.82ZM124.965 101.603C125.28 101.31 125.917 101.674 126.274 101.438C126.525 101.272 126.442 101.104 126.559 101.006C126.583 100.986 126.923 100.279 127.063 100.119C127.309 99.8362 127.846 99.6602 128.146 99.4055C128.983 98.6934 129.455 97.757 129.982 96.8048C130.61 95.6675 130.81 95.5358 131.823 95.0152C132.522 94.6563 133.063 94.2169 133.631 93.6068C134.286 92.9041 134.238 92.4011 134.776 91.633C135.042 91.2539 135.424 91.207 135.733 90.9015C136.104 90.5357 136.293 90.0241 136.636 89.6549C136.784 89.4953 137.26 89.4957 137.35 89.3589C137.464 89.1859 137.553 88.4939 137.66 88.3666C137.865 88.6506 138.07 88.9346 138.275 89.2186C139.082 87.7607 139.671 86.5563 141.022 85.586C142.44 84.567 143.664 83.0765 145.13 82.1642C145.459 81.9594 146.13 81.8729 146.382 81.5709C146.807 81.0597 146.439 80.6048 146.749 80.1707C147.101 79.6784 147.784 80.0768 148.231 79.8647C148.798 79.5962 148.96 78.8118 149.69 78.8983C147.291 81.8118 147.321 86.345 147.194 89.9841C147.138 91.5521 148.1 92.3426 146.68 93.4932C145.472 94.4721 143.769 94.1817 142.341 94.8258C140.548 95.6348 138.629 96.0651 136.8 96.7703C134.907 97.4993 133.385 98.776 131.564 99.6207C129.958 100.365 128.861 101.424 127.392 102.343C126.846 102.684 126 103.181 125.348 102.772C124.94 102.516 124.432 102.096 124.965 101.603ZM152.058 77.1732C152.162 76.7592 154.209 75.6714 154.713 75.3164C155.469 74.7829 156.588 73.4799 157.432 73.9976C157.724 72.7953 158.865 71.4575 159.873 71.2028C160.992 70.9196 162.91 69.9351 164.01 69.0758C164.332 68.8249 164.438 68.4579 164.816 68.2225C165.474 67.8124 166.127 68.0362 166.761 67.4772C166.859 67.392 167.736 65.9045 167.771 65.9187C167.816 66.0783 167.857 66.2397 167.892 66.4019C168.558 66.0228 169.151 65.7212 169.566 65.2375C169.66 65.1278 169.05 64.8425 169.243 64.6252C169.479 64.3593 170.005 64.6566 170.243 64.404C169.502 68.1821 170.054 73.0449 173.787 74.9601C169.348 75.4528 165.011 74.0823 160.517 74.924C158.365 75.3272 156.178 75.9886 154.221 77.0045C153.022 77.6271 151.489 79.857 150.295 78.7743C150.769 78.1259 151.491 77.7231 152.058 77.1732ZM173.6 66.3042C175.26 64.2194 177.779 63.3945 180.315 64.1411C183.284 65.0155 182.032 67.1455 181.583 69.5104C180.727 68.2208 178.87 66.9415 177.29 66.9028C175.049 66.8481 175.896 68.7647 177.242 69.4514C178.465 70.0754 180.563 70.2492 181.439 71.3839C182.291 72.4881 181.964 74.2936 182.101 75.5957C181.439 75.4946 180.776 75.3935 180.113 75.2923C180.67 72.2536 178.222 72.1064 175.94 71.2497C173.634 70.3843 171.711 68.6769 173.6 66.3042ZM181.037 58.8213V61.6415C180.114 61.101 179.19 60.561 178.267 60.0205C179.19 59.6208 180.114 59.2211 181.037 58.8213ZM188.458 81.3557C191.541 82.2133 194.602 83.1208 197.566 84.3041C198.642 84.734 199.821 84.8859 200.876 85.3713C201.88 85.833 202.031 85.7848 201.674 86.6884C200.673 89.2199 198.303 88.7827 196.226 88.3954C192.975 87.7891 189.792 86.9487 186.581 86.1579C183.444 85.3855 180.24 84.879 177.15 83.9108C173.978 82.9177 170.888 81.9771 167.626 81.3213C166.674 81.1298 159.143 80.4207 159.2 79.6126C163.943 78.98 168.826 79.6031 173.59 79.6689C178.541 79.7373 183.656 80.0192 188.458 81.3557ZM184.273 71.5634C184.332 69.8228 184.356 68.0766 184.567 66.3464C185.978 68.1343 187.251 68.6696 189.03 66.9936C190.733 65.3894 191.113 64.5529 193.271 66.0611C195.143 67.3692 196.914 67.309 198.901 66.1639C200.114 65.4656 202.062 62.6118 203.337 63.1992C203.944 63.4793 204.389 64.608 205.002 65.0232C205.772 65.5435 206.955 65.9045 207.851 66.1063C209.969 66.5826 211.231 65.1842 212.56 63.6884C214.488 61.5193 214.432 62.7792 216.219 64.2831C218.213 65.9608 219.879 65.1411 221.684 63.7095C222.784 67.0172 223.196 70.6296 223.506 74.0974C223.611 75.2682 224.003 76.9309 222.978 77.7588C222.256 78.3427 220.724 78.3655 219.854 78.6883C216.746 79.8419 213.76 81.4783 211.161 83.5735C210.148 84.3897 209.266 85.3893 207.882 85.2034C206.563 85.0262 205.282 83.8927 204.221 83.1445C203.07 82.3329 201.905 81.4112 200.56 80.959C199.772 80.6939 198.51 80.7899 197.821 80.304C196.539 79.4008 198.048 77.0316 197.728 75.4412C197.487 74.2338 196.81 71.7161 195.19 72.424C192.779 73.4769 194.182 77.5876 195.508 78.8707C192.796 78.3763 189.794 77.6543 187.178 76.7369C185.158 76.0281 184.201 73.6865 184.273 71.5634ZM229.754 80.0411C235.321 78.4365 240.53 77.3543 246.324 77.0622C248.888 76.9326 251.371 77.0144 253.907 77.0381C255.366 77.0518 256.479 75.8431 255.312 74.4528C253.698 72.5277 248.775 73.2605 246.593 73.174C240.746 72.942 235.384 73.6245 229.847 75.6034C230.432 74.4958 231.839 74.3521 232.803 73.7794C233.986 73.0763 234.79 71.9184 235.296 70.633C236.61 67.2905 235.287 64.1407 233.911 61.0873C236.613 61.8334 239.408 63.4673 242.124 63.8821C242.693 63.969 243.059 63.913 243.562 64.126C243.872 64.2564 243.969 64.7078 244.352 64.8064C244.537 64.8541 244.982 64.4247 245.192 64.4853C246.019 64.7255 245.365 64.7891 245.888 65.1368C246.303 65.4126 246.269 65.7676 247.031 65.6373C247.368 65.58 247.734 65.0439 247.912 65.0292C248.139 65.0103 248.086 64.7272 248.433 64.8098C249.064 64.9604 249.008 65.7948 249.218 66.2053C249.443 66.6424 249.124 67.2238 249.805 67.463C250.314 67.642 250.441 67.0904 250.874 67.13C251.137 67.1541 251.682 67.5426 251.914 67.7793C252.661 68.5418 253.685 69.3839 254.69 69.88C254.591 69.778 255.164 69.5323 255.027 69.4747C254.935 69.4364 255.536 69.5853 255.527 69.5831C256.107 69.7187 256.414 70.6335 256.707 70.967C257.247 71.5784 258.085 72.2239 258.84 72.4937C260.148 72.9605 260.108 72.4024 260.585 73.9971C261.514 72.4971 261.871 75.0092 263.023 75.2859C263.62 75.4292 263.55 75.1667 264.093 75.4873C264.465 75.7071 264.713 76.3806 264.994 76.7054C265.115 76.2368 265.235 75.7678 265.355 75.2997C266.185 76.9141 267.977 79.4744 269.942 79.0114C269.942 79.452 269.765 79.9787 270.097 80.3548C270.329 80.6177 270.705 80.3191 270.887 80.4719C271.045 80.6053 271.424 81.1362 271.545 81.2236C271.785 81.3957 272.219 81.5214 272.427 81.6931C272.61 81.8441 272.7 82.5657 272.903 82.8265C273.285 83.3166 273.944 83.4138 274.256 84.0016C274.327 83.422 274.399 82.842 274.469 82.2623C275.088 82.7533 275.142 83.1346 275.294 83.8527C275.51 84.8756 275.223 84.6359 275.91 85.0675C276.585 85.4922 276.938 85.4444 277.556 86.1811C278.163 86.9031 278.169 87.3481 279.045 86.5959C279.207 87.1523 279.26 87.8722 279.694 88.2986C280.023 88.6209 281.383 88.6347 281.513 89.3959C278.958 87.1828 280.639 90.5439 281.514 89.4015C281.698 90.6244 282.57 91.0194 283.566 91.8903C284.494 92.7019 284.646 92.6429 284.963 94.0065C284.956 93.9764 285.43 94.278 285.464 94.3383C284.56 94.4708 285.962 95.5087 286.199 95.6985C286.372 95.837 286.598 95.5061 286.885 95.7303C287.214 95.9868 287.481 96.5698 287.749 96.9214C288.474 97.8745 289.01 98.6934 289.773 99.4683C290.597 100.305 290.997 101.362 291.788 102.34C292.665 103.425 293.139 104.674 293.873 105.852C294.57 106.973 295.496 107.873 296.303 108.899C297.59 110.533 298.028 114.13 300.427 114.225C300.287 114.374 300.482 115.489 300.505 115.695C300.619 116.707 300.543 117.681 301.127 118.598C301.26 117.552 301.794 117.955 302.257 118.505C303.027 119.419 302.351 119.189 302.391 120.115C302.441 121.239 302.565 120.37 302.982 121.35C303.308 122.118 303.487 122.617 303.662 123.469C302.307 123.579 301.686 122.442 301.185 121.341C300.976 120.88 300.903 120.123 300.533 119.763C300.138 119.379 299.596 119.349 299.191 118.921C298.413 118.099 298.075 116.818 297.158 116.018C296.122 115.114 295.893 114.688 295.036 113.607C294.089 112.412 292.78 111.573 291.787 110.417C290.791 109.259 290.872 109.891 289.621 109.472C288.292 109.026 286.142 104.734 284.466 106.387C284.533 105.306 282.955 104.289 282.157 103.897C281.813 103.727 281.412 103.881 281.066 103.627C280.693 103.351 280.666 102.82 280.288 102.49C280.289 102.49 279.71 102.634 279.593 102.573C279.354 102.449 279.352 102.009 279.141 101.865C278.557 101.464 277.861 101.044 277.242 100.703C275.736 99.8737 274.405 98.8526 272.951 97.8543C271.707 96.9988 270.2 95.4541 268.761 95.0031C267.504 94.6094 266.714 94.8099 265.685 94.0212C265.124 93.5917 265.289 93.4476 264.388 93.1804C263.53 92.926 263.049 93.0569 262.594 92.1231C261.799 90.4893 262.301 87.3003 262.147 85.4681C261.984 83.5236 261.79 81.5308 261.296 79.6401C260.712 77.4055 259.941 76.2373 257.606 76.7635C252.98 77.8074 248.41 78.8006 243.763 79.7171C234.502 81.5433 225.401 84.5236 216.345 87.1695C215.655 87.3713 211.807 88.2758 212.593 86.2327C212.955 85.2904 215.391 84.9392 216.206 84.6432C220.682 83.0167 225.179 81.3596 229.754 80.0411ZM228.199 75.8827C227.522 76.1473 226.846 76.412 226.17 76.677V74.7463C226.846 75.125 227.522 75.5036 228.199 75.8827ZM225.388 65.6738C225.976 66.167 227.17 64.9802 227.67 64.7397C228.524 64.3291 229.61 63.9767 230.564 64.0611C232.323 64.2173 233.609 65.9948 233.287 67.7969C232.741 70.846 228.51 72.288 226.177 73.4799C226.102 72.3994 225.761 71.1004 226.499 70.1657C227.14 69.3542 228.382 69.4131 228.974 68.55C230.462 66.3804 226.429 66.1837 225.528 67.9088C225.172 66.8064 224.817 65.704 224.461 64.6015C225.319 64.4557 224.942 65.3003 225.388 65.6738ZM229.55 59.7056C228.71 60.2628 227.871 60.82 227.031 61.3773C226.615 59.4482 228.034 59.1944 229.55 59.7056ZM306.055 126.846C304.956 127.385 304.681 126.098 303.89 126.043C304.824 125.453 304.824 125.453 306.055 126.846ZM310.527 154.938C310.664 156.787 310.557 158.657 310.797 160.499C310.979 161.9 311.532 163.204 311.591 164.621C311.72 167.724 310.7 170.884 308.638 173.159C306.688 175.311 303.898 177.163 301.266 178.068C300.08 178.475 298.842 179.379 297.69 179.712C296.415 180.082 295.205 179.278 294.153 180.72C293.452 174.533 293.964 168.069 293.909 161.842C293.854 155.603 293.919 149.362 292.891 143.189C291.976 137.692 290.171 131.509 286.844 127.012C285.492 125.186 283.828 123.69 282.073 122.29C281.163 121.564 280.252 120.787 279.238 120.214C277.677 119.331 276.348 119.453 274.65 119.201C272.221 118.841 269.963 118.537 267.524 119.239C265.254 119.893 262.755 120.638 260.721 121.774C258.696 122.906 256.344 123.372 254.242 124.386C252.811 125.076 249.84 127.38 248.253 126.965C246.717 126.563 244.444 123.887 243.463 122.688C242.209 121.156 241.172 119.38 240.06 117.732C239.67 117.153 238.874 116.258 238.773 115.515C238.596 114.225 239.1 114.647 240.3 114.791C243.387 115.163 246.289 115.75 249.247 116.748C250.719 117.244 253.598 119.252 255.07 118.049C257.318 116.212 253.902 113.055 252.651 111.994C250.52 110.187 248.042 108.845 245.77 107.239C243.356 105.532 240.165 103.715 238.611 101.088C243.147 102.462 247.679 104.037 252.083 105.809C254.098 106.62 256.089 107.477 257.981 108.555C259.044 109.16 261.192 110.798 262.472 110.014C265.254 108.308 258.864 103.356 257.941 102.344C256.509 100.771 255.105 99.2136 253.53 97.7867C252.468 96.8241 250.799 96.1473 250.305 94.7273C252.068 95.3826 253.494 96.6662 255.145 97.5384C256.009 97.9954 256.798 98.2583 257.753 98.3982C258.771 98.5479 258.892 98.7144 259.694 99.1297C260.318 99.4537 260.96 99.8866 261.661 100.107C262.161 100.264 263.034 100.291 263.47 100.582C263.694 100.909 263.924 101.23 264.162 101.546C264.429 101.627 264.691 101.719 264.949 101.825C265.337 102.179 265.566 102.668 265.943 103.034C268.678 105.689 272.336 107.589 275.402 109.813C278.302 111.917 281.381 113.821 284.167 116.118C287.372 118.761 290.7 121.602 293.427 124.771C294.968 126.563 296.235 128.594 297.529 130.574C298.467 132.008 299.83 133.198 300.64 134.677C302.406 137.901 303.873 141.387 305.774 144.559C307.712 147.791 310.236 151.003 310.527 154.938ZM284.466 173.646C284.994 171.408 287.975 168.795 289.88 167.809C288.92 170.247 286.362 171.909 284.466 173.646ZM289.381 181.451C287.757 184.912 280.613 185.308 281.582 180.187C282.057 177.678 284.073 176.138 285.803 174.496C286.603 173.737 288.561 171.023 289.8 171.46C289.742 173.412 289.63 175.372 289.634 177.323C289.637 178.626 289.956 180.227 289.381 181.451ZM287.316 141.567C287.976 143.087 288.632 144.352 287.409 145.712C286.858 146.325 285.059 147.668 284.246 147.37C281.635 146.414 286.613 142.251 287.316 141.567ZM271.523 128.044C272.152 128.009 272.762 128.105 273.384 128.066C274.003 128.026 274.068 127.913 274.642 127.994C274.703 128.084 274.763 128.175 274.824 128.265C274.902 128.871 275.212 128.937 275.754 128.463C276.507 128.635 276.997 128.75 277.718 129.168C275.774 130.607 273.407 132.28 271.023 132.764C267.256 133.527 268.296 128.227 271.523 128.044ZM213.763 160.412C213.372 161.219 212.249 159.203 211.971 158.827C212.489 158.826 214.158 159.598 213.763 160.412ZM244.036 139.173C246.964 137.42 250.44 135.879 253.584 134.574C254.137 137.309 251.441 140.839 249.78 142.71C248.437 144.223 246.818 145.792 244.998 146.663C243.029 147.605 240.878 147.191 240.973 144.549C241.009 143.584 241.223 142.03 241.605 141.148C242.099 140.01 243.032 139.774 244.036 139.173ZM204.466 89.432C204.902 89.4058 209.635 88.7775 209.609 89.3821C209.535 91.1992 204.941 89.7724 204.466 89.432ZM170.998 124.519C173.498 121.352 177.533 117.934 177.592 113.509C177.679 106.996 170.64 110.246 167.1 110.516C168.972 108.629 178.376 100.709 172.814 97.896C171.215 97.0875 168.942 97.8775 167.338 98.3009C164.491 99.0527 161.844 100.354 159.048 101.26C161.046 99.0763 164.499 96.5944 164.386 93.2871C164.247 89.2612 161.028 90.2345 158.245 90.8253C157.175 91.0525 152.397 93.0039 151.5 91.679C151.171 91.1937 151.703 90.577 151.816 90.145C152.014 89.3804 151.953 89.1136 151.96 88.3326C151.973 86.7568 152.993 84.7336 152.161 83.268C151.971 83.601 151.808 83.9474 151.673 84.3076C151.399 83.4547 151.583 82.5502 151.309 81.6974C158.258 83.5218 165.327 84.5206 172.319 86.0778C175.859 86.8661 179.19 88.2237 182.779 88.8347C186.398 89.4505 189.954 90.3933 193.579 90.9807C196.887 91.5164 200.057 92.4084 203.332 93.0926C206.526 93.7595 209.801 92.2978 212.918 91.5577C219.899 89.9002 226.877 88.2022 233.868 86.5937C241.934 84.737 250.325 83.1496 258.046 80.0532C258.196 84.1802 258.518 88.2995 259.009 92.3981C255.599 90.7431 250.539 88.5852 247.091 91.5465C245.712 92.7311 245.287 94.7768 245.832 96.5165C246.425 98.4102 248.243 99.2897 249.443 100.715C245.792 99.7545 236.374 92.9803 234.698 99.8276C233.514 104.664 239.289 107.788 242.113 110.51C239.309 109.946 235.554 107.644 233.907 111.344C232.484 114.542 234.198 118.022 235.954 120.659C236.905 122.088 237.975 123.433 238.987 124.818C239.521 125.551 240.044 126.293 240.606 127.004C241.169 127.717 242.233 128.464 242.628 129.231C243.423 130.778 241.818 130.873 240.57 131.432C239.012 132.13 237.674 133.302 236.248 134.236C232.985 136.375 230.133 138.362 226.277 139.046C222.306 139.749 218.484 140.484 214.566 141.466C210.66 142.444 207.471 143.384 203.479 142.12C201.659 141.543 200.176 141.031 198.246 141.139C196.218 141.253 195.032 141.145 193.365 139.855C186.19 134.308 178.403 129.756 170.998 124.519ZM158.063 118.949C160.836 117.521 163.628 116.086 166.492 114.858C168.863 113.842 172.463 112.658 175.058 113.104C174.326 115.033 172.991 116.616 171.559 118.037C170.293 119.294 168.711 121.19 167.178 122.067C165.786 122.863 164.167 121.602 162.795 121.074C161.287 120.494 159.212 120.223 158.063 118.949ZM158.76 126.155C160.142 125.566 163.112 127.544 164.368 128.058C166.838 129.069 169.322 130.125 171.498 131.72C168.84 134.873 165.83 137.756 162.254 139.782C159.901 141.115 155.935 142.643 153.715 140.223C150.926 137.183 154.279 130.987 156.253 128.382C156.318 128.828 156.384 129.273 156.45 129.719C157.08 128.684 157.56 126.667 158.76 126.155ZM209.488 153.144C207.764 153.516 207.178 153.18 206.04 151.823C205.271 150.905 204.515 149.952 203.648 149.128C202.762 148.286 200.576 146.256 203.362 147.425C205.901 148.49 208.075 149.023 210.869 148.605C214.063 148.128 217.04 146.742 220.189 146.04C218.463 147.591 216.749 149.157 215.02 150.704C213.192 152.338 211.81 152.641 209.488 153.144ZM209.882 165.616C206.104 168.535 198.499 168.219 201.059 161.797C201.448 160.822 201.992 159.904 202.621 159.073C202.831 158.796 203.205 158.221 203.504 158.034C204.339 157.514 204.108 157.451 204.911 158.319C205.604 159.067 211.02 165.181 209.882 165.616ZM208.762 154.458C209.108 154.342 210.566 153.474 210.899 153.955C211.235 154.441 208.376 156.123 208.762 154.458ZM236.264 198.971C235.415 201.057 228.617 204.078 229.883 199.872C230.444 198.009 230.973 196.598 233.089 196.457C234.311 196.375 237.012 197.134 236.264 198.971ZM248.459 170.695C249.578 169.022 253.273 166.76 254.851 169.254C255.611 170.456 253.767 171.072 252.651 170.763C252.052 170.597 251.562 170.229 250.911 170.202C250.074 170.166 249.255 170.841 248.459 170.695ZM251.426 172.355C250.665 173.146 246.075 177.111 245.331 176.499C246.83 174.3 248.551 171.843 251.426 172.355ZM243.93 212.477C242.336 212.569 243.132 210.104 243.286 209.118C243.672 209.805 245.7 212.374 243.93 212.477ZM247.979 208.058C247.464 207.116 246.074 205.714 246.389 204.502C246.629 203.576 248.797 202.33 249.705 202.861C250.911 203.568 249.163 208.214 247.979 208.058ZM285.795 198.181C285.113 200.593 284.407 199.971 282.269 200.438C280.125 200.906 278.642 202.776 276.754 203.779C277.41 202.355 277.817 200.621 278.915 199.466C279.168 199.199 280.725 198.672 279.838 198.054C279.063 197.514 277.949 199.267 277.616 199.745C275.981 202.095 274.837 204.966 273.892 207.671C273.428 208.999 273.056 210.352 272.836 211.747C272.64 212.991 272.852 214.291 272.652 215.502C272.33 217.452 269.75 217.462 268.199 217.965C266.794 218.42 265.396 218.914 263.938 219.159C262.674 219.371 261.362 218.984 260.137 219.24C258.811 219.517 258.215 220.325 256.707 220.142C255.478 219.993 254.328 219.413 253.082 219.355C251.916 219.301 250.753 219.715 249.594 219.378C248.424 219.038 248.481 218.906 248.747 217.726C248.913 218.044 249.08 218.363 249.246 218.681C249.713 218.306 250.035 217.161 250.321 216.624C250.764 215.792 251.125 215.504 250.961 214.467C250.719 212.936 249.374 211.847 249.069 210.391C248.751 208.872 249.845 207.629 250.492 206.361C251.376 204.625 251.364 203.337 250.624 201.542C251.182 201.693 251.741 201.845 252.3 201.996C251.534 200.289 248.937 200.981 247.634 201.487C246.979 201.741 245.942 202.74 245.238 202.714C244.27 202.679 243.765 201.373 243.349 200.653C242.146 198.572 240.772 196.517 239.348 194.584C238.956 194.053 238.443 193.711 238.578 193.105C238.693 192.591 239.816 191.862 240.18 191.546C241.546 190.36 243.284 189.703 244.567 188.455C246.505 186.57 248.741 185.219 250.723 183.37C252.788 181.444 254.915 179.676 257.067 177.856C259.247 176.013 261.135 173.841 263.298 171.98C263.859 173.023 264.945 176.757 266.187 177.046C267.635 177.383 267.592 175.624 267.52 174.565C267.418 173.057 266.602 171.591 266.511 170.151C266.413 168.611 267.857 167.923 268.946 167.032C270.628 165.656 274.352 162.522 272.35 159.942C270.626 157.72 265.019 161.98 263.474 163.261C262.16 164.35 261.146 165.334 259.667 166.193C258.627 166.797 256.883 169.118 255.65 168.903C254.184 168.649 253.611 167.005 251.818 167.059C250.065 167.112 248.576 168.408 247.489 169.709C245.032 172.65 244.188 176.585 241.949 179.651C240.845 181.163 239.413 182.411 238.216 183.841C236.901 185.411 236.621 187.219 235.325 188.756C231.614 183.681 227.571 178.876 223.658 173.967C221.704 171.516 219.791 169.036 217.878 166.55C217.162 165.619 216.354 164.745 215.697 163.766C214.798 162.426 214.96 161.35 214.607 159.856C214.451 159.194 213.718 158.4 213.914 157.767C214.178 156.916 216.031 156.249 216.699 155.901C219.426 154.479 221.901 152.702 224.444 150.966C229.154 147.75 233.919 144.735 238.928 141.988C238.842 143.171 238.092 144.398 238.596 145.585C238.83 144.902 239.202 141.859 240.09 141.729C239.92 141.754 240.06 145.631 240.197 146.184C240.607 147.836 241.797 148.965 243.499 148.954C246.74 148.933 249.645 145.313 251.444 142.915C252.662 141.291 253.832 139.403 254.261 137.371C254.647 135.547 254.223 134.278 256.07 133.351C259.861 131.451 263.681 129.902 267.736 128.894C267.554 130.688 267.047 132.896 268.635 134.186C270.388 135.61 272.681 134.341 274.331 133.399C275.966 132.466 278.486 129.903 280.406 130.647C282.294 131.38 283.609 133.811 284.666 135.426C285.597 136.849 286.611 137.875 285.532 139.461C284.323 141.238 283.536 142.973 282.567 144.904C282.195 145.646 281.84 146.131 282.103 146.891C282.188 147.138 283.159 148.607 283.423 148.818C285.105 150.162 287.376 147.606 288.577 146.635C289 150.813 289.095 154.973 289.265 159.164C289.391 162.234 290.548 165.256 288.094 167.5C285.642 169.743 283.594 172.046 282.099 175.084C281.3 176.706 280.584 178.372 279.72 179.961C279.143 181.022 277.925 182.579 278.671 183.829C279.457 183.063 279.691 181.898 280.346 181.035C280.738 182.827 281.133 184.815 282.98 185.575C285.104 186.449 287.216 184.937 289.098 184.095C288.423 188.886 287.107 193.542 285.795 198.181ZM283.623 203.689C282.165 206.888 280.848 210.746 278.156 213.102C277.564 213.619 275.052 215.638 274.096 215.3C273.285 215.013 273.732 213.329 273.873 212.608C274.59 208.947 275.831 206.643 278.723 204.307C279.92 203.34 281.457 202.104 283 201.866C284.662 201.609 284.183 202.459 283.623 203.689ZM324.752 279.63C320.971 274.353 315.628 270.251 310.578 266.286C308.291 264.49 305.771 263.143 303.46 261.347C300.848 259.316 298.194 257.357 295.268 255.826C289.719 252.924 283.667 250.9 278.431 247.468C275.877 245.795 273.084 244.177 270.683 242.298C269.629 241.472 268.697 240.417 267.745 239.471C266.859 238.593 264.958 237.317 264.606 236.031C266.08 235.784 266.918 234.316 268.233 234.167C268.666 234.117 271.38 234.854 271.009 233.503C271.993 233.477 272.108 233.462 272.933 233.241C273.275 233.149 273.68 233.293 274.026 233.167C274.554 232.975 274.914 232.422 275.448 232.21C275.827 232.059 277.237 232.228 277.45 232.04C278.034 231.528 277.414 231.574 277.066 230.935C278.199 230.905 278.978 231.493 280.115 230.868C280.46 230.677 280.753 230.238 281.089 230.011C281.683 229.607 281.898 230.233 282.306 229.395C282.687 230.551 282.676 230.231 283.595 229.891C284.51 229.553 285.171 229.308 286.214 229.224C288.703 229.021 291.202 229.332 293.681 229.15C294.588 229.083 295.362 228.872 296.263 228.994C297.057 229.101 296.817 229.667 297.477 228.904C297.63 228.727 297.135 228.242 297.372 227.987C297.477 227.874 297.818 227.953 297.948 227.896C299.107 227.376 299.112 228.102 299.317 229.047C299.997 228.884 300.69 228.736 301.281 228.326C300.982 228.053 300.483 227.752 300.771 227.252C301.751 227.634 302.392 227.458 301.902 228.562C302.888 228.897 303.073 228.461 303.958 228.365C304.482 228.309 305.214 228.643 305.65 228.213C306.127 227.744 305.375 227.235 306.25 226.832C306.43 226.925 306.563 227.067 306.65 227.256C307.122 227.403 307.037 227.594 306.395 227.829C308.116 228.745 307.712 227.721 308.435 226.638C308.602 226.388 309.35 225.612 309.69 225.987C310.207 226.555 309.152 226.736 309.378 227.301C309.77 228.28 311.138 227.025 311.558 226.529C311.876 226.154 312.005 225.435 312.348 225.155C312.823 224.766 313.507 225.367 314.103 225.26C316.823 224.77 319.392 221.015 317.343 218.502C316.792 217.826 316.326 217.961 315.669 217.534C315.021 217.113 314.657 216.384 314.136 215.782C312.948 214.408 311.492 213.379 309.83 212.721C305.976 211.194 301.822 210.08 297.775 209.261C295.9 208.882 293.905 208.301 291.985 208.305C290.854 208.308 289.152 209.21 288.094 208.778C286.039 207.937 289.056 203.633 289.554 202.243C291.017 198.159 292.12 193.804 292.844 189.517C292.986 188.678 292.931 187.591 293.226 186.791C293.564 185.872 293.636 186.002 294.359 185.927C295.666 185.792 297.095 186.495 298.456 186.252C299.964 185.983 301.594 186.108 303.116 185.629C303.816 185.409 304.465 185.17 304.925 184.564C305.071 184.373 304.909 184.208 305.001 184.075C305.029 184.033 305.55 183.456 305.567 183.423C305.562 183.125 305.587 182.829 305.642 182.536C306.17 182.986 305.91 183.929 306.799 183.951C306.958 182.945 306.96 182.743 307.602 182.177C307.553 182.22 308.087 181.755 308.018 181.805C308.051 181.626 308.115 181.458 308.21 181.303C308.511 181.154 308.828 181.075 309.162 181.066C309.857 180.333 309.569 179.941 309.569 178.954C310.13 179.253 310.69 179.552 311.251 179.851C311.387 176.925 313.122 175.323 314.275 172.952C314.766 171.942 315.267 171.152 315.384 169.934C315.452 169.231 315.275 168.611 315.558 167.948C315.816 167.347 316.391 167.023 316.631 166.368C317.105 165.079 316.752 163.434 316.778 162.096C316.814 160.24 316.994 158.39 317.053 156.535C317.169 152.894 316.812 149.151 316.282 145.552C316.028 143.83 315.603 142.16 315.27 140.456C314.996 139.056 314.339 137.743 314.105 136.44C314.007 135.899 314.158 135.413 313.999 134.814C313.789 134.027 313.439 133.254 313.179 132.481C312.571 130.676 311.969 128.873 311.285 127.096C309.96 123.652 308.408 120.311 306.934 116.933C305.516 113.685 304.342 110.336 302.505 107.303C300.696 104.315 298.748 101.378 296.754 98.5182C294.677 95.5401 292.051 92.9811 290.037 89.9755C286.255 84.3321 280.98 79.6818 275.462 75.8418C264.074 67.9174 251.768 60.0055 238.113 57.2886C236.055 56.8794 233.97 56.5954 231.873 56.5424C230.572 56.5093 228.415 57.1552 227.183 56.7029C225.803 56.1965 225.929 54.6052 225.584 53.3569C225.14 51.7523 224.137 50.7011 223 49.5668C221.802 48.3728 220.715 46.9781 219.221 46.1662C217.707 45.3439 215.921 45.0362 214.244 44.7875C212.746 44.565 210.508 44.7729 209.14 44.1029C207.894 43.4923 208.509 42.8567 209.676 43.3795C209.761 42.8511 209.831 42.5099 210.161 42.1016C210.326 41.8963 211.108 41.6084 211.127 41.4169C211.149 41.1928 210.493 40.5542 210.399 40.265C210.197 39.6424 210.312 38.7801 210.552 38.1957C211.728 39.2693 212.069 39.7448 213.382 38.7185C213.937 38.2852 214.107 38.0942 214.75 37.8756C214.924 37.8162 215.315 37.9995 215.467 37.8967C216.047 37.5042 215.513 37.5967 215.789 37.1329C215.72 37.2499 216.207 36.0171 216.184 36.2749C216.243 35.6182 216.433 35.82 216.047 35.0132C215.29 33.4349 213.364 33.3703 214.346 31.5691C214.732 30.8604 215.072 30.931 215.181 29.9034C215.239 29.3509 215.167 28.7175 215.164 28.1555C215.159 27.0062 215.37 26.2015 214.321 25.6163C213.313 25.0535 212.383 25.671 211.974 24.2751C211.545 22.8103 211.977 20.9325 210.431 19.9295C209.302 19.1967 207.671 19.8232 206.423 19.4647C205.172 19.1059 204.022 17.7922 202.753 18.8008C201.851 19.5177 201.372 21.2802 199.673 20.3271C198.906 19.8972 198.484 18.454 198.001 17.6446C197.23 16.3545 196.612 15.8885 195.427 17.145C194.696 17.92 193.155 19.8064 193.06 20.8791C192.957 22.0633 193.963 22.5582 192.7 23.2587C191.443 23.9558 190.738 23.4446 189.717 24.8594C188.706 26.2631 189.489 27.0385 188.317 28.3814C186.851 30.06 186.071 30.7847 186.092 33.0463C186.106 34.5975 184.771 35.9375 185.55 37.4091C186.423 39.0585 188.97 39.7444 190.514 40.4156C189.999 41.3937 189.292 42.0207 189.893 43.0276C190.439 43.9394 191.98 44.1287 192.935 43.963C193.578 43.852 193.601 43.9518 194.107 43.488C194.438 43.1842 193.983 42.8051 194.666 42.6369C195.392 42.457 196.552 43.9183 197.023 44.2836C195.969 45.6877 193.075 45.9502 191.544 46.6619C190.611 47.0961 189.753 47.7381 188.803 48.1262C187.941 48.4782 186.892 48.3964 186.11 48.9412C184.76 49.8818 184.199 52.2123 183.372 53.5824C182.435 55.1332 181.527 55.8535 179.731 56.1754C177.489 56.5769 175.684 56.7382 173.594 57.7404C171.041 58.9642 168.525 60.2564 166.018 61.5757C161.974 63.7035 158.218 65.8877 154.463 68.4613C150.534 71.1541 146.713 73.9649 142.923 76.7786C139.174 79.5613 136.026 82.9848 132.77 86.3502C130.137 89.0705 127.827 92.0069 125.204 94.7264C122.108 97.9378 119.831 101.991 116.961 105.397C115.39 107.261 113.888 109.094 112.902 111.289C112.104 113.069 110.715 114.815 109.788 116.682C108.603 119.069 107.482 121.418 106.152 123.727C105.606 124.674 104.957 125.486 104.381 126.39C103.643 127.548 103.687 128.667 103.488 130.002C103.281 129.676 103.074 129.35 102.867 129.025C102.491 129.867 102.037 130.696 101.711 131.559C101.504 132.109 101.536 132.891 101.328 133.372C101.066 133.977 100.747 133.896 100.421 134.4C100.072 134.938 99.9599 135.661 99.5922 136.239C98.0028 138.735 97.3913 141.902 96.5747 144.749C95.4791 148.57 95.6521 152.961 95.7115 156.9C95.7748 161.062 95.9963 165.223 96.6057 169.34C97.1577 173.068 98.3379 176.644 100.186 179.914C101.796 182.762 104.016 184.423 106.859 185.882C108.165 186.552 109.377 186.345 110.748 186.452C112.249 186.569 113.273 186.988 114.862 186.619C115.624 186.442 115.985 185.873 116.59 185.683C116.965 185.565 117.167 185.757 117.527 185.713C118.041 185.648 119.112 185.389 119.67 185.452C121.407 185.646 121.115 188.342 121.286 189.718C121.549 191.839 121.742 193.982 122.097 196.088C122.843 200.52 124.453 204.659 125.404 209.014C120.994 209.566 117.21 210.411 113.076 212.125C108.929 213.844 104.736 214.428 100.371 215.282C96.2874 216.082 92.3598 217.576 89.0915 220.282C87.5595 221.551 85.968 223.035 87.0929 225.123C87.8124 226.459 89.1091 226.798 90.2285 227.574C90.4547 227.28 89.8005 226.658 89.6807 226.485C90.6218 226.684 90.5929 227.135 91.2801 227.527C91.8807 227.87 92.3724 227.858 93.0299 228.1C94.6352 228.692 95.4238 230.169 97.0107 230.584C97.5099 230.715 98.1628 231.027 98.6733 231.115C99.2864 231.222 99.7455 230.946 100.367 231.063C100.702 231.29 101.065 231.452 101.455 231.549C101.71 231.427 101.963 231.299 102.212 231.163C103.105 231.258 103.656 231.835 104.382 232.308C104.43 231.712 104.36 231.092 104.911 230.702C105.125 231.283 104.778 231.65 105.365 232.049C106.108 232.556 107.083 231.924 107.748 231.604C107.936 233.533 112.287 233.419 113.666 233.392C115.576 233.354 117.484 232.576 119.41 233.01C120.393 233.231 121.442 233.462 122.42 233.75C123.599 234.095 125.023 234.404 126.183 234.84C126.644 235.013 127.209 235.569 127.699 235.531C128.09 235.501 128.195 234.91 128.65 234.926C129.164 234.946 129.337 235.534 129.783 235.712C130.45 235.976 131.063 235.473 131.697 235.727C131.924 235.818 132.233 236.21 132.525 236.338C132.967 236.532 133.843 236.534 134.335 236.628C135.034 236.761 135.659 236.671 136.257 236.715C136.739 236.751 136.729 237.084 136.96 237.105C137.224 237.13 137.685 236.195 138.041 236.059C138.559 235.859 139.499 236.334 140.027 236.418C136.2 241.744 131.586 246.451 126.584 250.572C121.189 255.018 115.664 259.459 109.878 263.359C104.625 266.899 99.5398 269.962 95.4669 274.96C92.0327 279.175 86.5661 283.685 87.4087 289.794C88.2509 295.897 94.7068 298.382 99.8799 299.547C106.386 301.012 113.084 300.422 119.607 301.246C122.389 301.598 125.481 301.41 128.281 301.111C131.589 300.757 134.424 298.541 137.268 296.939C142.382 294.056 146.756 290.199 151.794 287.227C158.102 283.505 164.344 279.561 171.259 277.068C174.477 275.909 177.789 274.585 180.384 272.2C180.771 271.845 181.058 271.309 181.495 271.017C182.236 270.52 182.435 271.023 182.866 270.873C183.197 270.757 183.518 270.39 183.804 270.279C184.53 270 184.854 270.116 185.666 270.116C184.969 269.703 184.331 268.639 185.054 267.772C186.294 266.286 186.507 268.66 186.973 269.21C187.368 268.689 187.216 268.226 187.115 267.634C187.449 267.86 187.783 268.086 188.116 268.312C187.886 267.167 188.105 266.112 188.696 265.115C189.241 264.195 189.375 264.325 189.526 263.05C191.218 264.636 191.549 260.786 191.701 259.383C191.849 258.021 191.703 257.044 192.575 255.854C193.511 254.576 194.935 253.768 196.123 252.776C198 251.207 200.065 249.226 202.661 250.73C204.71 251.918 205.825 254.83 207.747 256.326C208.913 257.234 210.144 257.326 210.888 258.733C211.489 259.871 211.684 261.233 212.251 262.401C213.626 265.233 215.605 268.473 217.862 270.646C219.963 272.668 222.661 272.657 225.12 273.911C227.554 275.153 230.083 276.498 232.66 277.398C235.474 278.381 238.508 278.799 241.248 279.989C242.657 280.602 243.918 281.524 245.339 282.111C246.873 282.743 248.488 283.188 250.042 283.768C256.198 286.063 262.222 288.878 268.69 290.151C271.558 290.715 274.214 292.248 277.103 292.571C278.342 292.709 279.353 292.884 280.566 293.203C282.469 293.702 282.066 293.967 282.767 295.596C283.92 298.277 286.736 296.69 288.907 296.757C292.381 296.864 295.803 296.288 299.272 296.26C305.338 296.212 311.18 295.511 317.049 293.466C322.94 291.413 329.648 286.466 324.752 279.63Z" fill="#20330B"/>
<path fill-rule="evenodd" clip-rule="evenodd" d="M254.625 70.1406C254.708 70.2259 254.903 70.2777 254.625 70.1406V70.1406Z" fill="#20330B"/>
<path fill-rule="evenodd" clip-rule="evenodd" d="M147.762 184.339C149.079 182.968 154.686 183.245 155.109 185.697C155.582 188.435 150.572 192.569 148.739 193.728C146.38 195.22 143.5 195.499 143.918 191.754C144.235 188.925 145.885 186.291 147.762 184.339ZM152.391 181.517C152.562 182.275 151.302 182.017 150.956 181.837C150.792 181.493 152.22 180.756 152.391 181.517ZM142.724 186.536C143.842 186.639 145.123 184.798 145.967 184.171C146.34 184.762 143.881 188.015 143.61 188.757C142.935 190.611 142.559 192.954 143.48 194.803C146.172 200.208 153.06 192.49 154.783 189.794C155.989 187.908 156.823 185.57 155.121 183.723C154.515 183.065 153.513 182.882 152.95 182.256C152.208 181.434 152.792 180.372 151.302 180.551C150.273 180.675 149.038 181.628 148.039 181.973C146.834 182.388 145.75 182.818 144.698 183.588C144.461 183.761 141.342 186.409 142.724 186.536Z" fill="#20330B"/>
<path fill-rule="evenodd" clip-rule="evenodd" d="M221.753 188.35C221.051 192.064 217.467 195.873 213.695 196.021C209.94 196.168 208.724 192.128 209.387 188.909C209.952 186.163 212.264 181.392 215.562 181.917C218.155 182.33 222.356 185.167 221.753 188.35ZM219.362 182.144C216.981 180.253 213.691 179.377 210.931 180.878C210.026 181.37 206.414 183.541 207.513 185.01C208.995 183.831 210.274 182.195 212.2 181.802C211.876 183.335 210.027 184.714 209.375 186.207C208.613 187.95 208.196 189.946 208.321 191.862C208.543 195.273 210.768 197.923 214.213 197.454C217.367 197.025 220.124 194.543 221.629 191.753C223.637 188.028 222.506 184.641 219.362 182.144Z" fill="#20330B"/>
<path fill-rule="evenodd" clip-rule="evenodd" d="M197.249 196.791C195.553 199.369 192.968 201.793 189.979 202.589C186.109 203.619 187.196 200.336 188.353 197.98C189.375 195.897 191.129 192.314 193.8 192.333C194.707 192.339 196.395 192.789 197.19 193.287C198.756 194.268 198.141 195.435 197.249 196.791ZM193.637 191.127C194.245 190.432 196.94 187.448 197.301 189.774C198.074 188.853 197.464 188.089 196.474 187.991C195.279 187.874 193.972 189.24 193.11 189.919C191.335 191.315 189.969 192.745 188.793 194.702C187.497 196.861 184.191 201.738 187.084 203.879C190.211 206.194 194.764 201.919 196.722 199.715C197.974 198.304 199.633 196.234 199.157 194.166C198.572 191.626 195.694 191.359 193.637 191.127Z" fill="#20330B"/>
<path fill-rule="evenodd" clip-rule="evenodd" d="M180.293 149.592C178.543 151.642 174.988 154.629 172.058 154.277C169.387 153.956 170.43 150.877 171.375 149.388C172.796 147.148 174.698 145.046 177.448 144.924C178.635 144.871 180.173 144.896 181.093 145.818C182.348 147.079 181.217 148.509 180.293 149.592ZM180.107 143.897C178.057 143.17 177.251 142.892 175.259 144.049C173.659 144.977 172.24 146.289 171.142 147.779C169.499 150.009 167.842 155.025 172.061 155.653C176.689 156.341 187.698 146.591 180.107 143.897Z" fill="#20330B"/>
<path fill-rule="evenodd" clip-rule="evenodd" d="M186.414 156.695C185.083 158.092 183.421 159.231 181.524 159.619C182.327 157.781 184.119 153.765 186.243 153.205C187.222 152.947 188.338 153.285 188.258 154.43C188.199 155.258 186.94 156.144 186.414 156.695ZM188.128 151.836C187.026 151.269 187.374 150.881 186.091 151.326C185.08 151.676 183.806 152.285 182.964 152.986C182.505 153.368 181.075 154.724 181.25 155.413C181.567 156.667 182.634 154.746 182.914 154.377C183.394 154.779 180.938 158.387 180.792 158.981C180.247 161.193 181.938 161.427 183.595 160.703C185.83 159.728 192.448 154.058 188.128 151.836Z" fill="#20330B"/>
<path fill-rule="evenodd" clip-rule="evenodd" d="M220.896 211.349C221.061 209.883 221.295 208.333 222.606 207.51C223.787 206.767 225.01 206.875 225.185 208.397C225.347 209.81 223.998 212.321 222.907 213.092C221.388 214.166 221.095 212.827 220.896 211.349ZM222.848 214.685C225.967 212.811 227.934 204.217 222.183 206.626C218.915 207.994 220.117 216.326 222.848 214.685Z" fill="#20330B"/>
<path fill-rule="evenodd" clip-rule="evenodd" d="M196.205 179.045C196.697 178.01 197.259 177.667 198.257 177.214C197.592 177.858 196.912 178.454 196.205 179.045ZM196.924 176.494C196.218 177.222 194.598 178.332 194.825 179.582C195.033 180.723 195.881 180.657 196.651 180.302C198.266 179.557 199.165 176.294 200.854 175.988C198.98 174.77 198.543 174.826 196.924 176.494Z" fill="#20330B"/>
<path fill-rule="evenodd" clip-rule="evenodd" d="M197.172 111.7C197.262 115.175 197.341 118.649 197.416 122.123C197.442 123.344 197.158 125.085 197.515 126.255C197.673 126.77 199.098 129.003 199.604 129.148C201.374 129.653 200.741 125.099 200.754 123.978C200.797 120.195 200.742 116.407 200.728 112.624C200.719 110.674 201.256 94.3259 198.792 94.4056C198.367 94.4196 197.321 96.2888 197.164 96.6634C196.669 97.8403 196.851 99.5848 196.862 100.839C196.896 104.458 197.079 108.082 197.172 111.7Z" fill="#20330B"/>
<path fill-rule="evenodd" clip-rule="evenodd" d="M212.092 121.829C212.231 122.79 212.158 124.392 213.212 124.89C214.128 125.323 214.479 124.807 214.822 124.003C215.61 122.151 215.326 119.32 215.311 117.405C215.282 113.611 214.866 109.833 214.578 106.052C214.452 104.394 214.715 102.728 214.513 100.992C214.424 100.231 214.336 97.1669 212.96 97.3095C211.717 97.4383 211.829 100.65 211.761 101.477C211.198 108.364 211.1 114.954 212.092 121.829Z" fill="#20330B"/>
<path fill-rule="evenodd" clip-rule="evenodd" d="M270.784 200.919C270.257 203.685 261.658 213.318 259.493 207.93C258.209 204.734 260.993 201.255 263.164 199.404C264.508 198.259 266.187 197.136 268.018 197.483C269.573 197.777 271.118 199.162 270.784 200.919ZM266.344 195.958C265.736 196.105 260.66 199.765 260.613 199.716C260.172 199.262 263.374 194.363 263.704 193.934C266.418 190.403 268.219 193.077 269.917 195.852C269.556 194.194 268.561 191.788 266.899 191.087C264.801 190.202 263.164 192.386 262.155 193.957C260.728 196.177 259.941 198.587 259.148 201.092C258.77 202.286 258.339 203.369 257.699 204.447C257.067 205.51 255.961 206.681 256.125 208.026C257.023 207.513 257.5 206.509 258.066 205.683C258.698 205.945 258.481 208.012 258.609 208.539C258.931 209.861 259.811 210.895 261.172 211.123C263.709 211.546 266.447 209.137 268.142 207.501C269.93 205.777 271.853 203.413 271.838 200.759C271.821 197.987 269.166 195.272 266.344 195.958Z" fill="#20330B"/>
<path fill-rule="evenodd" clip-rule="evenodd" d="M273.22 151.511C271.781 153.772 269.256 156.483 266.584 157.008C264.622 157.393 263.329 155.901 264.117 153.887C264.782 152.184 267.05 151.109 268.536 150.36C269.715 149.765 275.212 148.382 273.22 151.511ZM272.161 147.812C269.213 147.698 266.836 149.886 264.637 151.632C265.134 149.627 266.257 147.444 267.838 146.138C269.99 144.361 272.03 145.465 274.295 146.353C273.736 144.543 271.228 143.891 269.629 144.147C267.609 144.471 266.156 146.242 265.134 147.955C263.915 149.999 263.498 152.408 262.063 154.325C261.406 155.202 257.339 158.486 258.26 159.828C259.779 158.172 261.299 156.517 262.818 154.861C263.212 156.818 263.646 159.046 266.08 158.856C268.023 158.704 270.24 157.008 271.661 155.711C273.496 154.037 277.109 148.004 272.161 147.812Z" fill="#20330B"/>
<path fill-rule="evenodd" clip-rule="evenodd" d="M230.866 167.12C229.617 167.71 226.869 168.511 226.17 166.74C225.2 164.28 228.321 159.965 229.807 158.326C230.721 157.317 231.341 156.796 232.615 157.448C233.632 157.97 235.126 159.451 235.516 160.589C236.354 163.033 232.819 166.198 230.866 167.12ZM233.731 155.306C234.748 155.541 234.873 156.867 233.601 156.358C232.648 155.977 232.427 155.004 233.731 155.306ZM235.008 157.173C234.628 155.984 235.401 154.119 233.531 154.033C232.471 153.984 230.53 155.09 229.605 155.54C228.322 156.163 227.115 157.114 226.446 158.454C225.825 159.694 226.268 160.022 227.214 158.992C227.329 159.072 225.075 165.041 225.056 165.639C224.968 168.372 226.852 170.172 229.499 169.687C231.931 169.242 234.123 167.199 235.462 165.138C236.139 164.095 236.695 162.901 236.746 161.623C236.824 159.663 235.551 158.875 235.008 157.173Z" fill="#20330B"/>
<path fill-rule="evenodd" clip-rule="evenodd" d="M246.675 156.171C245.649 154.142 248.027 150.727 250.156 151.726C254.589 153.806 248.021 158.831 246.675 156.171ZM250.657 153.522C250.182 153.542 247.174 154.735 247.617 155.543C248.224 156.652 250.42 153.968 250.657 153.522Z" fill="#20330B"/>
<path fill-rule="evenodd" clip-rule="evenodd" d="M105.245 149.772C105.126 148.907 103.239 150.162 103.25 150.719C103.562 150.078 105.492 151.573 105.245 149.772Z" fill="#20330B"/>
<path fill-rule="evenodd" clip-rule="evenodd" d="M208.438 84.4668C210.84 84.2855 207.78 71.8436 206.029 72.9439C204.131 74.1364 206.234 84.6329 208.438 84.4668Z" fill="#20330B"/>
<path fill-rule="evenodd" clip-rule="evenodd" d="M212.924 78.657C215.175 78.988 214.817 73.6825 213.607 72.733C211.372 70.9802 210.192 78.2552 212.924 78.657Z" fill="#20330B"/>
</svg>
