<svg width="365" height="293" viewBox="0 0 365 293" fill="none" xmlns="http://www.w3.org/2000/svg">
<path fill-rule="evenodd" clip-rule="evenodd" d="M263.055 215.946C261.452 217.939 259.084 219.418 257.267 221.24C255.359 223.154 253.288 224.827 251.388 226.717C243.005 215.707 231.522 208.955 221.574 199.818C216.858 195.486 213.383 189.611 210.84 183.58C209.536 180.489 208.573 177.307 207.82 174.014C207.48 172.531 207.148 171.052 206.926 169.549C206.658 167.728 206.588 167.573 205.445 166.151C204.953 165.54 204 163.753 203.036 163.95C202.225 164.116 200.741 166.769 200.229 167.425C197.764 170.577 195.374 173.825 192.778 176.856C188.808 181.492 185.193 186.055 181.506 190.97C173.965 201.025 165.829 210.489 157.62 219.951C157.012 220.652 155.592 222.71 154.717 222.986C153.654 223.322 151.925 221.92 150.854 221.137C148.269 219.245 146.231 216.904 144.021 214.559C139.708 209.984 136.787 203.562 134.823 197.452C133.647 193.795 132.882 190.003 131.668 186.358C131.162 184.839 130.016 182.972 130.598 181.649C130.771 181.254 131.875 180.206 132.264 180.126C132.724 180.031 133.491 180.709 133.651 180.662C135.177 180.213 134.33 178.496 135.238 177.572C135.753 177.048 138.371 177.124 139.153 176.836C142.011 175.783 144.575 173.773 147.277 172.573C158.588 167.551 170.037 162.666 179.802 154.464C182.335 152.338 184.017 150.74 187.039 149.365C190.093 147.976 193.162 146.737 196.278 145.525C199.027 144.455 201.791 143.453 204.631 142.686C207.702 141.857 212.058 140.806 215.127 141.874C221.152 143.97 223.098 149.306 225.497 154.934C228.744 162.549 232.669 169.755 236.924 176.764C245.11 190.25 255.067 202.351 263.055 215.946Z" fill="#4D7520"/>
<path fill-rule="evenodd" clip-rule="evenodd" d="M81.0513 96.7236C80.7187 96.5428 78.1216 97.6751 77.6856 97.8483C75.9444 98.5404 74.3043 99.6902 72.6638 100.626C73.921 102.265 75.1786 103.904 76.4355 105.543C77.6678 102.305 79.2516 99.6338 81.0513 96.7236ZM81.9086 116.869C81.4808 116.921 85.0922 126.217 85.5139 127.261C87.0486 131.057 88.6599 134.817 90.2148 138.604C91.7214 142.273 93.6325 145.649 95.5579 149.078C97.2048 152.009 98.8986 156.559 101.383 158.731C99.8143 151.277 100.021 142.706 95.5219 136.448C90.8584 129.959 86.2476 123.624 81.9086 116.869ZM263.104 216.276C256.136 204.455 247.412 193.997 240.145 182.387C236.076 175.886 232.115 169.302 228.69 162.382C226.199 157.348 224.65 150.166 220.802 146.318C219.107 144.623 217.295 142.963 215.019 142.203C211.906 141.164 207.618 142.194 204.49 143.016C198.661 144.547 192.966 146.925 187.445 149.422C181.844 151.954 177.066 156.503 172.006 160.158C166.578 164.079 160.702 166.936 154.62 169.436C149.325 171.613 144.614 174.739 139.347 176.93C138.297 177.367 136.155 177.303 135.275 177.873C134.326 178.486 134.699 180.297 133.548 180.965C133.028 181.266 132.855 180.173 132.456 180.191C131.968 180.213 131.523 180.826 131.053 181.215C129.139 182.797 130.312 183.852 131.07 186.029C133.54 193.122 134.868 200.338 138.337 207.035C141.189 212.539 145.271 217.471 150.077 221.115C150.808 221.669 153.191 223.818 154.049 223.675C154.822 223.547 156.393 221.347 156.927 220.75C159.347 218.039 161.559 215.122 163.978 212.407C167.715 208.211 171.313 203.902 174.94 199.649C179.151 194.711 182.877 189.116 186.669 183.84C188.414 181.413 190.659 179.436 192.598 177.185C195.206 174.159 197.6 170.906 200.073 167.754C200.821 166.801 202.075 164.361 203.238 164.389C204.053 164.41 205.489 166.465 205.916 167.109C207.5 169.503 207.493 173.826 208.281 176.814C210.203 184.101 213.67 191.218 218.424 196.841C223.152 202.433 229.208 206.41 234.799 210.904C240.857 215.774 246.596 220.757 251.399 227.047C253.306 225.156 255.383 223.484 257.297 221.57C259.121 219.747 261.496 218.269 263.104 216.276ZM173.4 249.719C174.755 249.734 177.049 250.626 178.261 250.089C174.666 245.828 171.364 242.172 166.816 239.049C162.096 235.809 157.391 232.597 152.807 229.141C143.568 222.175 136.772 213.914 132.913 202.314C131.919 199.327 131.254 196.194 130.525 193.123C130.134 191.469 129.354 183.732 128.029 183.064C127.244 182.668 121.339 187.114 120.404 187.668C118.216 188.964 116.021 189.969 113.759 190.983C108.898 193.163 103.886 194.826 98.7313 196.214C92.5509 197.879 88.3411 195.125 84.5124 189.921C80.1687 184.018 76.5591 177.357 72.5876 171.157C70.7815 168.338 69.2853 165.523 67.9515 162.412C67.0786 160.377 63.6164 154.887 64.8127 152.719C68.2258 155.503 69.4538 161.037 71.7788 164.764C74.6765 169.409 77.9421 173.788 80.8547 178.429C83.304 182.331 85.8028 187.06 89.4213 189.865C92.6043 192.332 95.6281 191.574 99.0536 190.465C103.205 189.121 107.509 188.459 111.577 186.792C115.981 184.989 120.147 182.43 124.443 180.344C126.445 179.371 128.843 178.819 130.73 177.606C132.357 176.561 132.114 176.009 132.234 173.785C132.373 171.189 132.534 168.592 132.641 165.994C132.713 164.249 131.832 161.883 132.43 160.58C127.553 161.485 122.786 162.699 117.943 163.772C115.291 164.359 112.735 165.086 110.056 165.547C109.035 165.723 107.639 165.718 106.725 166.195C105.995 165.97 105.624 166.113 105.609 166.622C105.574 166.899 105.519 167.172 105.443 167.44C103.948 168.169 103.078 166.606 101.781 165.106C100.18 163.256 98.982 161.172 97.8077 158.998C95.1822 154.137 92.1559 149.565 89.7262 144.567C87.2498 139.471 85.2386 134.016 83.1391 128.73C81.213 123.88 79.9796 118.635 77.8512 113.9C76.9014 111.787 75.6976 110.039 74.2918 108.254C73.1318 106.78 71.3471 103.602 69.6148 102.925C69.1567 102.746 67.9572 103.047 67.4369 103.007C66.3997 102.928 65.4755 102.52 64.4142 102.609C62.1163 102.802 59.611 104.358 57.7747 105.727C58.9614 106.86 61.93 108.237 59.7977 110.278C57.7284 112.26 56.5855 108.705 55.7959 107.148C52.0776 110.419 52.6151 114.929 52.1855 119.55C51.9612 121.962 51.371 124.338 50.9903 126.715C50.716 128.425 50.9084 130.194 50.83 131.94C50.6302 136.378 50.2139 140.625 50.2335 145C50.2555 149.677 50.5529 154.193 50.9023 158.836C51.4903 166.652 52.8377 174.471 53.993 182.225C54.643 186.584 55.5327 190.819 56.3964 195.107C57.3765 199.974 59.1897 204.584 60.2065 209.438C61.2426 208.027 62.0219 208.021 63.6976 208.207C64.9865 208.351 65.8523 208.023 65.7768 209.939C65.728 211.182 64.7044 212.131 63.5719 212.348C62.0949 212.631 61.5931 211.842 60.832 210.643C60.6539 212.913 62.0785 215.285 62.6419 217.501C63.1751 219.602 63.5284 221.66 64.4245 223.67C65.2989 225.631 66.0475 227.566 66.9322 229.508C67.3396 230.401 67.7207 231.309 68.1328 232.2C68.3411 232.652 68.5865 233.273 68.8975 233.654C69.6269 234.545 69.5108 234.114 70.3645 234.621C72.2243 235.728 71.5259 235.452 71.5694 237.737C71.6117 239.992 72.6909 241.648 74.4214 242.915C78.0931 245.604 81.7145 246.352 85.8886 247.71C89.7778 248.976 93.8744 250.062 97.9926 250.037C103.036 250.007 108.013 249.299 113.057 249.227C118.622 249.148 124.24 249.18 129.793 249.387C132.081 249.471 134.205 249.58 136.414 250.206C138.978 250.933 141.459 250.645 144.103 250.535C149.742 250.299 155.576 249.832 161.142 249.79C165.149 249.76 169.377 249.46 173.4 249.719ZM319.633 252.061C320.636 252.628 322.883 252.395 323.891 252.238C325.667 251.96 325.857 251.206 326.983 249.511C328.922 246.59 330.496 243.793 331.637 240.41C333.82 233.936 334.712 227.312 335.67 220.539C336.736 213.013 334.79 205.213 334.094 197.738C333.934 196.023 333.716 194.324 333.463 192.622C333.311 191.604 333.272 188.143 332.647 187.262C331.446 185.57 325.861 186.935 323.666 187.088C317.537 187.517 311.368 187.617 305.242 187.692C301.976 187.731 298.691 187.878 295.457 187.905C293.972 187.918 292.52 187.839 291.03 187.684C290.531 187.632 290.044 187.509 289.542 187.48C287.822 187.378 287.952 187.111 287.507 188.742C286.729 191.599 287.328 195.235 287.123 198.2C286.85 202.164 286.702 206.183 286.77 210.154C286.832 213.824 286.716 217.486 286.843 221.164C286.897 222.688 287.052 223.929 287.427 225.384C287.851 227.029 288.318 230.871 289.374 232.009C289.494 232.139 290.392 231.837 290.63 232.16C290.998 232.657 290.93 233.709 291.182 234.03C291.998 235.07 293.685 235.152 294.908 235.62C298.265 236.902 301.344 238.294 304.508 240.023C307.335 241.568 311.893 242.883 313.592 245.93C314.371 247.327 314.476 249.169 315.193 250.611C316.009 252.253 314.376 251.394 316.375 252.061C317.276 252.36 318.71 252.061 319.633 252.061ZM21.6177 233.489C21.3634 237.281 19.3693 240.893 18.6752 244.621C18.3503 246.367 17.7994 248.083 17.4176 249.818C17.0514 251.483 15.7287 253.455 15.8626 255.102C20.7448 253.239 25.69 252.771 30.7927 252.268C35.6289 251.792 40.738 251.602 45.5336 251.6C50.4204 251.597 55.6456 251.086 60.6774 251.006C65.9396 250.924 71.2812 250.778 76.4672 250.193C73.7554 248.042 70.3623 246.021 68.36 243.028C66.1832 239.774 65.0528 235.697 63.1373 232.264C59.2937 225.373 56.8501 216.823 54.8353 209.082C50.7677 193.454 46.2221 178.115 45.1265 161.906C43.0416 163.05 41.3865 167.487 40.3426 169.697C39.0103 172.518 38.3125 175.576 37.4464 178.575C35.6627 184.751 34.4283 191.155 32.2444 197.273C28.0702 208.967 25.3873 221.567 21.6177 233.489ZM286.638 142.409C287.541 149.398 289.434 156.478 289.507 163.551C289.523 165.107 289.277 166.836 289.579 168.37C289.903 170.008 290.954 171.457 291.562 173.013C292.526 175.485 294.966 180.551 292.612 182.645C292.565 180.657 290.867 178.134 290.012 176.396C288.723 173.778 287.029 171.384 285.632 168.83C282.707 163.486 279.43 158.256 275.661 153.544C271.99 148.954 267.758 144.883 263.865 140.513C262.696 139.2 253.312 126.562 252.939 126.738C255.85 138.761 260.798 149.222 267.569 159.289C270.888 164.223 274.873 167.471 278.914 171.652C282.279 175.133 288.622 178.856 287.458 184.561C292.719 184.019 297.945 183.153 303.254 183.153C302.381 175.956 301.713 168.873 300.154 161.794C298.385 153.756 297.186 145.478 295.689 137.368C294.161 129.089 291.569 121.075 289.957 112.812C288.413 104.899 287.087 97.0006 285.955 88.9999C285.02 93.4331 285.365 98.3023 285.033 102.825C284.694 107.447 284.726 111.983 284.839 116.631C285.048 125.265 285.907 133.795 286.638 142.409ZM309.434 101.245C309.464 97.5488 310.132 93.9031 310.338 90.2162C310.402 89.085 311.453 81.3674 310.473 80.9646C309.666 82.8485 309.478 85.2592 308.745 87.2358C308.013 89.2105 307.034 91.0918 306.332 93.0802C304.81 97.3878 304.285 102.262 304.122 106.842C303.751 117.2 303.559 127.536 304.209 137.895C304.488 142.335 304.701 146.782 304.625 151.231C304.541 156.126 303.842 160.375 304.691 165.23C305.533 170.038 306.061 174.826 306.341 179.704C306.538 183.128 306.617 182.885 309.667 182.645C311.868 182.471 314.091 182.657 316.296 182.549C315.265 169.205 315.097 155.834 313.45 142.541C312.61 135.76 312.587 128.88 311.544 122.124C311.025 118.768 310.155 115.479 309.655 112.119C309.118 108.512 309.383 104.88 309.434 101.245ZM86.4417 92.8471C92.3122 93.3919 98.5567 95.272 104.574 94.0305C103.582 93.6002 100.986 93.0066 102.155 91.3081C103.342 89.581 105.344 91.7716 106.529 91.5454C107.259 91.4057 108.873 88.135 109.323 87.4579C110.345 85.9189 110.468 85.6507 112.306 85.2562C114.086 84.8747 114.489 85.2878 114.715 83.3921C114.974 81.2122 114.27 78.7613 114.339 76.5322C114.489 71.7332 115.935 67.5247 117.28 63.0095C111.565 64.3414 105.976 65.9208 100.132 66.7792C97.6343 67.1463 93.7479 67.9928 91.4785 66.1738C90.8883 65.7007 90.9827 65.0621 90.4998 64.5138C89.6899 63.594 88.1876 62.6425 87.039 62.3804C79.9704 60.7685 79.2808 71.5626 82.8232 75.6017C83.7104 76.6138 84.9448 77.1136 85.8534 78.041C87.0661 79.2779 87.1654 80.5808 87.3424 82.4689C87.6744 86.0093 87.2235 89.5634 85.8135 92.8021L86.4417 92.8471ZM172.22 143.805C174.307 144.23 176.485 144.133 178.577 144.495C179.32 144.623 181.549 145.072 182.202 144.607C183.2 143.896 183.555 141.289 184.027 140.075C184.857 137.94 186.031 136.077 186.822 133.903C190.056 125.022 193.072 116.106 196.983 107.528C195.484 107.111 194.333 107.095 192.822 106.879C191.248 106.654 189.821 105.657 188.32 105.229C186.893 104.822 185.398 104.926 183.984 104.452C183.205 104.192 182.536 103.612 181.768 103.41C180.544 103.087 179.116 102.899 178.388 103.759C177.642 104.642 177.38 107.063 176.974 108.203C175.893 111.241 174.636 114.173 173.731 117.281C172.913 120.084 172.137 122.857 171.417 125.686C170.657 128.672 169.159 131.133 168.247 133.985C167.553 136.157 166.898 138.376 166.794 140.691C166.693 142.95 166.386 143.094 168.495 143.455C169.56 143.637 171.219 144.314 172.22 143.805ZM309.515 249.528C310.058 249.799 310.571 249.763 311.052 249.42C306.34 247.288 301.756 244.331 296.841 242.868C292.23 241.497 287.748 239.858 283.305 238.169C279.696 236.796 276.45 235.727 273.187 233.312C271.206 231.845 269.446 230.196 268.085 228.053C266.57 225.667 266.232 222.272 264.591 220.123C262.376 222.729 259.773 224.703 257.152 226.774C256.246 227.49 254.071 229.052 253.76 230.161C253.369 231.56 254.417 232.898 254.936 234.314C256.264 237.94 256.913 241.564 257.634 245.333C257.922 246.844 258.546 249.115 259.705 249.748C260.76 250.324 263.815 249.905 265.127 249.799C271.976 249.243 278.704 248.673 285.594 249.18C293.391 249.752 301.738 250.148 309.515 249.528ZM323.194 182.34C324.439 182.344 325.655 182.177 326.895 182.177C326.179 178.597 327.853 173.964 328.446 170.39C329.11 166.392 329.616 162.258 330.058 158.228C330.991 149.74 331.414 141.355 331.426 132.804C331.438 124.53 332.844 116.97 334.813 109.016C336.928 100.474 340.391 92.7921 343.255 84.5542C340.114 86.3328 338.375 90.4947 336.725 93.6765C334.638 97.6995 333.249 102.154 332.397 106.67C330.753 115.383 328.95 124.122 327.054 132.82C325.079 141.877 323.918 151.016 321.656 159.999C320.552 164.38 319.052 169.769 318.969 174.286C318.934 176.155 318.408 180.068 319.199 181.691C319.938 183.21 321.573 182.494 323.194 182.34ZM135.304 171.102C135.238 172.033 135.176 172.917 135.022 173.836C136.746 173.818 138.93 171.902 140.409 171.042C142.21 169.994 144.014 168.838 145.776 167.785C149.177 165.75 153.038 164.41 156.67 162.739C160.842 160.819 164.677 158.5 168.666 156.188C170.06 155.381 180.076 150.731 179.908 149.46C177.709 149.382 175.51 149.303 173.311 149.225C171.426 149.158 168.506 149.614 166.7 148.99C165.712 148.648 164.602 147.389 164.228 146.402C163.859 145.426 164.689 140.938 164.207 140.652C161.746 143.343 160.198 146.921 157.998 149.825C155.566 153.034 152.424 154.908 148.961 156.613C145.137 158.497 141.179 159.955 137.271 161.569C135.623 162.25 135.656 162.639 135.512 164.575C135.352 166.739 135.369 168.933 135.304 171.102ZM334.02 252.502C338.165 252.978 342.414 252.706 346.591 253.078C348.112 253.213 350.219 253.415 348.69 255.6C347.727 256.976 344.641 256.535 343.242 256.63C339.485 256.886 335.507 256.749 331.742 256.689C330.949 256.677 330.073 256.424 329.271 256.481C328.346 256.546 327.239 257.259 326.396 257.254C325.876 257.25 325.69 256.663 325.242 256.609C324.265 256.492 323.29 256.406 322.305 256.406C307.421 256.41 292.742 256.089 277.895 256.072C270.796 256.064 263.583 255.933 256.486 255.576C254.996 255.501 246.51 255.827 246.745 252.953C246.866 251.473 249.635 251.264 250.646 251.107C251.395 250.99 252.172 251.009 252.923 250.966C254.916 250.851 255.79 251.365 255.369 249.028C253.774 240.165 250.915 232.84 244.808 226.467C239.814 221.256 233.801 216.529 228.144 212.178C221.276 206.894 215.704 201.337 211.627 193.251C209.245 188.53 207.252 183.703 206.029 178.482C205.588 176.604 205.578 174.468 205.039 172.657C204.624 171.263 203.678 170.288 203.121 168.844C196.287 181.069 187.231 191.298 178.927 202.322C174.959 207.588 170.432 212.59 165.691 217.171C164.285 218.531 162.972 219.951 161.659 221.414C160.56 222.638 158.817 223.727 157.889 225.085C156.999 226.389 157.219 226.327 158.573 227.362C160.363 228.729 162.335 229.866 164.154 231.2C167.06 233.332 170.232 235.133 172.831 237.699C175.641 240.474 178.096 243.689 180.553 246.818C182.19 248.904 184.338 251.58 184.75 254.217C184.887 255.09 185.404 257.248 184.721 257.887C184.137 258.433 184.196 258.225 183.47 257.892C182.52 257.456 182.241 256.454 181.08 255.977C178.11 254.756 174.516 255.176 171.426 255.161C168.334 255.146 165.217 255.518 162.127 255.504C155.071 255.473 148.165 256.085 141.111 256.414C133.619 256.762 126.035 255.925 118.568 256.044C113.035 256.132 107.355 255.689 101.67 256.018C98.7455 256.187 95.8735 255.795 93.0221 255.751C89.2888 255.694 85.4548 256.238 81.6895 256.315C75.5095 256.443 69.405 256.442 63.1872 256.601C49.8128 256.944 36.5108 257.298 23.1285 257.525C21.3435 257.555 19.3893 257.491 17.6252 257.706C15.7529 257.935 16.7195 258.361 15.4348 259.083C11.8384 261.104 12.6689 253.613 12.7551 252.139C13.2174 244.243 15.0887 236.499 17.3374 229.004C19.4708 221.894 21.2028 214.453 23.0096 207.19C24.9873 199.24 27.5641 191.616 29.9041 183.745C32.3017 175.679 34.2538 167.299 38.6085 160.149C39.6004 158.521 40.6254 156.768 42.221 155.742C44.0096 154.591 44.0866 155.263 44.0851 153.157C44.0841 151.173 44.198 148.522 43.761 146.629C43.3661 144.919 43.427 145.933 42.5376 144.705C41.8139 143.705 41.0567 143.023 40.5375 141.809C37.3477 145.274 30.0462 143.446 26.9643 140.951C23.1923 137.897 20.3192 132.746 19.2664 127.84C18.4209 123.9 19.4583 116.39 23.5292 114.495C25.5137 113.571 32.8028 112.873 33.0945 109.863C33.2448 108.309 30.6794 106.124 30.0875 104.788C28.9905 102.313 27.937 99.0207 27.6321 96.3074C27.0366 91.0113 29.2811 85.0891 32.8566 81.5117C39.4156 74.9489 50.9561 71.5809 59.3931 75.7447C57.6102 68.4491 56.5339 62.1553 57.4317 54.5663C58.2053 48.0284 61.8064 44.3705 66.7616 41.1139C75.2175 35.556 86.7163 33.3624 96.3849 34.9784C98.582 35.3458 100.69 36.1337 102.725 36.7605C105.68 37.6711 109.218 37.3678 112.009 38.8473C114.032 39.9198 115.569 42.0562 117.345 43.4827C119.42 45.148 121.144 47.6335 122.585 49.9321C125.668 54.8475 124.463 63.9702 121.883 68.9043C121.33 69.9626 120.647 70.8534 119.731 71.5756C118.778 72.3272 117.325 72.561 116.834 73.5358C115.576 76.0328 116.79 81.4384 116.958 84.1372C117.153 87.2709 115.674 89.6248 112.357 89.8747C110.438 90.0197 110.376 88.8271 109.458 91.281C108.862 92.8715 108.321 94.6043 107.462 96.0625C105.69 99.0676 102.445 98.7742 99.4884 98.693C96.0665 98.5984 92.6958 98.0192 89.2721 97.6537C90.1764 100.757 92.6517 103.166 94.1974 105.931C96.2873 109.671 97.5452 112.77 97.885 117.127C98.1457 120.475 97.583 123.118 95.4446 125.609C94.5596 126.641 93.775 126.691 93.9947 127.881C94.1286 128.606 95.3 129.804 95.7146 130.383C96.8112 131.915 98.0845 133.321 99.0497 134.957C102.764 141.253 103.861 150.85 103.87 158.179C103.87 158.515 104.038 159.23 103.899 159.577C103.797 159.834 103.017 160.647 103.006 160.717C102.853 161.659 103.711 163.275 105.057 163.435C106.471 163.602 109.059 162.338 110.374 161.923C112.479 161.259 114.623 160.768 116.723 160.086C120.114 158.983 123.489 158.104 126.936 157.241C128.494 156.851 130.061 156.526 131.623 156.161C133.403 155.746 134.23 154.944 135.149 156.884C135.937 158.549 135.447 158.85 137.357 158.011C139.253 157.178 141.105 156.145 142.956 155.204C146.22 153.545 150.108 152.066 152.924 149.617C157.622 145.532 159.361 139.025 163.857 134.69C165.109 133.483 165.856 133.462 166.647 131.79C167.494 130 167.931 127.705 168.377 125.78C169.157 122.409 169.712 119.026 170.42 115.658C171.301 111.462 173.206 107.662 174.596 103.66C175.138 102.101 175.419 100.119 176.292 98.7178C176.524 98.3462 176.966 98.1367 177.147 97.8292C177.768 96.7736 177.762 96.4836 177.923 95.2136C178.676 89.2792 181.983 92.4011 185.597 93.7619C187.119 94.3354 194.349 98.0539 191.588 100.527C194.879 101.55 200.15 100.994 200.106 106.046C200.083 108.634 198.638 111.403 197.862 113.826C197.173 115.978 196.507 118.137 195.807 120.285C194.274 124.99 192.414 129.555 190.917 134.275C190.235 136.425 189.673 138.627 188.723 140.657C187.886 142.448 185.858 144.422 185.524 146.38C194.294 142.372 202.407 136.578 212.223 136.947C216.521 137.108 220.421 139.044 222.795 143.092C225.771 148.166 227.729 153.847 230.638 158.968C241.22 177.597 253.841 194.521 265.457 212.378C266.349 213.751 267.497 215.048 267.806 216.744C268.008 217.85 267.616 218.957 267.858 220.02C268.361 222.229 270.9 224.987 272.622 226.256C275.922 228.69 281.287 232.122 285.405 231.818C282.82 225.164 282.855 217.874 282.975 210.777C283.089 204.035 283.769 197.348 284.577 190.676C284.76 189.166 284.919 187.766 285.324 186.303C285.788 184.625 286.427 184.784 285.034 183.275C282.892 180.952 280.343 179.04 278.183 176.687C273.511 171.6 268.723 167.613 265.046 161.538C261.549 155.76 257.86 149.815 255.272 143.488C252.607 136.974 251.542 130.018 250.219 123.12C249.682 120.321 247.725 117.196 248.118 114.273C248.615 110.579 250.214 113.269 250.866 115.257C252.852 121.326 257.504 126.757 261.357 131.638C265.52 136.91 270.611 141.322 274.956 146.441C279.688 152.016 282.928 158.424 287.136 164.375C287.136 156.989 284.782 149.468 283.819 142.162C282.972 135.73 282.706 129.279 282.17 122.82C280.954 108.148 282.005 93.0436 283.712 78.4764C284.523 71.558 284.063 64.8026 284.087 57.8607C284.095 55.6513 283.242 50.5593 284.33 48.5987C286.413 44.8435 287.629 53.0548 287.734 54.2791C288.365 61.572 287.234 68.7837 287.812 76.0454C288.415 83.6287 289.724 90.999 290.838 98.4946C292.045 106.61 294.01 114.543 295.892 122.503C297.867 130.861 299.528 139.393 301.724 147.684C302.316 145.078 301.485 141.877 301.321 139.222C301.087 135.424 300.629 131.625 300.59 127.817C300.526 121.747 300.482 115.565 300.803 109.524C301.118 103.569 301.023 97.3298 302.728 91.5931C303.537 88.8702 304.724 86.2138 305.885 83.6489C307.317 80.4861 307.824 77.4196 308.617 74.0558C309.297 71.175 310.291 68.3701 310.744 65.4317C311.025 63.6043 311.81 58.2098 313.763 62.2969C314.897 64.6691 314.407 68.1859 314.439 70.7344C314.48 74.0016 314.013 77.1785 313.941 80.432C313.802 86.8154 313.702 93.1912 313.257 99.5639C312.791 106.25 313.198 112.242 314.386 118.83C315.685 126.041 316.066 133.268 316.739 140.568C317.086 144.336 317.672 148.084 317.955 151.859C318.104 153.857 317.337 159.589 318.674 161.012C318.803 157.55 319.729 154.086 320.431 150.712C321.263 146.716 321.599 142.515 322.212 138.461C323.204 131.894 325.131 125.622 326.405 119.129C329.032 105.743 331.214 88.5383 342.222 79.7765C343.662 78.6301 345.245 77.7839 346.802 76.8404C347.684 76.3063 348.993 74.9245 350.002 74.6834C351.103 74.4201 351.562 74.6246 352.008 75.9927C352.63 77.8999 351.492 78.7907 350.43 80.176C346.753 84.9693 345.183 91.1139 342.913 96.7354C337.714 109.608 335.414 123.185 335.388 137.1C335.374 144.384 334.905 151.409 334.18 158.649C333.399 166.441 332.372 174.681 330.162 182.177C332.378 182.709 334.783 181.916 335.385 184.676C335.532 185.353 335.265 186.155 335.429 187.037C335.588 187.895 335.97 188.748 336.196 189.592C336.663 191.336 336.91 193.058 337.138 194.849C338.016 201.773 339.525 208.358 339.686 215.378C339.833 221.867 338.647 228.442 337.555 234.806C336.454 241.216 333.296 246.681 330.811 252.478C331.881 252.478 332.95 252.49 334.02 252.502Z" fill="#2D4710"/>
<path fill-rule="evenodd" clip-rule="evenodd" d="M194.197 237.767C193.036 238.124 187.43 238.798 187.432 240.711C187.432 241.858 193.03 241.836 194.021 241.96C194.08 240.563 194.139 239.165 194.197 237.767ZM206.57 250.967C209.8 251.635 214.185 250.696 216.25 247.599C217.215 246.152 217.673 243.951 217.987 242.224C218.287 240.578 219.213 236.471 218.583 234.928C217.81 233.033 210.388 235.013 208.226 235.231C204.456 235.609 200.556 235.654 196.783 235.386C196.783 239.624 196.584 243.753 198.875 247.4C200.529 250.031 203.633 250.652 206.57 250.967ZM205.921 256.201C202.411 254.803 198.726 255.711 196.441 251.614C195.861 250.574 195.373 249.456 195.022 248.301C194.85 247.795 194.717 247.277 194.622 246.747C194.801 245.604 194.416 245.282 193.468 245.78C191.608 245.387 189.568 246.776 187.608 246.366C182.856 245.374 183.719 237.97 186.908 235.407C187.539 234.9 188.168 234.759 188.889 234.509C190.479 233.958 191.339 234.573 192.794 234.417C193.969 234.291 194.292 232.951 195.555 232.36C196.382 231.974 197.529 232.004 198.399 231.965C202.948 231.762 207.511 231.764 212.09 231.441C214.225 231.291 216.531 231.659 218.622 231.262C219.602 231.076 219.461 230.367 220.389 230.989C221.349 231.633 220.934 234.014 220.886 234.964C220.606 240.455 220.305 246.344 217.6 251.144C215.126 255.537 210.256 255.986 205.921 256.201Z" fill="#2D4710"/>
<path fill-rule="evenodd" clip-rule="evenodd" d="M17.1047 257.713C17.931 257.699 18.7569 257.686 19.5803 257.674C18.7531 257.687 17.9289 257.7 17.1047 257.713Z" fill="#2D4710"/>
<path fill-rule="evenodd" clip-rule="evenodd" d="M336.197 140.637C336.195 139.458 336.192 138.278 336.19 137.101C336.192 138.281 336.195 139.459 336.197 140.637Z" fill="#2D4710"/>
<path fill-rule="evenodd" clip-rule="evenodd" d="M43.1315 145.481C43.4612 146.631 43.7909 147.78 44.1207 148.926C43.8239 147.776 43.4942 146.629 43.1315 145.481Z" fill="#2D4710"/>
<path fill-rule="evenodd" clip-rule="evenodd" d="M139.55 256.41C140.139 256.411 140.728 256.412 141.315 256.415C140.725 256.414 140.138 256.412 139.55 256.41Z" fill="#2D4710"/>
<path fill-rule="evenodd" clip-rule="evenodd" d="M84.5168 256.176C85.1058 256.179 85.6945 256.182 86.2807 256.186C85.6908 256.183 85.104 256.179 84.5168 256.176Z" fill="#2D4710"/>
<path fill-rule="evenodd" clip-rule="evenodd" d="M283.281 208.452C283.572 209.228 283.869 210.003 284.16 210.777C283.866 210.001 283.572 209.227 283.281 208.452Z" fill="#2D4710"/>
<path fill-rule="evenodd" clip-rule="evenodd" d="M334.806 252.502C334.093 252.494 333.38 252.486 332.667 252.478C333.383 252.162 334.096 252.176 334.806 252.502Z" fill="#2D4710"/>
<path fill-rule="evenodd" clip-rule="evenodd" d="M272.49 255.936C272.668 255.928 272.845 255.919 273.021 255.91C272.843 255.918 272.667 255.927 272.49 255.936Z" fill="#2D4710"/>
<path fill-rule="evenodd" clip-rule="evenodd" d="M335.919 150.208C335.932 149.621 335.945 149.035 335.957 148.451C335.945 149.038 335.932 149.623 335.919 150.208Z" fill="#2D4710"/>
<path fill-rule="evenodd" clip-rule="evenodd" d="M288.053 76.0466C288.344 75.4419 288.634 74.8375 288.927 74.2344C288.634 74.8395 288.344 75.443 288.053 76.0466Z" fill="#2D4710"/>
<path fill-rule="evenodd" clip-rule="evenodd" d="M336.172 142.946C336.179 142.34 336.186 141.734 336.193 141.13C336.186 141.736 336.179 142.341 336.172 142.946Z" fill="#2D4710"/>
<path fill-rule="evenodd" clip-rule="evenodd" d="M177.209 255.185C177.329 255.192 177.45 255.199 177.57 255.205C177.449 255.197 177.329 255.191 177.209 255.185Z" fill="#2D4710"/>
<path fill-rule="evenodd" clip-rule="evenodd" d="M293.433 256.173C293.543 256.182 293.654 256.192 293.763 256.201C293.653 256.192 293.543 256.182 293.433 256.173Z" fill="#2D4710"/>
<path fill-rule="evenodd" clip-rule="evenodd" d="M340.487 213.554C340.455 213.022 340.423 212.491 340.392 211.96C340.424 212.492 340.455 213.023 340.487 213.554Z" fill="#2D4710"/>
<path fill-rule="evenodd" clip-rule="evenodd" d="M332.501 256.688C332.863 256.686 333.225 256.684 333.583 256.684C333.22 256.686 332.86 256.687 332.501 256.688Z" fill="#2D4710"/>
<path fill-rule="evenodd" clip-rule="evenodd" d="M284.162 256.197C284.186 256.188 284.21 256.179 284.234 256.17C284.21 256.179 284.186 256.189 284.162 256.197Z" fill="#2D4710"/>
<path fill-rule="evenodd" clip-rule="evenodd" d="M204.556 255.907C204.616 255.905 204.676 255.903 204.736 255.899C204.676 255.902 204.616 255.904 204.556 255.907Z" fill="#2D4710"/>
<path fill-rule="evenodd" clip-rule="evenodd" d="M113.528 255.905C113.903 255.908 114.278 255.911 114.649 255.914C114.273 255.912 113.9 255.909 113.528 255.905Z" fill="#2D4710"/>
<path fill-rule="evenodd" clip-rule="evenodd" d="M92.3837 255.97C92.4318 255.947 92.4798 255.924 92.5275 255.902C92.4792 255.925 92.4315 255.947 92.3837 255.97Z" fill="#2D4710"/>
<path fill-rule="evenodd" clip-rule="evenodd" d="M196.401 101.605C196.165 101.553 195.929 101.501 195.693 101.449C195.929 101.491 196.179 101.134 196.401 101.605Z" fill="#2D4710"/>
<path fill-rule="evenodd" clip-rule="evenodd" d="M340.541 252.731C339.98 252.671 339.418 252.611 338.857 252.551C339.418 252.611 339.98 252.671 340.541 252.731Z" fill="#2D4710"/>
<path fill-rule="evenodd" clip-rule="evenodd" d="M301.381 105.264C301.675 105.784 301.974 106.306 302.268 106.825C301.971 106.303 301.675 105.783 301.381 105.264Z" fill="#2D4710"/>
<path fill-rule="evenodd" clip-rule="evenodd" d="M336.313 126.976C336.351 126.483 336.39 125.989 336.428 125.497C336.39 125.992 336.351 126.484 336.313 126.976Z" fill="#2D4710"/>
<path fill-rule="evenodd" clip-rule="evenodd" d="M301.157 113.342C301.45 113.862 301.746 114.381 302.036 114.899C301.743 114.379 301.45 113.86 301.157 113.342Z" fill="#2D4710"/>
<path fill-rule="evenodd" clip-rule="evenodd" d="M336.075 146.905C336.072 146.403 336.068 145.9 336.065 145.399C336.371 145.9 336.359 146.402 336.075 146.905Z" fill="#2D4710"/>
<path fill-rule="evenodd" clip-rule="evenodd" d="M283.289 219.061C283.304 219.564 283.318 220.068 283.335 220.569C284.419 220.062 284.203 219.56 283.289 219.061Z" fill="#2D4710"/>
<path fill-rule="evenodd" clip-rule="evenodd" d="M319.073 160.796C319.351 160.286 319.631 159.776 319.909 159.268C319.629 159.778 319.351 160.287 319.073 160.796Z" fill="#2D4710"/>
<path fill-rule="evenodd" clip-rule="evenodd" d="M24.7686 114.012C24.678 114.532 24.5546 114.176 24.4468 114.239C24.5542 114.163 24.6614 114.088 24.7686 114.012Z" fill="#2D4710"/>
<path fill-rule="evenodd" clip-rule="evenodd" d="M207.833 231.802C207.696 231.803 207.559 231.803 207.422 231.804C207.56 231.803 207.696 231.802 207.833 231.802Z" fill="#2D4710"/>
<path fill-rule="evenodd" clip-rule="evenodd" d="M282.966 116.151C282.675 116.575 282.387 116.998 282.097 117.42C282.387 116.996 282.675 116.574 282.966 116.151Z" fill="#2D4710"/>
<path fill-rule="evenodd" clip-rule="evenodd" d="M51.5578 74.0933C51.4184 74.1032 51.2789 74.1131 51.1395 74.123C51.2774 73.8316 51.4164 73.7472 51.5578 74.0933Z" fill="#2D4710"/>
<path fill-rule="evenodd" clip-rule="evenodd" d="M301.146 120.667C301.45 121.111 301.754 121.555 302.054 121.997C301.75 121.553 301.45 121.11 301.146 120.667Z" fill="#2D4710"/>
<path fill-rule="evenodd" clip-rule="evenodd" d="M289.181 66.1564C288.882 65.7516 288.586 65.3468 288.29 64.9443C288.589 65.3499 288.882 65.7531 289.181 66.1564Z" fill="#2D4710"/>
<path fill-rule="evenodd" clip-rule="evenodd" d="M284.465 64.8877C284.763 65.3268 285.06 65.7663 285.354 66.2039C285.057 65.764 284.763 65.3257 284.465 64.8877Z" fill="#2D4710"/>
<path fill-rule="evenodd" clip-rule="evenodd" d="M81.1034 35.5537C80.9558 35.6155 80.8081 35.6773 80.6606 35.7387C80.8082 35.6769 80.9558 35.6155 81.1034 35.5537Z" fill="#2D4710"/>
<path fill-rule="evenodd" clip-rule="evenodd" d="M46.357 74.4424C46.1967 74.4958 46.0364 74.5492 45.8763 74.6026C46.0366 74.5492 46.1968 74.4958 46.357 74.4424Z" fill="#2D4710"/>
<path fill-rule="evenodd" clip-rule="evenodd" d="M315.885 75.7298C315.579 75.3212 315.277 74.9122 314.975 74.5059C315.277 74.9148 315.583 75.3223 315.885 75.7298Z" fill="#2D4710"/>
<path fill-rule="evenodd" clip-rule="evenodd" d="M31.1535 143.164C31.1026 143.169 31.0519 143.173 31.0018 143.177C31.0528 143.173 31.1032 143.169 31.1535 143.164Z" fill="#2D4710"/>
<path fill-rule="evenodd" clip-rule="evenodd" d="M284.48 193.594C284.785 194.046 285.09 194.498 285.395 194.95C285.086 194.497 284.781 194.045 284.48 193.594Z" fill="#2D4710"/>
<path fill-rule="evenodd" clip-rule="evenodd" d="M313.483 105.541C313.805 105.105 314.116 104.669 314.448 104.234C314.106 104.671 313.795 105.106 313.483 105.541Z" fill="#2D4710"/>
<path fill-rule="evenodd" clip-rule="evenodd" d="M93.2136 34.521C93.1086 34.521 93.0035 34.5214 92.8987 34.5214C93.0037 34.2025 93.1087 34.2105 93.2136 34.521Z" fill="#2D4710"/>
<path fill-rule="evenodd" clip-rule="evenodd" d="M209.296 137.156C209.149 137.169 209.002 137.182 208.855 137.195C209 136.842 209.147 136.833 209.296 137.156Z" fill="#2D4710"/>
<path fill-rule="evenodd" clip-rule="evenodd" d="M251.273 255.166C251.223 255.172 251.173 255.179 251.124 255.186C251.174 255.18 251.223 255.173 251.273 255.166Z" fill="#2D4710"/>
<path fill-rule="evenodd" clip-rule="evenodd" d="M261.996 255.696C261.945 255.685 261.895 255.674 261.845 255.664C261.896 255.675 261.946 255.685 261.996 255.696Z" fill="#2D4710"/>
<path fill-rule="evenodd" clip-rule="evenodd" d="M96.1818 255.905C96.1436 255.913 96.1053 255.921 96.0676 255.929C96.106 255.921 96.1439 255.913 96.1818 255.905Z" fill="#2D4710"/>
<path fill-rule="evenodd" clip-rule="evenodd" d="M340.241 208.509C340.199 208.077 340.156 207.646 340.114 207.217C340.156 207.649 340.199 208.079 340.241 208.509Z" fill="#2D4710"/>
<path fill-rule="evenodd" clip-rule="evenodd" d="M302.509 135.832C302.206 136.243 301.906 136.654 301.609 137.062C301.909 136.651 302.209 136.241 302.509 135.832Z" fill="#2D4710"/>
<path fill-rule="evenodd" clip-rule="evenodd" d="M316.414 128.777C316.702 128.342 316.99 127.906 317.276 127.472C316.988 127.908 316.702 128.342 316.414 128.777Z" fill="#2D4710"/>
<path fill-rule="evenodd" clip-rule="evenodd" d="M98.5878 256.165C98.5525 256.161 98.5171 256.156 98.4822 256.151C98.5177 256.157 98.5527 256.161 98.5878 256.165Z" fill="#2D4710"/>
<path fill-rule="evenodd" clip-rule="evenodd" d="M206.51 256.201C206.466 256.187 206.422 256.173 206.379 256.159C206.423 256.173 206.467 256.187 206.51 256.201Z" fill="#2D4710"/>
<path fill-rule="evenodd" clip-rule="evenodd" d="M313.982 96.9641C314.308 96.5227 314.625 96.0813 314.942 95.6406C314.616 96.0824 314.299 96.5231 313.982 96.9641Z" fill="#2D4710"/>
<path fill-rule="evenodd" clip-rule="evenodd" d="M70.2269 256.453C70.1838 256.451 70.1408 256.449 70.0983 256.447C70.1416 256.45 70.1842 256.452 70.2269 256.453Z" fill="#2D4710"/>
<path fill-rule="evenodd" clip-rule="evenodd" d="M314.859 256.45C314.825 256.453 314.79 256.457 314.756 256.46C314.791 256.457 314.825 256.454 314.859 256.45Z" fill="#2D4710"/>
<path fill-rule="evenodd" clip-rule="evenodd" d="M321.337 256.412C321.292 256.434 321.247 256.456 321.202 256.477C321.248 256.455 321.292 256.434 321.337 256.412Z" fill="#2D4710"/>
<path fill-rule="evenodd" clip-rule="evenodd" d="M322.953 256.406C323.248 256.415 323.543 256.425 323.834 256.432C323.538 256.422 323.246 256.414 322.953 256.406Z" fill="#2D4710"/>
<path fill-rule="evenodd" clip-rule="evenodd" d="M336.385 130.528C336.366 130.094 336.347 129.66 336.328 129.227C336.347 129.661 336.366 130.095 336.385 130.528Z" fill="#2D4710"/>
<path fill-rule="evenodd" clip-rule="evenodd" d="M140.432 250.716C140.996 250.667 141.56 250.617 142.124 250.567C141.56 250.617 140.996 250.666 140.432 250.716Z" fill="#2D4710"/>
<path fill-rule="evenodd" clip-rule="evenodd" d="M87.3113 92.8477C87.7566 92.9194 88.2019 92.9911 88.6467 93.0621C88.2015 92.9907 87.7564 92.919 87.3113 92.8477Z" fill="#2D4710"/>
<path fill-rule="evenodd" clip-rule="evenodd" d="M305.179 128.691C304.873 129.478 304.558 130.265 304.252 131.049C304.563 130.262 304.873 129.477 305.179 128.691Z" fill="#2D4710"/>
<path fill-rule="evenodd" clip-rule="evenodd" d="M321.25 252.061C321.729 252.113 322.209 252.165 322.688 252.217C322.206 252.256 321.716 252.503 321.25 252.061Z" fill="#2D4710"/>
<path fill-rule="evenodd" clip-rule="evenodd" d="M316.439 159.008C316.105 158.258 315.772 157.507 315.457 156.759C315.791 157.51 316.105 158.259 316.439 159.008Z" fill="#2D4710"/>
<path fill-rule="evenodd" clip-rule="evenodd" d="M314.358 182.586C314.738 182.596 315.119 182.606 315.498 182.616C315.118 182.606 314.738 182.596 314.358 182.586Z" fill="#2D4710"/>
<path fill-rule="evenodd" clip-rule="evenodd" d="M134.801 169.393C135.125 169.964 135.443 170.536 135.748 171.106C135.424 170.533 135.112 169.963 134.801 169.393Z" fill="#2D4710"/>
<path fill-rule="evenodd" clip-rule="evenodd" d="M325.23 145.177C325.2 145.746 325.171 146.315 325.143 146.881C325.172 146.311 325.201 145.744 325.23 145.177Z" fill="#2D4710"/>
<path fill-rule="evenodd" clip-rule="evenodd" d="M311.012 249.529C311.197 249.491 311.383 249.454 311.568 249.419C311.428 249.75 311.288 249.777 311.012 249.529Z" fill="#2D4710"/>
<path fill-rule="evenodd" clip-rule="evenodd" d="M307.54 175.135C307.241 175.748 306.942 176.362 306.646 176.973C306.945 176.359 307.241 175.747 307.54 175.135Z" fill="#2D4710"/>
<path fill-rule="evenodd" clip-rule="evenodd" d="M114.521 78.3054C114.526 77.713 114.532 77.1205 114.537 76.5303C114.532 77.1235 114.527 77.7145 114.521 78.3054Z" fill="#2D4710"/>
<path fill-rule="evenodd" clip-rule="evenodd" d="M308.168 182.709L309.102 182.664C308.793 182.991 308.482 183.002 308.168 182.709Z" fill="#2D4710"/>
<path fill-rule="evenodd" clip-rule="evenodd" d="M325.01 187.082C324.554 187.086 324.098 187.09 323.645 187.095C324.103 187.091 324.557 187.087 325.01 187.082Z" fill="#2D4710"/>
<path fill-rule="evenodd" clip-rule="evenodd" d="M159.998 249.764C160.296 249.772 160.594 249.781 160.892 249.79C160.591 250.127 160.293 250.175 159.998 249.764Z" fill="#2D4710"/>
<path fill-rule="evenodd" clip-rule="evenodd" d="M42.0707 251.734C42.3781 251.673 42.6857 251.612 42.9932 251.552C42.6857 251.612 42.3781 251.673 42.0707 251.734Z" fill="#2D4710"/>
<path fill-rule="evenodd" clip-rule="evenodd" d="M305.401 133.744C305.099 134.36 304.797 134.976 304.495 135.59C304.797 134.973 305.099 134.359 305.401 133.744Z" fill="#2D4710"/>
<path fill-rule="evenodd" clip-rule="evenodd" d="M101.887 94.2936C102.427 94.0116 102.971 93.9643 103.521 94.263C102.976 94.2733 102.432 94.2836 101.887 94.2936Z" fill="#2D4710"/>
<path fill-rule="evenodd" clip-rule="evenodd" d="M287.732 140.854C287.443 141.373 287.155 141.892 286.866 142.41C287.157 141.89 287.443 141.372 287.732 140.854Z" fill="#2D4710"/>
<path fill-rule="evenodd" clip-rule="evenodd" d="M332.362 128.734C332.085 128.226 332.095 127.721 332.376 127.22C332.371 127.725 332.367 128.23 332.362 128.734Z" fill="#2D4710"/>
<path fill-rule="evenodd" clip-rule="evenodd" d="M305.49 111.093C305.49 111.607 304.49 112.121 304.49 112.633C305.514 112.118 305.49 111.606 305.49 111.093Z" fill="#2D4710"/>
<path fill-rule="evenodd" clip-rule="evenodd" d="M323.853 182.341C324.409 182.16 324.965 181.905 325.518 182.347C324.963 182.345 324.408 182.342 323.853 182.341Z" fill="#2D4710"/>
<path fill-rule="evenodd" clip-rule="evenodd" d="M146.18 250.483C146.406 250.428 146.632 250.373 146.858 250.317C146.632 250.373 146.406 250.428 146.18 250.483Z" fill="#2D4710"/>
<path fill-rule="evenodd" clip-rule="evenodd" d="M70.4807 250.485C70.6579 250.246 70.8347 250.121 71.0093 250.503C70.833 250.497 70.6569 250.491 70.4807 250.485Z" fill="#2D4710"/>
<path fill-rule="evenodd" clip-rule="evenodd" d="M174.294 249.719C174.507 249.465 174.719 249.326 174.929 249.737C174.717 249.73 174.506 249.725 174.294 249.719Z" fill="#2D4710"/>
<path fill-rule="evenodd" clip-rule="evenodd" d="M53.319 174.667C53.0267 175.191 52.7319 175.715 52.4422 176.237C52.737 175.713 53.0293 175.19 53.319 174.667Z" fill="#2D4710"/>
<path fill-rule="evenodd" clip-rule="evenodd" d="M179.532 144.495C179.735 144.288 179.938 144.179 180.138 144.526C179.936 144.515 179.734 144.505 179.532 144.495Z" fill="#2D4710"/>
<path fill-rule="evenodd" clip-rule="evenodd" d="M305.393 160.087C305.088 160.599 304.783 161.111 304.482 161.622C304.787 161.109 305.092 160.598 305.393 160.087Z" fill="#2D4710"/>
<path fill-rule="evenodd" clip-rule="evenodd" d="M51.9706 113.89C52.2601 114.302 52.5497 114.715 52.8369 115.125C52.5474 114.712 52.2601 114.301 51.9706 113.89Z" fill="#2D4710"/>
<path fill-rule="evenodd" clip-rule="evenodd" d="M20.7238 233.489C21.0323 233.891 21.3368 234.292 21.6413 234.691C21.3248 234.289 21.0243 233.889 20.7238 233.489Z" fill="#2D4710"/>
<path fill-rule="evenodd" clip-rule="evenodd" d="M315.678 162.796C315.981 162.381 316.284 161.966 316.587 161.553C316.284 161.969 315.981 162.383 315.678 162.796Z" fill="#2D4710"/>
<path fill-rule="evenodd" clip-rule="evenodd" d="M277.418 248.944C277.565 248.948 277.712 248.952 277.859 248.955C277.712 248.952 277.565 248.948 277.418 248.944Z" fill="#2D4710"/>
<path fill-rule="evenodd" clip-rule="evenodd" d="M135.128 172.925C135.048 173.227 134.968 173.529 134.888 173.832C135.423 173.985 135.503 173.683 135.128 172.925Z" fill="#2D4710"/>
<path fill-rule="evenodd" clip-rule="evenodd" d="M171.637 143.812C171.791 143.81 171.946 143.808 172.101 143.806C171.946 144.051 171.792 144.219 171.637 143.812Z" fill="#2D4710"/>
<path fill-rule="evenodd" clip-rule="evenodd" d="M53.5924 177.146C53.2707 177.604 52.949 178.062 52.6414 178.519C52.97 178.061 53.2847 177.604 53.5924 177.146Z" fill="#2D4710"/>
<path fill-rule="evenodd" clip-rule="evenodd" d="M58.7542 250.986C58.8917 250.985 59.0291 250.985 59.1667 250.984C59.029 250.985 58.8917 250.985 58.7542 250.986Z" fill="#2D4710"/>
<path fill-rule="evenodd" clip-rule="evenodd" d="M288.917 181.974C288.605 182.395 288.287 182.817 287.969 183.236C288.274 182.813 288.599 182.394 288.917 181.974Z" fill="#2D4710"/>
<path fill-rule="evenodd" clip-rule="evenodd" d="M48.7558 251.499C48.8862 251.173 49.0169 251.202 49.1478 251.494C49.0171 251.495 48.8864 251.497 48.7558 251.499Z" fill="#2D4710"/>
<path fill-rule="evenodd" clip-rule="evenodd" d="M60.9493 108C60.6472 108.43 60.3407 108.861 60.0254 109.289C60.3275 108.858 60.6384 108.429 60.9493 108Z" fill="#2D4710"/>
<path fill-rule="evenodd" clip-rule="evenodd" d="M46.3467 251.543C46.4947 251.545 46.6427 251.547 46.7906 251.549C46.6421 251.897 46.4942 251.914 46.3467 251.543Z" fill="#2D4710"/>
<path fill-rule="evenodd" clip-rule="evenodd" d="M310.93 101.245C310.58 100.807 310.261 100.371 309.942 99.9346C310.292 100.372 310.612 100.808 310.93 101.245Z" fill="#2D4710"/>
<path fill-rule="evenodd" clip-rule="evenodd" d="M91.9089 93.5996C92.036 93.6633 92.1632 93.727 92.2902 93.7903C92.1631 93.7266 92.0359 93.6633 91.9089 93.5996Z" fill="#2D4710"/>
<path fill-rule="evenodd" clip-rule="evenodd" d="M51.2701 131.33C50.9615 131.738 50.6528 132.147 50.2896 132.553C50.5983 132.144 50.9251 131.737 51.2701 131.33Z" fill="#2D4710"/>
<path fill-rule="evenodd" clip-rule="evenodd" d="M313.031 131.272C313.339 130.856 313.647 130.44 313.955 130.026C313.647 130.443 313.334 130.858 313.031 131.272Z" fill="#2D4710"/>
<path fill-rule="evenodd" clip-rule="evenodd" d="M207.62 251.056C207.855 251.11 208.09 251.165 208.324 251.219C208.089 251.164 207.855 251.11 207.62 251.056Z" fill="#2D4710"/>
<path fill-rule="evenodd" clip-rule="evenodd" d="M204.721 235.481C204.749 235.487 204.776 235.492 204.803 235.499C204.776 235.494 204.749 235.488 204.721 235.481Z" fill="#2D4710"/>
<path fill-rule="evenodd" clip-rule="evenodd" d="M205.748 250.817C205.891 250.867 206.034 250.917 206.177 250.967C206.034 250.917 205.891 250.867 205.748 250.817Z" fill="#2D4710"/>
<path fill-rule="evenodd" clip-rule="evenodd" d="M119.976 216.837C120.596 220.547 115.151 224.175 114.719 218.901C114.561 216.973 115.779 215.617 117.143 214.438C119.079 212.765 120.16 214.367 119.976 216.837Z" fill="#2D4710"/>
<path fill-rule="evenodd" clip-rule="evenodd" d="M60.8809 171.576C62.0037 172.132 70.5818 175.513 66.126 177.214C64.9465 177.664 63.1637 177.731 62.1412 176.938C60.9112 175.984 59.6705 173.167 60.8809 171.576Z" fill="#2D4710"/>
<path fill-rule="evenodd" clip-rule="evenodd" d="M63.0267 121.336C65.8355 120.927 68.4234 126.712 64.9605 126.524C62.4398 126.387 59.0498 121.336 63.0267 121.336Z" fill="#2D4710"/>
<path fill-rule="evenodd" clip-rule="evenodd" d="M74.4058 135.521C76.6942 138.088 72.4526 143.83 70.7686 141.608C69.9086 140.472 70.7018 138.026 71.4116 137.077C72.14 136.102 73.436 135.919 74.4058 135.521Z" fill="#2D4710"/>
<path fill-rule="evenodd" clip-rule="evenodd" d="M82.5343 202.045C81.1115 202.321 74.8543 204.816 76.1592 200.284C76.657 198.556 78.0451 199.068 79.3141 199.148C81.3594 199.275 82.5343 199.156 82.5343 202.045Z" fill="#2D4710"/>
<path fill-rule="evenodd" clip-rule="evenodd" d="M77.9495 213.718C79.9128 215.108 77.0429 222.89 75.4156 221.235C73.1577 218.937 76.2458 214.417 77.9495 213.718Z" fill="#2D4710"/>
<path fill-rule="evenodd" clip-rule="evenodd" d="M89.4381 207.462C90.4128 206.946 95.0077 212.677 93.2586 214.272C92.3621 215.089 90.6635 213.688 90.123 212.843C89.1097 211.259 89.0179 209.305 89.4381 207.462Z" fill="#2D4710"/>
<path fill-rule="evenodd" clip-rule="evenodd" d="M56.5561 160.618C57.5852 160.83 59.3619 160.897 59.4284 162.713C59.4868 164.308 57.8933 164.825 56.7716 164.95C55.6075 165.08 54.0667 164.667 54.0445 162.831C54.0211 160.849 56.5196 160.968 56.5561 160.618Z" fill="#2D4710"/>
<path fill-rule="evenodd" clip-rule="evenodd" d="M86.9873 239.61C88.076 240.445 93.1541 243.453 90.9773 245.625C90.1628 246.438 87.6934 244.759 87.1376 243.905C86.4743 242.887 85.8261 240.5 86.9873 239.61Z" fill="#2D4710"/>
<path fill-rule="evenodd" clip-rule="evenodd" d="M102.96 217.791C102.773 214.472 108.062 213.15 106.965 217.862C106.656 219.19 106.357 221.206 104.806 221.284C102.972 221.375 102.906 219.078 102.96 217.791Z" fill="#2D4710"/>
<path fill-rule="evenodd" clip-rule="evenodd" d="M86.6223 160.071C86.651 162.589 83.0933 164.81 83.0657 160.819C83.0413 157.252 86.7551 156.209 86.6223 160.071Z" fill="#2D4710"/>
<path fill-rule="evenodd" clip-rule="evenodd" d="M84.1204 146.957C85.0334 147.34 86.2468 147.537 86.327 149.048C86.4123 150.646 85.2719 151.358 84.2458 151.268C83.4043 151.194 82.159 150.383 82.0061 149.195C81.7819 147.45 83.0899 147.335 84.1204 146.957Z" fill="#2D4710"/>
<path fill-rule="evenodd" clip-rule="evenodd" d="M63.7325 193.057C63.7175 190.98 66.8061 188.483 67.3749 190.893C67.5569 191.665 66.1012 195.124 65.617 195.383C64.3359 196.069 64.157 194.471 63.7325 193.057Z" fill="#2D4710"/>
<path fill-rule="evenodd" clip-rule="evenodd" d="M94.9638 227.638C93.898 228.897 90.7008 232.435 90.9398 227.686C91.0924 224.652 95.245 224.811 94.9638 227.638Z" fill="#2D4710"/>
<path fill-rule="evenodd" clip-rule="evenodd" d="M159.908 241.211C160.257 239.214 165.254 242.678 163.587 245.201C163.027 246.047 161.564 245.281 161.001 244.779C159.888 243.786 159.863 242.869 159.908 241.211Z" fill="#2D4710"/>
<path fill-rule="evenodd" clip-rule="evenodd" d="M125.161 198.467C125.404 197.577 125.675 196.003 126.477 195.435C127.928 194.407 129.192 195.958 129.192 197.592C129.193 200.64 125.915 201.601 125.161 198.467Z" fill="#2D4710"/>
<path fill-rule="evenodd" clip-rule="evenodd" d="M109.703 234.107C111.322 234.5 114.928 238.668 112.837 240.368C110.824 242.004 108.148 235.352 109.703 234.107Z" fill="#2D4710"/>
<path fill-rule="evenodd" clip-rule="evenodd" d="M111.245 202.562C113.327 202.737 116.189 206.307 112.952 206.875C110.421 207.319 107.477 203.436 111.245 202.562Z" fill="#2D4710"/>
<path fill-rule="evenodd" clip-rule="evenodd" d="M130.094 218.988C130.52 217.126 134.729 219.122 134.492 221.172C134.367 222.262 132.646 222.518 131.741 222.23C130.409 221.805 130.063 220.671 130.094 218.988Z" fill="#2D4710"/>
<path fill-rule="evenodd" clip-rule="evenodd" d="M70.2248 114.986C70.2544 112.579 73.7017 111.598 73.9541 114.024C74.1825 116.215 70.1816 118.548 70.2248 114.986Z" fill="#2D4710"/>
<path fill-rule="evenodd" clip-rule="evenodd" d="M128.651 243.793C128.872 242.583 128.968 241.126 129.972 240.966C131.122 240.783 131.088 242.111 130.953 243.487C130.585 247.23 129.18 247.417 128.651 243.793Z" fill="#2D4710"/>
<path fill-rule="evenodd" clip-rule="evenodd" d="M59.6523 143.628C57.8593 144.172 54.5754 139.527 56.5826 138.531C57.9969 137.828 59.6523 142.226 59.6523 143.628Z" fill="#2D4710"/>
<path fill-rule="evenodd" clip-rule="evenodd" d="M88.7162 179.705C87.9527 180.283 87.7769 180.634 87.1905 179.685C86.6797 178.859 86.7023 176.558 87.1406 175.699C88.8194 172.409 88.78 178.373 88.7162 179.705Z" fill="#2D4710"/>
<path fill-rule="evenodd" clip-rule="evenodd" d="M99.1154 173.032C99.9914 173.195 102.594 176.803 101.239 178.236C99.578 179.993 98.6383 174.49 99.1154 173.032Z" fill="#2D4710"/>
<path fill-rule="evenodd" clip-rule="evenodd" d="M124.32 173.982C123.441 177.565 121.247 175.154 121.372 172.443C121.571 168.1 123.844 171.882 124.32 173.982Z" fill="#2D4710"/>
<path fill-rule="evenodd" clip-rule="evenodd" d="M137.543 231.524C138.457 232.176 139.698 238.193 138.392 238.516C136.926 238.878 137.414 232.777 137.543 231.524Z" fill="#2D4710"/>
<path fill-rule="evenodd" clip-rule="evenodd" d="M119.09 228.143C120.791 227.535 121.414 231.334 120.425 232.04C118.25 233.593 118.709 229.039 119.09 228.143Z" fill="#2D4710"/>
<path fill-rule="evenodd" clip-rule="evenodd" d="M102.96 217.79C102.939 218.294 102.917 218.799 102.895 219.3C102.916 218.795 102.938 218.292 102.96 217.79Z" fill="#2D4710"/>
<path fill-rule="evenodd" clip-rule="evenodd" d="M158.911 241.211C159.223 241.728 159.534 242.245 159.858 242.76C159.559 242.242 159.235 241.726 158.911 241.211Z" fill="#2D4710"/>
<path fill-rule="evenodd" clip-rule="evenodd" d="M130.094 218.988C130.085 219.427 130.075 219.866 130.064 220.302C130.074 219.862 130.084 219.425 130.094 218.988Z" fill="#2D4710"/>
<path fill-rule="evenodd" clip-rule="evenodd" d="M316.612 211.437C320.047 211.317 323.878 209.912 327.253 210.359C328.182 210.482 330.321 210.737 328.832 212.235C328.12 212.951 324.712 212.581 323.681 212.819C317.375 214.27 310.217 215.206 303.751 215.086C300.724 215.029 297.675 214.765 294.65 214.591C291.627 214.418 291.329 213.082 294.731 212.657C298.264 212.216 301.89 212.379 305.44 212.375C309.173 212.37 312.887 211.708 316.612 211.437Z" fill="#2D4710"/>
<path fill-rule="evenodd" clip-rule="evenodd" d="M324.012 202.441C323.758 203.464 323.534 205.813 322.558 205.967C321.191 206.183 320.965 202.871 321.015 201.659C321.076 200.197 321.449 197.769 322.737 198.275C323.824 198.703 323.933 201.271 324.012 202.441Z" fill="#2D4710"/>
<path fill-rule="evenodd" clip-rule="evenodd" d="M313.982 201.692C314.181 200.596 314.279 198.125 315.372 198.042C316.594 197.948 316.944 200.522 316.936 201.756C316.927 202.926 316.622 205.138 315.649 205.408C314.329 205.775 314.212 202.944 313.982 201.692Z" fill="#2D4710"/>
<path fill-rule="evenodd" clip-rule="evenodd" d="M294.613 203.656C294.222 204.973 293.963 206.787 292.752 205.889C291.816 205.195 291.686 202.394 291.862 201.112C292.045 199.784 292.433 198.26 293.497 198.857C294.724 199.547 294.6 202.206 294.613 203.656Z" fill="#2D4710"/>
<path fill-rule="evenodd" clip-rule="evenodd" d="M308.524 202.441C307.398 207.459 305.344 204.063 306.124 200.317C306.939 196.401 308.42 200.204 308.524 202.441Z" fill="#2D4710"/>
<path fill-rule="evenodd" clip-rule="evenodd" d="M300.906 202.689C300.597 203.572 300.269 205.478 299.438 205.278C298.418 205.031 298.386 202.108 298.497 201.019C298.595 200.066 298.882 198.478 299.735 198.498C300.968 198.528 300.885 201.545 300.906 202.689Z" fill="#2D4710"/>
<path fill-rule="evenodd" clip-rule="evenodd" d="M332.095 203.653C330.931 206.418 329.33 204.036 329.842 202.072C330.602 199.16 332.029 201.74 332.095 203.653Z" fill="#2D4710"/>
<path fill-rule="evenodd" clip-rule="evenodd" d="M303.589 212.378C302.651 212.373 301.713 212.368 300.776 212.363C301.714 212.109 302.652 212.011 303.589 212.378Z" fill="#2D4710"/>
<path fill-rule="evenodd" clip-rule="evenodd" d="M328.85 210.348C327.748 210.356 326.645 210.363 325.543 210.37C326.644 210.021 327.746 210.013 328.85 210.348Z" fill="#2D4710"/>
<path fill-rule="evenodd" clip-rule="evenodd" d="M316.269 211.438C315.72 211.5 315.171 211.563 314.622 211.625C315.171 211.563 315.72 211.5 316.269 211.438Z" fill="#2D4710"/>
<path fill-rule="evenodd" clip-rule="evenodd" d="M295.512 203.657C295.537 202.986 295.565 202.316 295.589 201.646C294.551 202.313 294.623 202.983 295.512 203.657Z" fill="#2D4710"/>
<path fill-rule="evenodd" clip-rule="evenodd" d="M302.53 215.072C302.707 215.077 302.885 215.082 303.061 215.087C302.883 215.082 302.706 215.077 302.53 215.072Z" fill="#2D4710"/>
<path fill-rule="evenodd" clip-rule="evenodd" d="M297.186 212.437C296.799 212.499 296.412 212.562 296.024 212.624C296.412 212.562 296.799 212.499 297.186 212.437Z" fill="#2D4710"/>
<path fill-rule="evenodd" clip-rule="evenodd" d="M306.93 212.37C306.552 212.372 306.174 212.373 305.795 212.375C306.173 212.057 306.552 212.048 306.93 212.37Z" fill="#2D4710"/>
<path fill-rule="evenodd" clip-rule="evenodd" d="M300.906 202.689C301.231 201.99 301.549 201.291 301.854 200.593C301.529 201.292 301.217 201.991 300.906 202.689Z" fill="#2D4710"/>
<path fill-rule="evenodd" clip-rule="evenodd" d="M290.886 201.113C291.187 201.795 291.489 202.477 291.873 203.156C291.572 202.473 291.242 201.794 290.886 201.113Z" fill="#2D4710"/>
<path fill-rule="evenodd" clip-rule="evenodd" d="M320.312 211.184C320.017 211.244 319.721 211.304 319.426 211.364C319.722 211.304 320.017 211.244 320.312 211.184Z" fill="#2D4710"/>
<path fill-rule="evenodd" clip-rule="evenodd" d="M332.094 203.652C332.074 203.057 332.054 202.461 332.034 201.866C332.054 202.462 332.074 203.057 332.094 203.652Z" fill="#2D4710"/>
<path fill-rule="evenodd" clip-rule="evenodd" d="M306.331 215.092C306.435 215.083 306.538 215.074 306.641 215.066C306.537 215.076 306.434 215.084 306.331 215.092Z" fill="#2D4710"/>
<path fill-rule="evenodd" clip-rule="evenodd" d="M324.012 202.441C323.974 202.013 323.935 201.585 323.897 201.158C323.936 201.587 323.974 202.014 324.012 202.441Z" fill="#2D4710"/>
<path fill-rule="evenodd" clip-rule="evenodd" d="M308.523 202.441C308.827 202.001 309.135 201.561 309.439 201.123C309.131 201.563 308.827 202.002 308.523 202.441Z" fill="#2D4710"/>
<path fill-rule="evenodd" clip-rule="evenodd" d="M85.3136 73.2877C83.9633 72.8093 83.7101 70.2471 83.9271 68.6734C84.1732 67.9149 84.4193 67.1568 84.6654 66.3984C84.5691 66.118 84.473 65.8376 84.3769 65.5572C84.5004 63.9953 84.1848 63.3166 85.5142 63.9491C87.9837 65.1249 88.3784 73.1672 85.3136 73.2877Z" fill="#2D4710"/>
<path fill-rule="evenodd" clip-rule="evenodd" d="M110.206 68.3338C111.625 68.2155 114.202 69.9648 112.789 71.6571C111.915 72.7055 109.031 72.2096 107.855 72.4286C106.295 72.7189 104.668 73.116 105.512 70.6423C106.175 68.6997 108.542 68.2831 110.206 68.3338Z" fill="#2D4710"/>
<path fill-rule="evenodd" clip-rule="evenodd" d="M108.713 79.9693C107.272 78.7458 107.916 73.1731 110.109 74.1757C112.365 75.2077 109.916 79.1651 108.713 79.9693Z" fill="#2D4710"/>
<path fill-rule="evenodd" clip-rule="evenodd" d="M82.946 68.6738C82.946 69.2602 82.9473 69.847 82.9511 70.4307C83.9972 69.8432 83.9645 69.2583 82.946 68.6738Z" fill="#2D4710"/>
<path fill-rule="evenodd" clip-rule="evenodd" d="M85.7144 73.2886C85.6735 73.2799 85.6325 73.2707 85.5922 73.2627C85.6332 73.2726 85.6738 73.2806 85.7144 73.2886Z" fill="#2D4710"/>
<path fill-rule="evenodd" clip-rule="evenodd" d="M260.65 233.777C260.568 236.312 259.012 234.438 259.122 232.742C259.323 229.665 260.317 232.706 260.65 233.777Z" fill="#2D4710"/>
</svg>
