<svg width="408" height="315" viewBox="0 0 408 315" fill="none" xmlns="http://www.w3.org/2000/svg">
<path fill-rule="evenodd" clip-rule="evenodd" d="M120.827 172.706C122.718 187.304 124.609 201.903 126.5 216.501L128.027 228.29C128.219 229.777 128.037 232.712 128.772 234.043C129.031 234.513 129.713 234.736 130.214 235.013C131.939 235.967 133.665 236.92 135.39 237.874C149.985 245.94 164.58 254.006 179.174 262.072C193.18 269.813 207.187 277.554 221.193 285.295C222.643 286.097 224.987 288.187 226.552 287.636C228.039 287.113 229.559 285.821 230.909 285.007C233.502 283.443 236.094 281.88 238.686 280.316C254.371 270.854 270.055 261.391 285.74 251.929C292.211 248.025 298.682 244.121 305.154 240.217C306.924 239.149 308.695 238.08 310.466 237.012C311.392 236.453 311.512 236.473 311.877 235.525C313.239 231.98 313.871 227.919 314.835 224.241C315.897 220.187 316.96 216.133 318.023 212.08C318.496 210.271 318.274 210.038 317.501 208.292C315.972 204.836 314.443 201.38 312.913 197.925C309.519 190.255 306.125 182.585 302.731 174.915C301.358 171.813 298.052 169.631 295.671 167.349L258.714 131.929C257.775 131.029 256.836 130.129 255.897 129.229C255.743 134.637 254.705 140.45 256.227 145.674C258.726 154.247 261.224 162.819 263.722 171.392C264.93 175.536 266.137 179.679 267.345 183.823C267.569 184.592 268.935 187.645 268.57 188.322C268.368 188.698 266.643 189.077 266.269 189.223C264.663 189.852 263.058 190.481 261.452 191.11C256.98 192.862 252.507 194.613 248.034 196.365C244.011 197.941 239.988 199.516 235.965 201.091C234.601 201.626 232.998 202.615 231.558 202.533C230.269 202.459 228.803 201.802 227.556 201.472C225.364 200.89 223.171 200.309 220.978 199.727C216.671 198.585 212.363 197.443 208.056 196.301C203.21 195.016 199.118 191.242 194.974 188.449C187.851 183.648 180.727 178.847 173.605 174.046C171.974 172.946 171.968 172.319 171.318 170.312C169.858 165.802 168.397 161.292 166.937 156.782C166.157 154.374 165.198 151.956 164.609 149.49C163.638 145.422 163.062 141.21 162.292 137.096C162.06 135.855 161.828 134.613 161.596 133.372C158.613 134.618 155.63 135.865 152.646 137.111C152.214 137.292 150.107 137.83 149.92 138.273C149.801 138.552 150.428 139.822 150.518 140.095C152.991 147.636 155.465 155.177 157.938 162.718C158.717 165.091 159.494 167.463 160.272 169.835C158.413 166.827 156.554 163.819 154.694 160.812C153.234 165.87 151.773 170.929 150.312 175.987C146.859 171.886 143.405 167.784 139.952 163.683C138.757 167.784 137.562 171.886 136.366 175.987C132.648 170.929 128.929 165.87 125.21 160.812C124.768 163.451 124.326 166.091 123.884 168.731C123.75 169.528 123.777 171.814 123.262 172.444C122.837 172.964 121.616 172.706 120.827 172.706Z" fill="#4D7520"/>
<path fill-rule="evenodd" clip-rule="evenodd" d="M356.278 204.261C356.069 211.133 356.214 220.054 352.56 226.096C351.971 227.071 349.973 230.108 349.75 227.436C349.531 224.813 350.159 222.215 349.537 219.561C349.205 218.141 348.088 215.04 346.177 216.322C345.204 216.976 344.947 218.59 344.566 219.609C344.003 221.116 343.372 222.6 342.778 224.095C340.706 229.317 338.56 235.549 333.954 239.004C334.557 234.501 336.2 229.694 335.095 225.142C334.719 223.591 333.579 220.758 331.616 221.667C329.702 222.553 328.462 226.504 327.56 228.264C324.822 233.599 322.022 238.833 318.94 243.969C317.39 246.552 315.716 248.913 313.687 251.122C312.419 252.504 310.838 254.84 308.839 255.046C308.839 251.107 310.098 247.302 311.247 243.593C312.484 239.605 313.611 235.582 314.824 231.586C315.877 228.12 316.741 224.681 317.442 221.126C317.733 219.656 317.962 218.134 319.179 217.185C320.273 216.332 322.002 215.926 323.222 215.298C326.425 213.651 329.72 211.873 332.696 209.825C333.918 208.984 334.97 207.898 336.249 207.144C337.707 206.285 339.068 205.562 340.417 204.515C346.236 199.996 351.483 194.437 355.018 187.821C355.591 190.479 356.352 193.077 356.436 195.817C356.521 198.626 356.363 201.454 356.278 204.261ZM308.382 235.847C307.451 234.229 306.033 234.892 304.784 235.672C302.845 236.882 300.901 238.084 298.952 239.279C294.987 241.712 291.094 244.271 287.22 246.853C279.333 252.109 271.171 256.41 262.856 260.859C254.819 265.157 247.1 270.273 239.571 275.445C237.761 276.687 235.964 277.959 234.226 279.307C232.684 280.503 231.451 282.183 229.827 283.249C228.136 284.358 226.974 283.458 225.356 282.64C223.334 281.617 221.226 280.76 219.159 279.837C210.816 276.114 202.449 272.249 194.333 268.023C186.267 263.823 178.623 258.983 170.894 254.176C167.213 251.887 163.595 249.453 159.964 247.08C156.1 244.554 152.099 242.663 148.046 240.516C146.252 239.565 144.664 238.275 142.822 237.412C140.885 236.504 138.84 235.853 137.106 234.543C136.328 233.956 135.673 233.254 134.784 232.838C134.054 232.497 133.227 232.44 132.506 232.078C131.041 231.341 130.621 229.846 130.337 228.291C128.512 218.309 127.542 208.051 126.484 197.958C125.89 192.282 125.226 186.628 124.405 180.983C124.034 178.437 124.779 176.465 125.171 173.989C125.627 171.097 125.808 168.144 126.114 165.233C127.558 167.986 128.806 170.876 130.643 173.389C131.998 175.241 134.311 177.868 136.805 177.806C140.681 177.709 140.504 170.866 140.66 168.149C142.425 169.771 142.961 172.414 144.426 174.298C145.764 176.019 147.585 178.153 149.64 178.923C153.966 180.545 153.55 172.279 153.312 169.934C153.192 168.758 152.547 166.898 154.078 167.434C155.487 167.928 156.858 169.975 158.043 170.914C160.09 172.537 162.336 173.886 164.437 175.436C167.043 177.359 169.855 178.748 172.512 180.539C174.174 181.659 175.987 181.91 177.799 182.734C180.453 183.941 182.798 185.74 185.325 187.187C190.328 190.051 195.878 192.62 201.351 194.346C203.121 194.905 205.481 196.48 206.824 194.862C207.651 193.866 208.195 192.344 208.897 191.228C209.785 189.815 210.728 188.438 211.707 187.09C215.189 182.299 219.052 177.775 223.343 173.734C228.335 169.034 233.794 164.803 239.632 161.28C242.141 159.766 252.616 152.981 254.918 157.756C253.026 157.635 251.386 158.347 249.768 159.239C249.373 159.457 247.337 160.954 247.814 159.635C247.222 159.749 246.703 160.543 246.255 160.896C245.481 161.506 244.307 162.211 243.41 162.716C242.524 163.215 241.429 163.338 240.622 163.943C240.327 164.164 240.148 164.523 239.867 164.762L239.06 164.768C238.94 165.228 238.819 165.688 238.698 166.147C238.242 164.643 237.592 166.599 236.831 167.235C236.373 167.616 235.648 168.01 235.109 168.256C234.706 168.44 234.644 168.012 234.253 168.338C233.905 168.627 233.684 169.264 233.31 169.627C232.851 170.07 232.265 170.415 231.753 170.794C230.774 171.52 229.738 172.09 228.746 172.779C227.411 173.705 226.711 175.297 225.415 176.266C224.801 176.724 223.848 176.778 223.516 177.072C222.682 177.809 222.957 178.927 221.403 178.976C221.545 179.209 221.629 179.461 221.659 179.734C221.288 179.669 220.959 179.511 220.671 179.26C220.736 180.855 219.212 181.425 218.298 182.408C217.771 182.974 217.115 183.77 216.744 184.451C216.682 184.565 216.564 185.474 216.539 185.487C216.398 185.556 215.539 184.78 215.62 184.845C215.381 186.319 213.995 187.712 213.388 189.077C213.069 189.796 212.744 190.952 212.114 191.458C211.943 191.595 211.415 191.451 210.98 191.929C210.66 192.28 210.292 192.927 210.162 193.392C210.076 193.702 210.18 194.506 210.055 194.692C209.827 195.032 209.473 194.69 209.116 194.942C208.456 195.407 208.439 196.134 207.474 196.229C208.139 197.894 212.157 198.407 213.617 198.88C217.747 200.218 222.08 201.554 225.94 203.604C226.939 204.134 227.883 204.57 228.06 205.791C228.307 207.49 227.466 209.749 227.305 211.465C226.87 216.1 226.782 220.871 226.872 225.525C226.959 229.933 227.097 234.383 227.297 238.786C227.482 242.868 228.281 246.87 228.713 250.923C228.831 252.036 228.752 257.053 230.611 256.8C232.162 256.59 231.182 253.163 231.153 252.18C231.088 250.006 231.533 247.786 231.514 245.593C231.506 244.538 231.953 243.63 231.996 242.621C232.039 241.624 231.558 240.836 231.702 239.802C231.841 238.811 234.689 233.106 231.953 233.774C232.114 232.959 232.254 232.137 232.465 231.333C232.758 231.604 232.994 231.92 233.171 232.281C233.415 230.529 233.334 228.78 233.485 227.027C233.552 226.232 233.865 225.362 233.758 224.562C233.779 224.23 233.738 223.904 233.636 223.585C233.467 223.402 233.259 223.305 233.012 223.296C232.881 222.858 232.848 222.737 233.079 222.307C233.178 222.015 233.375 221.833 233.669 221.761C234.23 221.692 234.295 221.36 233.861 220.765C234.087 219.591 234.116 218.849 233.954 217.677C233.816 216.692 234.32 214.785 233.807 213.908C233.207 212.883 232.909 213.878 232.798 212.457C232.774 212.156 232.755 211.529 232.872 211.23C233.001 210.903 233.388 211.037 233.437 210.921C233.773 210.131 233.795 208.577 232.607 208.712C232.653 208.148 232.7 207.584 232.746 207.02C233.605 208.037 233.305 207.176 233.792 206.61C234.448 205.848 235.089 205.717 236.027 205.416C238.525 204.613 240.933 203.406 243.374 202.427C248.544 200.353 253.81 198.501 258.829 196.05C269.385 190.894 279.731 185.298 290.352 180.278C289.593 178.829 290.065 178.758 290.619 177.397C291.36 177.926 291.204 177.557 291.731 177.525C291.683 177.071 291.82 176.934 292.142 177.114C292.398 177.194 292.66 177.223 292.93 177.199C293.587 177.315 294.124 177.688 294.722 177.829C294.918 177.978 295.134 178.09 295.369 178.165C295.58 178.115 295.76 178.008 295.909 177.842C296.876 178.027 297.202 178.777 297.245 179.863C297.252 180.052 296.69 180.246 296.851 180.499C297.132 180.943 297.888 180.837 298.321 180.894C298.226 181.355 298.131 181.816 298.037 182.276C299.936 181.374 299.44 184.197 300.016 185.125C300.177 185.384 300.534 185.177 300.72 185.477C300.962 185.868 300.889 186.422 301.096 186.812C301.564 187.693 302.031 187.586 302.497 188.596C304.931 193.866 308.169 198.776 310.506 204.159C311.618 206.721 312.621 209.327 313.783 211.867C314.851 214.204 315.462 216.192 314.7 218.744C312.934 224.666 311.044 230.695 308.729 236.414C308.614 236.225 308.498 236.036 308.382 235.847ZM185.148 280.046C184.982 280.337 184.817 280.627 184.651 280.918C184.283 278.738 185.264 279.749 185.148 280.046ZM177.355 275.965C176.824 275.801 177.054 274.908 177.071 274.526C177.407 274.957 177.736 275.396 178.016 275.87C177.796 275.901 177.575 275.933 177.355 275.965ZM155.998 267.584C156.556 267.262 156.957 267.031 157.589 266.666C156.947 267.955 156.947 267.955 155.998 267.584ZM122.398 153.997C121.546 156.15 124.145 169.446 121.725 169.88C121.378 168.713 121.335 165.5 119.898 165.116C118.116 164.64 118.292 167.948 118.048 168.971C114.39 166.35 112.764 161.29 111.016 157.279C108.788 152.168 107.035 146.851 105.361 141.524C103.929 136.97 102.746 132.336 101.299 127.789C100.39 124.934 99.4103 122.072 98.7991 119.128C98.6664 118.489 98.1441 116.867 98.5879 116.26C99.233 115.376 101.555 116.388 102.303 116.62C107.158 118.124 112.193 118.771 117.18 119.645C122.721 120.615 128.25 121.617 133.825 122.37C135.218 122.558 136.611 122.736 138.006 122.909C138.91 123.021 140.279 122.909 141.138 123.326C142.877 124.171 143.247 127.403 143.893 129.079C146.302 135.335 149.138 141.393 151.675 147.592C153.96 153.177 155.693 159.118 158.978 164.202C156.528 163.084 153.423 157.173 150.685 160.58C149.508 162.045 149.805 163.976 149.899 165.729C150.035 168.264 150.078 170.817 150.078 173.356C147.399 172.64 145.599 169.509 144.192 167.291C142.271 164.262 141.061 161.408 140.21 157.936C139.842 156.432 138.865 156.395 137.997 155.495C137.439 154.916 137.158 154.137 136.358 154.978C135.353 156.036 136.022 158.964 136.195 160.212C136.608 163.183 137.96 167.755 136.646 170.547C134.871 174.314 130.116 164.835 129.559 163.466C129.275 162.769 124.216 149.404 122.398 153.997ZM119.076 89.4341C119.376 89.4813 119.675 89.5285 119.974 89.5756C119.733 89.7951 119.231 90.5645 118.82 90.3611C118.905 90.0523 118.991 89.7434 119.076 89.4341ZM134.946 85.9285C134.852 86.0348 134.758 86.1406 134.664 86.2468C134.234 85.6939 134.386 84.888 134.386 84.2485C134.954 84.6017 135.093 85.308 134.946 85.9285ZM136.228 92.0628V93.87C135.039 93.3392 135.015 93.0653 136.228 92.0628ZM137.673 94.3605C136.84 94.1251 136.74 93.9352 136.857 92.6165C137.203 93.3552 137.43 93.8421 137.673 94.3605ZM142.471 107.744C142.122 108.669 140.08 106.464 140.155 105.804C140.226 105.175 140.539 104.987 140.972 105.392C141.115 105.526 140.903 106.01 140.994 106.178C141.324 106.787 141.988 107.285 142.471 107.744ZM142.494 113.319C141.982 114.634 141.07 112.563 142.407 112.506C142.495 112.771 142.524 113.042 142.494 113.319ZM141.501 111.245C141.303 110.973 141.111 110.698 140.924 110.417C141.612 110.56 142.159 111.593 142.885 110.904C142.799 111.955 142.074 111.984 141.501 111.245ZM96.9779 94.1649C95.8706 92.9209 103.091 92.0477 103.962 91.834C110.282 90.2823 116.25 88.0372 122.16 85.2821C124.98 83.968 127.785 82.6379 130.538 81.181C131.727 80.5522 133.356 80.019 134.349 79.0748C135.058 78.4009 135.03 77.8911 135.951 77.4896C136.733 77.1496 136.772 77.4707 137.13 76.8555C137.346 76.4863 137.589 75.1336 137.463 74.7333C137.12 73.6411 136.613 74.5266 135.901 73.774C135.388 73.2313 135.512 71.6883 135.652 71.0493C135.834 71.3536 135.938 71.6842 135.966 72.0402C136.739 71.6481 136.427 70.3016 137.272 70.0809C138.163 69.8488 138.071 70.5629 138.303 71.2929C138.976 70.2757 138.436 69.4083 138.072 68.4149C139.924 68.058 141.913 67.7123 143.748 68.3464C145.076 68.8045 146.212 69.9312 147.613 70.149C148.985 70.3619 149.249 69.6921 150.261 69.0125C151.082 68.4608 151.787 69.1105 152.21 68.6938C151.949 70.1006 149.709 69.9082 149.984 71.6662C150.109 72.4574 151.051 73.1682 151.479 73.7838C152.018 74.5565 152.447 75.4109 152.813 76.2817C154.239 79.6687 154.849 83.5993 155.447 87.2214C156.924 96.1619 157.111 105.279 158.5 114.248C159.162 118.52 159.825 122.795 160.169 127.109C160.255 128.188 160.895 130.634 160.371 131.672C159.929 132.548 158.944 132.551 158.079 132.763C156.387 133.176 154.799 133.739 153.176 134.362C151.721 134.92 151.298 135.263 150.364 133.854C149.461 132.49 149.015 130.865 148.368 129.371C147.545 127.466 146.551 125.629 145.596 123.792C147.471 123.792 148.551 122.749 148.501 120.788C148.447 118.615 146.711 118.099 145.995 116.313C145.299 117.244 145.241 117.27 144.745 116.387C144.177 115.377 143.794 113.528 143.447 112.382C143.695 112.655 143.944 112.927 144.192 113.2C144.818 112.313 143.837 110.915 143.509 110.08C143.003 108.791 142.914 107.397 142.434 106.111C142.172 105.409 141.566 104.856 141.417 104.124C141.318 103.634 141.716 103.168 141.621 102.67C141.457 101.804 140.505 100.875 140.209 99.9936C139.754 98.6385 139.259 97.4453 138.694 96.125C137.93 94.338 138.107 92.4627 137.968 90.5608C137.822 88.5888 137.209 86.7021 136.992 84.7387C136.842 83.3823 137.311 81.6744 136.314 80.5879C136.198 82.3938 136.7 82.3659 135.052 82.6908C133.176 83.0603 131.814 84.4996 130.04 84.929C129.674 85.0176 129.408 83.3729 129.551 85.6164C128.699 84.9696 126.883 85.7727 127.561 86.1566C127.047 86.7222 126.036 86.3309 125.867 87.1783C124.121 85.4314 121.322 91.3775 119.243 88.2759C118.9 90.3779 117.422 91.6207 115.437 91.8988C114.439 92.0382 113.823 92.3807 112.938 92.6887C112.758 92.7507 112.692 93.0169 112.479 93.0886C112.154 93.1977 111.677 92.8684 111.442 92.9324C110.965 93.0628 110.435 93.7088 109.769 93.8372C109.006 93.9844 108.173 93.9167 107.409 93.8257C106.454 93.7117 106.033 93.5952 105.098 93.9192C104.256 94.2108 103.355 95.0274 102.574 94.1382C101.347 96.3231 98.4222 95.7891 96.9779 94.1649ZM153.693 67.7988C152.765 67.6844 153.409 66.8624 153.839 66.6155C155.007 65.9453 154.696 67.9227 153.693 67.7988ZM102.287 75.6394C107.736 67.547 117.056 61.9869 125.257 57.3087C129.736 54.7534 134.308 52.2764 139.011 50.1851C141.349 49.1457 143.715 48.1466 146.103 47.2336C147.378 46.7459 148.668 46.3025 149.96 45.8612C150.317 45.7394 150.966 45.3653 151.34 45.4018C151.275 45.3953 152.269 45.6733 152.073 45.7607C152.713 45.474 153.018 44.7263 153.77 44.4273C154.615 44.091 155.692 43.9519 156.598 43.9216C157.399 43.8945 158.093 44.2353 158.856 44.262C159.358 44.2792 159.784 44.034 160.276 43.9979C160.527 43.9798 160.505 44.367 160.656 44.3896C160.722 44.3994 161.391 44.1406 161.398 44.1451C161.641 44.3063 161.857 44.9355 162.078 45.1812C162.71 45.8858 163.637 46.3768 164.48 46.7475C165.506 47.1987 168.007 47.6523 166.848 49.3217C167.671 49.1999 168.055 49.966 167.024 50.16C166.465 50.2655 166.226 49.7388 165.812 49.3795C164.853 48.551 162.527 47.3714 161.147 47.4247C160.37 47.4547 159.77 48.0613 159.054 48.2815C158.35 48.4981 158.001 48.1622 157.382 48.2155C156.659 48.2774 156.194 48.907 155.505 49.019C154.86 49.124 154.501 48.6712 153.924 48.7028C153.239 48.7401 152.575 49.3529 151.921 49.5588C150.88 49.8861 150.116 50.1092 149.1 50.6518C147.131 51.7039 144.932 52.1034 142.903 53.009C141.28 53.7329 139.441 54.114 137.939 54.9146C136.27 55.8042 134.593 56.6906 132.958 57.6573C131.777 58.3558 129.376 58.5961 128.074 58.4185C128.055 60.8869 126.875 59.1564 125.686 60.2376C125.967 60.4931 126.287 60.681 126.643 60.8011C125.354 61.3311 124.163 61.9906 122.914 62.5997C121.624 63.2297 120.247 63.3683 119.399 64.5598C118.618 65.6578 118.882 65.0914 117.717 65.5237C117.182 65.7222 116.717 66.3276 116.332 66.734C115.67 67.433 115.523 68.4912 115.145 67.0548C115.035 67.2299 114.6 68.3451 114.516 68.3734C114.042 67.8558 113.974 68.4694 113.709 68.6889C113.849 69.1659 113.649 69.4784 113.111 69.6265C112.839 69.8348 112.564 70.0391 112.285 70.2388C111.275 70.9603 109.988 71.5792 109.277 72.6542C108.752 72.3355 108.558 71.7855 108.877 71.224C107.874 72.1756 106.678 73.153 106.406 74.6177C106.282 74.4938 106.136 74.4044 105.971 74.3494C105.564 74.6324 106.095 75.4757 106.353 75.6656C107.479 75.2153 106.071 75.3785 106.828 75.4511C107.044 75.4716 107.265 75.6377 107.503 75.6406C108.201 75.65 108.856 75.6156 109.548 75.5061C111.073 75.2641 112.572 74.8133 114.049 74.3613C115.657 73.8691 117.265 73.3778 118.838 72.774C120.133 72.2769 121.406 71.7228 122.679 71.1707C123.187 70.95 123.695 70.7265 124.205 70.5075C125.172 70.0916 125.682 69.4083 125.547 70.5789C126.317 70.4472 126.984 69.3266 127.575 68.8693C128.407 68.2266 129.343 67.7471 130.329 67.419C130.728 67.2861 131.021 67.1171 131.434 67.1159C131.636 67.1155 131.757 67.7028 131.885 67.6708C132.77 67.4502 132.366 66.9457 132.764 66.2189C133.634 64.6304 135.977 63.7518 137.415 62.8495C138.329 62.2765 138.977 61.5058 139.82 60.8713C140.214 60.5747 140.501 60.4435 140.914 60.318C141.23 60.2216 141.618 60.9697 141.824 60.2179C141.088 59.9082 140.481 59.5264 139.773 59.3004C139.272 59.14 139.873 58.5916 139.079 58.9181C138.76 59.0494 138.651 59.6843 138.534 59.9501C137.647 59.1351 135.155 59.9796 134.103 60.3208C134.03 60.3442 133.705 60.1679 133.552 60.1785C132.945 60.2204 132.522 61.0616 132.123 61.4242C131.06 62.3876 129.908 62.7904 128.599 63.3404C128.947 61.3819 131.506 60.5797 133 59.8295C135.184 58.7327 137.216 57.3329 139.607 56.7431C141.199 56.3497 143.309 56.0335 143.997 57.9391C144.408 59.0814 144.46 61.9192 143.068 62.4463C142.92 61.9131 143.391 61.4574 143.533 60.9947C142.147 61.5394 141.919 63.2535 140.866 64.148C140.274 64.6505 140.063 64.8116 139.777 65.2973C139.493 65.7796 139.356 66.2296 138.691 66.7427C137.603 64.3633 137.787 67.6224 137.235 68.0314C137.457 67.8669 136.336 68.3472 136.469 68.2963C136.418 68.316 135.929 67.5014 135.612 67.5187C135.036 67.5499 135.147 68.2032 134.869 68.5322C133.927 69.6453 132.711 70.3754 131.196 70.2003C131.16 70.9923 131.398 71.9385 130.347 72.0107L130.209 70.2548C129.637 70.8504 128.885 71.416 128.419 72.1055C127.89 72.8901 127.946 73.3732 127.068 73.8962C126.15 74.4429 124.197 75.52 123.104 75.6131C123.374 75.2185 123.327 74.8621 122.962 74.5447C122.412 75.1279 121.601 75.1853 121.016 75.712C123.046 76.5852 119.456 76.5401 119.001 76.6389C118.696 76.7054 118.43 76.9912 118.121 77.0556C117.711 77.1413 117.658 76.6976 117.305 76.8382C116.789 77.0441 116.998 77.6253 116.458 77.9174C116.07 78.1274 115.412 78.1245 114.974 78.3238C113.93 78.7996 111.707 79.8533 111.002 78.5753C110.645 80.768 106.995 79.4333 105.643 79.2856C103.793 79.0834 100.57 78.1893 102.287 75.6394ZM110.059 53.2046C110.32 52.9745 110.583 52.9914 110.845 53.2555C110.48 51.2712 113.303 50.3077 114.534 49.464C116.168 48.3451 118.091 46.1741 120.228 46.346C119.864 46.6241 119.5 46.9022 119.136 47.1803C119.656 47.2496 120.175 47.3189 120.694 47.3882C120.402 47.8312 120.108 48.2737 119.815 48.7163C119.335 45.9945 116.832 49.4308 116.108 49.9316C115.378 50.4357 114.651 50.8114 114.002 51.4262C113.36 52.0353 112.78 53.132 111.718 52.5841C111.622 54.1386 110.408 53.7169 109.568 54.5778C109.533 54.0377 109.833 53.6558 110.059 53.2046ZM121.149 45.4449C123.733 44.4486 125.982 42.6066 128.417 41.2908C130.743 40.0337 133.115 38.9049 135.48 37.7323C136.679 37.1372 138.876 35.5983 140.247 36.3825C142.097 37.4415 139.55 37.7832 138.889 38.1498C138.644 36.5191 137.787 37.9965 138.299 38.9037C136.887 38.2762 133.809 40.7314 132.462 41.4085C132.157 41.5619 132.294 41.6505 131.947 41.831C131.862 41.8753 130.978 42.0824 130.725 42.1698C129.457 42.6066 128.622 42.2596 128.076 43.835C127.961 43.4642 127.847 43.0931 127.732 42.7219C126.939 44.5565 124.526 45.3596 122.983 46.4444C122.586 46.7242 121.45 47.809 120.946 47.5847C120.244 47.2721 120.526 45.6848 121.149 45.4449ZM167.761 50.9763C168.852 51.0505 167.8 51.5743 168.099 51.9204C168.065 51.8815 168.756 52.4881 168.666 52.3216C168.788 52.5455 169.081 52.5373 169.231 52.9926C169.746 54.5581 167.493 56.1758 166.734 57.0642C165.256 58.7922 164.402 60.9804 162.863 62.653C162.167 63.4085 161.476 63.9302 160.512 64.212C159.837 64.4093 159.124 64.1981 158.504 64.8658C158.005 65.4035 158.118 65.7091 157.566 65.9949C156.594 66.499 156.165 66.0569 155.219 67.1463C154.405 64.8682 156.744 64.8719 157.965 63.5988C159.649 61.8413 161.495 60.0682 163.075 58.188C164.478 56.5175 165.041 55.0528 165.707 53.0233C165.917 52.3835 166.145 51.0115 166.724 50.61C167.626 49.9849 167.085 50.9299 167.761 50.9763ZM173.125 110.154C175.986 106.859 179.536 103.901 183.383 101.917C184.758 101.207 186.716 100.276 188.141 101.368C189.538 102.439 189.238 104.575 188.674 106.027C188.134 105.809 188.644 103.767 188.364 103.263C187.753 102.162 186.434 102.747 185.537 103.116C184.486 103.548 183.548 104.025 182.715 104.81C182.377 105.128 181.731 105.413 181.514 105.632C181.189 105.493 180.998 105.594 180.94 105.935C181.007 106.144 180.999 106.35 180.916 106.553C180.868 106.617 180.446 106.353 180.386 106.406C180.111 106.648 179.855 106.932 179.585 107.156C179.044 107.607 178.583 107.82 178.085 108.449C177.122 109.663 175.849 110.375 174.882 111.532C174.663 111.793 174.401 112.464 174.352 112.523C173.864 113.11 173.139 113.575 172.587 114.197C171.634 115.271 170.616 115.992 169.516 116.913C169.042 117.309 168.489 117.736 168.174 118.287C168.031 118.539 167.95 119.917 167.945 119.923C166.866 121.14 167.076 118.693 167.157 118.386C168.033 115.085 170.996 112.606 173.125 110.154ZM167.236 132.477C167.37 132.996 167.481 133.424 167.617 133.95C166.761 133.228 166.761 133.228 167.236 132.477ZM166.312 134.175C165.998 134.501 165.682 134.825 165.363 135.147C164.663 134.386 166.44 134.045 166.312 134.175ZM165.868 121.066C165.533 122.46 164.308 124.149 163.466 125.249C163.558 125.128 162.747 125.372 162.654 125.427C162.354 125.606 163.073 126.765 162.033 126.247C161.664 126.462 162.391 127.337 161.889 127.729C160.441 124.331 164.396 121.387 165.928 118.864C166.677 119.572 166.056 120.284 165.868 121.066ZM156.458 139.438C157.514 139.718 158.064 139.542 158.777 138.474C159.205 137.833 159.362 136.696 160.343 137.656L160.515 136.422C161.915 137.013 161.798 139.149 162.409 140.333C162.707 138.994 163.412 135.253 165.57 135.853C167.993 136.527 163.96 140.816 163.586 141.867C162.762 140.551 163.086 141.775 162.458 141.96C161.919 142.12 161.076 141.711 160.421 141.748C158.428 141.86 156.678 142.783 154.857 143.564C154.396 142.285 153.936 141.006 153.475 139.726C154.547 139.811 156.763 136.874 157.077 139.009C156.283 138.867 156.059 138.903 155.671 139.648C155.919 139.518 156.181 139.449 156.458 139.438ZM160.931 156.136C160.928 156.126 162.993 156.257 163.177 156.188C164.59 155.657 164.068 154.007 164.356 152.841C164.939 153.392 164.63 154.398 164.81 155.112C165.021 155.95 165.631 156.664 165.688 157.561C165.816 159.587 164.201 159.137 162.977 159.793C161.932 160.353 161.816 161.058 160.932 159.548C160.693 159.139 160.179 158.075 160.232 157.552C160.284 157.035 161.08 156.605 160.931 156.136ZM162.595 164.902L162.024 164.244C163.726 164.78 162.722 163.974 163.114 162.872C164.419 163.767 165.484 164.687 166.518 162.895L168.303 170.306C167.104 170.597 165.557 168.69 164.735 168.035C164.26 167.656 161.624 166.198 163.207 165.773C163.003 165.483 162.799 165.192 162.595 164.902ZM174.247 141.629C173.256 142.599 172.258 143.142 171.179 143.905C170.233 144.574 170.559 145.342 169.739 146.089C169.194 146.585 167.917 147.09 167.244 147.469C166.045 148.143 164.971 148.271 163.738 147.517C164.074 150.298 162.223 150.516 159.92 151.067C158.821 151.33 158.171 151.731 157.379 150.695C156.837 149.987 156.625 148.703 157.299 148.055C158.371 147.025 161.225 147.38 162.6 146.732C163.643 146.241 164.705 143.472 165.992 144.48C165.328 143.391 166.102 143.097 166.679 142.321C167.311 141.47 167.7 140.475 168.354 139.631C169.597 138.026 171.506 136.412 173.271 135.445C174.825 134.594 175.64 135.196 175.873 136.984C175.99 137.882 175.986 139.221 175.497 140.018C175.341 140.273 174.827 140.275 174.671 140.514C174.399 140.931 174.648 141.236 174.247 141.629ZM192.477 120.058C193.716 121.045 193.596 123.121 193.791 124.534C194.066 126.526 193.867 128.454 193.837 130.483C193.806 132.609 192.793 133.994 192.316 135.986C191.786 138.203 191.102 139.376 189.913 141.236C191.202 141.445 189.283 145.409 188.967 145.922C188.624 146.479 185.854 149.046 187.041 149.046C186.386 149.935 185.673 150.848 185.021 151.712C184.764 152.053 184.313 152.186 184.111 152.427C183.698 152.915 183.673 153.351 183.378 153.921C182.93 154.786 182.782 154.555 182.193 155.183C181.786 155.616 181.519 156.188 181.12 156.604C179.832 157.942 179.668 156.846 178.948 155.815C178.837 156.091 178.641 156.264 178.36 156.334C178.134 155.168 179.686 153.989 180.339 153.281C181.408 152.119 182.385 150.839 183.33 149.569C185.354 146.847 187.173 143.956 188.608 140.858C190.135 137.562 191.355 133.994 191.988 130.398C192.471 127.657 192.93 122.955 189.372 122.258C186.784 121.751 183.931 123.369 181.798 124.68C180.498 125.478 179.191 126.272 177.952 127.169C176.608 128.143 175.446 129.521 173.987 130.303C174.785 129.875 172.152 131.161 172.555 130.8C172.366 130.969 172.529 131.485 172.404 131.718C172.242 132.021 171.677 132.32 171.424 132.517C170.754 133.034 169.685 133.564 169.38 134.418C165.135 131.3 173.578 125.765 175.742 124.355C180.035 121.559 187.506 116.096 192.477 120.058ZM203.93 89.7336C203.889 87.4884 205.665 84.4233 206.865 82.5923C207.452 81.6961 208.389 81.7318 208.733 80.6749C208.932 80.0662 208.671 79.428 208.73 78.8168C208.81 77.9904 209.158 77.3276 209.56 76.6172C213.191 70.1954 217.602 64.5114 222.301 58.9087C224.618 56.1467 226.815 53.2785 229.313 50.6838C230.357 49.6002 233.163 45.7045 234.768 46.0942C235.617 46.3005 236.112 47.6355 236.496 48.3168C237.13 49.4435 237.828 50.4988 238.598 51.5349C240.633 54.2702 242.98 56.6713 245.752 58.6101C247.483 59.8217 249.232 60.9992 250.925 62.2687C252.318 63.3133 254.424 64.5077 255.419 65.9744C256.415 67.4416 254.953 68.6839 254.154 69.9021C252.913 71.7966 251.771 73.7596 250.524 75.6521C250.029 75.2854 250.157 74.5406 249.817 74.0709C249.516 73.6546 249.09 73.4852 248.674 73.2281C247.877 72.7363 247.094 72.135 246.374 72.959C245.114 74.4011 246.847 77.8099 248.715 77.4358C248.935 78.8591 245.205 81.2031 244.27 81.9865C241.402 84.3892 238.442 86.4781 234.653 86.6955C233.119 86.7833 231.523 86.6635 230.066 86.1353C229.368 85.8822 228.597 85.5348 228.061 84.9831C227.421 84.3228 227.257 83.34 226.636 82.6863C226.097 82.119 225.356 82.0316 224.818 81.4623C224.278 80.8926 224.012 79.9928 223.793 79.2549C223.365 77.8132 223.284 76.2927 222.873 74.8478C222.626 73.9786 222.422 72.8167 221.615 73.6517C220.444 74.865 221.032 78.6798 221.332 80.1334C221.761 82.2072 222.767 83.879 223.821 85.6632C224.964 87.5987 225.386 89.394 225.591 91.6334C225.974 95.8256 227.143 99.8484 228.961 103.62C229.726 105.208 230.643 106.702 231.47 108.253C231.856 108.977 232.721 111.447 233.771 111.434C235.448 111.413 233.059 106.377 232.727 105.532C230.89 100.85 229.134 95.929 228.741 90.8594C231.375 91.5579 234.246 92.2207 236.974 91.7782C235.213 95.8314 237.052 99.8669 236.827 104.039C236.715 106.131 236.633 108.061 236.675 110.147C236.712 111.977 235.91 113.805 235.216 115.459C233.838 118.744 232.104 122.797 229.545 125.313C227.406 127.417 224.544 127.581 221.749 127.097C215.391 125.994 211.213 120.963 208.545 115.249C206.831 111.578 205.52 107.659 204.707 103.672C203.765 99.0585 204.013 94.4134 203.93 89.7336ZM212.187 58.6392C206.253 54.2198 214.876 49.2011 219.264 49.8844C220.294 50.0444 222.188 50.4824 222.092 51.8655C222.013 52.9959 220.181 54.2559 219.478 54.9535C217.473 56.9444 215.432 61.0554 212.187 58.6392ZM255.351 156.838C255.148 156.65 253.487 157.111 254.145 156.099C254.691 155.259 256.207 156.312 256.758 156.528C256.304 156.851 255.909 157.351 255.351 156.838ZM230.644 210.289C230.134 210.354 229.601 208.938 231.44 209.995C231.175 210.093 230.909 210.191 230.644 210.289ZM230.592 233.365C230.655 233.999 230.844 234.417 230.406 234.879C230.036 234.409 229.988 233.747 230.592 233.365ZM231.338 242.899C231.284 243.244 231.23 243.59 231.176 243.935C230.752 243.714 230.328 243.493 229.903 243.271C230.381 243.147 230.86 243.023 231.338 242.899ZM231.858 234.859C232.49 235.103 232.196 234.324 232.655 234.214C232.82 235.025 232.617 235.72 232.165 236.389C232.122 236.23 231.89 234.871 231.858 234.859ZM248.028 177.324C247.14 177.208 247.006 178.173 246.344 178.548C245.917 178.79 244.617 178.608 244.374 179.071C244.694 179.166 245.015 179.262 245.335 179.357C244.602 179.764 243.868 180.171 243.135 180.578C244.899 180.578 246.737 179.711 248.49 179.965C249.23 180.073 249.773 180.331 250.238 180.951C250.52 181.328 250.768 181.933 250.813 182.394C250.862 182.893 250.485 183.238 250.552 183.476C251.341 183.498 251.248 184.831 251.071 185.375C250.686 186.553 249.159 188.398 247.79 187.651C248.363 188.487 248.217 188.965 247.37 189.45C247.447 189.173 247.504 188.69 247.071 188.738C246.96 189.201 247.003 189.936 246.635 190.286C246.223 190.677 245.856 190.22 245.462 190.474C244.996 190.776 245.136 191.25 244.769 191.577C244.284 192.009 244.214 191.702 243.634 191.786C242.756 191.914 243.316 191.352 242.613 192.085C242.369 192.337 242.41 192.995 242.016 193.365C241.258 194.075 239.236 194.815 238.51 193.904C236.764 196.752 231.533 197.435 229.097 195.187C225.213 191.602 232.455 184.311 234.846 182C237.246 179.681 239.912 177.678 242.609 175.744C244.141 174.646 245.714 173.649 247.32 172.67C248.31 172.066 249.554 170.963 250.771 171.069C251.863 171.164 252.796 172.036 253.945 172.209C254.776 172.333 256.391 172.539 255.342 173.7C254.852 174.242 252.926 175.119 252.27 175.251C251.885 175.329 251.479 175.18 251.097 175.261C250.451 175.397 250.007 175.959 249.304 175.887C249.526 176.961 249.12 177.467 248.028 177.324ZM259.522 137.445C259.523 138.285 258.033 138.076 257.722 137.79C257.209 137.321 257.191 135.916 257.001 135.278C257.867 135.502 259.522 136.323 259.522 137.445ZM247.518 109.719C250.648 107.071 253.94 104.643 257.419 102.504C258.665 101.738 260.424 100.194 261.971 100.387C262.62 100.468 263.962 101.235 263.473 102.081C263.382 102.24 262.66 102.303 262.437 102.418C262.184 102.548 261.985 102.907 261.751 103.084C260.125 104.311 258.172 105.066 256.541 106.323C255.201 107.355 253.951 108.51 252.508 109.396C251.124 110.245 249.677 110.783 248.363 111.724C248.389 111.705 246.654 112.348 246.994 112.464C245.471 111.94 247.08 110.09 247.518 109.719ZM268.388 108.733C270.247 107.97 272.066 107.044 274.013 106.532C274.985 106.276 275.982 106.083 276.988 106.198C277.158 105.89 277.386 105.822 277.67 105.994C277.892 106.345 278.185 106.615 278.548 106.803C279.103 107.242 281.145 107.816 280.737 108.785C280.467 109.426 278.42 109.479 277.858 109.623C276.164 110.058 274.585 111.035 272.84 111.275C272.676 111.297 272.141 111.093 272.135 111.094C271.454 111.247 270.888 111.974 270.303 112.323C269.044 113.073 267.235 113.199 266.331 114.494C269.259 116.537 271.799 114.511 274.373 112.968C275.915 112.044 277.57 111.378 279.255 110.786C280.135 110.476 281.024 110.155 281.916 109.883C282.286 109.745 282.665 109.645 283.055 109.584C283.418 109.51 283.677 109.645 283.833 109.992C284.912 109.955 285.005 109.258 285.654 110.558C286.57 112.39 285.169 112.297 283.853 112.522C282.027 112.834 280.17 113.536 278.371 114.002C277.957 114.109 274.318 114.977 274.314 115.008C274.149 116.19 284.591 115.096 285.487 114.918C287.069 114.605 288.765 113.715 290.403 113.93C291.66 114.094 294.525 115.993 292.519 117.255C292.124 115.309 290.769 116.916 290.061 117.573C289.118 118.447 287.768 118.363 286.475 118.705C284.706 119.173 280.18 120.928 278.924 118.691C279.321 120.651 272.105 119.655 271.113 119.59C270.146 119.526 268.898 119.738 267.963 119.454C267.354 119.269 267.015 118.861 266.441 118.769C266.3 118.925 266.132 119.031 265.936 119.088C265.645 118.936 265.382 118.743 265.148 118.51C263.216 117.596 260.226 117.091 261.299 114.178C262.312 111.431 265.931 109.741 268.388 108.733ZM286.5 110.43C286.548 110.259 286.597 110.088 286.644 109.917C286.65 110.442 287.866 110.665 287.725 111.345C287.414 112.85 286.012 110.589 285.891 110.342C286.095 110.372 286.297 110.401 286.5 110.43ZM293.92 112.931C294.061 113.547 295.677 114.86 295.276 115.162C294.639 114.271 292.878 114.676 293.92 112.931ZM266.66 169.18C267.252 167.972 269.04 170.029 268.851 167.966C269.824 168.057 269.217 168.819 270.382 168.484C270.819 168.358 271.114 167.86 271.646 167.745C271.788 167.715 272.402 167.765 272.613 167.758C273.314 167.736 276.061 167.655 274.17 166.709C275.228 165.989 275.359 166.354 276.314 167.014C276.069 165.65 277.474 166.425 278.128 166.595C277.662 165.817 278.82 164.989 279.195 164.463C279.061 165.273 279.132 166.18 280.27 165.662C280.554 165.533 280.49 164.961 280.715 164.867C281.127 164.696 281.358 165.007 281.505 164.99C281.651 164.973 281.957 165.057 282.263 164.939C282.66 164.785 282.468 164.236 282.972 164.154C283.3 164.101 283.539 164.598 283.94 164.602C284.145 164.604 284.489 164.389 284.645 164.4C284.672 164.402 284.868 163.917 285.108 163.905C285.46 163.887 285.603 164.857 285.731 165.045C286.346 165.943 287.164 166.529 288.108 167.008C286.401 168.619 282.957 168.448 280.811 168.991C279.648 169.286 278.657 169.71 277.593 170.257C277.336 170.429 277.115 170.64 276.93 170.89C276.78 170.787 276.629 170.684 276.478 170.581C275.895 170.618 275.344 170.321 274.687 170.435C272.661 170.787 271.074 172.35 269.014 172.698C268.088 172.855 267.327 173.074 266.725 172.248C266.195 171.523 266.283 169.95 266.66 169.18ZM263.881 159.552C264.34 159.952 263.788 161.254 264.677 161.112C265.308 161.012 265.182 160.004 265.678 159.79C266.329 159.51 266.722 160.175 267.334 160.113C268.475 159.998 268.409 158.972 267.445 158.522C268.447 158.25 268.769 159.47 269.656 159.458C270.821 159.444 270.543 158.029 271.535 157.794C271.964 157.692 271.821 158.342 272.1 158.422C272.657 158.584 273.046 158.307 273.539 158.063C273.981 157.845 274.295 157.424 274.777 157.282C274.997 157.217 275.555 157.336 275.716 157.215C276.04 156.971 276.331 156.022 276.651 155.897C276.586 155.922 277.633 156.463 277.784 156.514C277.692 156.914 277.478 156.962 277.144 156.657C277.144 157.561 279.585 157.843 279.085 156.725C280.405 157.288 279.422 157.577 279.29 158.363C279.237 158.679 279.059 158.67 279.112 159.004C279.136 159.158 279.828 159.025 279.819 159.235C279.761 160.585 275.582 161 274.79 161.119C273.151 161.365 271.6 161.78 270.02 162.291C268.843 162.671 266.815 163.76 265.563 163.692C263.763 163.595 263.528 161.177 263.881 159.552ZM259.858 145.778C259.419 144.277 260.827 141.175 262.662 141.563C263.113 141.658 263.224 142.042 263.574 142.213C264.062 142.452 264.857 142.326 265.28 142.573C266.23 143.126 265.751 144.536 266.703 145.045C265.201 145.42 260.556 148.165 259.858 145.778ZM261.596 151.612C262.243 151.254 263.292 151.208 263.734 150.52C263.953 150.676 264.369 151.627 264.763 151.482C264.947 151.414 265.137 150.899 265.124 150.899C265.475 150.889 265.545 150.399 266.082 150.454C266.574 150.505 267.125 151.115 267.564 151.342C267.489 149.831 267.865 149.687 269.055 148.878C269.316 148.7 269.534 148.035 269.775 147.766C269.544 149.352 270.125 149.36 271.355 149.599C272.897 149.897 273.857 150.75 274.475 152.283C273.161 152.019 271.466 152.337 270.948 153.791C269.9 151.818 266.088 154.54 264.855 155.098C263.94 155.512 262.875 156.068 262.108 155.103C261.568 154.424 261.877 153.607 261.889 153.004C261.892 152.814 262.082 152.803 262.064 152.521C262.042 152.161 261.587 152.017 261.596 151.612ZM275.625 182.629C275.278 182.764 273.492 182.84 273.48 182.231C273.471 181.693 276.633 182.235 275.625 182.629ZM272.724 180.658C271.372 181.516 269.86 178.494 269.363 177.623C270.781 177.81 271.473 176.589 272.308 175.662C273.103 177.454 274.309 176.507 275.578 175.908C277.075 175.202 278.715 175.197 280.248 174.631C280.726 174.454 281.168 174.191 281.635 173.989C282.011 173.844 282.386 173.695 282.759 173.543C283.024 173.297 283.118 172.994 283.041 172.635C282.915 172.333 283.001 172.142 283.298 172.063C283.651 172.172 284.011 172.235 284.379 172.252C284.97 172.131 285.819 171.557 285.106 170.939C285.87 170.224 286.636 170.935 287.372 171.248C287.197 170.734 287.023 170.221 286.848 169.708C287.213 169.868 288.296 171.426 288.407 171.418C289.107 171.364 289.034 170.396 289.437 170.006C289.669 170.301 289.736 172.499 290.649 171.759C291.039 171.442 290.199 170.363 289.991 170.118C291.036 170.36 291.948 171.644 292.231 172.641C291.735 172.715 291.276 172.612 290.855 172.332C290.585 173.72 293.081 173.158 293.485 173.883C294.277 175.303 289.13 176.289 288.459 176.42C287.117 176.684 285.533 176.782 284.303 177.394C283.125 177.98 282.846 178.148 281.469 178.258C279.897 178.383 278.363 178.917 276.843 179.332C275.523 179.692 273.894 179.916 272.724 180.658ZM301.451 129.844C302.692 129.384 306.873 126.998 307.937 128.059C307.825 127.947 308.704 129.818 308.695 129.7C308.771 130.673 308.748 131.065 307.584 131.531C306.75 131.865 306.024 131.156 305.275 131.437C304.451 131.747 305.027 132.295 304.603 132.678C304.139 133.097 303.243 133.279 302.665 133.462C301.25 133.912 299.823 134.288 298.415 134.773C295.549 135.76 292.514 136.678 289.569 137.375C287.368 137.897 283.632 139.192 281.604 137.662C281.406 138.532 280.922 138.413 280.25 138.54C279.723 138.639 278.77 138.908 278.302 138.922C277.522 138.945 275.354 138.735 275.652 137.609C275.57 137.919 277.339 136.857 277.033 136.791C277.784 136.954 277.54 136.565 278.155 136.348C278.959 136.066 279.799 136.081 280.619 135.781C282.688 135.027 284.422 134.047 286.605 133.574C291.592 132.494 296.64 131.626 301.451 129.844ZM101.556 246.161C101.152 246.172 100.838 244.99 102.067 245.834C101.897 245.943 101.727 246.051 101.556 246.161ZM91.8464 244.632C91.2969 244.776 91.0778 244.46 91.1898 243.685C91.956 243.373 92.1747 243.689 91.8464 244.632ZM84.3502 243.049C84.2095 242.357 84.7076 242.201 85.159 241.891C85.1136 242.807 85.1136 242.807 84.3502 243.049ZM65.4889 237.358C64.7291 237.186 63.7167 236.421 63.5426 237.706C63.4155 237.408 62.7668 236.01 63.0453 235.686C63.1908 235.517 63.7414 236.3 63.6828 236.222C64.3478 234.838 65.4941 236.509 66.1348 237.003C65.9197 237.122 65.7041 237.24 65.4889 237.358ZM263.041 84.3306C263.303 83.7596 263.612 83.5783 263.968 83.7871C263.409 85.1226 261.517 85.8465 263.041 84.3306ZM276.185 71.7946C276.654 72.699 275.949 73.0812 275.446 73.833C275.74 73.0222 275.944 72.4602 276.185 71.7946ZM333.313 160.078C335.003 160.078 338.603 159.159 339.622 161.148C340.297 159.797 341.063 162.331 341.649 162.738C341.715 162.784 342.136 162.452 342.332 162.574C342.628 162.758 342.883 163.26 343.052 163.558C343.562 164.457 343.782 165.526 344.065 166.515C341.113 166.515 338.086 165.808 335.136 165.551C333.2 165.382 331.302 165.377 329.363 165.484C328.978 165.505 328.213 165.375 327.884 165.449C327.549 165.525 326.942 166.227 326.573 166.114C327.146 167.222 334.489 169.904 335.049 168.677C334.386 168.264 332.911 167.946 332.913 166.947C332.914 165.828 334.296 165.83 335.028 165.863C336.63 165.935 339.312 166.484 339.969 168.198C340.25 168.933 340.336 170.784 340.027 171.493C339.828 171.951 339.49 172.502 338.954 172.595C338.735 172.633 338.418 172.333 338.385 172.34C337.286 172.58 335.252 173.489 334.053 172.208C333.189 173.359 329.026 172.102 327.752 171.667C325.523 170.908 322.454 169.865 321.1 167.724C319.449 165.114 322.805 162.909 324.731 161.848C327.364 160.399 330.373 160.079 333.313 160.078ZM344.561 166.112C345.079 166.262 345.597 166.413 346.115 166.564C345.977 167.499 343.933 166.759 344.561 166.112ZM360.223 200.104C360.383 196.357 359.33 193.058 358.723 189.434C358.572 188.536 358.726 186.965 358.063 186.227C357.43 185.52 356.016 186.094 355.96 184.846C355.337 185.598 355.4 185.755 354.631 184.89C354.771 185.261 354.792 185.638 354.692 186.022C354.215 185.74 352.487 184.806 352.632 186.084C351.211 185.76 351.622 184.845 350.812 184.147C350.697 184.047 350.234 184.4 350.053 184.25C349.727 183.978 349.566 183.731 349.291 183.38C348.942 183.815 348.466 184.129 348.039 184.473C347.791 183.917 347.307 183.508 346.726 183.373C347.27 184.542 348.612 186.058 346.771 186.723C345.671 187.12 343.871 186.633 342.707 186.726C338.392 187.071 333.665 186.102 329.493 185.044C325.207 183.957 320.873 182.423 317.019 180.18C316.197 179.702 315.679 179.136 314.972 178.543C314.284 177.966 313.784 177.875 312.957 177.506C311.469 176.843 310.108 175.778 308.976 174.592C306.542 172.041 304.281 168.705 304.958 164.971C305.634 161.249 308.119 158.34 310.779 155.889C313.92 152.994 317.466 150.577 321.23 148.628C322.913 147.758 327.218 144.485 328.88 146.4C329.943 147.623 329.345 149.184 327.894 149.456C327.535 149.523 327.161 149.276 326.799 149.445C326.277 149.689 326.461 149.978 326.245 150.182C325.871 150.536 325.473 151.088 324.914 151.395C322.963 152.466 321.077 153.314 319.212 154.619C318.352 155.219 317.525 155.478 316.767 156.003C316.013 156.524 315.842 157.387 314.828 156.854C315.189 158.372 313.021 159.997 312.172 160.927C310.856 162.366 309.278 164.204 309.892 166.334C311.094 170.504 316.525 173.67 320.001 175.503C324.338 177.79 329.121 179.611 333.951 180.365C336.352 180.739 338.833 180.97 341.252 181.208C343.136 181.393 346.026 180.716 347.381 182.462C347.423 180.426 353.6 180.605 354.915 180.345C352.279 171.069 347.103 162.822 341.569 155.117C338.854 151.335 336.187 147.445 333.091 143.977C329.702 140.181 325.83 136.789 322.151 133.296C314.936 126.445 306.775 120.331 298.47 114.945C290.185 109.571 281.605 104.283 272.528 100.451C262.161 96.0758 251.247 93.1977 240.321 90.7466C241.803 88.8025 244.214 87.8542 246.111 86.4318C246.776 85.9339 247.674 84.7387 248.537 84.5754C249.472 84.3982 250.208 85.4335 250.873 85.9531C252.783 87.4445 254.104 86.8112 256.291 86.7214C257.6 86.6676 260.699 87.4178 261.251 85.5955C261.985 86.6012 260.921 87.4076 260.376 88.145C260.773 88.7143 261.092 88.1237 261.484 88.0347C261.605 87.9317 261.725 87.8284 261.846 87.7254C262.04 87.4359 262.215 87.4342 262.371 87.7197C262.605 88.0814 262.84 88.0015 263.077 87.4793C263.141 87.4375 263.206 87.3953 263.271 87.3534C263.554 87.1984 263.827 86.9531 264.09 86.7599C266.078 85.2977 267.849 84.0521 270.043 82.975C271.886 82.071 270.895 80.3414 272.11 79.1199C272.385 78.8435 272.847 78.9821 273.141 78.7479C273.429 78.5178 273.473 78.257 273.682 78.0105C274.187 77.4178 273.586 76.73 274.874 77.4555L274.41 74.7645C276.935 77.2861 276.925 70.0297 277.27 68.9559C277.224 69.0978 277.496 67.999 277.496 68.0084C277.57 65.8309 277.859 64.2526 275.381 64.1263C276.319 63.5188 276.606 64.705 277.039 63.477C277.256 62.8618 276.579 61.8044 277.658 62.201C277.886 60.8934 277.661 59.8352 277.378 58.5646C277.088 57.264 277.258 56.3961 277.272 55.0955C277.286 53.6201 276.615 52.1374 276.401 50.6846C276.232 49.5469 276.406 47.7524 274.977 48.1704C274.776 47.8468 275.482 46.8513 275.453 46.3591C275.409 45.5946 274.602 44.8178 274.374 44.0836C274.038 44.4404 273.565 44.5594 273.108 44.3982C273.537 43.4007 273.134 43.0656 272.723 42.2055C272.488 41.7129 272.63 41.169 272.126 40.8159C271.837 40.6132 271.345 40.9545 271.119 40.717C270.633 40.2084 270.813 39.5337 270.479 38.8635C270.06 38.0231 269.103 37.3812 268.444 36.7504C264.738 33.2046 260.713 30.4947 255.784 29.1092C250.811 27.7114 245.013 27.2106 240.057 28.8229C238.076 29.4673 236.317 29.4012 234.534 30.6046C233.956 30.9951 233.894 30.8905 233.6 31.5414C233.533 31.6932 234.148 32.0972 233.771 32.3453C233.362 32.6148 232.91 32.0668 232.701 31.612C230.121 33.534 227.704 36.0962 226.235 39.0341C224.775 41.9536 224.642 45.3834 224.084 48.5559C221.513 45.5322 218.036 44.0828 214.255 45.5364C210.959 46.8029 208.406 49.5871 207.761 53.194C207.368 55.3928 207.797 57.6196 208.767 59.6035C209.187 60.4607 209.695 61.4098 210.466 61.9869C211.076 62.443 212.121 62.379 212.408 63.2018C212.849 64.4622 210.306 67.1844 209.646 68.2877C208.452 70.2844 207.342 72.3462 206.497 74.527C203.469 70.1232 200.57 65.3133 197.126 61.2527C193.876 57.4202 190.001 53.9831 186.202 50.7437C178.315 44.0204 170.114 37.704 161.292 32.3478C153.077 27.3603 143.155 24.5913 133.581 25.5704C124.227 26.5273 117.065 32.6173 111.039 39.6412C99.4518 53.1464 92.3548 72.3954 91.6615 90.373C91.4531 95.7735 91.8528 101.104 93.1485 106.342C93.7657 108.836 93.676 111.289 94.0346 113.815C94.4394 116.665 95.1395 119.504 95.8164 122.296C98.3951 132.93 101.681 143.556 105.367 153.838C107.284 159.184 109.604 164.412 112.741 169.126C114.19 171.304 116.068 173.008 117.627 175.076C119.14 177.082 119.54 179.543 119.872 182.004C120.67 187.905 121.199 193.831 121.679 199.767C121.883 202.282 122.12 204.775 122.444 207.273C122.726 209.451 122.016 209.344 120.237 210.084C120.598 208.127 112.094 209.458 111.291 209.592C110.418 209.737 109.492 209.739 108.804 209.855C108.035 209.984 107.282 210.17 106.396 210.144C105.093 210.105 102.654 209.763 102.157 211.474C101.815 209.49 99.5542 211.66 101.227 211.292C99.5099 211.489 97.758 211.16 96.0204 211.327C94.029 211.517 92.0205 211.698 90.0431 212.007C88.6665 212.221 87.3528 212.767 85.9738 212.926C84.2091 213.129 82.3676 213.11 80.5857 213.271C74.0135 213.868 67.2014 215.344 60.8129 217.034C59.3658 217.416 57.7031 217.688 56.3205 218.303C55.9504 218.467 55.6173 218.834 55.2627 218.975C54.6682 219.212 54.7495 219.048 54.2215 219.157C51.0583 219.808 47.7951 220.871 44.6323 221.705C42.878 222.168 40.0244 222.586 38.5932 223.846C37.9517 224.41 37.3911 225.412 38.4191 226.053C39.2403 226.565 40.4125 225.747 41.0771 225.305C40.485 226.894 39.3682 227.686 39.9714 229.493C40.4476 230.921 41.5225 232.681 43.1764 231.76C43.398 232.29 43.4876 233.345 44.1399 233.54C44.726 233.715 45.1503 232.95 45.7245 233.13C45.93 233.195 45.852 233.595 46.036 233.699C46.3532 233.879 46.6747 233.955 47.0381 234.082C47.3505 234.191 47.8533 234.415 48.1792 234.439C48.386 234.454 48.8733 234.09 48.8717 234.09C49.3467 234.164 49.6021 235.099 49.9439 235.37C50.3878 235.721 50.7543 235.801 51.3102 235.928C52.4656 236.192 53.955 236.645 54.7176 235.427C54.5431 236.297 55.6918 236.211 56.1986 236.322C56.1424 235.864 55.8966 235.444 55.5173 235.193C56.6504 235.27 56.191 236.429 57.0285 236.736C57.6254 236.953 57.5577 236.4 58.0143 236.338C58.6159 236.257 59.0725 236.707 60.012 236.292C60.2156 237.224 60.2901 238.163 61.4014 238.302C62.0536 238.384 63.5745 237.171 63.4884 238.18C64.9455 237.74 65.4985 238.038 66.2599 239.36C66.3886 238.548 67.0114 238.784 67.5827 238.733C68.4884 238.654 68.5115 238.729 69.2135 238.201C69.2777 238.153 69.8299 236.851 70.0754 237.66C70.1857 238.023 69.4562 238.876 69.1861 239.093C69.5215 239.267 70.6208 239.879 71.0436 239.767C71.4093 239.669 71.4105 239.026 71.85 238.993C71.7424 239.363 71.6352 239.733 71.5273 240.103C72.3823 240.231 73.0967 239.642 73.7721 239.21C74.4159 240.886 76.2563 239.942 77.2572 241.203C77.7867 241.871 77.8114 242.378 78.8203 242.552C79.8526 242.73 80.7543 242.264 81.6316 243.141C81.3535 242.597 80.6607 242.146 81.3492 241.561C81.8177 242.246 82.0596 243.07 82.5998 243.707C82.6744 243.383 82.7489 243.059 82.8234 242.735C84.2318 244.286 86.0049 244.3 87.809 245.159V244.024C89.1008 246.054 89.1697 244.77 90.7128 243.941C90.608 244.538 90.5029 245.134 90.3981 245.731C91.5085 245.645 92.546 246.999 93.4577 245.848C94.0083 246.799 94.6757 246.331 95.5782 246.633C96.0913 246.805 96.4734 247.325 96.9727 247.513C97.7213 247.795 97.9449 247.782 98.6497 248.028C99.2764 248.246 99.6327 248.671 100.417 248.807C100.927 248.896 101.389 248.889 101.877 248.865C102.065 248.856 102.003 248.419 102.422 248.521C103.069 248.679 103.551 249.515 104.017 249.943C104.719 248.129 106.682 250.56 107.631 250.883C107.722 250.418 107.706 249.857 108.033 249.475C108.417 250.341 108.564 251.069 109.361 251.627C109.821 251.949 110.497 252.18 111.028 252.297C111.364 252.372 111.975 252.283 112.186 252.389C112.546 252.571 112.679 253.056 113.042 253.102C113.256 253.128 113.574 252.549 113.734 252.594C114.467 252.8 114.874 253.716 115.614 254.212C117.817 255.688 120.59 255.831 123.044 256.154C123.66 256.235 123.749 256.062 124.25 256.434C124.517 256.633 124.396 257.238 124.724 257.407C125.961 258.045 125.962 256.684 126.221 255.837C126.63 256.393 126.701 257.127 127.261 257.569C127.566 257.56 127.872 257.567 128.178 257.59C128.35 257.793 128.463 258.026 128.515 258.291C129.256 258.806 130.096 258.626 130.861 259.013C131.112 259.14 131.557 259.907 131.866 260.127C132.42 260.521 133.276 260.732 133.908 260.904C135.234 261.263 137.135 260.786 137.924 262.211C138.972 261.055 138.566 262.435 139.278 262.725C139.698 262.896 140.329 262.216 140.795 262.283C141.634 262.405 141.936 263.34 142.204 264.019C142.715 263.902 142.364 262.414 142.35 262.088C142.985 262.011 143.126 263.732 143.235 264.11C144.237 263.613 142.593 262.067 143.67 261.571C143.571 262.888 144.591 263.973 142.77 264.161C143.021 264.955 148.894 265.836 149.302 265.136C149.393 266.43 150.237 265.221 150.549 264.778C150.584 265.533 150.334 266.605 151.157 266.956C151.717 267.194 152.978 266.578 153.198 266.013C153.448 266.876 153.868 266.848 154.39 267.395C154.749 267.771 154.985 268.423 155.361 268.738C156.053 269.318 157.341 269.229 158.147 269.1C159.725 268.846 159.539 268.535 160.101 270.223C160.228 269.583 160.626 268.243 161.321 269.239C161.763 269.872 160.822 271.267 160.55 271.822C161.158 271.479 161.761 271.071 162.453 270.923C162.492 271.142 162.527 271.608 162.425 271.811C162.446 271.77 163.184 272.279 163.458 272.42C163.392 272.386 163.674 271.118 163.666 271.16C164.639 271.778 163.964 272.961 164.826 273.57C165.049 273.728 165.572 273.544 165.841 273.64C166.31 273.808 166.716 274.26 167.132 274.525C166.8 274.065 166.847 273.294 166.87 272.764C167.082 272.884 167.234 273.335 167.448 273.371C167.528 273.385 168.367 273.499 168.362 273.495C169.234 274.124 169.055 274.203 168.305 274.96C168.573 275.393 169.692 274.641 169.995 274.515C170.058 274.685 170.075 275.3 170.194 275.41C170.266 275.592 170.339 275.774 170.411 275.956C170.635 275.785 170.874 275.727 171.13 275.785C171.292 275.842 172.555 276.371 172.64 276.19C172.364 276.098 172.114 275.957 171.89 275.767C172.618 275.093 173.098 274.735 173.769 275.708C173.854 275.831 173.563 276.271 173.649 276.431C173.97 277.027 174.629 277.501 175.076 277.986C175.262 277.316 174.831 275.639 175.859 275.7C176.681 275.748 177.306 277.798 177.022 278.436C177.349 278.068 179.299 277.702 179.668 277.817C180.709 278.142 180.417 279.133 181.698 277.681C182.571 278.302 181.801 278.537 181.959 279.293C182.189 279.343 182.408 279.284 182.614 279.117C182.46 282.331 184.764 279.875 186.26 280.366C186.847 280.559 186.998 281.245 187.628 281.446C187.961 281.552 188.332 281.301 188.657 281.362C188.917 281.324 189.175 281.277 189.431 281.221C189.756 281.053 189.909 281.24 189.889 281.783C190.412 282.062 190.214 282.171 190.825 282.226C191.219 282.261 191.581 281.839 192.029 281.911C192.8 282.036 192.698 282.646 193.192 282.964C193.636 283.251 194.136 283.242 194.683 283.187C194.961 283.158 195.743 282.789 195.837 282.788C196.421 282.779 196.105 282.651 196.806 283.168C197.352 283.571 197.581 283.831 198.251 284.017C199.02 284.229 200.383 284.693 200.9 284.121C201.599 285.199 202.146 284.408 203.068 284.479C203.54 284.516 203.614 284.705 204.034 284.78C204.715 284.903 205.564 284.797 206.288 285.036C207.429 285.413 207.557 285.603 208.723 285.654C208.934 285.569 209.144 285.484 209.354 285.4C209.417 285.761 209.582 286.056 209.85 286.285C210.503 286.425 210.931 286.086 211.469 285.715C211.87 287 213.17 287.113 214.283 287.282C216.078 287.554 217.794 287.703 219.525 288.311C220.987 288.823 222.451 289.399 223.857 290.056C225.095 290.634 226.263 291.498 227.663 291.092C230.835 290.173 233.91 286.821 236.564 284.896C239.707 282.616 243.098 280.738 246.382 278.688C259.459 270.528 273.274 263.626 286.168 255.163C293.207 250.542 299.738 245.052 307.298 241.314C306.222 245.892 304.39 250.539 304.721 255.332C304.854 257.263 305.406 259.545 306.862 260.893C308.661 262.56 310.664 261.499 312.385 260.308C316.071 257.756 318.53 254.033 321.289 250.537C324.553 246.401 327.084 241.957 329.48 237.243C330.055 238.073 329.618 239.463 329.626 240.383C329.637 241.557 329.945 242.688 330.474 243.736C331.839 246.44 334.437 247.096 336.784 245.243C341.301 241.677 343.923 235.325 346.344 230.211C347.724 232.855 349.684 236.183 352.999 234.294C355.735 232.736 357.342 229.254 358.179 226.305C360.622 217.697 359.848 208.928 360.223 200.104Z" fill="#2D4710"/>
<path fill-rule="evenodd" clip-rule="evenodd" d="M356.074 148.397C355.763 147.616 355.625 147.744 356.199 146.988C356.646 147.441 356.288 147.815 356.074 148.397ZM369.9 195.611C369.023 193.043 369.565 190.255 369.032 187.621C368.787 186.413 368.401 185.241 368.262 184.011C368.201 183.465 367.728 181.008 368.05 180.621C367.06 180.004 367.057 179.548 366.828 178.338C367.181 177.953 367.137 177.624 366.695 177.352C366.407 176.992 366.118 176.633 365.829 176.273C367.092 176.909 366.345 175.282 366.216 174.345C366.114 173.604 366.045 172.832 365.806 172.122C365.51 171.249 364.854 170.807 366.22 170.807C365.77 170.281 365.098 169.738 364.874 169.094C364.552 168.166 365.083 166.941 364.427 166.122C364.06 165.665 362.173 165.486 362.504 164.499C362.673 163.996 363.438 164.372 363.674 164.019C364.605 162.635 361.858 162.061 361.723 161.472C361.549 160.708 362.541 160.538 362.602 159.824C362.661 159.125 361.606 157.976 361.327 157.351C360.947 157.446 360.53 158.065 360.095 157.769C360.012 157.714 360.136 155.294 360.037 154.973C359.94 154.657 359.741 153.82 359.67 153.665C359.389 153.049 358.583 152.749 358.455 152.022C358.378 151.588 360.03 150.931 358.136 150.91C358.816 149.676 357.569 148.926 357.116 147.871C356.532 146.514 356.188 145.049 355.589 143.686C355.007 142.361 354.355 141.103 353.515 139.931C352.755 138.87 352.426 137.85 351.819 136.729C351.697 136.631 351.576 136.532 351.454 136.434C350.947 136.509 350.785 136.272 350.967 135.721C350.579 135.13 350.291 134.499 349.949 133.882C349.552 133.165 349.016 132.58 348.605 131.882C348.061 130.957 347.9 129.914 347.284 128.986C346.528 127.845 345.676 126.838 344.975 125.654C344.096 124.171 343.122 123.249 342.016 122.1C341.49 121.553 341.427 120.186 340.782 119.409C340.079 118.563 339.386 118.334 338.899 117.223C338.265 115.778 337.336 115.088 336.431 113.839C335.684 112.809 335.319 111.625 334.497 110.628C333.79 109.772 332.987 108.99 332.232 108.178C331.279 107.153 330.575 105.908 329.583 104.933C329.726 105.074 328.72 104.253 328.77 104.279C328.548 104.162 327.829 104.068 327.934 104.132C326.436 103.226 324.56 99.9095 322.307 101.667C321.122 102.591 321.69 104.285 322.518 105.206C322.873 105.601 324.72 107.55 325.119 106.728C325.549 107.357 326.876 110.394 327.979 109.524C327.867 110.562 328.451 110.218 328.836 110.919C329.09 111.382 328.967 111.61 329.152 112.332C329.66 114.319 331.602 116.26 332.636 117.992C335.209 122.304 338.048 126.394 340.624 130.711C343.079 134.825 345.828 138.729 348.183 142.898C350.862 147.64 354.199 152.115 356.217 157.227C356.285 157.399 356.846 157.671 356.985 157.929C357.228 158.377 357.175 159.152 357.332 159.66C357.873 161.42 358.751 163.153 359.751 164.611C360.628 165.891 360.692 167.629 361.296 169.13C362.147 171.245 363.046 173.338 363.874 175.464C365.161 178.773 366.033 181.944 366.923 185.398C367.499 187.637 367.958 189.874 368.142 192.186C368.311 194.312 368.352 196.526 369.116 198.539C369.637 197.71 370.251 196.637 369.9 195.611Z" fill="#2D4710"/>
<path fill-rule="evenodd" clip-rule="evenodd" d="M75.4001 241.164C74.4749 240.971 73.6043 240.715 73.4083 239.621C73.274 240.137 73.1401 240.652 73.0059 241.168C74.1322 241.43 75.259 241.693 76.3854 241.956C76.1224 241.479 75.9304 241.274 75.4001 241.164Z" fill="#2D4710"/>
<path fill-rule="evenodd" clip-rule="evenodd" d="M77.8824 61.7035C77.9525 61.3951 78.0433 61.0928 78.1553 60.7979C78.2314 61.0854 78.6043 61.7072 78.3872 61.9783C78.1107 62.3225 77.831 62.1276 77.8824 61.7035ZM82.4178 52.8204C82.7214 52.9582 83.3784 52.9848 83.7553 53.1013C82.7776 53.9672 82.6055 53.7125 81.3412 53.612C81.285 52.7359 81.6309 52.4639 82.4178 52.8204ZM73.9426 74.5086C74.0737 74.5123 74.2052 74.5156 74.3371 74.5189C74.345 74.1374 74.3355 73.7564 74.3076 73.3758C75.6408 73.6756 74.8861 71.2774 74.4674 70.7803C75.7679 70.825 76.4014 66.5864 76.8134 65.7698C77.1791 65.0447 77.5935 64.7641 77.8609 63.8798C78.0947 63.1059 78.3477 62.4094 78.6852 61.6773C79.4606 59.994 80.4778 58.4653 80.2901 56.5036C80.9472 57.9756 81.5249 56.506 81.9417 55.8022C82.613 54.6681 84.251 53.2211 84.4251 51.8741C84.5789 50.6884 83.7231 50.6256 84.2283 49.526C84.7391 48.4128 85.159 48.5244 86.0539 48.1684C86.6492 47.9313 86.7675 48.2192 87.1875 47.4457C87.4596 46.9449 87.3636 46.5716 87.7122 46.1611C87.8561 46.2899 88.0198 46.3432 88.2031 46.321C88.486 45.9367 88.6717 45.5085 88.7597 45.0364C88.9904 44.399 89.102 43.8137 89.4494 43.2067C89.7789 42.6317 90.3638 41.0932 90.6738 40.8159C91.0029 40.5214 92.8696 40.6711 92.8616 40.6818C93.6326 39.6835 92.2178 38.6888 94.1769 38.8993C93.79 38.1577 95.1491 37.2373 95.5435 36.8247C96.5289 35.7948 96.6073 35.3182 96.8153 34.0229C96.9209 33.3626 96.2316 33.4388 97.1556 33.2883C97.5377 33.2264 97.9043 33.7292 98.18 33.6554C99.3972 33.3306 98.1238 33.3925 98.4597 32.8819C98.5657 32.7198 99.1071 32.0661 99.102 32.073C99.0757 32.1058 99.2239 31.5041 99.3466 31.3495C99.5793 31.329 99.8084 31.2872 100.034 31.224C100.148 30.9861 100.249 30.7425 100.337 30.4931C101.218 29.7368 102.536 29.3984 103.145 28.5674C103.539 28.0301 103.421 27.5039 103.93 26.9682C104.415 26.458 105.057 26.8275 105.153 25.675C105.275 24.2087 103.745 23.5561 103.119 25.036C101.422 22.8839 94.3271 30.7798 93.5075 31.8113C89.9475 36.2894 86.4484 40.8783 83.5282 45.8301C80.683 50.6552 78.3477 55.7321 76.5225 61.0538C75.6424 63.6198 75.1065 66.1742 74.569 68.8284C74.3885 69.7172 73.0398 73.678 73.6012 74.5644C73.7147 74.5459 73.8287 74.5271 73.9426 74.5086Z" fill="#2D4710"/>
<path fill-rule="evenodd" clip-rule="evenodd" d="M354.166 184.324C354.765 183.912 354.765 183.912 354.871 183.134C354.067 183.285 354.067 183.285 354.166 184.324Z" fill="#2D4710"/>
<path fill-rule="evenodd" clip-rule="evenodd" d="M58.5901 236.67C58.5977 236.669 58.6033 236.671 58.6077 236.676C58.5949 236.659 58.5487 236.609 58.5901 236.67Z" fill="#2D4710"/>
<path fill-rule="evenodd" clip-rule="evenodd" d="M58.1878 237.088C58.3731 237.5 58.6707 237.602 59.0811 237.394C59.2429 237.632 57.6778 235.91 58.1878 237.088Z" fill="#2D4710"/>
<path fill-rule="evenodd" clip-rule="evenodd" d="M85.2521 48.9512C84.3129 50.8465 85.4892 49.468 85.429 50.0836C85.4684 49.6792 85.6314 49.1029 85.2521 48.9512Z" fill="#2D4710"/>
<path fill-rule="evenodd" clip-rule="evenodd" d="M237.93 78.2857C238.337 81.6842 242.853 80.0768 243.869 78.0211C244.609 76.5244 246.478 70.6104 244.467 69.3611C242.977 68.4349 242.659 72.4266 242.292 73.3183C241.676 74.8116 241.195 73.7534 239.826 74.1365C238.316 74.5594 237.762 76.8764 237.93 78.2857Z" fill="#2D4710"/>
<path fill-rule="evenodd" clip-rule="evenodd" d="M232.995 72.0648C234.609 72.434 236.192 72.2436 237.339 70.9311C237.974 70.2044 238.819 68.7627 237.675 68.0592C236.639 67.4223 235.464 68.914 234.373 68.6056C232.889 68.186 233.653 66.5478 233.144 65.4658C231.273 66.5749 230.229 71.4324 232.995 72.0648Z" fill="#2D4710"/>
<path fill-rule="evenodd" clip-rule="evenodd" d="M234.669 80.6465C233.113 80.6432 233.1 82.6136 233.912 83.4581C234.69 84.2661 236.655 85.084 237.709 84.4556C239.788 83.2153 235.928 80.7745 234.669 80.6465Z" fill="#2D4710"/>
<path fill-rule="evenodd" clip-rule="evenodd" d="M144.116 159.002C144.449 159.168 145.428 160.023 145.841 159.637C145.258 159.033 144.675 158.428 144.093 157.824C143.771 158.188 143.55 158.719 144.116 159.002Z" fill="#2D4710"/>
<path fill-rule="evenodd" clip-rule="evenodd" d="M136.762 72.5566C136.596 72.6838 136.43 72.8105 136.265 72.9373C136.823 73.4159 136.809 73.5582 137.372 73.105C137.205 72.8786 137.002 72.6961 136.762 72.5566Z" fill="#2D4710"/>
<path fill-rule="evenodd" clip-rule="evenodd" d="M242.24 185.315C241.927 184.737 241.336 185.803 240.937 185.977C240.286 186.258 239.753 184.765 239.939 186.555C238.469 185.862 237.577 187.452 236.629 188.279C235.29 189.449 233.652 190.084 232.759 191.745C236.964 192.757 241.584 189.026 244.719 186.575C245.231 186.174 247.788 184.155 246.055 183.96C245.346 183.88 242.766 186.287 242.24 185.315Z" fill="#2D4710"/>
<path fill-rule="evenodd" clip-rule="evenodd" d="M240.993 181.811C241.817 181.143 240.04 181.082 239.759 181.012C239.784 181.543 239.807 182.074 239.831 182.605C240.229 182.357 240.616 182.092 240.993 181.811Z" fill="#2D4710"/>
<path fill-rule="evenodd" clip-rule="evenodd" d="M237.899 184.038C238.145 183.88 238.831 183.386 238.364 183.018C237.942 183.294 237.641 183.745 237.575 184.26C237.683 184.186 237.791 184.112 237.899 184.038Z" fill="#2D4710"/>
<path fill-rule="evenodd" clip-rule="evenodd" d="M169.801 140.969C169.275 141.181 169.039 141.517 169.094 141.977C169.903 141.807 169.749 141.021 169.801 140.969Z" fill="#2D4710"/>
</svg>
