<?xml version="1.0" encoding="UTF-8" standalone="no"?><svg width="434" height="766" viewBox="0 0 434 766" fill="none" xmlns="http://www.w3.org/2000/svg">
<g clip-path="url(#clip0_278_3189)">
<path fill-rule="evenodd" clip-rule="evenodd" d="M529.11 478.053C537.2 486.872 542.512 499.526 542.045 510.86C541.744 518.18 536.453 527.602 528.727 524.587C525.271 523.238 519.503 515.151 516.348 511.643C513.446 508.417 508.214 502.362 507.034 498.936C505.315 493.944 512.77 491.054 515.751 488.824C520.325 485.4 524.684 481.683 529.11 478.053ZM596.787 446.118C599.64 448.601 602.536 449.67 605.239 452.691C607.004 454.663 608.583 456.75 610.093 458.947C611.923 461.608 612.018 461.412 611.293 463.561C610.186 466.843 604.346 469.984 601.94 472.13C598.801 474.93 595.755 477.853 592.613 480.652C590.988 475.808 587.852 471.387 586.207 466.439C584.609 461.632 583.687 456.51 583.797 451.745C583.878 448.2 584.384 443.719 587.235 442.064C590.911 439.931 593.679 443.413 596.787 446.118ZM316.661 482.845C322.549 491.853 327.22 502.363 327.754 512.697C327.98 517.074 326.524 520.331 326.168 524.415C325.755 529.142 326.875 534.051 323.992 537.623C322.132 539.929 318.953 540.894 316.704 542.741C312.971 545.807 311.317 545.748 306.23 544.947C302.576 544.372 299.906 546.402 296.004 545.71C291.326 544.881 286.412 542.693 281.7 541.418C292.351 521.004 304.44 501.892 316.661 482.845ZM365.054 462.465C373.762 462.738 381.038 467.545 387.874 475.213C373.154 490.696 359.588 507.092 346.337 524.409C341.927 505.416 338.899 487.446 347.908 472.276C349.705 469.249 351.066 465.29 354.125 463.614C357.171 461.944 361.48 462.353 365.054 462.465ZM540.812 393.683C553.574 394.739 560.454 417.536 562.375 428.306C556.061 426.723 549.609 425.354 543.45 423.819C536.718 422.141 529.74 419.015 523.056 416.539C524.335 413.905 524.395 410.848 525.409 408.096C526.414 405.371 528.264 404.158 530.065 402.286C533.514 398.701 534.807 393.185 540.812 393.683ZM443.396 389.24C444.828 390.047 446.363 390.702 447.773 391.567C451.197 393.667 454.424 395.948 457.988 397.675C464.302 400.734 473.097 404.496 478.986 401.731L480.379 403.783C478.688 404.679 476.636 403.373 475.088 404.008C473.873 404.507 472.938 406.542 471.46 407.176C466.893 409.137 462.521 411.267 458.257 413.91C449.842 419.126 442.428 425.751 434.805 432.012C432.113 423.574 430.713 414.154 432.629 406.38C433.291 403.693 433.511 400.394 434.589 397.937C435.238 396.458 436.394 395.711 437.181 394.395C438.09 392.872 438.372 389.37 439.62 388.335C440.924 387.253 441.437 388.136 443.396 389.24ZM512.591 350.51C519.803 352.658 526.7 356.674 533.656 360.23C539.952 363.448 548.695 368.177 553.677 374.11C549.827 381.173 537.713 383.666 530.004 379.099C520.496 373.466 516.162 360.527 512.591 350.51ZM394.05 382.616C397.654 390.964 399.776 401.349 398.803 409.68C398.385 413.273 398.636 417.5 397.781 420.921C396.666 425.388 393.592 425.187 390.637 427.474C387.463 429.93 386.913 434.153 382.78 435.459C379.836 436.39 376.338 435.876 373.548 436.711C370.5 437.621 368.367 439.338 364.698 439.129C360.16 438.871 355.098 436.148 350.686 434.406C351.237 432.23 353.911 430.565 355.209 428.816C356.922 426.506 358.637 424.207 360.387 421.931C364.001 417.232 367.579 412.498 371.222 407.827C378.16 398.93 385.711 389.928 394.05 382.616Z" fill="#4D7520"/>
<path fill-rule="evenodd" clip-rule="evenodd" d="M425.338 107.629L426.53 110.398C429.797 109.392 428.574 107.059 425.338 107.629ZM410.181 110.36C408.225 110.542 406.282 113.032 408.889 114.755C412.57 117.19 410.796 112.275 410.181 110.36ZM339.348 276.735C339.407 276.297 332.724 271.003 331.709 270.054C330.692 272.395 330.389 272.144 332.38 273.943C334.098 275.495 337.381 276.189 339.348 276.735ZM178.323 371.481C177.419 371.87 175.354 372.176 174.855 372.973C174.158 374.088 175.143 375.181 176.063 377.07C178.902 375.207 179.605 375.481 178.323 371.481ZM172.349 369.894C173.98 369.408 175.61 368.922 177.24 368.437C176.315 366.108 175.088 362.083 172.802 365.119C172.587 365.404 172.313 368.985 172.349 369.894ZM344.201 277.327C343.81 280.189 353.313 280.328 353.274 278.562C353.187 274.71 345.485 277.176 344.201 277.327ZM365.852 233.747C366.647 233.146 367.442 232.544 368.237 231.942C367.003 230.475 362.643 224.959 360.951 226.359C359.27 227.749 364.856 232.623 365.852 233.747ZM374.625 241.804C373.87 240.43 372.569 237.172 371.413 236.096C370.626 235.364 367.94 233.313 367.311 236.006C367.177 236.579 370.136 242.114 370.343 242.23C371.213 242.715 373.827 241.883 374.625 241.804ZM375.755 264.345C372.985 263.593 367.666 263.19 368.251 268.143C369.065 275.047 375.065 266.684 375.755 264.345ZM365.95 270.576C363.962 272.468 361.582 273.733 359.118 274.86C356.357 276.122 355.135 275.431 356.253 279.154C359.831 278.876 366.353 276.368 368.474 273.468C367.633 272.503 366.791 271.539 365.95 270.576ZM371.902 247.141C372.335 249.775 372.209 253.622 373.033 256.156C373.641 258.024 373.027 257.268 374.06 258.396C374.428 258.799 376.961 259.918 377.478 260.242C378.227 257.54 379.311 254.596 378.686 251.452C377.685 246.418 375.668 247.124 371.902 247.141ZM327.464 260.796C322.953 266.558 317.071 273.039 310.437 275.893C310.754 276.637 323.718 274.596 324.822 273.575C325.951 272.531 324.698 270.103 325.531 267.946C326.45 265.568 328.343 265.586 330.117 264.281C329.233 263.119 328.348 261.957 327.464 260.796ZM365.286 281.932C359.613 284.58 353.808 285.66 347.174 285.182C343.364 284.909 339.851 283.358 336.239 281.316C333.442 279.734 333.846 279.764 331.145 280.232C329.149 280.578 327.257 281.985 325.401 282.678C319.188 284.998 312.239 285.989 305.496 286.741C297.929 287.585 290.585 286.869 284.051 290.9C272.832 297.821 270.04 314.445 255.393 316.525C249.581 317.351 243.248 317.656 237.106 315.807C229.119 313.402 224.313 312.019 218.367 317.898C213.579 322.631 211.488 329.025 208.716 335.401C205.557 342.669 200.951 348.577 196.047 354.269C194.125 356.498 192.178 358.271 189.75 359.882C188.305 360.84 180.381 363.5 180.074 365.003C179.778 366.456 183.212 373.348 184 374.513C185.315 376.457 184.749 377.06 186.899 376.964C188.392 376.898 191.607 374.259 193.158 373.653C205.635 368.785 217.706 362.553 230.499 358.664C242.523 355.009 254.319 350.867 266.464 347.7C282.263 343.581 297.158 337.299 312.897 333.059C320.505 331.009 328.576 329.637 336.171 327.744C343.087 326.021 349.961 324.16 356.82 322.258C355.985 321.309 352.498 318.104 354.69 317.328C356.079 316.836 361.445 321.307 362.841 322.205C369.266 326.339 375.078 328.943 381.916 331.245C388.808 333.566 395.7 335.821 402.605 338.018C408.246 339.813 418.939 341.184 422.532 347.902C420.718 349.64 413.712 347.147 411.368 346.727C406.624 345.875 401.875 344.708 397.136 343.364C397.405 350.351 407.639 352.768 411.31 357.421C409.601 358.412 403.208 353.885 401.232 352.847C400.398 357.796 398.998 362.541 399.432 367.908C421.008 353.897 445.367 387.947 468.474 390.982C473.593 391.655 478.702 390.218 482.094 386.691C485.629 383.018 488.705 378.928 490.643 373.653C494.972 361.871 493.372 344.906 490.013 331.473C488.157 324.055 486.315 316.896 483.282 309.709C479.923 301.752 474.741 294.676 469.759 287.683C460.882 275.222 447.872 264.962 434.853 259.87C429.018 257.588 423.171 256.014 417.402 253.18C415.388 252.19 409.362 247.436 407.774 247.831C404.847 248.56 406.194 253.927 402.284 251.142C398.456 248.418 400.884 245.108 401.878 242.247C402.949 239.16 403.902 236.014 404.878 232.872C406.808 226.661 408.733 220.537 410.357 214.17C418.277 183.128 422.639 151.078 426.979 118.473C423.159 119.328 416.891 119.085 414.033 121.745C411.175 124.406 409.992 129.138 406.803 131.637C403.696 134.072 399.857 135 395.916 135.408C391.27 135.887 387.551 135.211 386.791 141.09C385.569 150.535 388.062 161.259 386.388 170.493C384.698 179.826 379.388 187.751 373.578 193.603C368.198 199.02 358.864 203.263 357.95 212.519C357.744 214.602 357.407 216.193 358.613 218.438C360.76 222.43 359.828 219.222 362.189 221.103C366.034 224.164 369.482 228.756 372.347 232.933C378.144 241.388 382.8 251.618 380.867 260.841C378.785 270.774 373.135 277.691 365.286 281.932ZM356.751 267.75C362.227 268.124 368.266 260.09 369.586 255.053C371.382 248.199 367.35 240.37 363.004 234.384C361.364 236.167 359.723 237.948 358.082 239.731C357.383 240.49 356.683 241.25 355.984 242.01C356.591 242.89 356.969 243.819 357.119 244.798C357.043 249.042 355.227 247.995 351.606 246.426C343.855 243.067 336.169 238.678 329.908 231.897C329.658 236.106 328.525 239.377 325.069 240.792C323.555 241.412 316.9 242.307 316.449 238.289C316.305 237.011 321.432 235.787 322.847 234.848C325.801 232.886 327.29 232.135 326.251 227.716C325.386 224.037 324.315 222.934 321.099 224.012C317.015 225.379 318.54 228.285 316.693 231.115C312.004 238.301 308.802 222.215 305.678 218.956C308.215 215.828 311.154 212.982 312.659 208.927C309.74 211.235 307.503 214.37 304.991 217.156C302.404 212.029 309.348 206.645 311.277 203.464C307.922 204.681 306.526 208.968 303.369 210.557C300.419 212.042 295.506 212.769 292.06 213.153C288.516 213.549 284.325 211.396 283.296 215.949C282.622 218.935 283.266 225.646 284.316 228.812C285.909 227.452 289.858 224.587 291.873 226.954C294.461 229.994 288.068 231.024 286.767 232.51C284.792 234.766 286.082 235.269 287.01 238.958C287.924 242.591 287.781 245.998 286.028 248.726C289.921 249.088 290.664 248.616 292.173 252.546C293.657 256.411 296.305 260.191 298.836 263.988C299.981 262.159 301.596 260.855 303.236 259.608C305.222 262.276 302.473 265.462 300.795 266.646C303.887 269.884 303.854 269.746 307.033 267.909C308.814 266.88 310.528 265.72 312.243 264.588C315.736 262.281 318.77 259.42 321.915 256.621C323.115 255.552 324.489 253.47 325.96 252.888C328.655 251.819 328.372 252.448 329.55 255.457C331.147 259.538 333.406 262.024 336.466 265.692C331.116 266.234 337.868 270.085 340.564 270.129C345.874 270.216 352.166 269.96 356.751 267.75ZM253.882 628.556C258.026 628.795 261.938 629.017 266.128 629.96C270.298 630.899 275.628 633.441 279.554 632.267C284.249 630.863 283.636 627.483 282.285 622.747C280.763 617.422 280.604 614.7 282.411 610.266C285.609 602.419 290.683 595.549 295.146 588.663C296.853 586.03 297.172 586.164 294.618 583.367C293.077 581.678 291.459 580.078 289.814 578.522C286.778 575.651 283.524 572.633 280.036 570.609C274.935 584.975 268.685 601.82 257.516 610.97C252.98 614.686 248.881 618.994 244.281 622.373C242.003 624.046 240.469 625.996 239.108 628.595C237.582 631.504 233.917 634.322 233.63 637.835C240.095 634.056 247.045 631.514 253.882 628.556ZM506.513 498.835C505.122 501.07 511.399 505.729 513.461 507.983C516.56 511.371 519.62 514.803 522.725 518.184C529.298 525.342 535.784 532.595 542.28 539.841C549.19 524.911 558.939 513.048 569.604 501.689C580.229 490.372 591.781 480.033 603.4 469.798C609.747 464.204 616.139 457.871 620.604 450.224C623.38 445.47 621.312 443.735 618.222 438.499C615.322 433.584 611.835 428.879 608.447 424.308C602.044 415.673 595.1 406.238 587.253 399.173C579.607 392.291 571.205 386.274 563.043 380.341C553.356 373.301 543.884 365.172 533.51 359.939C522.699 354.486 511.931 350.09 500.976 345.523C502.556 356.994 503.668 371.367 500.096 381.203C496.167 392.024 486.071 402.213 474.306 401.78C462.456 401.345 450.901 393.145 439.894 386.539C429.284 380.171 418.924 372.645 407.72 374.623C395.87 376.715 388.283 387.454 380.431 395.956C371.479 405.651 363.619 416.705 355.673 427.445C341.879 446.093 327.838 463.971 315.398 483.904C300.086 508.436 284.692 532.892 271.281 559.026C280.856 565.021 288.951 570.844 297.257 579.289C303.724 585.864 309.662 593.349 314.932 601.447C315.566 596.786 315.262 591.849 315.896 587.136C316.613 581.804 318.314 577.043 319.991 572.224C323.026 563.502 326.497 555.19 330.877 547.37C340.818 529.619 353.326 514.15 365.628 498.51C368.415 494.966 371.708 490.818 375.002 487.853C377.801 485.334 379.945 482.498 382.62 479.631C388.689 473.129 394.947 466.768 401.439 460.858C413.912 449.502 426.558 437.772 439.79 427.282C448.763 420.168 457.634 411.886 468.464 407.391C470.295 406.631 472.217 406.115 473.895 405.061C474.363 404.767 474.402 403.515 474.934 403.295C475.958 402.872 477.777 403.681 478.988 403.539C481.722 403.22 484.578 400.81 487.129 402.489C489.172 403.833 489.68 405.534 488.968 407.6C492.319 409.467 497.184 410.169 500.771 411.093C503.994 411.923 507.188 412.975 510.388 413.723C513.825 414.526 517.669 414.94 521.236 415.726C525.89 416.751 530.545 418.811 535.223 420.272C543.619 422.893 551.619 424.782 560.094 426.892C564.657 428.029 568.989 429.08 573.513 429.558C575.986 429.819 581.935 431.008 581.665 435.337C581.396 439.656 574.597 437.392 572.15 438.351C569.332 439.454 567.045 443.581 564.739 445.563C558.639 450.806 552.425 455.903 546.383 461.254C539.486 467.362 532.997 473.991 525.906 479.845C522.244 482.868 518.569 485.867 514.761 488.686C512.797 490.141 509.607 491.474 508.132 493.486C506.309 493.774 505.976 494.704 507.133 496.274C507.216 497.269 507.01 498.123 506.513 498.835ZM155.468 388.895C159.73 386.407 164.163 384.296 168.423 381.791C170.063 380.827 171.733 380.449 171.547 378.576C171.32 376.287 168.219 371.746 167.164 369.581C162.458 372.973 157.957 375.767 152.631 378.058C146.927 380.512 140.588 381.492 134.967 384.138C136.437 384.049 139.518 386.389 139.633 388.321C139.747 390.245 137.759 389.589 136.194 389.585C130.148 389.572 124.147 387.874 120.01 392.489C126.527 392.966 133.9 395.494 139.893 394.575C145.546 393.707 150.564 391.641 155.468 388.895ZM414.493 103.625C416.869 102.94 422.494 103.33 423.578 100.889C424.903 97.9073 420.536 91.3958 419.105 88.7066C414.71 80.4421 408.783 69.0004 400.13 65.2174C403.713 73.5256 410.301 80.5856 414.682 88.5517C417.969 94.5299 414.408 92.2773 411.403 88.4346C408.654 84.9192 406.548 81.1038 403.61 77.7232C403.994 81.6042 406.071 85.9794 407.047 89.9483C408.277 94.9531 408.767 99.8511 409.293 104.842C411.02 104.414 412.752 104.013 414.493 103.625ZM177.87 380.855C179.147 383.143 180.122 385.421 182.419 384.383C185.458 383.008 182.314 379.712 180.744 377.394C179.813 378.171 177.222 379.154 177.87 380.855ZM415.413 108.025C413.44 108.768 412.859 108.391 412.659 110.698C412.532 112.163 413.55 114.104 414.56 114.402C418.938 115.697 416.11 109.76 415.413 108.025ZM420.122 112.328C421.735 111.884 423.672 112.074 423.418 109.799C423.046 106.463 420.148 107.826 418.177 107.901C418.825 109.376 419.474 110.852 420.122 112.328ZM475.823 414.419C460.001 422.845 446.509 434.803 433.257 447.051C421.534 457.884 409.615 468.144 398.643 479.598C376.53 502.681 354.907 526.723 338.86 555.965C334.961 563.069 331.069 570.166 328.094 577.795C326.495 581.895 324.825 585.999 323.56 590.315C322.863 592.688 322.102 595.072 321.584 597.533C321.11 599.787 321.535 602.278 321.178 604.423C321.01 605.433 320.043 609.36 319.488 610.057C318.297 611.555 318.936 611.254 316.577 610.753C311.648 609.707 308.769 606.197 305.11 602.088C302.534 599.195 302.441 597.801 300.233 599.215C299.109 599.935 298.249 602.467 297.511 603.663C295.126 607.524 292.243 611.163 290.206 615.307C288.558 618.656 287.744 622.216 288.649 626.463C289.716 631.476 290.908 635.386 287.059 638.222C280.194 643.28 270.482 636.118 262.35 636.495C253.652 636.897 245.461 642.491 238.3 646.446C235.691 647.886 233.063 649.824 230.858 651.692C227.742 654.331 225.038 659.166 220.521 659.665C215.322 660.24 210.957 652.474 211.787 647.53C212.656 642.362 216.658 639.429 219.677 636.149C225.78 629.519 229.48 620.257 236.144 614.245C242.772 608.266 250.588 603.314 256.252 596.092C259.138 592.411 262.11 589.128 264.453 584.934C267.371 579.708 271.169 575.22 274.059 570.071C270.556 567.463 268.299 564.473 265.976 560.632C264.426 558.069 264.102 558.251 264.858 556.373C265.237 556.401 265.616 556.43 265.997 556.459C267.325 556.768 267.732 556.046 267.218 554.293C270.549 545.957 273.211 537.526 277.315 529.592C284.198 516.284 292.498 503.964 299.569 490.993C313.004 466.349 331.892 445.75 348.361 423.901C358.323 410.683 369.188 398.307 380.326 386.387C382.278 384.298 384.295 382.338 386.427 380.472C390.039 377.312 389.045 377.816 388.753 372.53C388.377 365.747 389.351 357.722 391.738 352.018C393.21 348.5 394.503 348.161 391.897 343.803C389.906 340.472 389.219 340.91 385.822 339.863C381.98 338.678 378.148 337.116 374.414 335.261C370.153 333.145 366.897 329.845 362.956 327.418C358.192 324.485 351.426 329.322 346.982 330.882C340.021 333.327 333.144 336.162 325.915 337.92C311.316 341.47 298.001 347.414 283.871 352.143C269.666 356.898 255.594 361.875 241.526 366.869C236.476 368.663 231.434 370.606 226.295 372.186C219.101 374.398 212.313 378.092 205.079 380.45C201.355 381.664 195.872 381.542 192.644 383.669C189.18 385.953 192.362 384.059 190.925 387.028C190.28 388.361 189.424 389.713 188.25 390.497C186.4 391.733 183.842 391.766 181.563 390.519C177.765 388.44 177.305 385.444 173.073 387.332C170.287 388.575 167.974 391.665 165.397 393.373C162.873 395.047 160.431 397.106 157.749 398.508C152.386 401.312 145.788 404.291 139.344 404.088C132.515 403.874 125.634 402.31 118.809 402.711C115.384 402.912 111.27 404.521 107.646 402.339C104.621 400.516 101.041 395.337 102.071 391.831C103.651 386.455 113.372 387.653 116.526 384.156C118.138 382.368 116.05 382.523 117.032 380.757C117.64 379.662 117.453 379.658 118.439 378.822C120.871 376.76 126.755 376.698 129.86 375.705C135.987 373.745 142.418 372.426 148.496 370.392C151.967 369.231 155.222 367.574 158.723 366.448C161.771 365.468 164.803 365.58 165.14 361.596C165.282 359.916 164.317 358.82 165.29 357.429C166.164 356.182 170.06 355.022 171.547 354.939C173.171 354.848 173.975 355.599 175.403 355.738C176.21 357.088 176.883 357.245 177.421 356.208C178.17 355.676 178.992 355.278 179.887 355.015C186.836 351.085 192.121 344.324 196.521 337.396C203.812 325.915 207.859 302.92 224.686 304.528C228.826 304.923 232.75 307.29 236.912 307.903C240.609 308.448 244.897 308.375 248.41 307.864C255.43 306.842 260.961 303.299 265.294 297.71C270.576 290.895 274.436 284.717 282.078 280.775C289.159 277.122 298.242 280.197 305.15 276.571C301.509 274.047 298.918 270.236 296.488 266.399C294.9 263.889 292.138 256.519 289.753 255.117C287.118 253.569 276.312 258.523 278.17 248.483C278.778 245.196 282.699 244.014 283.238 240.46C283.783 236.873 281.612 232.995 280.892 229.318C280.078 225.158 280.378 221.165 280.782 217.242C280.952 215.581 281.096 214.507 280.767 212.816C280.385 210.855 279.218 209.681 279.12 207.439C278.789 199.874 285.21 198.895 290.232 197.052C293.275 195.935 296.378 193.561 299.636 193.008C302.256 192.564 306.45 193.364 309.225 194.126C315.336 195.804 320.359 202.482 324.035 208.206C326.187 211.557 327.536 215.104 329.464 218.568C331.482 222.193 331.221 224.508 330.439 228.127C330.018 227.486 329.514 227.183 328.927 227.218C328.853 229.259 329.43 229.71 330.658 228.569C331.227 229.438 331.937 230.106 332.785 230.575C334.93 231.604 337.016 232.905 339.15 233.986C343.816 236.348 348.611 237.97 352.996 241.173C353.254 236.958 355.529 234.988 356.72 231.5C357.879 228.108 355.784 228.495 354.949 225.029C354.615 223.64 355.407 222.908 355.201 221.802C355.004 220.754 354.318 220.416 353.956 219.348C352.161 214.048 350.081 211.318 350.852 205.915C351.884 198.688 355.925 194.619 360.734 190.604C365.531 186.598 369.13 184.088 372.297 178.61C373.396 176.71 374.704 175.381 375.646 173.399C376.919 170.719 378.001 168.043 378.703 165.008C380.336 157.957 379.316 150.018 379.599 142.506C379.826 136.494 379.911 128.915 385.571 127.226C392.008 125.306 399.592 126.95 404.239 121.059C405.964 118.873 406.039 119.566 405.301 116.216C405.054 115.101 404.699 114.038 404.454 112.944C403.537 108.846 405.35 107.228 405.006 103.661C404.193 95.2405 401.068 85.9489 398.581 77.6208C397.426 73.7532 397.28 69.9091 396.35 66.0989C395.961 64.5059 392.294 58.5189 393.213 57.2832C396.177 53.2992 407.122 64.9935 409.308 67.1389C415.02 72.7455 420.999 79.34 424.356 86.9233C425.74 90.0476 427.454 93.604 428.505 96.8376C429.458 99.7736 429.241 99.669 430.916 101.866C432.619 104.1 433.828 105.331 435.006 108.021C435.335 108.773 436.586 111.528 436.56 112.023C436.442 114.327 435.621 113.234 434.659 114.679C433.104 117.015 433.102 118.259 433.022 121.695C432.82 130.284 432.461 138.991 431.763 147.436C430.539 162.251 428.308 176.181 425.515 190.333C422.774 204.224 419.745 218.458 414.942 231.273C413.775 234.387 411.048 238.096 410.645 241.536C410.202 245.304 413.828 244.751 416.911 245.478C423.037 246.921 429.326 248.389 435.295 250.743C448.02 255.761 460.077 266.988 469.779 277.899C474.827 283.577 479.342 290.815 483.682 297.204C488.773 304.699 492.944 313.703 495.324 322.243C496.227 325.482 496.97 328.736 497.901 331.974C498.33 333.466 499.083 338.428 500.374 339.693C502.508 341.782 508.878 342.155 511.49 342.961C515.06 344.065 518.727 345.217 522.199 346.98C536.968 354.478 550.641 363.393 564.353 373.896C578.3 384.581 591.128 394.081 602.505 408.551C605.478 412.332 608.386 416.156 611.386 419.913C614.614 423.956 617.616 430.735 621.311 434.001C623.597 436.022 625.639 435.9 626.977 439.738C628.134 443.055 628.337 450.006 628.142 453.252C627.7 460.643 622.485 466.441 618.526 471.296C613.721 477.189 607.757 482.053 602.185 487.031C582.113 504.962 562.753 523.08 548.719 547.609C550.207 548.558 552.459 551.158 551.55 552.92C550.343 555.259 547.291 552.115 545.699 550.865C541.065 547.228 536.983 541.429 532.862 536.895C522.809 525.835 513.354 514.257 503.742 502.761C497.191 509.356 489.968 515.004 483.369 521.421C480.325 524.381 476.758 526.538 473.495 529.174C469.992 532.004 470.654 533.733 473.717 538.374C480.47 548.605 489.546 556.933 497.309 566.197C501.075 570.69 505.376 574.558 509.084 579.052C510.291 580.516 512.492 585.056 514.061 585.765C513.994 585.735 517.421 584.8 517.981 584.685C514.136 578.559 511.172 572.085 507.347 565.963C503.396 559.638 497.862 551.545 495.379 544.648C493.123 538.377 493.509 530.159 496.367 525.33C498.855 521.123 504.252 513.571 510.013 514.394C511.025 514.539 513.68 515.266 514.038 516.802C514.521 518.877 509.404 523.612 508.521 524.846C505.065 529.677 502.265 536.278 502.765 543.236C503.214 549.497 508.504 556.542 511.806 562.124C513.683 565.298 515.701 568.087 517.231 571.444C519.396 576.194 520.113 577.952 523.754 581.038C528.02 584.653 530.818 591.904 524.927 593.1C521.403 593.815 520.075 591.771 516.975 590.494C515.802 590.01 515.264 590.83 513.975 590.111C512.247 589.148 510.387 585.892 508.876 584.292C504.038 579.171 498.698 574.559 493.757 569.45C487.113 562.581 480.782 555.401 474.606 548.011C469.805 542.264 464.862 536.492 463.658 528.912C462.588 522.185 467.959 519.654 472.104 517.016C481.701 510.907 490.293 502.273 499.967 495.835C500.664 495.371 502.359 494.83 502.782 494.063C503.368 493.005 502.799 491.228 503.38 489.551C504.489 486.345 508.489 483.16 510.712 481.098C515.751 476.419 520.905 472.012 525.876 467.296C531.591 461.873 537.064 456.17 542.871 450.89C548.43 445.835 554.709 441.887 560.601 437.239C545.445 434.476 530.426 429.125 515.245 425.421C508.205 423.703 501.54 421.864 494.58 419.203C491.681 418.094 488.835 417.033 485.986 415.648C484.476 414.912 482.433 413.027 480.909 412.784C478.992 412.477 477.659 413.616 475.823 414.419Z" fill="#2D4710"/>
<path fill-rule="evenodd" clip-rule="evenodd" d="M299.319 193.273C295.718 194.825 291.827 197.016 287.983 197.912C291.069 196.579 295.931 193.511 299.319 193.273Z" fill="#2D4710"/>
<path fill-rule="evenodd" clip-rule="evenodd" d="M153.082 368.776C151.548 369.434 150.014 370.093 148.482 370.75C149.79 369.63 151.346 369.019 153.082 368.776Z" fill="#2D4710"/>
<path fill-rule="evenodd" clip-rule="evenodd" d="M265.104 358.963C266.127 358.521 267.15 358.078 268.167 357.64C267.142 358.084 266.123 358.524 265.104 358.963Z" fill="#2D4710"/>
<path fill-rule="evenodd" clip-rule="evenodd" d="M239.092 367.728C239.792 367.468 240.491 367.208 241.186 366.951C240.484 367.212 239.788 367.47 239.092 367.728Z" fill="#2D4710"/>
<path fill-rule="evenodd" clip-rule="evenodd" d="M285.944 198.801C285.094 199.172 284.244 199.542 283.396 199.913C284.245 199.542 285.095 199.171 285.944 198.801Z" fill="#2D4710"/>
<path fill-rule="evenodd" clip-rule="evenodd" d="M235.022 369.521C235.711 369.239 236.4 368.956 237.082 368.676C236.39 368.959 235.706 369.24 235.022 369.521Z" fill="#2D4710"/>
<path fill-rule="evenodd" clip-rule="evenodd" d="M246.073 365.566C246.758 365.276 247.444 364.987 248.123 364.7C247.435 364.991 246.754 365.278 246.073 365.566Z" fill="#2D4710"/>
<path fill-rule="evenodd" clip-rule="evenodd" d="M331.505 336.696C332.015 336.472 332.526 336.247 333.033 336.027C332.521 336.253 332.013 336.475 331.505 336.696Z" fill="#2D4710"/>
<path fill-rule="evenodd" clip-rule="evenodd" d="M216.626 306.401C215.824 306.871 215.023 307.34 214.222 307.81C215.024 307.34 215.825 306.87 216.626 306.401Z" fill="#2D4710"/>
<path fill-rule="evenodd" clip-rule="evenodd" d="M130.848 375.148C130.125 375.355 129.403 375.563 128.679 375.77C129.402 375.563 130.125 375.355 130.848 375.148Z" fill="#2D4710"/>
<path fill-rule="evenodd" clip-rule="evenodd" d="M143.259 371.446L141.039 371.963L143.259 371.446Z" fill="#2D4710"/>
<path fill-rule="evenodd" clip-rule="evenodd" d="M116.793 384.353C116.068 384.556 115.343 384.759 114.618 384.961C115.343 384.759 116.068 384.556 116.793 384.353Z" fill="#2D4710"/>
<path fill-rule="evenodd" clip-rule="evenodd" d="M287.623 255.516C287.979 255.397 288.335 255.278 288.687 255.163C288.329 255.281 287.976 255.398 287.623 255.516Z" fill="#2D4710"/>
<path fill-rule="evenodd" clip-rule="evenodd" d="M349.702 329.65C350.044 329.502 350.386 329.353 350.723 329.207C350.379 329.356 350.041 329.503 349.702 329.65Z" fill="#2D4710"/>
<path fill-rule="evenodd" clip-rule="evenodd" d="M205.281 380.779C205.619 380.622 205.956 380.466 206.29 380.313C205.951 380.471 205.616 380.624 205.281 380.779Z" fill="#2D4710"/>
<path fill-rule="evenodd" clip-rule="evenodd" d="M145.613 392.765C147.196 392.086 148.618 391.361 150.382 391.138C148.907 391.798 147.377 392.955 145.613 392.765Z" fill="#2D4710"/>
<path fill-rule="evenodd" clip-rule="evenodd" d="M161.543 384.873C162.356 383.887 164.184 383.06 165.594 383.041C164.244 383.651 162.893 384.263 161.543 384.873Z" fill="#2D4710"/>
<path fill-rule="evenodd" clip-rule="evenodd" d="M356.784 268.086C357.974 267.568 359.164 267.05 360.353 266.532C359.408 267.549 358.287 268.205 356.784 268.086Z" fill="#2D4710"/>
<path fill-rule="evenodd" clip-rule="evenodd" d="M415.267 107.809C414.393 108.134 413.519 108.459 412.65 108.78C413.526 108.454 414.396 108.132 415.267 107.809Z" fill="#2D4710"/>
<path fill-rule="evenodd" clip-rule="evenodd" d="M250.703 630.003C251.358 628.811 252.541 628.702 253.765 628.678C252.744 629.12 251.724 629.562 250.703 630.003Z" fill="#2D4710"/>
<path fill-rule="evenodd" clip-rule="evenodd" d="M182.979 372.642C183.566 373.703 184.154 374.764 184.74 375.821C184.152 374.759 183.565 373.7 182.979 372.642Z" fill="#2D4710"/>
<path fill-rule="evenodd" clip-rule="evenodd" d="M152.952 390.071C153.755 389.606 154.559 389.141 155.362 388.677C154.559 389.141 153.755 389.606 152.952 390.071Z" fill="#2D4710"/>
<path fill-rule="evenodd" clip-rule="evenodd" d="M365.379 281.921C364.706 282.235 364.033 282.55 363.365 282.859C364.04 282.544 364.709 282.232 365.379 281.921Z" fill="#2D4710"/>
<path fill-rule="evenodd" clip-rule="evenodd" d="M301.862 583.703C302.465 584.757 303.066 585.811 303.667 586.864C303.064 585.809 302.463 584.756 301.862 583.703Z" fill="#2D4710"/>
<path fill-rule="evenodd" clip-rule="evenodd" d="M339.107 326.931C340.009 326.669 340.911 326.406 341.813 326.144C340.91 326.406 340.008 326.669 339.107 326.931Z" fill="#2D4710"/>
<path fill-rule="evenodd" clip-rule="evenodd" d="M151.166 378.796C150.497 379.118 149.828 379.441 149.165 379.763C149.837 379.44 150.502 379.118 151.166 378.796Z" fill="#2D4710"/>
<path fill-rule="evenodd" clip-rule="evenodd" d="M333.131 328.619C334.032 328.355 334.933 328.091 335.835 327.826C334.996 328.242 334.327 329.068 333.131 328.619Z" fill="#2D4710"/>
<path fill-rule="evenodd" clip-rule="evenodd" d="M159.346 375.29C158.844 375.533 158.342 375.775 157.845 376.014C158.348 375.771 158.847 375.53 159.346 375.29Z" fill="#2D4710"/>
<path fill-rule="evenodd" clip-rule="evenodd" d="M318.104 332.024C319.007 331.765 319.912 331.507 320.816 331.248C319.911 331.507 319.007 331.765 318.104 332.024Z" fill="#2D4710"/>
<path fill-rule="evenodd" clip-rule="evenodd" d="M420.053 112.558C420.959 112.302 421.864 112.046 422.77 111.791C421.864 112.047 420.959 112.302 420.053 112.558Z" fill="#2D4710"/>
<path fill-rule="evenodd" clip-rule="evenodd" d="M285.423 342.322C286.28 341.968 287.139 341.614 287.995 341.259C287.138 341.613 286.28 341.968 285.423 342.322Z" fill="#2D4710"/>
<path fill-rule="evenodd" clip-rule="evenodd" d="M414.595 103.894C415.497 103.632 416.4 103.37 417.302 103.108C416.4 103.37 415.497 103.632 414.595 103.894Z" fill="#2D4710"/>
<path fill-rule="evenodd" clip-rule="evenodd" d="M185.612 377.194C186.453 376.806 187.295 376.418 188.135 376.03C187.621 377.059 186.749 377.387 185.612 377.194Z" fill="#2D4710"/>
<path fill-rule="evenodd" clip-rule="evenodd" d="M307.851 222.848C307.432 221.977 307.012 221.106 306.594 220.239C307.014 221.112 307.433 221.98 307.851 222.848Z" fill="#2D4710"/>
<path fill-rule="evenodd" clip-rule="evenodd" d="M309.437 226.102C309.017 225.232 308.597 224.361 308.179 223.494C308.6 224.366 309.019 225.234 309.437 226.102Z" fill="#2D4710"/>
<path fill-rule="evenodd" clip-rule="evenodd" d="M399.571 377.458C399.065 377.694 398.56 377.93 398.06 378.163C398.568 377.926 399.069 377.692 399.571 377.458Z" fill="#2D4710"/>
<path fill-rule="evenodd" clip-rule="evenodd" d="M374.57 236.662C374.975 237.539 375.379 238.417 375.782 239.29C375.377 238.412 374.974 237.537 374.57 236.662Z" fill="#2D4710"/>
<path fill-rule="evenodd" clip-rule="evenodd" d="M325.836 252.768C326.249 251.926 326.917 251.606 327.878 251.885C327.197 252.18 326.516 252.474 325.836 252.768Z" fill="#2D4710"/>
<path fill-rule="evenodd" clip-rule="evenodd" d="M326.106 240.639C325.749 240.756 325.393 240.874 325.041 240.989C325.399 240.872 325.752 240.755 326.106 240.639Z" fill="#2D4710"/>
<path fill-rule="evenodd" clip-rule="evenodd" d="M402.027 366.011C402.757 365.817 403.486 365.624 404.216 365.43C403.486 365.624 402.757 365.817 402.027 366.011Z" fill="#2D4710"/>
<path fill-rule="evenodd" clip-rule="evenodd" d="M418.351 445.171C418.985 444.782 419.62 444.394 420.254 444.004C419.619 444.393 418.985 444.782 418.351 445.171Z" fill="#2D4710"/>
<path fill-rule="evenodd" clip-rule="evenodd" d="M406.586 456.541C407.218 456.147 407.85 455.753 408.483 455.36C407.85 455.753 407.219 456.147 406.586 456.541Z" fill="#2D4710"/>
<path fill-rule="evenodd" clip-rule="evenodd" d="M401.421 461.16C402.044 460.747 402.668 460.335 403.29 459.922L401.421 461.16Z" fill="#2D4710"/>
<path fill-rule="evenodd" clip-rule="evenodd" d="M396.237 465.742L398.115 464.521C397.489 464.929 396.863 465.335 396.237 465.742Z" fill="#2D4710"/>
<path fill-rule="evenodd" clip-rule="evenodd" d="M348.941 324.285C349.671 324.09 350.399 323.895 351.128 323.7C350.399 323.895 349.67 324.09 348.941 324.285Z" fill="#2D4710"/>
<path fill-rule="evenodd" clip-rule="evenodd" d="M398.95 135.2C398.614 135.362 398.279 135.523 397.948 135.682C398.285 135.521 398.617 135.361 398.95 135.2Z" fill="#2D4710"/>
<path fill-rule="evenodd" clip-rule="evenodd" d="M156.816 376.439C156.468 376.575 156.12 376.711 155.777 376.844C156.126 376.707 156.471 376.573 156.816 376.439Z" fill="#2D4710"/>
<path fill-rule="evenodd" clip-rule="evenodd" d="M311.855 333.15C312.585 332.958 313.316 332.766 314.046 332.574C313.315 332.766 312.585 332.958 311.855 333.15Z" fill="#2D4710"/>
<path fill-rule="evenodd" clip-rule="evenodd" d="M230.405 358.778C231.127 358.568 231.849 358.359 232.57 358.149C231.849 358.359 231.126 358.568 230.405 358.778Z" fill="#2D4710"/>
<path fill-rule="evenodd" clip-rule="evenodd" d="M177.877 381.136C178.237 381.77 178.597 382.403 178.955 383.034C178.595 382.4 178.236 381.768 177.877 381.136Z" fill="#2D4710"/>
<path fill-rule="evenodd" clip-rule="evenodd" d="M169.18 381.52C169.811 381.125 170.442 380.73 171.074 380.334C170.443 380.73 169.811 381.125 169.18 381.52Z" fill="#2D4710"/>
<path fill-rule="evenodd" clip-rule="evenodd" d="M189.064 375.401C189.526 374.664 190.092 374.139 191.098 374.501C190.42 374.801 189.742 375.101 189.064 375.401Z" fill="#2D4710"/>
<path fill-rule="evenodd" clip-rule="evenodd" d="M439.855 299.227C442.44 298.367 443.929 298.423 446.238 301.001C447.309 302.198 447.939 305.24 448.714 305.938C449.743 306.863 449.959 305.938 451.234 306.644C455.895 309.228 461.656 316.387 458.544 321.795C455.194 320.01 453.949 316.423 453.499 312.854C450.538 313.539 449.163 314.173 446.49 311.315C446.169 310.973 443.199 306.227 443.062 306.166C442.131 305.752 440.43 307.683 439.401 307.566C437.127 307.308 434.119 303.807 433.253 301.364C432.061 297.995 433.634 295.023 434.529 292.237C428.623 295.877 426.495 304.985 420.706 308.83C419.096 309.898 419.234 311.112 417.24 308.977C415.469 307.081 416.189 307.046 416.7 305.306C417.713 301.859 420.349 298.459 422.301 295.707C425.134 291.709 429.388 283.708 434.908 283.657C437.662 283.631 441.194 286.367 442.159 289.533C443.1 292.622 440.607 296.615 439.855 299.227Z" fill="#2D4710"/>
<path fill-rule="evenodd" clip-rule="evenodd" d="M418.966 257.178C422.698 259.7 425.577 262.973 425.836 267.743C428.322 265.943 430.907 263.622 434.428 265.767C439.516 268.867 437.789 271.828 435.029 273.751C432.814 275.296 429.31 279.921 426.085 279.035C420.784 277.579 420.462 269.258 419.903 265.276C417.816 266.589 412.896 270.503 410.831 264.741C409.342 260.588 416.508 257.75 418.966 257.178Z" fill="#2D4710"/>
<path fill-rule="evenodd" clip-rule="evenodd" d="M404.422 295.695L404.176 300.098C405.407 299.802 406.17 297.81 406.818 296.785C406.02 296.421 405.221 296.058 404.422 295.695ZM398.779 293.187C396.042 294.151 395.792 299.914 392.514 295.512C390.593 292.932 390.544 288.247 392.633 286.484C396.277 283.409 408.88 292.216 412.28 295.793C415.413 299.089 414.11 299.131 412.771 301.785C411.611 304.082 410.822 308.323 407.908 308.845C405.243 309.322 401.906 305.08 400.533 302.66C398.416 298.929 399.442 296.75 398.779 293.187Z" fill="#2D4710"/>
<path fill-rule="evenodd" clip-rule="evenodd" d="M411.379 285.95C412.61 287.231 419.32 292.678 416.912 294.035C415.573 294.79 407.276 286.136 406.256 285.188C404.855 283.886 402.565 282.295 401.719 280.395C400.257 277.109 400.686 278.165 402.489 277.581C406.003 276.444 412.171 281.2 416.041 281.085C411.4 275.829 405.817 270.352 403.592 263.547C409.566 265.79 414.753 274.49 419.064 279.774C420.377 281.382 423.162 284.62 422.366 286.676C421.463 289.002 413.057 286.244 411.379 285.95Z" fill="#2D4710"/>
<path fill-rule="evenodd" clip-rule="evenodd" d="M396.21 311.706C395.54 307.825 394.646 303.346 391.005 307.011C392.74 308.576 394.475 310.141 396.21 311.706ZM387.114 299.074C390.601 296.565 396.354 301.718 398.855 305.195C400.85 307.968 404.399 319.603 399.455 318.309C397.612 317.827 395.137 315.043 393.449 313.886C391.138 312.301 388.462 311.06 386.311 309.164C381.755 305.148 383.512 301.155 387.114 299.074Z" fill="#2D4710"/>
<path fill-rule="evenodd" clip-rule="evenodd" d="M387.338 299.082C386.539 299.558 385.741 300.035 384.943 300.51C385.742 300.034 386.54 299.558 387.338 299.082Z" fill="#2D4710"/>
<path fill-rule="evenodd" clip-rule="evenodd" d="M419.513 257.308C418.774 257.481 418.034 257.654 417.294 257.826C418.033 257.654 418.773 257.481 419.513 257.308Z" fill="#2D4710"/>
<path fill-rule="evenodd" clip-rule="evenodd" d="M430.732 265.113C430.049 265.403 429.367 265.694 428.685 265.984C429.1 265.141 429.786 264.858 430.732 265.113Z" fill="#2D4710"/>
<path fill-rule="evenodd" clip-rule="evenodd" d="M295.022 233.88C299.825 235.022 299.2 249.959 291.363 242.628C289.176 240.582 287.647 237.36 290.032 236.849C291.106 236.619 292.256 238.338 293.554 237.683C294.842 237.034 294.652 235.278 295.022 233.88Z" fill="#2D4710"/>
<path fill-rule="evenodd" clip-rule="evenodd" d="M319.057 233.775C317.848 231.552 318.575 225.345 322.064 227.174C325.564 229.009 320.413 232.908 319.057 233.775Z" fill="#2D4710"/>
</g>
<defs>
<clipPath id="clip0_278_3189">
<rect width="568" height="557" fill="white" transform="translate(0 282.335) rotate(-29.8062)"/>
</clipPath>
</defs>
</svg>
