<?xml version="1.0" encoding="UTF-8" standalone="no"?><svg width="293" height="265" viewBox="0 0 293 265" fill="none" xmlns="http://www.w3.org/2000/svg">
<path fill-rule="evenodd" clip-rule="evenodd" d="M200.827 137.756C206.917 135.097 212.753 130.713 217.202 125.27C216.9 130.279 216.362 136.571 213.715 140.596C212.708 142.127 211.217 143.263 209.867 144.351C207.88 145.952 205.817 147.43 203.729 148.855C200.045 151.37 196.192 154.119 192.089 155.717C190.951 156.161 190.31 156.012 189.193 155.349C187.318 154.235 185.556 152.816 183.817 151.435C181.029 149.221 178.292 146.913 175.596 144.548C184.117 143.134 192.833 141.247 200.827 137.756ZM142.245 164.264C143.575 164.969 144.906 165.675 146.237 166.38C155.636 171.361 165.035 176.343 174.433 181.324C170.952 185.065 167.471 188.805 163.989 192.546C165.684 194.054 167.379 195.562 169.074 197.07C167.896 198.16 166.718 199.249 165.54 200.338C163.381 202.335 161.221 204.332 159.061 206.33C158.296 207.037 157.53 207.745 156.765 208.453C156.585 208.62 156.344 208.946 156.129 208.958C155.805 208.976 155.126 208.43 154.835 208.277C153.916 207.791 152.997 207.303 152.08 206.813C149.256 205.306 146.439 203.781 143.628 202.237C136.738 198.452 129.852 194.607 123.154 190.353C120.059 188.387 117.143 186.302 114.522 183.517C111.637 180.451 109.099 176.961 106.775 173.33C104.818 170.274 103.009 167.093 101.332 163.832C100.756 162.711 99.4983 160.971 99.3035 159.668C99.1988 158.968 99.5569 157.877 99.6534 157.198C99.8827 155.586 100.112 153.975 100.341 152.364C100.459 151.537 100.783 150.481 100.73 149.63C100.668 148.601 100.02 147.286 99.7212 146.309C99.5762 145.834 99.3622 144.463 99.0003 144.24C98.7597 144.091 97.9798 144.314 97.7225 144.332C95.6358 144.484 93.5493 144.635 91.4625 144.786C85.8668 145.192 80.2715 145.598 74.676 146.004C73.1359 146.116 71.4458 146.488 69.8937 146.351C68.7212 146.247 67.8463 145.312 67.3096 144.139C65.6983 140.617 64.1326 137.027 62.8968 133.321C61.702 129.739 61.8096 126.782 62.5515 123.166C63.2009 120.001 64.0599 116.828 65.1379 113.84C65.449 112.978 65.4741 113.148 66.2901 113.183C69.6382 113.326 72.9864 113.47 76.3346 113.613C87.6669 114.099 98.9991 114.584 110.331 115.07C114.327 115.241 118.323 115.412 122.318 115.583C122.902 115.608 124.004 115.399 124.56 115.679C124.846 115.823 125.126 116.341 125.34 116.612C126.266 117.786 127.192 118.959 128.118 120.133C133.316 126.721 138.619 133.198 143.89 139.709C149.75 146.948 155.611 154.187 161.472 161.426C155.063 162.372 148.654 163.318 142.245 164.264Z" fill="#4D7520"/>
<path fill-rule="evenodd" clip-rule="evenodd" d="M113.554 37.5045C115.781 38.2344 117.346 41.0038 118.771 42.9585C120.483 45.3041 122.092 47.7905 123.222 50.5616C124.381 53.4011 125.002 56.6202 125.195 59.6959C125.28 61.0491 125.168 62.3117 125.049 63.6391C124.921 65.058 125.593 65.7479 126.58 66.5728C128.629 68.2861 131.051 69.4625 132.731 71.7111C134.155 73.6164 135.479 73.7962 137.538 73.5521C142.651 72.9458 147.597 71.9516 152.811 72.2611C154.135 72.3397 155.461 72.4839 156.782 72.6711C157.215 72.7324 157.684 72.8869 158.116 72.8627C158.74 72.8276 158.799 72.5269 159.212 72.1778C161.031 70.6423 163.778 71.3844 165.901 71.718C171.259 72.5602 176.428 74.0531 181.53 76.3163C187.038 78.7602 192.756 80.4221 198.235 82.9703C203.527 85.4319 208.472 88.8098 213.532 91.8658C218.678 94.9742 223.643 98.436 228.528 102.087C233.25 105.615 238.096 109.044 242.476 113.153C246.468 116.899 249.897 121.546 252.521 126.65C253.397 128.353 253.223 129.545 251.305 129.248C251.441 131.094 250.399 132.044 248.857 131.896C249.56 133.349 250.934 135.247 250.609 136.987C250.176 139.299 247.657 138.078 246.411 137.408C246.817 139.144 247.924 141.889 246.908 143.509C245.335 146.02 241.618 143.753 239.983 142.336C235.815 138.724 232.742 133.914 228.911 129.909C224.163 124.944 218.982 120.379 213.82 116.026C213.413 115.682 208.767 111.493 208.32 112.238C210.533 115.208 212.462 118.56 215.256 120.871C216.076 118.862 217.033 119.63 217.542 121.43C218.153 123.593 218.813 125.869 218.824 128.135C218.846 132.596 217.161 137.116 215.212 140.777C213.173 144.606 210.375 147.725 207.261 150.376C205.497 151.877 203.716 153.304 201.739 154.423C200.853 154.925 199.975 155.482 199.046 155.881C198.154 156.265 197.145 156.412 196.369 157.078C204.783 160.105 213.614 160.518 222.028 163.431C224.059 164.134 228.235 166.142 226.821 169.394C225.727 171.911 222.41 172.534 220.299 173.345C222.195 174.848 222.222 176.526 220.265 177.832C219.479 178.356 218.623 178.68 217.723 178.855C217.111 178.974 216.007 178.893 215.602 179.536C217.685 180.245 220.287 179.757 222.155 181.294C224.06 182.863 222.381 184.648 221.06 185.589C219.323 186.825 216.885 188.228 214.781 187.422C213.118 186.784 211.747 187.205 210.03 187.246C208.259 187.289 206.477 187.137 204.712 186.829C197.992 185.659 191.469 182.528 185.196 179.426C178.93 176.326 172.953 172.617 167.264 168.201C165.861 167.112 164.617 165.746 163.194 164.702C161.696 163.603 160.333 163.704 158.693 163.994C154.966 164.652 151.112 164.487 147.462 165.606C153.595 169.435 159.941 172.654 166.274 175.958C168.684 177.216 171.291 178.992 173.93 179.281C175.088 179.408 177.498 179.224 178.125 180.753C178.583 181.868 177.763 182.202 177.355 182.914C176.764 183.946 177.855 184.081 178.679 184.334C179.719 184.652 180.622 184.662 181.649 184.366C183.221 183.912 184.49 183.771 186.114 184.326C188.667 185.198 191.298 185.463 193.853 186.307C194.91 186.656 195.414 188.13 196.052 189.082C197.056 190.578 198.162 191.979 199.253 193.391C201.311 196.052 203.165 198.833 205.789 200.796C208.088 202.516 210.573 203.967 213.001 205.413C216.794 207.672 221.603 210.446 221.427 216.119C221.254 221.728 216.315 221.933 212.466 221.565C210.846 221.409 208.537 220.613 207.059 221.405C205.783 222.089 204.864 222.31 203.402 222.168C201.706 222.004 200.025 221.992 198.33 221.964C194.776 221.906 191.129 221.449 187.611 220.645C185.924 220.258 184.462 219.614 183.001 218.501C182.568 218.171 182.208 217.661 181.716 217.746C181.299 217.818 180.792 218.788 180.517 219.14C179.649 220.254 178.648 221.229 177.297 220.293C176.435 219.695 175.517 218.239 176.474 217.322C177.207 216.62 178.821 217.025 179.238 215.854C179.674 214.629 178.023 213.224 177.44 212.381C176.299 213.629 174.712 216.035 172.911 214.551C171.468 213.363 172.685 212.301 173.734 211.674C175.032 210.899 176.649 210.708 175.59 208.666C174.988 207.506 174.167 206.513 173.845 205.192C173.601 204.188 173.694 203.169 173.535 202.159C173.252 200.354 171.333 199.073 169.811 198.883C168.882 198.766 168.763 199.69 168.328 200.455C167.69 201.578 166.789 202.487 165.876 203.301C164.377 204.636 162.76 205.765 161.147 206.908C160.079 207.665 158.148 208.744 159.258 210.33C160.881 212.652 157.841 211.91 156.723 211.505C154.122 210.564 151.506 209.687 148.923 208.668C143.624 206.578 138.601 203.75 133.701 200.556C128.891 197.421 124.14 194.032 119.63 190.323C117.444 188.526 115.323 186.607 113.365 184.48C111.262 182.196 109.39 179.653 107.26 177.399C105.049 175.06 102.872 172.797 101.218 169.882C99.6857 167.182 97.9552 164.17 97.4212 161.016C96.8311 157.531 96.3322 154.396 96.7782 150.889C96.9643 149.425 97.2241 147.89 97.7462 146.552C97.8962 146.167 98.7886 144.79 98.4876 144.348C98.5045 144.373 96.0921 145.219 95.8369 145.291C94.2176 145.743 92.5048 145.685 90.8327 145.774C85.8885 146.039 81.0167 147.036 76.0499 147.05C74.1774 147.054 72.2475 147.685 70.3783 147.436C69.4954 147.319 69.1968 146.792 68.5037 146.434C68.1873 146.271 67.8967 146.389 67.5868 146.141C67.2238 145.85 67.0771 145.37 66.8687 144.947C65.7551 142.693 64.1853 140.773 63.0782 138.513C61.8333 135.971 61.418 133.193 61.0209 130.388C59.8377 130.695 58.5774 130.91 57.358 130.528C56.9906 134.002 53.0629 134.581 50.6133 134.722C47.5542 134.897 43.9739 135.143 41.8769 131.88C39.4125 128.045 38.7138 123.016 37.7627 118.547C36.6456 113.299 35.6977 107.943 35.0581 102.614C34.5141 98.0812 34.6339 93.2647 36.5534 89.2841C38.247 85.7719 41.7655 83.3043 45.2494 85.7559C47.868 87.5991 49.5033 91.4209 50.1919 94.7135C50.5423 96.3891 50.7218 97.9161 52.4317 97.1568C53.0891 96.8649 53.6658 96.4722 54.3059 97.2091C54.8702 97.858 54.8353 98.9348 54.3579 99.5668C53.9254 100.14 52.915 100.22 52.6827 101.005C52.4527 101.783 53.1912 102.85 53.8743 102.889C54.652 102.934 55.047 101.718 55.8876 102.115C56.6579 102.48 56.4416 103.43 56.0627 104.028C55.6145 104.736 55.1067 104.951 55.6589 105.865C56.0822 106.567 56.766 106.969 57.166 107.72C58.1533 109.575 58.8336 112.361 58.4139 114.457C59.7283 114.414 63.1295 115.677 63.9084 114.079C64.191 113.5 64.1104 112.729 64.421 112.134C64.7862 111.434 65.3958 111.062 66.0706 110.849C67.5134 110.393 69.1107 110.669 70.6011 110.772C73.0721 110.943 75.5462 111.042 78.017 111.147C82.9887 111.356 87.9558 111.257 92.9276 111.542C97.8889 111.828 102.847 112.403 107.8 112.973C110.398 113.272 112.999 113.66 115.599 113.862C118.03 114.05 120.534 114.073 122.907 114.922C121.972 111.897 120.308 109.249 119.071 106.379C117.8 103.427 117.083 100.391 117 97.1507C116.925 94.1822 117.055 91.2642 117.91 88.4905C118.256 87.3689 118.654 86.243 119.259 85.2852C119.69 84.6041 120.351 83.9881 120.653 83.2105C120.95 82.4432 120.836 82.2949 120.043 82.0931C119.602 81.9806 119.219 81.9874 118.788 81.7996C118.391 81.6269 118.014 81.2574 117.579 81.2462C116.575 81.2201 115.331 82.5497 114.503 83.0857C113.372 83.8171 112.193 84.502 110.92 84.8761C106.743 86.104 101.217 84.0514 97.7251 81.0425C96.5597 80.0382 93.8844 77.7284 94.5051 75.8059C94.8326 74.7911 95.7275 74.8736 96.379 74.3307C97.3992 73.4805 96.5037 72.4921 95.8199 71.7032C93.9571 69.5542 92.5234 66.9809 91.0352 64.4944C89.5204 61.9638 87.6544 59.785 86.0207 57.3627C84.8482 55.6246 83.5016 53.6862 82.7625 51.6597C81.8598 49.1849 83.287 48.5815 85.0441 47.9193C90.6018 45.8244 96.0062 43.3461 101.465 40.969C103.641 40.0216 105.826 39.0629 108.031 38.198C109.749 37.524 111.699 36.8973 113.554 37.5045ZM189.975 188.617C187.04 189.277 184.183 190.529 184.745 194.567C186.349 202.141 191.546 207.15 196.88 211.477C198.225 212.569 199.559 213.741 200.982 214.691C201.819 215.25 202.662 215.43 203.536 215.839C203.75 215.939 204.155 216.325 204.345 216.363C204.796 216.454 204.804 216.268 205.21 216.149C206.096 215.891 206.382 216.597 207.167 217.084C208.655 218.008 210.968 217.46 212.556 217.566C214.024 217.664 220.037 219.117 219.227 215.744C218.436 212.447 215.112 211.325 212.713 210.186C209.37 208.599 205.906 206.856 202.914 204.438C200.07 202.139 197.899 198.712 195.737 195.624C194.39 193.699 193.822 191.974 193.151 189.687C192.867 188.719 192.802 188.398 191.944 188.367C191.281 188.343 190.616 188.472 189.975 188.617ZM179.574 189.743C177.967 190.668 176.935 192.476 176.377 194.421C176.092 195.417 175.994 196.39 176.018 197.447C176.049 198.793 175.856 200.267 176.388 201.538C177.352 203.846 179.285 206.221 180.802 208.088C182.509 210.188 184.659 212.507 186.987 213.585C189.229 214.623 191.726 214.59 193.873 215.972C193.554 215.071 192.694 214.508 192.013 214.025C191.019 213.321 190.134 212.606 189.243 211.72C187.273 209.762 185.544 207.575 184.241 204.975C182.978 202.456 182.016 199.545 181.66 196.698C181.491 195.343 181.456 193.88 181.756 192.57C181.956 191.694 182.434 190.9 182.549 189.994C182.812 187.919 180.375 189.282 179.574 189.743ZM131.334 130.252C128.996 130.957 126.713 131.878 124.348 132.529C119.566 133.846 114.565 134.978 110.595 138.402C104.82 143.384 98.8535 153.322 102.579 162.158C106.98 172.595 114.203 181.505 122.494 188.047C127.787 192.223 133.429 195.845 139.063 199.325C144.513 202.692 150.479 204.51 156.033 207.583C155.435 201.818 157.666 196.078 160.721 191.85C162.363 189.579 164.115 187.373 166.056 185.438C167.009 184.487 168.021 183.65 169.054 182.818C169.838 182.186 170.674 181.299 171.653 181.083C171.5 180.244 169.633 180.229 169.1 180.113C167.26 179.711 165.43 178.934 163.664 178.181C159.818 176.54 156.157 174.369 152.495 172.217C150.704 171.165 148.896 170.156 147.118 169.074C145.517 168.099 144.016 166.736 142.34 165.958C140.616 165.157 138.744 165.236 136.949 165.13C134.792 165.002 132.654 164.781 130.496 164.712C126.893 164.598 123.207 162.743 119.723 161.638C118.552 161.267 116.823 161.06 115.828 160.157C114.926 159.339 114.885 157.855 115.739 157.054C117.208 155.677 120.194 156.674 121.871 157.134C124.973 157.986 128.033 158.703 131.206 158.881C135.553 159.125 139.824 160.213 144.174 160.437C148.864 160.679 153.581 161.011 158.246 160.622C156.693 158.204 154.469 156.348 152.628 154.232C150.516 151.805 148.406 149.376 146.306 146.935C142.605 142.631 138.563 138.358 135.481 133.436C134.424 131.749 133.313 129.655 131.334 130.252ZM164.389 196.371C163.744 196.603 163.368 197.459 163 198.044C161.858 199.855 160.744 201.645 159.907 203.686C161.529 202.533 162.72 200.788 164.258 199.519C164.813 199.061 166.846 197.911 166.247 196.985C165.911 196.465 164.864 196.2 164.389 196.371ZM171.442 188.677C169.939 190.329 168.341 191.848 166.715 193.336C168.084 193.692 169.486 194.263 170.701 195.115C171.256 195.505 172.465 196.714 173.102 196.257C173.694 195.832 173.741 193.921 173.944 193.201C174.463 191.358 175.316 189.558 176.297 188.011C174.264 186.901 173.028 186.934 171.442 188.677ZM144.704 116.448C143.395 117.12 142.104 117.833 140.796 118.509C138.187 119.858 135.492 121.07 132.613 121.54C132.358 122.442 133.704 123.627 134.153 124.21C135.331 125.742 136.398 127.416 137.502 129.021C139.842 132.421 142.317 135.654 144.929 138.782C147.568 141.943 150.034 145.303 152.716 148.414C155.311 151.425 158.097 154.307 160.838 157.139C171.52 168.173 184.98 174.788 198.09 180.566C201.765 182.185 205.536 183.524 209.408 184.104C211.007 184.344 212.624 184.504 214.228 184.615C215.306 184.689 217.123 184.954 217.952 184.016C214.724 183.122 210.703 183.23 207.841 180.948C206.07 179.535 207.515 178.03 208.995 177.472C211.86 176.393 215.174 177.393 217.923 175.946C216.875 174.414 214.655 174.857 213.226 174.653C211.421 174.395 211.192 173.395 212.716 172.442C214.591 171.268 216.987 171.348 219.06 170.85C220.071 170.608 224.33 169.709 222.661 167.632C221.347 165.998 218.781 165.898 217.047 165.499C214.615 164.94 212.162 163.847 209.722 163.504C207.335 163.168 204.949 163.112 202.556 162.737C200.058 162.346 197.582 161.862 195.139 161.062C190.428 159.519 185.902 157.121 181.661 154.211C177.292 151.213 173.302 147.61 169.529 143.665C167.543 141.59 165.624 139.434 163.676 137.312C161.795 135.264 159.734 133.355 158.114 131.019C156.323 128.436 154.176 126.161 152.339 123.594C151.344 122.204 150.296 120.851 149.346 119.42C148.67 118.402 148.07 116.846 147.243 116.001C146.466 115.207 145.471 116.053 144.704 116.448ZM86.6704 162.354C87.2137 162.77 87.1698 162.986 87.1826 163.626C87.2089 164.937 87.2125 166.227 87.3398 167.541C87.7744 172.035 89.0654 176.558 90.3771 180.853C91.6862 185.138 93.7757 188.953 96.5694 192.218C99.2761 195.381 102.308 197.759 105.983 198.929C106.614 199.129 109.098 199.839 109.112 200.864C109.123 201.636 107.856 201.405 107.408 201.368C101.059 200.842 94.8428 195.268 90.7857 189.797C89.1062 187.533 87.8752 185.152 86.7246 182.534C86.5564 182.152 84.1569 176.738 84.6442 176.585C83.575 172.739 82.6698 167.999 83.6697 164.115C84.0433 162.665 85.244 161.26 86.6704 162.354ZM76.1643 164.932C76.089 167.974 76.7642 170.956 77.3746 173.926C77.4858 174.467 78.0271 176.103 77.2475 176.197C76.6965 176.263 75.9953 174.709 75.7931 174.314C74.5672 171.917 73.8136 169.114 73.785 166.381C73.7756 165.516 73.8023 164.46 74.5526 164.036C75.2052 163.668 76.0746 163.994 76.1643 164.932ZM216.5 128.056C216.189 128.305 216.097 128.696 216.06 129.116C213.811 132.214 211.073 135.305 208.242 137.694C205.712 139.829 202.581 141.065 199.645 142.322C192.931 145.198 186.078 147.035 178.733 145.928C182.084 148.524 185.333 152.169 189.246 153.533C191.191 154.211 193.072 153.304 194.773 152.397C196.86 151.283 198.958 150.151 200.933 148.804C204.666 146.259 208.648 143.467 211.518 139.68C212.79 138.001 213.729 136.029 214.505 133.98C214.949 132.807 215.286 131.575 215.739 130.408C215.999 129.736 216.667 128.851 216.5 128.056ZM177.81 78.4854C177.954 80.016 177.395 81.4127 176.922 82.766C176.6 83.6862 175.87 84.8515 176.451 85.741C177.141 86.7967 178.867 87.2615 179.827 87.904C181.248 88.8552 182.608 89.9258 183.953 91.0199C186.364 92.9833 188.837 94.8645 191.213 96.884C193.471 98.8026 195.68 100.772 198.317 101.902C204.108 104.381 209.487 108.287 214.794 111.97C220.205 115.724 225.596 119.72 230.513 124.335C233.144 126.804 235.453 129.61 237.543 132.684C238.618 134.266 239.744 135.801 240.82 137.382C241.296 138.081 241.814 138.751 242.262 139.476C242.594 140.014 242.902 140.922 243.412 141.278C243.917 138.886 242.071 136.132 240.952 134.233C240.188 132.936 239.432 131.631 238.674 130.329C238.141 129.415 237.174 128.365 236.954 127.285C236.419 124.658 239.656 126.083 240.597 126.799C242.926 128.573 244.586 131.54 246.416 133.913C246.409 131.787 242.341 129.166 243.515 127.121C244.446 125.498 247.14 128.504 247.939 129.306C247.968 126.671 246.414 124.352 244.883 122.496C243.176 120.428 241.28 118.506 239.364 116.706C234.887 112.497 229.968 108.904 225.102 105.355C220.262 101.825 215.328 98.4855 210.406 95.1174C205.628 91.8469 200.787 88.5868 195.649 86.1823C192.769 84.834 189.809 83.7958 186.893 82.5742C183.84 81.2951 180.883 79.6961 177.81 78.4854ZM140.733 78.5405C140.618 78.5952 139.934 78.8069 139.894 78.887C139.717 79.2365 140.185 80.197 140.484 80.3346C139.688 81.2922 138.766 82.196 137.607 82.5136C138.487 83.2391 140.137 84.4899 140.141 85.8907C140.145 87.8177 137.991 86.8171 137.113 86.377C135.703 85.6702 134.257 84.9125 133.11 83.6873C132.381 82.9099 132.031 82.0167 131.439 81.148C131.117 80.676 131.241 80.561 130.707 80.6116C130.098 80.6702 129.175 81.5034 128.66 81.8587C127.863 82.408 127.099 83.0166 126.374 83.6815C125.038 84.9087 123.831 86.3301 122.831 87.9319C120.762 91.2474 119.662 95.3395 120.124 99.5483C121.888 99.0052 123.506 97.8125 124.842 96.4357C125.793 95.4554 126.744 94.3307 127.305 96.5677C127.523 97.4391 127.646 99.5309 127.302 100.289C126.98 100.997 126.712 100.509 126.332 100.964C125.894 101.49 126.268 102.084 126.369 102.707C126.083 102.507 125.798 102.306 125.513 102.106C125.178 102.856 125.623 102.411 125.858 102.793C125.995 103.016 125.436 103.812 125.322 103.956C125.086 104.253 124.898 104.07 124.64 104.483C124.475 104.75 124.34 105.308 124.167 105.635C123.27 107.325 125.166 109.434 126.024 110.93C126.659 112.038 127.331 113.116 127.982 114.212C128.459 115.013 128.807 116 129.384 116.716C130.528 118.138 132.425 116.95 133.723 116.542C135.484 115.987 137.211 115.432 138.984 114.94C140.023 114.652 141.102 113.741 139.592 113.035C138.093 112.336 133.406 112.921 132.99 110.56C132.548 108.05 135.484 107.142 137.026 107.113C139.281 107.069 140.811 107.484 142.634 109.173C141.694 105.539 138.946 102.854 137.841 99.2347C137.54 98.2515 136.11 92.1227 138.624 94.4613C139.97 95.7139 141.205 97.7404 142.298 99.2646C143.952 101.572 145.462 104.004 147.024 106.391C148.514 108.669 150.496 110.768 151.686 113.256C152.355 114.656 153.458 117.647 154.944 118.174C155.896 118.513 157.268 117.643 158.145 117.343C158.687 117.157 159.216 116.976 159.633 116.523C159.849 116.289 160.012 115.747 160.315 115.64C161.19 115.331 161.683 116.893 161.742 117.64C161.833 118.792 161.432 119.16 160.542 119.441C162.221 120.065 160.301 123.189 160.064 124.349C160.033 124.296 159.639 123.573 159.438 123.607C159.041 123.673 161.262 127.114 161.426 127.351C162.566 129.001 163.894 130.435 165.193 131.915C165.94 132.766 167.158 134.867 168.328 134.459C168.976 134.233 170.102 132.409 170.805 133.419C171.439 134.33 170.151 135.629 170.059 136.45C169.905 137.829 171.519 138.988 172.449 139.546C174.916 141.024 177.797 140.998 180.452 141.132C179.836 140.444 178.7 140.199 178.5 139.102C178.363 138.356 178.751 137.873 178.311 137.109C177.949 136.479 177.251 136.193 176.945 135.505C176.607 134.746 176.789 133.792 177.057 133.076C178.191 130.041 181.926 130.618 184.211 131.54C184.07 131.644 183.961 131.778 183.884 131.943L183.866 131.985L183.871 131.98C184.107 131.746 185.361 132.153 185.524 132.25C186.042 132.558 186.802 133.348 187.206 133.848C188.509 135.458 189.006 137.598 188.809 139.696C195.15 138.662 200.803 135.722 205.966 131.663C207.146 130.737 208.344 130.071 209.425 128.97C210.536 127.84 211.567 126.618 212.648 125.453C213.664 124.359 213.471 123.834 212.482 122.675C211.278 121.265 210.17 119.733 208.876 118.429C208.781 118.865 208.851 119.693 208.546 120.001C208.209 120.34 207.768 119.846 207.545 120.097C207.565 120.075 206.991 121.678 206.8 121.333C207.294 122.226 205.837 121.842 205.568 121.705C205.769 122.585 205.259 123.453 204.709 122.324C203.908 123.512 201.459 122.943 202.438 121.152C202.921 120.268 203.518 119.742 203.736 118.655C203.979 117.439 203.918 116.117 203.77 114.869C203.421 111.926 201.839 110.784 199.827 109.167C198.703 108.265 197.546 107.423 196.4 106.559C195.393 105.801 194.468 104.809 193.429 104.123C192.683 103.63 192.138 103.543 191.593 104.165C191.369 104.421 191.329 104.707 191.029 104.968C190.645 105.302 190.039 105.569 189.574 105.715C187.236 106.453 184.309 105.95 181.948 105.279C181.301 105.095 180.939 104.684 180.362 104.42C179.997 104.253 179.738 104.432 179.347 104.226C178.322 103.686 178.188 102.574 178.711 101.606C179.936 99.3379 182.463 100.787 183.785 98.9005C185.433 96.5503 181.677 94.2845 180.143 93.2608C178.914 92.4411 177.963 92.3755 176.617 92.3272C176.335 92.317 174.426 92.0043 175.202 92.7749C173.788 92.962 173.098 93.0814 172.132 94.2875C171.878 94.6036 171.525 94.9213 171.517 95.3916C171.514 95.6397 171.949 95.6184 171.949 95.6159C171.918 95.7873 171.536 96.1515 171.483 96.2131C172.223 96.195 172.305 97.8797 172.12 97.9195L172.109 97.9197L172.133 97.9376C172.506 98.2344 171.88 98.8873 171.653 99.0169C171.007 99.3848 170.264 98.9351 169.714 98.4546C168.483 97.379 167.391 95.3857 167.176 93.6515C166.874 91.2176 168.011 89.5926 168.841 87.5957C169.463 86.1016 168.093 85.5844 167.082 84.8752C165.845 84.0082 164.186 82.9647 163.564 81.3634C162.998 79.9048 163.8 79.2434 165.009 79.5126C166.644 79.8761 168.143 81.253 169.664 82.0196C171.014 82.6999 172.829 84.2424 174.321 84.1042C173.867 83.0284 172.547 83.3657 171.893 82.6184C171.029 81.631 172.013 80.9676 172.838 80.9625C173.478 80.9583 175.511 82.2057 175.175 80.44C174.995 79.494 173.581 79.398 172.943 79.22C169.702 78.316 166.46 77.8676 163.159 77.7424C162.088 77.7021 161.847 77.8919 161.524 79.0616C161.414 79.4587 161.081 81.258 160.562 80.1857C160.275 81.1805 160.308 82.1853 159.416 82.712C158.282 83.3819 156.61 82.9367 155.406 82.5766C154.372 82.2675 153.355 81.7634 152.578 80.8687C152.192 80.424 151.879 79.9112 151.639 79.3495C151.436 78.8726 151.361 78.0486 151.066 77.6334C150.572 76.939 149.716 77.2458 149.022 77.2816C147.472 77.3615 145.945 77.4544 144.411 77.683C143.137 77.8732 141.909 77.9813 140.733 78.5405ZM184.636 139.465C184.182 139.747 185.157 140.284 185.43 140.158C185.277 139.957 184.964 139.261 184.636 139.465ZM183.866 131.985L183.855 131.999C183.841 132.019 183.833 132.044 183.833 132.073C183.84 132.05 183.848 132.028 183.857 132.007L183.866 131.985ZM190.699 112.597C191.21 112.956 191.195 113.982 191.597 114.545C192.671 116.054 194.39 117.434 195.923 118.201C197.573 119.027 198.498 120.297 199.174 122.17C199.314 122.557 199.63 123.075 199.588 123.506C199.548 123.909 199.196 124.098 199.137 124.461C199.11 124.627 199.529 125.809 199.503 125.817C199.378 125.856 198.907 125.304 198.909 125.307C198.831 125.756 198.961 126.23 198.601 126.522L198.557 126.555L198.564 126.559C198.678 126.632 199.2 126.995 199.108 127.108C198.98 127.266 198.598 127.234 198.423 127.342C198.147 127.513 197.984 127.854 197.723 128.043C197.022 128.55 196.123 128.576 195.296 128.572C193.553 128.565 191.53 128.171 190.065 126.909C188.291 125.381 188.344 123.488 187.886 121.524C187.373 119.32 188.203 115.717 189.032 113.809C189.314 113.157 189.912 112.046 190.699 112.597ZM65.8557 115.158C65.8028 115.438 65.9655 115.833 65.9564 116.132C65.9385 116.737 65.7298 117.298 65.5286 117.836C65.152 118.844 64.7596 119.774 64.5697 120.873C64.1033 123.568 63.7333 126.452 63.7518 129.227C63.7924 135.183 67.6008 139.481 68.6883 145.112C69.8008 143.182 71.9015 142.756 73.7843 142.444C76.2899 142.029 78.7932 141.747 81.332 141.595C86.1887 141.304 91.1043 140.706 95.963 141.999C96.4979 142.141 96.8876 142.177 97.4079 142.217C97.9795 142.262 97.6395 142.01 98.1032 142.323C98.228 142.407 98.331 142.768 98.4651 142.879C99.1585 143.449 99.435 142.939 99.814 142.145C100.857 139.957 101.925 137.949 103.43 136.136C106.635 132.273 110.574 130.088 115.1 128.853C117.694 128.145 120.245 127.565 122.901 127.163C125.436 126.778 128.117 126.396 130.687 127.059C129.767 125.171 128.458 123.558 127.333 121.829C126.787 120.99 126.262 120.1 125.619 119.35C125.054 118.691 124.284 118.203 123.839 117.418C123.811 117.595 123.784 117.772 123.756 117.948C118.622 117.12 113.459 117.065 108.316 116.951C103.149 116.837 97.9865 116.352 92.8208 116.175C90.2271 116.086 87.6567 116.197 85.0717 116.275C82.5834 116.351 80.1324 116.105 77.6435 115.962C75.1229 115.817 72.6486 115.547 70.1352 115.191C69.0814 115.042 68.0618 114.765 67.0245 114.548C66.1972 114.375 66.0098 114.34 65.8557 115.158ZM175.205 107.899C175.464 108.57 175.145 109.542 175.104 110.226C175.057 111.001 174.739 111.36 174.659 112.072C174.59 112.689 175.399 115.773 173.948 115.049C174.025 115.268 174.289 115.541 174.344 115.738C174.412 115.983 174.266 116.399 174.361 116.604C174.447 116.789 175.11 117.264 175.301 117.565C176.054 118.747 176.678 120.148 177.173 121.489C177.688 122.887 178.355 124.832 177.489 125.997C177.281 126.276 177.076 126.376 176.87 126.705C176.883 126.976 176.815 127.213 176.664 127.415C176.571 127.464 176.488 127.448 176.414 127.369C176.133 127.617 176.102 126.77 175.865 127.637C175.808 127.846 176.077 128.488 175.987 128.432C175.822 128.332 175.3 127.874 175.157 127.887C174.923 128.439 174.847 127.929 174.525 128.054C174.546 128.264 174.467 128.394 174.291 128.444C174.144 128.429 173.997 128.414 173.85 128.4C173.001 128.544 171.678 128.334 170.819 128.205C169.179 127.958 167.864 126.893 167.218 125.058C165.872 121.237 167.916 115.853 169.484 112.659C170.019 111.568 173.865 104.427 175.205 107.899ZM190.86 118.364C190.892 118.698 191.061 119.178 190.748 119.266C190.701 118.891 190.489 118.435 190.86 118.364ZM168.6 121.418C168.901 122.348 168.845 121.798 168.623 122.507C168.449 122.139 168.441 121.777 168.6 121.418ZM191.991 116.343C192.147 116.505 192.712 116.92 192.316 117.115C191.969 117.285 192.012 116.571 191.991 116.343ZM173.361 112.599C173.362 113.651 173.822 113.324 174.479 113.026C174.106 112.883 173.733 112.741 173.361 112.599ZM39.1438 92.0179C36.3856 95.8435 37.2239 101.61 38.0825 106.221C39.2493 112.487 40.6057 118.74 42.1493 124.916C42.8467 127.707 43.7754 129.034 46.3307 129.591C49.0989 130.193 51.8677 129.538 54.5356 128.916C53.259 124.335 51.2486 118.362 54.7653 114.601C55.0871 114.257 55.3897 113.992 55.8334 113.892C56.1264 113.826 56.6018 114.069 56.8567 113.863C57.3722 113.448 56.8979 112.586 56.6274 112.098C55.8051 110.616 54.5201 109.533 53.4266 108.34C52.0532 106.843 51.1156 107.043 49.5068 107.517C48.8655 107.707 46.3451 108.468 46.587 106.759C46.7626 105.517 48.8347 105.483 49.61 105.075C50.1976 104.766 50.3095 104.654 50.1624 103.919C49.932 102.772 49.3117 102.551 48.4338 102.727C47.3045 102.952 45.4525 103.975 44.3373 103.09C42.7447 101.826 44.5782 100.461 45.5609 100.093C46.5896 99.7092 48.0427 99.6695 48.0384 98.0987C48.034 96.6006 47.0838 94.9416 46.3568 93.7404C45.6533 92.5784 44.7107 91.1051 43.5442 90.5288C41.8984 89.7159 40.1738 90.5891 39.1438 92.0179ZM56.4106 117.406C55.1294 117.973 54.69 120.126 54.7656 121.568C54.839 122.964 55.2604 124.903 56.2962 125.816C57.6558 127.013 59.6176 126.598 61.0497 127.696C61.0813 124.486 61.5912 121.318 62.4497 118.314C61.3583 118.151 60.2774 117.886 59.1918 117.667C58.3975 117.507 57.1799 117.065 56.4106 117.406ZM143.401 110.126C143.75 110.376 143.86 110.451 144.013 110.907C143.31 111.075 143.481 110.774 143.401 110.126ZM146.845 86.7649C147.964 86.6169 148.553 86.9513 149.548 87.4262C150.257 87.7649 150.951 87.1628 151.135 88.2868C152.681 86.3287 156.771 90.0665 158.228 90.9827C159.765 91.9489 161.316 93.1285 161.81 95.2197C161.956 95.839 161.949 96.4992 162.132 97.1099C162.27 97.5699 162.602 97.9978 162.638 98.4923C162.679 99.0657 162.322 99.463 162.314 100.01C162.311 100.226 162.508 100.628 162.456 100.811C161.924 102.681 161.113 104.277 159.353 104.74C157.82 105.144 155.995 104.778 154.654 103.699C153.464 102.742 152.59 101.16 152.073 99.6318C151.983 99.3674 151.968 98.7307 151.853 98.5135C151.687 98.1968 151.518 98.2185 151.335 97.9702C150.85 97.3116 150.101 96.0434 150.449 95.176C149.323 95.6771 147.949 92.889 147.371 92.105C146.937 91.5181 146.061 91.1461 145.739 90.5588C145.297 89.7533 146.324 89.2093 145.85 88.6753C145.597 88.3894 144.55 88.7828 144.526 87.967C144.504 87.2123 146.418 86.8212 146.845 86.7649ZM172.071 97.8968C172.084 97.9109 172.097 97.9183 172.108 97.9199L172.109 97.9197L172.104 97.9165L172.071 97.8968ZM167.92 92.006C168.006 91.8873 168.448 91.154 168.591 91.6266C168.708 92.0138 168.084 91.9793 167.92 92.006ZM108.693 50.1547C107.52 50.4326 106.705 52.0959 105.948 53.0227C104.818 54.4063 103.398 55.5184 101.948 56.4206C100.259 57.4702 98.5067 58.4452 96.7403 59.3207C94.9487 60.2089 93.0032 60.6481 91.2212 61.558C92.4746 63.387 93.7282 65.2163 94.9818 67.0455C95.2833 66.3256 95.0235 65.6107 95.6185 65.0315C96.0313 64.6295 96.6986 64.4749 97.2058 64.2684C98.6176 63.6935 100.179 63.1337 101.724 63.2384C102.721 63.306 103.93 63.992 103.216 65.3416C102.766 66.1932 101.498 66.2 101.594 67.4204C101.685 68.5896 102.859 69.4154 102.823 70.6666C102.771 72.4252 101.224 72.1534 100.393 71.1574C99.6518 70.2693 99.587 68.4856 98.575 67.9231C97.9713 67.5875 96.5169 67.6682 96 68.124C97.4289 70.2236 99.9427 72.6898 99.1791 75.6029C98.9443 76.4979 98.1861 76.9481 98.8629 77.6796C99.6433 78.5232 101.577 79.0077 102.492 78.5613C103.349 78.1435 104.188 76.7948 105.296 77.2138C106.343 77.6092 105.818 78.6559 106.043 79.5082C106.723 82.0753 111.08 79.8374 112.272 79.2876C113.468 78.7362 114.638 77.6831 115.925 77.4377C117.14 77.2061 118.383 77.7053 119.48 78.3486C120.302 78.8304 121.792 80.3887 122.719 80.2976C123.65 80.2062 124.697 78.4072 125.431 77.7946C126.749 76.6951 128.302 76.186 129.754 75.3597C129.985 75.2287 131.015 74.7975 130.966 74.378C130.919 73.9749 129.509 73.3061 129.263 73.15C127.012 71.7243 125.18 69.5516 122.868 68.2498C121.837 67.6692 120.768 67.3158 119.649 67.1612C119.028 67.0757 117.378 67.0929 117.176 66.119C119.922 65.1035 119.322 60.975 117.745 58.8355C116.742 57.475 115.446 56.9613 114.007 57.5238C111.922 58.3391 111.827 60.2432 111.688 62.5068C109.74 61.6774 107.37 59.2552 106.872 56.8613C106.318 54.1998 108.604 52.6437 108.693 50.1547ZM164.337 59.5744C167.418 59.7313 170.469 60.1128 173.521 60.7832C175.401 61.1962 178.068 61.3799 179.809 62.4458C180.318 62.7574 181.017 63.5107 180.72 64.2521C180.465 64.8914 179.581 64.8746 179.059 64.8666C176.687 64.8301 174.247 64.0763 171.868 63.8431C165.546 63.2237 159.207 63.4821 152.932 63.977C151.202 64.1137 149.473 64.2698 147.743 64.4085C146.302 64.5244 144.748 64.8317 143.295 64.6843C142.149 64.5681 141.723 63.6742 142.372 62.4835C143.006 61.323 144.377 61.2642 145.42 60.9011C151.591 59.4076 157.984 59.2506 164.337 59.5744ZM152.61 52.8519C154.768 53.3335 152.463 54.1066 151.564 54.1659C151.258 54.1862 147.222 54.3751 147.245 54.5168C146.454 54.6457 144.477 55.6904 143.757 54.8529C142.984 53.9536 145.539 53.1772 146.059 53.0468C148.061 52.5458 150.532 52.3885 152.61 52.8519Z" fill="#2D4710"/>
</svg>
