<?xml version="1.0" encoding="UTF-8" standalone="no"?><svg width="20" height="22" viewBox="0 0 20 22" fill="none" xmlns="http://www.w3.org/2000/svg">
<path d="M11.1621 5.01473C10.7806 4.96933 10.393 4.94332 10 4.93685C8.28292 4.94523 6.50295 5.40466 4.81812 6.28501C3.56715 6.96558 2.34857 7.92637 1.29028 9.11153C0.770533 9.71653 0.107183 10.5925 0 11.5272C0.0126667 12.3368 0.80255 13.3361 1.29028 13.9428C2.28267 15.0814 3.46952 16.0147 4.81812 16.7694C4.86395 16.7938 4.90995 16.818 4.95605 16.8419L3.70485 19.2454L5.40493 20.3506L14.5952 2.75005L12.9588 1.6499L11.1621 5.01473V5.01473ZM15.0427 6.21518L13.7939 8.59589C14.3684 9.41689 14.7095 10.4293 14.7095 11.5272C14.7095 14.2635 12.6008 16.482 9.99877 16.482C9.88628 16.482 9.77727 16.4687 9.66673 16.4605L8.84032 18.0343C9.22145 18.0792 9.60682 18.1119 9.99998 18.1175C11.7187 18.109 13.4977 17.6443 15.1807 16.7694C16.4316 16.0888 17.6514 15.128 18.7097 13.9428C19.2295 13.3379 19.8928 12.4618 20 11.5272C19.9873 10.7175 19.1974 9.71824 18.7097 9.11151C17.7173 7.9729 16.5293 7.03961 15.1807 6.28497C15.1351 6.2607 15.0885 6.23886 15.0427 6.21518V6.21518ZM9.99878 6.57236C10.1129 6.57236 10.2261 6.57739 10.3381 6.58578L9.37012 8.4294C8.01155 8.73238 6.99218 10.0039 6.99218 11.5258C6.99218 11.9082 7.0562 12.2742 7.17407 12.6135C7.1742 12.6139 7.17393 12.6144 7.17407 12.6148L6.2036 14.4638C5.62775 13.6421 5.28807 12.6263 5.28807 11.5271C5.28808 8.79081 7.3968 6.57235 9.99878 6.57236V6.57236ZM12.8149 10.4597L10.6336 14.6169C11.9848 14.3082 12.9968 13.0425 12.9968 11.5258C12.9968 11.1505 12.9287 10.7936 12.8149 10.4597V10.4597Z" fill="#C4C4C4" fill-opacity="0.5"/>
</svg>
