<?xml version="1.0" encoding="UTF-8" standalone="no"?><svg width="264" height="294" viewBox="0 0 264 294" fill="none" xmlns="http://www.w3.org/2000/svg">
<g filter="url(#filter0_d_127_930)">
<rect x="4" width="256" height="286" rx="20" fill="#4B4453"/>
<rect x="28" y="27" width="208" height="187" rx="20" fill="#ACFFAD"/>
<path d="M108.881 244.27C107.35 244.27 106.584 244.88 106.584 246.102V255.891C106.584 257.695 107.181 259.172 108.375 260.32C109.569 261.46 111.1 262.029 112.969 262.029C114.91 262.029 116.501 261.51 117.74 260.471C118.989 259.423 119.613 257.973 119.613 256.123V247.428C119.613 246.562 119.536 245.96 119.381 245.623C118.989 244.721 118.105 244.27 116.729 244.27C116.656 244.27 116.619 244.233 116.619 244.16V243.832C116.619 243.759 116.656 243.723 116.729 243.723H123.455C123.528 243.723 123.564 243.759 123.564 243.832V244.16C123.564 244.233 123.464 244.27 123.264 244.27C122.07 244.27 121.34 244.734 121.076 245.664C121.031 245.819 121.008 245.965 121.008 246.102V255.057C121.008 259.058 119.477 261.633 116.414 262.781C115.384 263.173 114.359 263.369 113.338 263.369C109.683 263.369 106.99 262.412 105.258 260.498C104.365 259.514 103.918 258.297 103.918 256.848V245.91C103.918 245.135 103.449 244.625 102.51 244.379C102.236 244.306 102.004 244.27 101.812 244.27C101.621 244.27 101.525 244.233 101.525 244.16V243.832C101.525 243.759 101.557 243.723 101.621 243.723H109.031C109.104 243.723 109.141 243.759 109.141 243.832V244.16C109.141 244.233 109.054 244.27 108.881 244.27ZM128.172 252.486C128.117 252.486 128.09 252.527 128.09 252.609V260.156C128.09 260.703 128.208 261.132 128.445 261.441C128.691 261.751 129.001 261.906 129.375 261.906C129.749 261.906 130.072 261.847 130.346 261.729C130.628 261.601 130.87 261.464 131.07 261.318C131.28 261.173 131.467 261.04 131.631 260.922C131.795 260.794 131.941 260.73 132.068 260.73C132.196 260.73 132.26 260.762 132.26 260.826C132.26 261.045 132.237 261.186 132.191 261.25C131.098 262.663 130.04 263.369 129.02 263.369C128.008 263.369 127.242 263.05 126.723 262.412C126.212 261.765 125.957 260.995 125.957 260.102V252.486H124.932C124.676 252.486 124.54 252.404 124.521 252.24C124.512 252.076 124.54 251.971 124.604 251.926C125.087 251.616 125.752 251.06 126.6 250.258C126.691 250.158 126.814 250.007 126.969 249.807C127.124 249.606 127.347 249.333 127.639 248.986C127.939 248.64 128.167 248.467 128.322 248.467C128.477 248.467 128.555 248.531 128.555 248.658C128.555 248.676 128.4 249.273 128.09 250.449C128.09 250.613 128.163 250.7 128.309 250.709H131.795C132.196 250.709 132.396 251.274 132.396 252.404C132.396 252.459 132.36 252.486 132.287 252.486H128.172ZM142.158 260.744C142.158 260.981 142.268 261.173 142.486 261.318C142.714 261.455 142.974 261.523 143.266 261.523C143.557 261.523 143.799 261.451 143.99 261.305C144.191 261.15 144.327 261.072 144.4 261.072C144.473 261.072 144.51 261.173 144.51 261.373C144.51 261.564 144.419 261.729 144.236 261.865C142.869 262.868 141.944 263.369 141.461 263.369C140.878 263.369 140.404 262.763 140.039 261.551C140.012 261.46 139.989 261.419 139.971 261.428C138.84 262.275 138.13 262.786 137.838 262.959C137.09 263.387 136.339 263.456 135.582 263.164C134.835 262.872 134.292 262.389 133.955 261.715C133.791 261.368 133.709 260.999 133.709 260.607C133.709 259.833 133.996 259.217 134.57 258.762C135.145 258.306 136.238 257.868 137.852 257.449C138.398 257.303 138.886 257.117 139.314 256.889C139.743 256.661 139.966 256.515 139.984 256.451C140.012 256.387 140.025 256.328 140.025 256.273V253.648C140.025 252.618 139.624 251.894 138.822 251.475C138.558 251.338 138.239 251.27 137.865 251.27C137.501 251.27 137.127 251.415 136.744 251.707C136.37 251.999 136.184 252.413 136.184 252.951L136.252 253.484C136.197 253.594 135.869 253.776 135.268 254.031C134.666 254.286 134.32 254.423 134.229 254.441C134.083 254.441 134.01 254.268 134.01 253.922C134.01 253.566 134.115 253.174 134.324 252.746C134.534 252.318 134.83 251.926 135.213 251.57C136.106 250.741 137.127 250.326 138.275 250.326C139.424 250.326 140.358 250.645 141.078 251.283C141.798 251.912 142.158 252.664 142.158 253.539V260.744ZM135.855 260.348C135.855 260.785 136.024 261.168 136.361 261.496C136.699 261.815 137.081 261.975 137.51 261.975C137.947 261.975 138.476 261.792 139.096 261.428C139.715 261.054 140.025 260.671 140.025 260.279V257.504C140.025 257.404 140.003 257.354 139.957 257.354C139.911 257.354 139.88 257.358 139.861 257.367L136.689 258.844C136.361 259.081 136.138 259.281 136.02 259.445C135.91 259.609 135.855 259.91 135.855 260.348ZM154.135 253.197C154.025 253.179 153.866 253.12 153.656 253.02C152.9 252.673 152.307 252.5 151.879 252.5C151.451 252.5 150.999 252.769 150.525 253.307C150.061 253.835 149.828 254.314 149.828 254.742V260.922C149.828 261.605 150.225 262.061 151.018 262.289C151.364 262.38 151.688 262.449 151.988 262.494C152.289 262.531 152.48 262.567 152.562 262.604C152.654 262.64 152.699 262.713 152.699 262.822C152.699 262.923 152.654 262.982 152.562 263H145.713C145.622 262.982 145.576 262.918 145.576 262.809C145.576 262.645 145.79 262.535 146.219 262.48C147.203 262.335 147.695 261.815 147.695 260.922V253.689C147.695 253.307 147.486 253.042 147.066 252.896C146.884 252.833 146.688 252.783 146.479 252.746C146.269 252.701 146.1 252.66 145.973 252.623C145.854 252.587 145.777 252.555 145.74 252.527C145.713 252.491 145.699 252.423 145.699 252.322C145.699 252.213 145.768 252.122 145.904 252.049L149.391 250.408C149.5 250.354 149.568 250.326 149.596 250.326C149.751 250.326 149.828 250.436 149.828 250.654V252.869C149.828 252.979 149.855 253.033 149.91 253.033C149.983 253.033 150.17 252.819 150.471 252.391C151.337 251.178 152.052 250.572 152.617 250.572C152.936 250.572 153.424 250.7 154.08 250.955C154.745 251.21 155.078 251.424 155.078 251.598C155.078 251.807 154.973 252.126 154.764 252.555C154.554 252.983 154.344 253.197 154.135 253.197ZM156.049 263C155.958 262.982 155.912 262.918 155.912 262.809C155.912 262.645 156.126 262.535 156.555 262.48C157.539 262.335 158.031 261.815 158.031 260.922V253.689C158.031 253.307 157.822 253.042 157.402 252.896C157.22 252.833 157.024 252.783 156.814 252.746C156.605 252.701 156.436 252.66 156.309 252.623C156.19 252.587 156.113 252.555 156.076 252.527C156.049 252.491 156.035 252.423 156.035 252.322C156.035 252.213 156.104 252.122 156.24 252.049L159.727 250.408C159.836 250.354 159.904 250.326 159.932 250.326C160.087 250.326 160.164 250.436 160.164 250.654V260.922C160.164 261.815 160.656 262.335 161.641 262.48C162.069 262.535 162.283 262.631 162.283 262.768C162.283 262.904 162.238 262.982 162.146 263H156.049ZM158.893 246.484C158.519 246.484 158.186 246.366 157.895 246.129C157.612 245.892 157.471 245.564 157.471 245.145C157.471 244.716 157.607 244.379 157.881 244.133C158.154 243.887 158.478 243.764 158.852 243.764C159.234 243.764 159.553 243.91 159.809 244.201C160.073 244.493 160.205 244.807 160.205 245.145C160.205 245.482 160.082 245.792 159.836 246.074C159.59 246.348 159.275 246.484 158.893 246.484Z" fill="#FDFDFC"/>
</g>
<defs>
<filter id="filter0_d_127_930" x="0" y="0" width="264" height="294" filterUnits="userSpaceOnUse" color-interpolation-filters="sRGB">
<feFlood flood-opacity="0" result="BackgroundImageFix"/>
<feColorMatrix in="SourceAlpha" type="matrix" values="0 0 0 0 0 0 0 0 0 0 0 0 0 0 0 0 0 0 127 0" result="hardAlpha"/>
<feOffset dy="4"/>
<feGaussianBlur stdDeviation="2"/>
<feComposite in2="hardAlpha" operator="out"/>
<feColorMatrix type="matrix" values="0 0 0 0 0.482353 0 0 0 0 0.380392 0 0 0 0 1 0 0 0 0.25 0"/>
<feBlend mode="normal" in2="BackgroundImageFix" result="effect1_dropShadow_127_930"/>
<feBlend mode="normal" in="SourceGraphic" in2="effect1_dropShadow_127_930" result="shape"/>
</filter>
</defs>
</svg>
