<?xml version="1.0" encoding="UTF-8" standalone="no"?><svg width="80" height="80" viewBox="0 0 80 80" fill="none" xmlns="http://www.w3.org/2000/svg">
<circle cx="40" cy="40" r="40" fill="#ACFFAD" fill-opacity="0.2"/>
<path d="M51.6362 41.6696V35.8004C51.6362 34.9674 52.3178 34.29 53.1555 34.29C53.5559 34.2902 53.94 34.4493 54.2231 34.7326C54.5062 35.0158 54.6653 35.3999 54.6653 35.8004V43.8371C54.665 44.9456 54.2689 46.0176 53.5483 46.86L48.5369 52.1822C48.0395 52.6505 47.9176 53.0649 47.9176 53.693V54.6619H42.4628L42.4567 52.3566C42.4567 51.4786 42.385 50.3053 43.4837 49.1541L49.8428 42.7688C50.0645 42.5474 50.3636 42.421 50.6768 42.4161C50.99 42.4113 51.2929 42.5285 51.5213 42.743C51.7497 42.9574 51.8857 43.2523 51.9006 43.5652C51.9155 43.8781 51.8081 44.1846 51.6011 44.4197L48.534 47.7052C48.3353 47.9382 47.9987 48.3774 47.8319 48.9155C47.7419 49.1949 47.7161 49.4672 47.7109 49.7799H48.6981C48.7019 49.5572 48.7187 49.3782 48.7717 49.2122C48.8683 48.9019 49.0605 48.6225 49.2053 48.4435L52.3187 45.0263C52.7101 44.6316 52.9248 44.1207 52.9248 43.5835C52.9248 42.7768 52.4397 42.0347 51.6372 41.6691L51.6362 41.6696Z" fill="#2D4710"/>
<path d="M28.6558 41.6696V35.8004C28.6558 34.9674 27.9742 34.29 27.1366 34.29C26.7361 34.2902 26.352 34.4493 26.0689 34.7326C25.7858 35.0158 25.6267 35.3999 25.6267 35.8004V43.8371C25.6267 44.9485 26.0266 46.0219 26.7442 46.86L31.7561 52.1822C32.253 52.6505 32.3753 53.0649 32.3753 53.693V54.6619H37.8301L37.8362 52.3566C37.8362 51.4786 37.908 50.3053 36.8092 49.1541L30.4501 42.7688C30.2285 42.5474 29.9294 42.421 29.6161 42.4161C29.3029 42.4113 29.0001 42.5285 28.7717 42.743C28.5433 42.9574 28.4073 43.2523 28.3924 43.5652C28.3775 43.8781 28.4849 44.1846 28.6919 44.4197L31.7594 47.7052C31.9581 47.9382 32.2947 48.3774 32.4616 48.9155C32.552 49.1949 32.5773 49.4672 32.5825 49.7799H31.5953C31.5916 49.5572 31.5751 49.3782 31.5212 49.2122C31.4251 48.9019 31.2325 48.6225 31.0876 48.4435L27.9742 45.0268C27.5828 44.6321 27.3681 44.1207 27.3681 43.5839C27.3681 42.7768 27.8533 42.0347 28.6558 41.6691V41.6696Z" fill="#2D4710"/>
<path d="M40.72 27.8701C41.0635 27.8701 41.3929 27.7336 41.6358 27.4908C41.8787 27.2479 42.0152 26.9184 42.0152 26.5749C42.0152 26.2314 41.8787 25.902 41.6358 25.6591C41.3929 25.4162 41.0635 25.2798 40.72 25.2798C40.3765 25.2798 40.0471 25.4162 39.8042 25.6591C39.5613 25.902 39.4249 26.2314 39.4249 26.5749C39.4249 26.9184 39.5613 27.2479 39.8042 27.4908C40.0471 27.7336 40.3765 27.8701 40.72 27.8701Z" fill="#2D4710"/>
<path d="M33.6948 27.8772C33.523 27.878 33.3527 27.8448 33.1936 27.7797C33.0346 27.7146 32.8899 27.6187 32.7679 27.4977C32.646 27.3766 32.549 27.2327 32.4827 27.0741C32.4164 26.9156 32.382 26.7455 32.3814 26.5736C32.382 26.4018 32.4165 26.2318 32.4828 26.0733C32.5492 25.9148 32.6461 25.7709 32.7681 25.6499C32.8901 25.5289 33.0347 25.4331 33.1937 25.368C33.3527 25.3029 33.523 25.2698 33.6948 25.2705C34.4205 25.2705 35.0102 25.8536 35.0102 26.5736C35.0102 27.2951 34.4205 27.8772 33.6948 27.8772Z" fill="#2D4710"/>
<path d="M47.1536 32.876C47.3945 32.8758 47.6255 32.78 47.7958 32.6096C47.9661 32.4391 48.0617 32.208 48.0616 31.9671C48.0614 31.7261 47.9656 31.4951 47.7952 31.3248C47.6247 31.1545 47.3936 31.059 47.1527 31.0591C47.0334 31.0591 46.9152 31.0827 46.8051 31.1284C46.6949 31.1741 46.5947 31.2411 46.5104 31.3255C46.4261 31.4099 46.3593 31.5101 46.3137 31.6203C46.2681 31.7305 46.2446 31.8487 46.2447 31.968C46.2448 32.0873 46.2683 32.2054 46.314 32.3156C46.3597 32.4258 46.4267 32.5259 46.5111 32.6102C46.5955 32.6945 46.6957 32.7614 46.8059 32.807C46.9162 32.8526 47.0343 32.876 47.1536 32.876Z" fill="#2D4710"/>
<path d="M48.4689 33.3241H46.0187C46.0075 33.3241 45.1989 33.2505 45.1989 33.2505L44.1728 29.6739C43.7598 28.2339 42.5523 28.278 42.5523 28.278H39.2307C39.2307 28.278 38.0242 28.2339 37.6112 29.6739L37.1045 31.435L36.5992 29.6739C36.1839 28.2339 34.9797 28.278 34.9797 28.278H32.4095C32.4095 28.278 31.202 28.2339 30.789 29.6739L29.7545 33.2781C29.6561 33.6156 29.8407 33.8716 30.1361 33.9569C30.4304 34.0408 30.7318 33.8922 30.8073 33.6236L31.8151 30.1103L32.3059 30.1094L30.835 36.1924H32.1348V40.5133C32.1348 40.8691 32.4217 41.1588 32.7784 41.1588C33.1342 41.1588 33.4253 40.8691 33.4253 40.5133V36.1924H33.9704V40.5133C33.9704 40.8691 34.2578 41.1588 34.6136 41.1588C34.785 41.159 34.9496 41.0912 35.0711 40.9701C35.1926 40.8491 35.261 40.6848 35.2614 40.5133V36.1924H36.5387L35.0832 30.1094L35.5722 30.1103L36.5687 33.5866C36.5851 33.6461 36.6118 33.7005 36.6465 33.7474C36.744 33.895 36.9142 33.9766 37.1036 33.9705C37.2929 33.9766 37.4622 33.8955 37.5597 33.7502C37.6003 33.697 37.6292 33.6358 37.6445 33.5706L38.6359 30.1099L39.0878 30.1089V40.3877C39.0878 40.8077 39.4314 41.147 39.8504 41.147C40.27 41.147 40.6098 40.8077 40.6098 40.3877V34.5395H41.1714V40.3877C41.1714 40.8077 41.5117 41.147 41.9298 41.147C42.3503 41.147 42.6948 40.8077 42.6948 40.3877V30.1089L43.1861 30.1099L44.1507 33.6231C44.2032 33.7961 44.3476 33.9105 44.5206 33.9545C44.5281 33.9564 44.5318 33.9597 44.5379 33.9616C44.6917 33.9963 45.4004 34.1974 45.9207 34.3459V40.7209C45.9265 40.8588 45.9853 40.9891 46.0849 41.0846C46.1845 41.1801 46.3172 41.2334 46.4551 41.2334C46.5931 41.2334 46.7257 41.1801 46.8253 41.0846C46.9249 40.9891 46.9837 40.8588 46.9895 40.7209V37.5363H47.4076V40.7209C47.4076 41.0153 47.6462 41.2539 47.9406 41.2539C48.235 41.2539 48.4768 41.0153 48.4768 40.7209V34.7659H48.887V36.7834C48.887 37.0052 49.0665 37.1833 49.2845 37.1833C49.3366 37.183 49.3882 37.1725 49.4362 37.1522C49.4842 37.132 49.5277 37.1024 49.5642 37.0652C49.6007 37.028 49.6295 36.984 49.6489 36.9356C49.6683 36.8873 49.678 36.8356 49.6773 36.7834V34.4884C49.6782 33.8458 49.1125 33.3241 48.4698 33.3241H48.4689Z" fill="#2D4710"/>
</svg>
