<?xml version="1.0" encoding="UTF-8" standalone="no"?><svg width="264" height="294" viewBox="0 0 264 294" fill="none" xmlns="http://www.w3.org/2000/svg">
<g filter="url(#filter0_d_127_932)">
<rect x="5" y="1" width="254" height="284" rx="19" stroke="#4AAE3E" stroke-width="2"/>
<rect x="28" y="27" width="208" height="187" rx="20" fill="#ACFFAD"/>
<path d="M116.236 260.525C116.236 261.756 117.089 262.398 118.793 262.453C118.866 262.453 118.902 262.49 118.902 262.562V262.891C118.902 262.964 118.866 263 118.793 263H110.098C110.025 263 109.988 262.964 109.988 262.891V262.562C109.988 262.49 110.216 262.453 110.672 262.453C111.128 262.453 111.647 262.353 112.23 262.152C113.124 261.861 113.57 261.368 113.57 260.676V254.154C113.57 254.063 113.557 254.004 113.529 253.977C113.502 253.949 113.443 253.936 113.352 253.936H102.578C102.487 253.936 102.428 253.949 102.4 253.977C102.373 254.004 102.359 254.063 102.359 254.154V260.812C102.359 261.906 103.166 262.453 104.779 262.453C104.852 262.453 104.889 262.49 104.889 262.562V262.891C104.889 262.964 104.857 263 104.793 263H97.2461C97.1732 263 97.1367 262.964 97.1367 262.891V262.562C97.1367 262.49 97.2279 262.453 97.4102 262.453C98.9323 262.453 99.6934 261.801 99.6934 260.498V245.91C99.6934 244.844 99.0599 244.279 97.793 244.215C97.6016 244.206 97.5059 244.165 97.5059 244.092V243.832C97.5059 243.759 97.5378 243.723 97.6016 243.723H104.465C104.538 243.723 104.574 243.759 104.574 243.832V244.092C104.574 244.146 104.488 244.174 104.314 244.174C103.011 244.174 102.359 244.816 102.359 246.102V252.418C102.359 252.509 102.373 252.568 102.4 252.596C102.428 252.623 102.487 252.637 102.578 252.637H113.352C113.443 252.637 113.502 252.623 113.529 252.596C113.557 252.568 113.57 252.509 113.57 252.418V245.883C113.552 245.801 113.538 245.728 113.529 245.664C113.529 245.591 113.516 245.482 113.488 245.336C113.424 245.026 113.101 244.775 112.518 244.584C111.934 244.383 111.273 244.256 110.535 244.201C110.462 244.201 110.426 244.165 110.426 244.092V243.832C110.426 243.759 110.458 243.723 110.521 243.723H118.41C118.483 243.723 118.52 243.759 118.52 243.832V244.092C118.52 244.146 118.433 244.174 118.26 244.174C116.911 244.174 116.236 244.816 116.236 246.102V260.525ZM122.881 255.795C122.726 255.795 122.648 256.128 122.648 256.793C122.648 258.206 123.068 259.391 123.906 260.348C124.745 261.305 125.784 261.783 127.023 261.783C128.272 261.783 129.471 261.245 130.619 260.17C130.637 260.152 130.66 260.143 130.688 260.143H130.756C130.811 260.143 130.861 260.188 130.906 260.279C130.961 260.361 131.011 260.416 131.057 260.443C129.999 261.729 128.755 262.617 127.324 263.109C126.832 263.283 126.276 263.369 125.656 263.369C125.036 263.369 124.408 263.201 123.77 262.863C123.132 262.517 122.585 262.066 122.129 261.51C121.163 260.352 120.68 258.912 120.68 257.189C120.68 255.458 121.204 253.881 122.252 252.459C123.309 251.037 124.758 250.326 126.6 250.326C127.921 250.326 129.001 250.919 129.84 252.104C130.678 253.279 131.098 254.314 131.098 255.207C131.098 255.599 131.002 255.795 130.811 255.795H122.881ZM123.031 254.482C123.031 254.656 123.113 254.742 123.277 254.742H128.432C128.669 254.742 128.787 254.601 128.787 254.318C128.787 253.662 128.491 252.992 127.898 252.309C127.315 251.616 126.673 251.27 125.971 251.27C125.287 251.27 124.663 251.579 124.098 252.199C123.542 252.819 123.186 253.525 123.031 254.318V254.482ZM141.707 253.197C141.598 253.179 141.438 253.12 141.229 253.02C140.472 252.673 139.88 252.5 139.451 252.5C139.023 252.5 138.572 252.769 138.098 253.307C137.633 253.835 137.4 254.314 137.4 254.742V260.922C137.4 261.605 137.797 262.061 138.59 262.289C138.936 262.38 139.26 262.449 139.561 262.494C139.861 262.531 140.053 262.567 140.135 262.604C140.226 262.64 140.271 262.713 140.271 262.822C140.271 262.923 140.226 262.982 140.135 263H133.285C133.194 262.982 133.148 262.918 133.148 262.809C133.148 262.645 133.363 262.535 133.791 262.48C134.775 262.335 135.268 261.815 135.268 260.922V253.689C135.268 253.307 135.058 253.042 134.639 252.896C134.456 252.833 134.26 252.783 134.051 252.746C133.841 252.701 133.673 252.66 133.545 252.623C133.426 252.587 133.349 252.555 133.312 252.527C133.285 252.491 133.271 252.423 133.271 252.322C133.271 252.213 133.34 252.122 133.477 252.049L136.963 250.408C137.072 250.354 137.141 250.326 137.168 250.326C137.323 250.326 137.4 250.436 137.4 250.654V252.869C137.4 252.979 137.428 253.033 137.482 253.033C137.555 253.033 137.742 252.819 138.043 252.391C138.909 251.178 139.624 250.572 140.189 250.572C140.508 250.572 140.996 250.7 141.652 250.955C142.318 251.21 142.65 251.424 142.65 251.598C142.65 251.807 142.546 252.126 142.336 252.555C142.126 252.983 141.917 253.197 141.707 253.197ZM151.934 253.197C151.824 253.179 151.665 253.12 151.455 253.02C150.699 252.673 150.106 252.5 149.678 252.5C149.249 252.5 148.798 252.769 148.324 253.307C147.859 253.835 147.627 254.314 147.627 254.742V260.922C147.627 261.605 148.023 262.061 148.816 262.289C149.163 262.38 149.486 262.449 149.787 262.494C150.088 262.531 150.279 262.567 150.361 262.604C150.452 262.64 150.498 262.713 150.498 262.822C150.498 262.923 150.452 262.982 150.361 263H143.512C143.421 262.982 143.375 262.918 143.375 262.809C143.375 262.645 143.589 262.535 144.018 262.48C145.002 262.335 145.494 261.815 145.494 260.922V253.689C145.494 253.307 145.285 253.042 144.865 252.896C144.683 252.833 144.487 252.783 144.277 252.746C144.068 252.701 143.899 252.66 143.771 252.623C143.653 252.587 143.576 252.555 143.539 252.527C143.512 252.491 143.498 252.423 143.498 252.322C143.498 252.213 143.566 252.122 143.703 252.049L147.189 250.408C147.299 250.354 147.367 250.326 147.395 250.326C147.549 250.326 147.627 250.436 147.627 250.654V252.869C147.627 252.979 147.654 253.033 147.709 253.033C147.782 253.033 147.969 252.819 148.27 252.391C149.135 251.178 149.851 250.572 150.416 250.572C150.735 250.572 151.223 250.7 151.879 250.955C152.544 251.21 152.877 251.424 152.877 251.598C152.877 251.807 152.772 252.126 152.562 252.555C152.353 252.983 152.143 253.197 151.934 253.197ZM167.191 250.695C167.292 250.723 167.342 250.786 167.342 250.887C167.342 250.987 167.333 251.055 167.314 251.092C167.296 251.119 167.251 251.146 167.178 251.174C167.114 251.192 167.018 251.21 166.891 251.229C166.772 251.247 166.581 251.283 166.316 251.338C166.052 251.383 165.815 251.566 165.605 251.885C165.396 252.204 165.173 252.646 164.936 253.211L158.51 269.139L157.621 271.025C157.393 271.508 156.915 271.75 156.186 271.75C155.867 271.75 155.611 271.645 155.42 271.436C155.229 271.226 155.133 270.975 155.133 270.684C155.133 270.401 155.201 270.191 155.338 270.055C155.484 269.927 155.652 269.822 155.844 269.74C156.035 269.658 156.231 269.581 156.432 269.508C156.641 269.444 156.874 269.289 157.129 269.043C157.384 268.806 157.535 268.628 157.58 268.51C159.111 265.083 159.877 263.292 159.877 263.137C159.877 262.982 159.786 262.79 159.604 262.562L155.092 253.143C154.755 252.222 154.176 251.63 153.355 251.365C153.292 251.347 153.214 251.333 153.123 251.324C152.74 251.288 152.549 251.174 152.549 250.982C152.549 250.791 152.658 250.695 152.877 250.695H158.961C159.034 250.695 159.07 250.768 159.07 250.914C159.07 251.051 159.007 251.146 158.879 251.201C158.751 251.247 158.469 251.27 158.031 251.27C157.329 251.27 156.979 251.543 156.979 252.09L157.102 252.418L160.643 260.006C160.825 260.471 161.007 260.457 161.189 259.965C161.208 259.919 161.322 259.623 161.531 259.076C162.771 255.932 163.464 254.113 163.609 253.621C163.764 253.129 163.842 252.76 163.842 252.514C163.842 252.268 163.71 252.008 163.445 251.734C163.19 251.461 162.835 251.324 162.379 251.324C161.932 251.324 161.709 251.192 161.709 250.928C161.709 250.773 161.809 250.695 162.01 250.695H167.191Z" fill="#4B4453"/>
</g>
<defs>
<filter id="filter0_d_127_932" x="0" y="0" width="264" height="294" filterUnits="userSpaceOnUse" color-interpolation-filters="sRGB">
<feFlood flood-opacity="0" result="BackgroundImageFix"/>
<feColorMatrix in="SourceAlpha" type="matrix" values="0 0 0 0 0 0 0 0 0 0 0 0 0 0 0 0 0 0 127 0" result="hardAlpha"/>
<feOffset dy="4"/>
<feGaussianBlur stdDeviation="2"/>
<feComposite in2="hardAlpha" operator="out"/>
<feColorMatrix type="matrix" values="0 0 0 0 0.482353 0 0 0 0 0.380392 0 0 0 0 1 0 0 0 0.25 0"/>
<feBlend mode="normal" in2="BackgroundImageFix" result="effect1_dropShadow_127_932"/>
<feBlend mode="normal" in="SourceGraphic" in2="effect1_dropShadow_127_932" result="shape"/>
</filter>
</defs>
</svg>
