<?xml version="1.0" encoding="UTF-8" standalone="no"?><svg width="50" height="50" viewBox="0 0 50 50" fill="none" xmlns="http://www.w3.org/2000/svg">
<circle cx="25" cy="25" r="25" fill="#4D7520"/>
<g clip-path="url(#clip0_411_3506)">
<path d="M35.781 14.2186C35.8849 14.3226 35.9558 14.4548 35.9852 14.5988C36.0145 14.7428 36.0009 14.8923 35.946 15.0286L27.2175 36.8491C27.1406 37.0413 27.0122 37.2085 26.8463 37.3324C26.6805 37.4562 26.4837 37.532 26.2776 37.5512C26.0715 37.5704 25.8641 37.5324 25.6782 37.4414C25.4923 37.3503 25.3352 37.2097 25.224 37.0351L20.457 29.5426L12.9645 24.7756C12.7895 24.6646 12.6485 24.5074 12.5572 24.3213C12.4659 24.1352 12.4278 23.9276 12.447 23.7212C12.4662 23.5148 12.5421 23.3178 12.6663 23.1518C12.7904 22.9858 12.958 22.8574 13.1505 22.7806L34.971 14.0551C35.1073 14.0002 35.2568 13.9866 35.4008 14.0159C35.5448 14.0453 35.677 14.1163 35.781 14.2201V14.2186ZM21.954 29.1046L26.0955 35.6116L33.195 17.8636L21.954 29.1046ZM32.1345 16.8031L14.3865 23.9026L20.895 28.0426L32.136 16.8031H32.1345Z" fill="#FDFDFC"/>
</g>
<defs>
<clipPath id="clip0_411_3506">
<rect width="24" height="24" fill="white" transform="translate(12 15)"/>
</clipPath>
</defs>
</svg>
