<?xml version="1.0" encoding="UTF-8" standalone="no"?><svg width="124" height="57" viewBox="0 0 124 57" fill="none" xmlns="http://www.w3.org/2000/svg">
<path d="M54.02 49.234C51.9573 49.234 50.4753 48.6533 49.574 47.492C48.69 46.3133 48.248 44.6147 48.248 42.396V34.414C48.248 32.23 48.6987 30.5747 49.6 29.448C50.5013 28.3213 51.9747 27.758 54.02 27.758C56.0653 27.758 57.53 28.33 58.414 29.474C59.3153 30.6007 59.766 32.2473 59.766 34.414V42.422C59.766 44.606 59.3153 46.2873 58.414 47.466C57.5127 48.6447 56.048 49.234 54.02 49.234ZM54.02 46.92C55.112 46.92 55.8487 46.5993 56.23 45.958C56.6113 45.3167 56.802 44.346 56.802 43.046V33.816C56.802 32.5333 56.6113 31.5887 56.23 30.982C55.8487 30.358 55.112 30.046 54.02 30.046C52.9107 30.046 52.1653 30.358 51.784 30.982C51.4027 31.5887 51.212 32.5333 51.212 33.816V43.046C51.212 44.346 51.4027 45.3167 51.784 45.958C52.1653 46.5993 52.9107 46.92 54.02 46.92ZM62.2896 40.108H68.0876V42.214H62.2896V40.108ZM75.9731 49.234C74.2051 49.234 72.8531 48.688 71.9171 47.596C70.9985 46.504 70.4871 45.0047 70.3831 43.098L72.9831 42.396C73.0698 43.748 73.3298 44.84 73.7631 45.672C74.2138 46.504 74.9505 46.92 75.9731 46.92C76.7358 46.92 77.3078 46.712 77.6891 46.296C78.0878 45.8627 78.2871 45.2473 78.2871 44.45C78.2871 43.5833 78.1051 42.864 77.7411 42.292C77.3771 41.72 76.7965 41.0873 75.9991 40.394L72.4631 37.274C71.7525 36.65 71.2325 35.9827 70.9031 35.272C70.5911 34.544 70.4351 33.66 70.4351 32.62C70.4351 31.0773 70.8771 29.8813 71.7611 29.032C72.6451 28.1827 73.8498 27.758 75.3751 27.758C77.0391 27.758 78.2958 28.2 79.1451 29.084C79.9945 29.968 80.5058 31.3373 80.6791 33.192L78.1831 33.868C78.0965 32.6373 77.8538 31.6927 77.4551 31.034C77.0738 30.358 76.3805 30.02 75.3751 30.02C74.6298 30.02 74.0578 30.2193 73.6591 30.618C73.2605 30.9993 73.0611 31.5713 73.0611 32.334C73.0611 32.958 73.1651 33.4867 73.3731 33.92C73.5811 34.336 73.9365 34.7607 74.4391 35.194L78.0011 38.314C78.9198 39.1287 79.6478 40.0127 80.1851 40.966C80.7398 41.9193 81.0171 43.0027 81.0171 44.216C81.0171 45.7587 80.5491 46.9807 79.6131 47.882C78.6771 48.7833 77.4638 49.234 75.9731 49.234ZM83.1402 27.94H85.9222V35.532C87.1702 34.3533 88.4269 33.764 89.6922 33.764C90.5069 33.764 91.0789 34.0587 91.4082 34.648C91.7549 35.2373 91.9282 35.9653 91.9282 36.832V49H89.1462V37.638C89.1462 37.066 89.0595 36.6413 88.8862 36.364C88.7129 36.0867 88.4009 35.948 87.9502 35.948C87.3435 35.948 86.6675 36.2773 85.9222 36.936V49H83.1402V27.94ZM97.3443 49.208C96.7723 49.208 96.2523 49.0433 95.7843 48.714C95.3337 48.3847 94.9783 47.9513 94.7183 47.414C94.4583 46.8767 94.3283 46.3133 94.3283 45.724C94.3283 44.5453 94.5797 43.592 95.0823 42.864C95.585 42.1187 96.2263 41.5293 97.0063 41.096C97.7863 40.6627 98.8697 40.1687 100.256 39.614V38.548C100.256 37.56 100.152 36.8667 99.9443 36.468C99.7537 36.052 99.355 35.844 98.7483 35.844C97.691 35.844 97.1623 36.5547 97.1623 37.976V38.73L94.4063 38.626C94.441 36.962 94.8223 35.74 95.5503 34.96C96.2783 34.1627 97.405 33.764 98.9303 33.764C100.369 33.764 101.409 34.1627 102.05 34.96C102.709 35.74 103.038 36.9273 103.038 38.522V45.386C103.038 46.5127 103.125 47.7173 103.298 49H100.75C100.56 48.012 100.438 47.2753 100.386 46.79C100.178 47.466 99.8143 48.038 99.2943 48.506C98.7917 48.974 98.1417 49.208 97.3443 49.208ZM98.4363 46.816C98.8003 46.816 99.1557 46.6773 99.5023 46.4C99.849 46.1053 100.1 45.828 100.256 45.568V41.304C99.511 41.72 98.9303 42.084 98.5143 42.396C98.1157 42.6907 97.7777 43.0373 97.5003 43.436C97.2403 43.8347 97.1103 44.3113 97.1103 44.866C97.1103 45.49 97.223 45.9753 97.4483 46.322C97.6737 46.6513 98.003 46.816 98.4363 46.816ZM105.789 33.972H108.571V36.104C109.091 35.2547 109.619 34.6567 110.157 34.31C110.711 33.9633 111.292 33.79 111.899 33.79C112.055 33.79 112.202 33.7987 112.341 33.816V36.884C111.786 36.676 111.275 36.572 110.807 36.572C110.356 36.572 109.949 36.6847 109.585 36.91C109.238 37.118 108.9 37.4907 108.571 38.028V49H105.789V33.972ZM118.224 49.208C117.063 49.208 116.161 48.9913 115.52 48.558C114.879 48.1073 114.428 47.4487 114.168 46.582C113.908 45.7153 113.778 44.5887 113.778 43.202V39.77C113.778 37.69 114.099 36.1733 114.74 35.22C115.399 34.2493 116.56 33.764 118.224 33.764C119.437 33.764 120.347 34.0153 120.954 34.518C121.578 35.0207 121.985 35.7313 122.176 36.65C122.384 37.5513 122.488 38.7733 122.488 40.316V41.538H116.56V44.554C116.56 45.4727 116.69 46.14 116.95 46.556C117.227 46.9547 117.661 47.154 118.25 47.154C118.839 47.154 119.238 46.9547 119.446 46.556C119.654 46.14 119.758 45.516 119.758 44.684V43.774H122.462V44.346C122.462 45.9233 122.124 47.128 121.448 47.96C120.772 48.792 119.697 49.208 118.224 49.208ZM119.758 40.03V38.678C119.758 37.6553 119.654 36.9273 119.446 36.494C119.255 36.0433 118.839 35.818 118.198 35.818C117.747 35.818 117.401 35.922 117.158 36.13C116.933 36.338 116.777 36.6847 116.69 37.17C116.603 37.638 116.56 38.3227 116.56 39.224V40.03H119.758Z" fill="#2D4710"/>
<g clip-path="url(#clip0_160_6618)">
<path d="M13.9989 14.3469V24.2201C13.9989 28.4295 16.7733 32.2513 20.6239 32.2513C24.4744 32.2513 27.2489 28.4295 27.2489 24.2201V19.7513H38.1239C38.4139 19.7513 38.9989 20.1287 38.9989 21.0951V25.7826C38.9989 26.7489 38.4139 27.1263 38.1239 27.1263H37.4989H36.4989V28.1263V34.3763C36.4989 35.7723 35.6327 36.5013 34.9989 36.5013H33.7489H32.7489V37.5013C32.7489 40.6161 30.7577 42.7513 28.7489 42.7513H18.077H17.7538L17.4918 42.9404L9.41511 48.7694C9.41481 48.7697 9.41452 48.7699 9.41423 48.7701C9.07403 49.0143 8.72706 49.0472 8.41796 48.9441C8.09606 48.8367 7.73743 48.5515 7.49324 48.0208L7.49267 48.0196L1.24268 34.4844L1.24143 34.4817C0.715533 33.3517 1.08786 31.9834 1.8326 31.448L1.83416 31.4469L8.08416 26.9352L8.49885 26.6358V26.1244V21.5052C8.49885 19.5721 9.317 17.856 10.5259 16.9556L10.5291 16.9532L13.9989 14.3469ZM43.4989 21.9231V21.0951C43.4989 17.745 41.2869 14.6263 38.1239 14.6263H23.7489H22.7489V15.6263V24.2201C22.7489 26.0457 21.6014 27.1263 20.6239 27.1263C19.6463 27.1263 18.4989 26.0457 18.4989 24.2201V11.8861C18.4989 11.057 18.8397 10.3721 19.2815 10.0314L19.2815 10.0314L19.2857 10.0281L21.899 7.99011C21.8996 7.98967 21.9002 7.98923 21.9007 7.98879C22.5404 7.49547 23.2427 7.25131 23.9364 7.25131H31.9207H32.2439L32.5059 7.06218L40.5826 1.23316C40.5828 1.23304 40.5829 1.23291 40.5831 1.23279C40.9234 0.988336 41.2705 0.955327 41.5798 1.05852C41.9016 1.16594 42.2603 1.45109 42.5045 1.98181L42.505 1.98303L48.7545 15.517C49.2756 16.6495 48.9103 18.0119 48.1616 18.5571C48.1613 18.5573 48.161 18.5575 48.1608 18.5577L43.4989 21.9231Z" stroke="#2D4710" stroke-width="2"/>
</g>
<defs>
<clipPath id="clip0_160_6618">
<rect width="50" height="50" fill="white"/>
</clipPath>
</defs>
</svg>
