<?xml version="1.0" encoding="UTF-8" standalone="no"?><svg width="446" height="738" viewBox="0 0 446 738" fill="none" xmlns="http://www.w3.org/2000/svg">
<g clip-path="url(#clip0_287_3836)">
<path fill-rule="evenodd" clip-rule="evenodd" d="M0.999009 349.321C-3.97421 352.864 -9.3171 355.894 -14.6432 358.867C-15.1682 359.159 -16.5624 359.629 -16.6606 360.173C-16.7731 360.798 -15.3349 362.995 -15.0573 363.587C-12.9518 368.068 -10.8469 372.55 -8.7414 377.032C-7.77535 379.09 -6.80856 381.148 -5.84207 383.206C-5.56728 383.791 -4.70876 386.521 -4.14058 386.828C-3.1074 387.388 0.642612 385.382 1.72781 385.014L14.6544 380.626C15.8717 380.213 18.6434 378.607 19.7337 379.282C20.4253 379.71 21.2516 381.505 21.7156 382.185L25.5477 387.798C30.5665 395.15 35.5853 402.501 40.6037 409.853C48.212 404.211 55.8206 398.57 63.4281 392.929C65.2795 391.556 67.1312 390.183 68.9822 388.811C69.4226 388.484 70.4704 388.003 70.6714 387.474C71.1093 386.319 70.1312 383.108 69.974 381.836C69.5727 378.594 69.1717 375.353 68.7708 372.111C68.3842 368.987 67.9976 365.863 67.6109 362.74C67.5124 361.94 67.5811 360.464 67.1468 359.788C66.6566 359.026 64.8138 358.248 64.0993 357.777C62.0052 356.395 59.9115 355.012 57.817 353.63C47.448 346.786 37.0794 339.942 26.7107 333.098C26.1846 332.752 24.5971 331.294 23.9837 331.299C22.7925 331.308 20.3712 334.214 19.5044 334.91C13.4119 339.802 7.35522 344.792 0.999009 349.321Z" fill="#4D7520"/>
<path fill-rule="evenodd" clip-rule="evenodd" d="M83.4386 472.688C85.3737 475.891 87.3099 479.094 89.245 482.297C97.4416 476.661 105.638 471.025 113.834 465.389C112.634 464.281 111.433 463.174 110.234 462.066C109.296 461.2 106.991 458.263 105.832 458.005C104.565 457.722 101.529 460.651 100.481 461.347C94.8003 465.128 89.119 468.908 83.4386 472.688Z" fill="#2D4710"/>
<path fill-rule="evenodd" clip-rule="evenodd" d="M215.132 215.775C212.736 212.636 209.196 210.116 206.234 207.659C202.744 204.765 199.205 201.942 195.644 199.156C193.39 197.392 193.418 198.145 191.219 199.62C188.649 201.343 186.08 203.066 183.511 204.789C190.713 212.066 197.915 219.343 205.116 226.619C206.363 227.879 210.286 233.057 211.849 233.129C212.39 233.155 213.515 232.016 213.939 231.733C215.153 230.922 216.366 230.112 217.58 229.302C219.229 228.2 220.878 227.099 222.528 225.997C220.114 222.554 217.682 219.115 215.132 215.775Z" fill="#2D4710"/>
<path fill-rule="evenodd" clip-rule="evenodd" d="M178.199 533.164C172.85 534.6 168.667 538.856 164.109 541.675C161.424 543.334 158.606 544.761 156.006 546.559C155.136 547.162 150.919 549.532 151.159 550.244C151.342 550.79 152.9 551.503 153.339 551.509C154.572 551.529 154.762 550.427 155.5 549.613C157.5 547.406 160.625 546.121 163.049 544.461C165.584 542.724 168.097 540.952 170.636 539.22C173.166 537.495 176.879 536.095 178.199 533.164ZM-209.368 396.819C-210.276 396.11 -211.307 394.735 -212.458 394.645C-213.525 394.561 -214.843 395.896 -215.709 396.403C-217.55 397.482 -221.461 399.967 -221.49 402.604C-221.527 405.81 -216.258 404.881 -214.864 403.974C-212.441 402.397 -211.522 398.847 -209.368 396.819ZM-181.698 340.058C-181.868 339.355 -182.764 339.366 -183.355 339.468C-184.857 339.727 -185.173 341.005 -185.877 342.251C-187.656 345.396 -189.98 348.172 -192.152 350.983C-194.044 353.43 -195.526 356.15 -197.298 358.688C-198.553 360.487 -202.264 362.538 -202.092 365.05C-201.75 370.01 -198.359 364.075 -197.681 363.162C-195.735 360.543 -193.377 358.226 -191.573 355.488C-189.837 352.853 -188.065 350.169 -186.411 347.454C-185.657 346.215 -184.857 345.066 -184.038 343.886C-183.271 342.783 -182.741 340.859 -181.698 340.058ZM-68.2242 360.727C-69.1442 360.663 -73.3246 359.726 -74.0081 360.599C-74.5413 361.281 -73.5448 364.669 -73.5113 365.697C-73.3439 370.845 -73.4423 375.937 -73.507 381.054C-72.0917 381.067 -70.6766 381.079 -69.2608 381.092C-70.6414 374.092 -69.2005 367.351 -68.2242 360.727ZM-15.7825 356.903C-12.4671 354.903 -9.47858 352.434 -6.14063 350.48C-2.40004 348.29 1.31014 346.196 4.79902 343.6C8.23235 341.046 11.8499 338.826 15.3362 336.36C16.4328 335.585 22.4709 331.151 17.4579 331.317C15.7714 331.374 14.7948 333.172 13.6219 334.319C12.2639 335.648 10.7509 336.755 9.28627 337.948C7.89084 339.085 6.62716 340.651 5.06374 341.541C3.42368 342.475 2.01111 342.878 0.553265 344.131C-2.46868 346.729 -6.00397 348.448 -9.5808 350.128C-12.0471 351.287 -18.0426 352.873 -15.7825 356.903ZM206.166 519.43C207.094 516.156 210.984 514.969 213.132 512.801C215.503 510.406 211.229 508.329 209.054 507.162C206.786 505.944 202.804 503.179 202.629 507.124C202.447 511.245 204.724 515.518 206.166 519.43ZM86.8778 474.11C87.8873 475.933 88.2344 478.228 90.2114 477.864C92.1084 477.515 94.2132 475.018 95.7139 473.889C97.6697 472.418 99.4775 470.778 101.403 469.271C102.263 468.598 103.144 467.951 104.135 467.484C104.817 467.162 106.851 467.026 107.223 466.346C107.679 465.51 106.684 463.101 105.593 462.601C104.411 462.059 101.198 465.258 99.9217 466.195C95.764 469.244 91.1124 471.229 86.8778 474.11ZM83.142 468.563C84.5812 466.376 87.2554 465.368 89.3758 464.062C91.8715 462.527 94.442 461.181 97.0544 459.852C98.2102 459.264 102.008 458.25 102.441 456.871C102.668 456.147 100.613 452.367 99.8581 452.055C98.6249 451.545 97.1792 453.938 96.4024 454.613C94.3205 456.422 91.9433 457.851 89.5845 459.249C87.3765 460.558 85.1077 461.783 82.9116 463.108C80.3092 464.678 81.5895 465.994 83.142 468.563ZM-77.8359 360.174C-78.9969 360.123 -83.247 359.233 -84.0256 360.233C-84.6883 361.084 -83.7655 364.665 -83.7028 365.928C-83.583 368.335 -83.5397 370.741 -83.4714 373.143C-83.4273 374.679 -83.9063 377.794 -82.6732 379.158C-82.0169 379.884 -79.7132 380.428 -79.1365 379.736C-78.5411 379.023 -79.2595 375.051 -79.2281 374.162C-79.0573 369.356 -77.7916 365.05 -77.8359 360.174ZM187.264 204.313C194.124 209.091 198.982 216.254 204.808 222.316C206.164 223.727 207.704 224.997 209.011 226.451C209.738 227.261 210.373 229.021 211.289 229.53C213.585 230.804 218.355 227.061 218.424 224.67C218.464 223.267 217.323 222.529 216.41 221.65C215.177 220.465 214.609 219.125 213.535 217.846C211.384 215.283 207.441 213.771 204.807 211.798C201.931 209.643 199.322 206.533 196.135 204.983C194.002 203.946 188.787 202.3 187.264 204.313ZM153.414 573.746C156.929 570.809 162.212 565.786 158.369 559.914C154.549 554.077 147.128 557.134 143.037 558.903C141.838 559.421 141.673 559.421 141.02 560.876C140.57 561.875 140.147 562.909 139.803 563.965C139.134 566.021 138.544 568.627 139.522 570.912C142.007 576.717 149.73 575.334 153.414 573.746ZM-74.2483 248.645C-72.3619 247.793 -75.8923 247.244 -76.4796 247.275C-78.2621 247.368 -79.6755 248.405 -80.9352 249.546C-83.9832 252.307 -85.0106 257.502 -86.7063 261.358C-88.5023 265.441 -90.084 269.784 -92.1822 273.67C-93.1412 275.447 -93.9226 276.936 -94.3694 278.989C-94.5969 280.036 -94.536 280.629 -95.3838 281.143C-95.8539 281.428 -97.6709 280.798 -97.7266 281.835C-97.882 284.728 -90.442 281.116 -89.7914 280.531C-86.5419 277.611 -84.3325 274.074 -82.5051 269.985C-80.6388 265.812 -78.3195 261.936 -76.4011 257.811C-75.5723 256.028 -75.1293 254.062 -74.5297 252.178C-74.4442 251.909 -74.44 251.172 -74.3792 250.857C-74.0221 250.777 -73.828 250.538 -73.797 250.14C-73.9566 249.643 -74.1071 249.145 -74.2483 248.645ZM190.989 525.475C188.306 529.102 183.161 533.782 184.416 539.625C185.839 546.243 196.732 544.964 200.258 543.229C203.962 541.406 209.214 535.974 206.645 530.638C205.166 527.567 202.048 526.928 199.306 526.613C196.503 526.291 193.591 527.625 190.989 525.475ZM-222.265 359.672C-224.585 361.538 -226.126 362.866 -226.99 365.973C-227.707 368.552 -228.12 370.969 -227.332 373.798C-225.513 380.336 -218.719 382.773 -214.126 379.094C-213.619 378.689 -213.225 378.128 -212.627 377.854C-212.078 377.602 -211.462 377.809 -210.977 377.63C-209.834 377.21 -209.761 376.883 -209.479 375.458C-208.905 372.55 -208.436 369.454 -209.021 366.355C-210.429 358.894 -216.636 356.403 -222.265 359.672ZM-171.967 313.206C-175.54 306.768 -184.474 310.777 -188.013 313.581C-192.032 316.765 -196.077 326.185 -190.63 331.423C-185.836 336.033 -177.867 330.622 -174.99 327.346C-174.375 326.646 -173.508 325.41 -172.654 325.131C-171.37 324.711 -170.668 325.744 -170.195 324.136C-169.898 323.125 -170.369 320.993 -170.428 319.837C-170.544 317.534 -171.158 315.432 -171.967 313.206ZM101.585 500.591C102.288 502.007 102.893 504.009 104.54 503.887C105.558 503.81 107.45 502.067 108.251 501.625C111.591 499.781 114.754 497.451 118.173 495.783C119.185 495.29 122.727 494.672 123.123 493.404C123.511 492.164 121.466 490.263 120.786 489.268C118.013 485.211 116.025 480.838 113.649 476.571C113.011 475.426 111.759 472.46 110.51 472.083C108.989 471.623 107.331 473.43 106.326 474.213C103.192 476.655 100.071 479.339 96.6848 481.406C95.7552 481.974 93.232 482.464 92.6684 483.355C91.802 484.725 93.4 486.698 94.1657 488.114C96.4722 492.38 98.838 496.587 101.585 500.591ZM-88.2694 358.864C-94.9856 357.773 -101.745 356.975 -108.398 355.989C-110.767 355.638 -113.071 354.482 -115.321 354.102C-116.733 353.863 -117.227 353.685 -118.023 355.227C-118.942 357.009 -119.449 359.238 -120.124 361.166C-120.692 362.785 -121.269 364.399 -121.84 366.015C-122.369 367.513 -122.603 367.922 -120.992 368.897C-118.157 370.612 -114.059 371.226 -111.026 372.211C-103.541 374.641 -96.0505 377.309 -88.4442 378.717C-90.2105 371.985 -89.5171 365.217 -88.2694 358.864ZM-92.1275 240.735C-101.929 241.9 -109.701 230.413 -116.968 224.497C-114.663 230.168 -107.359 237.226 -108.62 243.545C-109.396 247.43 -112.861 244.715 -115.255 243.545C-118.9 241.764 -122.604 240.195 -126.209 238.288C-123.468 241.565 -119.435 244.661 -117.5 248.511C-115.981 251.534 -115.183 256.452 -119.493 254.597C-122.454 253.322 -125.774 252.464 -128.846 251.604C-132.538 250.57 -136.032 250.576 -139.706 250.013C-135.485 254.839 -130.779 258.541 -125.355 261.502C-122.573 263.021 -119.718 264.37 -116.976 265.994C-114.735 267.321 -112.758 269.463 -110.355 270.288C-108.111 271.058 -105.447 271.144 -103.166 271.397C-99.9182 271.758 -99.6821 270.951 -98.6306 268.096C-96.595 262.569 -93.8424 257.462 -91.7571 251.96C-93.1698 251.287 -95.0125 250.894 -95.8984 249.348C-96.6157 248.097 -96.4784 246.479 -95.2935 245.961C-94.3653 245.556 -93.3392 246.351 -92.5963 245.422C-91.9687 244.635 -92.214 241.743 -92.1275 240.735ZM229.534 174.49C226.269 177.135 223.834 180.613 220.025 182.561C218.484 183.349 217.572 184.332 215.888 183.018C214.542 181.969 213.813 179.574 211.961 180.19C210.589 180.647 209.881 182.843 209.433 184.114C208.629 186.399 207.917 188.425 206.667 190.452C204.451 194.047 202.056 197.455 198.653 199.768C201.309 202.226 204.012 204.661 206.905 206.774C209.678 208.799 212.188 210.43 214.356 213.245C215.284 214.45 216.138 215.858 217.583 215.757C219.001 215.66 220.646 214.032 221.829 213.347C224.538 211.778 227.259 210.225 229.939 208.607C231.981 207.374 234.349 206.703 236.315 205.464C238.758 203.925 240.8 200.993 242.851 198.944C246.738 195.062 252.701 190.497 254.16 184.704C250.425 186.137 247.249 188.633 244.451 191.475C243.171 192.777 240.91 196.877 238.684 195.498C236.032 193.854 236.404 189.137 237.402 187.019C238.528 184.629 241.419 183.059 241.381 180.006C239.023 181.771 236.448 183.481 234.541 185.801C233.079 187.58 231.809 190.888 229.125 188.123C224.776 183.644 227.711 178.486 229.534 174.49ZM-8.98765 380.263C-12.5394 372.995 -15.6113 365.335 -19.7185 358.34C-21.4933 355.318 -24.1043 357.637 -26.6764 358.033C-30.4148 358.61 -34.2322 358.924 -38.0127 359.309C-41.7812 359.693 -45.5356 360.137 -49.297 360.556C-52.7114 360.937 -56.4033 360.619 -59.7563 361.151C-61.5814 361.44 -61.3405 362.093 -61.2501 364.154C-61.162 366.159 -61.135 368.158 -61.1532 370.151C-61.1909 374.337 -61.431 378.49 -61.7428 382.625C-52.923 383.164 -44.0299 383.21 -35.2576 383.225C-26.305 383.24 -17.7334 381.336 -8.98765 380.263ZM107.707 273.659C110.995 271.675 113.86 269.19 117.059 267.09C120.22 265.015 123.443 263.282 126.706 261.433C129.839 259.657 133.293 258.545 136.463 256.849C137.234 256.437 138.008 255.962 138.808 255.607C139.613 255.25 140.249 255.301 141.024 255.016C142.928 254.315 144.3 252.838 146.081 251.901C152.65 248.446 159.799 246.158 166.364 242.692C173.113 239.129 179.822 235.853 186.85 232.818C190.564 231.214 194.165 229.41 197.775 227.599C198.515 227.228 200.338 226.823 200.161 225.66C199.946 224.248 196.016 221.365 194.998 220.35C193.676 219.031 192.4 217.636 190.976 216.443C190.142 215.746 187.769 213.261 186.823 213.073C185.503 212.81 184.691 214.326 183.801 215.091C181.999 216.642 180.082 218.078 178.206 219.531C175.428 221.682 172.935 224.308 170.016 226.221C166.721 228.381 163.271 230.248 159.821 232.145C152.912 235.942 146.107 240.279 138.927 243.553C130.63 247.337 122.627 251.686 114.46 255.724C112.524 256.681 110.655 257.76 108.737 258.751C107.365 259.459 104.03 260.026 103.099 261.267C102.154 262.529 103.426 264.09 104.09 265.501C105.355 268.194 106.537 270.928 107.707 273.659ZM69.7151 392.777C65.5471 396.44 61.1615 399.546 56.5341 402.57C54.4932 403.903 52.4939 405.275 50.5655 406.774C48.9533 408.028 48.0336 408.706 49.2986 410.934C54.8448 420.705 60.1576 430.476 65.7319 440.235C68.8792 445.745 72.3419 451.072 75.6188 456.506C76.862 458.569 77.3971 460.275 79.506 459.323C82.0684 458.167 84.3382 456.265 86.7532 454.834C88.9768 453.518 91.2239 452.239 93.4659 450.954C94.9053 450.128 98.0286 449.345 97.3032 447.076C97.0703 446.351 96.1223 445.406 95.7114 444.697C94.947 443.379 94.2876 441.978 93.5654 440.635C91.908 437.553 90.2063 434.494 88.5502 431.411C81.7634 418.781 76.1248 405.591 69.7151 392.777ZM-76.2748 272.883C-71.5397 273.737 -66.8974 273.483 -62.1573 273.866C-59.8845 274.05 -57.6167 274.35 -55.3423 274.609C-53.0027 274.875 -50.7006 274.498 -48.3661 274.954C-43.8478 275.837 -39.2224 275.339 -34.6299 275.697C-29.9632 276.06 -25.3051 276.434 -20.6504 276.612C-18.5905 276.691 -16.6285 276.298 -14.589 276.259C-12.1441 276.213 -9.66902 276.593 -7.2274 276.485C-2.0009 276.254 3.22187 276.028 8.45739 275.849C18.7341 275.495 29.0035 274.698 39.1953 273.844C41.3671 273.662 43.3418 272.963 45.3972 272.386C46.3676 272.114 47.4931 271.595 48.5206 271.6C48.8401 271.603 49.099 271.473 49.4298 271.602C50.0632 271.849 50.1557 272.677 50.5816 272.888C52.9673 274.071 53.0713 266.614 53.0636 264.827C53.0507 262.066 52.3588 262.038 49.9727 262.338C47.5657 262.641 45.1704 263.003 42.7484 263.235C38.2877 263.663 33.6151 263.92 29.0805 263.879C24.3637 263.837 19.7297 264.251 14.9936 264.095C9.68193 263.921 4.36885 263.677 -0.932627 263.617C-9.87725 263.515 -18.9341 262.039 -27.9032 261.479C-32.8561 261.171 -37.8791 260.276 -42.8668 259.654C-47.7349 259.047 -52.6151 258.033 -57.4491 257.639C-60.1079 257.423 -62.7041 257.475 -65.3682 256.978C-67.3588 256.607 -69.3651 256.204 -70.3936 258.155C-71.505 260.262 -72.0853 263.024 -73.0438 265.27C-74.125 267.805 -75.1987 270.345 -76.2748 272.883ZM94.1042 231.098C92.7386 231.101 88.0887 231.721 88.6152 228.701C88.9897 226.553 93.0223 226.657 94.4935 226.4C93.2899 224.474 92.4799 223.134 90.8145 221.612C89.1409 220.083 88.4383 218.585 88.9095 216.37C89.1248 215.357 90.9889 213.465 90.7308 212.464C90.3301 210.909 88.608 212.525 87.8227 212.751C83.6714 213.942 81.2735 209.508 79.1849 206.267C76.7284 202.456 73.6803 199.209 69.5543 198.268C67.6905 197.843 67.266 198.098 66.274 199.723C65.9085 200.321 65.6974 201.055 65.1838 201.534C64.4573 202.211 63.5213 201.925 62.8071 202.417C61.7006 203.178 61.8575 206.073 61.1657 207.449C60.2699 209.231 58.6838 209.824 57.6494 211.338C56.7288 212.684 56.4489 214.99 55.7686 216.54C54.842 218.65 55.883 219.536 57.3348 221.695C58.5462 223.496 59.2329 224.743 58.0689 226.391C57.6939 226.922 56.7364 227.367 56.5191 227.987C56.1976 228.903 56.7855 229.088 57.1138 230.094C57.9434 232.64 56.0087 231.953 54.4125 232.515C52.4686 233.199 51.4212 235.754 53.6162 237.34C54.4015 237.907 55.5153 238.182 56.3518 237.999C57.3409 237.783 57.8936 236.39 58.8606 236.28C61.3269 236 61.0671 239.042 62.0308 240.423C62.7559 238.982 61.8808 236.645 64.4999 238.235C66.3924 239.383 67.5934 242.145 68.4894 244.11C70.5613 248.656 72.5879 254.537 72.26 259.392C72.2127 260.092 72.2564 261.325 71.5382 261.602C70.9406 261.833 70.3869 261.066 69.7957 261.143C68.5267 261.307 67.3945 262.893 67.6595 264.192C68.1074 266.388 69.7809 268.992 70.8884 270.932C72.1628 273.164 73.448 275.785 75.2183 277.659C78.2419 280.86 81.9904 280.337 85.3727 279.396C87.2576 278.871 89.3434 278.327 90.5871 276.702C91.9436 274.928 92.0353 272.325 92.3767 270.061C92.6333 268.36 93.6808 265.964 92.8116 264.256C92.405 263.456 91.2932 262.688 90.7102 261.971C89.7849 260.831 88.9741 259.604 88.2392 258.329C86.8889 255.987 86.0239 253.298 84.4501 251.091C82.8393 248.835 81.2118 249.591 79.2766 248.274C78.1224 247.488 76.9796 245.867 77.9583 244.768C78.5269 244.129 80.2074 243.945 81.0022 243.548C82.2149 242.941 83.3979 242.251 84.5643 241.561C86.7141 240.29 88.246 239.187 89.5277 236.943C90.8474 234.633 92.2062 232.867 94.1042 231.098ZM201.812 520.072C200.669 518.008 199.689 515.846 199.063 513.594C198.531 511.68 198.649 509.649 197.79 507.86C195.997 504.125 192.972 501.428 189.253 501.947C185.646 502.449 182.561 504.349 179.717 506.392C178.066 507.579 176.182 507.786 174.537 508.909C172.804 510.091 171.053 510.768 169.144 511.63C165.596 513.23 161.766 513.262 158.129 514.501C156.349 515.106 156.275 516.207 156.088 518.063C155.881 520.107 155.406 522.009 154.69 523.853C153.591 526.686 151.671 531.832 148.496 527.044C145.83 523.026 147.557 517.803 148.147 513.794C145.243 514.057 142.962 509.869 141.356 513.086C140.659 514.483 140.406 516.075 139.881 517.562C139.44 518.812 138.639 522.034 137.39 522.579C135.628 523.349 133.834 520.786 133.179 519.157C131.99 516.199 133.488 513.17 134.261 510.54C134.727 508.95 135.835 507.249 136.044 505.589C136.266 503.824 135.245 502.616 134.304 501.139C133.876 500.466 132.761 497.631 132.164 497.189C131.242 496.507 130.103 497.527 129.132 497.989C127.327 498.845 125.432 499.525 123.628 500.368C122.214 501.028 121.149 502.147 119.856 503.009C116.589 505.186 113.076 507.044 109.712 509.071C109.102 509.438 106.245 510.485 106.189 511.35C106.141 512.096 107.963 514.311 108.342 514.939C110.694 518.84 113.067 522.722 115.531 526.553C120.392 534.112 124.957 542.133 128.172 550.513C128.754 552.031 128.894 554.02 130.505 553.963C131.745 553.919 133.726 551.615 134.688 550.927C137.811 548.694 141.265 546.929 144.353 544.679C149.728 540.762 155.853 537.644 161.725 534.29C169.538 529.83 177.763 526.147 185.586 521.708C188.986 519.779 191.957 517.013 195.324 515.128C196.647 514.387 197.244 514.542 198.289 516.098C199.53 517.948 199.432 519.404 201.812 520.072ZM-124.379 346.417C-130.822 342.461 -137.164 338.289 -143.605 334.329C-146.514 332.541 -149.509 330.981 -152.502 329.404C-154.035 328.597 -155.657 327.824 -157.089 326.779C-158.401 325.822 -159.454 324.445 -160.829 323.597C-160.178 327.348 -161.721 330.559 -163.733 333.265C-165.297 335.367 -166.589 337.803 -168.438 339.637C-173.274 344.436 -177.094 350.77 -181.36 356.271C-190.417 367.948 -201.523 378.084 -209.321 390.847C-202.76 392.916 -198.24 403.076 -190.907 400.575C-187.989 399.581 -185.856 397.037 -183.868 394.76C-181.358 391.884 -178.841 389.015 -176.322 386.148C-173.589 383.037 -170.677 380.143 -167.834 377.149C-166.407 375.646 -164.881 374.278 -163.422 372.819C-162.207 371.603 -162.397 371.251 -162.59 369.247C-162.916 365.86 -162.197 361.755 -158.114 364.007C-156.452 364.924 -155.55 366.795 -153.995 367.76C-152.666 368.584 -150.998 368.417 -149.6 368.67C-150.215 366.234 -151.15 362.995 -150.713 360.572C-150.237 357.927 -147.885 358.394 -146.11 360.084C-143.976 362.115 -143.15 365.661 -142.122 368.31C-141.62 369.605 -141.198 371.187 -140.232 372.241C-138.948 373.642 -136.747 374.553 -135.19 375.5C-131.982 365.667 -128.703 355.625 -124.379 346.417ZM65.4847 363.605C61.6584 361.729 57.932 360.271 54.3717 357.729C50.5659 355.012 46.8899 351.83 43.036 349.27C39.2092 346.728 35.4739 344.038 31.7344 341.313C29.1246 339.411 24.2013 334.03 21.2495 336.032C19.7753 337.032 18.6069 338.605 17.1823 339.707C15.5125 340.999 13.7041 342.081 12.0662 343.421C8.47322 346.361 5.24982 349.674 1.44668 352.35C-1.82107 354.649 -5.20116 356.863 -8.71704 358.764C-9.67469 359.282 -12.602 359.916 -13.1733 360.918C-13.8396 362.085 -12.1835 364.057 -11.5923 365.221C-9.37091 369.603 -7.31757 374.091 -5.34807 378.579C-5.01244 379.345 -3.81353 383.461 -3.02519 383.801C-1.80958 384.326 0.632541 381.999 1.60078 381.523C5.41975 379.644 9.55964 378.436 13.4494 376.706C15.4224 375.829 17.2886 374.769 19.1342 373.659C20.927 372.581 23.1908 370.428 25.3163 370.104C26.6831 369.896 27.9509 370.588 28.4249 372.163C28.9478 373.899 27.8885 375.001 26.8883 375.993C26.1545 376.72 23.5945 378.117 23.6062 379.355C23.6191 380.695 25.7708 381.929 26.6272 382.688C28.2684 384.142 28.4207 385.102 29.4429 386.878C30.5184 388.748 32.4292 389.808 33.4376 391.747C34.4234 393.642 35.2408 395.136 36.5225 396.9C37.6488 398.45 38.6397 400.295 39.8011 401.76C42.4885 405.149 48.0239 398.751 50.1265 397.399C54.4726 394.605 59.4048 392.737 63.6554 389.823C64.906 388.965 68.0706 387.414 68.2141 385.594C68.3604 383.75 66.7302 380.733 66.363 378.784C65.4023 373.691 65.5165 368.645 65.4847 363.605ZM55.2183 258.077C57.481 262.529 59.2925 265.917 59.2557 270.842C59.2167 276.101 56.2931 277.406 52.8199 280.091C49.7027 282.5 47.8506 285.369 46.5471 289.281C45.0141 293.882 42.9563 298.18 40.9889 302.533C37.2462 310.816 30.3396 316.671 23.8545 322.394C22.2241 323.834 19.4194 326.829 23.0902 328.021C27.0364 329.303 30.7404 332.482 34.3369 334.899C42.5826 340.443 50.343 347.064 58.8924 351.978C62.3461 353.963 66.4971 356.368 70.2974 356.943C73.9047 357.488 76.4568 350.859 78.1481 348.152C80.3468 344.633 82.935 341.405 84.7235 337.624C86.3917 334.097 88.2624 330.793 90.2697 327.505C92.2403 324.276 94.125 321.109 96.4756 318.199C99.2412 314.774 102.707 312.05 105.628 308.756C108.626 305.377 110.804 302.401 112.074 297.773C112.665 295.623 113.558 293.288 112.86 290.88C112.146 288.417 110.086 285.972 108.681 283.854C107.213 281.64 105.496 279.502 104.158 277.208C102.81 274.895 102.693 272.509 101.99 270.026C100.881 266.108 98.2436 259.384 93.9337 258.909C95.9026 262.619 96.7585 266.501 97.7728 270.486C98.7495 274.325 98.3275 277.292 97.0451 280.655C96.5575 281.934 96.1651 283.541 95.2692 284.532C94.3194 285.583 92.5884 286.39 91.3914 287.137C88.6987 288.818 85.2624 289.783 81.8937 288.944C75.074 287.245 69.5083 280.158 66.2339 273.845C64.3513 270.213 62.7161 266.396 62.1921 262.406C62.0122 261.034 62.26 259.303 60.9609 258.357C59.601 257.366 56.632 258.07 55.2183 258.077ZM16.9082 383.071C11.464 385.349 5.89859 387.892 0.0687506 389.211C-2.05325 389.691 -4.6333 390.234 -6.13115 387.809C-6.5914 387.065 -6.92562 385.419 -7.63239 384.885C-8.35642 384.339 -10.1724 385.374 -11.1136 385.687C-22.0568 389.325 -33.5894 390.45 -45.4319 390.282C-57.4099 390.112 -69.3201 388.561 -81.3546 387.194C-93.0957 385.861 -104.317 382.339 -115.777 378.43C-117.369 377.887 -118.968 377.386 -120.569 376.896C-121.737 376.538 -123.667 375.535 -124.838 375.667C-126.942 375.903 -127.487 380.179 -128.418 381.919C-129.629 384.182 -131.779 385.719 -134.454 384.123C-136.221 383.069 -135.628 382.32 -136.398 380.786C-137.031 379.525 -138.159 379.277 -139.295 378.821C-138.979 380.433 -138.16 383.234 -139.99 383.936C-141.635 384.566 -143.226 382.312 -144.147 381.033C-145.219 379.544 -146.003 377.3 -147.691 376.591C-149.018 376.033 -150.872 376.163 -151.249 377.627C-152.008 380.572 -147.518 385.246 -149.326 388.188C-151.876 392.337 -156.778 383.448 -157.909 381.763C-165.558 387.853 -170.816 396.757 -178.286 403.163C-181.326 405.769 -185.338 407.956 -189.636 407.523C-193.586 407.126 -199.13 404.34 -202.384 401.594C-203.722 405.657 -205.523 409.243 -209.736 410.351C-214.02 411.477 -218.621 411.094 -222.507 407.7C-226.408 404.293 -227.971 400.844 -226.075 396.434C-225.3 394.629 -224.508 393.495 -223.289 392.111C-221.939 390.578 -220.058 388.919 -218.985 387.138C-222.266 385.392 -225.736 383.836 -228.455 381.019C-231.522 377.843 -233.622 373.449 -234.446 369.185C-235.934 361.478 -231.937 353.289 -225.161 351.143C-219.247 349.27 -212.481 352.197 -207.605 356.93C-205.388 359.083 -205.012 361.018 -203.139 357.988C-201.012 354.547 -199.719 350.6 -197.378 347.282C-195.348 344.403 -192.951 341.565 -191.442 338.285C-190.661 336.588 -190.77 336.549 -192.305 335.237C-194.212 333.607 -195.777 331.962 -196.972 329.658C-200.392 323.062 -198.568 315.807 -194.964 310.766C-190.879 305.05 -183.466 301.827 -176.228 304.424C-172.711 305.685 -169.359 308.114 -167.11 311.422C-166.112 312.888 -165.498 315.665 -164.215 316.796C-163.097 317.779 -160.733 317.618 -159.334 318.358C-157.115 319.533 -155.265 321.428 -153.035 322.64C-151.103 323.687 -149.166 324.715 -147.253 325.814C-142.607 328.482 -138.039 331.334 -133.638 334.51C-131.624 335.962 -129.644 337.474 -127.677 339.006C-126.328 340.056 -124.383 342.291 -122.787 342.811C-121.174 343.338 -119.979 342.13 -118.322 343.03C-116.236 344.163 -116.265 346.303 -116.148 348.322C-108.726 346.662 -101.295 350.376 -93.6919 351.789C-86.017 353.213 -78.2181 353.748 -70.5547 354.313C-62.5778 354.901 -54.8154 355.365 -47.0032 354.569C-39.7234 353.827 -32.3407 353.68 -25.056 352.981C-24.035 352.883 -23.1128 353.015 -22.6915 351.949C-22.3022 350.962 -23.2306 349.106 -22.9106 347.931C-22.1003 344.955 -16.9901 343.231 -14.7389 341.808C-11.4919 339.755 -8.29152 337.52 -4.89265 335.724C-3.74248 335.115 -2.35937 334.974 -1.3741 334.145C0.136213 332.874 1.45475 331.536 3.14078 330.401C4.54426 329.457 5.91098 328.458 7.39389 327.639C8.09731 327.251 9.46349 326.886 9.7518 325.975C10.1122 324.839 8.67292 323.511 8.60505 322.217C8.56137 321.379 9.12836 320.798 9.15459 320.099C9.15087 320.189 9.03375 318.72 8.96358 318.958C9.4165 317.425 12.0758 315.429 13.4697 315.031C13.872 314.917 14.335 315.552 14.7702 315.29C15.2037 315.029 14.9314 314.505 15.1638 314.198C15.4045 313.88 15.1823 313.322 15.5598 312.988C15.9771 312.618 16.9468 312.861 17.4755 312.587C18.0703 312.277 18.3508 311.509 18.7796 311.015C19.3502 310.359 19.9963 310.194 20.5366 309.756C21.522 308.957 22.5926 308.116 23.6172 307.288C25.108 306.083 26.3346 304.539 27.6488 303.133C28.2246 302.517 28.7809 301.869 29.459 301.371C30.2416 300.796 31.59 300.592 32.2412 299.906C32.7989 299.32 32.0884 299.375 32.5267 298.793C33.0003 298.163 33.6345 297.684 34.1151 297.046C35.2188 295.581 35.9765 293.799 36.7265 292.084C38.4723 288.09 39.5772 283.762 41.2534 279.73C39.8649 278.994 37.1852 280.353 35.854 280.603C34.0217 280.947 32.1592 281.177 30.2977 281.4C26.0656 281.904 21.8135 282.321 17.5636 282.738C9.50177 283.531 1.46813 284.45 -6.73027 284.395C-14.4315 284.343 -22.0509 285.285 -29.78 285.081C-33.7119 284.978 -37.7053 284.78 -41.6523 284.474C-45.3288 284.19 -48.8453 284.609 -52.5186 284.537C-59.6944 284.398 -66.9345 283.2 -74.0878 283.142C-75.7772 283.129 -78.1172 282.35 -79.6935 282.741C-81.0486 283.078 -81.7595 284.512 -82.4771 285.651C-83.2375 286.858 -83.7185 288.373 -84.9241 289.146C-86.2517 289.998 -88.3027 290.098 -89.8824 290.363C-92.818 290.856 -96.457 289.49 -98.9678 287.292C-100.195 286.217 -101.287 284.858 -102.291 283.553C-103.482 282.006 -104.18 279.762 -105.488 278.397C-107.976 275.802 -112.766 274.855 -115.794 273.749C-119.554 272.376 -123.223 270.511 -126.772 268.471C-134.705 263.91 -142.257 257.372 -145.05 248.031C-145.476 246.607 -146.138 244.229 -145.69 242.837C-145.07 240.905 -143.704 241.891 -142.171 241.862C-140.266 241.826 -138.642 241.492 -136.647 241.803C-134.229 242.18 -131.915 243.025 -129.525 243.637C-131.631 240.151 -133.954 237.385 -135.419 233.503C-136.171 231.511 -137.682 227.334 -135.9 225.816C-134.052 224.24 -129.985 227.628 -128.146 228.649C-124.726 230.544 -121.221 232.141 -117.71 233.765C-120.055 229.363 -126.69 219.541 -123.063 215.047C-119.814 211.02 -109.816 222.637 -107.053 224.918C-104.475 227.045 -101.537 228.909 -98.6532 230.439C-95.6323 232.042 -94.7781 229.772 -92.3879 228.482C-90.178 227.29 -88.1765 228.414 -86.7293 230.851C-84.8981 233.935 -85.6522 237.457 -85.7101 240.658C-81.4747 240.5 -75.9844 240.306 -71.8894 242.789C-70.9817 243.339 -70.1327 244.087 -69.5302 245.021C-68.9356 245.944 -68.6369 248.115 -67.7235 248.748C-67.0557 249.211 -65.9618 248.861 -65.2441 248.898C-63.7593 248.975 -62.265 249.333 -60.7768 249.444C-51.0229 250.167 -41.1015 252.085 -31.4234 253.225C-22.6844 254.255 -13.9011 254.566 -5.0962 255.552C6.09983 256.805 17.1555 256.942 28.2532 256.823C30.813 256.796 33.3109 256.975 35.8763 257.127C38.5079 257.283 41.2461 256.805 43.8549 256.64C45.6828 256.525 48.0349 256.99 49.7654 256.559C51.8241 256.046 51.2678 253.486 53.6189 252.81C55.6478 252.226 57.6729 251.283 59.8155 252.455C61.6938 253.482 63.0793 255.957 65.1771 256.084C67.6092 256.231 67.3167 254.668 66.7122 252.779C66.0237 250.632 65.9932 247.716 63.6136 247.313C61.3658 246.933 59.1927 248.06 57.1822 248.635C56.1634 248.927 54.4754 248.759 53.5954 249.186C52.4962 249.718 52.9305 250.982 52.0482 251.52C51.5789 251.805 50.8478 251.533 50.2993 251.638C50.1754 251.662 50.1696 252.249 50.0241 252.284C49.5008 252.408 49.3633 252.261 48.8138 252.318C46.8559 252.522 44.1555 252.608 43.2859 250.141C42.8194 248.818 43.3416 245.917 41.5234 245.547C39.8142 245.199 39.6266 248.202 37.7408 246.456C36.4017 245.215 37.202 244.179 35.1237 243.751C33.5956 243.435 32.5463 243.735 32.0758 241.741C31.7721 240.458 32.5909 237.729 31.2871 236.751C29.4418 235.366 27.7723 238.912 26.0341 235.442C24.7884 232.957 26.3341 229.679 24.9365 227.338C23.9362 225.663 22.5711 226.508 21.5564 225.641C20.5539 224.784 20.8782 224.593 20.9363 223.528C20.979 222.738 21.1145 222.401 21.0001 221.57C20.8612 220.559 20.8312 219.158 20.0406 218.364C19.33 217.65 18.1778 217.669 17.4015 216.871C14.4748 213.868 16.0581 202.047 20.6082 205.865C20.8389 203.516 20.3743 199.172 22.6781 198.144C24.0714 197.522 23.7766 198.283 24.7489 198.872C25.4544 199.299 26.5511 199.068 27.2179 199.588C26.6228 197.465 24.0424 194.428 24.6434 192.24C25.2291 190.107 27.4794 191.867 28.8353 192.784C28.4834 191.356 27.3587 188.959 28.3943 187.741C29.503 186.439 31.584 187.914 32.8787 188.523C32.8826 186.889 32.1139 182.545 33.9464 182.019C35.3209 181.624 37.2827 183.539 38.47 184.252C39.1675 182.491 39.7728 178.904 41.5947 178.138C43.3685 177.392 44.2928 179.237 45.7591 177.363C46.8219 176.003 47.4146 173.746 48.8164 172.752C50.2942 171.705 51.8683 172.457 53.3994 171.113C55.0247 169.687 55.0064 169.03 57.2331 170.022C58.3325 170.512 58.4025 170.977 59.5264 170.537C60.4774 170.165 60.8325 169.053 61.9843 168.919C62.8361 168.819 63.7339 169.248 64.4572 169.81C65.3116 170.474 65.8388 172.203 66.5804 172.683C68.0075 173.606 69.7004 170.999 71.3264 171.255C73.52 171.6 73.2849 174.289 74.881 175.179C76.1625 175.893 77.7396 174.555 79.3279 175.605C80.7666 176.555 81.6883 178.406 81.7073 180.085C81.7155 180.79 81.114 181.743 81.1972 182.336C81.3686 183.557 81.6497 183.232 82.4929 184.075C84.1066 185.687 84.169 186.627 83.6894 188.691C83.412 189.885 83.1284 189.763 83.7707 190.931C84.2667 191.833 85.4099 192.253 85.8867 193.31C86.6608 195.026 85.9069 196.858 86.4499 198.678C87.1485 201.02 86.3755 203.003 86.2969 205.328C88.1274 205.441 90.2692 205.156 91.9136 206.457C93.708 207.876 95.1657 210.561 95.8111 212.713C96.4294 214.777 96.1277 216.516 96.0319 218.509C95.9157 220.936 96.8437 222.241 98.0476 224.386C100.593 228.92 101.388 233.959 98.4645 237.665C97.3051 239.134 96.4507 240.78 95.2459 242.226C93.7732 243.994 92.4435 244.872 90.4369 245.918C89.182 246.572 87.5873 247.13 88.0621 248.858C88.2991 249.723 90.1168 252.543 90.8007 253.024C91.9712 253.846 93.2704 252.854 94.696 253.314C97.2665 254.145 97.7438 255.893 100.317 254.387C108.653 249.508 116.436 243.776 125.109 239.453C129.387 237.322 133.863 235.714 138.095 233.471C142.752 231.002 147.315 228.351 152.001 225.937C156.425 223.658 160.965 221.778 165.077 218.935C168.917 216.28 172.552 213.642 176.211 210.726C177.463 209.728 179.717 208.701 179.95 206.923C180.079 205.937 179.511 204.726 179.598 203.673C179.679 202.702 180.047 201.81 180.329 200.919C181.013 198.758 181.691 196.777 183.64 195.651C185.348 194.665 187.544 195.252 189.544 195.449C191.866 195.68 192.861 195.829 194.469 194.217C196.072 192.611 197.28 190.704 198.735 188.957C201.805 185.271 204.277 181.151 206.432 176.737C207.493 174.562 208.263 173.066 210.675 172.523C213.148 171.965 214.145 172.29 215.663 174.734C216.144 175.51 216.728 177.054 217.78 177.032C218.544 177.016 219.234 175.348 219.568 174.817C221.043 172.47 222.454 170.103 224.2 167.984C225.792 166.049 227.459 164.18 229.08 162.272C230.436 160.676 232.204 158.484 234.534 158.507C240.421 158.567 238.226 169.132 237.956 172.368C239.651 170.568 244.218 168.235 246.82 170.104C249.899 172.317 249.152 176.818 249.034 179.857C251.683 179.691 255.189 176.321 257.772 179.298C259.94 181.797 259.129 186.132 258.479 188.759C256.797 195.557 252.009 202.509 246.437 205.967C245.023 206.845 243.443 207.367 241.981 208.148C240.912 208.72 240.228 209.7 239.224 210.312C237.807 211.175 236.355 211.617 235.033 212.736C233.509 214.024 232.035 215.365 230.476 216.613C229.029 217.77 227.57 218.91 226.08 220.008C225.098 220.733 223.371 221.42 222.65 222.407C221.717 223.685 222.397 223.984 223.136 225.43C224.043 227.206 224.229 229.196 223.831 230.989C222.383 237.504 215.06 240.597 209.406 235.757C208.031 234.58 208.205 233.422 207.218 232.208C206.226 230.985 205.177 231.684 204.068 232.234C200.694 233.908 197.43 235.855 194.053 237.555C187.516 240.846 180.48 243.738 174.351 247.694C167.955 251.822 161.134 255.345 154.389 258.883C151.242 260.534 147.356 261.216 144.532 263.293C141.533 265.498 137.688 266.755 134.27 268.308C126.628 271.779 118.526 276.36 109.872 276.945C115.386 284.854 121.32 292.679 119.254 302.329C118.388 306.373 117.127 311.168 114.611 314.196C111.367 318.098 108.147 321.656 104.611 325.238C98.0341 331.898 93.1561 341.244 88.6992 349.685C86.6028 353.655 83.2052 356.769 80.3059 360.041C78.9253 361.6 77.4311 363.457 75.6034 364.467C73.8023 365.461 71.7471 364.826 69.6969 364.946C70.6596 369.876 70.8958 374.782 71.817 379.666C72.2741 382.089 72.9639 384.541 73.2596 386.973C73.4849 388.827 72.8947 390.256 73.8182 392.003C76.0595 396.247 79.3027 400.123 81.6427 404.37C84.1948 409.002 86.3687 413.955 88.755 418.694C93.9117 428.937 100.247 438.556 105.558 448.723C110.41 458.012 116.155 466.663 120.727 476.133C121.996 478.761 123.237 481.403 124.577 483.999C125.457 485.702 126.957 489.943 128.586 490.959C129.298 491.403 130.117 491 130.831 491.006C131.946 491.015 133.148 491.334 134.238 491.764C136.54 492.671 138.063 494.491 139.657 496.459C140.689 494.429 144.431 484.949 146.894 491.348C147.658 493.332 146.835 495.151 146.417 496.967C146.111 498.297 145.873 499.656 145.472 500.949C145.202 501.821 144.353 503.214 144.583 504.229C144.997 506.044 148.906 506.62 150.124 505.858C151.834 504.788 152.176 500.499 153.06 498.661C155.406 493.781 158.366 499.446 158.342 502.703C158.325 505.162 159.174 504.458 160.912 503.899C163.628 503.027 166.113 502.181 168.735 501.064C173.745 498.929 177.76 495.32 183.077 493.77C188.372 492.228 193.066 493.858 197.008 498.855C199.09 501.494 198.55 499.862 201.034 499.27C203.328 498.723 205.947 500.594 208.093 501.638C212.376 503.721 221.732 509.838 220.804 515.923C220.41 518.507 216.664 520.186 214.954 521.625C213.853 522.55 212.788 524.09 211.357 524.496C209.997 524.882 208.493 524.152 207.118 523.781C210.395 529.203 213.223 533.925 211.873 540.095C210.785 545.075 207.647 548.963 203.425 551.089C199.287 553.174 194.109 553.784 189.386 551.645C186.894 550.517 184.517 548.72 182.7 546.494C181.863 545.47 181.103 544.319 180.571 543.101C180.256 542.377 180.071 540.829 179.328 540.396C178.027 539.638 175.588 542.406 174.665 543.124C172.227 545.022 169.844 546.991 167.476 548.981C165.519 550.626 163.53 552.317 161.076 553.161C158.968 553.887 158.115 554.087 159.993 556.424C163.769 561.126 165.4 566.34 163.661 571.696C161.921 577.056 158.932 579.723 153.967 581.605C149.43 583.324 143.007 581.151 139.139 577.457C133.991 572.542 132.371 566.2 133.743 559.877C130.615 559.931 128.6 560.064 125.895 557.445C123.067 554.706 121.784 550.8 120.205 547.291C116.814 539.756 112.335 533.138 108.362 525.924C106.608 522.742 105.247 519.246 103.376 516.146C102.31 514.378 102.264 514.493 100.679 515.435C99.6962 516.02 98.7078 516.728 97.4992 515.665C94.5823 513.101 99.407 510.538 99.8137 508.565C100.299 506.213 95.733 500.869 94.4248 498.806C90.176 492.108 86.7372 485.133 82.746 478.302C80.9437 475.217 79.1553 471.907 77.0883 468.997C76.2629 467.835 75.0642 467.22 74.3704 465.986C73.4815 464.407 72.8622 462.804 71.815 461.235C62.6046 447.435 53.7099 433.087 46.7417 418.054C46.3242 417.154 45.6891 414.943 44.8986 414.264C43.7013 413.236 42.6477 414.498 41.4335 414.592C38.0375 414.857 36.1295 413.163 34.1344 410.197C32.9525 408.439 31.7707 406.681 30.5906 404.921C29.9847 404.017 29.3793 403.113 28.7713 402.21C28.0662 401.164 27.7152 399.719 27.1439 398.828C26.9601 398.542 26.5881 398.173 26.4818 398.003C26.0771 398.016 25.8083 397.836 25.6732 397.466C25.4708 397.163 25.3299 396.834 25.2507 396.479C25.3735 396.645 24.4642 395.591 24.51 395.705C24.4397 395.528 24.3715 394.266 24.2502 394.182C23.685 393.787 23.5781 394.749 22.7999 393.846C22.1474 393.089 22.0215 391.808 21.2627 390.918C19.2356 388.542 18.2034 385.934 16.9082 383.071Z" fill="#2D4710"/>
<path fill-rule="evenodd" clip-rule="evenodd" d="M-84.4791 501.247C-55.557 483.792 -26.1158 467.04 3.28341 450.536C6.52337 448.717 9.89541 447.093 13.1663 445.322C13.7346 445.014 15.3903 443.644 16.2139 444.078C17.5551 444.785 16.7171 446.843 16.3066 447.786C14.8933 451.032 11.436 452.714 8.7011 454.525C4.92698 457.023 1.06967 459.389 -2.83536 461.675C-16.4036 469.618 -30.5617 476.603 -44.5266 483.828C-53.1288 488.28 -61.6238 492.965 -70.0656 497.706C-74.2325 500.047 -78.3652 502.451 -82.5419 504.774C-83.6695 505.402 -85.4375 507.017 -86.4514 505.347C-87.5078 503.608 -85.4792 501.983 -84.4791 501.247Z" fill="#2D4710"/>
<path fill-rule="evenodd" clip-rule="evenodd" d="M-38.5808 499C-17.5319 487.609 3.33714 475.891 24.3423 464.424C25.7044 463.681 28.2507 461.518 29.8855 463.09C31.5857 464.723 30.6176 467.986 29.4985 469.356C28.0455 471.136 25.4652 472.2 23.5712 473.436C21.0225 475.099 18.5358 476.573 15.8218 477.944C5.47961 483.168 -4.98513 488.153 -15.3304 493.377C-21.1869 496.334 -27.0885 499.209 -33.0083 502.043C-34.5871 502.799 -38.7293 505.943 -40.6212 505.178C-41.7866 504.706 -41.914 502.962 -41.6827 501.912C-41.3012 500.183 -39.9487 499.702 -38.5808 499Z" fill="#2D4710"/>
<path fill-rule="evenodd" clip-rule="evenodd" d="M37.3393 488.142C30.9491 492.585 23.8673 496.055 16.5729 498.754C15.5789 499.121 13.5115 500.35 12.3654 499.743C10.6149 498.817 11.4761 496.558 12.4954 495.764C15.3193 493.562 19.6765 492.59 22.8753 490.943C26.2212 489.22 29.2349 486.851 32.434 484.869C34.2625 483.735 36.0923 482.604 37.9273 481.48C39.0039 480.822 40.3637 479.566 41.6 479.201C45.0598 478.181 43.0257 483.375 41.9005 484.514C41.5103 484.909 37.5073 488.384 37.3393 488.142Z" fill="#2D4710"/>
<path fill-rule="evenodd" clip-rule="evenodd" d="M70.7712 216.571C70.2701 215.646 68.6896 213.5 69.3954 212.489C70.7719 210.517 73.8778 215.913 75.0652 216.217C79.4219 217.33 72.2734 207.19 76.9081 209.046C80.674 210.554 83.0575 218.251 80.8847 221.276C79.284 223.504 76.7431 222.629 74.6626 221.093C74.6142 221.057 70.4101 216.761 70.7712 216.571Z" fill="#2D4710"/>
<path fill-rule="evenodd" clip-rule="evenodd" d="M65.852 202.979C66.9769 201.906 69.6103 202.434 69.729 204.421C69.8159 205.875 66.9122 209.973 65.8625 210.65C64.5743 211.481 63.9561 210.213 63.6321 208.736C63.1243 206.424 64.0636 204.035 65.852 202.979Z" fill="#2D4710"/>
<path fill-rule="evenodd" clip-rule="evenodd" d="M192.596 535.499C192.118 534.05 190.594 531.395 191.53 530.062C192.917 528.092 195.93 531.209 196.877 532.626C197.902 534.162 199.458 537.803 197.331 538.714C195.586 539.461 193.755 536.685 192.596 535.499Z" fill="#2D4710"/>
<path fill-rule="evenodd" clip-rule="evenodd" d="M146.322 566.37C145.738 564.595 144.102 561.742 145.438 560.286C146.908 558.683 149.159 561.157 150.144 562.73C151.064 564.2 152.676 568.477 150.711 569.344C149.199 570.012 147.385 567.446 146.322 566.37Z" fill="#2D4710"/>
</g>
<defs>
<clipPath id="clip0_287_3836">
<rect width="586.704" height="507.159" fill="white" transform="translate(-319 304.486) rotate(-31.2637)"/>
</clipPath>
</defs>
</svg>
