<?xml version="1.0" encoding="UTF-8" standalone="no"?><svg width="178" height="170" viewBox="0 0 178 170" fill="none" xmlns="http://www.w3.org/2000/svg">
<g clip-path="url(#clip0_284_2871)">
<path fill-rule="evenodd" clip-rule="evenodd" d="M138.368 20.512C138.431 21.2041 139.105 20.6755 139.169 21.0507C139.208 21.2865 138.514 21.8715 138.364 22.0327C138.848 22.4041 139.466 21.5483 139.828 21.1898C140.015 21.4481 140.079 21.5838 139.907 21.8793C139.604 22.401 139.618 21.7097 139.258 22.0727C139.408 22.3937 139.539 22.2097 139.73 22.1234C139.647 22.741 139.833 22.3501 139.978 22.7412C140.096 23.0593 140.082 23.2944 140.117 23.6497C139.946 24.1499 139.775 24.6504 139.604 25.1507C139.399 25.7525 139.46 25.946 138.957 25.7448C139.013 25.6199 139.39 25.0094 139.359 24.8594C139.324 24.6878 138.81 24.4505 138.674 24.3064C138.435 24.053 138.437 23.8356 138.285 23.5633C138.345 23.3101 138.298 23.1917 138.143 23.2087L137.972 23.7955C137.986 24.2119 138.262 24.1729 138.425 24.5707C138.675 25.1794 138.535 24.8202 138.331 25.31C138.131 25.7913 138.108 26.4055 137.779 26.6475C137.956 26.7464 138.133 26.8453 138.31 26.9441C137.897 27.5214 138.756 27.2402 138.898 27.1842C138.752 27.5771 138.607 27.97 138.462 28.363C138.026 28.0526 137.812 27.4643 137.522 26.9784L136.859 28.546C137.079 28.5201 137.299 28.4944 137.518 28.4685C137.488 28.5422 137.206 29.0478 137.23 29.1603C137.329 29.6187 138.076 29.3602 137.993 29.9598C137.983 30.0366 137.313 30.897 137.198 30.98C137.535 31.1726 137.687 31.0927 137.566 31.5985L137.097 31.2375C136.964 31.5418 136.81 31.8391 136.725 32.1725C136.741 32.3905 136.711 32.597 136.633 32.7922C136.541 32.9669 136.437 33.1298 136.322 33.2808C136.23 33.5874 136.201 35.2608 136.311 35.5337C136.557 35.1293 137.107 35.8432 136.179 35.8432C135.773 35.8432 135.8 35.7356 135.645 36.1898C135.523 36.5473 135.457 36.8592 135.803 36.8935C135.543 37.5463 135.599 38.0492 135.575 38.7449C135.556 39.3085 135.432 39.8687 135.34 40.4217C135.422 40.2709 135.505 40.1204 135.587 39.9697C135.809 40.5726 135.64 41.0804 135.534 41.7257C135.304 41.3381 135.276 42.0296 135.079 41.9581C134.677 41.812 134.978 41.7044 134.814 41.3686C134.673 41.0778 134.687 40.9943 134.426 40.8166C134.078 40.5808 133.47 40.572 133.077 40.4887C132.416 40.3484 131.755 40.3132 131.087 40.2762C128.585 40.1381 126.092 40.1027 123.591 40.2778C121.29 40.4389 118.934 40.8498 116.677 41.4062C114.275 41.9986 111.926 42.5449 109.599 43.547C109.15 43.7406 108.7 44.1446 108.25 44.2865C107.824 44.4213 107.397 44.4195 106.952 44.6161C105.888 45.0867 104.787 45.4435 103.714 45.8927C102.558 46.3768 101.308 46.7805 100.208 47.4505C99.7299 47.7416 99.2962 48.1363 98.8185 48.4311C98.3686 48.7089 97.6121 48.9624 97.3745 49.6039C97.2819 49.854 97.2977 50.0353 97.3552 50.2945C97.4706 50.8147 97.5617 50.7585 97.8753 50.7233C98.3116 50.6741 98.8762 50.2418 99.2998 50.0718C100.46 49.6065 101.633 49.234 102.813 48.8612C104.931 48.1916 107.057 47.0061 109.147 46.5423C110.387 46.2674 111.561 45.5197 112.808 45.2372C113.081 45.1755 113.873 44.6785 114.097 44.8503C114.157 44.8957 114.302 45.4411 114.354 45.5715C114.538 46.0399 114.749 46.4921 114.996 46.9115C115.741 48.1764 116.74 49.195 117.632 50.285C118.651 51.5301 119.536 52.9036 120.476 54.2401C120.558 54.1195 120.64 53.9989 120.721 53.8784C120.635 54.7225 121.132 55.3312 121.537 55.9043C122.019 56.5852 122.407 57.2251 122.786 58.0014C123.098 58.638 123.497 59.1954 123.849 59.7753C124.195 60.346 124.426 61.0346 124.744 61.6495C125.476 63.062 126.196 64.5017 126.933 65.8951C127.281 66.551 127.555 67.289 127.83 68.0356C128.048 68.6282 128.704 69.8398 128.704 70.4147C128.657 70.6963 129.137 72.3901 128.624 71.5919C128.543 71.753 128.461 71.9142 128.379 72.0753C128.519 72.0005 128.659 71.9257 128.799 71.8508C128.374 72.3416 129.168 72.4047 129.186 72.6789C129.115 72.7659 129.044 72.8529 128.974 72.9399C128.853 73.2573 128.695 73.2985 128.502 73.0634C128.288 73.08 128.246 72.9282 128.008 73.0293C128.235 73.4807 128.527 73.1954 128.643 73.8191C128.744 74.3687 128.423 74.4866 128.084 74.8116L128.063 74.8321L128.056 74.8645C127.982 75.1456 127.772 75.0259 127.539 74.9646C126.981 74.8183 126.365 74.5379 125.821 74.322C124.647 73.8557 123.463 73.4625 122.249 73.1436C119.478 72.4155 116.729 72.4498 113.933 72.2196C114.007 71.8296 114.007 71.8639 113.92 71.6222C114.032 71.9321 113.357 71.5275 113.866 72.2121C112.566 72.4826 111.163 72.2792 109.845 72.3693C109.907 72.1953 110.048 71.9952 109.916 71.8692C109.292 73.0178 107.208 72.5253 106.177 72.6898C105.572 72.7865 104.974 72.9718 104.371 73.0938L104.118 73.1444C103.906 73.1873 103.694 73.2343 103.487 73.3056C103.221 73.397 102.777 73.7726 102.524 73.6854C102.894 72.7363 102.468 73.5579 102.41 73.5688C102.234 73.6018 101.932 73.677 101.68 73.677C101.967 72.207 102.46 70.8525 102.659 69.3385C102.783 68.3946 103.123 66.8744 102.39 66.2054C101.989 65.8389 101.331 65.7594 100.866 65.6348C100.356 65.4982 99.4655 65.5037 99.0221 65.137C98.6758 64.8503 98.6026 64.5869 98.1491 64.3678C97.6259 64.115 97.3846 63.864 96.856 64.0683C97.071 63.7254 97.3722 63.4753 96.9502 63.1249C96.7772 62.9816 96.4383 63.1744 96.3776 62.861C96.0644 63.1428 96.1386 63.3703 96.0548 63.7566C96.0625 63.92 96.0962 64.0758 96.1563 64.2237C95.9905 64.3087 95.8248 64.3937 95.659 64.4787C95.7643 64.1181 95.4551 64.333 95.3934 64.1557C95.3014 63.8907 95.356 63.4863 95.356 63.1988C95.0143 63.3362 94.6569 63.5062 94.5074 63.9591C94.089 63.6415 94.2552 63.6198 94.4697 63.1432C94.1184 63.0374 94.044 63.2676 93.9906 63.6382C93.8053 63.5651 93.6196 63.4923 93.4343 63.4195C93.8522 63.4157 93.9525 63 93.9624 62.5484C93.7999 62.6157 93.6374 62.6832 93.4747 62.7505C93.4413 62.969 93.4079 63.1875 93.3745 63.406C93.1185 63.6822 92.4524 63.1833 92.2363 63.0405C91.483 62.5431 91.2073 62.3993 91.3135 61.269C91.4023 60.3216 91.5989 59.3696 91.6425 58.4173C91.691 57.3595 91.594 56.2281 91.5212 55.1736C91.38 53.1329 91.1529 51.1219 91.0732 49.0728C91.0303 47.9634 90.9823 46.8538 90.9481 45.7437C90.921 44.8614 90.6818 43.8905 91.5462 43.8121C91.4405 43.3849 91.7571 42.8909 92.0837 42.6569C92.1979 42.3255 92.3227 42.2959 92.4585 42.5684C92.5763 42.6155 92.6858 42.5934 92.7872 42.5015C93.2631 42.364 93.834 41.5041 94.2612 41.194C94.6802 40.89 95.5936 40.4482 95.8928 39.9365C96.182 39.4413 95.7445 39.4971 95.833 39.0433C95.9536 38.4231 96.3933 39.3138 96.4607 39.4377C96.6076 39.2498 97.1687 38.8974 97.1621 38.6243C97.0246 38.5931 96.8873 38.5618 96.7498 38.5306C96.9 38.4202 97.2332 38.0904 97.4079 38.0468C97.7048 37.9726 97.5934 37.8768 97.8313 38.2936C97.9141 38.1302 98.1154 37.5934 98.2414 37.4847C98.3015 37.4327 98.6589 37.3982 98.7338 37.3645C99.1229 37.1894 99.0836 36.8041 99.3695 36.6208C99.5083 36.532 99.679 36.6684 99.7954 36.6037C99.9814 36.5002 99.9819 36.1466 100.151 36.0185C100.297 35.9074 100.667 35.9997 100.841 35.9189C101.13 35.7845 101.118 35.6594 101.333 35.4142C101.635 35.0704 101.914 35.1202 102.25 34.8597C102.599 34.5896 102.546 33.9816 102.863 33.8656C103.286 33.7109 103.394 34.2209 103.624 33.7171C103.676 33.604 103.441 33.4348 103.588 33.2533C103.77 33.0298 103.845 33.2965 103.928 33.4703L104.215 32.7803C104.675 33.1013 104.482 32.6873 104.833 32.4669C104.989 32.369 105.118 32.5623 105.289 32.4441C105.414 32.3573 105.436 32.1683 105.526 32.0512C105.7 31.826 105.796 31.517 106.065 31.4099C105.967 31.4484 106.763 31.4192 106.692 31.3758C106.615 31.231 106.538 31.0863 106.46 30.9415C106.877 30.9415 107.24 30.9942 107.644 30.8348C107.786 30.7786 108.009 30.6918 108.128 30.5763C108.454 30.2586 108.381 30.3361 108.381 29.7526C108.831 30.1174 109.404 29.9899 109.848 29.5669C110.08 29.346 110.228 29.0817 110.483 28.882C110.592 28.8101 110.703 28.7428 110.816 28.6804C110.957 28.4944 111.098 28.4927 111.24 28.6753C111.44 28.6069 111.438 28.5597 111.593 28.436C111.637 28.324 111.685 28.214 111.735 28.1062C111.902 28.084 112.066 28.0457 112.228 27.9913C112.857 27.7759 113.236 27.2416 113.82 27.715C113.895 27.5214 113.969 27.3275 114.044 27.1335C114.292 27.6276 114.462 27.1557 114.792 26.9556C114.93 26.8717 115.109 26.8509 115.234 26.7743L115.445 26.8378C115.505 26.6032 115.564 26.3686 115.624 26.1339C115.744 26.1935 116.22 26.5191 116.363 26.5018C116.568 26.4772 116.813 26.0352 117.012 25.9517C117.315 25.8245 117.206 25.9927 117.504 25.9953C117.733 25.9973 117.841 26.0387 118.039 25.7939C117.37 25.5728 118.214 25.4685 118.495 25.3937C118.934 25.2773 119.16 25.4017 119.465 24.9601H119.149C119.461 24.5982 119.356 24.7259 119.685 24.7613C119.788 24.7721 120.239 25.0871 120.24 24.667C120.665 24.986 120.67 24.9866 121.108 24.8428C121.302 24.779 121.467 24.5716 121.68 24.5667C121.888 24.5621 122.037 24.6818 122.223 24.6562C122.334 24.6411 122.723 24.4554 122.854 24.3945C123.063 24.2978 123.2 24.0913 123.4 24.0114C123.619 23.923 123.898 24.028 124.129 23.9635C124.814 23.7714 125.216 23.249 125.958 23.5319C126.038 22.6861 126.865 22.8743 127.311 22.9615C127.621 23.0223 127.779 23.1822 128.1 22.9887C128.361 22.8313 128.51 22.5816 128.801 22.4559C129.025 22.3594 129.325 22.2892 129.558 22.2277C129.703 22.1697 129.85 22.1511 130 22.1721C130.151 22.1991 130.278 22.2828 130.38 22.4229L130.399 22.4506C130.422 22.3808 130.773 22.0495 130.733 22.0904C130.995 21.8233 131.118 21.9253 131.279 21.4051L130.717 21.2542C131.006 21.2294 131.224 21.1869 131.481 21.3301C131.659 21.429 131.958 21.9534 132.136 21.9539C132.458 21.9543 132.571 21.3764 132.539 21.0755C132.809 21.8771 133.04 22.0105 133.647 21.6008C133.718 21.5525 133.789 21.5045 133.861 21.4563C134.005 21.2635 134.149 21.267 134.291 21.4671L134.546 21.6435C134.648 21.4273 134.75 21.2112 134.852 20.995C135.069 21.3748 135.274 21.3934 135.628 21.3046C135.871 21.2433 136.371 20.6813 136.551 20.6815C136.655 20.6815 136.788 21.0047 136.961 21.0678C137.249 21.1727 137.695 20.9089 137.798 20.5587C137.852 20.7048 137.907 20.8511 137.961 20.9974C138.097 20.8358 138.233 20.6747 138.368 20.512ZM128.054 74.8294L128.053 74.8418L128.063 74.8321L128.063 74.8316L128.054 74.8294ZM127.701 74.0668V74.7475L127.882 74.7895L128.054 74.8294L128.056 74.7921C128.063 74.4647 127.932 74.2222 127.701 74.0668ZM111.706 71.3588C111.649 71.5793 111.593 71.7999 111.536 72.0204C111.726 72.0401 111.917 72.0598 112.107 72.0797C111.973 71.8393 111.839 71.5992 111.706 71.3588ZM89.3813 53.9174C89.7969 54.0719 89.7912 54.0531 89.8746 54.5428C90.3493 57.3296 88.8805 60.526 89.9589 63.1751C86.8064 63.1426 83.6474 63.2227 80.5133 63.6931C80.5133 62.1755 80.5524 60.6612 80.4624 59.146C80.4215 58.4583 80.3605 57.773 80.3054 57.087C80.2357 56.2164 80.2578 56.2673 80.8173 56.1175C81.1113 56.0387 81.2164 55.8014 81.4973 55.6568C81.7082 55.5481 81.8027 55.6818 82.0106 55.719C82.3825 55.7859 82.387 55.7064 82.7277 55.6139C83.459 55.4153 84.0801 55.4862 84.6579 54.7909C84.9574 54.7579 84.8604 55.1112 85.0691 55.0767C85.2209 55.0514 85.3175 54.6906 85.4724 54.6045C85.9541 54.336 86.756 54.4015 87.283 54.3176C87.8214 54.2322 88.2978 53.923 88.8132 53.8313C89.0255 53.7937 89.1802 53.8426 89.3813 53.9174ZM95.4626 61.9605C95.3608 62.4424 94.9145 61.8151 94.9076 62.193L94.908 62.2275L94.909 62.219C94.9325 62.1543 95.3838 62.9151 95.3572 62.8898C95.5997 63.1224 95.741 63.1005 96.0159 62.8335C95.5239 62.8099 95.5782 62.4234 95.4626 61.9605ZM96.8334 62.6414C97.0129 62.7671 97.0679 62.4455 97.1609 62.2492C96.9603 62.1219 96.9307 62.4181 96.8334 62.6414ZM96.2777 60.545C96.3475 60.858 96.3425 61.0979 96.3425 61.4211C96.7578 61.3463 96.8883 61.3078 96.896 60.7453L96.674 60.923C96.5575 60.6293 96.5318 60.6065 96.2777 60.545ZM93.0639 61.0689C93.158 60.9919 93.252 60.9146 93.346 60.8374C93.2073 60.5833 92.9607 60.8854 93.0639 61.0689ZM94.1142 56.3926C94.2341 56.3125 94.3544 56.2323 94.4744 56.1522C94.1629 55.6464 94.1401 55.8162 94.1142 56.3926ZM93.6801 52.3808H93.208C93.3005 52.7673 93.6801 52.8505 93.6801 52.3808ZM139.936 29.8951C140.044 29.9753 140.152 30.0554 140.26 30.1353C139.98 30.4605 139.635 30.7883 139.908 31.1695C140.125 31.4721 141.137 31.6164 141.44 31.7266C141.335 31.8807 141.118 32.3017 140.975 32.4077C140.861 32.4916 140.757 32.1594 140.528 32.4903C140.908 32.7413 140.806 32.5512 140.707 33.0835C140.649 33.3976 140.441 33.735 140.323 34.0168C140.037 34.7023 139.745 35.3834 139.445 36.0592C138.83 37.4451 138.182 38.808 137.502 40.1436C137.387 39.3892 137.715 38.5439 137.885 37.8161C138.099 36.9001 138.314 35.9846 138.529 35.0693C138.945 33.3055 139.319 31.5602 139.936 29.8951ZM123.425 32.1966C123.117 32.2964 122.916 32.3615 122.598 32.4646C123.06 32.6519 123.06 32.6519 123.425 32.1966ZM137.04 28.7968C136.648 29.0306 136.606 29.2003 136.923 29.4863C136.961 29.2639 136.989 29.1007 137.04 28.7968ZM136.992 23.2654C136.939 23.5622 136.609 23.2767 136.536 23.4936C136.369 23.9899 136.901 23.9226 137.092 23.8927C137.059 23.6835 137.026 23.4746 136.992 23.2654ZM139.215 22.8886C139.11 23.5233 139.11 23.5233 139.596 23.6187C139.468 23.3743 139.361 23.1693 139.215 22.8886ZM130.399 22.4506L130.398 22.4573C130.398 22.4612 130.401 22.463 130.407 22.4625L130.399 22.4506Z" fill="#4D7520"/>
<path fill-rule="evenodd" clip-rule="evenodd" d="M68.9405 88.9214C68.8668 89.4046 68.6826 89.6321 68.8757 90.076C69.0396 90.4529 69.5096 90.6997 69.8251 90.6043L68.9405 88.9214ZM60.3927 71.7341L58.8364 72.4134C59.2618 72.9449 59.6671 73.5036 60.1361 73.9755L60.3927 71.7341ZM86.0635 73.4739C85.3212 72.9976 84.4898 72.9438 83.6761 72.8827C83.7997 73.7334 83.9236 74.5843 84.0476 75.4349C84.7194 74.7813 85.3916 74.1276 86.0635 73.4739ZM68.2403 139.326C68.0922 138.992 67.082 136.411 66.872 136.544C66.7605 136.614 66.7519 138.05 66.7355 138.255C66.6776 138.982 66.6196 139.708 66.5617 140.435C67.1593 140.167 67.7976 139.944 68.2403 139.326ZM61.1815 118.462C61.3343 119.032 61.4873 119.603 61.6401 120.173C61.7127 120.444 61.7553 120.844 61.884 121.084C62.051 121.394 61.925 121.577 62.148 121.237C62.3876 120.872 62.4592 119.898 62.5631 119.451C62.7211 118.772 62.879 118.093 63.0368 117.414C62.2926 117.406 61.8416 118.186 61.1815 118.462ZM45.5436 84.8739C44.6286 85.6703 43.7022 86.4604 42.9061 87.4502C43.6065 87.3947 44.5816 88.0083 45.2413 87.7201C45.5459 87.8029 45.6465 87.6557 45.5436 87.278V86.4935V84.8739ZM59.1112 90.5078V95.1578C59.9656 94.2308 60.8648 93.3697 61.6868 92.3949C60.8283 91.7658 59.9699 91.1369 59.1112 90.5078ZM89.653 102.556C89.3834 104.626 89.3685 106.757 89.2946 108.852C89.2815 109.224 89.1691 109.783 89.3636 110.109C89.5588 110.435 90.1149 110.616 90.3975 110.791C91.1928 111.282 91.9827 111.787 92.7757 112.284C91.7348 109.041 90.6939 105.799 89.653 102.556ZM109.843 89.8256C111.805 88.5975 113.767 87.3695 115.729 86.1412C113.806 85.1041 111.882 84.0673 109.958 83.0302C109.92 85.2954 109.882 87.5607 109.843 89.8256ZM89.6488 95.6076C90.0074 95.6404 90.0641 93.9012 90.1234 93.4412C90.2364 92.5682 90.3521 91.6958 90.4709 90.8239C90.7085 89.081 90.9581 87.3407 91.2209 85.6037C91.7466 82.1302 92.3263 78.6698 92.9688 75.2284C92.2783 75.0699 91.644 74.9559 90.9698 74.7C90.4252 74.4933 89.7766 74.6057 89.2904 74.1759C89.2273 75.7884 89.5435 77.5028 89.6605 79.1154C89.7961 80.9812 89.8689 82.8372 89.8569 84.7114C89.8333 88.3436 89.725 91.9767 89.6488 95.6076ZM44.4914 144.819C44.8314 144.704 44.3685 138.768 44.3478 137.912C44.2887 135.434 44.2773 132.954 44.312 130.476C42.4802 131.938 40.6058 133.286 38.6708 134.501C39.1681 135.322 39.6341 136.208 40.1845 136.972C40.7515 137.76 41.402 138.405 41.9275 139.253C42.9854 140.961 43.7101 142.899 44.4914 144.819ZM88.572 109.708C88.6572 107.923 88.7361 106.141 88.8776 104.361C88.9379 103.604 89.5127 99.5791 88.5923 99.6736C88.0687 99.7274 87.1504 100.703 86.6703 101.045C86.0362 101.497 85.4012 101.947 84.7639 102.392C83.5064 103.269 82.2406 104.127 80.9786 104.994C83.5098 106.566 86.0409 108.137 88.572 109.708ZM83.1072 72.5872C82.0588 72.4876 81.0454 72.3884 80.0113 72.1398C79.4536 72.0057 78.896 72.0243 78.3354 71.9338C77.9339 71.8689 77.149 71.449 76.775 71.5864C76.3049 71.7591 76.1342 74.7587 76.0696 75.5115C75.9654 76.7241 75.8952 78.1952 76.3206 79.3343C77.1403 81.5301 79.3492 79.8162 80.4238 78.8951C81.3449 78.1053 82.3884 77.3056 83.2054 76.3469C83.929 75.4976 83.2794 73.6847 83.1072 72.5872ZM88.544 96.4658C89.3339 96.0589 89.3214 95.548 89.3558 94.4957C89.3975 93.2172 89.4218 91.9371 89.4505 90.6579C89.5016 88.3784 89.5499 86.0978 89.5339 83.8169C89.5185 81.589 89.4328 79.3646 89.2325 77.1504C89.1618 76.3675 89.2322 75.0303 88.9082 74.3625C88.6125 73.7533 87.6947 73.7469 87.1939 73.7845C86.6293 73.8268 86.1719 74.5097 85.7553 74.9413C85.2938 75.4196 84.3455 76.093 84.2699 76.8062C84.1851 77.6026 84.5287 78.7391 84.6619 79.5116C85.1488 82.331 85.7412 85.1227 86.3652 87.8972C87.0126 90.7756 87.6686 93.6831 88.544 96.4658ZM68.4759 89.7171C68.5268 89.0836 68.7119 88.5546 68.4616 87.9512C68.2466 87.4323 67.8965 86.911 67.6335 86.4198C66.8808 85.0129 66.0367 83.6653 65.2168 82.3212C64.4658 81.0903 63.6965 79.8724 62.9094 78.6786C62.471 78.0139 62.019 77.3636 61.5699 76.7106C61.2408 76.2327 60.929 75.5611 60.4636 75.311C60.1207 78.0551 59.8373 80.8112 59.6162 83.5757C59.5095 84.912 59.4173 86.2503 59.34 87.5899C59.3181 87.968 59.0878 89.245 59.235 89.5972C59.3899 89.967 60.3364 90.462 60.6261 90.6887C61.4362 91.3226 62.0656 92.2778 62.836 91.2356C63.3664 90.518 63.7935 89.5064 64.3862 88.8802C64.6951 88.5539 64.9859 88.5692 65.3324 88.3755C65.7351 88.1506 65.7478 87.9339 66.2292 88.24C67.0401 88.7556 67.5327 89.5175 68.4759 89.7171ZM27.8785 103.836C27.8785 105.736 27.7765 107.298 28.7878 108.836C29.6715 110.18 30.5899 110.491 31.8329 111.021C32.5649 111.333 32.616 111.046 33.2091 110.518C33.7728 110.018 34.3866 109.616 34.9425 109.099C36.1407 107.986 37.338 106.838 38.5025 105.666C38.894 105.273 38.8363 105.407 38.7768 104.934C38.7224 104.504 38.4798 103.956 38.3471 103.546C38.1072 102.805 37.8246 102.088 37.5418 101.373C37.2207 100.561 36.941 99.679 36.5423 98.9219C36.3768 98.6078 36.1804 98.3236 35.9872 98.0372C35.5806 97.434 35.5951 97.4563 35.1089 97.9493C34.0824 98.9903 33.1274 100.117 31.9721 100.931C30.6053 101.894 29.2418 102.864 27.8785 103.836ZM58.8284 89.1195C58.9767 86.3919 59.1439 83.6795 59.4007 80.9643C59.5326 79.5703 59.6861 78.1799 59.8354 76.7887C59.8962 76.2223 60.1309 75.2716 60.0002 74.7213C59.8717 74.1796 59.3047 73.6641 58.9936 73.2723C58.9099 73.1669 58.6529 72.7249 58.5423 72.705C58.4239 72.6839 57.9784 73.0994 57.8499 73.193C57.3956 73.5249 56.9493 73.8737 56.5099 74.2367C55.6818 74.9209 54.8794 75.6552 54.0942 76.4168C52.4477 78.0139 50.8775 79.7325 49.266 81.3856C50.7425 83.0333 52.5598 84.313 54.2107 85.6475C55.1867 86.4367 56.1678 87.2172 57.1616 87.9695C57.6655 88.3507 58.2499 88.9335 58.8284 89.1195ZM38.6445 137.893C37.4523 138.897 36.3137 139.957 34.9653 140.601C33.623 141.242 32.2963 141.489 30.909 141.87C30.2094 142.063 29.5518 142.273 28.8377 142.407C28.4375 142.483 27.8182 142.454 27.4533 142.669C27.1284 142.581 27.0127 142.722 27.1063 143.092C27.1098 143.207 27.1133 143.322 27.1168 143.437C27.2087 145.038 28.0169 146.965 28.7217 148.267C29.1332 149.027 29.6575 149.734 30.1784 150.373C30.7666 151.094 31.1058 151.603 31.9257 151.301C33.3078 150.791 34.5276 149.766 35.9285 149.313C37.0366 148.956 37.9571 148.206 39.0377 147.818C40.3705 147.339 41.6893 146.794 43.0405 146.394C42.4369 144.911 41.8972 143.366 41.1245 142.007C40.3321 140.613 39.4582 139.273 38.6445 137.893ZM45.957 87.9737C48.4504 88.6057 51.1529 89.1908 53.3845 90.8299C54.2553 91.4696 55.3593 92.4584 55.6143 93.7814C55.9192 95.3628 54.7205 96.3423 53.7193 96.8359C52.5171 97.4285 51.2085 97.6556 49.9347 97.8424C49.2604 97.9413 48.583 97.9953 47.9056 98.0443C47.3573 98.0841 46.4275 97.9307 45.9264 98.2074C45.6124 98.1277 45.5036 98.2897 45.5999 98.6937C45.594 98.8387 45.5883 98.9839 45.5825 99.1289L45.5306 100.433C45.496 101.301 45.4614 102.169 45.4266 103.037C45.3514 104.929 45.2759 106.82 45.2006 108.711C46.5066 107.681 47.5591 106.206 48.8356 105.106C49.4424 104.584 50.0449 104.06 50.6493 103.539C50.9027 103.321 51.0576 103.015 51.3071 102.811C51.6378 102.542 51.9311 102.379 52.2414 102.026C53.5086 100.583 54.9178 99.335 56.2618 98.0102C56.8723 97.4081 57.5407 96.8547 58.1216 96.209C58.73 95.5325 58.6459 94.9756 58.631 94.0032C58.6153 92.9737 58.912 91.6954 58.7744 90.7026C58.89 90.3657 58.8011 90.1561 58.5082 90.0737C58.3125 89.9144 58.1169 89.755 57.9212 89.5956C57.531 89.2777 57.1407 88.9599 56.7505 88.6422C55.198 87.3781 53.6457 86.1137 52.0933 84.8495C51.3178 84.218 50.5424 83.5865 49.7668 82.955C49.5502 82.7788 48.8437 81.9819 48.6007 82.0054C48.3528 82.0293 47.9228 82.6455 47.737 82.8417C47.4519 83.1423 47.1752 83.4586 46.8671 83.7218C46.7136 83.8572 46.5534 83.9781 46.3865 84.0845C46.1197 84.1173 46.027 84.3039 46.1082 84.6441C45.8739 85.6013 46.0027 86.9684 45.957 87.9737ZM80.5335 133.096C79.9689 129.735 79.2407 125.754 77.0385 123.468C74.805 121.149 71.5396 122.045 69.7925 124.768C68.9174 126.132 68.3749 127.745 67.972 129.416C67.5582 131.131 66.9486 133.366 67.0602 135.179C67.1091 135.974 67.6441 136.829 67.9499 137.523C68.2654 138.239 68.4748 139.267 69.2185 139.018C70.3715 138.634 71.5441 137.75 72.6231 137.117C73.7144 136.478 74.8634 135.951 75.995 135.333C76.7463 134.923 77.5262 134.611 78.2756 134.195C78.9862 133.8 79.9239 133.705 80.5335 133.096ZM113.896 113.076C115.471 113.794 116.29 112.645 117.398 111.351C118.448 110.126 119.585 108.947 120.552 107.615C121.549 106.242 122.337 104.619 123.104 103.033C123.879 101.43 124.926 99.6984 125.403 97.913C125.646 97.0048 125.749 95.9985 125.902 95.0597C125.939 94.8337 126.186 93.9928 126.108 93.8027C126 93.5412 125.312 93.5136 125.123 93.4755C123.621 93.1729 122.028 93.1579 120.521 93.4284C117.605 93.9516 115.166 96.0344 114.244 99.6761C113.163 103.945 113.682 108.69 113.896 113.076ZM103.685 76.0474C103.661 76.7865 105.052 76.9919 105.413 77.1644C106.246 77.5623 107.075 77.9827 107.884 78.4537C109.551 79.4237 111.328 80.0557 112.923 81.2284C116.363 83.7565 120.098 85.5386 123.573 87.9567C124.114 88.3337 125.172 89.2414 125.791 89.1646C126.12 89.1239 125.875 89.4608 126.088 88.7954C126.165 88.5559 126.19 88.2445 126.233 87.9879C126.362 87.2191 126.461 86.4433 126.606 85.6787C126.844 84.4203 127.087 83.2529 127.187 81.9595C127.23 81.4115 127.277 80.8641 127.282 80.3129C127.287 79.7542 127.388 78.3544 127.19 77.8707C127.058 77.55 127.032 77.66 126.704 77.5694C126.516 77.5176 126.319 77.4098 126.137 77.3379C125.712 77.1692 125.286 77.0072 124.839 76.9576C124.398 76.9085 124.117 76.7376 123.703 76.6384C123.269 76.5344 122.824 76.6606 122.382 76.5154C121.904 76.3584 121.677 76.2152 121.178 76.2752C120.695 76.3332 120.556 76.1968 120.082 76.029C119.687 75.8891 119.216 75.987 118.805 75.9445C118.306 75.8927 117.81 75.8134 117.311 75.7632C115.068 75.5372 112.799 75.8723 110.552 75.8457C109.33 75.8314 108.134 76.0611 106.913 75.9901C105.847 75.9281 104.744 75.9427 103.685 76.0474ZM109.519 91.0971C108.428 91.6261 107.417 92.4854 106.405 93.2254C105.239 94.0787 104.123 94.9854 103.044 96.0087C101.229 97.7295 99.1113 99.7927 98.6337 102.795C98.1436 105.877 100.245 108.402 102.216 109.663C104.463 111.101 107.077 111.844 109.538 112.393C109.275 105.299 109.337 98.1932 109.519 91.0971ZM76.8857 107.799C76.2239 108.032 75.6637 108.53 75.0497 108.899C74.4999 109.23 73.9678 109.479 73.4541 109.904C72.6172 110.598 71.6469 111.192 70.7718 111.728C68.6066 113.054 66.5045 114.702 64.3608 116.172C63.7928 116.562 63.6066 116.808 63.4142 117.61C63.2052 118.482 63.0083 119.359 62.807 120.233C62.6193 121.049 62.3196 121.921 62.3985 122.781C62.4673 123.53 62.7715 124.237 63.0008 124.92C63.5783 126.639 64.2042 128.33 64.851 130.008C65.4315 131.515 65.9611 133.113 66.7061 134.498C67.2852 130.652 67.8047 126.343 70.0494 123.413C72.2923 120.484 75.8705 120.443 78.0319 123.466C79.0587 124.902 79.6836 126.71 80.1749 128.527C80.4328 129.482 80.6061 130.455 80.7721 131.441C80.9494 132.494 80.9058 133.053 81.8184 132.734C82.5431 132.48 83.3114 132.278 84.0219 131.989C84.3904 131.839 84.7498 131.671 84.7665 131.3C84.7877 130.832 84.2927 129.873 84.1465 129.433C83.3915 127.159 82.6364 124.885 81.8813 122.612C81.0614 120.143 80.2413 117.674 79.421 115.206C79.0118 113.974 78.6024 112.742 78.193 111.511C77.8197 110.388 77.5087 108.721 76.8857 107.799ZM109.58 88.6C109.592 87.4775 109.607 86.355 109.618 85.2323C109.625 84.5633 109.859 83.2697 109.402 82.7918C109.118 82.4957 108.277 82.2686 107.918 82.0658C107.21 81.666 106.443 81.4876 105.731 81.0905C102.942 79.5346 100.039 78.2388 97.1674 76.9848C96.5482 76.7143 95.9153 76.493 95.292 76.2267C94.9555 76.083 93.709 75.2388 93.3976 75.4597C93.1249 75.653 92.9192 77.955 92.832 78.4329C92.6253 79.5645 92.4277 80.6989 92.2378 81.8354C91.5006 86.2474 90.8823 90.6904 90.3073 95.141C91.8349 94.4023 93.2991 93.1224 94.7424 92.133C96.2416 91.1052 97.7357 90.0799 99.2452 89.0759C99.6712 88.7923 101.17 87.4894 101.521 88.0008C102.084 88.8213 100.743 89.7838 100.391 90.1353C99.0295 91.495 97.5912 92.6804 96.1352 93.8664C94.6266 95.0958 93.0566 96.1818 91.5401 97.3886C90.9927 97.8242 90.1189 98.3546 89.9037 99.0904C89.6269 100.037 89.8267 101.187 90.0787 102.091C90.6975 104.314 91.3753 106.508 92.092 108.682C92.4179 109.67 92.7522 110.654 93.0927 111.635C93.4983 112.802 94.0303 113.049 94.9139 113.586C98.678 115.875 102.588 118.047 106.203 120.695C105.598 121.584 104.123 120.125 103.526 119.756C102.42 119.072 101.313 118.39 100.208 117.704C98.1497 116.426 96.1015 115.123 94.0312 113.876C95.358 117.719 96.9239 121.421 98.6601 124.989C98.2217 125.178 98.3286 125.188 98.0534 124.852C97.8217 124.569 97.6661 124.015 97.5092 123.66C97.1846 122.927 96.8644 122.191 96.5375 121.459C95.8592 119.941 95.1562 118.446 94.5369 116.886C94.071 115.713 93.7102 113.663 92.7527 113.072C91.5597 112.335 90.3509 111.617 89.158 110.87C89.158 116.712 89.4877 122.425 89.9716 128.232C89.9961 128.525 90.2166 129.389 89.7721 129.304C89.5717 129.266 89.504 127.664 89.4689 127.329C89.3073 125.796 89.1701 124.258 89.058 122.717C88.8346 119.643 88.7131 116.556 88.6975 113.469C88.4112 116.471 88.1249 119.472 87.8386 122.474L87.4317 126.741C87.3604 127.488 87.2891 128.235 87.2179 128.982C87.1852 129.326 87.2059 129.774 87.1111 130.102C86.9622 130.617 87.0122 130.578 86.5451 130.812C86.9917 126.904 87.4042 122.988 87.7691 119.065C87.9472 117.151 88.1141 115.236 88.268 113.318C88.3093 112.803 88.3498 112.287 88.3895 111.771C88.4094 111.508 88.5876 110.663 88.4887 110.444C88.3908 110.228 87.742 110.002 87.5551 109.891C87.1461 109.65 86.737 109.408 86.3284 109.165C85.0017 108.376 83.6761 107.58 82.3641 106.751C81.7901 106.389 81.1881 105.829 80.5639 105.636C79.9425 105.444 79.4905 105.994 78.9591 106.345C78.5456 106.617 77.5713 106.98 77.2951 107.443C77.038 107.873 77.8363 109.597 78.0462 110.233C78.6377 112.026 79.2294 113.819 79.8211 115.612C81.0207 119.248 82.2205 122.883 83.4202 126.519C83.7135 127.407 84.0067 128.296 84.3 129.185C84.4879 129.754 84.8016 131.377 85.2576 131.441C85.4594 131.469 85.7907 131.189 85.9858 131.109C86.2768 130.989 86.5455 130.991 86.8375 130.928C87.3726 130.812 87.9281 130.461 88.4536 130.214C89.8041 129.58 91.2041 129.171 92.5655 128.579C93.9332 127.984 95.2786 127.316 96.6409 126.721C97.8782 126.181 99.1266 125.565 100.315 124.862C101.57 124.119 102.858 123.463 104.081 122.64C106.309 121.139 108.512 119.738 110.481 117.897C110.943 117.465 111.436 117.03 111.894 116.567C112.296 116.16 113.062 115.658 113.335 115.124C113.439 114.92 113.528 114.52 113.407 114.278C113.276 114.018 112.698 114.042 112.428 113.995C111.576 113.85 110.724 113.704 109.873 113.558C109.938 114.272 110.004 114.984 110.051 115.701C110.085 116.206 110.319 117.542 110.003 117.938C109.568 117.411 109.708 115.837 109.669 115.136C109.648 114.761 109.723 114.028 109.591 113.695C109.447 113.331 109.048 113.336 108.686 113.236C107.152 112.813 105.632 112.459 104.148 111.789C101.64 110.658 98.6429 108.749 98.0828 105.065C97.4989 101.226 100.065 97.8986 102.225 95.757C103.518 94.4749 104.894 93.3648 106.317 92.3342C106.983 91.8528 107.647 91.3711 108.317 90.8998C108.56 90.7285 109.36 90.3754 109.488 90.0757C109.62 89.7691 109.552 88.9493 109.58 88.6ZM55.9335 147.57C55.8118 147.646 55.6899 147.721 55.5684 147.797C56.9217 142.886 58.2624 137.998 59.3939 132.995C59.94 130.58 60.4933 128.167 61.0581 125.76C61.302 124.721 61.9008 123.291 61.7345 122.215C61.5544 121.05 61.1226 119.811 60.7885 118.704C58.6499 120.416 56.4664 122.04 54.2922 123.674C52.3431 125.14 50.3609 126.443 48.398 127.893C47.3923 128.636 46.3547 129.138 45.3049 129.745C44.452 130.238 44.7831 131.746 44.7954 132.754C44.8386 136.31 44.8365 139.88 45.006 143.431C45.0677 144.725 44.988 146.211 45.6349 147.288C46.4621 148.664 47.2294 150.068 47.9838 151.517C48.2664 152.06 49.4539 155 49.8966 154.936C50.1857 154.894 50.4518 153.704 50.5964 153.421C50.9081 152.813 51.3637 152.289 51.7785 151.799C53.5696 149.683 55.5571 148.193 57.6227 146.646C59.7214 145.075 61.869 143.612 64.0073 142.123C64.4903 141.786 65.0106 141.543 65.4906 141.199C65.6802 141.063 66.0562 140.847 66.1756 140.604C66.3541 140.241 66.2936 139.234 66.3308 138.8C66.407 137.912 66.5438 136.99 66.5512 136.095C66.5582 135.212 66.1412 134.453 65.8389 133.683C64.5119 130.301 63.2226 126.911 62.0681 123.427C61.1577 127.473 60.202 131.5 59.3091 135.552C58.8428 137.667 58.2809 139.748 57.7336 141.832C57.4543 142.896 57.1732 143.959 56.8942 145.023C56.6769 145.852 56.5641 147.065 55.9335 147.57ZM74.9922 71.3206C74.2887 71.3306 73.6511 71.1989 72.9631 71.0118C72.7107 70.9434 72.4889 70.9144 72.233 70.8856C71.9429 70.8531 71.6794 70.653 71.425 70.6138C71.2328 70.5844 70.8971 70.6871 70.7136 70.7654C70.288 70.947 70.3016 70.8553 70.2839 71.4844C70.2561 72.4564 70.2352 73.4286 70.1933 74.3996C70.0283 78.2222 69.7095 82.0076 69.2727 85.7932C69.1842 86.5584 68.9367 87.562 69.0728 88.3219C69.1955 89.007 69.6603 89.7388 69.9673 90.3135C70.5988 91.4953 72.0861 92.0792 73.1324 92.4143C74.2357 92.7678 75.3812 92.898 76.4294 93.2132C76.7199 93.3006 77.0533 93.1466 77.3628 93.2342C77.6491 93.3152 77.8715 93.5153 78.136 93.6601C78.7842 94.0145 79.5084 94.0798 80.1778 94.3534C81.5052 94.8959 82.9264 94.8634 84.255 95.3845C84.5946 95.5175 84.888 95.8531 85.2148 95.9679C85.5136 96.0729 85.8213 95.9494 86.134 96.008C86.7967 96.1322 87.4145 96.4206 87.5673 97.3264C87.9724 96.918 88.0288 97.0254 87.9587 96.3936C87.9139 95.9885 87.7367 95.4954 87.6397 95.1049C87.3926 94.1092 87.144 93.1143 86.897 92.1186C86.4083 90.1483 85.9227 88.1765 85.4723 86.1916C85.0692 84.4161 84.7027 82.6272 84.3825 80.8244C84.2197 79.9078 84.0836 78.9872 83.944 78.0657C83.9033 77.7983 83.9436 77.3733 83.7326 77.1954C83.5412 77.034 83.0945 77.613 82.8923 77.7996C81.4803 79.1021 78.2417 82.9543 76.4763 80.6819C75.5257 79.4583 75.5813 77.3069 75.6845 75.726C75.7478 74.7543 75.8818 73.7951 76.0317 72.8398C76.069 72.6014 76.298 71.8355 76.2142 71.6657C76.1236 71.4831 75.1811 71.3742 74.9922 71.3206ZM124.606 92.5828C124.982 92.6363 125.358 92.6901 125.733 92.7439C125.699 92.3572 125.73 91.7757 125.615 91.4156C125.456 90.9178 125.067 90.8622 124.639 90.6559C123.961 90.3298 123.271 90.0463 122.601 89.6952C121.148 88.9335 119.701 88.161 118.246 87.3993C117.609 87.0653 116.86 86.5188 116.168 86.7915C115.421 87.0859 114.685 87.6853 113.987 88.1243C113.197 88.6214 112.407 89.1197 111.618 89.618C111.247 89.8517 110.877 90.0852 110.507 90.319C109.925 90.686 109.847 90.7232 109.802 91.5615C109.568 95.8495 109.585 100.304 109.687 104.598C109.739 106.789 109.681 108.992 109.804 111.18C109.814 111.348 109.804 112.297 109.887 112.427C110.003 112.609 110.823 112.671 111.019 112.716C111.783 112.894 112.552 112.953 113.324 113.041C113.142 108.054 112.474 102.157 114.485 97.5954C116.506 93.012 120.824 92.0192 124.606 92.5828ZM89.483 43.5152C89.7095 42.8582 90.0996 42.3035 90.433 41.7271C90.6132 41.4154 90.9251 41.0429 91.0405 40.6783C91.2048 40.1595 91.2039 40.2706 90.9585 39.8161C90.7264 39.3867 90.7311 39.3544 90.3723 39.2776C90.0702 39.213 89.7485 39.3228 89.4399 39.2524C89.1279 39.1811 88.2704 38.8464 88.467 38.2142C88.4585 38.2419 88.9546 37.9304 88.9932 37.8764C89.1178 37.7035 89.1573 37.335 89.2188 37.126C89.417 36.4562 89.4865 36.0226 89.2657 35.3094C88.9358 34.2444 87.6317 33.9292 86.82 34.2876C86.4141 34.4665 86.1827 34.8459 86.0004 35.3227C85.8844 35.6255 85.8575 36.0631 85.7076 36.3267C85.4817 36.7236 85.4678 36.6796 84.9993 36.6094C84.4029 36.5202 83.9137 36.2284 83.3486 36.025C82.7331 35.8032 82.3328 36.2543 81.7949 36.618C80.8239 37.275 79.8861 37.503 78.7985 37.6073C77.5873 37.7235 76.4647 37.3516 75.2654 37.2557C75.5766 39.0808 76.3812 40.5626 77.0244 42.2152C77.1374 42.5058 77.3201 42.8029 77.3244 43.1391C77.3289 43.4559 76.9688 43.8869 77.0093 44.1489C77.096 44.7081 78.0623 45.1557 78.4284 45.313C79.4639 45.7577 80.643 46.6283 81.7826 46.2786C82.4075 46.0869 82.7437 44.8305 83.3318 44.7382C84.1206 44.6138 83.5304 45.9074 83.3839 46.3523C84.5035 46.569 85.9227 46.3853 86.9943 45.9018C87.5314 45.6597 87.9865 45.2982 88.4767 44.9398C89.0872 44.4936 89.2141 44.371 89.483 43.5152ZM69.89 70.6776C67.8939 70.7198 65.8686 70.354 63.868 70.6902C63.4046 70.7679 62.9473 70.8932 62.4918 71.0264C62.1645 71.1223 61.1249 71.2033 60.9065 71.5132C60.7077 71.7959 60.7063 73.0972 60.6653 73.464C60.574 74.2808 60.5983 74.5628 61.0074 75.1943C62.3531 77.2724 63.7547 79.2885 65.0808 81.3896C66.3547 83.4079 67.4002 85.663 68.6878 87.6528C69.3754 85.1039 69.4166 82.045 69.6054 79.3724C69.7061 77.9473 69.7977 76.5211 69.8837 75.0947C69.9656 73.736 70.2441 71.9729 69.89 70.6776ZM44.0541 97.5405C44.2849 97.5405 44.6531 97.6325 44.8775 97.5405C45.186 97.6655 45.2891 97.5181 45.1871 97.0984C45.192 96.9517 45.1968 96.8047 45.2019 96.6577C45.234 95.711 45.2695 94.7645 45.3039 93.8177C45.3355 92.9522 45.3663 92.0865 45.3931 91.2208C45.4115 90.6298 45.646 89.1646 45.4584 88.6309C45.3324 88.2721 45.0339 88.3536 44.6708 88.3011C44.3254 88.2513 43.979 88.2053 43.6355 88.1371C43.1995 88.0506 42.7163 87.8518 42.2727 87.9762C41.827 88.1012 41.503 88.6252 41.1532 88.9585C40.5998 89.4856 40.0343 89.9932 39.4761 90.512C38.4617 91.4554 37.4575 92.4161 36.4515 93.3739C36.0361 93.7692 35.9563 93.632 36.1588 94.2004C36.2841 94.5515 36.569 94.9488 36.7425 95.266C37.0879 95.8978 37.4319 96.8554 37.875 97.368C38.5197 98.114 40.3086 97.6403 41.165 97.635C42.1416 97.6288 43.0831 97.648 44.0541 97.5405ZM46.5819 97.4787C47.4288 97.3731 48.2843 97.4187 49.126 97.2737C50.0411 97.1159 50.9495 96.8824 51.8628 96.7073C52.7733 96.5331 55.5432 95.8281 55.2698 94.0975C54.9809 92.2682 52.8604 91.1725 51.687 90.5576C49.8545 89.5972 47.9414 89.083 46.0138 88.54C45.772 90.1798 45.8068 91.9402 45.7626 93.6019C45.7386 94.5044 45.7176 95.4079 45.718 96.3113C45.718 96.5286 45.6594 96.9798 45.7291 97.1819C45.8928 97.6575 46.0833 97.4787 46.5819 97.4787ZM43.7968 98.2645H38.3914C39.1914 100.373 39.9476 102.521 40.8099 104.59C41.6688 106.651 42.7747 108.592 43.7492 110.57C43.996 110.228 44.3897 109.857 44.5575 109.45C44.7433 109 44.7381 108.338 44.7685 107.816C44.8474 106.463 44.8834 105.099 44.9102 103.743C44.9336 102.555 44.9747 101.375 45.0463 100.191C45.0619 99.9309 45.287 98.5813 45.1582 98.3595C45.0433 98.162 44.0332 98.2665 43.7968 98.2645ZM66.0581 56.8629C66.97 56.8626 67.883 56.848 68.7947 56.8675C69.6221 56.8854 70.7002 56.7019 71.4581 57.2445C73.0022 58.3495 69.9155 61.1875 69.2896 61.9018C70.3016 62.3688 71.8812 61.4418 72.872 61.017C74.0971 60.492 75.3464 60.1393 76.5961 59.7281C76.9083 59.6254 78.2485 59.4241 78.4178 59.1196C78.5857 58.8174 78.2096 56.9946 78.1718 56.6101C78.1366 56.2486 78.1663 55.685 78.0481 55.345C78.1206 54.9366 78.0079 54.7934 77.7102 54.916C77.6072 54.9156 77.5047 54.9149 77.4018 54.9145C76.6415 54.9222 75.8804 54.9672 75.1206 54.9993C72.509 55.11 69.9609 55.2576 67.3716 55.7767C66.1678 56.0179 64.9534 56.3148 63.7559 56.611C62.7479 56.8602 62.9176 57.0694 63.859 57.0725C64.5953 57.0749 65.3254 56.9357 66.0581 56.8629ZM140.974 32.4076C141.129 32.1808 141.285 31.9537 141.44 31.7265C141.062 31.5891 140.684 31.4514 140.306 31.3139C139.904 31.1678 139.687 31.2013 139.866 30.6293C140.09 29.9128 141.113 29.8306 141.604 29.8036C143.297 29.7104 145.075 30.3962 146.683 31.0003C147.467 31.2951 148.082 31.7513 148.746 32.3581C149.036 32.623 149.37 32.8718 149.624 33.1901C149.888 33.5208 149.997 33.9445 150.255 34.2761C150.677 34.8197 151.218 35.0905 151.425 35.8752C151.663 36.7758 151.379 37.8069 151.027 38.5923C150.67 39.3894 150.14 39.9921 149.709 40.7164C149.367 41.291 148.653 42.8611 149.769 42.6791C150.359 42.5829 151.124 41.3017 151.549 40.7912C152.157 40.0592 152.756 39.3104 153.401 38.6286C153.972 38.0241 154.631 37.4043 155.395 37.298C156.201 37.186 156.603 37.8426 156.996 38.641C157.366 39.394 157.425 40.1291 157.686 40.8999C157.811 41.2716 157.971 41.4787 158.045 41.8838C158.159 42.5069 158.171 43.1867 158.228 43.822C158.319 44.8196 158.405 45.6041 158.253 46.5816C158.111 47.4965 158.072 48.4682 157.953 49.399C157.817 50.4531 157.704 51.5121 157.571 52.5666C157.457 53.46 157.027 54.7323 157.449 55.5631C158.464 57.5595 159.682 54.6205 160.002 53.5226C160.566 51.5933 160.852 49.4842 161.35 47.5153C161.616 46.4623 161.849 45.3994 162.001 44.3092C162.128 43.4076 162.065 42.3093 162.453 41.5062C162.755 40.8824 163.291 40.4087 163.88 40.5991C164.617 40.8375 164.9 42.1935 165.117 43.0178C165.689 45.192 165.478 47.1501 165.245 49.3674C165.137 50.394 165.034 51.4222 164.849 52.4318C164.724 53.1129 164.207 54.4915 164.976 54.8618C166.067 55.3873 167.223 51.4025 167.534 50.5027C168.348 48.1459 168.659 45.8086 168.995 43.2834C169.072 42.7028 169.131 42.1098 169.246 41.5392C169.346 41.0425 169.646 40.5404 169.673 40.0437C169.7 39.5465 169.442 39.1997 169.706 38.7116C169.927 38.3054 170.325 38.2808 170.685 38.2773C171.53 38.2689 172.339 38.7415 173.125 39.0844C173.857 39.4033 174.939 40.1032 175.728 39.8779C173.253 36.6778 170.784 33.514 167.832 31.0217C166.461 29.8643 165.089 28.752 163.607 27.8081C162.106 26.8521 160.386 26.2064 158.779 25.628C157.905 25.3132 157.036 24.9566 156.172 24.5956C155.404 24.2742 154.63 24.2133 153.878 23.8488C152.243 23.057 150.416 22.7502 148.723 22.1888C147.976 21.9411 147.22 21.7286 146.471 21.4991C145.684 21.2578 144.577 20.8388 143.775 20.8795C143.09 20.9143 142.859 21.9141 142.529 22.6096C142.051 23.6192 141.643 24.6682 141.266 25.7451C140.496 27.9516 139.682 30.2311 139.131 32.5363C138.828 33.802 138.529 35.069 138.232 36.3367C137.974 37.4342 137.331 39.0173 137.502 40.1435C138.769 37.6557 139.95 35.0721 140.974 32.4076ZM81.954 54.8716C81.2815 54.9105 80.6087 54.9492 79.9362 54.9882C80.6068 57.795 80.5133 60.7837 80.5133 63.693C83.6472 63.2226 86.8064 63.1425 89.9589 63.175C89.3798 61.7521 89.6043 59.9063 89.7693 58.3827C89.866 57.4908 89.9198 56.6318 89.9058 55.732C89.8925 54.8879 90.0836 54.1783 89.3813 53.9173C88.8242 53.7103 88.472 54.0552 87.9413 54.2126C87.3056 54.401 86.6133 54.4238 85.9661 54.5262C84.6191 54.7394 83.3203 54.8645 81.954 54.8716ZM63.8952 60.3377C65.9149 59.6242 68.0611 59.8872 70.0909 59.3449C69.6292 58.8083 68.7594 59.1262 68.1463 59.1709C67.4492 59.2214 66.7527 59.2584 66.0557 59.3015C65.3758 59.3438 63.4901 59.2783 63.2449 60.3797C63.4615 60.3658 63.6784 60.3516 63.8952 60.3377ZM137.796 20.5648C135.154 20.86 132.386 20.8142 129.762 21.4015C126.757 22.0739 123.625 22.4959 120.711 23.681C117.853 24.8438 114.938 25.6577 112.121 27.023C109.382 28.3502 106.744 29.7622 104.165 31.5375C102.903 32.4063 101.674 33.3274 100.471 34.3252C99.2958 35.2994 98.0084 36.0981 96.87 37.1307C95.8566 38.05 94.9824 38.8931 94.0987 40.0194C93.1541 41.2235 92.2351 42.4602 91.2896 43.6624C90.5004 44.6654 91 47.1175 91.0501 48.4523C91.1194 50.3028 91.2392 52.1272 91.4174 53.9656C91.5869 55.7174 91.7614 57.6002 91.5373 59.3482C91.4433 60.0831 91.1186 61.3526 91.2736 62.0862C91.3976 62.6736 92.2205 63.1044 92.6403 63.2959C93.1537 63.53 93.6782 63.4313 94.205 63.7293C94.7935 64.0624 95.2896 64.4777 95.9145 64.6528C96.6847 64.8686 97.5507 65.0501 98.3423 65.0567C99.0743 65.0627 99.8088 65.3646 100.539 65.5506C101.726 65.8534 102.885 65.9477 102.811 67.771C102.726 69.8747 102.07 71.6799 101.68 73.6769C102.208 73.6769 102.576 73.7199 103.059 73.4815C103.623 73.2034 104.225 73.1295 104.818 73.0095C106.128 72.7441 107.405 72.6591 108.724 72.4898C111.139 72.1795 113.597 72.2167 116.014 72.2494C117.238 72.2658 118.566 72.3862 119.773 72.6288C121.011 72.8778 122.294 73.0334 123.494 73.5109C124.506 73.9138 125.551 74.1882 126.584 74.5442C127.05 74.7044 127.607 74.8346 128.047 75.0139C128.684 75.274 129.025 75.8285 129.761 75.8161C129.554 74.0805 129.067 72.4705 128.774 70.7495C128.467 68.9521 127.856 67.3619 127.182 65.6663C126.881 64.91 126.658 64.1073 126.368 63.3446C126.046 62.4961 125.592 61.7933 125.202 61C124.405 59.3772 123.555 57.8162 122.772 56.182C122.088 54.7551 121.307 53.3874 120.559 52.0101C119.737 50.4958 118.593 49.353 117.66 47.9638C117.266 47.3769 116.891 46.8317 116.449 46.2932C116.043 45.7974 115.466 44.6999 114.843 44.6485C114.486 44.6189 113.866 44.8752 113.524 45.0127C112.893 45.2674 112.223 45.4335 111.57 45.6577C110.856 45.9032 110.155 46.2226 109.44 46.4559C109.153 46.5491 108.814 46.5048 108.542 46.6104C108.259 46.7211 108.032 46.9648 107.722 47.0766C106.191 47.6295 104.67 48.2573 103.127 48.7606C101.54 49.279 99.928 49.7204 98.3894 50.4547C98.096 50.5948 97.7696 50.9259 97.5441 50.7083C97.376 50.5458 97.2676 50.087 97.3119 49.8191C97.4595 48.9275 98.5794 48.6055 99.1187 48.2475C100.564 47.2882 101.999 46.6117 103.552 45.9603C104.317 45.6398 105.08 45.2975 105.855 45.0206C106.504 44.7893 107.178 44.398 107.841 44.2795C108.431 44.1742 108.85 43.8784 109.435 43.6166C110.297 43.2308 111.184 42.914 112.06 42.5844C113.558 42.0208 115.145 41.784 116.677 41.4061C120.227 40.5307 123.913 40.0924 127.535 40.1466C129.362 40.1741 131.272 40.1061 133.077 40.4886C133.512 40.5807 134.427 40.563 134.727 41.0604C134.888 41.3273 134.801 41.7247 134.842 42.014C134.912 42.5023 135.121 42.7298 135.303 43.1748C135.688 40.7673 136.131 38.411 136.628 36.0387C137.078 33.8918 137.494 31.706 138.095 29.5891C138.731 27.3495 139.503 24.9748 140.453 22.9251C140.649 22.5032 141.137 21.8329 141.179 21.361C141.222 20.874 140.686 20.4968 140.318 20.4426C139.492 20.321 138.608 20.5291 137.796 20.5648ZM155.551 54.9643C155.82 51.6247 156.606 48.1315 156.167 44.7787C155.981 43.3594 155.836 42.0045 155.278 40.7233C154.996 40.0754 154.883 39.5994 154.345 39.9815C153.8 40.3682 153.299 41.3234 152.847 41.877C152.017 42.8945 151.148 43.9424 150.154 44.6981C149.371 45.2931 147.816 45.8571 147.227 44.57C146.667 43.3432 147.415 41.6313 147.951 40.6192C148.566 39.4613 149.73 38.3889 149.077 36.9602C148.796 36.3453 148.391 36.1842 147.966 35.7806C147.598 35.4313 147.29 34.9789 146.921 34.6234C145.855 33.593 144.685 33.1516 143.453 32.5628C142.885 32.2908 142.81 32.0349 142.481 32.6567C142.125 33.332 141.929 34.2785 141.671 35.0254C141.155 36.5215 140.604 37.9391 139.938 39.334C139.265 40.7419 138.67 42.2125 138.034 43.6482C137.795 44.1899 137.569 44.7404 137.286 45.2488C137.132 45.5255 136.941 45.7721 136.815 46.0749C136.63 46.5227 136.712 46.9309 136.597 47.3767C136.099 49.3003 135.372 46.615 135.233 45.9873C135.075 45.2732 134.694 44.7165 134.448 44.0504C134.244 43.5004 134.105 42.6829 133.612 42.4239C133.209 42.2119 132.689 42.5029 132.278 42.5313C131.522 42.5835 130.76 42.5056 130.001 42.5658C129.291 42.622 128.582 42.7088 127.872 42.7641C127.161 42.8197 126.452 42.6668 125.751 42.7619C124.492 42.9328 123.206 42.9054 121.95 43.1422C120.477 43.4198 119.018 43.716 117.541 43.9471C117.884 44.7738 118.596 45.1324 119.159 45.7223C119.661 46.2496 120.06 46.8581 120.566 47.3597C121.08 47.8688 121.386 48.6218 121.811 49.2337C122.228 49.8329 122.614 50.3353 122.979 51.0058C124.741 54.2434 126.559 57.3613 128.013 60.8605C128.749 62.6316 129.451 64.5264 129.954 66.4265C130.493 68.4645 130.758 70.6501 131.078 72.7574C131.238 73.8077 131.322 74.6943 131.147 75.7506C131.101 76.002 131.053 76.253 131.003 76.5034C130.85 76.8031 130.907 76.9975 131.174 77.0867C131.33 77.3764 131.543 77.4851 131.557 77.8813C131.567 78.1824 131.435 78.5312 131.232 78.701C130.839 79.0286 130.839 78.5861 130.434 78.6842C130.282 78.7889 130.13 78.8934 129.978 78.9978C129.898 78.8424 129.815 78.6888 129.731 78.5374C129.472 78.2246 129.267 78.2532 128.929 78.1771C129.101 80.6932 128.827 82.9397 128.392 85.3941C128.183 86.5743 127.824 87.7296 127.644 88.9118C127.442 90.2327 127.883 90.8343 128.565 91.7153C128.392 91.8304 128.089 91.9555 127.946 92.1275C127.719 92.4017 127.777 92.4354 127.777 92.8646C127.777 93.6504 127.659 94.4249 127.562 95.1976C127.382 96.6287 127.218 98.1096 126.832 99.4797C126.129 101.968 124.993 104.553 123.835 106.745C123.188 107.972 122.539 109.365 121.727 110.424C120.912 111.486 120.104 112.558 119.292 113.623C117.692 115.72 115.944 117.169 114.027 118.739C113.268 119.361 112.469 120.042 111.816 120.817C111.153 121.603 110.271 122.154 109.478 122.726C109.124 122.981 108.872 123.347 108.49 123.556C108.132 123.753 107.881 123.817 107.58 124.074C106.833 124.714 106.027 125.26 105.205 125.742C104.202 126.33 103.216 127.014 102.186 127.516C101.717 127.745 101.276 127.994 100.821 128.261C100.329 128.551 99.7988 128.741 99.2944 129.049C98.8682 129.309 98.4366 129.461 98.0027 129.674C97.6484 129.848 97.3703 130.129 97.0089 130.311C96.2585 130.689 95.5755 130.892 94.8465 131.337C93.8777 131.928 92.7298 132.204 91.7094 132.629C90.5701 133.105 89.3883 133.577 88.2191 133.914C87.7216 134.058 87.2978 134.245 86.8174 134.462C86.5043 134.604 86.1453 134.681 85.7985 134.816C84.8402 135.188 83.8824 135.546 82.9191 135.863C81.0369 136.481 79.114 137.223 77.2886 138.062C76.3315 138.502 75.3607 139.032 74.4425 139.592C73.4046 140.225 72.2862 140.591 71.2444 141.217C69.232 142.428 67.2264 143.674 65.2373 144.945C64.1928 145.613 63.1628 146.301 62.143 147.027C61.7729 147.29 61.3682 147.399 61.0006 147.657C60.5198 147.995 60.1252 148.491 59.6327 148.826C57.7345 150.117 55.7972 151.333 54.0537 152.966C53.1413 153.821 52.1609 154.697 51.3724 155.738C51.1122 156.081 50.6613 156.613 50.6142 157.111C50.5448 157.848 50.6098 157.17 50.8102 157.624C51.0879 157.667 51.1506 157.803 50.9992 158.032C50.9293 158.139 50.8398 158.193 50.7308 158.196C50.3802 158.286 49.7243 157.813 49.4426 157.615C48.9543 157.272 48.6951 156.839 48.3815 156.264C47.7005 155.016 47.0359 153.757 46.3345 152.526C45.7037 151.42 45.0863 150.201 44.3685 149.185C43.8818 148.496 43.8453 148.797 43.304 149.185C42.9012 149.474 42.4335 149.598 42.0161 149.87C40.4258 150.907 38.6776 151.673 37.0464 152.396C36.6749 152.561 36.4769 152.822 36.1505 153.049C35.7347 153.339 35.208 153.481 34.7633 153.687C33.5383 154.254 32.3195 154.843 31.1032 155.439C30.1642 155.9 29.2618 156.264 28.5267 157.114C28.2341 157.453 27.8801 157.696 27.5779 158.038C27.2261 158.436 26.7504 159.084 26.3074 159.31L26.0377 159.578C25.8551 159.416 25.6724 159.255 25.4894 159.094C25.3079 158.934 25.1263 158.775 24.9451 158.614C24.4902 158.212 24.0386 157.803 23.5865 157.396C22.5611 156.47 21.5291 155.554 20.5753 154.509C18.881 152.654 17.1229 150.898 15.3512 149.16C13.4918 147.337 11.6789 145.428 9.75569 143.714C8.01254 142.16 6.11069 140.848 4.42056 139.208C3.56984 138.383 2.72122 137.552 1.8526 136.752C1.80532 136.709 1.09853 136.157 1.09144 136.095C1.07941 135.983 1.31199 135.688 1.38065 135.593C1.70571 135.143 2.06588 134.743 2.38973 134.288C3.89908 132.168 5.86976 132.242 7.95275 132.142C8.89733 132.097 9.9217 132.651 10.8188 133.029C11.9159 133.491 12.9741 134.169 14.0338 134.754C16.2176 135.96 18.4714 136.991 20.6773 138.108C21.5447 138.547 22.4088 138.761 23.2906 139.063C24.1853 139.37 25.107 139.078 26.0639 139.099C26.5605 139.111 27.03 139.148 27.5301 139.112C27.827 139.091 28.1691 139.019 28.4624 139.025C28.7 139.031 28.9467 139.155 29.1653 139.124C30.1226 138.986 31.1338 138.792 32.1211 138.634C33.1013 138.476 34.1128 138.398 35.0802 138.152C35.5673 138.028 36.0479 137.852 36.5165 137.642C36.9233 137.459 37.6628 137.252 37.9965 136.882C38.2951 136.551 38.1646 136.547 37.9981 136.007C37.9322 135.794 37.8641 135.47 37.7664 135.264C37.5023 134.709 37.2471 134.534 37.4008 133.839C37.6715 132.613 38.594 131.831 39.3837 131.227C41.1626 129.868 42.7896 128.125 44.6628 126.972C48.5225 124.596 52.0401 121.51 55.8042 118.902C59.9416 116.034 63.8555 112.669 68.0505 109.922C71.9554 107.366 75.8424 104.794 79.7796 102.318C81.7021 101.11 83.8765 100.004 85.6209 98.419C84.6544 98.2663 83.6851 98.069 82.7154 97.9597C82.2655 97.909 81.8102 97.9559 81.363 97.865C80.8627 97.7631 80.3897 97.5055 79.8905 97.3983C79.0319 97.2137 78.26 96.839 77.4007 96.7009C76.4795 96.5525 75.5771 96.2077 74.6515 96.1112C72.7152 95.9091 70.9677 94.9997 69.2703 93.8538C68.8501 93.57 68.5049 93.7323 68.1023 93.5393C67.8805 93.4332 67.645 93.0091 67.3959 92.7813C66.7098 92.154 66.1209 91.4134 65.4688 90.7281C64.098 94.6456 61.4063 97.31 58.8376 99.9379C57.5365 101.269 56.1243 102.397 54.8099 103.703C53.7909 104.715 52.8654 105.621 51.7776 106.426C50.7331 107.199 49.7518 108.242 48.7559 109.171C48.081 109.8 47.2899 110.275 46.5721 110.821C45.9856 111.267 44.8406 111.933 44.6807 112.742C44.5498 113.404 44.8052 114.191 44.0125 113.887C43.3028 113.615 42.7883 112.611 42.3749 111.904C41.3059 110.076 40.3086 108.185 39.316 106.289C38.7829 107.614 37.8634 108.568 37.0133 109.55C36.4969 110.147 35.9608 110.701 35.403 111.234C35.1325 111.492 34.8589 111.746 34.5879 112.004C34.4812 112.106 34.2392 112.262 34.17 112.405C34.0084 112.741 34.1066 112.589 34.1318 112.995C34.1711 113.63 34.3376 114.13 34.0551 114.739C33.7899 115.311 33.2115 115.555 32.8062 115.946C31.8418 116.875 30.8277 117.863 29.7578 118.589C29.5149 118.753 29.2853 118.896 29.0591 119.098C28.6816 119.434 28.7506 119.556 28.3701 119.234C27.7751 118.729 27.2611 117.892 26.7241 117.284C25.5991 116.009 24.4616 114.751 23.3094 113.516C21.1138 111.163 18.8533 108.927 16.685 106.532C14.6244 104.256 12.4154 102.297 10.2881 100.133C9.70459 99.5399 9.12817 98.9343 8.55228 98.3287C8.03949 97.7897 7.20737 97.1956 6.82808 96.5058C6.27722 95.504 8.43199 94.1349 9.08211 93.931C10.2031 93.5798 11.6527 93.7808 12.7754 94.0687C13.954 94.3709 15.1541 95.3816 16.2546 96.0111C17.495 96.7206 18.7584 97.3339 20.0081 98.0037C20.5654 98.3024 21.1562 98.5407 21.6735 98.9432C22.2225 99.3702 22.7125 99.8569 23.2962 100.215C23.9689 100.627 24.6679 101.012 25.3754 101.317C25.6959 101.455 26.041 101.594 26.3778 101.65C26.8548 101.729 26.7902 101.449 27.1863 101.293C27.523 101.16 27.603 101.511 27.9058 101.608C28.1909 101.7 28.404 101.607 28.6508 101.412C29.2012 100.977 29.691 100.377 30.2415 99.9242C30.7522 99.5039 31.3153 99.1112 31.794 98.6353C32.0074 98.4232 32.1653 98.1326 32.3756 97.9172C32.7127 97.5719 32.8463 97.7089 33.2399 97.4712C33.5616 97.2766 33.8535 96.9145 34.1596 96.6745C34.3496 96.5255 34.8104 96.3374 34.933 96.0963C35.2549 95.4635 34.7054 95.0239 34.2133 95.2105C34.1396 94.664 33.7612 93.3664 33.9246 92.8539C34.0692 92.4006 34.4488 92.4854 34.7682 92.2454C35.9683 91.3432 36.8539 89.7038 37.9767 88.6438C39.0351 87.6444 39.9689 86.4513 41.0175 85.4335C41.9156 84.5616 42.8972 83.7102 43.7151 82.7699C44.6821 81.6583 45.9201 80.7935 46.9714 79.8011C48.0575 78.7763 49.0668 77.6358 50.1412 76.5992C51.1749 75.602 52.1903 74.5603 53.2525 73.611C54.2072 72.7576 55.2079 71.9785 56.1428 71.1134C56.6549 70.6397 57.2148 70.2236 57.7994 69.9126C58.3806 69.6031 58.8891 69.2403 59.4566 68.9072C60.5846 68.2451 62.0535 67.7876 63.28 67.5979C64.6285 67.3894 65.9827 67.2023 67.3441 67.2008C68.0693 67.2001 68.7737 67.3759 69.4945 67.4316C70.1568 67.4825 70.873 67.6959 71.5306 67.6678C71.8283 67.6552 72.0872 67.4947 72.3755 67.5465C72.6163 67.5897 72.8258 67.7747 73.0841 67.8071C73.6593 67.8792 74.2376 67.8073 74.8192 67.902C76.1554 68.1194 77.4934 68.4293 78.8324 68.6019C80.259 68.7859 81.6733 68.8206 83.0924 69.1305C84.4792 69.4331 85.8747 69.7468 87.2535 70.0967C90.1837 70.8405 93.1445 71.5668 96.0283 72.6711C96.7024 72.9292 97.3805 73.1747 98.0286 73.5286C98.343 73.7002 98.6451 73.9082 98.9732 74.0366C99.4428 74.2203 99.5353 74.2901 99.7773 73.7883C100.194 72.9245 100.423 71.7821 100.726 70.8425C101.024 69.9126 101.387 68.9754 101.561 68.0043C101.057 67.9027 100.421 68.1001 99.901 68.1227C99.2654 68.1506 98.6366 68.1331 98.0016 68.1282C96.7217 68.1185 95.721 67.6371 94.5099 67.1317C93.4892 66.7056 92.1302 66.4612 91.3517 65.4855C90.9341 64.9624 90.7952 64.8703 90.1677 64.9642C89.5346 65.0587 88.9094 65.2216 88.2702 65.2486C85.8613 65.3505 83.4633 65.8857 81.0435 65.9915C80.3888 66.0201 78.7516 66.4152 78.8588 65.0014C78.8811 64.7079 79.0577 64.4533 79.0921 64.1512C79.1289 63.8273 79.0653 63.4986 79.0255 63.1821C78.9308 62.4332 78.8319 61.6848 78.7375 60.9358C76.5309 61.8376 74.2965 62.5683 72.0479 63.2826C71.1155 63.5787 69.6174 64.2599 68.6539 63.8864C67.7223 63.5254 68.2619 61.8542 68.552 61.0542C66.7013 61.5921 64.7273 62.4717 62.84 62.6736C62.2659 62.7352 61.707 62.897 61.5733 62.0131C61.467 61.3088 61.8664 60.4475 62.0701 59.8288C60.6218 59.6641 59.122 59.6798 59.3946 57.3157C59.6444 55.1467 61.0593 54.7148 62.5659 54.3186C64.4253 53.8292 66.3244 53.6661 68.196 53.2701C69.8244 52.9254 71.6011 52.5411 73.2641 52.7151C74.1446 52.807 75.0302 52.828 75.9103 52.9318C76.3256 52.9807 76.7249 53.0626 77.1268 53.207C77.4976 53.3398 78.0161 53.7517 78.3961 53.759C78.9697 53.7705 79.6612 52.7829 80.2781 52.5546C81.0423 52.2717 81.8657 52.2204 82.6552 52.1511C83.5501 52.073 84.4463 52.0294 85.3405 51.9371C85.5444 51.916 86.315 51.9802 86.476 51.8282C86.7103 51.6066 86.5544 50.4701 86.538 50.0033C86.5227 49.5714 86.5881 48.7626 86.3531 48.5933C86.1323 48.4344 85.4888 48.6524 85.2715 48.6967C84.3709 48.8804 83.5151 48.8594 82.6178 48.8126C82.2034 48.7912 81.8054 48.9317 81.395 48.8625C80.9547 48.7883 80.5114 48.5997 80.0728 48.4948C79.1228 48.2675 78.2574 47.9846 77.4388 47.3068C76.7202 46.712 75.8698 46.3094 75.4683 45.2677C75.1742 44.5049 75.0546 43.0329 75.9194 42.8159C75.3304 41.7342 74.924 40.5189 74.6118 39.269C74.5552 39.0423 74.5176 38.701 74.433 38.5033C74.134 37.8043 74.4114 38.4243 73.9848 38.1447C73.5633 37.8687 73.2595 37.6502 72.9301 37.1701C72.4049 36.4044 72.1838 35.4621 72.1174 34.4645C72.0274 33.1096 71.8591 31.5818 72.0145 30.2337C72.2834 27.8987 73.6236 26.1442 74.9854 24.732C75.7247 23.9652 76.698 23.6797 77.565 23.2144C78.402 22.765 79.337 22.294 80.2188 22.1886C81.0148 22.0934 81.7908 21.7625 82.5876 21.629C83.6827 21.4453 84.779 21.5139 85.8796 21.4581C86.3861 21.4325 86.8914 21.3415 87.3957 21.2722C87.6804 21.233 88.1619 21.2749 88.4227 21.1312C88.8494 20.8957 88.6189 21.3902 88.7714 20.6699C89.0613 19.2997 89.2981 18.0148 89.7373 16.6833C90.1465 15.4428 90.6435 14.2568 91.3004 13.1963C91.9164 12.2016 92.7153 11.474 93.4411 10.6242C93.9789 9.99465 94.5889 9.42599 95.2023 8.91688C95.5531 8.6258 95.9438 8.46842 96.2865 8.21142C96.712 7.89267 97.0875 7.65095 97.5662 7.45572C98.5935 7.03692 99.613 6.59222 100.704 6.61413C101.88 6.63759 103.06 6.28896 104.205 6.73101C106.331 7.55201 107.373 10.4867 107.338 13.1817C108.065 12.9506 108.701 12.5057 109.471 12.4676C110.181 12.4326 111.024 12.511 111.721 12.6788C113.073 13.0044 114.465 13.962 115.271 15.4132C116.041 16.7973 116.156 18.635 115.683 20.2053C115.457 20.957 115.098 21.6257 114.715 22.2608C114.435 22.7265 113.81 23.242 113.78 23.866C119.016 21.8506 124.273 20.43 129.689 19.5104C132.435 19.0445 135.185 19.2778 137.934 19.0115C139.108 18.8977 140.384 19.0569 141.597 19.0629C142.11 19.0655 142.508 18.9748 142.88 18.5524C143.256 18.1252 143.557 17.6019 143.995 18.2186C144.107 18.376 144.13 18.7567 144.281 18.8752C144.463 19.0186 144.994 18.9201 145.212 18.9371C145.976 18.9965 146.721 19.1614 147.47 19.3513C148.845 19.6999 150.211 20.0523 151.57 20.4948C154.157 21.3375 156.709 22.1525 159.259 23.1528C161.86 24.1735 164.489 25.4328 166.888 27.085C168.05 27.8852 169.21 28.8841 170.279 29.874C170.775 30.3344 171.22 30.8325 171.652 31.3876C172.114 31.9811 172.679 32.3815 173.136 32.9794C174.131 34.2799 175.122 35.6593 176.024 37.0683C176.495 37.8038 176.927 38.5797 177.347 39.3637C177.642 39.9138 178.417 40.9209 178.239 41.6315C178.144 42.0109 177.811 42.2763 177.506 42.1833C177.404 42.1523 177.32 41.9841 177.233 41.9682C176.939 41.915 177.206 41.7831 176.863 41.9604C176.18 42.313 175.963 43.0203 175.096 42.8593C173.622 42.5855 172.235 41.6992 170.895 40.9265C170.512 42.7903 170.458 44.7225 170.123 46.6086C169.796 48.4487 169.251 50.2036 168.593 51.8915C168.016 53.3723 167.275 54.9506 166.254 56.0089C165.474 56.8164 163.55 57.8195 162.978 56.1003C162.735 55.37 163.096 54.2354 163.199 53.4839C163.336 52.4754 163.488 51.464 163.57 50.4454C163.638 49.6177 163.671 48.7852 163.734 47.9567C163.788 47.2439 163.938 45.7137 163.623 45.0842C163.433 44.7048 163.417 45.0771 163.306 45.4558C163.172 45.9151 163.061 46.3707 162.963 46.8437C162.755 47.8489 162.567 48.8609 162.37 49.8696C162.019 51.6719 161.631 53.4347 160.898 55.0553C160.247 56.4943 159.33 58.073 157.938 58.3087C157.286 58.419 156.436 58.0394 155.938 57.48C155.379 56.8525 155.546 55.8174 155.551 54.9643Z" fill="#2D4710"/>
<path fill-rule="evenodd" clip-rule="evenodd" d="M123.749 128.56C124.515 128.368 125.159 127.59 125.784 127.005C126.581 126.26 127.338 125.448 128.112 124.665C129.57 123.19 130.894 121.572 132.152 119.812C134.635 116.34 136.505 111.871 137.355 107.305C137.784 104.995 138.316 102.288 138.072 99.9006C137.987 99.0712 137.858 98.9191 137.219 98.8248C136.931 98.7823 136.199 98.6768 135.939 98.8211C135.266 99.1956 134.903 100.789 134.703 101.59C134.114 103.955 133.767 106.403 133.234 108.787C132.712 111.124 131.87 113.495 131.038 115.68C129.186 120.542 126.612 124.609 123.749 128.56ZM138.932 101.718C138.474 108.338 137.031 114.646 133.794 119.978C132.256 122.512 130.447 124.717 128.486 126.72C126.461 128.788 124.393 130.735 122.096 132.278C121.484 132.688 120.872 133.098 120.253 133.489C119.91 133.706 119.044 134.506 118.648 134.379C118.331 134.278 118.248 133.965 118.199 133.559C118.088 132.647 118.553 132.192 119.024 131.606C120.914 129.252 122.81 126.891 124.578 124.387C128.068 119.443 130.691 113.522 132.148 107.134C132.597 105.167 132.998 103.178 133.483 101.225C133.778 100.035 134.196 97.9175 135.177 97.3243C135.703 97.0062 136.316 97.3157 136.87 97.1251C137.388 96.9462 137.732 96.5814 138.174 97.1933C138.95 98.2668 138.985 100.373 138.932 101.718Z" fill="#2D4710"/>
<path fill-rule="evenodd" clip-rule="evenodd" d="M0.644912 139.917C0.257449 140.092 0.241283 140.266 0.0638048 139.758C-0.0255428 139.502 -0.00138072 139.152 0.0196525 138.886C0.0700626 138.249 0.333238 137.661 0.549481 137.097C2.58466 139.235 4.69789 141.161 6.88013 143.05C9.21394 145.07 11.4422 147.316 13.6495 149.553C15.6261 151.557 17.6265 153.502 19.5824 155.531C20.5258 156.509 21.6013 157.268 22.4981 158.276C23.2227 159.091 24.4246 159.456 25.0424 160.415C24.0634 161.16 22.7564 161.76 21.6715 161.115C20.4747 160.404 19.5567 159.478 18.4917 158.514C17.9429 158.018 17.3722 157.567 16.8148 157.087C16.3247 156.664 15.9786 156.047 15.4825 155.651C14.4399 154.818 13.3703 153.9 12.3811 152.949C11.3649 151.972 10.2416 151.195 9.26122 150.157C8.25615 149.093 7.13113 148.387 6.08173 147.418C3.85778 145.365 1.89943 143.055 0.644912 139.917Z" fill="#2D4710"/>
<path fill-rule="evenodd" clip-rule="evenodd" d="M60.6473 30.8731C60.6197 31.0621 60.5921 31.2512 60.5644 31.4404C60.5813 31.4453 61.9121 28.1715 62.1325 27.7761C62.8803 26.4358 63.8534 25.3207 64.7916 24.2013C66.7788 21.8301 69.1046 19.9163 71.052 17.5029C71.6927 16.7089 72.8407 15.5058 72.5873 14.1633C72.3354 12.829 70.2091 13.1001 69.481 13.4862C68.3394 14.0916 67.4122 15.3577 66.5615 16.461C65.6336 17.6645 64.6982 18.8545 63.9118 20.2165C63.0639 21.6851 62.2589 23.2758 61.7393 24.9802C61.1572 26.8896 60.9298 28.8656 60.6473 30.8731ZM61.0844 36.731C60.1813 37.0856 61.3135 37.3251 60.9597 37.9396C60.5717 38.6134 59.9195 36.5373 59.822 36.1453C59.2472 33.8293 59.5043 31.0157 59.8182 28.6642C59.9767 27.478 60.0791 26.2723 60.2929 25.0989C60.5015 23.9547 60.9557 22.8674 61.3753 21.8266C62.2155 19.7441 63.328 17.8039 64.5905 16.1059C65.8568 14.4024 67.2683 12.6979 68.9393 11.6492C70.32 10.783 72.5085 11.384 73.1548 13.2759C73.8152 15.2092 72.9221 17.3152 71.8659 18.6745C70.4881 20.4473 68.9869 22.2082 67.4393 23.7369C66.6441 24.5227 65.9774 25.473 65.2048 26.2928C64.3824 27.1656 63.6709 28.0435 63.0629 29.1722C62.4739 30.2659 61.8678 31.3588 61.485 32.6003C61.0659 33.9599 61.0844 35.2927 61.0844 36.731Z" fill="#2D4710"/>
<path fill-rule="evenodd" clip-rule="evenodd" d="M24.9636 120.102C22.8884 118.401 20.8063 116.907 18.9992 114.737C17.215 112.595 15.6561 110.179 13.6703 108.32C12.6795 107.392 11.6568 106.522 10.6836 105.564C9.75985 104.655 8.69811 103.876 7.86322 102.839C6.75037 101.456 4.66686 98.8877 6.0886 96.8264C7.85331 99.499 10.2746 101.606 12.482 103.635C14.8096 105.774 16.9459 108.27 19.1537 110.601C21.2805 112.846 23.4001 115.112 25.4755 117.417C26.0204 118.022 26.5461 118.658 27.0975 119.254C27.1649 119.326 27.7365 119.787 27.7365 119.91C27.7365 120.205 27.2935 120.388 27.1357 120.47C26.8866 120.599 26.2129 120.921 25.9304 120.812C25.7823 120.755 25.7797 120.601 25.6729 120.51C25.6116 120.363 25.54 120.224 25.4586 120.093C25.2935 120.097 25.1285 120.1 24.9636 120.102Z" fill="#2D4710"/>
<path fill-rule="evenodd" clip-rule="evenodd" d="M147.127 90.4348C145.648 90.3863 143.396 90.3808 143.479 92.9532C143.52 94.2268 144.062 95.1623 144.508 96.2518C144.975 97.3966 145.322 98.5793 145.459 99.8627C146.015 105.057 144.525 110.132 143.177 114.934C146.072 111.959 148.162 107.82 149.259 103.283C149.791 101.083 149.998 98.2546 149.827 95.9636C149.741 94.8172 149.409 93.7894 149.009 92.7681C148.808 92.255 148.607 91.6691 148.287 91.2538C147.966 90.8377 147.522 90.6991 147.127 90.4348ZM141.967 117.909C141.011 115.908 142.516 112.961 143.007 111.01C143.596 108.677 144.138 106.248 144.39 103.814C144.653 101.265 144.313 99.2837 143.385 97.0323C142.556 95.0195 142.063 92.3389 142.986 90.2093C143.357 89.3522 143.905 89.2468 144.557 88.9048C145.358 88.4854 145.578 87.7757 146.56 87.8881C148.313 88.0885 149.123 90.2048 149.775 92.008C151.295 96.2115 150.882 101.636 149.586 105.857C148.84 108.286 147.989 110.808 146.722 112.876C146.101 113.89 145.371 114.769 144.613 115.615C143.794 116.53 143.06 117.633 141.967 117.909Z" fill="#2D4710"/>
<path fill-rule="evenodd" clip-rule="evenodd" d="M41.8978 44.9289C39.5877 45.5201 37.4795 46.846 37.1094 50.1522C36.773 53.1569 38.3803 55.9366 40.3539 57.3431C42.4885 58.8647 45.1632 59.1175 47.2902 57.4312C49.5292 55.6559 50.0372 52.0983 48.6744 49.3073C47.1537 46.1926 44.6063 45.2733 41.8978 44.9289ZM43.3825 43.4874C46.1335 44.0008 48.6872 46.4939 49.6139 49.8516C50.5693 53.3129 49.6914 57.1184 47.1622 59.015C42.0508 62.8482 35.2192 56.4601 36.4528 49.1178C36.7661 47.2536 37.6556 45.8099 38.864 44.7184C40.1981 43.5131 41.8114 43.4804 43.3825 43.4874Z" fill="#2D4710"/>
<path fill-rule="evenodd" clip-rule="evenodd" d="M141.192 8.33731C137.878 6.42879 134.563 4.52027 131.248 2.61176C131.112 4.52514 130.976 6.43831 130.84 8.35169C130.803 8.86944 130.653 9.57379 130.717 10.0847C130.786 10.6299 130.639 10.5717 131.197 10.4942C131.911 10.3948 132.627 10.1703 133.333 10.0099C134.603 9.72121 135.954 9.63887 137.197 9.21431C137.831 8.9976 138.439 8.97038 139.083 8.83934C139.79 8.69546 140.478 8.42895 141.192 8.33731ZM129.979 12.0361C129.979 9.88081 130.168 7.75448 130.322 5.60912C130.462 3.67891 130.516 1.83901 131.01 0C131.472 1.06892 132.752 1.49613 133.544 2.0462C134.636 2.80411 135.798 3.36215 136.915 4.05255C138.012 4.73056 139.069 5.50906 140.167 6.18552C140.724 6.52862 141.29 6.8487 141.846 7.19445C142.194 7.41094 143.019 7.75935 143.235 8.16133C143.893 9.38143 141.643 9.49942 141.209 9.60699C139.907 9.93039 138.59 10.1126 137.29 10.445C136.078 10.7554 134.864 11.0434 133.648 11.3247C132.444 11.6032 131.204 12.0361 129.979 12.0361Z" fill="#2D4710"/>
<path fill-rule="evenodd" clip-rule="evenodd" d="M27.7718 65.3934C29.0769 65.2205 30.3766 64.9717 31.6803 64.8075C32.9148 64.6518 34.0068 64.4863 35.1346 63.766C33.5943 63.1745 32.0506 62.6145 30.4972 62.0802C29.7268 61.8152 28.958 61.5347 28.1841 61.2873C27.5854 61.0956 27.0636 60.9853 26.8334 60.1533C26.5656 59.1846 27.3104 59.3314 27.7747 59.5775C28.4151 59.9169 29.1127 60.1278 29.7764 60.41C31.2577 61.0398 32.7481 61.6191 34.2434 62.1917C34.7082 62.3697 37.4015 63.028 36.431 64.1722C36.0157 64.662 35.0891 64.931 34.5813 65.2827C33.93 65.7338 33.2209 65.9136 32.4964 66.0931C30.9864 66.4672 29.4193 66.6108 27.8907 66.9353C27.11 67.1011 26.3295 67.2669 25.549 67.4327C25.0917 67.5297 24.9156 67.5202 24.7962 66.8707C24.7093 66.3988 24.8226 65.9266 24.906 65.4695C25.1178 64.3081 25.3533 63.1526 25.5864 61.998C25.6751 61.5575 25.832 59.6211 26.1406 59.4093C26.8406 58.9287 26.3005 61.6096 26.2485 61.9378C26.0521 63.1761 25.8188 64.4057 25.7138 65.6623C26.4013 65.5831 27.0869 65.501 27.7718 65.3934Z" fill="#2D4710"/>
<path fill-rule="evenodd" clip-rule="evenodd" d="M46.2772 75.2517C46.5362 76.0798 46.1061 76.2651 45.5843 76.5519C44.9074 76.924 44.2417 77.3167 43.5524 77.6518C42.1025 78.3564 40.6422 79.0107 39.2269 79.826C36.5275 81.3806 33.7916 82.8734 31.1342 84.538C30.4738 84.9517 29.8129 85.3638 29.1466 85.7623C28.4575 86.1744 27.6673 86.8679 26.9301 87.1034C26.2871 87.3089 26.22 86.7258 26.6011 86.1888C27.0923 85.4962 27.8518 84.9791 28.4687 84.4977C31.0076 82.5159 33.7786 80.9027 36.5517 79.5393C39.7569 77.9633 42.9708 76.4512 46.2772 75.2517Z" fill="#2D4710"/>
<path fill-rule="evenodd" clip-rule="evenodd" d="M53.325 28.2742C53.2322 25.7565 53.4966 23.232 53.3389 20.7209C50.6279 23.7814 51.9636 28.5111 53.5232 31.8318L53.325 28.2742ZM54.4985 28.1303C54.5157 29.3602 54.5705 30.5894 54.4766 31.813C54.3781 33.0975 54.8512 33.7591 55.468 34.7052C54.9442 35.3821 53.7424 33.8039 53.4105 33.3386C52.7272 32.3806 52.2188 31.1078 51.7663 29.9574C50.8026 27.5068 50.1389 24.8831 50.9102 22.1925C51.1961 21.1953 51.5459 19.8395 52.3029 19.2589C53.1342 18.6214 53.77 19.5205 54.1149 20.4454C54.9569 22.7018 54.315 25.7083 54.4985 28.1303Z" fill="#2D4710"/>
<path fill-rule="evenodd" clip-rule="evenodd" d="M83.2185 153.279C84.4685 153.406 85.6999 153.53 86.9501 153.631C86.7344 151.449 86.5185 149.266 86.3028 147.084C85.5795 147.297 84.8562 147.51 84.1329 147.723C83.791 147.824 83.2665 147.851 82.9639 148.068C82.8507 148.101 82.7374 148.135 82.6244 148.168C82.6213 148.451 82.6188 148.735 82.6167 149.018C82.6082 149.856 82.5893 150.693 82.562 151.53C82.5505 151.881 82.4544 152.395 82.5203 152.743C82.4033 153.094 82.4777 153.244 82.7442 153.191C82.9023 153.22 83.0604 153.25 83.2185 153.279ZM82.3579 154.857C81.378 154.236 81.6459 152.337 81.6475 151.129C81.6487 150.36 81.6913 149.597 81.7071 148.829C81.7181 148.301 81.6233 147.648 81.7659 147.138C82.0195 146.231 83.2604 146.256 83.8986 146.32C84.3717 146.367 84.7677 146.336 85.2527 146.297C85.4917 146.277 85.7583 146.335 85.9932 146.245C86.0439 146.226 86.5218 145.801 86.5006 145.8C87.3577 145.842 87.3692 148.459 87.4248 149.123C87.5623 150.76 87.6868 152.4 87.7987 154.04C87.8285 154.474 87.9552 154.965 87.6313 155.213C87.3393 155.436 86.5653 155.215 86.2423 155.203C84.9403 155.153 83.6456 154.894 82.3579 154.857Z" fill="#2D4710"/>
<path fill-rule="evenodd" clip-rule="evenodd" d="M143.525 57.6128C144.092 58.262 143.819 58.9318 143.634 59.7429C143.522 60.2296 142.909 61.8278 143.078 62.2831C143.274 62.8095 144.192 62.939 144.585 63.1053C145.269 63.3948 145.956 63.6856 146.603 64.0938C146.89 64.2751 147.926 64.6917 148.12 65.0299C148.231 65.2238 148.272 65.3757 148.188 65.6256C148.041 66.0643 147.832 65.8321 147.474 65.738C145.838 65.3077 144.217 64.7574 142.7 63.8499C142.277 65.0999 141.919 66.3764 141.561 67.659C141.456 68.0348 141.356 68.8888 140.958 68.9497C140.472 69.0236 140.466 68.1953 140.498 67.7484C140.545 67.0958 140.811 66.4001 140.971 65.7823C141.103 65.2723 141.567 64.2105 141.51 63.685C141.471 63.3233 141.298 63.3485 140.989 63.2064C140.698 63.0723 140.406 62.9388 140.114 62.8031C139.647 62.5855 139.182 62.3673 138.728 62.1092C138.478 61.9675 137.956 61.8019 137.776 61.508C137.671 61.3375 137.554 60.7233 137.686 60.5533C137.996 60.155 140.052 61.2268 140.475 61.3732C140.756 61.4703 141.038 61.5445 141.31 61.6718C141.413 61.7202 141.535 61.9168 141.646 61.9241C142.12 61.9547 142.157 61.4914 142.304 60.9944C142.645 59.8396 143.015 58.6616 143.525 57.6128Z" fill="#2D4710"/>
<path fill-rule="evenodd" clip-rule="evenodd" d="M25.6033 80.5884C25.3511 79.8011 28.0282 78.8499 28.5252 78.5847C29.7382 77.9381 31.0377 77.547 32.2936 77.0532C33.5287 76.5675 34.7584 76.0447 35.9731 75.4827C36.3487 75.3087 39.0538 73.6315 39.1953 73.8767C39.6641 74.6882 33.9876 77.2373 33.4345 77.491C30.866 78.6686 28.2139 79.5728 25.6033 80.5884Z" fill="#2D4710"/>
<path fill-rule="evenodd" clip-rule="evenodd" d="M140.747 19.0149C140.053 19.0238 139.052 19.2744 138.415 18.9158C139.192 18.9488 139.969 18.982 140.747 19.0149Z" fill="#2D4710"/>
<path fill-rule="evenodd" clip-rule="evenodd" d="M43.3825 43.4874L41.8394 43.4803C42.3543 43.3282 42.8689 43.2364 43.3825 43.4874Z" fill="#2D4710"/>
<path fill-rule="evenodd" clip-rule="evenodd" d="M123.739 42.9634C124.102 42.9607 124.466 42.958 124.828 42.9551C124.463 42.958 124.101 42.9607 123.739 42.9634Z" fill="#2D4710"/>
<path fill-rule="evenodd" clip-rule="evenodd" d="M155.551 54.9644C155.548 55.46 155.546 55.9556 155.542 56.4492C155.545 55.9529 155.548 55.4586 155.551 54.9644Z" fill="#2D4710"/>
<path fill-rule="evenodd" clip-rule="evenodd" d="M83.8986 146.32C83.5121 146.355 83.1257 146.391 82.7396 146.426C83.1262 146.391 83.5123 146.355 83.8986 146.32Z" fill="#2D4710"/>
<path fill-rule="evenodd" clip-rule="evenodd" d="M86.0762 51.8611C85.6837 51.9016 85.2912 51.9423 84.8992 51.9828C85.2915 51.9421 85.6838 51.9016 86.0762 51.8611Z" fill="#2D4710"/>
<path fill-rule="evenodd" clip-rule="evenodd" d="M126.687 42.7998C126.965 42.7991 127.242 42.7983 127.518 42.7976C127.239 42.7986 126.963 42.7993 126.687 42.7998Z" fill="#2D4710"/>
<path fill-rule="evenodd" clip-rule="evenodd" d="M70.8083 52.8279C70.4633 52.8675 70.1179 52.9071 69.773 52.9467C70.118 52.9071 70.4633 52.8675 70.8083 52.8279Z" fill="#2D4710"/>
<path fill-rule="evenodd" clip-rule="evenodd" d="M86.0522 21.4568C85.707 21.4594 85.3618 21.4621 85.0167 21.4647C85.3609 21.2323 85.7063 21.2923 86.0522 21.4568Z" fill="#2D4710"/>
<path fill-rule="evenodd" clip-rule="evenodd" d="M23.0448 97.4807C22.7576 97.4612 22.5237 97.6387 22.3617 97.2899C22.6267 97.0267 22.7797 97.33 23.0448 97.4807Z" fill="#2D4710"/>
<path fill-rule="evenodd" clip-rule="evenodd" d="M76.3031 68.1259L75.4068 67.9976L76.3031 68.1259Z" fill="#2D4710"/>
<path fill-rule="evenodd" clip-rule="evenodd" d="M82.3579 154.857C82.5559 154.863 82.7537 154.869 82.9494 154.875C82.7507 154.869 82.5543 154.863 82.3579 154.857Z" fill="#2D4710"/>
<path fill-rule="evenodd" clip-rule="evenodd" d="M128.349 19.7324C128.041 19.7676 127.732 19.8028 127.424 19.838C127.732 19.8026 128.041 19.7676 128.349 19.7324Z" fill="#2D4710"/>
<path fill-rule="evenodd" clip-rule="evenodd" d="M30.571 138.919C30.2746 138.92 29.9784 138.922 29.6822 138.924C29.9786 138.922 30.2748 138.92 30.571 138.919Z" fill="#2D4710"/>
<path fill-rule="evenodd" clip-rule="evenodd" d="M6.74959 132.229C6.45043 132.23 6.15145 132.231 5.85246 132.231C6.15162 132.231 6.45043 132.23 6.74959 132.229Z" fill="#2D4710"/>
<path fill-rule="evenodd" clip-rule="evenodd" d="M82.3346 52.1753C82.0309 52.2134 81.7273 52.2512 81.4236 52.2893C81.7274 52.2512 82.0309 52.2134 82.3346 52.1753Z" fill="#2D4710"/>
<path fill-rule="evenodd" clip-rule="evenodd" d="M73.8615 52.8027C73.5627 52.7589 73.2641 52.7151 72.9654 52.6712C73.2615 52.745 73.5904 52.4539 73.8615 52.8027Z" fill="#2D4710"/>
<path fill-rule="evenodd" clip-rule="evenodd" d="M100.922 68.0756C101.108 68.0488 101.369 67.9658 101.561 68.0045C101.536 68.144 100.993 68.0751 100.922 68.0756Z" fill="#2D4710"/>
<path fill-rule="evenodd" clip-rule="evenodd" d="M81.9686 97.9224C82.1691 97.9273 82.3697 97.9323 82.568 97.9366C82.3669 97.9319 82.1678 97.9271 81.9686 97.9224Z" fill="#2D4710"/>
<path fill-rule="evenodd" clip-rule="evenodd" d="M63.8652 67.5256C63.5725 67.5617 63.2799 67.5978 62.9872 67.6337C63.2801 67.5976 63.5725 67.5617 63.8652 67.5256Z" fill="#2D4710"/>
<path fill-rule="evenodd" clip-rule="evenodd" d="M31.0925 66.2554C31.2521 66.261 31.4116 66.2667 31.5691 66.2724C31.4089 66.2667 31.2507 66.261 31.0925 66.2554Z" fill="#2D4710"/>
<path fill-rule="evenodd" clip-rule="evenodd" d="M74.2316 67.8073C73.9813 67.8006 73.7308 67.7938 73.4807 67.7874C73.731 67.7938 73.9813 67.8006 74.2316 67.8073Z" fill="#2D4710"/>
<path fill-rule="evenodd" clip-rule="evenodd" d="M27.7718 65.3933C27.5187 65.4332 27.2656 65.4728 27.0128 65.5124C27.2661 65.4726 27.5188 65.4329 27.7718 65.3933Z" fill="#2D4710"/>
<path fill-rule="evenodd" clip-rule="evenodd" d="M62.4897 62.6555C62.646 62.6635 62.8023 62.6715 62.9566 62.6801C62.7995 62.6726 62.6446 62.6642 62.4897 62.6555Z" fill="#2D4710"/>
<path fill-rule="evenodd" clip-rule="evenodd" d="M74.4139 96.1309C74.5726 96.1176 74.7311 96.1046 74.8877 96.0911C74.7285 96.1041 74.5712 96.1176 74.4139 96.1309Z" fill="#2D4710"/>
<path fill-rule="evenodd" clip-rule="evenodd" d="M86.5544 69.9177C86.2992 69.8772 86.0438 69.8367 85.789 69.7961C86.044 69.8367 86.2992 69.8772 86.5544 69.9177Z" fill="#2D4710"/>
<path fill-rule="evenodd" clip-rule="evenodd" d="M24.9635 120.104C25.1292 120.1 25.2948 120.097 25.4586 120.094C25.2924 120.097 25.1278 120.1 24.9635 120.104Z" fill="#2D4710"/>
<path fill-rule="evenodd" clip-rule="evenodd" d="M11.3622 93.8899C11.0983 93.856 10.8344 93.822 10.5704 93.7881C10.8343 93.822 11.0981 93.856 11.3622 93.8899Z" fill="#2D4710"/>
<path fill-rule="evenodd" clip-rule="evenodd" d="M5.73177 132.275C5.47241 132.313 5.21306 132.352 4.95354 132.39C5.21324 132.351 5.47241 132.313 5.73177 132.275Z" fill="#2D4710"/>
<path fill-rule="evenodd" clip-rule="evenodd" d="M147.114 42.9092C147.093 43.1947 147.073 43.4803 147.052 43.7647C147.072 43.4787 147.093 43.1941 147.114 42.9092Z" fill="#2D4710"/>
<path fill-rule="evenodd" clip-rule="evenodd" d="M32.1211 138.634C31.8601 138.672 31.5992 138.71 31.3385 138.748C31.5994 138.71 31.8603 138.672 32.1211 138.634Z" fill="#2D4710"/>
<path fill-rule="evenodd" clip-rule="evenodd" d="M29.5612 138.963C29.2971 139.198 29.0332 139.211 28.769 138.964C29.0331 138.963 29.2971 138.963 29.5612 138.963Z" fill="#2D4710"/>
<path fill-rule="evenodd" clip-rule="evenodd" d="M24.5549 139.244C24.2989 139.244 24.043 139.244 23.7871 139.245C24.0432 139.244 24.2991 139.244 24.5549 139.244Z" fill="#2D4710"/>
<path fill-rule="evenodd" clip-rule="evenodd" d="M54.4985 28.1303C54.4766 27.841 54.4547 27.5519 54.4328 27.2637C54.4547 27.5534 54.4766 27.8419 54.4985 28.1303Z" fill="#2D4710"/>
<path fill-rule="evenodd" clip-rule="evenodd" d="M82.4601 21.6702C82.2028 21.7107 81.9455 21.751 81.6885 21.7912C81.9457 21.751 82.203 21.7107 82.4601 21.6702Z" fill="#2D4710"/>
<path fill-rule="evenodd" clip-rule="evenodd" d="M83.3718 21.5171C83.1104 21.5543 82.8488 21.5917 82.5875 21.6291C82.8489 21.5917 83.1104 21.5543 83.3718 21.5171Z" fill="#2D4710"/>
<path fill-rule="evenodd" clip-rule="evenodd" d="M42.7656 60.0679C42.9266 60.0644 43.0876 60.061 43.2463 60.0576C43.0846 60.061 42.9252 60.0644 42.7656 60.0679Z" fill="#2D4710"/>
<path fill-rule="evenodd" clip-rule="evenodd" d="M66.0581 56.8629C66.9119 56.6836 67.7656 56.6238 68.6191 56.8622L66.0581 56.8629Z" fill="#2D4710"/>
<path fill-rule="evenodd" clip-rule="evenodd" d="M88.8274 44.6339C89.005 44.0428 89.0492 43.821 89.4831 43.5151C89.3024 44.0895 89.2741 44.3968 88.8274 44.6339Z" fill="#2D4710"/>
<path fill-rule="evenodd" clip-rule="evenodd" d="M109.646 103.124C109.663 103.739 109.68 104.353 109.697 104.967C109.68 104.352 109.663 103.738 109.646 103.124Z" fill="#2D4710"/>
<path fill-rule="evenodd" clip-rule="evenodd" d="M140.607 20.4343C140.221 20.4454 139.835 20.4567 139.45 20.4678C139.837 20.4567 140.222 20.4454 140.607 20.4343Z" fill="#2D4710"/>
<path fill-rule="evenodd" clip-rule="evenodd" d="M89.1579 114.046C89.1715 114.558 89.1848 115.07 89.1982 115.582C89.1847 115.069 89.1713 114.558 89.1579 114.046Z" fill="#2D4710"/>
<path fill-rule="evenodd" clip-rule="evenodd" d="M41.8313 97.6335C42.2214 97.6371 42.6116 97.6406 43.0017 97.6442C42.6114 97.6406 42.2214 97.6371 41.8313 97.6335Z" fill="#2D4710"/>
<path fill-rule="evenodd" clip-rule="evenodd" d="M74.9922 71.3206C74.7571 71.3237 74.5222 71.3266 74.2895 71.3308C74.5252 71.3279 74.7586 71.3242 74.9922 71.3206Z" fill="#2D4710"/>
<path fill-rule="evenodd" clip-rule="evenodd" d="M74.2265 55.0373C74.0332 55.0289 73.8397 55.0205 73.6485 55.0129C73.8427 55.0216 74.0346 55.0293 74.2265 55.0373Z" fill="#2D4710"/>
<path fill-rule="evenodd" clip-rule="evenodd" d="M46.5819 97.4787C46.8869 97.4409 47.1918 97.4028 47.4969 97.3647C47.1918 97.4028 46.8869 97.4409 46.5819 97.4787Z" fill="#2D4710"/>
<path fill-rule="evenodd" clip-rule="evenodd" d="M39.9357 97.6536C40.2345 97.6477 40.5333 97.6416 40.8319 97.6355C40.5333 97.6416 40.2345 97.6477 39.9357 97.6536Z" fill="#2D4710"/>
<path fill-rule="evenodd" clip-rule="evenodd" d="M43.1257 97.6432C43.4351 97.6089 43.7445 97.5746 44.0541 97.5403C43.7447 97.5744 43.4351 97.6089 43.1257 97.6432Z" fill="#2D4710"/>
<path fill-rule="evenodd" clip-rule="evenodd" d="M44.254 98.2685C44.1002 98.2673 43.9464 98.2659 43.7946 98.2646C43.9491 98.2661 44.1016 98.2673 44.254 98.2685Z" fill="#2D4710"/>
<path fill-rule="evenodd" clip-rule="evenodd" d="M109.511 89.4644C109.534 89.1755 109.557 88.8869 109.58 88.5991C109.557 88.8882 109.534 89.1762 109.511 89.4644Z" fill="#2D4710"/>
<path fill-rule="evenodd" clip-rule="evenodd" d="M63.3127 60.2744C63.5067 60.2954 63.7008 60.3165 63.8952 60.3377C63.6784 60.3519 63.4615 60.3658 63.2449 60.38C63.2461 60.3233 63.2687 60.2881 63.3127 60.2744Z" fill="#2D4710"/>
<path fill-rule="evenodd" clip-rule="evenodd" d="M113.171 108.843C113.158 108.58 113.146 108.317 113.134 108.056C113.146 108.319 113.159 108.581 113.171 108.843Z" fill="#2D4710"/>
<path fill-rule="evenodd" clip-rule="evenodd" d="M66.796 59.271C66.6403 59.275 66.4843 59.2787 66.3305 59.2825C66.4871 59.2785 66.6415 59.2748 66.796 59.271Z" fill="#2D4710"/>
<path fill-rule="evenodd" clip-rule="evenodd" d="M123.827 92.4668C124.087 92.5055 124.346 92.5443 124.606 92.5828C124.346 92.5443 124.087 92.5055 123.827 92.4668Z" fill="#2D4710"/>
<path fill-rule="evenodd" clip-rule="evenodd" d="M69.89 70.6775C69.73 70.6809 69.5703 70.6841 69.4124 70.688C69.5729 70.6848 69.7314 70.6811 69.89 70.6775Z" fill="#2D4710"/>
<path fill-rule="evenodd" clip-rule="evenodd" d="M60.6474 30.873C60.8151 30.987 60.728 31.4882 60.5644 31.4404C60.5921 31.2511 60.6197 31.0621 60.6474 30.873Z" fill="#2D4710"/>
<path fill-rule="evenodd" clip-rule="evenodd" d="M147.127 90.4353C146.973 90.4301 146.819 90.4249 146.667 90.4197C146.821 90.4251 146.974 90.4303 147.127 90.4353Z" fill="#2D4710"/>
<path fill-rule="evenodd" clip-rule="evenodd" d="M53.325 28.2742C53.3087 27.8326 53.2925 27.3912 53.2763 26.9509C53.2925 27.393 53.3088 27.8335 53.325 28.2742Z" fill="#2D4710"/>
<path fill-rule="evenodd" clip-rule="evenodd" d="M82.5068 153.147C82.7442 153.191 82.9815 153.235 83.2188 153.28C82.9811 153.235 82.744 153.191 82.5068 153.147Z" fill="#2D4710"/>
<path fill-rule="evenodd" clip-rule="evenodd" d="M80.9377 39.4626C80.1007 39.682 79.2412 39.7966 78.4238 40.1196C78.2199 40.2001 77.5507 40.6951 77.3064 40.5647C76.9353 40.3662 77.1231 39.8568 77.2793 39.585C77.6976 38.8581 78.4457 38.4508 79.1318 38.4599C79.8165 38.4692 80.7566 38.4373 80.9377 39.4626Z" fill="#2D4710"/>
<path fill-rule="evenodd" clip-rule="evenodd" d="M78.6123 41.4127C79.5339 42.2342 80.2379 42.6388 80.316 40.7925C81.3148 40.9658 80.8672 43.0142 80.1114 43.1687C79.2888 43.3367 78.74 42.2904 78.6123 41.4127Z" fill="#2D4710"/>
</g>
<defs>
<clipPath id="clip0_284_2871">
<rect width="178" height="170" fill="white"/>
</clipPath>
</defs>
</svg>
