<?xml version="1.0" encoding="UTF-8" standalone="no"?><svg width="580" height="482" viewBox="0 0 580 482" fill="none" xmlns="http://www.w3.org/2000/svg">
<path fill-rule="evenodd" clip-rule="evenodd" d="M314.477 203.867C336.991 202.002 358.47 210.741 376.464 224.361C399.656 241.916 419.313 267.021 432.618 293.475C434.033 294.61 435.427 295.775 436.812 296.95C444.217 303.233 451.452 309.87 457.865 317.257C461.445 321.38 470.836 331.407 466.759 337.731C465.894 339.074 464.473 339.845 463.05 340.377C459.06 341.865 454.9 342.618 450.965 344.359C446.107 346.508 441.07 349.516 437.958 354.104C437.073 355.408 436.842 356.948 435.652 357.523C434.39 358.133 432.012 357.895 430.632 358.035C427.86 358.319 425.087 358.602 422.314 358.885C415.8 359.55 408.991 359.623 402.619 361.262L373.303 368.801C367.307 370.343 360.416 371.193 354.73 373.728C346.245 377.51 338.15 383.048 330.031 387.612C326.105 389.819 322.179 392.026 318.253 394.233C316.336 395.311 315.023 395.325 312.776 395.505L296.562 396.805C293.946 397.014 292.691 398.111 292.348 395.385L288.579 365.412L286.587 349.562C286.468 348.62 286.503 343.95 285.762 343.387C285.296 343.033 282.567 343.794 282.062 343.859L274.703 344.797C269.402 345.473 264.102 346.149 258.802 346.825C258.371 346.88 255.988 346.852 255.721 347.218C255.407 347.648 256.003 350.112 256.057 350.642C256.619 356.208 257.182 361.774 257.744 367.339C257.81 367.984 258.562 370.977 258.166 371.507C257.89 371.875 255.893 371.919 255.488 371.988C250.374 372.858 245.262 373.727 240.149 374.597C236.487 375.219 231.702 375.188 228.24 376.622C226.252 377.445 224.286 379.551 222.568 380.867L197.632 399.98C193.85 402.878 188.752 402.14 184.146 402.506L131.016 406.722C131.06 404.999 131.105 403.275 131.149 401.551C131.383 392.423 131.616 383.294 131.85 374.166L132.156 362.226C132.175 361.47 131.885 359.259 132.359 358.701C132.99 357.96 135.806 357.638 136.681 357.368C139.613 356.464 142.545 355.56 145.477 354.656C154.08 352.004 162.681 349.352 171.283 346.7C179.785 344.079 188.285 341.458 196.786 338.837C199.695 337.94 202.604 337.043 205.512 336.147C206.184 335.939 208.531 335.664 208.998 335.072C209.587 334.326 209.323 331.145 209.417 330.2C209.879 325.588 210.537 320.996 211.338 316.435C217.118 283.538 230.626 250.121 255.673 228.175C272.23 213.667 292.998 205.646 314.477 203.867ZM318.447 269.838C316.219 267.113 312.475 262.666 308.537 263.404C305.337 264.004 303.593 268.136 302.478 270.883C297.994 281.924 296.604 294.58 295.209 306.379C294.334 313.783 293.631 321.22 293.181 328.665C309.152 327.385 325.122 326.106 341.093 324.826C340.34 319.525 339.735 314.175 338.828 308.9C338.373 306.256 337.115 303.876 336.039 301.433C331.229 290.508 325.977 279.047 318.447 269.838Z" fill="#4D7520"/>
<path fill-rule="evenodd" clip-rule="evenodd" d="M540.149 54.6021L540.539 54.6091C551.138 54.9028 560.484 62.0067 567.734 69.5247C571.318 73.242 574.587 77.6146 576.125 82.7025C577.902 88.5801 577.317 95.045 575.966 100.944C572.98 113.98 569.331 127.083 565.228 139.788C563.209 146.037 560.281 152.165 558.757 158.562C557.501 163.832 562.791 167.67 562.993 173.086C563.198 178.549 559.669 183.682 554.819 185.634C552.754 186.466 550.255 185.771 548.351 186.623C546.61 187.402 546 189.701 545.666 191.466C545.21 193.873 545.292 196.278 545.422 198.706C545.501 200.191 545.146 202.616 545.842 203.941C546.319 204.851 547.19 205.148 547.94 205.771C548.964 206.62 549.646 207.678 550.544 208.655C552.024 210.266 553.447 211.139 553.849 213.49C554.063 212.956 554.277 212.422 554.49 211.889C555.594 213.99 556.411 214.998 555.362 216.994C558.617 216.661 560.545 222.81 561.398 225.142C562.96 229.41 564.034 233.845 565.599 238.115C567.746 243.97 570.566 249.748 571.935 255.874C573.085 261.022 573.996 266.311 575.018 271.495C575.594 274.414 576.096 277.38 577.15 280.163C577.56 281.244 578.32 281.971 578.791 282.935C579.436 284.253 579.184 284.95 579.214 286.394C579.269 288.968 580.828 290.64 581.318 293.141C581.842 295.812 582.27 298.514 582.798 301.192C583.863 306.585 585.835 311.97 586.31 317.433C586.861 323.776 588.044 330.041 588.639 336.386C589.159 341.931 588.275 347.883 589.386 353.246C590.372 358.007 589.15 362.36 588.715 367.086C588.605 368.286 590.38 375.431 587.528 374.059C588.063 375.743 588.814 376.546 588.854 378.394C588.892 380.122 588.464 381.899 588.115 383.575C587.44 386.813 586.99 390.343 585.668 393.377C584.173 396.808 581.895 397.219 578.798 398.397C576.701 399.194 572.926 402.038 571.274 398.996C570.288 402.119 568.365 399.96 566.209 399.786C566.224 399.786 564.975 400.267 564.741 400.3C563.983 400.406 563.087 400.034 562.333 399.969C560.453 399.806 558.608 400.068 556.768 400.465C552.529 401.38 548.428 402.645 544.127 403.283C535.724 404.528 527.49 403.939 519.076 404.485C502.608 405.551 485.868 404.656 469.388 404.194C467.619 404.144 465.713 404.402 463.967 404.119C462.086 403.814 461.675 402.886 460.209 401.957C457.772 400.415 455.068 401.915 452.54 402.479C445.116 404.134 437.364 404.256 429.882 405.857C414.68 409.109 400.673 415.526 386.111 420.939C379.799 423.286 372.389 427.086 365.582 427.251C357.332 427.437 359.28 418.973 360.796 413.532C356.03 414.85 348.544 420.873 343.699 417.377C337.925 413.213 345.272 406.289 345.618 401.394C335.298 403.625 323.592 408.518 313.118 404.54C311.102 403.775 309.348 402.157 307.184 401.894C304.935 401.621 302.557 402.449 300.283 402.434C295.103 402.4 290.072 401.682 284.893 402.346C273.347 403.827 261.964 404.638 250.325 404.958C238.606 405.279 226.888 406.002 215.164 405.972C209.213 405.956 203.152 405.221 197.214 405.551C194.882 405.68 189.863 407.444 188.225 404.976C186.58 407.03 185.183 405.658 183.073 405.885C183.464 405.843 181.974 406.741 181.75 406.827C180.64 407.257 179.603 407.126 178.445 407.114C175.36 407.081 172.478 408.585 169.409 408.439C168.633 408.403 168.046 408.167 167.387 407.89C167.231 407.824 167.269 407.125 167.019 407.067C165.517 406.716 165.905 407.674 164.952 408.157C163.895 408.692 162.331 407.827 162.933 409.472C160.065 409.341 157.349 410.348 154.74 408.577C155.973 411.416 151.664 409.057 150.538 409.011C148.667 408.932 147.028 409.907 145.161 410.132C142.923 410.4 140.673 409.319 138.483 409.979C136.767 410.496 136.179 411.739 134.394 411.103C132.876 410.564 131.929 409.391 131.192 408.108C130.176 406.339 130.046 405.55 127.596 405.518C125.78 405.495 123.953 405.902 122.119 405.899C120.018 405.894 117.708 405.662 115.79 406.703C113.723 407.823 112.509 409.53 110.217 410.408C99.9097 414.356 88.5952 413.311 77.8411 413.243C73.3039 413.215 69.9743 413.65 68.7005 408.259C67.6244 403.704 67.193 398.942 66.1663 394.349C64.9082 388.723 63.5253 383.503 60.7338 378.472C58.026 373.594 55.7478 368.554 53.39 363.487C48.4866 352.948 41.661 343.982 34.0509 335.417C31.1599 332.163 27.8466 328.538 27.712 323.853C27.6134 319.806 29.3246 315.615 31.5691 312.391C33.5731 309.514 36.875 306.269 40.6102 306.94C42.8594 307.344 44.3339 309.234 46.0125 310.651C47.8473 312.2 49.8459 313.256 52.0572 314.101C57.2137 316.071 61.5382 318.227 66.0036 321.627C70.522 325.068 74.7458 328.922 78.6533 333.095C86.1543 341.106 93.8403 349.429 98.1502 359.802C99.8488 363.889 100.934 367.831 102.092 372.068C103.23 376.229 106.327 375.083 109.809 374.484C114.054 373.755 118.319 373.364 122.592 372.902C124.2 372.728 126.467 372.677 127.435 371.094C128.503 369.349 127.28 367.088 127.183 365.277C127.131 364.31 127.439 363.597 127.516 362.654C127.605 361.581 127.3 360.601 127.299 359.533C127.298 357.236 128.33 355.19 130.046 353.799C133.255 351.194 137.937 349.641 141.737 348.209C146.926 346.252 152.485 345.29 157.829 343.894C163.845 342.321 169.898 340.904 175.946 339.475C181.89 338.072 187.824 336.629 193.832 335.548C197.355 334.914 201.178 335.146 204.594 333.987C208.224 332.756 207.622 328.951 207.611 325.58C207.594 320.013 208.255 314.282 209.038 308.779C210.703 297.079 214.67 285.629 218.277 274.448C221.751 263.68 226.055 253.344 233.16 244.606C240.077 236.098 248.566 228.4 257.372 222.078C266.547 215.49 276.757 210.731 286.335 204.851C284.242 203.183 281.745 201.76 280.542 199.192C279.184 196.293 279.76 192.827 279.818 189.729C279.883 186.231 279.985 183.162 281.184 179.831C281.84 178.006 284.377 174.545 283.988 172.562C283.337 169.23 276.34 166.797 273.764 165.426C269.723 163.276 265.675 161.092 261.951 158.378C258.377 155.774 255.015 152.64 252.85 148.642C252.236 147.508 251.731 146.317 251.339 145.081C250.902 143.701 251.207 143.231 249.883 143.13C247.77 142.968 244.602 145.177 242.822 146.153C233.642 151.185 223.56 157.956 212.729 157.507C208.799 157.344 204.382 156.058 202.992 151.789C201.163 146.169 204.982 140.363 208.334 136.304C201.797 137.374 189.742 140.718 184.584 134.643C181.146 130.595 183.739 124.17 186.622 120.659C190.43 116.023 195.86 113.2 200.875 110.249C194.721 107.805 187.908 106.243 182.496 102.153C177.32 98.2426 177.96 92.2346 182.048 87.6217C186.419 82.6906 194.061 80.1651 200.072 78.3344C207.445 76.0889 214.769 76.269 222.367 76.4196C236.002 76.6895 247.715 81.9249 258.899 89.8403C264.812 94.0258 270.64 98.5426 275.885 103.612C280.804 108.366 286.051 112.787 290.898 117.592C295.594 122.249 299.289 128.017 304.245 132.367C308.46 136.066 313.081 141.308 318.435 142.95C324.113 144.691 329.223 147.57 334.949 149.284C341.445 151.228 347.024 154.478 353.044 157.579C378.305 170.593 405.423 179.063 432.056 188.406C445.678 193.185 459.39 196.553 473.298 200.203C480.282 202.035 486.767 203.013 493.974 202.682C495.636 202.606 497.223 202.56 498.862 202.801C500.063 202.977 500.977 203.45 502.051 202.702C503.595 201.627 504.175 198.831 505.095 197.238C499.966 195.582 494.945 193.79 492.605 188.316C491.13 184.866 490.365 180.842 489.719 177.141C489.372 175.149 489.364 173.138 489.067 171.145C488.905 170.044 488.402 168.894 488.441 167.769C488.326 168.395 484.504 166.337 483.949 165.955C481.811 164.479 481.422 161.505 481.439 158.995C481.46 156.159 482.282 153.043 484.13 150.892C485.005 149.874 486.046 149.111 487.318 148.728C488.221 148.455 489.411 148.812 490.207 148.538C493.738 147.322 494.134 138.221 494.634 134.908C495.738 127.608 496.838 120.638 499.22 113.64C503.564 100.882 509.154 88.4834 515.813 76.8677C521.518 66.9143 527.218 54.744 539.763 54.6021H540.149ZM431.706 361.074C426.628 361.99 421.764 363.86 416.859 365.446C412.279 366.927 407.636 367.87 402.937 368.833C393.585 370.75 384.027 372.504 374.811 375.002C372.216 375.706 370.85 377.294 368.586 378.398C366.907 379.216 365.332 378.387 363.586 378.317C359.784 378.166 355.566 379.458 351.91 380.42C343.279 382.692 335.621 386.637 327.81 390.998C327.111 391.388 322.385 393.64 322.609 394.573C322.791 395.334 328.799 393.29 329.754 393.139C334.591 392.371 339.316 390.783 344.118 389.796C348.059 388.986 352.045 388.437 355.969 387.538C360.337 386.538 369.64 383.058 370.01 390.571C370.409 398.691 361.801 401.188 356.626 404.976C357.203 406.012 365.505 402.595 366.534 402.25C370.064 401.065 373.339 398.928 376.933 398.018C383.186 396.434 382.429 403.628 378.977 406.828C375.141 410.383 368.798 411.457 366.674 416.928C369.463 417.976 373.109 416.008 375.671 415.03C379.036 413.745 382.413 412.48 385.798 411.255C393.397 408.504 400.614 404.716 408.253 402.095C423.926 396.721 440.493 395.179 456.877 394.224C455.417 388.325 453.821 382.461 452.509 376.523C451.947 373.982 451.433 371.429 451.008 368.859C450.712 367.071 450.964 362.794 449.782 361.385C448.342 359.667 444.593 362.079 442.553 362.033C440.555 361.988 439.096 360.914 437.25 360.575C435.496 360.254 433.421 360.764 431.706 361.074ZM137.212 395.219C137.212 398.039 136.742 401.46 140.303 401.789C143.183 402.056 148.818 402.398 151.115 400.265C148.914 399.147 146.411 398.952 144.073 398.308C141.636 397.636 139.386 396.532 137.212 395.219ZM195.987 343.84C194.904 343.848 193.076 345.103 192.088 345.453C190.28 346.093 188.442 346.633 186.596 347.142C181.049 348.672 173.907 348.911 171.36 355.113C170.089 358.208 169.207 366.168 164.789 366.139C160.863 366.113 158.511 360.21 155.71 358.109C152.814 355.939 148.224 357.416 145.102 358.359C141.929 359.316 137.005 360.544 137.361 364.733C137.617 367.744 138.139 370.485 138.114 373.561C138.084 377.476 137.766 381.384 137.766 385.299C139.994 382.121 141.937 375.73 145.883 374.451C149.87 373.16 152.126 380.415 153.163 383.196C154.448 386.642 156.063 390.549 156.161 394.284C156.192 395.456 155.509 398.677 156.292 399.641C156.986 400.497 159.659 399.876 160.522 399.783C165.866 399.203 171.182 398.482 176.542 397.999C179.295 397.751 180.045 397.122 179.776 394.037C179.564 391.614 179.498 389.305 179.79 386.873C181.092 376.015 187.511 366.083 198.365 364.197C204.906 363.061 212.544 363.892 219.074 364.983C221.591 365.404 224.323 366.673 226.88 366.563C228.769 366.481 228.161 366.37 228.548 364.518C228.818 363.223 229.397 362.118 230.343 361.221C231.09 360.511 232.038 360.912 232.742 359.985C233.252 359.314 233.176 358.4 233.416 357.627C233.885 356.123 234.734 354.092 236.423 353.713C239.141 353.101 242.03 356.892 243.402 358.846C244.819 360.868 245.248 366.903 247.527 367.693C250.157 368.604 253.286 365.013 253.834 362.751C254.572 359.709 253.643 356.417 253.199 353.404C253.167 353.188 253.038 351.186 252.895 351.055C252.511 350.703 249.62 350.802 249.107 350.775C246.588 350.651 244.065 350.644 241.543 350.637C231.657 350.612 221.973 349.599 212.153 348.52C213.579 350.942 216.021 354.918 213.515 357.475C211.657 359.369 208.305 358.419 205.972 358.809C202.676 359.36 197.12 362.618 193.979 360.237C189.552 356.879 194.56 351.11 196.203 347.937C196.555 347.257 197.86 344.863 197.307 344.065C196.828 343.374 196.688 343.834 195.987 343.84ZM122.269 381.157C120.009 381.875 117.732 382.565 115.423 383.097C112.714 383.722 108.515 383.115 107.197 386.219C106.194 388.579 106.692 392.386 107.506 394.736C108.439 397.428 110.628 398.12 113.212 398.325C116.227 398.565 119.282 398.059 122.261 397.629C123.436 397.46 124.688 397.154 125.881 397.152C126.589 397.15 128.018 397.825 128.648 397.273C129.463 396.559 128.926 392.498 128.862 391.525C128.704 389.114 128.265 386.735 128.145 384.321C128.059 382.587 128.687 380.23 126.735 379.861C125.52 379.63 123.325 380.821 122.269 381.157ZM304.778 333.435C303.089 333.74 301.41 333.958 299.695 333.931C298.638 333.914 297.373 333.54 296.396 334.143C294.592 335.259 294.861 338.196 294.922 340.03C294.997 342.254 295.184 344.511 295.412 346.724C295.629 348.841 296.744 352.326 295.17 354.139C294.059 352.873 293.512 348.734 291.368 348.885C289.012 349.051 290.101 352.973 290.31 354.378C291.465 362.142 292.782 369.911 293.814 377.697C294.304 381.399 294.938 385.073 295.267 388.793C295.487 391.29 295.561 393.538 298.24 394.055C300.722 394.535 303.512 393.716 306.021 393.653C308.605 393.589 310.085 393.406 311.571 390.974C308.012 390.162 302.374 390.658 300.369 386.737C298.031 382.163 302.962 378.047 305.389 374.92C307.251 372.519 311.059 364.536 314.517 369.277C315.761 370.984 315.986 373.59 316.615 375.575C317.637 378.802 318.886 381.982 320.112 385.129C331.324 379.1 342.83 373.665 355.058 370.28C351.941 364.792 348.082 359.849 345.748 353.9C343.133 347.233 340.967 340.384 338.293 333.739C334.055 336.315 329.523 330.068 325.302 329.817C318.634 329.419 311.315 332.256 304.778 333.435ZM238.359 378.383C236.035 379.825 232.615 382.63 232.057 385.529C231.093 390.542 236.585 387.19 238.281 386.093C241.831 383.797 245.308 383.063 249.385 384.478C254.612 386.293 259.429 389.356 265.04 387.029C267.832 385.87 274.024 383.395 272.353 378.954C271.201 375.892 267.83 378.518 266.048 379.616C261.384 382.49 257.521 380.669 252.859 378.595C248.198 376.52 242.948 375.536 238.359 378.383ZM72.8087 352.658C70.9426 355.413 74.7362 354.819 76.4016 355.087C79.8843 355.648 83.4712 358.54 82.5113 362.633C81.5756 366.624 77.9091 369.119 77.2108 373.308C76.6107 376.906 77.1891 381.459 80.5242 383.434C82.3975 384.543 86.4917 385 88.3771 383.726C91.256 381.78 87.6805 378.883 85.7759 377.92C83.2519 376.643 81.2135 375.951 82.4625 372.596C83.9851 368.506 86.9424 365.367 86.6797 360.687C86.4628 356.81 84.4979 352.404 80.9182 350.792C78.355 349.64 74.5566 350.077 72.8087 352.658ZM327.602 340.772C330.828 340.628 330.957 344.689 330.794 346.686C330.572 349.417 331.048 352.327 331.103 355.066C331.176 358.695 331.905 370.576 325.745 368.812C321.784 367.677 318.525 363.723 315.34 361.182C312.411 358.844 304.963 356.039 304.481 351.606C303.936 346.598 309.808 345.661 313.173 344.865C317.976 343.729 322.64 340.994 327.602 340.772ZM311.887 208.793C306.772 209.307 301.684 210.099 296.816 211.868C293.522 213.066 288.462 213.925 286.127 216.863C284.109 219.404 284.984 223.027 284.328 226.029C283.44 230.091 280.748 229.536 278.137 226.999C275.012 223.963 274.109 221.765 269.759 224.614C260.754 230.512 253.614 239.22 246.471 247.287C251.995 249.03 262.83 249.451 264.665 256.639C265.668 260.569 262.645 263.428 259.928 265.573C256.421 268.342 252.76 270.903 249.329 273.784C246.128 276.472 238.949 287.175 236.919 277.765C235.661 271.94 238.017 265.921 237.017 260.167C232.674 267.461 228.264 274.737 224.282 282.255C220.893 288.655 218.922 295.5 217.296 302.576C219.831 302.748 222.469 301.408 224.974 302.2C227.386 302.961 228.516 305.339 228.685 307.802C228.973 311.977 227.122 316.227 226.19 320.237C225.551 322.991 224.817 329.241 221.597 330.137C217.926 331.158 215.622 325.277 213.986 322.887C212.428 325.382 212.454 329.031 212.226 331.891C212.07 333.858 211.017 337.534 213.14 338.621C215.127 339.639 219.317 338.363 221.442 338.27C225.385 338.095 229.405 337.763 233.349 337.884C237.076 337.999 242.559 340.074 244.015 335.303C245.006 332.055 245.879 320.383 251.166 326.716C253.514 329.528 255.351 332.734 257.619 335.599C259.908 338.49 261.988 338.679 265.406 338.533C272.171 338.244 278.778 339.597 285.397 340.69C291.206 341.648 290.443 336.513 290.357 331.942C290.225 324.855 291.574 317.445 292.31 310.398C294.06 293.64 297.651 277.084 303.176 261.235C298.554 259.596 290.269 266.21 286.852 261.187C284.043 257.058 287.652 251.37 289.121 247.51C290.953 242.695 291.88 237.664 294.868 233.396C295.811 232.048 297.153 230.243 298.979 230.697C300.546 231.086 301.17 233.167 302.051 234.342C304.849 238.068 308.424 240.863 310.911 244.928C312.432 247.415 313.616 250.072 314.11 252.992C314.246 253.794 314.074 255.438 314.616 256.111C316.298 258.198 321.596 258.167 323.951 259.447C331.99 263.817 334.815 276.537 337.937 284.558C338.816 286.817 339.688 289.081 340.156 291.476C340.468 293.076 340.453 295.111 341.286 296.546C343.105 299.68 348.757 296.881 351.531 296.396C356.179 295.583 360.805 294.807 365.472 294.124C368.32 293.708 372.465 292.633 374.634 295.261C376.884 297.985 375.59 302.276 374.461 305.199C372.618 309.969 370.263 314.527 368.318 319.254C366.766 323.025 365.994 327.882 363.013 330.788C360.43 333.306 356.156 334.027 353.116 331.978C351.381 330.809 346.925 319.498 345.75 320.003C347.872 328.74 350.983 337.648 354.271 345.986C355.28 348.547 357.014 353.769 359.564 355.158C361.679 356.31 366.476 354.134 368.639 353.712C370.69 353.312 374.739 351.577 376.7 352.848C379.077 354.389 379.367 358.5 379.634 361.052C379.832 362.944 379.473 364.356 381.683 364.262C383.24 364.196 384.811 363.405 386.306 363.008C389.774 362.086 393.375 361.475 396.906 360.882C405.073 359.508 413.238 358.138 421.402 356.73C428.42 355.519 435.347 355.526 441.689 352.058C444.903 350.301 448.588 349.764 452.011 348.589C455.406 347.423 458.79 346.667 462.343 346.229C470.109 345.273 477.666 344.336 485.341 342.697C489.542 341.8 493.734 340.861 497.912 339.856C501.631 338.961 505.226 337.541 508.927 336.664C512.006 335.935 514.535 336.482 515.854 332.842C516.8 330.232 516.58 327.307 516.823 324.575C517.933 312.092 513.737 299.539 512.878 287.125C512.6 283.105 512.514 279.072 512.224 275.054C512.092 273.214 512.172 267.854 510.11 266.862C509.922 268.334 510.068 270.811 508.462 271.54C509.247 271.184 508.217 275.533 508.162 275.969C507.942 277.705 508.49 279.563 508.201 281.266C508.43 281.866 508.33 282.317 507.902 282.621C507.611 282.867 507.398 283.178 507.265 283.554C507.245 284.768 507.586 284.053 507.603 284.472C507.764 288.65 507.086 292.98 507.376 297.259C507.683 301.782 508.652 306.219 509.389 310.68C510.05 314.684 510.762 318.697 511.313 322.719C511.7 325.542 511.987 328.782 510.529 331.352C507.76 336.23 499.744 335.7 495.076 336.497C487.316 337.824 479.546 339.021 471.758 340.148C468.768 340.581 465.742 341.569 462.718 341.618C459.486 341.671 457.757 340.311 455.72 337.827C451.615 332.823 448.968 327.14 445.55 321.697C443.629 318.639 442.032 317.833 438.799 316.9C435.797 316.033 433.387 313.751 430.945 311.853C425.813 307.867 419.187 303.532 415.82 297.661C412.277 291.483 417.27 289.432 422.051 287.746C420.888 284.525 418.606 281.938 416.726 279.167C414.589 276.017 412.651 272.744 410.35 269.712C405.66 263.532 400.975 257.384 396.423 251.089C392.533 245.708 388.601 240.611 383.635 236.253C378.648 231.875 373.095 228.287 367.619 224.621C364.758 222.707 359.736 217.814 356.12 218.315C352.613 218.8 351.226 225.605 350.35 228.465C349.344 231.747 348.989 236.322 346.646 238.906C343.203 242.703 339.629 236.722 337.986 233.966C334.977 228.917 331.898 223.913 328.894 218.859C327.525 216.555 325.547 214.363 324.734 211.751C324.725 211.72 324.344 209.474 324.728 209.788L324.755 209.813L324.729 209.783C323.87 208.896 320.695 208.712 319.509 208.605L319.4 208.595C316.903 208.35 314.377 208.543 311.887 208.793ZM278.353 350.371C275.477 350.353 272.609 350.701 269.747 350.946C267.232 351.16 264.928 350.759 262.417 350.602C259.312 350.407 257.776 350.746 258.491 354.087C259.011 356.517 259.636 359.755 262.032 360.783C265.269 362.171 269.629 361.984 273.078 362.51C275.61 362.896 278.135 363.244 280.656 363.684C282.331 363.977 283.191 364.282 283.975 362.306C284.63 360.65 284.208 358.437 283.984 356.726C283.812 355.413 283.915 353.104 283.32 351.936C282.431 350.192 280.103 350.383 278.353 350.371ZM412.427 317.059C416.652 321.082 419.495 326.225 422.686 331.103C424.634 334.081 428.445 338.829 425.677 342.439C423.32 345.517 417.837 344.813 414.539 344.961C409.356 345.194 405.122 347.633 400.19 348.892C387.767 352.061 398.085 330.311 399.805 325.773C401.013 322.588 402.258 319.418 403.719 316.348C404.378 314.965 405.692 310.929 407.329 310.401C409.703 309.634 410.924 315.628 412.427 317.059ZM305.692 271.33C303.718 275.261 303.397 280.702 302.461 284.996C299.6 298.124 297.926 311.494 296.611 324.875C303.154 322.172 310.06 321.985 316.969 321.323C321.974 320.844 326.57 320.295 331.577 320.517C332.43 320.555 334.884 321.006 335.587 320.251C336.532 319.237 335.388 316.407 335.109 315.34C333.592 309.545 332.925 303.557 331.2 297.798C329.442 291.925 327.305 286.06 325.031 280.382C323.368 276.229 321.084 272.179 317.053 270.143C313.525 268.36 307.883 266.969 305.692 271.33ZM278.746 296.88C281.442 301.114 284.857 304.817 287.49 309.089C289.356 312.12 291.542 317.726 287.058 319.652C285.484 320.328 283.626 320.036 281.977 320.066C279.427 320.112 276.901 320.34 274.346 320.277C271.93 320.217 269.536 319.912 267.126 319.78C265.607 319.698 263.699 319.82 262.361 318.911C258.774 316.474 261.368 311.498 262.523 308.314C263.75 304.932 265.406 301.734 267.005 298.529C268.113 296.306 269.77 291.776 272.29 290.87C275.275 289.797 277.503 294.928 278.746 296.88ZM409.467 248.917C415.391 256.093 420.536 263.921 425.38 271.915C427.745 275.816 430.04 279.763 432.332 283.711C433.832 286.294 434.958 289.599 436.785 291.938C440.953 297.275 442.112 285.631 442.726 283.1C444.992 273.767 447.798 264.509 450.295 255.234L447.736 255.234C437.538 255.228 427.761 255.071 417.832 251.942C415.021 251.056 412.458 249.134 409.467 248.917ZM387.926 250.727C391.152 253.208 411.802 267.778 403.116 273.4C401.318 274.564 398.381 274.036 396.35 274.203C393.747 274.417 391.103 274.679 388.531 275.159C385.202 275.782 381.968 276.867 378.623 277.417C375.964 277.854 372.44 278.364 370.065 276.64C366.146 273.794 368.525 268.206 369.818 264.588C371.658 259.448 373.4 252.567 377.963 249.506C379.024 248.794 380.325 246.25 381.468 246.017C383.257 245.652 386.618 249.72 387.926 250.727ZM501.852 129.87C500.295 131.11 500.224 133.687 499.82 135.506C498.462 141.624 496.567 147.579 495.442 153.762C494.345 159.793 494 165.73 494.538 171.842C494.898 175.918 494.939 180.934 497.318 184.405C500.165 188.559 505.802 188.346 510.066 189.576C514.168 190.76 518.235 194.425 513.761 198.236C512.171 199.59 510.083 199.81 508.511 201.115C506.572 202.724 505.458 205.609 504.635 207.967C503.956 209.909 503.976 210.28 506.002 210.966C506.928 211.279 507.863 211.478 508.837 211.394C511.054 211.202 513.032 209.677 514.889 208.531C519.623 205.608 525.092 201.706 530.745 201.265C532.552 201.125 534.606 201.895 536.363 201.283C538 200.713 537.498 200.364 537.782 198.778C538.908 192.492 539.366 186.322 542.443 180.635C543.962 177.829 547.977 172.089 550.669 176.458C551.792 178.282 552.199 179.173 554.692 178.614C556.721 178.159 558.95 176.487 558.547 174.047C558.168 171.744 555.261 170.176 553.499 169.167C551.152 167.824 549.507 167.979 546.951 167.661C539.93 166.786 544.853 156.09 545.865 152.077C546.501 149.554 547.246 146.294 545.575 144.016C543.033 140.552 537.495 141.691 534.007 142.182C529.182 142.862 523.915 143.224 519.4 140.944C514.623 138.531 512.587 133.09 508.108 130.444C506.452 129.467 503.552 128.513 501.852 129.87ZM522.816 174.057C526.136 174.011 524.522 178.94 523.613 180.598C521.699 184.094 517.597 185.446 513.996 184.157C511.147 183.137 508.065 178.632 512.527 177.885C514.667 177.527 516.785 177.673 518.812 176.613C519.967 176.009 521.461 174.076 522.816 174.057ZM514.489 147.842C516.551 149.146 513.031 157.476 512.438 159.162C511.473 161.913 510.614 163.689 513.07 165.81C514.777 167.285 518.145 168.558 516.537 171.497C515.049 174.216 509.942 173.076 507.866 171.745C504.848 169.81 505.737 166.104 506.403 163.063C506.838 161.07 510.816 145.52 514.489 147.842ZM189.721 93.1515C196.082 95.9814 202.585 98.5376 209.315 100.243C215.196 101.733 220.98 103.341 227.041 102.99C232.649 102.667 233.318 108.405 230.115 112.379C228.375 114.538 226.355 114.484 223.819 114.568C220.851 114.666 218.154 115.524 215.291 116.292C210.93 117.462 206.516 118.455 202.29 120.106C200.109 120.959 197.958 121.961 196.013 123.308C194.79 124.155 192.062 125.681 193.505 126.865C195.591 128.575 201.783 126.233 204.265 126.078C210.045 125.719 215.814 125.176 221.562 124.422C224.377 124.052 227.399 123.687 230.065 122.622C231.81 121.925 233.741 120.196 235.716 120.635C239.883 121.562 237.818 128.069 235.926 130.186C233.117 133.329 228.851 134.718 225.222 136.504C222.685 137.753 220.164 139.075 217.701 140.473C216.538 141.133 211.115 143.606 211.287 145.484C211.467 147.458 215.747 146.463 216.806 146.283C223.871 145.086 230.247 142.241 236.775 139.329C239.632 138.054 242.529 136.831 245.327 135.418C247.281 134.43 249.202 132.925 251.361 132.476C256.451 131.417 256.228 137.339 258.232 140.538C264.189 150.044 275.698 154.1 284.653 159.594C288.04 161.672 291.272 164.065 294.38 166.569C296.601 168.356 297.488 170.816 299.968 168.459C302.034 166.494 303.03 163.612 304.355 161.113C305.897 158.203 307.956 155.635 309.537 152.749C311.872 148.486 312.572 144.419 307.443 142.85C302.059 141.203 297.797 138.748 293.221 135.244C281.99 126.644 272.671 115.663 261.473 106.998C251.099 98.9694 240.098 91.4357 227.092 89.2798C214.765 87.2357 201.241 87.7391 189.721 93.1515ZM526.187 154.903C525.924 157.271 525.364 162.32 522.206 162.509C518.372 162.738 520.947 150.604 523.119 149.239C526.597 147.052 526.41 152.897 526.187 154.903ZM490.506 153.937C485.72 154.35 484.356 159.811 489.14 161.744L490.506 153.937ZM508.254 149.144C507.64 151.623 507.858 155.6 505.949 157.502C503.257 160.182 502.085 156.249 502.105 154.006C502.125 151.787 503.18 146.238 506.031 145.945C508.466 145.695 506.439 148.636 508.254 149.144ZM559.911 94.0038C558.161 97.7964 560.042 101.539 561.089 105.267C558.941 105.989 556.047 105.443 554.735 107.808C553.908 109.299 554.052 111.543 554.3 113.157C554.503 114.481 555.545 116.264 554.678 117.493C553.542 119.102 550.723 118.358 549.47 120.147C547.566 122.869 548.634 129.084 551.306 131.133C555.061 134.01 552.82 126.949 552.591 125.663C552.015 122.441 555.219 122.879 557.407 121.578C558.582 120.88 558.791 120.745 559.061 119.255C559.31 117.883 559.178 116.794 558.864 115.315C557.798 110.296 559.661 111.115 563.489 110.01C566.791 109.055 566.526 106.307 565.687 103.418C565.029 101.153 563.068 97.4387 565.193 95.5082C566.036 94.7419 567.316 95.2264 567.498 93.6273C567.621 92.5478 566.23 90.7779 565.5 90.1572C562.983 88.0171 560.934 91.7859 559.911 94.0038Z" fill="#2D4710"/>
</svg>
