<?xml version="1.0" encoding="UTF-8" standalone="no"?><svg width="80" height="80" viewBox="0 0 80 80" fill="none" xmlns="http://www.w3.org/2000/svg">
<circle cx="40" cy="40" r="40" fill="#FDFDFC"/>
<circle cx="40" cy="40" r="39.5" stroke="#4D7520" stroke-opacity="0.29"/>
<path d="M47.5 28.75C47.8062 28.75 48.1017 28.8624 48.3305 29.0659C48.5593 29.2693 48.7054 29.5497 48.7412 29.8537L48.75 30V50C48.7496 50.3186 48.6277 50.625 48.4089 50.8567C48.1902 51.0884 47.8913 51.2278 47.5733 51.2465C47.2552 51.2651 46.942 51.1617 46.6977 50.9572C46.4534 50.7527 46.2964 50.4626 46.2587 50.1462L46.25 50V43.75H45C44.6938 43.75 44.3983 43.6376 44.1695 43.4341C43.9407 43.2307 43.7946 42.9503 43.7587 42.6462L43.75 42.5V35C43.75 32.2375 45.625 28.75 47.5 28.75ZM40 28.75C40.3062 28.75 40.6017 28.8624 40.8305 29.0659C41.0593 29.2693 41.2054 29.5497 41.2413 29.8537L41.25 30V36.25C41.2499 37.3586 40.8815 38.4357 40.2027 39.3122C39.524 40.1887 38.5733 40.8149 37.5 41.0925V50C37.4996 50.3186 37.3777 50.625 37.1589 50.8567C36.9402 51.0884 36.6413 51.2278 36.3233 51.2465C36.0052 51.2651 35.692 51.1617 35.4477 50.9572C35.2034 50.7527 35.0464 50.4626 35.0087 50.1462L35 50V41.0925C33.9693 40.826 33.0505 40.2377 32.3772 39.4131C31.7039 38.5885 31.3112 37.5706 31.2563 36.5075L31.25 36.25V30C31.2504 29.6814 31.3723 29.375 31.5911 29.1433C31.8098 28.9116 32.1087 28.7722 32.4267 28.7535C32.7448 28.7349 33.058 28.8383 33.3023 29.0428C33.5466 29.2473 33.7036 29.5374 33.7413 29.8537L33.75 30V36.25C33.75 36.6888 33.8655 37.1199 34.085 37.5C34.3044 37.88 34.62 38.1956 35 38.415V30C35.0004 29.6814 35.1223 29.375 35.3411 29.1433C35.5598 28.9116 35.8587 28.7722 36.1767 28.7535C36.4948 28.7349 36.808 28.8383 37.0523 29.0428C37.2966 29.2473 37.4536 29.5374 37.4913 29.8537L37.5 30L37.5013 38.415C37.8501 38.2134 38.145 37.9304 38.3609 37.5902C38.5768 37.25 38.7073 36.8627 38.7413 36.4612L38.75 36.25V30C38.75 29.6685 38.8817 29.3505 39.1161 29.1161C39.3505 28.8817 39.6685 28.75 40 28.75Z" fill="#4D7520"/>
</svg>
