<?xml version="1.0" encoding="UTF-8" standalone="no"?><svg width="264" height="294" viewBox="0 0 264 294" fill="none" xmlns="http://www.w3.org/2000/svg">
<g filter="url(#filter0_d_127_931)">
<rect x="4" width="256" height="286" rx="20" fill="#4B4453"/>
<rect x="28" y="27" width="208" height="187" rx="20" fill="#ACFFAD"/>
<path d="M112.846 244.16C112.846 244.233 112.809 244.27 112.736 244.27H112.23C111.073 244.497 110.221 245.445 109.674 247.113C109.528 247.551 109.378 247.975 109.223 248.385L103.85 262.891C103.768 263.118 103.667 263.255 103.549 263.301C103.43 263.346 103.266 263.369 103.057 263.369H102.414C102.195 263.369 102.054 263.269 101.99 263.068L94.7852 245.609C94.4935 244.889 93.7734 244.447 92.625 244.283C92.5612 244.274 92.5065 244.27 92.4609 244.27C92.4245 244.27 92.4062 244.233 92.4062 244.16V243.832C92.4062 243.759 92.4427 243.723 92.5156 243.723H100.582C100.655 243.723 100.691 243.759 100.691 243.832V244.16C100.691 244.233 100.655 244.27 100.582 244.27H100.377C100.149 244.306 99.8848 244.342 99.584 244.379C98.4173 244.525 97.834 244.99 97.834 245.773C97.834 246.02 97.8978 246.284 98.0254 246.566L103.207 259.172C103.298 259.354 103.394 259.35 103.494 259.158L108.252 246.279C108.316 246.097 108.348 245.883 108.348 245.637C108.348 245.382 108.243 245.14 108.033 244.912C107.824 244.675 107.609 244.538 107.391 244.502C107.181 244.465 107.012 244.438 106.885 244.42C106.766 244.402 106.584 244.374 106.338 244.338C106.092 244.292 105.928 244.27 105.846 244.27C105.764 244.27 105.723 244.233 105.723 244.16V243.832C105.723 243.759 105.759 243.723 105.832 243.723H112.736C112.809 243.723 112.846 243.759 112.846 243.832V244.16ZM122.334 260.744C122.334 260.981 122.443 261.173 122.662 261.318C122.89 261.455 123.15 261.523 123.441 261.523C123.733 261.523 123.975 261.451 124.166 261.305C124.367 261.15 124.503 261.072 124.576 261.072C124.649 261.072 124.686 261.173 124.686 261.373C124.686 261.564 124.594 261.729 124.412 261.865C123.045 262.868 122.12 263.369 121.637 263.369C121.053 263.369 120.579 262.763 120.215 261.551C120.188 261.46 120.165 261.419 120.146 261.428C119.016 262.275 118.305 262.786 118.014 262.959C117.266 263.387 116.514 263.456 115.758 263.164C115.01 262.872 114.468 262.389 114.131 261.715C113.967 261.368 113.885 260.999 113.885 260.607C113.885 259.833 114.172 259.217 114.746 258.762C115.32 258.306 116.414 257.868 118.027 257.449C118.574 257.303 119.062 257.117 119.49 256.889C119.919 256.661 120.142 256.515 120.16 256.451C120.188 256.387 120.201 256.328 120.201 256.273V253.648C120.201 252.618 119.8 251.894 118.998 251.475C118.734 251.338 118.415 251.27 118.041 251.27C117.676 251.27 117.303 251.415 116.92 251.707C116.546 251.999 116.359 252.413 116.359 252.951L116.428 253.484C116.373 253.594 116.045 253.776 115.443 254.031C114.842 254.286 114.495 254.423 114.404 254.441C114.258 254.441 114.186 254.268 114.186 253.922C114.186 253.566 114.29 253.174 114.5 252.746C114.71 252.318 115.006 251.926 115.389 251.57C116.282 250.741 117.303 250.326 118.451 250.326C119.6 250.326 120.534 250.645 121.254 251.283C121.974 251.912 122.334 252.664 122.334 253.539V260.744ZM116.031 260.348C116.031 260.785 116.2 261.168 116.537 261.496C116.874 261.815 117.257 261.975 117.686 261.975C118.123 261.975 118.652 261.792 119.271 261.428C119.891 261.054 120.201 260.671 120.201 260.279V257.504C120.201 257.404 120.178 257.354 120.133 257.354C120.087 257.354 120.055 257.358 120.037 257.367L116.865 258.844C116.537 259.081 116.314 259.281 116.195 259.445C116.086 259.609 116.031 259.91 116.031 260.348ZM136.033 258.693L136.006 255.809C136.006 254.633 135.906 253.808 135.705 253.334C135.505 252.86 135.249 252.505 134.939 252.268C134.63 252.021 134.21 251.898 133.682 251.898C133.162 251.898 132.055 252.309 130.359 253.129C130.132 253.266 130.013 253.393 130.004 253.512V260.867C130.004 261.788 130.496 262.316 131.48 262.453C131.909 262.517 132.123 262.622 132.123 262.768C132.123 262.904 132.077 262.982 131.986 263H125.889C125.798 262.982 125.752 262.918 125.752 262.809C125.752 262.635 125.966 262.517 126.395 262.453C127.379 262.316 127.871 261.788 127.871 260.867V253.02C127.871 252.637 127.661 252.372 127.242 252.227C127.06 252.163 126.864 252.113 126.654 252.076C126.445 252.031 126.276 251.99 126.148 251.953C126.03 251.917 125.952 251.885 125.916 251.857C125.889 251.821 125.875 251.753 125.875 251.652C125.875 251.543 125.943 251.452 126.08 251.379L129.566 249.738C129.676 249.684 129.744 249.656 129.771 249.656C129.926 249.656 130.004 249.766 130.004 249.984V252.117C130.031 252.208 130.068 252.254 130.113 252.254C130.168 252.254 130.364 252.172 130.701 252.008C131.485 251.616 132.273 251.238 133.066 250.873C133.859 250.508 134.516 250.326 135.035 250.326C137.141 250.326 138.193 252.245 138.193 256.082L138.07 260.074V260.867C138.07 261.578 138.426 262.043 139.137 262.262C139.438 262.362 139.725 262.435 139.998 262.48C140.281 262.517 140.463 262.553 140.545 262.59C140.636 262.626 140.682 262.699 140.682 262.809C140.682 262.918 140.636 262.982 140.545 263H133.955C133.864 262.982 133.818 262.918 133.818 262.809C133.818 262.635 134.033 262.517 134.461 262.453C135.436 262.316 135.924 261.751 135.924 260.758C135.997 260.302 136.033 259.614 136.033 258.693ZM151.947 258.693L151.92 255.809C151.92 254.633 151.82 253.808 151.619 253.334C151.419 252.86 151.163 252.505 150.854 252.268C150.544 252.021 150.124 251.898 149.596 251.898C149.076 251.898 147.969 252.309 146.273 253.129C146.046 253.266 145.927 253.393 145.918 253.512V260.867C145.918 261.788 146.41 262.316 147.395 262.453C147.823 262.517 148.037 262.622 148.037 262.768C148.037 262.904 147.992 262.982 147.9 263H141.803C141.712 262.982 141.666 262.918 141.666 262.809C141.666 262.635 141.88 262.517 142.309 262.453C143.293 262.316 143.785 261.788 143.785 260.867V253.02C143.785 252.637 143.576 252.372 143.156 252.227C142.974 252.163 142.778 252.113 142.568 252.076C142.359 252.031 142.19 251.99 142.062 251.953C141.944 251.917 141.867 251.885 141.83 251.857C141.803 251.821 141.789 251.753 141.789 251.652C141.789 251.543 141.857 251.452 141.994 251.379L145.48 249.738C145.59 249.684 145.658 249.656 145.686 249.656C145.84 249.656 145.918 249.766 145.918 249.984V252.117C145.945 252.208 145.982 252.254 146.027 252.254C146.082 252.254 146.278 252.172 146.615 252.008C147.399 251.616 148.188 251.238 148.98 250.873C149.773 250.508 150.43 250.326 150.949 250.326C153.055 250.326 154.107 252.245 154.107 256.082L153.984 260.074V260.867C153.984 261.578 154.34 262.043 155.051 262.262C155.352 262.362 155.639 262.435 155.912 262.48C156.195 262.517 156.377 262.553 156.459 262.59C156.55 262.626 156.596 262.699 156.596 262.809C156.596 262.918 156.55 262.982 156.459 263H149.869C149.778 262.982 149.732 262.918 149.732 262.809C149.732 262.635 149.947 262.517 150.375 262.453C151.35 262.316 151.838 261.751 151.838 260.758C151.911 260.302 151.947 259.614 151.947 258.693ZM171.17 250.695C171.27 250.723 171.32 250.786 171.32 250.887C171.32 250.987 171.311 251.055 171.293 251.092C171.275 251.119 171.229 251.146 171.156 251.174C171.092 251.192 170.997 251.21 170.869 251.229C170.751 251.247 170.559 251.283 170.295 251.338C170.031 251.383 169.794 251.566 169.584 251.885C169.374 252.204 169.151 252.646 168.914 253.211L162.488 269.139L161.6 271.025C161.372 271.508 160.893 271.75 160.164 271.75C159.845 271.75 159.59 271.645 159.398 271.436C159.207 271.226 159.111 270.975 159.111 270.684C159.111 270.401 159.18 270.191 159.316 270.055C159.462 269.927 159.631 269.822 159.822 269.74C160.014 269.658 160.21 269.581 160.41 269.508C160.62 269.444 160.852 269.289 161.107 269.043C161.363 268.806 161.513 268.628 161.559 268.51C163.09 265.083 163.855 263.292 163.855 263.137C163.855 262.982 163.764 262.79 163.582 262.562L159.07 253.143C158.733 252.222 158.154 251.63 157.334 251.365C157.27 251.347 157.193 251.333 157.102 251.324C156.719 251.288 156.527 251.174 156.527 250.982C156.527 250.791 156.637 250.695 156.855 250.695H162.939C163.012 250.695 163.049 250.768 163.049 250.914C163.049 251.051 162.985 251.146 162.857 251.201C162.73 251.247 162.447 251.27 162.01 251.27C161.308 251.27 160.957 251.543 160.957 252.09L161.08 252.418L164.621 260.006C164.803 260.471 164.986 260.457 165.168 259.965C165.186 259.919 165.3 259.623 165.51 259.076C166.749 255.932 167.442 254.113 167.588 253.621C167.743 253.129 167.82 252.76 167.82 252.514C167.82 252.268 167.688 252.008 167.424 251.734C167.169 251.461 166.813 251.324 166.357 251.324C165.911 251.324 165.688 251.192 165.688 250.928C165.688 250.773 165.788 250.695 165.988 250.695H171.17Z" fill="#FDFDFC"/>
</g>
<defs>
<filter id="filter0_d_127_931" x="0" y="0" width="264" height="294" filterUnits="userSpaceOnUse" color-interpolation-filters="sRGB">
<feFlood flood-opacity="0" result="BackgroundImageFix"/>
<feColorMatrix in="SourceAlpha" type="matrix" values="0 0 0 0 0 0 0 0 0 0 0 0 0 0 0 0 0 0 127 0" result="hardAlpha"/>
<feOffset dy="4"/>
<feGaussianBlur stdDeviation="2"/>
<feComposite in2="hardAlpha" operator="out"/>
<feColorMatrix type="matrix" values="0 0 0 0 0.482353 0 0 0 0 0.380392 0 0 0 0 1 0 0 0 0.25 0"/>
<feBlend mode="normal" in2="BackgroundImageFix" result="effect1_dropShadow_127_931"/>
<feBlend mode="normal" in="SourceGraphic" in2="effect1_dropShadow_127_931" result="shape"/>
</filter>
</defs>
</svg>
