<?xml version="1.0" encoding="UTF-8" standalone="no"?><svg width="444" height="397" viewBox="0 0 444 397" fill="none" xmlns="http://www.w3.org/2000/svg">
<rect x="33" width="411" height="364" rx="20" fill="#ACFFAD" fill-opacity="0.4"/>
<g filter="url(#filter0_d_373_3424)">
<rect x="6.5" y="27.5" width="406" height="359" rx="17.5" stroke="#4B4453" stroke-width="5"/>
<rect x="42.5312" y="59.3636" width="333.938" height="238" rx="20" fill="#4B4453"/>
<path d="M124.064 345.001C124.064 343.907 123.436 343.36 122.178 343.36C121.977 343.36 121.877 343.324 121.877 343.251V342.923C121.877 342.85 121.913 342.814 121.986 342.814H128.836C128.909 342.814 128.945 342.85 128.945 342.923V343.251C128.945 343.324 128.745 343.36 128.344 343.36C127.943 343.36 127.574 343.488 127.236 343.743C126.899 343.998 126.73 344.523 126.73 345.316V359.903C126.73 360.997 127.364 361.544 128.631 361.544C128.822 361.544 128.918 361.581 128.918 361.653V361.982C128.918 362.054 128.882 362.091 128.809 362.091H121.959C121.886 362.091 121.85 362.054 121.85 361.982V361.653C121.85 361.581 122.05 361.544 122.451 361.544C122.852 361.544 123.221 361.416 123.559 361.161C123.896 360.906 124.064 360.382 124.064 359.589V345.001ZM137.777 352.739C137.777 352.94 137.7 353.04 137.545 353.04C137.399 353.04 137.285 352.931 137.203 352.712C136.984 352.11 136.656 351.577 136.219 351.112C135.79 350.648 135.257 350.415 134.619 350.415C133.781 350.415 133.215 350.834 132.924 351.673C132.833 351.956 132.787 352.247 132.787 352.548C132.787 352.849 132.979 353.186 133.361 353.56C133.744 353.924 134.373 354.362 135.248 354.872C136.123 355.383 136.761 355.816 137.162 356.171C138.074 356.982 138.529 357.921 138.529 358.987C138.529 360.054 138.137 360.901 137.354 361.53C136.57 362.15 135.658 362.46 134.619 362.46C134.063 362.46 133.557 362.383 133.102 362.228C132.655 362.082 132.395 362.009 132.322 362.009C132.258 362.009 132.149 362.082 131.994 362.228C131.848 362.383 131.73 362.46 131.639 362.46H131.406C131.352 362.46 131.283 361.968 131.201 360.984C131.119 359.999 131.078 359.416 131.078 359.234C131.078 359.051 131.092 358.951 131.119 358.933C131.156 358.915 131.21 358.905 131.283 358.905C131.356 358.905 131.415 358.928 131.461 358.974C131.516 359.019 131.561 359.079 131.598 359.151C131.634 359.215 131.661 359.284 131.68 359.357C131.707 359.429 131.766 359.566 131.857 359.767C132.477 361.088 133.434 361.749 134.729 361.749C135.303 361.749 135.763 361.54 136.109 361.12C136.456 360.692 136.629 360.218 136.629 359.698C136.629 359.179 136.492 358.741 136.219 358.386C135.945 358.03 135.604 357.707 135.193 357.415C134.792 357.123 134.355 356.841 133.881 356.568C132.04 355.492 131.119 354.303 131.119 352.999C131.119 352.024 131.538 351.185 132.377 350.484C133.215 349.773 134.077 349.417 134.961 349.417C135.845 349.417 136.497 349.513 136.916 349.704C137.344 349.896 137.595 350.06 137.668 350.196C137.741 350.324 137.777 350.752 137.777 351.482V352.739ZM161.457 349.786C161.557 349.814 161.607 349.877 161.607 349.978C161.607 350.078 161.594 350.151 161.566 350.196C161.539 350.242 161.339 350.292 160.965 350.347C160.591 350.401 160.322 350.511 160.158 350.675C160.003 350.83 159.862 351.008 159.734 351.208C159.616 351.409 159.511 351.618 159.42 351.837C159.329 352.047 159.242 352.238 159.16 352.411L155.428 362.064C155.318 362.328 155.218 362.46 155.127 362.46H154.047C153.956 362.46 153.855 362.319 153.746 362.036L150.711 353.819L147.525 362.064C147.416 362.328 147.316 362.46 147.225 362.46H146.145C146.053 362.46 145.953 362.319 145.844 362.036L142.221 352.234C141.883 351.313 141.305 350.72 140.484 350.456C140.421 350.438 140.343 350.424 140.252 350.415C139.869 350.379 139.678 350.265 139.678 350.073C139.678 349.882 139.787 349.786 140.006 349.786H146.09C146.163 349.786 146.199 349.859 146.199 350.005C146.199 350.142 146.149 350.233 146.049 350.278C145.885 350.342 145.602 350.37 145.201 350.36C144.536 350.342 144.203 350.616 144.203 351.181L144.23 351.509L147.006 359.097C147.188 359.562 147.37 359.548 147.553 359.056C147.571 359.01 147.949 358.053 148.688 356.185C149.435 354.316 149.913 352.999 150.123 352.234C149.786 351.313 149.207 350.72 148.387 350.456C148.323 350.438 148.245 350.424 148.154 350.415C147.771 350.379 147.58 350.265 147.58 350.073C147.58 349.882 147.689 349.786 147.908 349.786H153.992C154.065 349.786 154.102 349.859 154.102 350.005C154.102 350.142 154.051 350.233 153.951 350.278C153.787 350.342 153.505 350.37 153.104 350.36C152.438 350.342 152.105 350.616 152.105 351.181L152.133 351.509L154.908 359.097C155.09 359.562 155.273 359.548 155.455 359.056C155.473 359.01 155.592 358.714 155.811 358.167C156.932 355.36 157.592 353.628 157.793 352.972C158.003 352.306 158.107 351.851 158.107 351.605C158.107 351.359 157.975 351.103 157.711 350.839C157.447 350.566 157.091 350.429 156.645 350.429C156.198 350.429 155.975 350.292 155.975 350.019C155.975 349.864 156.075 349.786 156.275 349.786H161.457ZM171.424 359.835C171.424 360.072 171.533 360.263 171.752 360.409C171.98 360.546 172.24 360.614 172.531 360.614C172.823 360.614 173.064 360.541 173.256 360.396C173.456 360.241 173.593 360.163 173.666 360.163C173.739 360.163 173.775 360.263 173.775 360.464C173.775 360.655 173.684 360.819 173.502 360.956C172.135 361.959 171.21 362.46 170.727 362.46C170.143 362.46 169.669 361.854 169.305 360.642C169.277 360.551 169.255 360.51 169.236 360.519C168.106 361.366 167.395 361.877 167.104 362.05C166.356 362.478 165.604 362.547 164.848 362.255C164.1 361.963 163.558 361.48 163.221 360.806C163.057 360.459 162.975 360.09 162.975 359.698C162.975 358.924 163.262 358.308 163.836 357.853C164.41 357.397 165.504 356.959 167.117 356.54C167.664 356.394 168.152 356.207 168.58 355.98C169.008 355.752 169.232 355.606 169.25 355.542C169.277 355.478 169.291 355.419 169.291 355.364V352.739C169.291 351.709 168.89 350.985 168.088 350.566C167.824 350.429 167.505 350.36 167.131 350.36C166.766 350.36 166.393 350.506 166.01 350.798C165.636 351.09 165.449 351.504 165.449 352.042L165.518 352.575C165.463 352.685 165.135 352.867 164.533 353.122C163.932 353.377 163.585 353.514 163.494 353.532C163.348 353.532 163.275 353.359 163.275 353.013C163.275 352.657 163.38 352.265 163.59 351.837C163.799 351.409 164.096 351.017 164.479 350.661C165.372 349.832 166.393 349.417 167.541 349.417C168.689 349.417 169.624 349.736 170.344 350.374C171.064 351.003 171.424 351.755 171.424 352.63V359.835ZM165.121 359.439C165.121 359.876 165.29 360.259 165.627 360.587C165.964 360.906 166.347 361.066 166.775 361.066C167.213 361.066 167.742 360.883 168.361 360.519C168.981 360.145 169.291 359.762 169.291 359.37V356.595C169.291 356.495 169.268 356.444 169.223 356.444C169.177 356.444 169.145 356.449 169.127 356.458L165.955 357.935C165.627 358.172 165.404 358.372 165.285 358.536C165.176 358.7 165.121 359.001 165.121 359.439ZM183.4 352.288C183.291 352.27 183.132 352.211 182.922 352.11C182.165 351.764 181.573 351.591 181.145 351.591C180.716 351.591 180.265 351.86 179.791 352.398C179.326 352.926 179.094 353.405 179.094 353.833V360.013C179.094 360.696 179.49 361.152 180.283 361.38C180.63 361.471 180.953 361.54 181.254 361.585C181.555 361.622 181.746 361.658 181.828 361.694C181.919 361.731 181.965 361.804 181.965 361.913C181.965 362.013 181.919 362.073 181.828 362.091H174.979C174.887 362.073 174.842 362.009 174.842 361.9C174.842 361.735 175.056 361.626 175.484 361.571C176.469 361.426 176.961 360.906 176.961 360.013V352.78C176.961 352.398 176.751 352.133 176.332 351.987C176.15 351.924 175.954 351.873 175.744 351.837C175.535 351.791 175.366 351.75 175.238 351.714C175.12 351.678 175.042 351.646 175.006 351.618C174.979 351.582 174.965 351.513 174.965 351.413C174.965 351.304 175.033 351.213 175.17 351.14L178.656 349.499C178.766 349.444 178.834 349.417 178.861 349.417C179.016 349.417 179.094 349.526 179.094 349.745V351.96C179.094 352.069 179.121 352.124 179.176 352.124C179.249 352.124 179.436 351.91 179.736 351.482C180.602 350.269 181.318 349.663 181.883 349.663C182.202 349.663 182.689 349.791 183.346 350.046C184.011 350.301 184.344 350.515 184.344 350.689C184.344 350.898 184.239 351.217 184.029 351.646C183.82 352.074 183.61 352.288 183.4 352.288ZM185.314 362.091C185.223 362.073 185.178 362.009 185.178 361.9C185.178 361.735 185.392 361.626 185.82 361.571C186.805 361.426 187.297 360.906 187.297 360.013V352.78C187.297 352.398 187.087 352.133 186.668 351.987C186.486 351.924 186.29 351.873 186.08 351.837C185.87 351.791 185.702 351.75 185.574 351.714C185.456 351.678 185.378 351.646 185.342 351.618C185.314 351.582 185.301 351.513 185.301 351.413C185.301 351.304 185.369 351.213 185.506 351.14L188.992 349.499C189.102 349.444 189.17 349.417 189.197 349.417C189.352 349.417 189.43 349.526 189.43 349.745V360.013C189.43 360.906 189.922 361.426 190.906 361.571C191.335 361.626 191.549 361.722 191.549 361.859C191.549 361.995 191.503 362.073 191.412 362.091H185.314ZM188.158 345.575C187.785 345.575 187.452 345.457 187.16 345.22C186.878 344.983 186.736 344.655 186.736 344.235C186.736 343.807 186.873 343.47 187.146 343.224C187.42 342.978 187.743 342.855 188.117 342.855C188.5 342.855 188.819 343 189.074 343.292C189.339 343.584 189.471 343.898 189.471 344.235C189.471 344.573 189.348 344.883 189.102 345.165C188.855 345.439 188.541 345.575 188.158 345.575ZM206.943 362.091C206.633 362.091 206.479 362 206.479 361.818V361.681C206.479 361.535 206.611 361.448 206.875 361.421C207.148 361.385 207.326 361.362 207.408 361.353C208.101 361.28 208.589 361.111 208.871 360.847C209.154 360.573 209.295 360.168 209.295 359.63V355.105C209.295 355.041 209.281 354.972 209.254 354.9L203.662 345.985C202.787 344.591 201.921 343.789 201.064 343.579C201.019 343.57 200.937 343.552 200.818 343.525C200.7 343.497 200.436 343.452 200.025 343.388C199.88 343.36 199.807 343.26 199.807 343.087C199.807 342.905 199.875 342.814 200.012 342.814H207.832C207.987 342.814 208.064 342.905 208.064 343.087C208.064 343.269 207.987 343.36 207.832 343.36C207.221 343.424 206.816 343.488 206.615 343.552C206.16 343.716 205.932 344.008 205.932 344.427C205.932 344.646 205.986 344.842 206.096 345.015L210.717 352.398C210.817 352.543 210.876 352.639 210.895 352.685C210.922 352.721 210.972 352.739 211.045 352.739C211.127 352.739 211.25 352.607 211.414 352.343L215.105 346.068C215.215 345.849 215.338 345.616 215.475 345.37C215.62 345.115 215.693 344.855 215.693 344.591C215.693 343.926 215.238 343.534 214.326 343.415C213.998 343.37 213.82 343.319 213.793 343.265C213.766 343.21 213.752 343.142 213.752 343.06C213.752 342.896 213.829 342.814 213.984 342.814H220.369C220.497 342.814 220.561 342.877 220.561 343.005C220.561 343.133 220.538 343.219 220.492 343.265C220.456 343.31 220.401 343.347 220.328 343.374C220.264 343.392 220.191 343.411 220.109 343.429C220.027 343.438 219.85 343.474 219.576 343.538C218.938 343.693 218.245 344.199 217.498 345.056C217.416 345.156 217.37 345.215 217.361 345.234L211.961 354.53V359.63C211.961 360.122 212.098 360.51 212.371 360.792C212.654 361.075 213.123 361.262 213.779 361.353C214.445 361.435 214.777 361.54 214.777 361.667V361.818C214.777 362 214.622 362.091 214.312 362.091H206.943ZM221.668 355.952C221.668 354.157 222.301 352.616 223.568 351.331C224.844 350.037 226.371 349.39 228.148 349.39C229.926 349.39 231.471 350.019 232.783 351.276C234.096 352.525 234.752 354.07 234.752 355.911C234.752 357.752 234.128 359.306 232.879 360.573C231.639 361.831 230.081 362.46 228.203 362.46C226.326 362.46 224.767 361.822 223.527 360.546C222.288 359.27 221.668 357.739 221.668 355.952ZM225.072 359.466C225.965 360.97 227.182 361.722 228.723 361.722C229.917 361.722 230.828 361.243 231.457 360.286C232.095 359.329 232.414 358.153 232.414 356.759C232.414 355.364 231.967 353.933 231.074 352.466C230.19 350.998 228.996 350.265 227.492 350.265C226.389 350.265 225.519 350.743 224.881 351.7C224.252 352.648 223.938 353.856 223.938 355.323C223.938 356.782 224.316 358.163 225.072 359.466ZM257.68 349.786C257.78 349.814 257.83 349.877 257.83 349.978C257.83 350.078 257.816 350.151 257.789 350.196C257.762 350.242 257.561 350.292 257.188 350.347C256.814 350.401 256.545 350.511 256.381 350.675C256.226 350.83 256.085 351.008 255.957 351.208C255.839 351.409 255.734 351.618 255.643 351.837C255.551 352.047 255.465 352.238 255.383 352.411L251.65 362.064C251.541 362.328 251.441 362.46 251.35 362.46H250.27C250.178 362.46 250.078 362.319 249.969 362.036L246.934 353.819L243.748 362.064C243.639 362.328 243.538 362.46 243.447 362.46H242.367C242.276 362.46 242.176 362.319 242.066 362.036L238.443 352.234C238.106 351.313 237.527 350.72 236.707 350.456C236.643 350.438 236.566 350.424 236.475 350.415C236.092 350.379 235.9 350.265 235.9 350.073C235.9 349.882 236.01 349.786 236.229 349.786H242.312C242.385 349.786 242.422 349.859 242.422 350.005C242.422 350.142 242.372 350.233 242.271 350.278C242.107 350.342 241.825 350.37 241.424 350.36C240.758 350.342 240.426 350.616 240.426 351.181L240.453 351.509L243.229 359.097C243.411 359.562 243.593 359.548 243.775 359.056C243.794 359.01 244.172 358.053 244.91 356.185C245.658 354.316 246.136 352.999 246.346 352.234C246.008 351.313 245.43 350.72 244.609 350.456C244.546 350.438 244.468 350.424 244.377 350.415C243.994 350.379 243.803 350.265 243.803 350.073C243.803 349.882 243.912 349.786 244.131 349.786H250.215C250.288 349.786 250.324 349.859 250.324 350.005C250.324 350.142 250.274 350.233 250.174 350.278C250.01 350.342 249.727 350.37 249.326 350.36C248.661 350.342 248.328 350.616 248.328 351.181L248.355 351.509L251.131 359.097C251.313 359.562 251.495 359.548 251.678 359.056C251.696 359.01 251.814 358.714 252.033 358.167C253.154 355.36 253.815 353.628 254.016 352.972C254.225 352.306 254.33 351.851 254.33 351.605C254.33 351.359 254.198 351.103 253.934 350.839C253.669 350.566 253.314 350.429 252.867 350.429C252.421 350.429 252.197 350.292 252.197 350.019C252.197 349.864 252.298 349.786 252.498 349.786H257.68ZM267.646 359.835C267.646 360.072 267.756 360.263 267.975 360.409C268.202 360.546 268.462 360.614 268.754 360.614C269.046 360.614 269.287 360.541 269.479 360.396C269.679 360.241 269.816 360.163 269.889 360.163C269.962 360.163 269.998 360.263 269.998 360.464C269.998 360.655 269.907 360.819 269.725 360.956C268.357 361.959 267.432 362.46 266.949 362.46C266.366 362.46 265.892 361.854 265.527 360.642C265.5 360.551 265.477 360.51 265.459 360.519C264.329 361.366 263.618 361.877 263.326 362.05C262.579 362.478 261.827 362.547 261.07 362.255C260.323 361.963 259.781 361.48 259.443 360.806C259.279 360.459 259.197 360.09 259.197 359.698C259.197 358.924 259.484 358.308 260.059 357.853C260.633 357.397 261.727 356.959 263.34 356.54C263.887 356.394 264.374 356.207 264.803 355.98C265.231 355.752 265.454 355.606 265.473 355.542C265.5 355.478 265.514 355.419 265.514 355.364V352.739C265.514 351.709 265.113 350.985 264.311 350.566C264.046 350.429 263.727 350.36 263.354 350.36C262.989 350.36 262.615 350.506 262.232 350.798C261.859 351.09 261.672 351.504 261.672 352.042L261.74 352.575C261.686 352.685 261.357 352.867 260.756 353.122C260.154 353.377 259.808 353.514 259.717 353.532C259.571 353.532 259.498 353.359 259.498 353.013C259.498 352.657 259.603 352.265 259.812 351.837C260.022 351.409 260.318 351.017 260.701 350.661C261.594 349.832 262.615 349.417 263.764 349.417C264.912 349.417 265.846 349.736 266.566 350.374C267.286 351.003 267.646 351.755 267.646 352.63V359.835ZM261.344 359.439C261.344 359.876 261.512 360.259 261.85 360.587C262.187 360.906 262.57 361.066 262.998 361.066C263.436 361.066 263.964 360.883 264.584 360.519C265.204 360.145 265.514 359.762 265.514 359.37V356.595C265.514 356.495 265.491 356.444 265.445 356.444C265.4 356.444 265.368 356.449 265.35 356.458L262.178 357.935C261.85 358.172 261.626 358.372 261.508 358.536C261.398 358.7 261.344 359.001 261.344 359.439ZM281.346 357.784L281.318 354.9C281.318 353.724 281.218 352.899 281.018 352.425C280.817 351.951 280.562 351.595 280.252 351.359C279.942 351.112 279.523 350.989 278.994 350.989C278.475 350.989 277.367 351.4 275.672 352.22C275.444 352.357 275.326 352.484 275.316 352.603V359.958C275.316 360.879 275.809 361.407 276.793 361.544C277.221 361.608 277.436 361.713 277.436 361.859C277.436 361.995 277.39 362.073 277.299 362.091H271.201C271.11 362.073 271.064 362.009 271.064 361.9C271.064 361.726 271.279 361.608 271.707 361.544C272.691 361.407 273.184 360.879 273.184 359.958V352.11C273.184 351.728 272.974 351.463 272.555 351.318C272.372 351.254 272.176 351.204 271.967 351.167C271.757 351.122 271.589 351.081 271.461 351.044C271.342 351.008 271.265 350.976 271.229 350.948C271.201 350.912 271.188 350.844 271.188 350.743C271.188 350.634 271.256 350.543 271.393 350.47L274.879 348.829C274.988 348.775 275.057 348.747 275.084 348.747C275.239 348.747 275.316 348.857 275.316 349.075V351.208C275.344 351.299 275.38 351.345 275.426 351.345C275.48 351.345 275.676 351.263 276.014 351.099C276.798 350.707 277.586 350.329 278.379 349.964C279.172 349.599 279.828 349.417 280.348 349.417C282.453 349.417 283.506 351.336 283.506 355.173L283.383 359.165V359.958C283.383 360.669 283.738 361.134 284.449 361.353C284.75 361.453 285.037 361.526 285.311 361.571C285.593 361.608 285.775 361.644 285.857 361.681C285.949 361.717 285.994 361.79 285.994 361.9C285.994 362.009 285.949 362.073 285.857 362.091H279.268C279.176 362.073 279.131 362.009 279.131 361.9C279.131 361.726 279.345 361.608 279.773 361.544C280.749 361.407 281.236 360.842 281.236 359.849C281.309 359.393 281.346 358.705 281.346 357.784ZM295.674 359.835C295.674 360.072 295.783 360.263 296.002 360.409C296.23 360.546 296.49 360.614 296.781 360.614C297.073 360.614 297.314 360.541 297.506 360.396C297.706 360.241 297.843 360.163 297.916 360.163C297.989 360.163 298.025 360.263 298.025 360.464C298.025 360.655 297.934 360.819 297.752 360.956C296.385 361.959 295.46 362.46 294.977 362.46C294.393 362.46 293.919 361.854 293.555 360.642C293.527 360.551 293.505 360.51 293.486 360.519C292.356 361.366 291.645 361.877 291.354 362.05C290.606 362.478 289.854 362.547 289.098 362.255C288.35 361.963 287.808 361.48 287.471 360.806C287.307 360.459 287.225 360.09 287.225 359.698C287.225 358.924 287.512 358.308 288.086 357.853C288.66 357.397 289.754 356.959 291.367 356.54C291.914 356.394 292.402 356.207 292.83 355.98C293.258 355.752 293.482 355.606 293.5 355.542C293.527 355.478 293.541 355.419 293.541 355.364V352.739C293.541 351.709 293.14 350.985 292.338 350.566C292.074 350.429 291.755 350.36 291.381 350.36C291.016 350.36 290.643 350.506 290.26 350.798C289.886 351.09 289.699 351.504 289.699 352.042L289.768 352.575C289.713 352.685 289.385 352.867 288.783 353.122C288.182 353.377 287.835 353.514 287.744 353.532C287.598 353.532 287.525 353.359 287.525 353.013C287.525 352.657 287.63 352.265 287.84 351.837C288.049 351.409 288.346 351.017 288.729 350.661C289.622 349.832 290.643 349.417 291.791 349.417C292.939 349.417 293.874 349.736 294.594 350.374C295.314 351.003 295.674 351.755 295.674 352.63V359.835ZM289.371 359.439C289.371 359.876 289.54 360.259 289.877 360.587C290.214 360.906 290.597 361.066 291.025 361.066C291.463 361.066 291.992 360.883 292.611 360.519C293.231 360.145 293.541 359.762 293.541 359.37V356.595C293.541 356.495 293.518 356.444 293.473 356.444C293.427 356.444 293.395 356.449 293.377 356.458L290.205 357.935C289.877 358.172 289.654 358.372 289.535 358.536C289.426 358.7 289.371 359.001 289.371 359.439Z" fill="#4B4453"/>
</g>
<defs>
<filter id="filter0_d_373_3424" x="0" y="25" width="419" height="372" filterUnits="userSpaceOnUse" color-interpolation-filters="sRGB">
<feFlood flood-opacity="0" result="BackgroundImageFix"/>
<feColorMatrix in="SourceAlpha" type="matrix" values="0 0 0 0 0 0 0 0 0 0 0 0 0 0 0 0 0 0 127 0" result="hardAlpha"/>
<feOffset dy="4"/>
<feGaussianBlur stdDeviation="2"/>
<feComposite in2="hardAlpha" operator="out"/>
<feColorMatrix type="matrix" values="0 0 0 0 0.482353 0 0 0 0 0.380392 0 0 0 0 1 0 0 0 0.25 0"/>
<feBlend mode="normal" in2="BackgroundImageFix" result="effect1_dropShadow_373_3424"/>
<feBlend mode="normal" in="SourceGraphic" in2="effect1_dropShadow_373_3424" result="shape"/>
</filter>
</defs>
</svg>
