<?xml version="1.0" encoding="UTF-8" standalone="no"?><svg width="457" height="256" viewBox="0 0 457 256" fill="none" xmlns="http://www.w3.org/2000/svg">
<g filter="url(#filter0_d_481_3336)">
<rect x="4" width="449" height="248" rx="20" fill="#2D4710"/>
</g>
<path d="M58 114.667C58 112.899 58.7024 111.203 59.9526 109.953C61.2029 108.702 62.8986 108 64.6667 108H118C119.768 108 121.464 108.702 122.714 109.953C123.964 111.203 124.667 112.899 124.667 114.667V148C124.667 149.768 123.964 151.464 122.714 152.714C121.464 153.964 119.768 154.667 118 154.667H64.6667C62.8986 154.667 61.2029 153.964 59.9526 152.714C58.7024 151.464 58 149.768 58 148V114.667Z" stroke="#FDFDFC" stroke-opacity="0.8" stroke-width="4" stroke-linecap="round" stroke-linejoin="round"/>
<path d="M91.333 141.333C96.8559 141.333 101.333 136.856 101.333 131.333C101.333 125.811 96.8559 121.333 91.333 121.333C85.8102 121.333 81.333 125.811 81.333 131.333C81.333 136.856 85.8102 141.333 91.333 141.333Z" stroke="#FDFDFC" stroke-opacity="0.8" stroke-width="4" stroke-linecap="round" stroke-linejoin="round"/>
<path d="M58 121.333C61.5362 121.333 64.9276 119.929 67.4281 117.428C69.9286 114.928 71.3333 111.536 71.3333 108" stroke="#FDFDFC" stroke-opacity="0.8" stroke-width="4" stroke-linecap="round" stroke-linejoin="round"/>
<path d="M111.333 154.667C111.333 151.131 112.738 147.739 115.238 145.239C117.739 142.738 121.13 141.333 124.666 141.333" stroke="#FDFDFC" stroke-opacity="0.8" stroke-width="4" stroke-linecap="round" stroke-linejoin="round"/>
<path d="M57.512 71.56H61.736C63.832 71.56 65.312 72.04 66.176 73C67.056 73.96 67.496 75.456 67.496 77.488V84.64C67.496 86.784 67.064 88.384 66.2 89.44C65.352 90.48 63.936 91 61.952 91H57.512V71.56ZM61.76 89.056C62.704 89.056 63.384 88.872 63.8 88.504C64.232 88.136 64.496 87.64 64.592 87.016C64.704 86.376 64.76 85.416 64.76 84.136V77.824C64.76 76.72 64.688 75.88 64.544 75.304C64.416 74.712 64.136 74.28 63.704 74.008C63.272 73.72 62.6 73.576 61.688 73.576H60.224V89.056H61.76ZM73.7683 91.192C72.2963 91.192 71.2483 90.76 70.6243 89.896C70.0163 89.016 69.7123 87.744 69.7123 86.08V82.048C69.7123 80.384 70.0163 79.12 70.6243 78.256C71.2483 77.376 72.2963 76.936 73.7683 76.936C75.2243 76.936 76.2563 77.376 76.8643 78.256C77.4883 79.12 77.8003 80.384 77.8003 82.048V86.08C77.8003 87.744 77.4883 89.016 76.8643 89.896C76.2563 90.76 75.2243 91.192 73.7683 91.192ZM73.7683 89.296C74.2323 89.296 74.5683 89.16 74.7763 88.888C74.9843 88.616 75.1123 88.28 75.1603 87.88C75.2083 87.48 75.2323 86.936 75.2323 86.248V81.904C75.2323 81.216 75.2083 80.672 75.1603 80.272C75.1123 79.856 74.9843 79.512 74.7763 79.24C74.5683 78.968 74.2323 78.832 73.7683 78.832C73.3043 78.832 72.9603 78.968 72.7363 79.24C72.5283 79.512 72.4003 79.856 72.3523 80.272C72.3043 80.672 72.2803 81.216 72.2803 81.904V86.248C72.2803 86.936 72.3043 87.48 72.3523 87.88C72.4003 88.28 72.5283 88.616 72.7363 88.888C72.9603 89.16 73.3043 89.296 73.7683 89.296ZM80.1476 77.128H82.7156V78.496C83.8196 77.456 84.9476 76.936 86.0996 76.936C86.8516 76.936 87.3876 77.208 87.7076 77.752C88.0276 78.296 88.1876 78.968 88.1876 79.768V91H85.6196V80.512C85.6196 79.984 85.5396 79.592 85.3796 79.336C85.2196 79.08 84.9316 78.952 84.5156 78.952C84.0036 78.952 83.4036 79.24 82.7156 79.816V91H80.1476V77.128ZM93.1904 91.192C92.6624 91.192 92.1824 91.04 91.7504 90.736C91.3344 90.432 91.0064 90.032 90.7664 89.536C90.5264 89.04 90.4064 88.52 90.4064 87.976C90.4064 86.888 90.6384 86.008 91.1024 85.336C91.5664 84.648 92.1584 84.104 92.8784 83.704C93.5984 83.304 94.5984 82.848 95.8784 82.336V81.352C95.8784 80.44 95.7824 79.8 95.5904 79.432C95.4144 79.048 95.0464 78.856 94.4864 78.856C93.5104 78.856 93.0224 79.512 93.0224 80.824V81.52L90.4784 81.424C90.5104 79.888 90.8624 78.76 91.5344 78.04C92.2064 77.304 93.2464 76.936 94.6544 76.936C95.9824 76.936 96.9424 77.304 97.5344 78.04C98.1424 78.76 98.4464 79.856 98.4464 81.328V87.664C98.4464 88.704 98.5264 89.816 98.6864 91H96.3344C96.1584 90.088 96.0464 89.408 95.9984 88.96C95.8064 89.584 95.4704 90.112 94.9904 90.544C94.5264 90.976 93.9264 91.192 93.1904 91.192ZM94.1984 88.984C94.5344 88.984 94.8624 88.856 95.1824 88.6C95.5024 88.328 95.7344 88.072 95.8784 87.832V83.896C95.1904 84.28 94.6544 84.616 94.2704 84.904C93.9024 85.176 93.5904 85.496 93.3344 85.864C93.0944 86.232 92.9744 86.672 92.9744 87.184C92.9744 87.76 93.0784 88.208 93.2864 88.528C93.4944 88.832 93.7984 88.984 94.1984 88.984ZM104.129 91.192C103.009 91.192 102.097 90.84 101.393 90.136C100.705 89.432 100.313 88.488 100.217 87.304L102.353 86.656C102.481 87.552 102.697 88.216 103.001 88.648C103.321 89.08 103.769 89.296 104.345 89.296C104.793 89.296 105.137 89.168 105.377 88.912C105.633 88.64 105.761 88.28 105.761 87.832C105.761 87.432 105.673 87.072 105.497 86.752C105.321 86.432 105.033 86.104 104.633 85.768L102.257 83.728C101.713 83.264 101.289 82.776 100.985 82.264C100.697 81.736 100.553 81.096 100.553 80.344C100.553 79.272 100.873 78.44 101.513 77.848C102.153 77.24 103.025 76.936 104.129 76.936C105.185 76.936 106.009 77.28 106.601 77.968C107.209 78.64 107.561 79.512 107.657 80.584L105.929 81.232C105.817 80.448 105.633 79.856 105.377 79.456C105.121 79.04 104.737 78.832 104.225 78.832C103.809 78.832 103.473 78.968 103.217 79.24C102.977 79.512 102.857 79.848 102.857 80.248C102.857 80.76 103.089 81.224 103.553 81.64L106.001 83.896C106.625 84.472 107.105 85.04 107.441 85.6C107.793 86.16 107.969 86.84 107.969 87.64C107.969 88.792 107.625 89.672 106.937 90.28C106.249 90.888 105.313 91.192 104.129 91.192ZM110.058 72.376H112.626V75.064H110.058V72.376ZM110.058 77.128H112.626V91H110.058V77.128ZM126.091 91.216C124.731 91.216 123.667 90.944 122.899 90.4C122.147 89.856 121.627 89.096 121.339 88.12C121.051 87.144 120.907 85.92 120.907 84.448V71.56H123.499V84.568C123.499 86.04 123.667 87.16 124.003 87.928C124.355 88.696 125.051 89.08 126.091 89.08C127.131 89.08 127.819 88.696 128.155 87.928C128.507 87.16 128.683 86.04 128.683 84.568V71.56H131.251V84.448C131.251 85.92 131.107 87.144 130.819 88.12C130.531 89.096 130.011 89.856 129.259 90.4C128.507 90.944 127.451 91.216 126.091 91.216ZM136.386 91.192C135.858 91.192 135.378 91.04 134.946 90.736C134.53 90.432 134.202 90.032 133.962 89.536C133.722 89.04 133.602 88.52 133.602 87.976C133.602 86.888 133.834 86.008 134.298 85.336C134.762 84.648 135.354 84.104 136.074 83.704C136.794 83.304 137.794 82.848 139.074 82.336V81.352C139.074 80.44 138.978 79.8 138.786 79.432C138.61 79.048 138.242 78.856 137.682 78.856C136.706 78.856 136.218 79.512 136.218 80.824V81.52L133.674 81.424C133.706 79.888 134.058 78.76 134.73 78.04C135.402 77.304 136.442 76.936 137.85 76.936C139.178 76.936 140.138 77.304 140.73 78.04C141.338 78.76 141.642 79.856 141.642 81.328V87.664C141.642 88.704 141.722 89.816 141.882 91H139.53C139.354 90.088 139.242 89.408 139.194 88.96C139.002 89.584 138.666 90.112 138.186 90.544C137.722 90.976 137.122 91.192 136.386 91.192ZM137.394 88.984C137.73 88.984 138.058 88.856 138.378 88.6C138.698 88.328 138.93 88.072 139.074 87.832V83.896C138.386 84.28 137.85 84.616 137.466 84.904C137.098 85.176 136.786 85.496 136.53 85.864C136.29 86.232 136.17 86.672 136.17 87.184C136.17 87.76 136.274 88.208 136.482 88.528C136.69 88.832 136.994 88.984 137.394 88.984ZM144.109 77.128H146.677V78.496C147.781 77.456 148.909 76.936 150.061 76.936C150.813 76.936 151.349 77.208 151.669 77.752C151.989 78.296 152.149 78.968 152.149 79.768V91H149.581V80.512C149.581 79.984 149.501 79.592 149.341 79.336C149.181 79.08 148.893 78.952 148.477 78.952C147.965 78.952 147.365 79.24 146.677 79.816V91H144.109V77.128ZM158.255 95.296C156.911 95.296 155.839 95.08 155.039 94.648C154.239 94.232 153.839 93.576 153.839 92.68C153.839 92.072 154.023 91.544 154.391 91.096C154.775 90.648 155.255 90.288 155.831 90.016C155.399 89.888 155.063 89.688 154.823 89.416C154.599 89.144 154.487 88.848 154.487 88.528C154.487 88.048 154.607 87.632 154.847 87.28C155.087 86.928 155.479 86.504 156.023 86.008C155.479 85.592 155.071 85.072 154.799 84.448C154.543 83.808 154.415 82.952 154.415 81.88C154.415 80.264 154.743 79.04 155.399 78.208C156.071 77.36 157.047 76.936 158.327 76.936C159.063 76.936 159.663 77.064 160.127 77.32C160.591 77.576 160.943 77.96 161.183 78.472C161.295 78.296 161.527 78.064 161.879 77.776C162.247 77.472 162.639 77.224 163.055 77.032L163.439 76.864L164.087 78.52C163.767 78.584 163.319 78.72 162.743 78.928C162.183 79.136 161.847 79.296 161.735 79.408C161.847 79.696 161.943 80.096 162.023 80.608C162.119 81.12 162.167 81.568 162.167 81.952C162.167 83.472 161.871 84.656 161.279 85.504C160.687 86.336 159.703 86.752 158.327 86.752C157.895 86.752 157.455 86.696 157.007 86.584C156.703 87.032 156.551 87.384 156.551 87.64C156.551 87.816 156.639 87.96 156.815 88.072C157.007 88.168 157.303 88.232 157.703 88.264L159.863 88.456C160.951 88.552 161.759 88.88 162.287 89.44C162.815 90 163.079 90.8 163.079 91.84C163.079 94.144 161.471 95.296 158.255 95.296ZM158.327 84.952C159.015 84.952 159.463 84.712 159.671 84.232C159.879 83.752 159.983 82.968 159.983 81.88C159.983 80.776 159.879 79.976 159.671 79.48C159.463 78.968 159.023 78.712 158.351 78.712C157.679 78.712 157.223 78.968 156.983 79.48C156.759 79.976 156.647 80.776 156.647 81.88C156.647 82.872 156.759 83.632 156.983 84.16C157.223 84.688 157.671 84.952 158.327 84.952ZM158.447 93.28C159.359 93.28 160.031 93.168 160.463 92.944C160.895 92.736 161.111 92.392 161.111 91.912C161.111 91.464 160.975 91.136 160.703 90.928C160.431 90.704 159.935 90.56 159.215 90.496L157.031 90.304C156.695 90.64 156.439 90.936 156.263 91.192C156.087 91.448 155.999 91.728 155.999 92.032C155.999 92.464 156.175 92.776 156.527 92.968C156.895 93.176 157.535 93.28 158.447 93.28ZM172.921 73.576H169.633V71.56H178.825V73.576H175.633V91H172.921V73.576ZM184.042 91.192C182.97 91.192 182.138 90.992 181.546 90.592C180.954 90.176 180.538 89.568 180.298 88.768C180.058 87.968 179.938 86.928 179.938 85.648V82.48C179.938 80.56 180.234 79.16 180.826 78.28C181.434 77.384 182.506 76.936 184.042 76.936C185.162 76.936 186.002 77.168 186.562 77.632C187.138 78.096 187.514 78.752 187.69 79.6C187.882 80.432 187.978 81.56 187.978 82.984V84.112H182.506V86.896C182.506 87.744 182.626 88.36 182.866 88.744C183.122 89.112 183.522 89.296 184.066 89.296C184.61 89.296 184.978 89.112 185.17 88.744C185.362 88.36 185.458 87.784 185.458 87.016V86.176H187.954V86.704C187.954 88.16 187.642 89.272 187.018 90.04C186.394 90.808 185.402 91.192 184.042 91.192ZM185.458 82.72V81.472C185.458 80.528 185.362 79.856 185.17 79.456C184.994 79.04 184.61 78.832 184.018 78.832C183.602 78.832 183.282 78.928 183.058 79.12C182.85 79.312 182.706 79.632 182.626 80.08C182.546 80.512 182.506 81.144 182.506 81.976V82.72H185.458ZM190.376 77.128H192.944V79.096C193.424 78.312 193.912 77.76 194.408 77.44C194.92 77.12 195.456 76.96 196.016 76.96C196.16 76.96 196.296 76.968 196.424 76.984V79.816C195.912 79.624 195.44 79.528 195.008 79.528C194.592 79.528 194.216 79.632 193.88 79.84C193.56 80.032 193.248 80.376 192.944 80.872V91H190.376V77.128ZM198.063 71.536H200.631V83.128L204.375 77.128H207.063L203.799 82.552L206.967 91H204.399L201.807 83.896L200.631 85.672V90.976H198.063V71.536ZM210.296 91.192C209.544 91.192 209.008 90.92 208.688 90.376C208.368 89.832 208.208 89.16 208.208 88.36V77.128H210.776V87.592C210.776 88.12 210.856 88.52 211.016 88.792C211.176 89.048 211.464 89.176 211.88 89.176C212.392 89.176 212.992 88.888 213.68 88.312V77.128H216.248V91H213.68V89.632C212.576 90.672 211.448 91.192 210.296 91.192ZM218.874 77.128H221.25V78.448C221.714 77.936 222.218 77.552 222.762 77.296C223.322 77.024 223.906 76.888 224.514 76.888C225.698 76.888 226.45 77.472 226.77 78.64C227.73 77.472 228.882 76.888 230.226 76.888C230.946 76.888 231.53 77.152 231.978 77.68C232.442 78.208 232.674 79.016 232.674 80.104V91H230.322V80.272C230.322 79.632 230.218 79.192 230.01 78.952C229.802 78.696 229.506 78.568 229.122 78.568C228.77 78.568 228.402 78.672 228.018 78.88C227.634 79.072 227.282 79.344 226.962 79.696V80.104V91H224.61V80.272C224.61 79.632 224.506 79.192 224.298 78.952C224.09 78.696 223.794 78.568 223.41 78.568C223.074 78.568 222.714 78.672 222.33 78.88C221.946 79.072 221.586 79.344 221.25 79.696V91H218.874V77.128ZM235.187 77.128H237.755V78.232C238.507 77.368 239.387 76.936 240.395 76.936C241.659 76.936 242.499 77.48 242.915 78.568C243.347 79.64 243.563 80.832 243.563 82.144V85.504C243.563 87.2 243.299 88.576 242.771 89.632C242.259 90.672 241.371 91.192 240.107 91.192C239.291 91.192 238.507 90.784 237.755 89.968V95.56H235.187V77.128ZM239.603 89.176C240.195 89.176 240.571 88.88 240.731 88.288C240.907 87.68 240.995 86.752 240.995 85.504V82.144C240.995 81.12 240.899 80.336 240.707 79.792C240.515 79.232 240.115 78.952 239.507 78.952C238.915 78.952 238.331 79.192 237.755 79.672V88.552C238.315 88.968 238.931 89.176 239.603 89.176ZM247.89 91.192C247.138 91.192 246.602 90.92 246.282 90.376C245.962 89.832 245.802 89.16 245.802 88.36V77.128H248.37V87.592C248.37 88.12 248.45 88.52 248.61 88.792C248.77 89.048 249.058 89.176 249.474 89.176C249.986 89.176 250.586 88.888 251.274 88.312V77.128H253.842V91H251.274V89.632C250.17 90.672 249.042 91.192 247.89 91.192ZM256.708 71.56H259.276V91H256.708V71.56Z" fill="#FAFFFA"/>
<defs>
<filter id="filter0_d_481_3336" x="0" y="0" width="457" height="256" filterUnits="userSpaceOnUse" color-interpolation-filters="sRGB">
<feFlood flood-opacity="0" result="BackgroundImageFix"/>
<feColorMatrix in="SourceAlpha" type="matrix" values="0 0 0 0 0 0 0 0 0 0 0 0 0 0 0 0 0 0 127 0" result="hardAlpha"/>
<feOffset dy="4"/>
<feGaussianBlur stdDeviation="2"/>
<feComposite in2="hardAlpha" operator="out"/>
<feColorMatrix type="matrix" values="0 0 0 0 0.482353 0 0 0 0 0.380392 0 0 0 0 1 0 0 0 0.25 0"/>
<feBlend mode="normal" in2="BackgroundImageFix" result="effect1_dropShadow_481_3336"/>
<feBlend mode="normal" in="SourceGraphic" in2="effect1_dropShadow_481_3336" result="shape"/>
</filter>
</defs>
</svg>
