<?xml version="1.0" encoding="UTF-8" standalone="no"?><svg width="80" height="80" viewBox="0 0 80 80" fill="none" xmlns="http://www.w3.org/2000/svg">
<circle cx="40" cy="40" r="40" fill="#ACFFAD" fill-opacity="0.2"/>
<path d="M49.9225 37.9999H51.25C51.913 37.9999 52.5489 38.2633 53.0178 38.7321C53.4866 39.2009 53.75 39.8368 53.75 40.4999V45.4999C53.75 46.1629 53.4866 46.7988 53.0178 47.2676C52.5489 47.7365 51.913 47.9999 51.25 47.9999H49.9225C49.6178 50.4165 48.4416 52.6389 46.6147 54.2499C44.7878 55.8609 42.4358 56.7498 40 56.7499V54.2499C41.9891 54.2499 43.8968 53.4597 45.3033 52.0532C46.7098 50.6467 47.5 48.739 47.5 46.7499V39.2499C47.5 37.2608 46.7098 35.3531 45.3033 33.9466C43.8968 32.5401 41.9891 31.7499 40 31.7499C38.0109 31.7499 36.1032 32.5401 34.6967 33.9466C33.2902 35.3531 32.5 37.2608 32.5 39.2499V47.9999H28.75C28.087 47.9999 27.4511 47.7365 26.9822 47.2676C26.5134 46.7988 26.25 46.1629 26.25 45.4999V40.4999C26.25 39.8368 26.5134 39.2009 26.9822 38.7321C27.4511 38.2633 28.087 37.9999 28.75 37.9999H30.0775C30.3825 35.5835 31.5588 33.3615 33.3857 31.7507C35.2126 30.14 37.5644 29.2512 40 29.2512C42.4356 29.2512 44.7874 30.14 46.6143 31.7507C48.4411 33.3615 49.6175 35.5835 49.9225 37.9999ZM28.75 40.4999V45.4999H30V40.4999H28.75ZM50 40.4999V45.4999H51.25V40.4999H50ZM34.7 47.7311L36.025 45.6111C37.2163 46.3574 38.5942 46.7521 40 46.7499C41.4058 46.7521 42.7837 46.3574 43.975 45.6111L45.3 47.7311C43.7116 48.7263 41.8744 49.2528 40 49.2499C38.1256 49.2528 36.2884 48.7263 34.7 47.7311Z" fill="#2D4710"/>
</svg>
