<?xml version="1.0" encoding="UTF-8" standalone="no"?><svg width="610" height="741" viewBox="0 0 610 741" fill="none" xmlns="http://www.w3.org/2000/svg">
<g clip-path="url(#clip0_481_3338)">
<path fill-rule="evenodd" clip-rule="evenodd" d="M478.087 431.931C478.24 437.409 484.152 441.57 488.936 444.016C495.981 447.618 503.749 449.482 511.094 450.323C524.125 451.815 541.466 450.295 541.54 435.404C541.606 422.143 532.628 406.132 523.006 395.074C520.032 391.657 515.532 386.648 510.887 386.92C504.021 387.324 499.295 394.297 496.078 399.084C493.958 402.235 492.695 405.939 489.77 408.35C482.973 413.95 477.815 422.223 478.087 431.931Z" fill="#4D7520"/>
<path fill-rule="evenodd" clip-rule="evenodd" d="M635.249 334.797C639.799 349.489 632.277 361.53 624.111 370.965C619.207 376.63 613.82 381.905 607.628 386.286C604.29 388.647 600.717 390.775 597.006 392.645C594.555 393.88 591.713 396.404 588.461 395.057C579.882 391.503 572.774 382.74 566.684 376.045C563.587 372.64 560.372 369.33 557.261 365.934C555.271 363.762 552.919 361.536 551.473 359.012C549.779 356.056 551.214 355.353 553.474 354.056C556.589 352.269 559.219 349.952 561.965 347.727C568.667 342.299 575.911 338.747 584.383 335.833C592.76 332.95 600.945 330.204 610.137 329.092C614.796 328.529 619.354 328.506 624.24 329.027C628.016 329.429 633.815 330.169 635.249 334.797ZM655.835 399.608C656.857 400.562 645.266 407.713 643.804 408.707C634.205 415.229 624.134 421.642 613.029 426.067C602.665 430.198 592.483 432.948 580.375 432.848C574.731 432.802 569.147 432.33 563.428 431.559C560.561 431.172 559.399 432.98 556.702 432.973C554.276 432.966 552.395 432.944 550.596 430.778C554.095 428.621 564.871 428.297 564.405 422.591C564.14 419.339 560.232 420.224 558.257 420.488C554.544 420.984 550.643 420.792 546.733 420.374C549.88 418.069 553.505 416.513 557.506 415.577C559.284 415.161 565.542 413.876 563.433 410.553C562.133 408.507 557.712 409.228 556.048 409.211C551.963 409.169 547.343 408.946 543.225 407.27C544.69 404.021 549.277 403.677 552.821 403.623C556.756 403.564 561.181 403.154 565.189 403.705C567.257 403.989 569.001 405.148 571.015 405.709C573.282 406.34 575.698 406.323 577.877 406.197C582.077 405.955 585.981 404.818 589.648 403.362C598.027 400.034 605.831 395.469 612.921 390.361C616.4 387.855 619.387 385.067 622.251 381.96C624.478 379.544 626.344 379.222 630.008 380.686C639.925 384.648 648.024 392.321 655.835 399.608ZM533.999 424C534.448 426.868 533.905 429.64 534.233 432.519C534.522 435.052 534.733 437.871 534.62 440.328C534.498 442.952 532.636 443.41 530.317 443.899C527.597 444.474 525.436 445.956 522.81 446.697C513.726 449.258 497.68 448.209 489.578 439.423C486.144 435.7 483.729 430.899 484.455 426.515C485.116 422.533 487.495 417.949 491.212 416.242C493.309 415.279 495.921 415.533 498.404 415.882C501.299 416.289 501.389 415.581 500.599 412.827C499.188 407.898 499.369 401.9 502.438 398.419C503.964 396.689 505.904 395.331 508.15 394.513C508.455 394.402 508.927 394.597 509.236 394.488C509.614 394.354 509.662 393.647 509.962 393.585C510.719 393.429 512.247 393.929 513.049 394.15C516.271 395.036 522.443 396.946 522.738 400.544C522.738 400.546 525.444 402.69 525.722 402.971C527.176 404.44 528.1 405.978 529.057 407.761C531.933 413.116 533.13 418.438 533.999 424ZM572.95 452.063C572.315 453.881 565.746 450.85 566.012 448.815C566.266 446.875 573.526 450.417 572.95 452.063ZM548.334 468.208C549.94 470.386 552.049 472.519 552.7 475.067C550.237 474.806 547.267 472.469 546.537 470.077C546.12 468.712 546.58 465.828 548.334 468.208ZM550.342 394.493C550.387 394.544 552.773 393.718 553.16 395.436C553.688 397.783 550.965 395.213 550.342 394.493ZM539.779 373.763C541.794 375.505 538.358 378.563 536.336 376.807C533.848 374.645 537.644 371.918 539.779 373.763ZM519.289 363.52C517.721 361.599 520.258 353.363 523.36 356.275C524.914 357.735 522.624 367.601 519.289 363.52ZM529.822 478.937C530.256 480.469 529.837 481.768 529.922 483.236C530.011 484.775 530.547 486.275 530.868 487.826C531.75 492.084 531.812 496.363 532.345 500.602C533.323 508.394 534.777 516.296 534.711 523.96C534.593 537.656 530.36 550.064 525.729 562.019C525.345 563.009 524.547 566.122 523.107 566.203C521.554 566.291 518.879 563.309 517.767 562.301C513.204 558.17 508.831 553.702 504.105 549.778C502.164 548.166 499.042 546.302 497.969 543.997C496.771 541.424 498.34 538.407 498.927 536.214C500.71 529.551 500.799 521.753 500.847 514.572C500.905 505.745 500.935 496.805 501.408 488.071C501.871 479.514 504.095 471.527 506.762 463.806C507.69 464.13 507.592 468.81 507.639 469.395C507.865 472.198 508.032 475.181 509.074 478.003C509.812 480.001 512.319 483.534 514.27 481.399C515.216 480.364 515.277 477.699 515.684 476.379C516.358 474.199 517.277 472.142 518.384 470.203C519.125 473.306 518.512 481.172 522.526 483.05C526.422 484.873 526.953 476.758 528.407 475.043C529.272 476.26 529.452 477.627 529.822 478.937ZM488.752 545.291C487.435 549.659 485.452 553.599 483.556 557.652C481.749 561.516 479.933 564.963 476.707 567.754C472.253 571.608 465.813 574.591 459.093 569.861C451.132 564.259 447.915 554.276 445.682 546.153C442.965 536.269 441.393 526.423 440.719 516.625C440.044 506.837 440.347 497.147 441.602 487.79C442.557 480.671 445.179 473.94 447.095 467.182C447.46 465.897 448.153 462.073 450.118 462.247C451.706 462.388 452.553 464.747 453.204 465.849C454.475 467.997 456.213 469.619 458.008 471.417C466.024 479.45 473.914 487.627 482.239 495.37C484.56 497.528 486.92 499.864 489.432 501.799C490.824 502.87 493.005 503.753 493.994 505.235C495.895 508.085 494.76 512.793 494.4 515.493C493.754 520.325 492.443 524.91 491.683 529.701C490.848 534.963 490.262 540.277 488.752 545.291ZM470.221 453.518C470.815 452.516 471.632 450.954 472.996 450.768C474.775 450.526 475.823 451.874 475.69 453.377C475.585 454.565 474.255 456.425 473.157 456.755C471.286 457.317 469.223 455.205 470.221 453.518ZM494.308 465.602C495.167 467.547 493.93 470.944 491.399 468.411C489.232 466.242 492.727 462.021 494.308 465.602ZM452.4 431.721C453.91 431.046 456.127 429.377 458.224 430.575C460.176 431.69 458.97 432.886 457.717 433.425C456.686 433.868 450.211 434.244 452.4 431.721ZM667.843 307.977C664.079 305.928 660.966 302.418 657.377 300.006C653.898 297.668 650.436 295.833 646.662 294.213C638.309 290.627 630.366 287.897 621.753 286.262C605.533 283.183 589.775 282.205 574.397 284.119C559.215 286.009 544.732 290.076 531.692 296.335C517.863 302.972 507.085 312.317 496.62 322.806C493.495 325.939 490.321 329.026 486.959 331.925C484.502 334.044 481.431 336.707 480.308 339.91C479.603 341.923 480.522 344.161 483 343.418C484.757 342.892 486.15 341.433 487.451 340.31C492.277 347.09 496.291 354.87 497.106 362.497C497.902 369.942 494.85 376.416 491.684 382.276C489.967 385.454 487.847 388.846 485.281 391.376C483.659 392.976 481.522 393.485 483.136 396.054C484.258 397.838 485.746 399.494 482.889 398.171C479.513 396.606 479.216 396.992 476.445 398.684C470.78 402.144 464.658 406.426 457.665 407.706C450.41 409.034 443.358 405.656 435.927 403.531C434.09 403.006 429.867 402.54 429.131 400.325C428.458 398.298 430.931 395.662 431.855 394.278C432.83 392.818 433.958 391.474 435.026 390.084C435.645 389.279 437.356 388.056 435.663 387.155C433.11 385.798 429.122 391.062 428.027 392.281C425.993 394.55 424.063 396.961 422.42 399.54C414.273 412.329 407.37 426.351 401.835 440.719C391.096 468.594 387.254 501.152 393.857 533.739C400.196 565.018 427.96 596.765 460.225 608.195C476.993 614.135 491.064 608.103 503.862 601.542C510.612 598.081 517.145 593.895 521.542 587.86C523.651 584.964 524.936 581.608 526.506 578.37C527.19 576.957 527.832 575.234 528.962 574.145C529.817 573.321 531.575 573.323 531.748 572.016C531.871 571.089 530.984 569.888 531.133 568.754C531.313 567.394 532.013 566.152 532.534 564.959C533.98 561.642 534.862 557.99 535.996 554.511C537.169 550.912 537.899 547.198 538.65 543.428C539.029 541.524 538.647 536.052 541.498 537.019C542.799 537.461 544.54 539.219 545.642 539.992C547.569 541.344 549.516 542.663 551.475 543.962C555.789 546.821 560.163 549.574 564.545 552.31C572.451 557.246 580.308 561.63 588.804 565.025C595.587 567.735 602.892 571.259 609.88 571.538C612.93 571.659 615.414 570.402 616.582 567.857C617.909 564.961 616.267 561.567 615.345 558.344C613.315 551.253 614.104 543.055 616.852 537.197C620.217 530.024 627.346 526.301 634.032 522.399C641.103 518.271 648.167 513.954 655.566 510.291C662.462 506.878 670.832 503.977 675.486 497.881C679.544 492.565 678.448 483.456 677.652 476.466C676.852 469.445 675.013 459.954 679.974 455.04C682.438 452.6 686.046 451.533 688.862 449.509C691.953 447.286 694.594 444.373 697.285 441.73C700.625 438.448 706.224 429.519 702.044 423.714C701.424 422.852 699.808 421.48 698.783 422.052C697.84 422.578 698.622 423.918 697.952 424.605C696.588 426.003 692.397 424.446 690.463 424.21C682.658 423.256 675.088 424.606 667.426 424.465C658.774 424.306 649.559 422.619 640.783 420.586C641.532 418.776 643.592 417.886 645.12 416.815C646.976 415.514 648.888 414.334 650.847 413.162C653.006 411.87 654.993 410.388 657.028 408.945C658.546 407.867 660.2 406.131 662.106 405.614C663.77 405.162 665.084 405.236 666.441 404.074C667.821 402.891 668.827 401.33 669.981 399.945C673.102 396.201 676.162 392.418 678.813 388.305C688.18 373.773 693.087 354.11 686.17 334.731C684.289 329.461 681.657 324.268 678.237 319.497C675.566 315.773 672.03 310.256 667.843 307.977Z" fill="#20330B"/>
<path fill-rule="evenodd" clip-rule="evenodd" d="M407.37 297.934C410.344 294.548 414.335 292.397 418.483 290.41C422.131 288.663 425.842 286.65 430.288 286.506C438.286 286.248 446.684 291.534 453.663 296.3C462.371 302.246 466.725 310.719 471.977 319.196C476.89 327.125 478.966 335.793 479.094 344.112C479.161 348.471 478.137 352.357 476.842 356.233C475.526 360.17 474.689 364.353 472.016 367.493C467.958 372.262 459.967 375.997 452.419 373.095C448.982 371.773 449.271 370.468 452.283 369.836C456.654 368.919 461.107 368.24 464.699 365.884C471.665 361.315 475.066 351.653 475.919 343.192C476.771 334.733 474.289 326.465 469.444 318.238C464.556 309.938 458.517 303.202 450.247 297.794C443.239 293.21 436.116 289.874 428.763 291.572C412.888 295.24 402.105 309.171 404.244 326.215C404.537 328.552 404.806 330.845 405.007 333.168C405.135 334.645 405.304 336.4 406.791 337.461C408.064 338.371 414.387 340.209 410.886 341.482C408.048 342.514 404.894 341.709 402.564 343.897C400.083 346.226 399.926 351.381 402.358 354.769C404.678 358.001 409.819 360.104 413.25 359.48C415.375 359.094 416.401 357.557 417.584 356.076C418.171 355.34 419.576 353.099 420.916 353.42C423.288 353.987 422.52 358.429 422.077 359.697C420.997 362.781 417.614 364.64 413.91 363.798C410.144 362.943 406.33 361.309 403.058 358.857C399.924 356.507 397.367 353.4 396.124 349.902C394.802 346.181 394.496 340.622 397.744 338.625C399.153 337.759 401.504 338.095 402.794 337.165C403.608 336.577 403.474 337.001 403.314 335.808C403.213 335.051 402.728 334.005 402.522 333.209C401.333 328.636 399.927 323.919 399.721 319.38C399.35 311.242 402.483 303.497 407.37 297.934ZM455.128 360.062C454.023 358.199 457.647 359.572 458.361 359.675C459.773 359.877 461.645 359.124 462.954 360.335C465.116 362.334 462.604 364.453 460.735 364.285C458.607 364.093 456.22 361.901 455.128 360.062ZM459.391 333.493C463.093 334.34 464.491 338.318 465.873 341.302C467.195 344.155 468.861 347.177 469.912 350.085C471.657 354.913 464.389 356.036 460.791 353.202C458.038 351.032 460.498 350.489 462.328 350.353C464.213 350.214 464.875 349.953 464.651 347.941C464.198 343.894 461.231 339.733 459.619 335.834C459.3 335.061 459.407 334.243 459.391 333.493ZM463.441 330.393C464.976 331.103 467.66 334.618 469.03 332.334C469.788 331.071 468.021 329.167 467.656 327.856C466.43 323.45 471.381 328.68 472.313 330.35C474.368 334.032 473.766 338.949 468.618 337.276C466.702 336.653 464.911 335.13 463.634 333.538C462.938 332.672 460.606 329.08 463.441 330.393ZM442.391 343.281C443.691 344.689 445.647 348.242 447.826 347.776C449.744 347.367 449.508 343.623 449.452 342.009C449.395 340.331 448.745 336.091 451.89 338.612C453.493 339.897 454.298 342.758 454.434 344.428C454.723 347.989 453.051 353.462 448.222 351.812C445.592 350.913 443.142 348.107 441.587 345.909C440.327 344.128 439.249 339.881 442.391 343.281ZM455.901 311.241C457.695 311.413 461.801 311.695 462.549 314.069C463.425 316.844 458.349 315.845 456.747 315.79C455.305 315.74 451.627 315.09 450.841 313.372C449.541 310.527 454.326 311.091 455.901 311.241ZM440.58 319.463C444.825 318.651 443.454 323.288 442.4 324.907C441.123 326.865 439.353 329.253 436.901 329.967C433.425 330.979 431.776 328.261 433.118 325.562C434.495 322.794 437.285 320.093 440.58 319.463ZM405.706 347.243C407.761 345.741 410.18 344.087 413.271 345.603C416.465 347.17 416.53 348.864 414.303 350.289C412.243 351.608 409.432 353.804 406.421 352.985C402.824 352.006 403.802 348.636 405.706 347.243Z" fill="#20330B"/>
<path fill-rule="evenodd" clip-rule="evenodd" d="M374.205 499.028C376.199 501.807 375.16 506.436 375.343 509.339C375.986 519.495 376.958 529.71 378.816 539.974C379.78 545.301 381.953 550.557 383.571 555.84C383.965 557.128 385.07 559.756 383.965 560.69C382.753 561.716 380.002 559.799 378.923 558.818C375.242 555.473 373.952 549.57 373.034 545.36C372.001 540.626 371.175 535.801 370.58 531.083C369.925 525.889 369.878 520.816 369.932 515.732C369.985 510.74 369.557 505.548 369.939 500.633C370.118 498.318 371.745 495.599 374.205 499.028ZM515.881 283.193C517.951 280.936 520.829 279.462 523.575 278.006C529.614 274.805 536.208 272.469 542.869 270.3C554.545 266.497 566.999 263.869 579.726 262.572C582.386 262.301 584.81 261.765 587.321 261.146C588.929 260.751 591.069 260.059 592.913 260.944C597.598 263.196 589.463 264.984 588.304 265.235L586.675 265.587C562.513 270.82 538.692 276.313 517.762 287.658C516.647 288.262 515.414 287.699 514.828 286.39C514.194 284.97 515.112 284.031 515.881 283.193ZM357.62 486.137C358.696 487.236 358.056 488.53 357.819 489.569C356.937 493.446 355.791 497.215 354.938 501.104C353.354 508.322 353.306 516.143 350.901 523.039C350.352 524.616 348.72 523.533 347.98 522.359C347.153 521.049 347.264 519.315 347.265 517.993C347.265 514.177 348.046 510.513 348.829 506.939C349.604 503.396 350.757 500.048 351.794 496.62C352.758 493.435 353.169 489.137 355.15 486.518L355.236 486.404C355.861 485.565 356.355 484.848 357.62 486.137ZM509.766 270.706C506.92 272.384 506.962 268.555 508.292 267.252C509.775 265.798 511.99 265.055 513.814 264.03C519.392 260.897 524.845 258.233 531.106 256.197C532.04 255.893 536.288 254.669 535.54 257.227C535.022 258.999 530.015 259.922 528.489 260.527C521.781 263.186 515.845 267.122 509.766 270.706Z" fill="#20330B"/>
<path fill-rule="evenodd" clip-rule="evenodd" d="M435.377 370.679C434.55 369.466 425.864 355.778 424.287 356.916C422.616 358.121 427.737 365.967 428.599 367.458C431.784 372.967 435.868 378.093 440.127 383.007C443.093 386.429 446.197 389.858 449.843 392.632C452.646 394.763 453.81 394.212 456.705 394.131C448.558 387.224 441.287 379.34 435.377 370.679Z" fill="#20330B"/>
</g>
<g clip-path="url(#clip1_481_3338)">
<path fill-rule="evenodd" clip-rule="evenodd" d="M476.682 105.713C483.901 111.266 491.12 116.82 498.34 122.373C501.01 124.427 502.652 127.982 504.618 130.741C508.62 136.359 512.668 141.897 518.512 145.376C523.967 148.624 529.752 151.235 535.488 153.641C535.066 144.671 537.701 135.669 540.928 128.044C543.151 122.79 545.935 117.578 549.977 113.783C551.234 112.602 552.686 111.4 554.375 110.889C552.493 108.493 550.739 105.955 549.209 103.32C546.81 99.1906 545.895 95.9081 546.703 91.5347C547.114 89.3104 547.715 87.1506 548.383 85.0339C548.621 84.2786 549.647 82.535 549.527 81.6876C549.422 80.943 548.09 79.489 547.68 78.7999C546.245 76.385 544.988 73.842 544.075 71.2135C542.349 66.2439 541.695 61.0228 540.107 56.0017C538.075 56.9241 536.042 57.847 534.009 58.7693C532.633 59.3937 531.406 59.3363 531.32 60.9235C531.02 66.419 531.496 72.1978 531.582 77.7582C531.639 81.4247 531.749 85.0739 531.449 88.6812C530.968 94.4457 529.649 104.142 522.053 102.381C518.152 101.476 515.01 97.5374 512.706 94.2012C509.57 89.6597 507.095 84.6737 504.758 79.7157C497.568 83.4627 491.528 89.3629 485.934 95.2085C482.718 98.5692 479.6 102.054 476.682 105.713Z" fill="#4D7520"/>
<path fill-rule="evenodd" clip-rule="evenodd" d="M495.673 53.5897C490.747 56.8947 493.701 65.9182 499.591 61.8633C504.185 58.6999 501.622 49.5987 495.673 53.5897ZM499.805 63.8241C492.41 68.7845 488.167 56.5976 494.745 52.1457C502.861 46.6526 506.26 59.4918 499.805 63.8241ZM669.766 143.26C667.251 145.995 664.742 148.766 662.557 151.818C661.217 153.69 660.476 156.974 657.621 154.813C656.439 153.918 655.449 152.793 654.206 151.989C652.775 151.063 651.241 150.362 649.704 149.749C646.203 148.356 642.531 146.883 638.964 145.916C632.039 144.039 625.046 141.535 618.117 141.46C616.337 141.441 614.425 140.779 612.603 140.603C610.645 140.414 608.689 140.237 606.736 140.124C602.736 139.894 598.745 139.785 594.769 139.784C594.843 136.911 595.866 134.322 596.687 131.727C597.565 128.951 598.365 126.128 599.192 123.329C599.554 122.103 599.834 121.662 601.136 121.633C602.335 121.607 603.608 121.728 604.818 121.801C607.788 121.98 610.718 122.572 613.65 123.561C619.967 125.691 626.288 126.59 632.669 127.991C639.143 129.412 645.74 131.045 652.077 133.499C655.472 134.814 658.913 136.253 662.211 137.921C663.953 138.802 665.627 139.841 667.314 140.858C667.97 141.254 670.704 142.239 669.766 143.26ZM590.421 137.167C590.501 137.484 590.447 137.847 590.083 137.818C589.985 137.81 589.357 136.481 589.27 136.33C588.644 135.242 587.957 134.188 587.244 133.155C585.899 131.205 584.44 129.341 583.015 127.452C580.128 123.626 577.415 119.66 574.362 115.967C575.536 115.886 577.167 115.82 578.36 116.32C579.338 116.731 579.697 117.423 580.312 118.321C582.167 121.031 584.355 123.5 586.347 126.105C587.152 127.158 587.928 128.226 588.89 129.127C589.703 129.889 590.846 130.574 591.281 131.668C592.022 133.535 590.745 135.501 590.421 137.167ZM583.632 116.991C585.207 117.12 586.7 116.806 587.975 118.25C589.21 119.65 589.875 121.247 591.342 122.45C592.213 123.164 593.525 123.871 593.64 125.063C593.759 126.306 592.835 127.601 592.543 128.718C591.065 126.823 589.843 124.742 588.382 122.834C586.855 120.839 585.037 119.086 583.632 116.991ZM591.808 118.147C593.263 118.383 594.717 118.618 596.172 118.854C595.658 120.021 595.145 121.188 594.631 122.355L591.808 118.147ZM589.273 143.026C589.031 144.091 587.409 144.118 586.54 144.044C585.186 143.93 584.608 143.403 583.872 142.125C582.053 138.963 579.62 136.366 577.191 133.67C571.741 127.619 566.436 121.399 561.433 114.944C563.729 114.758 566.636 114.326 568.947 115.514C570.44 116.281 571.288 117.974 572.186 119.382C573.412 121.303 574.543 123.283 575.816 125.174C578.321 128.893 581.176 132.374 583.763 136.036C584.848 137.572 585.919 139.178 587.511 140.164C587.869 140.386 589.25 140.831 589.445 141.079C589.81 141.54 589.383 142.522 589.273 143.026ZM578.082 143.899C575.095 144.037 572.611 140.91 570.487 138.828C567.527 135.926 564.548 132.936 561.837 129.77C559.172 126.658 556.947 123.184 554.231 120.113C553.634 119.44 551.897 118.219 551.67 117.305C551.383 116.148 552.659 115.328 553.273 114.711C553.836 114.145 554.512 112.521 555.388 112.921C556.117 113.253 556.648 114.772 556.973 115.435C558.491 118.521 560.787 121.119 562.964 123.765C568.527 130.525 573.96 137.375 579.836 143.851C579.251 143.866 578.665 143.872 578.082 143.899ZM579.398 153.692C578.473 152.447 577.549 151.201 576.624 149.957C577.459 149.807 578.294 149.657 579.129 149.507C579.33 150.904 579.636 152.34 579.398 153.692ZM579.293 158.408C579.18 159.541 579.288 160.855 578.726 161.815L571.768 151.443C572.555 151.091 573.202 150.342 574.094 151.049C574.777 151.589 575.198 152.857 575.789 153.554C576.763 154.704 579.459 156.741 579.293 158.408ZM564.919 145.928C560.411 140.546 556.308 134.82 551.629 129.589C550.57 128.405 549.511 127.278 548.376 126.177C547.657 125.482 546.634 124.736 546.571 123.672C546.475 122.034 548.439 120.766 549.303 119.764C555.273 128.939 561.857 137.963 570.366 144.744C569.385 145.227 566.029 147.254 564.919 145.928ZM577.909 166.044C577.407 167.794 577.308 169.908 576.193 171.315C573.338 167.251 570.518 163.16 567.616 159.131C566.941 158.193 566.27 157.24 565.545 156.341C565.237 155.958 564.441 155.279 564.335 154.757C564.065 153.422 566.126 153.073 567.098 153.108C568.437 153.155 569.058 154.298 569.817 155.459C570.785 156.941 571.752 158.34 572.831 159.747C573.788 160.995 574.739 162.188 575.798 163.34C576.152 163.726 578.077 165.456 577.909 166.044ZM575.359 174.235C574.557 176.07 572.894 174.71 571.497 174.017C570.539 173.541 569.343 173.281 568.537 172.464C567.726 171.642 567.488 170.421 566.932 169.446C565.597 167.103 563.429 165.216 561.711 163.176C559.759 160.86 557.957 158.391 556.267 155.871C557.702 155.721 559.613 154.471 561.013 155.735C561.635 156.295 561.993 157.318 562.419 158.029C563.138 159.228 563.956 160.376 564.723 161.545C567.762 166.18 570.938 170.566 575.818 173.092C575.671 173.476 575.518 173.857 575.359 174.235ZM572.74 180.052C571.152 182.813 569.871 185.834 567.883 188.284C565.894 190.735 563.807 193.144 561.67 195.447C557.197 200.267 552.23 204.664 546.666 208.103C543.943 209.786 541.056 211.133 538.117 212.426C535.141 213.735 532.093 214.165 528.889 214.827C522.663 216.115 516.784 218.186 510.282 218.513C508.713 218.592 507.132 218.588 505.56 218.646C504.725 218.677 503.894 219.007 503.279 218.159C502.642 217.281 502.368 215.067 502.157 214.038C501.832 212.444 501.958 210.92 502.085 209.373C502.301 206.751 501.875 203.352 502.643 200.926C503.067 199.589 503.74 199.781 504.974 199.892C506.598 200.038 508.262 199.802 509.831 199.593C516.286 198.734 522.77 196.487 528.462 193.697C534.065 190.949 539.597 188.221 543.756 183.368C546.11 180.622 547.918 177.446 549.758 174.276C550.366 173.228 550.732 171.576 552.067 171.779C553.496 171.997 555.147 173.319 556.559 173.861C559.939 175.159 563.37 175.63 566.746 176.922C567.566 177.235 573.555 178.635 572.74 180.052ZM496.857 213.9C496.974 215.732 497.239 217.621 498.089 219.362C495.691 218.974 494.372 219.183 494.098 216.212C493.842 213.435 493.436 210.701 493.033 207.919C492.868 206.782 492.803 205.364 491.97 204.41C491.021 203.325 489.754 203.401 489.229 204.53C488.856 205.332 489.058 206.656 489.077 207.579C489.11 209.242 489.288 210.913 489.49 212.587C489.641 213.83 490.203 215.631 490.021 216.783C489.899 217.559 489.356 217.96 488.611 217.103C487.948 216.341 488.024 214.162 487.896 213.288C487.688 211.863 487.549 210.429 487.185 209.013C486.809 207.545 484.448 203.431 483.735 206.742C483.488 207.885 483.774 209.581 483.82 210.788C483.892 212.643 484.041 214.508 484.277 216.373C482.396 216.24 480.202 215.51 478.433 216.097C476.752 216.654 476.484 219.005 475.738 220.507C474.575 222.844 473.672 225.341 472.724 227.804C471.878 230.002 470.767 232.024 469.995 234.267C468.653 238.169 467.157 243.127 462.902 244.198C461.216 244.622 459.043 244.626 457.321 243.655C454.994 242.343 453.477 239.531 451.396 237.816C454 237.768 455.009 235.13 455.935 233.045C456.974 230.709 458.189 228.492 459.463 226.315C462.096 221.815 465.033 217.458 467.506 212.851C472.336 203.848 474.356 193.202 479.272 184.271C485.049 189.057 491.663 192.599 498.511 194.436C497.398 200.77 496.432 207.214 496.857 213.9ZM540.108 150.379C538.734 150.501 537.435 151.205 537.109 149.213C536.877 147.799 537.447 146.324 537.508 144.948L542.293 150.27C541.564 150.304 540.831 150.316 540.108 150.379ZM547.964 149.809C545.869 146.962 543.525 144.15 540.754 142.026C539.941 141.404 538.838 140.768 538.666 139.669C538.489 138.546 539.346 137.292 539.828 136.45C543.731 141.077 547.407 145.983 551.933 149.97C550.789 150.301 549.035 151.265 547.964 149.809ZM562.235 169.393C562.299 169.479 562.363 169.564 562.427 169.649C561.088 169.742 559.431 169.608 558.154 168.791C556.816 167.935 556.164 166.355 555.303 165.056C554.308 163.558 553.12 162.259 551.903 160.957C550.529 159.489 549.66 157.832 548.638 156.114C549.824 156.204 551.279 155.853 552.443 156.483C553.661 157.142 554.244 158.676 554.88 159.852C556.771 163.351 559.352 166.694 562.235 169.393ZM561.077 148.122C559.007 149.069 557.72 149.295 555.877 147.258C553.615 144.758 551.342 142.287 549.148 139.72C547.109 137.336 544.268 135.352 542.433 132.841C541.142 131.074 543.328 128.67 544.061 127.198C549.686 134.212 555.025 141.488 561.077 148.122ZM533.941 148.853C534.105 149.546 534.316 150.232 534.505 150.921C531.661 149.529 528.868 148.172 525.933 147.112C523.215 146.129 520.705 144.947 518.356 143.019C515.81 140.93 513.221 138.635 511.125 136.025C509.011 133.393 507.31 130.38 505.486 127.543C504.427 125.894 502.454 121.261 500.469 120.671C499.739 120.454 499.214 121.045 498.456 120.9C497.418 120.701 496.368 119.571 495.541 118.895C490.33 114.638 485.203 110.09 479.476 106.724C481.6 102.994 484.674 99.7736 487.383 96.5465C490.227 93.1577 493.47 90.0679 496.857 87.2867C498.492 85.944 500.196 84.697 501.961 83.5348C503.394 82.5919 504.633 81.3589 505.567 83.7949C506.979 87.4759 508.644 91.1001 510.905 94.3951C514.205 99.2066 519.585 104.923 525.306 104.286C534.217 103.295 533.883 91.5367 533.75 84.0292C533.657 78.7816 533.507 73.6313 532.91 68.3319C532.715 66.5995 531.957 64.2361 532.798 62.7422C533.841 60.8889 536.486 59.9139 538.153 58.7959C539.596 61.221 540.783 63.2665 541.356 66.0038C541.911 68.6563 542.628 71.2202 543.542 73.8108C544.417 76.2888 545.494 78.4276 546.717 80.7373C547.803 82.7899 545.662 83.2437 544.825 84.6025C542.861 87.7903 543.958 92.7199 544.861 96.4838C545.437 98.8888 546.021 101.355 547.113 103.641C548.418 106.375 550.38 108.732 552.142 111.181C551.735 111.629 550.892 111.528 550.346 111.71C549.515 111.988 548.746 112.496 548.067 113.03C546.573 114.207 545.195 115.606 543.932 117.045C541.201 120.158 539.128 123.859 537.35 127.716C534.47 133.966 532.135 141.242 533.941 148.853ZM491.887 121.523C488.239 126.869 484.426 132.13 479.949 136.703C477.747 138.952 475.11 140.556 472.465 142.201C471.25 142.957 470.065 143.421 468.722 143.909C467.7 144.28 465.884 144.732 465.479 145.887C463.786 144.387 461.259 146.034 459.779 146.602C458.575 147.065 457.243 147.069 456.024 147.469C455.566 147.619 455.203 147.889 454.711 147.892C454.238 147.894 453.722 147.524 453.252 147.56C452.577 147.611 451.971 147.992 451.346 147.84C449.898 147.488 448.418 147.303 446.968 146.931C445.505 146.556 444.297 145.613 442.948 144.835C441.372 143.925 439.441 143.283 437.981 142.168C438.312 142.196 438.643 142.227 438.976 142.261C437.719 140.64 436.317 139.415 435.237 137.586C434.704 136.683 434.254 136.177 433.609 135.418C433.116 134.839 432.839 134.275 432.376 133.567C431.138 131.676 430.518 129.601 429.542 127.599C429.218 126.934 428.824 126.251 428.443 125.634C428.095 125.07 427.309 124.535 426.967 123.904C427.276 123.887 427.586 123.92 427.899 124.003C426.456 122.923 426.921 120.176 426.193 118.709C425.098 116.503 423.095 117.101 421.856 118.284C420.188 119.877 419.316 122.345 418.264 124.428C416.824 127.28 415.401 130.131 414.08 133.06C412.53 136.496 411.679 140.246 410.194 143.688C410.006 144.124 409.405 145.865 408.667 145.244C408.013 144.694 408.548 142.544 408.641 141.967C409.118 139.002 409.942 136.107 410.833 133.31C411.448 131.378 412.201 129.515 412.885 127.618C413.621 125.581 414.847 123.016 414.051 120.6C413.396 118.612 411.832 117.455 410.534 119.023C408.853 121.053 407.901 124.174 406.738 126.603C405.576 129.03 404.343 131.414 403.211 133.86C402.959 134.405 402.221 136.844 401.778 135.588C401.42 134.572 402.006 132.663 402.164 131.699C402.397 130.27 402.713 128.869 403.082 127.491C403.862 124.579 404.886 121.776 405.993 119.03C406.673 117.345 407.416 115.55 406.217 113.62C404.161 110.31 402.79 113.718 401.766 115.336C400.394 117.499 398.792 119.47 397.406 121.622C396.143 123.584 394.906 125.624 393.198 127.177C392.324 127.972 390.909 128.984 390.083 127.249C389.2 125.39 390.495 122.837 391.122 121.322C392.195 118.73 393.852 116.906 395.628 114.898C397.562 112.712 399.432 110.502 401.484 108.436C405.643 104.25 410.04 100.808 415.238 98.0655C417.621 96.8085 419.713 95.0395 422.072 93.8006C423.64 92.9766 425.45 93.3005 427.165 94.1388C431.345 96.1826 435.217 100.196 437.556 104.355C440.945 110.382 442.036 116.645 443.699 123.086C444.964 127.986 447.619 134.192 453.17 134.383C455.791 134.474 457.725 133.047 459.477 131.385C461.842 129.143 463.988 126.66 466.065 124.122C470.17 119.105 474.095 113.93 477.957 108.691C478.873 109.573 492.919 120.011 491.887 121.523ZM513.499 93.9398C511.629 90.7458 509.694 87.6574 508.122 84.3121C507.61 83.2229 506.941 82.0804 507.243 80.931C507.54 79.795 508.611 79.0464 509.176 78.09C510.674 75.5504 510.847 71.9079 511.231 68.8721C511.627 65.7376 511.235 62.7324 510.274 59.5442C509.506 56.994 508.298 52.9641 505.699 51.6924C503.676 50.7026 501.768 51.1589 500.685 48.5051C499.759 46.2364 500.708 43.9727 503.086 44.3219C504.572 44.5398 506.975 45.878 505.119 43.112C509.74 41.4848 512.734 37.1493 514.716 32.6634C515.103 31.7863 515.475 30.5572 516.609 30.7691C517.358 30.9091 518.09 31.6834 518.916 31.8432C519.778 32.0102 520.781 31.751 521.518 32.5039C522.086 33.0841 522.42 34.3576 522.677 35.0736C523.333 36.8979 523.876 38.8484 523.536 40.6602C523.389 41.4446 522.868 44.1132 521.816 43.8372C520.602 43.5187 520.399 39.9805 519.47 42.7075C519.138 43.6834 518.944 43.85 519.29 44.993C519.697 46.3355 520.335 47.6221 520.982 48.8792C520.053 49.0937 518.264 48.9652 517.955 50.1384C517.663 51.2498 518.927 52.3171 519.884 52.4709C520.867 52.6287 522.169 51.9075 522.633 51.071C523.375 49.7335 522.387 48.2494 521.813 46.8714C522.813 46.982 523.882 47.6516 524.677 46.8526C524.471 52.5739 522.587 57.704 518.231 60.6387C516.262 61.9657 516.109 63.3482 517.218 65.8509C518.35 68.4072 520.034 70.8932 521.588 73.2147C522.855 75.1093 524.214 77.0068 525.931 78.4926C527.068 79.4775 528.498 80.2216 527.581 77.9779C527.09 76.7731 526.119 75.6617 525.384 74.5848C524.922 73.9072 523.891 72.7959 523.898 71.9788C523.905 71.0706 525.121 70.7523 525.709 70.3489C526.941 69.5018 527.768 68.1644 529.01 67.3307C529.287 71.7126 529.183 76.0532 529.58 80.4462C529.987 84.9379 529.873 89.49 528.843 93.6787C527.983 97.1778 525.602 100.284 521.774 100.006C518.49 99.7674 515.267 96.96 513.499 93.9398ZM528.352 42.1078C530.047 42.9021 529.219 47.2609 528.213 47.9067C528.148 47.2622 527.291 41.611 528.352 42.1078ZM542.35 59.1638C541.983 57.9814 543.702 56.9464 544.375 56.4568C545.842 55.389 547.348 54.3726 548.819 53.3074C552.841 50.3962 556.726 47.2873 560.902 44.597C565.225 41.8121 569.182 38.4723 573.56 35.786C577.719 33.2335 582.047 30.9656 586.624 29.1833C595.009 25.9182 604.146 23.1523 613.801 24.9436C622.472 26.5525 631.346 31.3467 636.016 40.0921C638.895 45.485 642.269 50.9145 643.829 56.7922C645.155 61.7876 643.911 66.2691 642.451 70.638C641.759 69.692 639.76 61.9029 638.031 64.459C637.473 65.2834 637.853 66.8094 637.929 67.8258C638.063 69.6087 638.126 71.3996 638.165 73.1739C638.235 76.3945 638.01 79.6358 636.818 82.4551C636.357 83.5473 634.802 86.8928 633.168 85.4636C631.814 84.2798 632.356 79.6802 632.204 78.1809C632.07 76.8517 631.853 75.626 630.875 74.5923C630.499 74.1943 629.989 73.9377 629.601 73.5468C629.287 73.2303 628.995 72.6192 628.631 72.3819C626.197 70.7949 627.771 75.3166 627.938 76.2111C628.516 79.3071 627.159 82.4855 626.212 85.1191C625.033 88.3948 623.974 91.7969 621.814 94.4206C621.243 89.9123 620.724 85.4008 619.929 80.8951C619.189 76.7 617.582 72.3497 617.239 68.2264C617.181 67.5299 617.005 66.852 616.821 66.0945C616.706 65.6226 616.051 64.1929 616.084 63.8433C616.102 63.6447 616.655 63.2036 616.71 62.7899C616.778 62.2808 616.597 61.6683 616.462 61.1564C616.301 60.548 615.801 58.3901 615.255 57.9461C615.14 57.8533 614.707 58.2174 614.481 58.056C614.217 57.8668 614.162 57.6362 613.979 57.385C613.558 56.8053 613.58 56.1393 612.817 55.8267C614.747 54.5317 608.893 49.6941 607.826 48.8167C606.64 47.8415 605.437 47.3767 604.354 46.3752C603.034 45.1534 601.22 44.5233 599.626 44.0006C598.033 43.4775 596.26 42.768 594.654 42.4595C592.991 42.1399 591.266 42.4847 589.628 42.4968C588.898 42.5022 588.058 42.4216 587.386 42.6758C587.241 42.8675 587.099 43.0616 586.959 43.2577C586.652 43.2709 586.344 43.23 586.035 43.1347C584.509 43.2059 583.286 43.6824 581.949 44.3301C575.342 47.5307 568.768 51.7188 563.107 56.3813C560.166 58.8034 557.201 61.3042 554.582 64.1041C551.869 67.0037 549.347 70.0747 546.468 72.8011C544.563 68.3778 543.754 63.7011 542.35 59.1638ZM527.467 -0.789064C527.967 -1.24907 528.326 -0.208037 528.324 0.178677C527.88 0.0226119 527.595 -0.29997 527.467 -0.789064ZM731.122 133.711C728.949 131.458 725.615 129.87 722.785 129.55C719.293 129.156 716.765 130.82 714.253 132.728C711.375 134.915 708.873 137.477 706.313 140.042C703.712 142.648 701.103 145.139 698.905 148.155C698.025 149.363 697.08 150.517 696.252 151.769C695.635 152.702 695.104 154.054 693.8 153.038C691.429 151.192 693.741 148.147 694.265 146.346C694.551 145.364 694.888 143.997 693.506 143.702C691.872 143.353 690.878 145.409 690.171 146.482C689.518 147.473 688.684 148.223 687.782 146.378C687.182 145.153 687.945 143.586 688.206 142.46C688.526 141.076 689.956 136.672 687.208 136.769C684.283 136.873 685.269 140.848 683.615 142.197C682.159 143.384 679.186 138.929 677.934 138.003C674.774 135.662 674.286 140.87 671.808 139.843C670.786 139.419 670.038 137.924 669.246 137.155C667.943 135.888 666.246 134.926 664.752 133.966C661.447 131.843 658.02 129.972 654.515 128.37C651.014 126.77 647.588 125.673 643.958 124.824C640.318 123.973 636.741 122.63 633.108 121.715C625.876 119.893 618.559 119.31 611.301 117.669C609.625 117.29 607.966 116.836 606.287 116.808C604.747 116.784 602.746 117.556 601.212 117.079C600.215 116.77 599.668 115.761 598.846 115.108C597.455 114.001 595.741 113.769 594.16 113.403C586.813 111.702 579.288 110.164 571.956 110.097C568.4 110.064 564.538 109.645 561.081 110.144C559.963 110.305 558.708 110.903 557.514 110.626C556.263 110.336 555.212 109.067 554.23 108.199C548.138 102.814 547.123 93.6871 548.677 86.7598C548.953 85.5277 549.65 84.1965 549.461 82.8579C549.254 81.3915 548.326 79.9543 548.143 78.4454C547.803 75.6506 550.876 74.006 552.376 72.3126C561.437 62.0867 573.725 52.2374 587.548 49.5804C593.357 48.4636 599.406 49.0847 604.741 53.2985C607.149 55.2002 609.325 57.5552 610.999 60.1913C612.865 63.1281 613.754 66.417 614.728 69.6644C615.9 73.5692 616.921 77.5059 617.701 81.4649C618.405 85.038 618.61 88.5422 619.132 92.1068C619.457 94.3209 620.261 98.265 623.024 98.424C625.228 98.5507 627.113 96.3478 628.011 94.5716C629.354 91.9149 629.49 88.6723 630.266 85.7518C631.375 87.3861 631.107 89.695 632.791 90.9711C634.463 92.239 635.858 90.9934 636.803 89.7762C637.883 88.3859 638.843 86.7076 639.581 85.0632C640.514 82.9854 640.638 80.6757 641.087 78.3994C641.877 74.4006 644.521 71.4645 645.695 67.6698C646.907 63.7475 646.561 59.2735 645.343 55.0419C643.932 50.141 641.56 45.4619 639.153 40.9103C636.772 36.4076 634.206 32.116 630.277 28.8444C622.803 22.6221 614.087 19.6094 605.31 19.9399C586.79 20.637 572.22 30.891 558.136 40.9829C554.276 43.749 550.372 46.4573 546.638 49.3983C544.921 50.7504 543.223 52.1387 541.617 53.6282C541.127 54.0825 540.227 55.3934 539.388 55.1982C538.741 55.0478 538.393 54.0514 537.725 53.7942C536.136 53.183 534.523 54.6968 533.544 55.5771C532.306 56.6883 530.719 57.803 530.01 59.4035C529.328 60.9421 529.965 62.7804 528.517 63.7863C526.905 64.9046 524.901 65.5955 523.212 66.6237C521.883 67.4326 520.39 67.6835 520.522 65.208C520.622 63.3204 522.206 62.2688 523.297 61.1249C525.314 59.0101 527.606 50.7828 531.527 52.7912C532.603 53.3422 532.782 53.6839 533.976 53.4397C535.08 53.2143 536.178 52.7276 537.201 52.2924C539.105 51.4824 541.241 50.4252 542.432 48.6321C544.283 45.8447 542.562 42.1321 541.338 39.014C545.216 38.8706 549.883 36.8817 551.102 32.8503C552.127 29.4623 550.325 25.0094 548.171 22.0105C547.531 21.1186 546.8 20.2534 545.946 19.5825C545.154 18.9605 543.903 18.6007 543.336 17.699C542.841 16.9136 543.017 15.8258 542.87 14.9879C542.652 13.7446 542.093 12.4696 541.461 11.3448C539.138 7.21678 535.154 6.71675 531.328 6.66744C531.435 3.50692 531.727 0.228883 529.592 -2.66485C527.599 -5.36528 524.41 -6.03514 521.585 -6.03377C519.059 -6.03254 516.997 -5.30502 514.852 -4.27653C513.917 -3.8284 513.659 -3.5081 513.109 -4.62277C512.671 -5.50772 512.688 -6.56639 512.303 -7.47461C510.06 -12.7666 504.885 -11.8818 501.392 -10.1304C495.639 -7.24645 491.567 -2.69216 489.705 3.83914C481.383 -1.76506 473.443 9.08057 474.53 17.0214C474.673 18.0628 474.961 19.1046 475.426 20.0844C475.738 20.7399 476.959 21.9601 477.007 22.5847C477.101 23.8024 474.555 24.2982 473.883 24.8099C472.652 25.7468 471.798 27.4418 471.329 28.9808C469.347 35.4844 474.487 42.6674 479.15 47.348C476.635 49.6791 475.61 54.2951 477.89 57.8161C479.033 59.5833 480.9 61.1901 482.726 62.014C484.596 62.8579 486.884 62.7248 488.343 64.5356C489.877 66.4408 490.307 67.8739 492.783 68.4251C494.599 68.8295 496.614 68.7883 498.34 68.4523C502.379 67.6658 505.647 64.7914 507.747 61.3081C508.11 65.2099 507.331 69.4272 506.138 72.888C505.603 74.4404 505.035 76.3554 504.153 77.6893C503.197 79.137 500.9 79.2714 499.436 80.0593C492.857 83.6001 487.377 89.1741 482.633 94.9472C477.499 101.195 472.566 107.585 467.624 114.015C465.177 117.199 462.776 120.439 460.204 123.506C458.272 125.808 456.012 128.211 453.204 129.38C450.811 130.377 448.662 129.414 447.674 126.47C446.371 122.591 446.07 118.361 444.995 114.415C443.005 107.115 439.409 99.6078 433.497 94.5846C431.103 92.5505 428.137 90.3139 425.155 90.0473C423.579 89.9064 421.973 90.2771 420.426 90.368C418.46 90.4834 416.543 90.8985 414.702 91.4483C407.306 93.6575 401.442 98.8783 396.308 104.443C391.671 109.469 384.347 117.099 386.503 125.645C387.24 128.567 389.606 132.756 392.806 132.993C395.56 133.196 397.671 130.453 398.71 128.208C398.537 131.647 397.877 135.257 399.047 138.785C399.459 140.027 400.205 141.622 401.443 142.199C403.243 143.038 404.136 141.235 405.06 140.136C405.07 143.056 405.293 147.571 408.396 149.231C411.828 151.066 413.604 147.101 414.693 144.642C416.31 140.994 418.232 137.543 419.861 133.902C420.734 131.952 421.539 129.963 421.992 127.802C422.366 126.013 422.532 124.269 423.945 123.135C424.874 128.748 425.946 134.514 429.326 139.476C432.475 144.097 437.743 148.567 442.497 151.08C447.47 153.709 452.743 153.845 457.734 153.135C463.17 152.362 468.257 150.89 472.861 148.112C481.837 142.699 489.629 134.053 493.659 123.843C493.961 123.079 493.89 122.93 494.717 123.026C495.775 123.148 497.703 124.855 498.707 125.441C501.65 127.159 502.721 129.545 504.361 132.493C507.273 137.729 511.565 142.115 516.024 145.93C520.479 149.743 525.144 151.996 530.371 153.9C532.715 154.754 534.872 155.223 537.243 155.19C539.822 155.154 542.035 155.145 544.326 157.054C546.236 158.647 547.277 160.403 547.722 162.81C547.837 163.432 548.426 165.177 548.27 165.769C548.121 166.334 547.832 166.112 547.564 166.443C547.076 167.047 546.971 167.271 546.842 168.156C546.498 170.521 544.788 172.233 543.465 173.991C541.646 176.41 539.742 178.852 537.354 180.665C533.242 183.79 528.33 187.043 523.244 188.372C518.122 189.71 513.261 191.764 507.911 192.422C505.479 192.721 504.326 192.813 502.397 190.77C501.373 189.686 501.016 189.788 499.902 190.026C498.622 190.299 497.845 190.015 496.534 189.346C494.188 188.149 491.874 186.889 489.567 185.589C486.678 183.96 483.613 182.743 480.769 181.023C479.07 179.995 476.777 177.722 474.923 178.881C473.823 179.569 473.261 181.268 472.605 182.381C471.805 183.738 470.976 185.074 470.183 186.437C467.132 191.683 465.308 197.712 463.205 203.529C460.91 209.877 457.314 215.689 454.402 221.693C453.043 224.494 451.915 227.421 451 230.468C450.407 232.437 448.624 235.349 450.262 237.373C449.33 237.396 448.027 237.219 447.981 238.501C447.943 239.56 449.176 240.632 449.849 241.355C452.064 243.735 454.394 246.111 457.289 247.41C461.874 249.467 468.033 249.544 471.444 246.332C475.614 242.405 476.77 235.994 479.089 230.736C479.936 228.816 480.832 226.956 481.501 224.937C481.895 223.748 482.42 221.401 483.611 220.842C485.428 219.989 485.573 223.183 485.716 224.371C485.867 225.628 486.13 226.883 486.355 228.14C486.606 229.548 486.625 231.295 487.141 232.656C487.468 233.518 488.311 234.592 489.233 234.244C490.171 233.89 490.045 232.203 490.05 231.322C490.057 229.869 489.889 228.398 489.749 226.933C489.657 225.96 489.221 224.28 489.573 223.397C490.487 221.108 491.126 226.052 491.162 226.761C491.207 227.652 491.17 228.788 491.604 229.634C492.243 230.879 493.797 231.451 494.649 230.479C495.305 229.73 495.194 228.399 495.165 227.383C495.146 226.73 494.809 224.361 495.357 223.968C495.697 223.726 497.51 224.54 497.983 224.663C499.36 225.019 500.694 224.998 502.038 224.894C508.263 224.412 514.559 224.92 520.69 223.878C526.548 222.881 532.31 221.327 537.876 219.499C540.811 218.535 543.628 217.742 546.339 216.277C549.082 214.795 551.54 212.967 554.079 211.173C559.26 207.514 563.369 202.912 567.339 197.895C574.39 188.985 579.657 178.59 581.696 166.598C582.223 163.499 582.456 160.328 582.533 157.119C582.567 155.725 582.638 154.318 582.511 152.905C582.425 151.96 581.974 150.546 582.375 149.704C582.992 148.408 586.649 148.747 587.932 148.661C589.337 148.566 590.886 148.634 592.195 148.199C592.687 148.035 593.097 147.774 593.614 147.666C594.13 147.558 594.956 147.756 595.341 147.33C596.773 145.742 591.358 143.773 595.198 144.035C601.33 144.452 607.61 145.658 613.758 146.598C615.296 146.834 616.788 146.947 618.32 147.031C619.755 147.109 621.141 147.596 622.574 147.761C625.711 148.121 628.811 148.672 631.94 149.41C635.04 150.142 638.142 151.035 641.254 151.565C644.306 152.084 647.129 153.153 650.112 154.209C653.023 155.239 655.753 156.839 658.447 158.506C657.291 158.747 656.106 158.629 656.532 160.343C656.805 161.447 657.897 162.479 658.697 163.223C661.263 165.608 664.366 167.211 667.06 169.41C670.128 171.915 673.569 173.988 676.514 176.656C679.119 179.016 681.057 182.264 683.907 184.334C686.247 186.033 688.911 183.489 690.787 182.523C693.785 180.978 696.78 179.498 699.646 177.722C705.607 174.027 711.848 170.584 717.493 166.418C722.628 162.628 727.656 158.706 732.577 154.636C733.924 153.522 736.912 151.029 735.763 148.599C735.021 147.028 734.076 147.973 733.311 148.616C732.22 149.531 731.018 150.308 729.854 151.122C724.279 155.026 718.792 158.838 712.816 162.12C706.705 165.478 700.856 169.217 694.918 172.839C692.241 174.471 689.678 176.113 687.176 177.99C686.429 178.55 685.551 179.297 684.532 178.714C683.508 178.129 682.169 176.002 681.31 175.147C678.321 172.171 674.776 170.137 671.551 167.515C668.297 164.869 665.056 162.233 661.608 159.908C665.209 156.254 668.731 152.497 672.055 148.556C673.407 146.951 674.96 145.444 676.147 143.7C677.46 141.772 677.765 142.14 679.435 143.888C680.889 145.412 682.052 146.411 681.469 148.467C680.864 150.602 679.623 152.47 679.306 154.735C679.017 156.804 680.492 158.499 682.17 156.986C683.83 155.489 684.855 152.463 685.916 150.448C686.935 151.464 687.713 152.154 687.741 153.604C687.77 155.139 687.178 156.529 687.052 158.023C686.958 159.126 687.061 160.583 688.472 160.645C689.923 160.709 690.266 159.123 690.559 157.99C690.781 157.131 690.962 155.442 692.101 155.557C693.286 155.677 693.956 157.548 694.984 158.108C696.721 159.053 696.524 157.624 696.852 156.512C697.379 154.722 699.994 153.367 701.322 152.277C702.915 150.97 704.332 149.49 705.861 148.111C707.683 146.469 709.705 145.091 711.495 143.406C714.241 140.819 716.651 137.078 720.369 135.916C726.165 134.106 732.562 138.575 735.448 144.534C736.017 145.709 736.86 148.576 738.336 148.92C739.721 149.243 739.261 147.305 739.056 146.367C737.983 141.455 734.56 137.277 731.122 133.711Z" fill="#20330B"/>
<path fill-rule="evenodd" clip-rule="evenodd" d="M570.965 16.2962C577.08 11.0543 585.127 8.18562 592.813 5.79131C599.713 3.64144 607.194 2.70134 614.716 5.50608C615.899 5.94726 617.834 7.35737 619.03 7.3493C620.864 7.33764 619.342 5.36381 618.461 4.73784C615.618 2.71723 611.411 1.40407 608.24 0.702173C600.684 -0.969555 593.318 0.846759 586.682 3.36985C582.65 4.90284 578.757 6.85687 575.193 9.23836C573.417 10.4257 571.8 11.8423 570.375 13.4608C569.922 13.9759 569.21 14.6457 569.368 15.5057C569.546 16.4718 570.255 16.904 570.965 16.2962Z" fill="#20330B"/>
<path fill-rule="evenodd" clip-rule="evenodd" d="M446.541 168.066C449.793 169.039 453.222 168.958 456.136 167.796C457.655 167.19 459.996 166.243 460.622 164.53C460.939 163.665 460.675 162.566 459.733 162.02C458.612 161.372 457.399 162.238 456.498 162.649C453.172 164.17 450.07 164.867 446.181 164.011C442.612 163.226 439.31 161.38 436.259 159.014C434.837 157.912 433.663 156.608 432.367 155.353C431.633 154.643 429.867 153.018 430.043 154.942C430.319 157.954 434.87 161.39 436.988 163.059C439.922 165.372 443.139 167.046 446.541 168.066Z" fill="#20330B"/>
<path fill-rule="evenodd" clip-rule="evenodd" d="M464.975 40.0934C465.309 36.9046 464.336 33.6291 465.038 30.4663C465.169 29.877 466.075 28.2148 465.637 27.5974C465.062 26.7851 464.335 27.4801 464.015 27.9281C462.445 30.1322 462.099 38.2316 464.975 40.0934Z" fill="#20330B"/>
<path fill-rule="evenodd" clip-rule="evenodd" d="M517.042 48.0826C517.299 46.9575 517.856 44.139 516.951 43.0383C516.103 42.0062 515.508 42.8084 515.194 43.663C515.059 44.0309 514.996 45.2384 514.461 45.2925C513.916 45.348 514.272 45.2173 513.849 44.9229C513.259 44.5122 512.594 42.7559 511.963 43.8106C511.588 44.4377 512.329 46.1337 512.682 46.7406C513.564 48.2619 516.447 50.6903 517.042 48.0826Z" fill="#20330B"/>
<path fill-rule="evenodd" clip-rule="evenodd" d="M514.888 56.8413C515.575 57.6096 517.684 58.553 517.963 57.1056C518.186 55.9491 516.843 55.6969 516.092 55.2299C515.605 54.927 514.305 53.5576 513.773 53.9515C512.943 54.5666 514.387 56.282 514.888 56.8413Z" fill="#20330B"/>
<path fill-rule="evenodd" clip-rule="evenodd" d="M505.098 48.897C504.757 47.9241 501.812 45.2433 501.422 46.9169C501.104 48.2838 502.694 48.424 503.451 48.7052C503.819 48.8426 505.485 49.994 505.098 48.897Z" fill="#20330B"/>
</g>
<g clip-path="url(#clip2_481_3338)">
<path fill-rule="evenodd" clip-rule="evenodd" d="M164.637 305.856C175.85 303.879 187.063 301.902 198.276 299.925C200.862 323.094 219.513 343.42 242.991 345.677C248.714 346.228 254.863 345.291 259.067 341.021C262.229 337.809 263.748 333.333 264.2 328.922C264.581 325.207 264.39 321.094 263.046 317.573C261.357 313.149 257.891 309.054 255.27 305.167C251.21 299.142 247.081 293.165 242.93 287.203C242.386 286.422 240.696 284.789 240.564 283.813C240.453 282.996 241.344 281.386 241.593 280.611L242.766 276.961C249.809 282.432 258.193 286.89 266.812 289.179C281.161 292.987 295.775 286.419 308.755 280.586C311.07 279.546 313.365 278.462 315.632 277.321C316.066 277.102 317.287 276.17 317.776 276.228C318.431 276.304 319.723 277.843 320.216 278.253C321.923 279.669 323.63 281.086 325.337 282.503C329.492 285.951 333.785 289.057 337.188 293.255C351.632 311.07 366.388 331.92 367.976 355.511C368.878 368.92 367.615 382.522 365.266 395.738C364.946 397.539 364.856 399.883 364.002 401.512C362.437 404.498 359.563 407.272 357.511 409.933C354.904 413.316 352.296 416.698 349.689 420.081C349.402 420.454 348.871 421.46 348.432 421.612C347.519 421.927 345.122 420.95 344.208 420.763C338.954 419.69 333.684 418.62 328.494 417.261C323.83 416.04 319.932 413.495 315.98 410.786C313.781 409.279 311.618 407.717 309.479 406.125C308.998 405.767 306.515 404.421 306.381 403.779C306.322 403.497 307.136 402.525 307.283 402.284C308.217 400.745 309.122 399.19 310.008 397.624C316.266 386.568 322.06 374.735 324.915 362.292C327.89 349.329 324.082 337.109 318.022 325.641C315.793 321.422 313.289 317.342 310.553 313.436C310.073 312.751 309.318 311.125 308.568 310.707C307.965 310.371 307.309 310.753 306.532 310.966C304.281 311.582 302.03 312.199 299.78 312.815C299.175 312.98 296.949 313.214 296.583 313.731C296.276 314.166 296.556 316.022 296.539 316.531C296.47 318.683 296.335 320.835 296.148 322.98C294.922 337.037 291.709 351.823 283.835 363.747C276.4 375.007 264.828 383.572 251.841 387.171C238.405 390.895 224.924 388.553 212.852 381.907C191.385 370.084 172.218 349.118 166.244 324.881C164.715 318.676 164.122 312.238 164.637 305.856Z" fill="#4D7520"/>
<path fill-rule="evenodd" clip-rule="evenodd" d="M361.66 399.952C358.507 406.71 353.205 412.39 347.422 416.995C347.235 415.812 348.127 415.17 346.765 414.519C345.851 414.081 344.369 414.35 343.374 414.208C339.685 413.678 336.159 412.041 332.784 410.544C334.005 409.853 335.458 409.443 335.52 407.702C335.566 406.386 334.237 405.442 334.018 404.142C334.915 404.054 336.527 406.472 337.192 407.006C337.12 405.94 336.385 403.835 336.993 402.885C337.44 402.186 338.384 402.651 337.873 401.407C337.389 401.622 335.661 402.858 335.134 402.243C335.954 401.874 335.589 401.412 336.055 400.925C336.414 400.549 336.676 400.395 337.101 400.103C338.2 399.346 339.121 398.225 338.513 396.728C338.31 396.227 337.718 396.13 337.552 395.584C337.392 395.059 337.616 394.574 337.69 394.065C337.774 393.494 338.014 392.898 338.034 392.319C338.077 391.122 337.952 391.101 338.845 390.141C338.151 390.432 337.457 390.724 336.764 391.015C336.861 389.784 337.05 388.507 336.829 387.28C336.754 386.866 336.044 385.606 336.207 385.252C335.731 386.285 335.276 384.74 334.953 384.539C333.934 383.903 331.624 384.367 330.563 384.77C327.629 385.883 325.095 388.987 322.805 391.055C320.288 393.328 317.665 395.906 316.207 398.98C315.844 399.745 315.279 401.417 314.245 401.53C313.688 401.59 311.848 400.356 311.439 399.905C310.441 398.801 311.211 397.875 312.049 396.903C313.132 395.644 314.088 394.573 314.88 393.085C315.826 391.304 316.684 389.471 317.588 387.667C319.484 383.886 321.388 380.087 322.996 376.172C323.51 374.92 323.76 373.588 324.211 372.348C324.606 371.267 325.854 370.271 325.807 368.815C325.791 368.316 325.492 368.104 325.636 367.732C325.726 367.501 326.255 367.915 326.435 367.631C326.785 367.078 326.407 366.276 326.439 365.67C326.489 364.712 326.93 363.954 327.349 363.112C329.051 359.692 329.255 355.583 329.4 351.814C329.557 347.741 329.295 343.69 328.994 339.632C328.729 336.059 329.292 332.455 328.771 328.901C328.32 325.831 327.742 322.742 325.946 320.27C325.123 319.139 324.728 317.7 323.983 316.502C323.539 315.788 323.063 315.022 322.436 314.454C321.83 313.905 320.922 313.819 320.374 313.308C319.611 312.599 318.955 311.22 318.128 310.497C317.414 309.874 316.542 309.325 316.007 308.327C315.282 306.973 315.303 306.234 313.89 305.565C313.072 305.178 312.209 304.955 311.876 303.912C310.557 299.785 318.581 297.014 316.713 292.55C315.135 293.368 314.077 294.912 313.005 296.272C311.602 298.053 309.993 299.416 308.224 300.826C305.127 303.293 300.99 305.475 298.89 308.93C298.084 306.417 297.652 304.934 294.796 306.246C294.674 305.198 295.782 303.63 295.145 302.777C294.026 301.276 290.43 302.962 289.338 303.642C285.064 306.306 281.901 310.204 278.77 314.108C277.387 315.833 275.78 318.062 276.084 320.404C276.353 322.475 278.051 324.11 279.521 325.434C281.601 327.307 283.632 327.897 286.127 329C287.273 329.505 288.175 330.366 289.499 330.127C290.645 329.92 291.677 329.103 292.75 328.686C292.741 329.399 293.075 330.137 293.92 329.774C293.583 334.139 293.271 338.417 291.687 342.544C290.234 346.331 288.654 350.095 286.744 353.675C284.774 357.368 282.663 361.086 279.933 364.277C277.231 367.434 273.853 369.895 270.655 372.512C270.431 370.977 269.446 371.383 268.306 371.703C268.188 370.79 268.861 370.339 268.569 369.469C268.298 369.165 268.077 368.827 267.907 368.453C267.997 367.86 268.048 367.263 268.06 366.663C267.117 366.735 266.633 367.024 265.996 367.7C265.45 365.086 264.47 365.081 262.086 364.471C258.892 363.655 257.021 366.042 255.167 368.252C254.726 368.779 254.024 369.396 253.755 370.05C253.564 370.511 253.729 371.441 253.594 371.667C253.314 372.133 252.993 371.567 252.79 371.776C252.045 372.543 251.513 373.8 250.955 374.712C249.462 377.152 247.892 381.369 244.799 382.036C242.21 382.595 238.98 381.886 236.379 381.574C232.286 381.083 228.163 379.908 224.241 378.671C220.736 377.565 216.417 376.642 213.519 374.257C213.094 373.908 211.139 372.086 211.852 371.707C212.162 371.543 213.297 372.344 213.511 372.565C213.366 372.415 213.58 371.3 213.57 371.029C213.532 370.019 213.289 369.907 212.885 369.021C211.988 367.058 213.632 368.359 213.856 367.23C213.899 367.012 212.243 367.079 212.289 367.078C212.443 366.763 212.969 366.174 212.919 365.792C212.955 366.072 212.642 363.718 212.608 364.221C212.673 363.246 213.589 362.559 213.739 361.644C213.952 360.348 212.967 360.305 212.494 359.345C212.331 359.016 212.398 358.475 212.252 358.11C212.188 357.952 211.816 357.808 211.799 357.728C211.684 357.195 211.725 357.126 212.301 356.267C211.702 356.328 210.013 356.835 209.644 356.144C209.201 355.312 210.788 355.015 209.808 354.225C209.413 353.907 208.999 354.309 208.592 354.195C208.319 354.119 208.48 353.437 208.086 353.504C207.385 353.623 206.807 354.884 206.359 355.367C206.088 351.055 199.223 355.794 197.854 356.984C196.586 358.086 195.671 360.773 193.693 359.907C192.655 359.452 191.799 357.882 191.128 357.033C190.143 355.787 189.025 354.655 187.977 353.462C183.324 348.162 179.113 342.615 175.416 336.606C174.056 334.396 172.185 331.594 172.735 329.022C172.956 327.992 173.127 327.043 173.175 325.944C173.27 323.734 172.419 323.855 171.149 322.226C172.213 321.15 173.164 321.383 173.607 319.81C173.966 318.532 173.887 317.116 173.837 315.814C173.772 314.154 174.047 312.399 172.59 311.475C171.039 310.492 170.504 311.227 169.003 312.055C169.324 311.453 170.362 309.997 169.777 309.353C168.962 308.458 167.741 310.405 166.883 310.382C166.691 308.657 165.158 305.576 167.24 304.593C168.29 304.097 169.952 304.311 171.1 304.174C172.806 303.973 174.501 303.658 176.192 303.356C183.707 302.017 191.137 300.306 198.631 298.857C198.919 301.816 199.067 304.798 199.551 307.736C199.954 310.186 201.245 312.798 200.367 315.264C199.454 317.83 197.46 320.003 196.346 322.506C195.609 324.163 195.649 324.922 197.731 324.933C197.515 326.169 198.872 328.496 199.696 329.425C201.023 330.919 203.224 329.669 204.72 328.937C205.281 329.963 205.088 331.151 205.48 332.22C205.93 331.968 206.208 330.932 206.474 330.834C206.73 330.74 207.332 331.32 207.48 331.363C207.706 331.428 207.72 330.734 207.903 330.785C208.023 332.39 210.118 330.443 211.086 331.827C211.171 331.032 211.464 330.844 212.218 330.693C212.054 332.343 213.644 332.053 214.761 332.6C216.746 333.571 218.404 335.389 220.28 336.576C224.146 339.019 227.933 340.901 232.296 342.225C234.042 342.756 234.688 343.254 235.276 344.939C235.501 345.579 235.482 346.286 236.08 346.747C236.955 347.422 237.226 346.775 238.089 346.845C238.968 346.916 238.605 346.572 239.245 347.224C239.638 347.624 239.664 348.503 239.932 348.997C240.691 350.393 241.727 351.163 243.102 350.025C243.107 350.604 243.253 350.828 243.553 351.306C243.759 350.462 244.167 348.769 245.406 349.598C246.332 350.217 245.387 351.53 246.916 351.741C247.773 351.859 248.824 350.904 249.5 350.47C250.425 349.875 250.097 350.995 250.672 349.655C251.012 348.861 250.804 347.671 250.709 346.852C251.844 347.493 251.648 348.848 252.82 349.35C254.132 349.911 255.401 348.337 256.602 349.103C256.572 348.761 256.406 347.596 256.717 347.367C257.195 347.015 257.321 348.255 257.871 348.319C258.47 348.387 259.587 347.058 259.635 346.505C259.729 345.402 258.451 345.277 258.258 344.317C258.083 343.439 258.888 342.192 259.127 341.38C259.453 340.272 259.556 339.075 260.1 338.039C260.672 336.949 261.561 336.182 262.629 335.585C263.372 335.171 265.205 334.748 264.076 333.634C266.747 333.52 266.129 330.602 266.973 328.613C267.498 327.376 268.31 326.613 268.466 325.152C268.653 323.405 268.268 321.599 267.808 319.923C267.351 318.253 266.834 316.674 265.808 315.267C265.523 314.905 265.238 314.543 264.953 314.181C264.815 313.749 264.532 313.546 264.104 313.571C263.638 312.905 263.648 312.488 263.409 311.671C262.806 309.617 261.044 308.133 259.682 306.59C258.375 305.109 257.393 303.334 255.964 301.963C255.971 301.97 254.431 300.625 254.516 300.873C254.165 299.852 255.12 299.035 255.373 298.138C255.633 297.216 255.215 296.638 255.212 295.77C255.209 294.738 256.128 293.752 255.846 292.739C255.736 292.344 255.345 292.118 255.176 291.747C254.888 291.115 254.902 290.394 254.585 289.761C253.947 290.158 253.308 290.555 252.671 290.952C252.551 289.45 252.554 289.07 251.029 289.971C248.702 291.346 248 290.205 247.182 287.969C246.911 287.23 246.413 286.942 246.208 286.397C245.882 285.53 246.86 284.51 246.271 283.656C245.927 283.158 245.175 283.308 244.985 282.58C244.751 281.685 245.877 280.829 245.71 279.856C251.589 284.028 257.736 287.824 264.814 289.543C271.689 291.213 279.078 291.771 286.119 291.025C298.336 289.732 311.269 285.302 319.1 275.368C319.756 276.941 318.812 279.124 319.611 280.631C320.797 282.871 321.724 279.453 322.068 278.381C323.334 279.196 325.121 280.418 324.692 282.14C324.258 283.88 322.155 285.162 321.118 286.538C320.076 287.921 319.227 289.636 318.831 291.323C318.632 292.166 318.511 293.066 318.689 293.925C318.906 294.975 319.479 295.11 320.023 295.732C319.933 295.63 320.681 296.581 320.655 296.565C322.509 297.693 323.638 299.72 325.972 299.867C327.476 299.962 329.147 299.378 329.007 301.576C330.182 301.237 330.463 300.773 330.744 299.807C330.865 299.388 330.39 298.844 331.022 298.903C331.232 298.923 331.68 300.047 331.94 300.221C332.66 300.702 333.067 300.482 333.64 300.01C333.971 299.737 334.731 297.422 335.01 297.458C335.604 297.534 336.006 300.298 336.18 300.826C338.38 293.978 342.979 304.211 344.717 306.438C346.132 308.25 347.747 309.972 348.749 312.066C350.025 314.733 349.084 315.742 347.068 317.534C344.837 319.518 342.877 322.034 340.742 324.164C339.671 325.233 338.386 326.516 337.927 328.011C337.772 328.515 337.895 329.127 337.711 329.605C337.445 330.298 337.008 330.487 336.525 331.013C335.138 332.528 335.188 334.885 336.632 336.32C337.557 337.24 338.58 337.961 339.439 338.957C340.348 340.008 341.225 341.11 342.586 341.599C343.465 341.915 344.033 341.835 344.805 342.377C345.329 342.744 345.647 343.424 346.343 343.575C347.734 343.876 349.201 342.706 350.684 342.845C351.782 342.948 353.071 343.507 354.048 342.712C355.259 341.726 354.115 339.987 355.715 339.235C355.851 339.977 355.844 340.771 355.696 341.511C356.368 340.67 356.761 339.947 357.573 339.261C358.422 338.543 358.928 338.061 359.282 336.926C359.917 334.889 359.542 332.679 359.671 330.588C361.363 331.236 361.829 334.657 362.181 336.142C362.829 338.881 363.535 341.605 364.174 344.346C364.978 347.787 366.156 351.665 366.245 355.208C366.324 358.406 363.302 359.475 361.213 361.383C358.742 363.64 357.413 366.134 355.596 368.822C354.142 370.973 353.217 373.582 354.577 376.005C355.185 377.087 356.135 377.907 357.072 378.69C358.19 379.624 358.222 380.687 359.513 381.405C360.543 381.977 361.727 382.477 362.864 382.804C364.81 383.363 364.314 382.503 365.773 381.631C365.072 382.665 365.853 384.111 365.83 385.257C365.799 386.863 365.38 388.513 365.074 390.085C364.404 393.533 363.14 396.779 361.66 399.952ZM326.093 422.071C324.487 421.123 321.832 420.53 320.551 419.169C319.663 418.227 320.337 417.809 321.147 416.826C323.34 414.162 326.828 414.908 329.552 416.701C328.399 418.491 327.246 420.281 326.093 422.071ZM321.842 446.005C326.378 450.741 331.345 455.851 334.329 461.735C335.03 463.118 337.087 466.351 336.162 467.947C335.195 469.614 331.779 468.134 330.49 467.667C324.253 465.408 318.849 461.928 314.085 457.34C309.529 452.953 305.187 448.567 302.756 442.625C301.771 440.218 299.792 436.357 300.992 433.758C302.183 431.178 305.597 430.03 307.737 428.394C309.836 426.789 313.068 422.842 315.967 423.019C317.231 423.096 318.193 424.131 319.176 424.812C320.114 425.462 321.689 425.966 322.355 426.947C323.561 428.725 321.983 431.424 320.029 431.693C318.729 431.872 317.344 431.684 316.037 431.696C314.567 431.71 307.215 431.575 308.978 434.663C310.204 436.812 313.922 435.863 315.927 436.018C316.956 436.099 318.587 436.298 318.805 437.571C319.017 438.81 317.66 439.591 316.628 439.804C315.097 440.121 313.475 439.474 312.004 440.191C310.803 440.776 310.23 441.745 311.319 442.68C314.214 445.168 318.956 442.991 321.842 446.005ZM269.285 373.028C269.333 372.216 269.963 371.949 270.638 372.528C270.31 372.962 269.859 373.129 269.285 373.028ZM209.621 371.769C208.946 371.446 209.517 370.647 209.949 370.299C210.301 370.814 210.191 371.304 209.621 371.769ZM170.381 325.088C169.804 323.8 171.716 322.504 172.805 323.747C172.153 324.266 171.11 324.476 170.381 325.088ZM180.577 282.17C179.954 279.118 181.656 273.47 177.989 271.915C176.641 271.343 173.612 272.288 172.684 271.084C171.843 269.992 173.99 266.545 172.398 266.096C170.156 265.463 169.9 270.169 168.554 270.923C167.783 271.354 166.412 271.186 165.647 270.822C164.484 270.27 164.556 269.688 164.891 268.54C165.138 267.69 166.833 264.513 164.757 264.464C163.245 264.428 162.627 267.498 162.153 268.505C160.388 272.254 154.751 270.241 151.659 269.614C149.784 269.233 140.86 267.857 143.948 264.723C145.254 263.398 147.632 262.711 149.317 262.037C152.185 260.891 155.249 260.245 158.319 259.965C164.028 259.444 170.053 260.126 175.26 262.621C181.124 265.429 185.202 270.075 187.831 275.951C188.374 277.165 190.063 280.111 188.717 281.16C187.969 281.744 186.149 281.363 185.272 281.388C183.683 281.433 182.083 281.638 180.577 282.17ZM188.997 286.958C191.335 286.84 190.973 289.589 191.325 291.25C191.626 292.673 192.563 294.986 191.31 296.141C190.171 297.192 187.703 297.243 186.278 297.383C184.413 297.566 182.532 297.543 180.668 297.734C180.466 295.421 180.396 293.094 180.14 290.789C179.996 289.488 179.453 287.589 180.715 286.74C182.803 285.337 186.677 287.076 188.997 286.958ZM271.496 228.652C272.406 226.369 273.691 227.625 273.766 229.421C273.847 231.371 273.254 233.467 272.714 235.323C272.302 236.738 271.309 238.838 270.626 236.363C269.969 233.986 270.608 230.876 271.496 228.652ZM276.709 240.707C275.571 243.458 274.585 240.986 274.479 239.29C274.324 236.814 274.579 233.761 275.655 231.493C276.896 228.877 277.68 231.022 277.738 232.885C277.821 235.521 277.029 238.109 276.709 240.707ZM280.951 239.527C278.977 239.435 279.584 227.824 282.154 228.247C284.29 228.598 282.897 239.618 280.951 239.527ZM287.864 242.979C287.084 245.348 285.726 242.846 285.349 241.667C284.656 239.508 284.508 236.569 285.13 234.39C285.714 232.345 287.129 230.986 287.847 233.621C288.645 236.549 288.251 240.021 287.864 242.979ZM280.806 210.466C284.168 206.075 287.841 202.224 292.193 198.806C292.973 198.193 293.791 197.471 294.712 197.079C295.457 196.762 296.339 196.905 297.046 196.589C298.469 195.955 297.943 194.691 297.034 193.827C295.508 192.375 292.252 191.468 294.444 188.977C297.473 185.535 301.274 189.217 302.179 192.508C303.444 191.041 304.576 191.862 306.155 192.241C308.516 192.808 311.039 192.4 313.355 193.187C315.502 193.917 317.152 195.605 319.303 196.338C321.699 197.155 323.679 197.901 325.806 199.329C323.791 201.408 321.49 203.366 318.66 204.194C319.326 203.556 321.441 201.948 320.326 200.958C319.572 200.288 317.174 201.307 316.306 201.442C316.503 200.725 316.474 199.929 316.233 199.227C313.437 200.09 313.326 203.075 314.792 205.201C312.804 205.541 310.773 205.748 308.769 205.422C306.791 205.101 305.038 204.048 303.059 203.764C299.587 203.266 296.18 205.424 294.616 208.491C293.767 210.156 293.307 214.882 295.836 211.916C296.341 211.324 296.747 210.564 297.392 210.108C298.456 209.356 298.916 209.889 299.933 210.478C300.776 210.966 302.3 211.674 302.322 212.788C302.341 213.787 301.148 214.737 300.473 215.276C298.156 217.125 295.169 218.407 292.178 218.033C290.485 217.822 278.413 213.594 280.806 210.466ZM294.947 179.499C294.144 178.484 295.486 176.944 295.902 176.069C295.975 176.462 296.049 176.854 296.124 177.247C296.685 175.064 297.533 173.428 298.658 171.495C299.085 170.762 299.238 170.07 299.528 169.291C299.694 168.845 299.712 168.497 299.987 168.285C300.339 168.012 300.299 169.121 300.315 169.027C301.83 168.062 301.033 167.499 301.777 166.277C301.787 166.262 303.131 165.514 303.307 165.348C304.143 164.555 304.368 164.219 305.459 163.953C306.565 163.684 306.074 164.144 306.964 163.094C307.822 162.083 308.05 161.268 308.722 160.137C309.052 160.591 309.485 160.74 310.021 160.585C309.649 160.341 309.516 160.004 309.625 159.572C310.788 159.819 312.136 159.047 313.039 159.753C312.923 159.228 313.559 156.637 314.399 156.913C314.299 157.319 314.172 157.715 314.017 158.103C315.072 157.26 316.696 156.033 317.832 155.505C318.69 155.106 318.446 155.224 319.282 155.398C320.002 155.548 319.928 155.812 320.725 155.38C320.697 154.66 321.004 154.308 321.647 154.325C321.853 154.304 322.06 154.284 322.266 154.263C323.262 154.025 323.754 153.551 324.625 153.092C325.303 152.734 326.453 152.858 327.004 152.46C327.597 152.033 327.693 150.686 328.378 150.437C329.13 150.164 328.974 150.784 329.578 150.917C329.664 150.936 330.657 150.757 330.849 150.754C332.237 150.734 333.45 150.936 334.818 150.312C335.277 150.103 335.727 149.564 336.151 149.424C336.851 149.192 337.504 149.492 338.201 149.313C338.422 149.257 338.866 148.83 339.145 148.71C339.965 148.355 340.933 148.359 341.806 148.367C343.613 148.384 345.323 148.374 347.133 148.197C351.02 147.817 355.185 147.774 359.08 148.085C359.528 148.121 360.581 148.522 360.956 148.42C361.233 148.344 361.596 147.9 361.662 147.886C362.466 147.71 363.698 147.618 364.712 147.652C367.687 147.751 367.306 149.265 365.064 150.278C363.074 151.177 360.898 151.553 358.886 152.377C355.606 153.721 352.898 156.389 350.278 158.693C352.21 160.537 355.85 160.467 358.328 160.732C359.587 160.867 360.849 161.244 362.012 161.618L362.454 161.525C362.817 161.419 362.984 161.563 362.955 161.958C362.848 162.441 363.053 162.59 363.57 162.404C363.839 162.323 364.111 162.262 364.388 162.221C364.893 162.115 365.796 161.547 366.312 161.819C367.071 162.219 366.462 162.458 366.917 162.824C367.966 163.666 368.896 162.763 370.067 162.946C370.469 163.01 370.918 163.481 371.354 163.57C371.741 163.555 372.119 163.486 372.485 163.364C372.785 163.452 372.947 163.662 372.974 163.992C373.881 164.29 375.627 164.612 376.077 163.489C376.328 164.905 376.829 164.611 378.01 164.37C377.545 165.819 381.075 165.591 381.934 165.864C384.146 166.567 386.335 166.307 388.069 168.105C383.833 168.571 379.401 167.958 375.209 168.685C373.314 169.014 370.453 170.748 371.03 173.087C371.372 174.476 372.72 174.836 373.938 175.075C375.485 175.377 376.544 176.334 378.089 176.762C381.222 177.63 384.269 181.202 387.745 179.549C388.402 181.511 389.781 181.948 391.5 182.607C392.298 182.913 397.084 185.424 396.56 186.338C396.266 186.853 393.564 186.942 393.146 186.987C391.576 187.154 390.001 187.175 388.426 187.075C385.585 186.897 383.013 186.025 380.231 185.585C378.208 185.265 375.471 185.596 375.213 188.208C374.986 190.507 377.692 190.842 379.393 191.223C381.253 191.639 383.058 191.99 384.85 192.654C386.289 193.188 389.335 194.066 389.793 195.796C384.807 197.41 379.487 196.534 374.466 195.589C368.66 194.496 362.839 193.601 356.938 193.214C357.614 192.523 360.388 190.107 359.961 188.982C359.438 187.605 355.391 191.182 354.526 191.56C347.154 194.777 338.184 195.685 330.241 196.231C333.48 194.11 337.602 193.275 341.18 191.861C343.644 190.888 348.029 189.415 347.693 186.032C338.995 188.221 330.285 194.401 320.972 191.997C325.002 190.668 329.353 190.048 333.036 187.808C333.898 187.284 336.86 185.178 335.895 183.768C335.136 182.659 332.459 184.847 331.561 185.219C325.248 187.834 317.287 189.207 310.473 189.195C308.024 189.19 304.585 189.414 303.042 187.211C300.973 184.256 298.862 183.504 295.243 184.169C295.37 182.719 295.952 180.77 294.947 179.499ZM329.555 296L329.004 297.714C328.105 297.324 328.835 296.479 328.422 295.85C328.8 295.9 329.177 295.95 329.555 296ZM329.025 293.639C328.986 294.729 328.986 294.729 327.837 294.236C328.38 293.963 328.67 293.817 329.025 293.639ZM333.051 296.477C333.848 296.323 332.555 298.366 331.85 296.867C332.251 296.737 332.651 296.607 333.051 296.477ZM336.481 294.027C336.118 294.722 335.756 295.417 335.394 296.112C335.103 295.658 334.813 295.205 334.523 294.75C335.176 294.509 335.828 294.268 336.481 294.027ZM365.968 378.906C366.983 378.666 366.524 380.685 366.495 381.087C366.035 380.599 364.371 379.284 365.968 378.906ZM245.376 175.522C243.251 177.08 241.124 178.656 239.205 180.468C238.139 181.475 237.074 183.105 235.588 183.53C234.266 183.908 232.438 183.443 231.119 183.356C228.472 183.178 225.819 183.093 223.167 183.164C214.116 183.409 204.832 185.79 197.025 190.46C193.264 192.71 189.804 195.582 187.229 199.153C184.277 203.247 183.238 208.2 181.183 212.73C180.689 213.818 179.157 217.772 177.658 217.853C175.814 217.952 176.624 213.831 176.76 212.728C176.931 211.343 179.11 202.193 176.269 202.191C174.536 202.19 172.854 207.394 172.359 208.604C171.234 211.354 170.013 214.049 168.584 216.657C167.469 218.688 166.223 220.658 165.014 222.636C163.952 224.374 162.729 226.476 160.847 227.438C161.644 221.359 163.545 214.854 167.298 209.919C168.325 208.569 174.211 201.843 171.468 200.127C169.83 199.102 167.048 202.903 166.204 203.872C163.377 207.117 160.839 210.608 158.206 214.008C156.477 216.24 154.084 220.499 151.272 221.533C152.492 214.926 156.256 209.158 160.268 203.91C160.984 202.973 169.054 193.931 164.633 193.771C162.219 193.684 159.154 197.906 157.658 199.437C153.994 203.188 149.763 206.951 144.949 209.13C145.909 205.538 149.374 202.522 151.306 199.396C153.527 195.803 155.97 192.583 159.152 189.776C165.042 184.581 171.992 180.11 178.726 176.094C185.679 171.949 193.142 168.667 200.884 166.306C208.657 163.936 216.239 163.284 224.312 163.981C233.35 164.762 242.853 166.56 250.487 171.749C248.784 173.007 247.084 174.271 245.376 175.522ZM381.953 228.667C381.808 228.651 381.664 228.634 381.52 228.618C381.62 227.923 381.721 227.228 381.821 226.534C382.504 227.297 381.519 227.911 381.953 228.667ZM348.535 211.65C359.9 210.465 371.434 210.599 382.801 211.681C390.527 212.416 398.961 214.265 405.102 219.302C412.192 225.116 412.797 234.795 410.513 243.129C407.851 252.842 401.674 260.88 394.34 267.583C392.579 269.193 382.725 279.174 380.619 277.034C382.224 274.973 392.443 263.731 388.851 261.291C386.784 259.888 382.933 265.799 381.679 267.004C380.829 267.822 374.967 273.573 373.943 272.591C376.275 269.269 378.897 265.913 380.047 261.953C380.917 258.962 379.817 257.07 377.196 259.615C371.473 265.172 365.509 270.841 358.514 274.777C359.359 270.463 363.06 266.59 365.646 263.19C367.675 260.521 370.061 257.978 371.431 254.879C372.173 253.2 373.223 249.749 370.433 249.517C368.005 249.316 365.351 251.315 363.132 252.079C365.304 249.964 367.436 247.8 369.77 245.861C371.77 244.2 373.975 242.806 375.966 241.136C376.853 240.392 377.471 239.591 378.16 238.726C378.839 237.873 379.565 237.51 380.475 236.827C381.151 236.319 381.585 235.843 381.959 235.164C382.098 234.911 382.041 234.448 382.168 234.151C382.391 233.631 383 233.669 383.011 232.992C383.559 234.68 384.152 231.898 384.294 231.392C384.793 229.614 386.114 227.939 385.761 226.022C385.018 221.982 379.375 220.906 376.086 220.123C371.375 219.002 365.287 218.199 360.551 219.421C359.34 219.733 358.824 219.167 357.575 219.304C356.433 219.43 355.268 219.567 354.103 219.672C351.077 219.947 348.084 220.531 345.069 220.898C345.84 218.976 346.902 217.201 347.223 215.137C347.361 214.252 347.229 211.786 348.535 211.65ZM369.553 386.69C370.552 380.587 371.417 374.511 371.688 368.328C371.818 365.373 372.122 362.415 372.211 359.462C372.283 357.115 370.741 355.418 370.449 353.117C369.762 347.705 369.244 342.396 368.041 337.04C366.783 331.445 364.809 326.236 362.094 321.188C356.587 310.951 349.261 302.128 342.42 292.804C338.909 288.018 335.092 283.605 330.765 279.534C329.021 277.893 327.294 276.475 325.32 275.138C323.275 273.753 322.396 272.619 322.288 270.086C322.068 264.883 319.34 262.326 315.513 259.146C313.783 257.708 312.331 256.02 310.645 254.54C308.892 253.002 306.956 251.632 305.44 249.842C298.546 241.7 313.648 234.215 319.518 231.659C321.806 230.663 324.341 229.701 326.863 229.652C329.476 229.601 332.836 230.156 335.399 230.736C337.138 231.129 339.28 232.686 341.116 231.795C342.596 231.077 342.715 229.204 343.016 227.792C343.859 223.828 347.11 224.541 350.505 224.884C355.808 225.418 361.164 224.68 366.492 225.163C369.893 225.47 379.384 226.17 377.717 231.535C376.454 235.602 372.108 238.705 369.135 241.406C366.811 243.517 364.415 245.51 362.022 247.539C360.233 249.056 358.495 250.793 357.777 253.091C357.21 254.906 357.363 256.928 359.576 257.343C362.062 257.81 364.612 256.021 366.964 255.515C366.25 258.018 363.485 260.185 362.016 262.285C360.283 264.762 358.618 267.381 357.226 270.067C356.338 271.78 353.254 278.488 357.213 278.772C359.881 278.963 363.037 276.461 365.083 275.042C367.238 273.547 369.27 271.898 371.314 270.258C371.354 273.082 364.431 276.296 366.402 279.463C368.507 282.843 376.302 275.774 378.226 274.624C377.845 276.65 373.709 280.078 376.534 281.971C378.532 283.31 382.498 281.277 384.338 280.311C387.701 278.546 389.18 275.005 391.764 272.391C394.722 269.399 398.089 266.887 400.941 263.77C409.927 253.947 418.098 237.741 413.257 224.196C409.989 215.051 400.638 210.646 391.791 208.552C381.723 206.169 371.158 206.07 360.872 206.542C353.965 206.859 347.069 207.483 340.191 208.174C335.115 208.684 330.044 209.252 324.978 209.852C322.527 210.143 320.105 210.531 317.675 210.957C315.669 211.308 313.294 211.702 311.461 210.546C313.599 208.827 316.69 209.022 319.204 208.288C322.179 207.421 324.44 205.031 326.213 202.586C328.122 199.952 329.202 199.523 332.408 199.706C335.614 199.888 338.781 199.539 341.916 198.856C349.27 197.256 356.781 197.403 364.184 198.553C370.735 199.57 377.469 201.244 384.137 200.479C389.101 199.909 395.949 197.318 392.075 191.261C396.681 189.747 404.758 187.342 400.387 181.042C396.999 176.158 390.126 174.244 384.769 172.522C386.039 171.215 388.678 171.473 390.337 171.074C392.382 170.58 394.858 170.13 396.112 168.265C398.164 165.216 394.807 163.056 392.354 161.896C383.029 157.487 371.778 154.935 361.468 155.357C362.494 153.817 365.293 153.338 366.928 152.86C369.106 152.223 371.301 151.466 373.169 150.136C374.154 149.433 374.989 148.6 375.496 147.491C376.043 146.294 375.742 146.777 375.473 146.327C374.482 144.665 372.783 143.274 370.932 142.589C365.597 140.614 359.972 141.613 354.438 141.213C351.99 141.035 349.8 140.581 347.312 140.862C344.312 141.201 341.28 141.365 338.291 141.767C336.902 141.954 335.548 142.276 334.157 142.43C332.895 142.57 332.44 143.108 331.309 143.574C330.271 144.002 329.475 143.37 328.384 143.588C326.875 143.89 325.256 144.743 323.782 145.248C318.041 147.215 312.393 149.777 307.285 153.07C298.467 158.754 288.327 168.692 289.401 180.201C289.652 182.887 291.791 184.413 291.555 187.182C291.348 189.608 290.709 191.877 290.66 194.321C290.609 196.798 287.22 198.047 285.472 199.516C282.738 201.813 280.904 204.816 278.856 207.693C278.816 206.729 279.174 205.241 278.449 204.447C277.57 203.487 277.144 204.765 276.556 203.938C275.865 202.967 275.98 200.077 275.791 198.85C275.539 197.214 275.264 195.58 274.886 193.968C273.347 187.384 269.612 181.479 265.095 176.515C255.87 166.379 242.471 161.306 229.107 159.618C215.687 157.923 202.671 160.689 190.245 165.751C183.363 168.555 176.963 172.055 170.855 176.289C164.855 180.448 158.761 184.419 153.643 189.675C150.768 192.626 148.018 195.758 145.817 199.253C144.11 201.965 142.22 205.318 142.221 208.625C142.222 211.456 144.165 213.6 147.108 212.706C149.691 211.922 151.483 209.581 153.576 208.02C152.787 211.468 144.733 222.508 150.499 225.002C154.757 226.844 159.617 217.25 161.49 214.62C160.847 218.762 158.301 222.641 158.56 226.923C158.685 229 159.855 233.065 162.607 231.022C163.839 230.107 164.446 228.433 165.195 227.149C166.137 225.53 167.169 223.964 168.109 222.343C170.477 218.257 172.443 213.967 174.606 209.772C174.923 213.05 173.004 218.219 175.512 220.992C178.055 223.804 181.121 219.084 182.15 217.105C183.879 213.778 184.751 210.081 186.402 206.715C188.076 203.304 190.387 200.487 193.296 198.055C203.647 189.404 219.153 185.338 232.277 188.957C230.717 191.417 224.508 197.053 229.677 198.84C230.842 199.242 231.985 199.378 233.134 199.888C234.547 200.515 236.047 201.823 237.543 202.188C238.451 202.408 238.535 202.027 239.274 202.85C240.049 203.712 239.91 204.575 241.368 203.613C241.685 205.323 243.391 206.3 244.572 207.381C244.71 207.01 244.847 206.639 244.985 206.267C245.451 207.764 246.311 208.283 247.435 209.303C248.155 209.956 248.786 210.029 249.482 210.471C250.324 211.005 250.621 211.66 251.297 212.395C252.031 213.193 253.625 213.637 254.057 214.657C254.823 216.462 252.171 218.242 251.104 219.232C248.103 222.014 245.58 225.543 243.535 229.067C243.013 229.966 242.592 230.584 242.439 231.593C242.306 232.47 242.749 231.948 242.332 232.72C242.184 232.993 241.446 233.431 241.282 233.61C239.893 235.122 239.259 237.515 238.6 239.416C237.027 243.96 236.217 248.475 236.051 253.277C235.978 255.383 235.814 257.551 235.899 259.656C235.979 261.612 236.607 262.993 235.657 264.775C233.621 268.596 237.514 271.061 239.015 274.347C239.695 275.836 239.41 277.366 239.17 278.925C238.823 281.173 238.897 283.364 239.13 285.625C239.539 289.587 240.173 294.793 242.215 298.277C243.134 299.844 243.908 301.501 245.098 302.832C245.654 303.455 246.195 304.714 246.897 305.149C247.563 305.561 247.552 304.709 248.133 305.597C248.578 306.277 248.313 306.991 248.971 307.811C249.602 308.598 250.323 309.318 251.02 310.046C252.435 311.525 254.004 312.999 255.187 314.674C256.333 316.296 257.452 317.977 258.601 319.612C259.659 321.117 260.218 322.747 260.119 324.604C259.687 332.76 250.692 336.88 243.75 338.118C234.767 339.721 226.342 336.067 219.398 330.569C212.199 324.869 205.927 316.639 203.411 307.727C202.786 305.511 202.185 303.161 201.907 300.873C201.723 299.369 202.067 297.701 201.641 296.236C200.684 292.952 195.524 295.562 193.302 295.965C194.297 283.278 193.212 268.244 182.103 260.019C171.571 252.223 155.239 252.218 144.434 259.487C141.887 261.2 138.103 264.086 138.334 267.55C138.536 270.563 141.832 272.288 144.263 273.365C147.728 274.9 151.652 275.654 155.427 275.793C156.397 275.829 158.149 275.606 159.005 276.184C160.333 277.083 159.593 279.197 159.976 280.545C160.364 281.909 161.488 282.14 162.204 280.779C162.888 279.48 162.037 277.779 163.501 276.901C164.316 276.412 166.511 276.497 167.178 277.296C167.737 277.965 167.353 279.377 167.704 280.196C168.673 282.455 169.759 279.647 170.461 278.541C171.517 276.878 174.036 276.13 175.779 277.586C176.87 278.497 176.565 280.524 176.516 281.792C176.416 284.383 176.136 286.825 176.29 289.43C176.408 291.418 177.734 297.274 175.786 298.55C174.583 299.338 172.217 299.237 170.836 299.246C168.91 299.259 166.711 298.93 164.823 299.317C163.936 299.5 161.906 300.123 161.393 300.924C160.523 302.281 162.307 302.928 163.389 302.445C163.513 311.084 164.153 319.749 166.821 328.019C169.499 336.317 173.991 343.928 179.034 350.993C188.896 364.81 202.077 376.139 217.734 382.859C225.742 386.296 234.503 388.351 243.241 387.999C244.227 387.959 245.242 387.871 246.223 388.019C247.112 388.152 247.885 388.723 248.746 388.85C249.863 389.015 249.71 388.514 250.566 388.164C251.356 387.841 252.386 387.972 253.22 387.742C257.377 386.593 261.508 384.428 265.182 382.208C272.085 378.037 279.401 372.423 284.141 365.825C288.904 359.197 291.542 351.376 294.723 343.94C296.691 339.34 296.678 334.475 297.388 329.59C298.115 324.587 298.682 319.62 299.088 314.588C299.248 312.598 299.675 311.257 301.56 310.377C303.028 309.691 304.707 309.32 305.981 310.518C307.316 311.773 308.219 313.865 309.331 315.342C310.478 316.865 310.724 318.485 312.761 317.216C312.275 318.729 312.858 319.418 313.972 320.325C315.467 321.542 316.834 322.769 318.054 324.281C320.693 327.551 322.153 331.686 322.92 335.781C323.736 340.148 324.83 344.7 324.942 349.15C325.065 354.001 323.677 358.978 322.358 363.608C320.981 368.448 319.479 373.286 317.669 377.982C315.957 382.424 314.071 387.425 311.339 391.345C308.327 395.667 301.816 399.569 307.234 404.839C311.034 408.534 316.686 409.753 320.392 413.491C319.523 414.224 318.804 415.139 317.894 415.826C316.748 416.692 316.051 416.457 314.691 416.514C312.2 416.62 312.848 418.304 312.054 419.992C311.348 421.49 308.684 422.599 307.317 423.427C305.258 424.674 303.154 425.888 301.313 427.453C297.324 430.844 295.843 435.46 296.859 440.562C297.754 445.047 299.387 450.346 302.346 453.902C305.576 457.785 309.644 461.548 313.524 464.769C317.012 467.665 320.919 470.056 325.036 471.952C328.122 473.372 332.42 475.169 335.767 473.578C338.834 472.119 340.525 468.776 340.366 465.477C339.994 457.744 333.42 451.05 328.925 445.294C330.952 445.243 333.422 445.799 335.304 444.805C337.656 443.561 336.52 441.481 334.482 440.848C332.713 440.3 330.731 440.297 328.892 440.267C327.257 440.24 324.115 440.626 322.899 439.23C321.291 437.385 323.864 436.872 325.115 436.674C327.464 436.301 327.77 434.966 326.155 433.273C323.548 430.539 328.1 431.919 329.071 430.521C330.298 428.754 328.415 426.069 329.276 423.987C330.097 421.999 331.879 418.618 333.941 417.67C335.365 417.017 337.219 417.711 338.671 417.931C341.02 418.287 343.42 418.325 345.793 418.331C345.213 422.389 349.386 419.914 351.088 418.767C354.293 416.605 356.36 413.406 358.659 410.374C361.248 406.959 363.612 403.549 365.621 399.754C367.811 395.617 368.802 391.278 369.553 386.69Z" fill="#20330B"/>
<path fill-rule="evenodd" clip-rule="evenodd" d="M203.661 384.262C202.808 384.766 200.124 382.827 199.334 382.46C196.99 381.371 194.675 380.713 192.454 379.327C190.753 378.265 188.371 376.363 186.479 376.059C186.32 376.033 186.335 376.593 186.078 376.507C185.745 376.395 185.645 376.091 185.35 375.855C184.654 375.294 184.248 374.404 183.22 374.736C183.424 372.745 182.217 374.159 181.284 373.845C180.3 373.512 181.04 372.452 180.053 371.968C179.268 371.583 178.761 371.983 177.964 371.339C176.859 370.448 176.192 369.454 174.917 368.671C173.474 367.786 172.616 366.906 171.381 365.804C170.3 364.842 168.961 364.217 167.853 363.281C164.985 360.86 162.289 358.139 159.697 355.429C154.766 350.275 149.849 345.336 145.838 339.392C144.37 337.217 143.535 335.06 142.596 332.637C141.959 330.991 140.946 327.901 138.837 327.682C139.71 326.551 138.834 325.045 138.277 323.994C137.416 322.373 136.76 320.742 136.179 318.993C135.631 317.347 135.378 315.781 135.263 314.063C135.175 312.761 135.249 311.513 133.619 312.263C130.373 313.759 132.133 319.334 132.874 321.803C134.099 325.886 135.296 330.021 137.069 333.905C140.374 341.15 144.552 348.121 149.867 354.059C152.614 357.128 155.615 360.025 158.842 362.585C161.724 364.872 164.754 366.561 167.835 368.524C169.671 369.694 171.355 371.002 173.283 372.025C174.032 372.423 174.753 372.868 175.549 373.168C175.754 373.247 176.189 373.082 176.318 373.137C176.631 373.27 176.782 373.643 177.219 373.898C177.741 374.201 178.314 374.326 178.691 374.654C178.844 374.788 179.105 375.481 179.515 375.802C180.182 376.325 180.726 376.643 181.577 376.656C182.298 376.668 183.053 376.153 183.767 376.46C183.523 376.867 183.278 377.274 183.034 377.681C183.876 377.635 184.142 378.008 184.873 378.096C184.732 378.079 186.423 378.223 186.278 378.13C186.378 378.194 186.545 379.067 186.876 379.378C188.243 380.66 190.395 380.724 192.058 381.4C193.765 382.094 195.4 382.902 197.122 383.596C198.39 384.106 204.235 386.851 205.083 384.673C204.645 384.411 204.17 384.274 203.661 384.262Z" fill="#20330B"/>
<path fill-rule="evenodd" clip-rule="evenodd" d="M433.604 232.965C435.491 228.82 435.213 224.764 435.399 220.359C435.55 216.749 435.479 213.082 434.018 209.678C432.692 206.587 430.502 202.477 427.147 201.218C424.539 200.24 422.063 201.731 423.758 204.391C425.448 207.046 427.146 208.956 428.169 212.038C429.346 215.588 429.887 219.342 429.986 223.071C430.166 229.864 429.068 237.454 425.028 243.075C424.628 243.632 423.264 245.156 423.897 245.91C424.621 246.773 425.762 245.631 426.2 245.126C426.607 244.654 429.307 239.822 430.01 240.808C430.18 240.078 429.98 239.647 430.25 238.959C430.406 238.561 430.942 238.096 431.143 237.58C431.802 235.89 432.863 234.592 433.604 232.965Z" fill="#20330B"/>
<path fill-rule="evenodd" clip-rule="evenodd" d="M281.492 159.246C284.254 160.2 286.353 153.997 287.762 152.584C288.424 151.921 289.154 151.101 289.842 150.505C290.376 150.043 290.831 150.094 291.235 149.72C292.576 148.479 292.369 147.084 292.456 145.495C293.518 145.658 293.86 145.772 294.547 144.88C294.75 144.616 294.667 143.993 294.952 143.837C295.343 143.623 295.784 143.949 296.165 143.785C296.265 143.743 296.444 143.083 296.617 142.869C297.006 142.386 297.244 142.23 297.788 141.94C298.521 141.549 300.119 141.722 299.942 140.57C300.317 140.673 300.698 140.701 301.084 140.652C301.351 140.191 300.281 140.055 300.454 139.796C300.823 139.248 302.028 138.758 302.668 138.827C302.241 138.396 301.814 137.964 301.388 137.532C302.763 137.675 302.972 136.899 304.005 138.188C304.25 136.931 306.259 136.351 307.226 135.802C309.043 134.769 310.95 134.01 312.862 133.17C314.525 132.439 316.115 131.601 317.72 130.756C318.541 130.323 319.369 129.903 320.248 129.603C321.147 129.297 321.68 129.585 322.466 129.431C323.72 129.185 324.748 128.198 326.012 127.943C326.581 127.827 326.689 128.199 327.149 127.973C327.579 127.762 328.211 126.814 328.15 126.348C327.893 124.39 320.637 127.035 319.538 127.329C306.178 130.897 294.11 137.854 285.301 148.619C284.104 150.082 277.463 157.854 281.492 159.246Z" fill="#20330B"/>
<path fill-rule="evenodd" clip-rule="evenodd" d="M205.163 385.928C205.971 386.006 206.783 386.084 207.977 386.201C206.333 384.466 206.152 384.469 205.163 385.928Z" fill="#20330B"/>
<path fill-rule="evenodd" clip-rule="evenodd" d="M307.586 201.437C309.115 201.774 312.847 201.283 313.027 199.039C313.194 196.967 310.778 198.481 309.65 197.879C308.446 197.236 308.729 194.316 306.76 196.755C305.702 198.064 305.692 201.02 307.586 201.437Z" fill="#20330B"/>
</g>
<defs>
<clipPath id="clip0_481_3338">
<rect width="459" height="426" fill="white" transform="translate(206 465.104) rotate(-49.7077)"/>
</clipPath>
<clipPath id="clip1_481_3338">
<rect width="348.706" height="304.525" fill="white" transform="translate(316.419 91.2659) rotate(-33.8558)"/>
</clipPath>
<clipPath id="clip2_481_3338">
<rect width="471.458" height="353.227" fill="white" transform="translate(108.047 47) rotate(17.8114)"/>
</clipPath>
</defs>
</svg>
