<?xml version="1.0" encoding="UTF-8" standalone="no"?><svg width="50" height="50" viewBox="0 0 50 50" fill="none" xmlns="http://www.w3.org/2000/svg">
<circle cx="25" cy="25" r="25" fill="#2D4710"/>
<path d="M35.207 32.8618L28.8667 26.5215C29.8506 25.2495 30.3828 23.6943 30.3828 22.0586C30.3828 20.1006 29.6187 18.2646 28.2368 16.8804C26.855 15.4961 25.0142 14.7344 23.0586 14.7344C21.103 14.7344 19.2622 15.4985 17.8804 16.8804C16.4961 18.2622 15.7344 20.1006 15.7344 22.0586C15.7344 24.0142 16.4985 25.855 17.8804 27.2368C19.2622 28.6211 21.1006 29.3828 23.0586 29.3828C24.6943 29.3828 26.2471 28.8506 27.519 27.8691L33.8594 34.207C33.878 34.2256 33.9 34.2404 33.9243 34.2505C33.9486 34.2605 33.9747 34.2657 34.001 34.2657C34.0273 34.2657 34.0533 34.2605 34.0776 34.2505C34.1019 34.2404 34.124 34.2256 34.1426 34.207L35.207 33.145C35.2256 33.1264 35.2404 33.1044 35.2505 33.0801C35.2605 33.0558 35.2657 33.0297 35.2657 33.0034C35.2657 32.9771 35.2605 32.9511 35.2505 32.9268C35.2404 32.9025 35.2256 32.8804 35.207 32.8618V32.8618ZM26.9258 25.9258C25.8906 26.9585 24.5186 27.5273 23.0586 27.5273C21.5986 27.5273 20.2266 26.9585 19.1914 25.9258C18.1587 24.8906 17.5898 23.5186 17.5898 22.0586C17.5898 20.5986 18.1587 19.2241 19.1914 18.1914C20.2266 17.1587 21.5986 16.5898 23.0586 16.5898C24.5186 16.5898 25.8931 17.1563 26.9258 18.1914C27.9585 19.2266 28.5273 20.5986 28.5273 22.0586C28.5273 23.5186 27.9585 24.8931 26.9258 25.9258Z" fill="#FDFDFC" fill-opacity="0.8"/>
</svg>
